<svg xmlns="http://www.w3.org/2000/svg" xmlns:xlink="http://www.w3.org/1999/xlink" width="277.859" height="242.008" viewBox="0 0 277.859 242.008"><defs><clipPath id="a"><path d="M274.1,279.66s-1.636,4.279-2.893,6.793-3.4,13.223-3.906,18.51-1.257,11.961-1.257,11.961-2.9,5.287-4.279,7.3-3.4,3.147-2.264,4.529,3.906-.5,5.921-1.636,2.264-3.147,3.4-3.651,3.527-.13,3.147-3.4-2.14-4.908-1.76-5.791,3.017-9.566,4.149-11.831,3.651-4.913,4.659-8.434a29.351,29.351,0,0,0,.883-7.682,52.4,52.4,0,0,1,2.768-5.038C283.048,281.041,275.491,280.668,274.1,279.66Z" transform="translate(-259.173 -279.66)" fill="#fff" stroke="#263238" stroke-linecap="round" stroke-linejoin="round" stroke-width="1"/></clipPath><clipPath id="b"><path d="M342.94,278.839l2.9,4.41a49.714,49.714,0,0,0,3.147,9.567,94.394,94.394,0,0,0,8.814,12.969c2.264,2.779,3.023,8.185,3.023,8.185s-1.132,2.394-.379,4.155,2.9,3.023,3.278,4.659,2.644,5.542,4.4,5.287,2.9-2.513,1.511-5.791-4.03-5.791-4.783-9.193-3.147-17.5-5.163-21.907a51.413,51.413,0,0,0-4.03-7.3l-1.891-7.557S346.721,280.1,342.94,278.839Z" transform="translate(-342.94 -276.32)" fill="#fff" stroke="#263238" stroke-linecap="round" stroke-linejoin="round" stroke-width="1"/></clipPath><clipPath id="c"><path d="M345.636,210.467s.249.249-.883,1-3.9,1.387-3.272,2.394,1.257,1.511.753,1.891-1.257.379-1.885.877-2.519-5.536-2.519-5.536S342.489,208.809,345.636,210.467Z" transform="translate(-337.83 -209.864)" fill="#fff" stroke="#263238" stroke-linecap="round" stroke-linejoin="round" stroke-width="1"/></clipPath><clipPath id="d"><path d="M324.022,213.5l-.815-2.8-22.643,4.285-.2,1.166a26.039,26.039,0,0,0,11.412.719A58.141,58.141,0,0,0,324.022,213.5Z" transform="translate(-300.36 -210.7)" fill="#fff" stroke="#263238" stroke-linecap="round" stroke-linejoin="round" stroke-width="1"/></clipPath><clipPath id="e"><path d="M322.7,110.178a77.786,77.786,0,0,0-4.9-13.053c-1.534-3.266-3.057-7.359-5.423-10.116-1.511-1.76-4.285-3.147-4.914-2.893s-3.4,1.381-3.4,2.893,1.008,1.511,1.008,1.511-.255,1.891.5,2.644,4.659.5,4.659.5a16.506,16.506,0,0,1,1.727,3.278c.753,2.513,1.421,3.017,1.925,7.551a90.9,90.9,0,0,0,2.14,10.7,4.744,4.744,0,0,0-1.262,1.132c-.753.883-5.536,5.661-5.536,5.661a29.4,29.4,0,0,1-4.285,1.636,21.159,21.159,0,0,0-3.725,1.562c-.776-.091-1.557-.175-1.976-.175-.883,0-7.048,1.132-7.048,1.132a21.084,21.084,0,0,0-4.529-2.015,29.4,29.4,0,0,1-4.285-1.636s-4.783-4.783-5.536-5.661a4.744,4.744,0,0,0-1.262-1.132,90.89,90.89,0,0,0,2.14-10.7c.408-3.657,1.46-7.812,3.657-10.829,0,0,3.9.255,4.659-.5s.5-2.644.5-2.644,1.008,0,1.008-1.511-2.768-2.644-3.4-2.893-3.4,1.132-4.913,2.893-1.381,3.527-2.893,6.046a154.021,154.021,0,0,0-7.432,17.124c-.64,2.406-1.381,3.776-1.257,4.913s6.17,7.676,7.682,9.442,7.3,7.806,7.3,7.806,2.14,10.574,2.768,14.355.255,14.225.255,14.225,6.923-1.511,13.472-2.264,13.721-3.272,14.6-3.272h.883s-4.913-6.046-4.913-6.929c0-.7.164-13.529.226-18.68,1.828-1.925,4.415-4.664,5.349-5.757,1.511-1.766,7.557-8.31,7.682-9.442S323.326,112.573,322.7,110.178Z" transform="translate(-268.636 -84.087)" fill="#fff" stroke="#263238" stroke-linecap="round" stroke-linejoin="round" stroke-width="1"/></clipPath><clipPath id="f"><path d="M326.693,141.326s.685-1.942,1.6-1.025.453,2.83-.119,3.657-1.025.345-1.37-.566a4.336,4.336,0,0,1-.113-2.066Z" transform="translate(-326.618 -140.055)" fill="#fff" stroke="#263238" stroke-linecap="round" stroke-linejoin="round" stroke-width="1"/></clipPath><clipPath id="g"><path d="M305.1,143.568s-1.183-1.7-1.817-.566.328,2.881,1.1,3.493,1.081.057,1.166-.917A4.347,4.347,0,0,0,305.1,143.568Z" transform="translate(-303.076 -142.613)" fill="#fff" stroke="#263238" stroke-linecap="round" stroke-linejoin="round" stroke-width="1"/></clipPath><clipPath id="h"><path d="M312,155.672s2.978,7.778,4.579,7.206,2.06-7.438,2.06-7.438S313.7,156.47,312,155.672Z" transform="translate(-312 -155.44)" fill="#fff" stroke="#263238" stroke-linecap="round" stroke-linejoin="round" stroke-width="1"/></clipPath><clipPath id="i"><path d="M305.043,133.4a58.332,58.332,0,0,0,1.262,7.319,5.991,5.991,0,0,0,6.883,3.793c3.544-.572,4.806-5.734,4.806-6.08s-.226-6.521-1.6-8.808-4-4.461-7.665-2.745A6.092,6.092,0,0,0,305.043,133.4Z" transform="translate(-304.943 -126.261)" fill="#fff" stroke="#263238" stroke-linecap="round" stroke-linejoin="round" stroke-width="1"/></clipPath><clipPath id="j"><path d="M154.989,154.088a48.063,48.063,0,0,0-.923,6.974c0,2.445,2.462,7.693,3.283,10.053s1.845,13.337,1.845,13.648c0,.085.04.691.1,1.517,3.628,1.013,11.112,1.359,20.033-7.993-1.619-1.647-3.4-3.181-4.851-4.964-1.03-1.251-1.817-2.179-1.743-2.717.119-.832,1.092-5.021,1.976-8.587l2.751-5.276c.679-.708,3.713-4.529,4-5.015,1.642-2.774,9.748-10.982,10.568-11.7s2.666-4.817,4.1-10.976c.526-2.264,1.132-4.919,1.738-7.359a13.111,13.111,0,0,1-3.328-1.177c-.991,1.936-1.964,3.872-2.513,5.049-1.438,3.079-5.236,10.467-5.236,10.467l-9.538,9.951s-1.438.719-3.9,2.151c-.232.136-.476.289-.719.442l-4.529,1-3.883-.713a65.2,65.2,0,0,0-5.746-4c-2.462-1.432-3.9-2.151-3.9-2.151l-9.538-9.951s-3.8-7.359-5.236-10.467c-.662-1.415-1.93-3.923-3.108-6.227a30.892,30.892,0,0,1-3.034,1.093c.662,2.751,1.415,5.938,2.038,8.6,1.438,6.159,3.283,10.263,4.1,10.982s8.927,8.921,10.568,11.695a32.9,32.9,0,0,0,4.619,5.655Z" transform="translate(-133.66 -116.06)" fill="#40a0c0" stroke="#263238" stroke-linecap="round" stroke-linejoin="round" stroke-width="1"/></clipPath><clipPath id="k"><path d="M183.637,159.85s.1,6.464-.413,8-3.4,4.529-2.151,6.98,5.746-.311,7.359-3.283.826-3.9.826-3.9v-4.529Z" transform="translate(-180.763 -159.85)" fill="#fff" stroke="#263238" stroke-linecap="round" stroke-linejoin="round" stroke-width="1"/></clipPath><clipPath id="l"><path d="M181.864,145.94s-1.947-1.845-2.462-.509.821,3.283,1.54,3.487l.719.2a8.253,8.253,0,0,0,2.055,3.9c1.642,1.642,3.487,2.462,5.536,1.438s3.7-3.595,4.206-6.668a17.322,17.322,0,0,0,.311-4.619c0-.515-.923-4.206-3.595-5.129s-2.361.2-4.41,2.564A48.939,48.939,0,0,0,181.864,145.94Z" transform="translate(-179.286 -137.722)" fill="#fff" stroke="#263238" stroke-linecap="round" stroke-linejoin="round" stroke-width="1"/></clipPath></defs><g transform="translate(-65.356 -39.457)"><g transform="translate(65.356 39.457)"><path d="M271.464,74.683s-42.255-22.663-89.516-7.394-76.387,57.336-101,90.792S61.43,231.048,92.175,254.212s57.268,2.055,104.244,9.315,58.6,15.7,101.165-1.592,58.434-73.493,34.352-121.584S271.464,74.683,271.464,74.683Z" transform="translate(-65.356 -62.003)" fill="#ee7a15"/><path d="M271.464,74.683s-42.255-22.663-89.516-7.394-76.387,57.336-101,90.792S61.43,231.048,92.175,254.212s57.268,2.055,104.244,9.315,58.6,15.7,101.165-1.592,58.434-73.493,34.352-121.584S271.464,74.683,271.464,74.683Z" transform="translate(-65.356 -62.003)" fill="#fff" opacity="0.7"/></g><g transform="translate(71.087 78.602)"><path d="M264.892,112.652c-.566-3.028-1.783-7.676-4.025-9.25-3.4-2.394-6.849,2.74-10.959,3.4s2.394-12.669-4.795-15.069-9.25,6.51-11.65,10.619-5.819-1.7-8.9-.685-1.37,6.5-4.449,7.189-8.219-3.425-10.619-1.025c-2.264,2.264-2.394,2.706-5.661,4.795Z" transform="translate(-131.175 -91.327)" fill="#40a0c0"/><path d="M115.456,260.873c-.374-1.981-1.166-5.027-2.638-6.057-2.264-1.568-4.483,1.794-7.178,2.264s1.568-8.3-3.142-9.872-6.057,4.262-7.625,6.951-3.815-1.132-5.836-.447-.894,4.262-2.915,4.71-5.383-2.264-6.957-.668a15.714,15.714,0,0,1-3.685,3.136Z" transform="translate(-75.48 -158.854)" fill="#40a0c0"/><path d="M342.331,207.177c-1.132-6.1-3.606-15.488-8.123-18.68-6.912-4.834-13.818,5.525-22.077,6.906s4.834-25.552-9.668-30.386-18.652,13.121-23.486,21.409S267.22,183,260.993,185.073s-2.762,13.127-8.978,14.508-16.586-6.912-21.42-2.094c-4.591,4.591-4.834,5.451-11.355,9.668Z" transform="translate(-137.862 -122.95)" fill="#40a0c0"/><path d="M264.892,112.652c-.566-3.028-1.783-7.676-4.025-9.25-3.4-2.394-6.849,2.74-10.959,3.4s2.394-12.669-4.795-15.069-9.25,6.51-11.65,10.619-5.819-1.7-8.9-.685-1.37,6.5-4.449,7.189-8.219-3.425-10.619-1.025c-2.264,2.264-2.394,2.706-5.661,4.795Z" transform="translate(-131.175 -91.327)" fill="#fff" opacity="0.4"/><path d="M115.456,260.873c-.374-1.981-1.166-5.027-2.638-6.057-2.264-1.568-4.483,1.794-7.178,2.264s1.568-8.3-3.142-9.872-6.057,4.262-7.625,6.951-3.815-1.132-5.836-.447-.894,4.262-2.915,4.71-5.383-2.264-6.957-.668a15.714,15.714,0,0,1-3.685,3.136Z" transform="translate(-75.48 -158.854)" fill="#fff" opacity="0.4"/><path d="M342.331,207.177c-1.132-6.1-3.606-15.488-8.123-18.68-6.912-4.834-13.818,5.525-22.077,6.906s4.834-25.552-9.668-30.386-18.652,13.121-23.486,21.409S267.22,183,260.993,185.073s-2.762,13.127-8.978,14.508-16.586-6.912-21.42-2.094c-4.591,4.591-4.834,5.451-11.355,9.668Z" transform="translate(-137.862 -122.95)" fill="#fff" opacity="0.4"/></g><g transform="translate(80.08 206.534)"><path d="M367.916,373.849s7.7.764,11.6,5.536a14.893,14.893,0,0,1,11.531-5.417,14.967,14.967,0,1,0-23.135-.1Z" transform="translate(-209.914 -331.268)" fill="#40a0c0"/><path d="M367.916,373.849s7.7.764,11.6,5.536a14.893,14.893,0,0,1,11.531-5.417,14.967,14.967,0,1,0-23.135-.1Z" transform="translate(-209.914 -331.268)" fill="#fff" opacity="0.3"/><path d="M390.34,351.31l-.26,38.606h1.3Z" transform="translate(-220.988 -332.074)" fill="#263238"/><path d="M391.13,395.078s2.6-4.676,7.28-6.108c0,0-4.942,1.172-7.41,5.2Z" transform="translate(-221.388 -348.416)" fill="#263238"/><path d="M391.13,371.658s2.6-4.676,7.28-6.108c0,0-4.942,1.172-7.41,5.2Z" transform="translate(-221.388 -338.253)" fill="#263238"/><path d="M391.13,383.368s2.6-4.676,7.28-6.108c0,0-4.942,1.172-7.41,5.2Z" transform="translate(-221.388 -343.334)" fill="#263238"/><path d="M385.165,377.628s-2.508-4.676-7.025-6.108a12.628,12.628,0,0,1,7.149,5.2Z" transform="translate(-215.807 -340.843)" fill="#263238"/><path d="M385.165,389.108s-2.508-4.676-7.025-6.108a12.628,12.628,0,0,1,7.149,5.2Z" transform="translate(-215.807 -345.825)" fill="#263238"/><path d="M316.489,351.87s10.308,1.025,15.539,7.415a19.958,19.958,0,0,1,15.437-7.257,20.044,20.044,0,1,0-30.981-.141Z" transform="translate(-187.101 -318.137)" fill="#40a0c0"/><path d="M316.489,351.87s10.308,1.025,15.539,7.415a19.958,19.958,0,0,1,15.437-7.257,20.044,20.044,0,1,0-30.981-.141Z" transform="translate(-187.101 -318.137)" fill="#fff" opacity="0.5"/><path d="M346.515,321.7l-.345,51.693h1.738Z" transform="translate(-201.934 -319.225)" fill="#263238"/><path d="M347.575,380.31s3.481-6.266,9.748-8.18c0,0-6.617,1.562-9.923,6.957Z" transform="translate(-202.468 -341.108)" fill="#263238"/><path d="M347.575,348.94s3.481-6.266,9.748-8.18c0,0-6.617,1.568-9.923,6.963Z" transform="translate(-202.468 -327.496)" fill="#263238"/><path d="M347.575,364.625s3.481-6.266,9.748-8.185c0,0-6.617,1.568-9.923,6.963Z" transform="translate(-202.468 -334.3)" fill="#263238"/><path d="M339.588,356.94s-3.362-6.266-9.408-8.18c0,0,6.38,1.562,9.572,6.963Z" transform="translate(-194.996 -330.967)" fill="#263238"/><path d="M339.588,372.31s-3.362-6.266-9.408-8.18c0,0,6.38,1.568,9.572,6.963Z" transform="translate(-194.996 -337.637)" fill="#263238"/><path d="M157.385,350.789s10.557,1.042,15.906,7.585a20.437,20.437,0,0,1,15.8-7.421,20.52,20.52,0,1,0-31.7-.147Z" transform="translate(-118.019 -317.328)" fill="#40a0c0"/><path d="M157.385,350.789s10.557,1.042,15.906,7.585a20.437,20.437,0,0,1,15.8-7.421,20.52,20.52,0,1,0-31.7-.147Z" transform="translate(-118.019 -317.328)" fill="#fff" opacity="0.3"/><path d="M188.117,319.91l-.357,52.916h1.783Z" transform="translate(-133.195 -318.448)" fill="#263238"/><path d="M189.219,379.9s3.561-6.408,10-8.372c0,0-6.793,1.6-10.155,7.127Z" transform="translate(-133.759 -340.848)" fill="#263238"/><path d="M189.2,347.8s3.561-6.414,9.974-8.372c0,0-6.793,1.6-10.155,7.121Z" transform="translate(-133.742 -326.919)" fill="#263238"/><path d="M189.2,363.852s3.561-6.414,9.974-8.372c0,0-6.793,1.6-10.155,7.127Z" transform="translate(-133.742 -333.883)" fill="#263238"/><path d="M181.023,355.982s-3.436-6.414-9.623-8.372c0,0,6.532,1.6,9.8,7.127Z" transform="translate(-126.096 -330.468)" fill="#263238"/><path d="M181.023,371.718s-3.436-6.413-9.623-8.378c0,0,6.532,1.608,9.8,7.127Z" transform="translate(-126.096 -337.294)" fill="#263238"/><path d="M94.94,374.877s8.191.809,12.346,5.887A15.854,15.854,0,0,1,119.547,375a15.923,15.923,0,1,0-24.607-.113Z" transform="translate(-91.367 -331.034)" fill="#40a0c0"/><path d="M94.94,374.877s8.191.809,12.346,5.887A15.854,15.854,0,0,1,119.547,375a15.923,15.923,0,1,0-24.607-.113Z" transform="translate(-91.367 -331.034)" fill="#fff" opacity="0.5"/><path d="M118.8,350.91l-.277,41.062H119.9Z" transform="translate(-103.149 -331.9)" fill="#263238"/><path d="M119.636,397.458s2.768-4.976,7.744-6.5c0,0-5.253,1.245-7.88,5.53Z" transform="translate(-103.575 -349.279)" fill="#263238"/><path d="M119.636,372.548s2.768-4.976,7.744-6.5c0,0-5.253,1.245-7.88,5.53Z" transform="translate(-103.575 -338.47)" fill="#263238"/><path d="M119.636,385.018s2.768-4.981,7.744-6.5c0,0-5.253,1.245-7.88,5.53Z" transform="translate(-103.575 -343.881)" fill="#263238"/><path d="M113.272,378.9s-2.672-4.976-7.472-6.5c0,0,5.095,1.245,7.6,5.53Z" transform="translate(-97.63 -341.225)" fill="#263238"/><path d="M113.272,391.108s-2.672-4.976-7.472-6.5c0,0,5.095,1.245,7.6,5.53Z" transform="translate(-97.63 -346.524)" fill="#263238"/></g><g transform="translate(67.279 244.037)"><path d="M270.979,401.53l-3.215-.566q-.408-.221-.866-.425l2.559-2.559-7.6.509-.764-1.268-2.026.5-1.013-2.536-2.791,1.019-.759-3.549-2.536,1.268-2.536-2.032-.77,1.545-2.027-.509-.7,1.042-.645-.164-.917-1.913-3.113.917-1.7-.379-.526-.792h-3.266l-.566-.108-.243-2.174-4.053.255-2.027-2.264-1.777,2.027-1.008-1.03-1.268.509-1.777-2.264s-1.517,2.264-2.53,2.536-2.791-1.777-2.791-1.777l-1.036,1.381-1.132-.125-.86-1-1.511.742-.611-.057-.425-1.7-3.045,1.013-2.027-1.777-1.189,1.9-.826-.057-1.279-.323L201,386.591l-1.013.5-3.295-2.785v2.881h-.3l-3.249-1.857-.43,1.7h-.894l-.708-1.7-3.011,1.6H186.68l-.136-.815-5.095.509-1.772-3.045-1.523,2.791-1.772-2.536-1.551,3.1h-1.7l-1.076-.838-.249.866-1.421.04-1.868-1.438-.255,1.262-2.01-.742-1.993,1.132h-.385l-.917-1.376-3.045,1.013-.889.594-1.579.085-.317-1.438-3.532,1.7-1.749.113c-.594-.6-1.636-1.534-2.327-1.534A1.879,1.879,0,0,0,148,387.384l-.991-.81-1.16,1.738-.759.068-.866-1.047-2.536,1.268-1.013-2.264-2.791,2.264-.509-1.777-2.819,1.777-1.777-2.027-1.823,3.187-.566.062-1.7-1.477-1.472,1.84-1.008.125-1.325-1.7-.509,1.268-2.264-1.268-1.268,2.264-2.536-1.013-2.859,1.879-3.459.492-1.506-1.081-1.268.758-1.777-.758-.5,1.523-1.777-.509-1.336,1.336-.243.04-.725-1.647-2.513,1.545-1.517-2.027-2.032,2.536L93.5,394.2l-3.04.255L88.2,395.467l-2.2,1.251-1.6-.238-1.449.923-.153.04-1.7-.487-1.268.759-2.264-.249-.351,1.738c-.566.2-1.087.413-1.619.634-.5-.051-1.019-.091-1.33-.091s-.725.566-1.132,1.228c-3.7,1.913-5.961,4.308-3.04,6.878,3.838,3.4,13.586,1.9,18.08,1.6,19.246-1.279,33.777-5.315,41.249-4.659s-22.2,16.206,9.889,16.212,97.929-3.713,107.553-4.619-9.55-4.438-6.793-8.672,25.139-.645,28.9-1.653c2.5-.668,1.7-2.338.894-3.4Z" transform="translate(-68.753 -383.58)" fill="#ee7a15"/><path d="M270.979,401.53l-3.215-.566q-.408-.221-.866-.425l2.559-2.559-7.6.509-.764-1.268-2.026.5-1.013-2.536-2.791,1.019-.759-3.549-2.536,1.268-2.536-2.032-.77,1.545-2.027-.509-.7,1.042-.645-.164-.917-1.913-3.113.917-1.7-.379-.526-.792h-3.266l-.566-.108-.243-2.174-4.053.255-2.027-2.264-1.777,2.027-1.008-1.03-1.268.509-1.777-2.264s-1.517,2.264-2.53,2.536-2.791-1.777-2.791-1.777l-1.036,1.381-1.132-.125-.86-1-1.511.742-.611-.057-.425-1.7-3.045,1.013-2.027-1.777-1.189,1.9-.826-.057-1.279-.323L201,386.591l-1.013.5-3.295-2.785v2.881h-.3l-3.249-1.857-.43,1.7h-.894l-.708-1.7-3.011,1.6H186.68l-.136-.815-5.095.509-1.772-3.045-1.523,2.791-1.772-2.536-1.551,3.1h-1.7l-1.076-.838-.249.866-1.421.04-1.868-1.438-.255,1.262-2.01-.742-1.993,1.132h-.385l-.917-1.376-3.045,1.013-.889.594-1.579.085-.317-1.438-3.532,1.7-1.749.113c-.594-.6-1.636-1.534-2.327-1.534A1.879,1.879,0,0,0,148,387.384l-.991-.81-1.16,1.738-.759.068-.866-1.047-2.536,1.268-1.013-2.264-2.791,2.264-.509-1.777-2.819,1.777-1.777-2.027-1.823,3.187-.566.062-1.7-1.477-1.472,1.84-1.008.125-1.325-1.7-.509,1.268-2.264-1.268-1.268,2.264-2.536-1.013-2.859,1.879-3.459.492-1.506-1.081-1.268.758-1.777-.758-.5,1.523-1.777-.509-1.336,1.336-.243.04-.725-1.647-2.513,1.545-1.517-2.027-2.032,2.536L93.5,394.2l-3.04.255L88.2,395.467l-2.2,1.251-1.6-.238-1.449.923-.153.04-1.7-.487-1.268.759-2.264-.249-.351,1.738c-.566.2-1.087.413-1.619.634-.5-.051-1.019-.091-1.33-.091s-.725.566-1.132,1.228c-3.7,1.913-5.961,4.308-3.04,6.878,3.838,3.4,13.586,1.9,18.08,1.6,19.246-1.279,33.777-5.315,41.249-4.659s-22.2,16.206,9.889,16.212,97.929-3.713,107.553-4.619-9.55-4.438-6.793-8.672,25.139-.645,28.9-1.653c2.5-.668,1.7-2.338.894-3.4Z" transform="translate(-68.753 -383.58)" fill="#fff" opacity="0.4"/></g><g transform="translate(175.065 74.504)"><path d="M274.1,279.66s-1.636,4.279-2.893,6.793-3.4,13.223-3.906,18.51-1.257,11.961-1.257,11.961-2.9,5.287-4.279,7.3-3.4,3.147-2.264,4.529,3.906-.5,5.921-1.636,2.264-3.147,3.4-3.651,3.527-.13,3.147-3.4-2.14-4.908-1.76-5.791,3.017-9.566,4.149-11.831,3.651-4.913,4.659-8.434a29.351,29.351,0,0,0,.883-7.682,52.4,52.4,0,0,1,2.768-5.038C283.048,281.041,275.491,280.668,274.1,279.66Z" transform="translate(-259.168 -168.952)" fill="#fff"/><g transform="translate(0.005 110.708)" clip-path="url(#a)"><path d="M274.1,279.66s-1.636,4.279-2.893,6.793-3.4,13.223-3.906,18.51-1.257,11.961-1.257,11.961-2.9,5.287-4.279,7.3-3.4,3.147-2.264,4.529,3.906-.5,5.921-1.636,2.264-3.147,3.4-3.651,3.527-.13,3.147-3.4-2.14-4.908-1.76-5.791,3.017-9.566,4.149-11.831,3.651-4.913,4.659-8.434a29.351,29.351,0,0,0,.883-7.682,52.4,52.4,0,0,1,2.768-5.038C283.048,281.041,275.491,280.668,274.1,279.66Z" transform="translate(-259.173 -279.66)" fill="#d9d9d9" stroke="#263238" stroke-linecap="round" stroke-linejoin="round" stroke-width="1"/><path d="M278.077,284.092c1.1.566,3.2,1.608,4.495,1.608h1.806s1.4,3.21-1,8.627-6.623,11.831-7.625,16.042c-.566,2.349-2.049,9.674-3.261,15.7.917-1.053,1.279-2.225,2.106-2.593,1.132-.5,3.527-.13,3.147-3.4s-2.14-4.908-1.76-5.791,3.023-9.578,4.155-11.842,3.651-4.913,4.659-8.434a29.352,29.352,0,0,0,.883-7.682,52.411,52.411,0,0,1,2.768-5.038c.379-.255-7.178-.628-8.565-1.636C279.883,279.66,279.005,281.9,278.077,284.092Z" transform="translate(-264.952 -279.66)" opacity="0.25"/></g><path d="M274.1,279.66s-1.636,4.279-2.893,6.793-3.4,13.223-3.906,18.51-1.257,11.961-1.257,11.961-2.9,5.287-4.279,7.3-3.4,3.147-2.264,4.529,3.906-.5,5.921-1.636,2.264-3.147,3.4-3.651,3.527-.13,3.147-3.4-2.14-4.908-1.76-5.791,3.017-9.566,4.149-11.831,3.651-4.913,4.659-8.434a29.351,29.351,0,0,0,.883-7.682,52.4,52.4,0,0,1,2.768-5.038C283.048,281.041,275.491,280.668,274.1,279.66Z" transform="translate(-259.168 -168.952)" fill="none" stroke="#263238" stroke-linecap="round" stroke-linejoin="round" stroke-width="1"/><path d="M259.5,355.562c1.132,1.387,3.906-.5,5.921-1.636s2.264-3.147,3.4-3.651,3.527-.13,3.147-3.4c-.334-2.91-1.76-4.529-1.811-5.468a4.421,4.421,0,0,1-1.585,2.321c-1.636,1.387-2.519,0-2.519,0s-2.9,5.287-4.279,7.3S258.364,354.2,259.5,355.562Z" transform="translate(-259.165 -195.748)" fill="#263238" stroke="#263238" stroke-linecap="round" stroke-linejoin="round" stroke-width="1"/><path d="M271.986,351.12a9.34,9.34,0,0,1-2.021,1.353c-2.14,1.008-2.644,2.893-5.661,5.287a6.108,6.108,0,0,1-5.095,1.426,1.454,1.454,0,0,0,.3.566c1.132,1.387,3.906-.5,5.921-1.636s2.264-3.147,3.4-3.651S272.337,354.352,271.986,351.12Z" transform="translate(-259.184 -199.961)" fill="#fff" stroke="#263238" stroke-linecap="round" stroke-linejoin="round" stroke-width="1"/><path d="M342.94,278.839l2.9,4.41a49.714,49.714,0,0,0,3.147,9.567,94.394,94.394,0,0,0,8.814,12.969c2.264,2.779,3.023,8.185,3.023,8.185s-1.132,2.394-.379,4.155,2.9,3.023,3.278,4.659,2.644,5.542,4.4,5.287,2.9-2.513,1.511-5.791-4.03-5.791-4.783-9.193-3.147-17.5-5.163-21.907a51.413,51.413,0,0,0-4.03-7.3l-1.891-7.557S346.721,280.1,342.94,278.839Z" transform="translate(-295.518 -167.503)" fill="#fff"/><g transform="translate(47.422 108.817)" clip-path="url(#b)"><path d="M342.94,278.839l2.9,4.41a49.714,49.714,0,0,0,3.147,9.567,94.394,94.394,0,0,0,8.814,12.969c2.264,2.779,3.023,8.185,3.023,8.185s-1.132,2.394-.379,4.155,2.9,3.023,3.278,4.659,2.644,5.542,4.4,5.287,2.9-2.513,1.511-5.791-4.03-5.791-4.783-9.193-3.147-17.5-5.163-21.907a51.413,51.413,0,0,0-4.03-7.3l-1.891-7.557S346.721,280.1,342.94,278.839Z" transform="translate(-342.94 -276.32)" fill="#d9d9d9" stroke="#263238" stroke-linecap="round" stroke-linejoin="round" stroke-width="1"/><path d="M359.69,291.179a51.415,51.415,0,0,0-4.03-7.3l-1.891-7.557s-7.048,3.781-10.829,2.519l2.881,4.381c.492,0,1.036.028,1.619.028a12.645,12.645,0,0,0,4.613-1,93.67,93.67,0,0,1,7.217,14.038c1.67,4.455,3.827,11.219,5.253,15.216C363.545,306.548,361.467,295.074,359.69,291.179Z" transform="translate(-342.94 -276.32)" opacity="0.25"/></g><path d="M342.94,278.839l2.9,4.41a49.714,49.714,0,0,0,3.147,9.567,94.394,94.394,0,0,0,8.814,12.969c2.264,2.779,3.023,8.185,3.023,8.185s-1.132,2.394-.379,4.155,2.9,3.023,3.278,4.659,2.644,5.542,4.4,5.287,2.9-2.513,1.511-5.791-4.03-5.791-4.783-9.193-3.147-17.5-5.163-21.907a51.413,51.413,0,0,0-4.03-7.3l-1.891-7.557S346.721,280.1,342.94,278.839Z" transform="translate(-295.518 -167.503)" fill="none" stroke="#263238" stroke-linecap="round" stroke-linejoin="round" stroke-width="1"/><path d="M382.855,351.14c-1.194-2.83-3.323-5.095-4.37-7.829a3.4,3.4,0,0,1-.917,1.409c-1.387,1.132-3.527-1.891-3.527-1.891s-1.132,2.394-.379,4.155,2.9,3.023,3.278,4.659,2.644,5.542,4.4,5.287S384.242,354.417,382.855,351.14Z" transform="translate(-308.737 -196.364)" fill="#263238" stroke="#263238" stroke-linecap="round" stroke-linejoin="round" stroke-width="1"/><path d="M376.935,353.123a7.82,7.82,0,0,0,.679,1.7,3.581,3.581,0,0,1-.175-.442c-.634-2.015-1.008-4.529-2.394-5.8a7.109,7.109,0,0,1-1.579-2.344,4.143,4.143,0,0,0,.192,2.219C374.416,350.231,376.567,351.487,376.935,353.123Z" transform="translate(-308.733 -197.844)" fill="#fff" stroke="#263238" stroke-linecap="round" stroke-linejoin="round" stroke-width="1"/><path d="M386.8,360.37a5.3,5.3,0,0,1-1.132,2.915c-1.172,1.172-3.334-.181-4.353-1.851.911,1.619,2.3,3.278,3.47,3.108C386.229,364.338,387.254,362.753,386.8,360.37Z" transform="translate(-312.168 -203.975)" fill="#fff" stroke="#263238" stroke-linecap="round" stroke-linejoin="round" stroke-width="1"/><path d="M345.636,210.467s.249.249-.883,1-3.9,1.387-3.272,2.394,1.257,1.511.753,1.891-1.257.379-1.885.877-2.519-5.536-2.519-5.536S342.489,208.809,345.636,210.467Z" transform="translate(-293.3 -138.666)" fill="#fff"/><g transform="translate(44.53 71.199)" clip-path="url(#c)"><path d="M345.636,210.467s.249.249-.883,1-3.9,1.387-3.272,2.394,1.257,1.511.753,1.891-1.257.379-1.885.877-2.519-5.536-2.519-5.536S342.489,208.809,345.636,210.467Z" transform="translate(-337.83 -209.864)" fill="#40a0c0"/><path d="M345.636,210.467s.249.249-.883,1-3.9,1.387-3.272,2.394,1.257,1.511.753,1.891-1.257.379-1.885.877-2.519-5.536-2.519-5.536S342.489,208.809,345.636,210.467Z" transform="translate(-337.83 -209.864)" opacity="0.25"/></g><path d="M345.636,210.467s.249.249-.883,1-3.9,1.387-3.272,2.394,1.257,1.511.753,1.891-1.257.379-1.885.877-2.519-5.536-2.519-5.536S342.489,208.809,345.636,210.467Z" transform="translate(-293.3 -138.666)" fill="none" stroke="#263238" stroke-linecap="round" stroke-linejoin="round" stroke-width="1"/><path d="M291.9,214.985l-1.132,6.544s-4.659,10.076-6.295,15.238-4.03,14.225-4.03,14.225,1.76,1.387,7.053,2.264,11.944-2.513,11.944-2.513,2.015-10.829,2.644-12.216,2.389-5.038,2.389-5.038h1.642l4.279,16.625s3.9,1.008,6.17,1.381,5.661.628,8.689-1.511a17.661,17.661,0,0,0,4.783-5.536s-4.783-11.321-6.929-15.991-7.048-12.595-7.048-12.595l-1.511-5.163Z" transform="translate(-268.397 -139.028)" fill="#263238" stroke="#263238" stroke-linecap="round" stroke-linejoin="round" stroke-width="1"/><line x2="5.287" y2="5.038" transform="translate(23.755 85.019)" fill="none" stroke="#fff" stroke-linecap="round" stroke-linejoin="round" stroke-width="1"/><line x2="0.877" y2="0.64" transform="translate(30.18 91.682)" fill="none" stroke="#fff" stroke-linecap="round" stroke-linejoin="round" stroke-width="1"/><line x2="5.298" y2="3.906" transform="translate(23.88 87.035)" fill="none" stroke="#fff" stroke-linecap="round" stroke-linejoin="round" stroke-width="1"/><path d="M309.26,280.245a18.207,18.207,0,0,0,2.2-.985" transform="translate(-280.903 -168.779)" fill="none" stroke="#fff" stroke-linecap="round" stroke-linejoin="round" stroke-width="1"/><path d="M282.89,280.1a21.358,21.358,0,0,0,11.95,1.308" transform="translate(-269.46 -169.143)" fill="none" stroke="#fff" stroke-linecap="round" stroke-linejoin="round" stroke-width="1"/><path d="M334.27,274.238s8.689,5.542,18.114-5.038" transform="translate(-291.755 -164.413)" fill="none" stroke="#fff" stroke-linecap="round" stroke-linejoin="round" stroke-width="1"/><line x1="2.519" y2="4.783" transform="translate(46.67 81.368)" fill="none" stroke="#fff" stroke-linecap="round" stroke-linejoin="round" stroke-width="1"/><path d="M309.8,223.009a24.652,24.652,0,0,0,13.586-2.519" transform="translate(-281.137 -143.277)" fill="none" stroke="#fff" stroke-linecap="round" stroke-linejoin="round" stroke-width="1"/><path d="M324.022,213.5l-.815-2.8-22.643,4.285-.2,1.166a26.039,26.039,0,0,0,11.412.719A58.141,58.141,0,0,0,324.022,213.5Z" transform="translate(-277.041 -139.028)" fill="#fff"/><g transform="translate(23.319 71.672)" clip-path="url(#d)"><path d="M324.022,213.5l-.815-2.8-22.643,4.285-.2,1.166a26.039,26.039,0,0,0,11.412.719A58.141,58.141,0,0,0,324.022,213.5Z" transform="translate(-300.36 -210.7)" fill="#949494" stroke="#263238" stroke-linecap="round" stroke-linejoin="round" stroke-width="1"/></g><path d="M324.022,213.5l-.815-2.8-22.643,4.285-.2,1.166a26.039,26.039,0,0,0,11.412.719A58.141,58.141,0,0,0,324.022,213.5Z" transform="translate(-277.041 -139.028)" fill="none" stroke="#263238" stroke-linecap="round" stroke-linejoin="round" stroke-width="1"/><path d="M322.7,110.178a77.786,77.786,0,0,0-4.9-13.053c-1.534-3.266-3.057-7.359-5.423-10.116-1.511-1.76-4.285-3.147-4.914-2.893s-3.4,1.381-3.4,2.893,1.008,1.511,1.008,1.511-.255,1.891.5,2.644,4.659.5,4.659.5a16.506,16.506,0,0,1,1.727,3.278c.753,2.513,1.421,3.017,1.925,7.551a90.9,90.9,0,0,0,2.14,10.7,4.744,4.744,0,0,0-1.262,1.132c-.753.883-5.536,5.661-5.536,5.661a29.4,29.4,0,0,1-4.285,1.636,21.159,21.159,0,0,0-3.725,1.562c-.776-.091-1.557-.175-1.976-.175-.883,0-7.048,1.132-7.048,1.132a21.084,21.084,0,0,0-4.529-2.015,29.4,29.4,0,0,1-4.285-1.636s-4.783-4.783-5.536-5.661a4.744,4.744,0,0,0-1.262-1.132,90.89,90.89,0,0,0,2.14-10.7c.408-3.657,1.46-7.812,3.657-10.829,0,0,3.9.255,4.659-.5s.5-2.644.5-2.644,1.008,0,1.008-1.511-2.768-2.644-3.4-2.893-3.4,1.132-4.913,2.893-1.381,3.527-2.893,6.046a154.021,154.021,0,0,0-7.432,17.124c-.64,2.406-1.381,3.776-1.257,4.913s6.17,7.676,7.682,9.442,7.3,7.806,7.3,7.806,2.14,10.574,2.768,14.355.255,14.225.255,14.225,6.923-1.511,13.472-2.264,13.721-3.272,14.6-3.272h.883s-4.913-6.046-4.913-6.929c0-.7.164-13.529.226-18.68,1.828-1.925,4.415-4.664,5.349-5.757,1.511-1.766,7.557-8.31,7.682-9.442S323.326,112.573,322.7,110.178Z" transform="translate(-263.274 -84.087)" fill="#fff"/><g transform="translate(5.361)" clip-path="url(#e)"><path d="M322.7,110.178a77.786,77.786,0,0,0-4.9-13.053c-1.534-3.266-3.057-7.359-5.423-10.116-1.511-1.76-4.285-3.147-4.914-2.893s-3.4,1.381-3.4,2.893,1.008,1.511,1.008,1.511-.255,1.891.5,2.644,4.659.5,4.659.5a16.506,16.506,0,0,1,1.727,3.278c.753,2.513,1.421,3.017,1.925,7.551a90.9,90.9,0,0,0,2.14,10.7,4.744,4.744,0,0,0-1.262,1.132c-.753.883-5.536,5.661-5.536,5.661a29.4,29.4,0,0,1-4.285,1.636,21.159,21.159,0,0,0-3.725,1.562c-.776-.091-1.557-.175-1.976-.175-.883,0-7.048,1.132-7.048,1.132a21.084,21.084,0,0,0-4.529-2.015,29.4,29.4,0,0,1-4.285-1.636s-4.783-4.783-5.536-5.661a4.744,4.744,0,0,0-1.262-1.132,90.89,90.89,0,0,0,2.14-10.7c.408-3.657,1.46-7.812,3.657-10.829,0,0,3.9.255,4.659-.5s.5-2.644.5-2.644,1.008,0,1.008-1.511-2.768-2.644-3.4-2.893-3.4,1.132-4.913,2.893-1.381,3.527-2.893,6.046a154.021,154.021,0,0,0-7.432,17.124c-.64,2.406-1.381,3.776-1.257,4.913s6.17,7.676,7.682,9.442,7.3,7.806,7.3,7.806,2.14,10.574,2.768,14.355.255,14.225.255,14.225,6.923-1.511,13.472-2.264,13.721-3.272,14.6-3.272h.883s-4.913-6.046-4.913-6.929c0-.7.164-13.529.226-18.68,1.828-1.925,4.415-4.664,5.349-5.757,1.511-1.766,7.557-8.31,7.682-9.442S323.326,112.573,322.7,110.178Z" transform="translate(-268.636 -84.087)" fill="#d9d9d9" stroke="#263238" stroke-linecap="round" stroke-linejoin="round" stroke-width="1"/><path d="M287.154,158.46c-.379-1.766-.883-11.967-1.511-15.239s-2.14-4.529-3.023-5.915-3.4-3.4-6.549-6.793-6.04-6.289-5.53-8.808c.345-1.749,3.742-11.6,5.78-17.435a161.408,161.408,0,0,0-6.414,15.171c-.628,2.394-1.381,3.776-1.257,4.913s6.17,7.676,7.682,9.442,7.3,7.806,7.3,7.806,2.14,10.574,2.768,14.355a46.3,46.3,0,0,1,.357,6.1A12.867,12.867,0,0,0,287.154,158.46Z" transform="translate(-268.636 -92.845)" opacity="0.25"/><path d="M353.067,116.7c0,1.891-9.193,8.689-11.321,12.216s-1.511,12.216-1.511,15.737a37.092,37.092,0,0,1-.125,4.285l1.642,1.993c0-2.015.159-13.586.221-18.4,1.828-1.925,4.415-4.664,5.349-5.757,1.511-1.766,7.557-8.31,7.682-9.442s-.628-2.519-1.257-4.913a77.789,77.789,0,0,0-4.9-13.053c-1.534-3.266-3.057-7.359-5.423-10.116,0,0,3.991,9.7,6.385,16.116S353.067,114.814,353.067,116.7Z" transform="translate(-299.651 -86.327)" opacity="0.25"/></g><path d="M322.7,110.178a77.786,77.786,0,0,0-4.9-13.053c-1.534-3.266-3.057-7.359-5.423-10.116-1.511-1.76-4.285-3.147-4.914-2.893s-3.4,1.381-3.4,2.893,1.008,1.511,1.008,1.511-.255,1.891.5,2.644,4.659.5,4.659.5a16.506,16.506,0,0,1,1.727,3.278c.753,2.513,1.421,3.017,1.925,7.551a90.9,90.9,0,0,0,2.14,10.7,4.744,4.744,0,0,0-1.262,1.132c-.753.883-5.536,5.661-5.536,5.661a29.4,29.4,0,0,1-4.285,1.636,21.159,21.159,0,0,0-3.725,1.562c-.776-.091-1.557-.175-1.976-.175-.883,0-7.048,1.132-7.048,1.132a21.084,21.084,0,0,0-4.529-2.015,29.4,29.4,0,0,1-4.285-1.636s-4.783-4.783-5.536-5.661a4.744,4.744,0,0,0-1.262-1.132,90.89,90.89,0,0,0,2.14-10.7c.408-3.657,1.46-7.812,3.657-10.829,0,0,3.9.255,4.659-.5s.5-2.644.5-2.644,1.008,0,1.008-1.511-2.768-2.644-3.4-2.893-3.4,1.132-4.913,2.893-1.381,3.527-2.893,6.046a154.021,154.021,0,0,0-7.432,17.124c-.64,2.406-1.381,3.776-1.257,4.913s6.17,7.676,7.682,9.442,7.3,7.806,7.3,7.806,2.14,10.574,2.768,14.355.255,14.225.255,14.225,6.923-1.511,13.472-2.264,13.721-3.272,14.6-3.272h.883s-4.913-6.046-4.913-6.929c0-.7.164-13.529.226-18.68,1.828-1.925,4.415-4.664,5.349-5.757,1.511-1.766,7.557-8.31,7.682-9.442S323.326,112.573,322.7,110.178Z" transform="translate(-263.274 -84.087)" fill="none" stroke="#263238" stroke-linecap="round" stroke-linejoin="round" stroke-width="1"/><path d="M299.381,91.435s-3.147-2.644-3.4-1.511,1.891,2.644,1.891,2.644" transform="translate(-275.133 -86.497)" fill="none" stroke="#263238" stroke-linecap="round" stroke-linejoin="round" stroke-width="1"/><path d="M292.714,92.37a2.525,2.525,0,0,1-2.264,2.768" transform="translate(-272.74 -87.681)" fill="none" stroke="#263238" stroke-linecap="round" stroke-linejoin="round" stroke-width="1"/><path d="M295.639,91.549l-2.519-1.262.125-.877L294,89.03" transform="translate(-273.899 -86.232)" fill="none" stroke="#263238" stroke-linecap="round" stroke-linejoin="round" stroke-width="1"/><path d="M298,86.46a15.389,15.389,0,0,1,.232,2.111" transform="translate(-276.017 -85.116)" fill="none" stroke="#263238" stroke-linecap="round" stroke-linejoin="round" stroke-width="1"/><path d="M300.48,87.08a8.026,8.026,0,0,1,0,2.581" transform="translate(-277.093 -85.385)" fill="none" stroke="#263238" stroke-linecap="round" stroke-linejoin="round" stroke-width="1"/><path d="M302.131,88.12a2.31,2.31,0,0,1-.821,2.111" transform="translate(-277.453 -85.837)" fill="none" stroke="#263238" stroke-linecap="round" stroke-linejoin="round" stroke-width="1"/><path d="M333,91.561s4.37-1.132,3.742.125-2.644,1.642-2.644,1.642" transform="translate(-291.204 -87.127)" fill="none" stroke="#263238" stroke-linecap="round" stroke-linejoin="round" stroke-width="1"/><path d="M342.349,91.984a10.474,10.474,0,0,0-1.766-1.132c-.628-.255-.753-1.132-.753-1.132s1.387-.249,1.387-.877-1.008-1.132-1.008-1.132l-.13.634" transform="translate(-294.168 -85.659)" fill="none" stroke="#263238" stroke-linecap="round" stroke-linejoin="round" stroke-width="1"/><path d="M337.325,86s-.5,2.5,1.393,2.949" transform="translate(-293.055 -84.917)" fill="none" stroke="#263238" stroke-linecap="round" stroke-linejoin="round" stroke-width="1"/><path d="M334.842,86.25a3.224,3.224,0,0,0,.821,2.83" transform="translate(-291.982 -85.025)" fill="none" stroke="#263238" stroke-linecap="round" stroke-linejoin="round" stroke-width="1"/><path d="M332.941,87.5s-.357,1.642.464,2.225" transform="translate(-291.145 -85.568)" fill="none" stroke="#263238" stroke-linecap="round" stroke-linejoin="round" stroke-width="1"/><path d="M309.268,185.823c6.549-.759,13.721-3.272,14.6-3.272h.883s-4.913-6.046-4.913-6.929c0-.7.164-13.529.226-18.68l2.83-3.006c-1.387-.413-2.887-1.132-3.442-2.372-.691-1.534-.357-4.189,0-6.034l-1.132,1.132a29.4,29.4,0,0,1-4.285,1.636,21.158,21.158,0,0,0-3.725,1.562c-.776-.091-1.557-.175-1.976-.175-.883,0-7.048,1.132-7.048,1.132a21.084,21.084,0,0,0-4.529-2.015,29.4,29.4,0,0,1-4.285-1.636l-.181-.181a31.593,31.593,0,0,1,.181,6.227,3.937,3.937,0,0,1-2.768,3.119c1.613,1.7,3.023,3.176,3.023,3.176s2.14,10.574,2.768,14.355.255,14.225.255,14.225S302.718,186.553,309.268,185.823Z" transform="translate(-272.419 -110.749)" fill="#5caec9" stroke="#263238" stroke-linecap="round" stroke-linejoin="round" stroke-width="1"/><path d="M318.335,174a14.858,14.858,0,0,1-1.415-1.777" transform="translate(-284.227 -122.331)" fill="none" stroke="#263238" stroke-linecap="round" stroke-linejoin="round" stroke-width="1"/><path d="M334.14,190.037a73.946,73.946,0,0,0-7.925-8.055c-1.455-1.24-2.627-2.315-3.555-3.232" transform="translate(-286.717 -125.164)" fill="none" stroke="#263238" stroke-linecap="round" stroke-linejoin="round" stroke-width="1"/><path d="M303.622,133.982s-.685-1.376-2.174-4.121-.232-7.546,5.378-9.38,9.153,1.6,9.951,3.889a9.935,9.935,0,0,1-.345,6.181,8.89,8.89,0,0,0-.453,2.513,4.528,4.528,0,0,0-1.03-.911c-.8-.566-2.174-6.64-4.008-7.093s-5.717.583-6.034,3.413S304.539,135.7,303.622,133.982Z" transform="translate(-277.262 -99.654)" fill="#263238" stroke="#263238" stroke-linecap="round" stroke-linejoin="round" stroke-width="1"/><path d="M326.693,141.326s.685-1.942,1.6-1.025.453,2.83-.119,3.657-1.025.345-1.37-.566a4.336,4.336,0,0,1-.113-2.066Z" transform="translate(-288.435 -108.373)" fill="#fff"/><g transform="translate(38.183 31.682)" clip-path="url(#f)"><path d="M326.693,141.326s.685-1.942,1.6-1.025.453,2.83-.119,3.657-1.025.345-1.37-.566a4.336,4.336,0,0,1-.113-2.066Z" transform="translate(-326.618 -140.055)" fill="#d9d9d9" stroke="#263238" stroke-linecap="round" stroke-linejoin="round" stroke-width="1"/></g><path d="M326.693,141.326s.685-1.942,1.6-1.025.453,2.83-.119,3.657-1.025.345-1.37-.566a4.336,4.336,0,0,1-.113-2.066Z" transform="translate(-288.435 -108.373)" fill="none" stroke="#263238" stroke-linecap="round" stroke-linejoin="round" stroke-width="1"/><path d="M305.1,143.568s-1.183-1.7-1.817-.566.328,2.881,1.1,3.493,1.081.057,1.166-.917A4.347,4.347,0,0,0,305.1,143.568Z" transform="translate(-278.219 -109.483)" fill="#fff"/><g transform="translate(24.857 33.13)" clip-path="url(#g)"><path d="M305.1,143.568s-1.183-1.7-1.817-.566.328,2.881,1.1,3.493,1.081.057,1.166-.917A4.347,4.347,0,0,0,305.1,143.568Z" transform="translate(-303.076 -142.613)" fill="#d9d9d9" stroke="#263238" stroke-linecap="round" stroke-linejoin="round" stroke-width="1"/></g><path d="M305.1,143.568s-1.183-1.7-1.817-.566.328,2.881,1.1,3.493,1.081.057,1.166-.917A4.347,4.347,0,0,0,305.1,143.568Z" transform="translate(-278.219 -109.483)" fill="none" stroke="#263238" stroke-linecap="round" stroke-linejoin="round" stroke-width="1"/><path d="M309.361,152.626a24.613,24.613,0,0,0,.34,4.919,33.125,33.125,0,0,0,1.03,4.347L314.852,158,320,160.749s.8-5.259-.8-7.551-6.866-2.513-8.236-1.7A5.712,5.712,0,0,0,309.361,152.626Z" transform="translate(-280.941 -113.152)" fill="#fff" stroke="#263238" stroke-linecap="round" stroke-linejoin="round" stroke-width="1"/><path d="M312,155.672s2.978,7.778,4.579,7.206,2.06-7.438,2.06-7.438S313.7,156.47,312,155.672Z" transform="translate(-282.092 -115.049)" fill="#fff"/><g transform="translate(29.908 40.391)" clip-path="url(#h)"><path d="M312,155.672s2.978,7.778,4.579,7.206,2.06-7.438,2.06-7.438S313.7,156.47,312,155.672Z" transform="translate(-312 -155.44)" fill="#d9d9d9" stroke="#263238" stroke-linecap="round" stroke-linejoin="round" stroke-width="1"/><path d="M312,155.672s2.978,7.778,4.579,7.206,2.06-7.438,2.06-7.438S313.7,156.47,312,155.672Z" transform="translate(-312 -155.44)" opacity="0.25"/></g><path d="M312,155.672s2.978,7.778,4.579,7.206,2.06-7.438,2.06-7.438S313.7,156.47,312,155.672Z" transform="translate(-282.092 -115.049)" fill="none" stroke="#263238" stroke-linecap="round" stroke-linejoin="round" stroke-width="1"/><path d="M305.043,133.4a58.332,58.332,0,0,0,1.262,7.319,5.991,5.991,0,0,0,6.883,3.793c3.544-.572,4.806-5.734,4.806-6.08s-.226-6.521-1.6-8.808-4-4.461-7.665-2.745A6.092,6.092,0,0,0,305.043,133.4Z" transform="translate(-279.029 -102.388)" fill="#fff"/><g transform="translate(25.914 23.874)" clip-path="url(#i)"><path d="M305.043,133.4a58.332,58.332,0,0,0,1.262,7.319,5.991,5.991,0,0,0,6.883,3.793c3.544-.572,4.806-5.734,4.806-6.08s-.226-6.521-1.6-8.808-4-4.461-7.665-2.745A6.092,6.092,0,0,0,305.043,133.4Z" transform="translate(-304.943 -126.261)" fill="#d9d9d9" stroke="#263238" stroke-linecap="round" stroke-linejoin="round" stroke-width="1"/><path d="M318.015,140.019c0-.345-.226-6.521-1.6-8.808a8.822,8.822,0,0,0-.94-1.291c.334,1.426,2.066,9.108.7,11.729-1.511,2.9-4.783,3.153-7.806,1.642-2.264-1.132-2.887-7.7-3.074-11.038a5.2,5.2,0,0,0-.2,2.734,58.33,58.33,0,0,0,1.262,7.319,5.991,5.991,0,0,0,6.883,3.793C316.776,145.526,318.015,140.364,318.015,140.019Z" transform="translate(-304.964 -127.849)" opacity="0.25"/></g><path d="M305.043,133.4a58.332,58.332,0,0,0,1.262,7.319,5.991,5.991,0,0,0,6.883,3.793c3.544-.572,4.806-5.734,4.806-6.08s-.226-6.521-1.6-8.808-4-4.461-7.665-2.745A6.092,6.092,0,0,0,305.043,133.4Z" transform="translate(-279.029 -102.388)" fill="none" stroke="#263238" stroke-linecap="round" stroke-linejoin="round" stroke-width="1"/><path d="M310.87,143a5.978,5.978,0,0,0,5.791-1.4c.509.17.317,3.244-2.5,3.691A2.91,2.91,0,0,1,310.87,143Z" transform="translate(-281.601 -109.044)" fill="#fff" stroke="#263238" stroke-linecap="round" stroke-linejoin="round" stroke-width="1"/><path d="M313.4,138.887s-.7.979-.351,1.325a2.1,2.1,0,0,0,2.445-.345c.7-.764-.419-1.466-.419-1.466" transform="translate(-282.502 -107.655)" fill="none" stroke="#263238" stroke-linecap="round" stroke-linejoin="round" stroke-width="1"/><path d="M309,139.212s.345-1.132,2.174-1.132" transform="translate(-280.79 -107.516)" fill="none" stroke="#263238" stroke-linecap="round" stroke-linejoin="round" stroke-width="1"/><path d="M318.46,136.734a2.049,2.049,0,0,1,2.689-.306" transform="translate(-284.895 -106.64)" fill="none" stroke="#263238" stroke-linecap="round" stroke-linejoin="round" stroke-width="1"/><path d="M310.148,133.963s-2.615-.521-2.938,1.851" transform="translate(-280.013 -105.708)" fill="none" stroke="#263238" stroke-linecap="round" stroke-linejoin="round" stroke-width="2"/><path d="M317.3,132.994a2.726,2.726,0,0,1,3.561.108" transform="translate(-284.391 -105.034)" fill="none" stroke="#263238" stroke-linecap="round" stroke-linejoin="round" stroke-width="2"/></g><g transform="translate(99.202 77.66)"><path d="M173.192,133.47a6.032,6.032,0,0,0-2.87-4.613c-2.87-1.947-9.748-.821-12.312,2.462s-2.774,5.661-5.746,6.566-9.748,1.959-14.457,6.872-2.666,14.978-.509,15.8-.515-.719-.209-3.4a4,4,0,0,1,2.462-3.4s-2.768,4.41,3.079,10.155,12.312,4.415,17.752,3.283,12.1-5.129,12.618-9.85-1.234-7.387,0-9.538,5.746-1.851,6.363-5.949S178.32,132.344,173.192,133.47Z" transform="translate(-129.399 -106.255)" fill="#263238" stroke="#263238" stroke-linecap="round" stroke-linejoin="round" stroke-width="1"/><path d="M237.42,264.379s2.864-3.623,3.962-3.742,2.728,2.372,3.442,4.274,2.372,5.808,2.372,7.71c0,3.323-1.426,4.387-2.015,3.793s-2.14-4.268-2.966-4.981a4.885,4.885,0,0,0-1.8-.951A37.338,37.338,0,0,0,237.42,264.379Z" transform="translate(-173.866 -163.852)" fill="#fff" stroke="#263238" stroke-linecap="round" stroke-linejoin="round" stroke-width="1"/><path d="M242.55,262.24s3.47,3.47,4.7,6.793,1.613,6.566.5,7.925" transform="translate(-176.092 -164.55)" fill="none" stroke="#263238" stroke-linecap="round" stroke-linejoin="round" stroke-width="1"/><path d="M224.937,312.62s3.436.238,4.625.357,1.189,2.966.713,4.981-1.07,3.323-.566,5.576-.832,4.744-1.545,5.814-2.264.832-2.372,0,.357-5.695-1.3-8.423S223.035,314.533,224.937,312.62Z" transform="translate(-167.768 -186.411)" fill="#fff" stroke="#263238" stroke-linecap="round" stroke-linejoin="round" stroke-width="1"/><path d="M231.071,313a6.753,6.753,0,0,1,.742,4.336c-.374,2.6.125,6.691.125,7.682s-1.364,4.829-1.857,4.953" transform="translate(-170.681 -186.576)" fill="none" stroke="#263238" stroke-linecap="round" stroke-linejoin="round" stroke-width="1"/><path d="M197.871,94.47c-.617,0-3.079.617-3.283,1.336s-.509,7.693-.509,7.693-4.313,8.208-5.746,11.287-5.236,10.467-5.236,10.467l-9.538,9.951s-1.438.719-3.9,2.151c-.232.136-.475.289-.719.442l-4.529,1-3.883-.736a65.2,65.2,0,0,0-5.746-4c-2.462-1.432-3.9-2.151-3.9-2.151l-9.538-9.951s-3.8-7.359-5.236-10.467-5.746-11.287-5.746-11.287-.306-6.974-.509-7.693-2.672-1.336-3.283-1.336-1.743,3.283-1.336,4,1.528.713,1.528.713a19.368,19.368,0,0,0,0,2.462c.1.515,1.642,1.54,1.642,1.54s2.157,8.927,3.589,15.08,3.283,10.263,4.1,10.982,8.927,8.921,10.568,11.695a32.9,32.9,0,0,0,4.619,5.661,48.056,48.056,0,0,0-.923,6.974c0,2.445,2.462,7.693,3.283,10.053s1.845,13.337,1.845,13.648.509,7.076.509,7.076-5.536,12.108-7.28,20.724-.928,13.546,3.074,15.391,22.161,4.41,22.677,5.027.923,1.025,1.642,1.025,1.642-.408,2.264,0,.611.719,1.33.719a2.2,2.2,0,0,1,1.642,1.132c.2.408,1.438-.413,1.845-3.493s-.2-4.529-.821-4.613-.509-1.132-1.534-1.132a26.876,26.876,0,0,0-3.283.413,7.722,7.722,0,0,0-1.642-.306,7,7,0,0,1-1.749-.617c-.413-.1-7.178-2.876-7.178-2.876l-.26-.136c6.849-3.906,16.563-10.818,16.563-10.818s2.791-.175,4.013-1.223a17.939,17.939,0,0,0,2.264-2.44l2.094-.872a7.064,7.064,0,0,0-1.223-3.838c-1.217-1.568-1.743-2.264-1.743-2.264s-3.312,1.568-4.359,1.919-2.615.521-3.487,1.393-3.136,2.615-3.136,2.615l-7.67,4.008s9.765-12.55,10.982-17.78c1.047-4.483-.566-9.436-3.238-13.053-2.021-2.717-4.857-4.789-7.008-7.421-1.03-1.251-1.817-2.179-1.743-2.717.119-.832,1.092-5.021,1.976-8.587l2.751-5.276c.679-.708,3.713-4.529,4-5.015,1.642-2.774,9.748-10.982,10.568-11.7s2.666-4.817,4.1-10.976,3.589-15.08,3.589-15.08,1.54-1.025,1.642-1.54a19.365,19.365,0,0,0,0-2.462s1.132,0,1.54-.719S198.488,94.47,197.871,94.47Z" transform="translate(-125.147 -90.317)" fill="#fff" stroke="#263238" stroke-linecap="round" stroke-linejoin="round" stroke-width="1"/><path d="M206.1,248.43s-3.311,1.568-4.359,1.919-2.615.521-3.487,1.393-3.136,2.615-3.136,2.615l-7.67,4.008s9.765-12.55,10.982-17.78c1.047-4.483-.566-9.436-3.238-13.053a30.105,30.105,0,0,0-3.362-3.651,41.889,41.889,0,0,1-6.946,4.913,19.49,19.49,0,0,1-12,2.559v.2c0,.306.509,7.076.509,7.076s-5.536,12.108-7.28,20.724-.928,13.546,3.074,15.391,22.162,4.41,22.677,5.027.923,1.025,1.642,1.025,1.642-.408,2.264,0,.611.719,1.33.719a2.2,2.2,0,0,1,1.642,1.132c.2.408,1.438-.413,1.845-3.493s-.2-4.529-.821-4.613-.509-1.132-1.534-1.132a26.879,26.879,0,0,0-3.283.413,7.722,7.722,0,0,0-1.642-.306,7,7,0,0,1-1.749-.617c-.413-.1-7.178-2.876-7.178-2.876l-.26-.136c6.849-3.906,16.563-10.818,16.563-10.818s2.791-.175,4.013-1.223a17.941,17.941,0,0,0,2.264-2.44l2.094-.872a7.064,7.064,0,0,0-1.223-3.838C206.628,249.127,206.1,248.43,206.1,248.43Z" transform="translate(-142.548 -147.904)" fill="#263238" stroke="#263238" stroke-linecap="round" stroke-linejoin="round" stroke-width="1"/><path d="M184.975,248.69l2.015.951s-8.423,20.288-9.623,26.1.238,8.661,2.491,8.661,8.661-3.323,8.661-3.323" transform="translate(-147.619 -158.67)" fill="none" stroke="#fff" stroke-linecap="round" stroke-linejoin="round" stroke-width="1"/><path d="M199.493,284.8s-5.055,7.472-6.493,9.221" transform="translate(-154.591 -174.339)" fill="none" stroke="#fff" stroke-linecap="round" stroke-linejoin="round" stroke-width="1"/><path d="M129.555,93.284s-2.055-2.876-2.36-3.493-.923,1.132-.413,2.157a7.506,7.506,0,0,0,1.234,1.743s-.821,2.462.408,3.487" transform="translate(-125.772 -89.663)" fill="#fff" stroke="#263238" stroke-linecap="round" stroke-linejoin="round" stroke-width="1"/><path d="M248.42,100.078s2.049-2.87,2.36-3.487.923,1.132.408,2.157a7.584,7.584,0,0,1-1.228,1.743s.821,2.462-.413,3.487" transform="translate(-178.639 -92.614)" fill="#fff" stroke="#263238" stroke-linecap="round" stroke-linejoin="round" stroke-width="1"/><path d="M154.989,154.088a48.063,48.063,0,0,0-.923,6.974c0,2.445,2.462,7.693,3.283,10.053s1.845,13.337,1.845,13.648c0,.085.04.691.1,1.517,3.628,1.013,11.112,1.359,20.033-7.993-1.619-1.647-3.4-3.181-4.851-4.964-1.03-1.251-1.817-2.179-1.743-2.717.119-.832,1.092-5.021,1.976-8.587l2.751-5.276c.679-.708,3.713-4.529,4-5.015,1.642-2.774,9.748-10.982,10.568-11.7s2.666-4.817,4.1-10.976c.526-2.264,1.132-4.919,1.738-7.359a13.111,13.111,0,0,1-3.328-1.177c-.991,1.936-1.964,3.872-2.513,5.049-1.438,3.079-5.236,10.467-5.236,10.467l-9.538,9.951s-1.438.719-3.9,2.151c-.232.136-.476.289-.719.442l-4.529,1-3.883-.713a65.2,65.2,0,0,0-5.746-4c-2.462-1.432-3.9-2.151-3.9-2.151l-9.538-9.951s-3.8-7.359-5.236-10.467c-.662-1.415-1.93-3.923-3.108-6.227a30.892,30.892,0,0,1-3.034,1.093c.662,2.751,1.415,5.938,2.038,8.6,1.438,6.159,3.283,10.263,4.1,10.982s8.927,8.921,10.568,11.695a32.9,32.9,0,0,0,4.619,5.655Z" transform="translate(-128.841 -101.117)" fill="#ee7a15"/><g transform="translate(4.819 14.943)" clip-path="url(#j)"><path d="M167.327,163.021c-.453-.238-.7-.357-.7-.357l-.566-.594-4.625,4.947a15.972,15.972,0,0,1,.928,1.3Z" transform="translate(-145.715 -136.025)" fill="#263238"/><path d="M159.447,155.552l-1.092-1.132-5.095,4.025c.357.379.719.764,1.07,1.132Z" transform="translate(-142.165 -132.706)" fill="#263238"/><path d="M173.361,167.055l-.708-.43-.662-.385-5.661,6.487c.351.436.7.843,1.025,1.211Z" transform="translate(-147.837 -137.835)" fill="#263238"/><path d="M151.647,148l-5.887,3.261,1.132,1.132,5.853-3.249Z" transform="translate(-138.911 -129.92)" fill="#263238"/><path d="M176.768,169.62l-2.451,2.734a.776.776,0,0,0-.3.175.708.708,0,0,0-.2.391l-3.453,3.849c.34.351.566.566.566.566s-.17.826-.362,1.97l.628-.951c1.534.657,5.8,1.84,16.648,1.84q1.664,0,3.538-.04a.8.8,0,0,0,.328-.079,3.243,3.243,0,0,0,1.319.634l.374-.719c.136-.141.368-.413.651-.753a4.38,4.38,0,0,1-.566,0c-1.953-.238-3.147-4.4-3.662-8.14l-.566.311c-.232.136-.475.289-.719.442l-.2.045c.085.566.181,1.132.306,1.7-7.5,1.93-11.4.362-12.855-.515l2.264-2.513C177.657,170.243,177.221,169.931,176.768,169.62Zm5.276,6.442a28.332,28.332,0,0,0,6.98-.974,14.1,14.1,0,0,0,1.421,3.51c-11.684.187-16.512-.94-18.233-1.54l2.53-2.83A13.11,13.11,0,0,0,182.044,176.062Z" transform="translate(-149.585 -139.301)" fill="#263238"/><path d="M142.637,131.09,137.65,133.2c.136.532.266,1.042.4,1.54l5.287-2.264Z" transform="translate(-135.391 -122.582)" fill="#263238"/><path d="M139.352,122.7l-3.962,1.466c.119.515.243,1.025.362,1.534l4.3-1.585Z" transform="translate(-134.411 -118.941)" fill="#263238"/><path d="M147.073,140.808c-.221-.425-.459-.9-.713-1.4l-5.57,3.266c.2.538.391,1.03.566,1.472Z" transform="translate(-136.754 -126.192)" fill="#263238"/><path d="M231.266,142.86c-.249.5-.5,1-.736,1.46,1.545,1.4,3.323,2.932,5.168,4.342.192-.464.385-.974.566-1.534C234.492,145.736,232.76,144.224,231.266,142.86Z" transform="translate(-175.695 -127.689)" fill="#263238"/><path d="M189.867,207.984c.1-.47.226-1.03.368-1.642a44.937,44.937,0,0,1-17.774-.792c.243.628.487,1.245.725,1.828a41.769,41.769,0,0,0,9.714,1.076,53.238,53.238,0,0,0,6.968-.47Z" transform="translate(-150.497 -154.893)" fill="#263238"/><path d="M235.2,134.993a54.612,54.612,0,0,0,4.647,3.04c.119-.453.232-.917.345-1.393a.354.354,0,0,1,.045-.209,50.843,50.843,0,0,1-4.342-2.881C235.7,133.98,235.46,134.467,235.2,134.993Z" transform="translate(-177.722 -123.649)" fill="#263238"/><path d="M169.72,194.975v.255a6.742,6.742,0,0,0,.164,1.319A89.836,89.836,0,0,1,190,197.681c.119-.5.243-1,.362-1.483v-.051A89.446,89.446,0,0,0,169.72,194.975Z" transform="translate(-149.308 -150.228)" fill="#263238"/><path d="M196.732,221.742c-.391-.374-.77-.753-1.132-1.132-5.9,3.962-12.929,5.581-17.35,6.227.062.566.113,1.132.158,1.585C183.028,227.771,190.454,226.078,196.732,221.742Z" transform="translate(-153.009 -161.428)" fill="#263238"/><path d="M176.78,218.36c.074.509.147,1.047.221,1.6h1.9a50.907,50.907,0,0,0,15.108-2.134c-.277-.306-.566-.611-.821-.934l-.306-.368A52.2,52.2,0,0,1,176.78,218.36Z" transform="translate(-152.371 -159.653)" fill="#263238"/><path d="M225.47,152.585c1.353,1.7,2.83,3.334,4.3,4.863l1.132-1.132c-1.472-1.545-2.972-3.215-4.319-4.885Z" transform="translate(-173.499 -131.408)" fill="#263238"/><path d="M222.666,164.917l1.076-1.132a28.208,28.208,0,0,1-4.653-4.495l-1.1,1.132a29.128,29.128,0,0,0,4.676,4.495Z" transform="translate(-170.254 -134.819)" fill="#263238"/><path d="M215.175,173.442a9.693,9.693,0,0,1,.606-.894c-.877-1.653-2.157-4.11-3.289-6.448l-1.132,1.211c1.251,2.564,2.632,5.185,3.442,6.685C214.977,173.725,215.119,173.527,215.175,173.442Z" transform="translate(-167.377 -137.774)" fill="#263238"/><path d="M197.722,122.463c-2.423,5.344-7.053,15.555-7.97,17.588-1.251,2.785-11.129,12.8-12.8,13.772s-2.644,3.34-3.34,5.842c-.662,2.383-2.581,4.262-2.762,6.838a11.127,11.127,0,0,0-5.446-1.551c-5.01-.419-9.736.838-9.736-3.753s2.921-9.057,3.062-10.438-2.644,1.132-4.036.142-10.852-11.825-13.637-15.284c-1.772-2.219-4.919-11.4-6.968-17.769l-.43.136c.662,2.751,1.415,5.938,2.038,8.6,1.438,6.159,3.283,10.263,4.1,10.976s8.927,8.927,10.568,11.7a32.9,32.9,0,0,0,4.619,5.661,48.059,48.059,0,0,0-.923,6.974c0,2.445,2.462,7.693,3.283,10.053S159.2,185.291,159.2,185.6c0,.085.04.691.1,1.517a13.861,13.861,0,0,0,1.523.328c-.1-4.3-.809-13.269.413-15.227,1.33-2.128,7.749-2.225,9.623-3.442a10.529,10.529,0,0,0,2.315,6.227,30.122,30.122,0,0,0,5.536,4.738l.6-.611c-1.619-1.647-3.4-3.181-4.851-4.964-1.03-1.251-1.817-2.179-1.743-2.717.119-.832,1.092-5.021,1.976-8.587l2.751-5.276c.679-.708,3.713-4.529,4-5.015,1.642-2.774,9.748-10.982,10.568-11.7s2.666-4.817,4.1-10.976c.526-2.264,1.132-4.919,1.738-7.359Z" transform="translate(-133.66 -116.837)" opacity="0.25"/></g><path d="M154.989,154.088a48.063,48.063,0,0,0-.923,6.974c0,2.445,2.462,7.693,3.283,10.053s1.845,13.337,1.845,13.648c0,.085.04.691.1,1.517,3.628,1.013,11.112,1.359,20.033-7.993-1.619-1.647-3.4-3.181-4.851-4.964-1.03-1.251-1.817-2.179-1.743-2.717.119-.832,1.092-5.021,1.976-8.587l2.751-5.276c.679-.708,3.713-4.529,4-5.015,1.642-2.774,9.748-10.982,10.568-11.7s2.666-4.817,4.1-10.976c.526-2.264,1.132-4.919,1.738-7.359a13.111,13.111,0,0,1-3.328-1.177c-.991,1.936-1.964,3.872-2.513,5.049-1.438,3.079-5.236,10.467-5.236,10.467l-9.538,9.951s-1.438.719-3.9,2.151c-.232.136-.476.289-.719.442l-4.529,1-3.883-.713a65.2,65.2,0,0,0-5.746-4c-2.462-1.432-3.9-2.151-3.9-2.151l-9.538-9.951s-3.8-7.359-5.236-10.467c-.662-1.415-1.93-3.923-3.108-6.227a30.892,30.892,0,0,1-3.034,1.093c.662,2.751,1.415,5.938,2.038,8.6,1.438,6.159,3.283,10.263,4.1,10.982s8.927,8.921,10.568,11.695a32.9,32.9,0,0,0,4.619,5.655Z" transform="translate(-128.841 -101.117)" fill="none" stroke="#263238" stroke-linecap="round" stroke-linejoin="round" stroke-width="1"/><path d="M183.637,159.85s.1,6.464-.413,8-3.4,4.529-2.151,6.98,5.746-.311,7.359-3.283.826-3.9.826-3.9v-4.529Z" transform="translate(-149.281 -120.119)" fill="#fff"/><g transform="translate(31.482 39.731)" clip-path="url(#k)"><path d="M190.941,163.133l-5.661-3.283s.1,6.464-.413,8a4.037,4.037,0,0,1-.277.617,5.791,5.791,0,0,0,3.317.074,8.712,8.712,0,0,0,3.017-2.117Z" transform="translate(-182.424 -159.85)" fill="#40a0c0"/><path d="M190.941,163.133l-5.661-3.283s.1,6.464-.413,8a4.037,4.037,0,0,1-.277.617,5.791,5.791,0,0,0,3.317.074,8.712,8.712,0,0,0,3.017-2.117Z" transform="translate(-182.424 -159.85)" fill="#fff" opacity="0.5"/></g><path d="M183.637,159.85s.1,6.464-.413,8-3.4,4.529-2.151,6.98,5.746-.311,7.359-3.283.826-3.9.826-3.9v-4.529Z" transform="translate(-149.281 -120.119)" fill="none" stroke="#263238" stroke-linecap="round" stroke-linejoin="round" stroke-width="1"/><path d="M181.864,145.94s-1.947-1.845-2.462-.509.821,3.283,1.54,3.487l.719.2a8.253,8.253,0,0,0,2.055,3.9c1.642,1.642,3.487,2.462,5.536,1.438s3.7-3.595,4.206-6.668a17.322,17.322,0,0,0,.311-4.619c0-.515-.923-4.206-3.595-5.129s-2.361.2-4.41,2.564A48.939,48.939,0,0,0,181.864,145.94Z" transform="translate(-148.64 -110.517)" fill="#fff"/><g transform="translate(30.646 27.205)" clip-path="url(#l)"><path d="M193.565,144c.17,1.7.453,6.1-.77,8.214-1.528,2.638-3.062,5.146-6.119,3.895a7.632,7.632,0,0,1-4.036-4.455s-.832.142-2.089-.974a1.443,1.443,0,0,0-.442-.283,2.7,2.7,0,0,0,1.189,1.251l.719.2a8.253,8.253,0,0,0,2.055,3.9c1.642,1.642,3.487,2.462,5.536,1.438s3.7-3.595,4.206-6.668a17.322,17.322,0,0,0,.311-4.619,6.669,6.669,0,0,0-.56-1.9Z" transform="translate(-179.644 -140.446)" fill="#40a0c0"/><path d="M193.565,144c.17,1.7.453,6.1-.77,8.214-1.528,2.638-3.062,5.146-6.119,3.895a7.632,7.632,0,0,1-4.036-4.455s-.832.142-2.089-.974a1.443,1.443,0,0,0-.442-.283,2.7,2.7,0,0,0,1.189,1.251l.719.2a8.253,8.253,0,0,0,2.055,3.9c1.642,1.642,3.487,2.462,5.536,1.438s3.7-3.595,4.206-6.668a17.322,17.322,0,0,0,.311-4.619,6.669,6.669,0,0,0-.56-1.9Z" transform="translate(-179.644 -140.446)" fill="#fff" opacity="0.5"/></g><path d="M181.864,145.94s-1.947-1.845-2.462-.509.821,3.283,1.54,3.487l.719.2a8.253,8.253,0,0,0,2.055,3.9c1.642,1.642,3.487,2.462,5.536,1.438s3.7-3.595,4.206-6.668a17.322,17.322,0,0,0,.311-4.619c0-.515-.923-4.206-3.595-5.129s-2.361.2-4.41,2.564A48.939,48.939,0,0,0,181.864,145.94Z" transform="translate(-148.64 -110.517)" fill="none" stroke="#263238" stroke-linecap="round" stroke-linejoin="round" stroke-width="1"/><path d="M198.022,148.62s-.719,1.33-.413,1.642,1.336.923.821,1.228a3.8,3.8,0,0,1-1.54.311" transform="translate(-156.279 -115.246)" fill="none" stroke="#263238" stroke-linecap="round" stroke-linejoin="round" stroke-width="1"/><path d="M191.64,155s1.228,1.438,5.129.923c0,0-2.361,2.36-3.4,2.36S191.64,155,191.64,155Z" transform="translate(-154.001 -118.015)" fill="none" stroke="#263238" stroke-linecap="round" stroke-linejoin="round" stroke-width="1"/><path d="M190.37,149.04a2.41,2.41,0,0,1,2.264.311" transform="translate(-153.45 -115.361)" fill="none" stroke="#263238" stroke-linecap="round" stroke-linejoin="round" stroke-width="1"/><path d="M199.43,150.522s1.642-.509,1.947.617" transform="translate(-157.381 -116.022)" fill="none" stroke="#263238" stroke-linecap="round" stroke-linejoin="round" stroke-width="1"/><path d="M190.19,145.467a2.315,2.315,0,0,1,2.666-.611" transform="translate(-153.371 -113.531)" fill="none" stroke="#263238" stroke-linecap="round" stroke-linejoin="round" stroke-width="1"/><path d="M199.79,146.742s1.336-1.234,2.264,1.025" transform="translate(-157.537 -114.285)" fill="none" stroke="#263238" stroke-linecap="round" stroke-linejoin="round" stroke-width="1"/></g></g></svg>