<svg xmlns="http://www.w3.org/2000/svg" xmlns:xlink="http://www.w3.org/1999/xlink" width="438.248" height="326.547" viewBox="0 0 438.248 326.547"><defs><clipPath id="a"><circle cx="83.653" cy="83.653" r="83.653" fill="none"/></clipPath></defs><rect width="438.248" height="0.219" transform="translate(0 286.965)" fill="#ebebeb"/><rect width="29.03" height="0.219" transform="translate(288.262 293.924)" fill="#ebebeb"/><rect width="36.059" height="0.219" transform="translate(350.406 294.038)" fill="#ebebeb"/><rect width="16.82" height="0.219" transform="translate(312.699 299.762)" fill="#ebebeb"/><rect width="45.289" height="0.219" transform="translate(152.51 298.105)" fill="#ebebeb"/><rect width="30.143" height="0.219" transform="translate(114.567 298.105)" fill="#ebebeb"/><rect width="41.055" height="0.219" transform="translate(55.473 294.406)" fill="#ebebeb"/><path d="M212.449,302.873H43.206a5,5,0,0,1-5-5V59.961a5,5,0,0,1,5-4.961H212.449a5,5,0,0,1,5,5V297.868A5,5,0,0,1,212.449,302.873ZM43.206,55.175a4.786,4.786,0,0,0-4.777,4.786V297.868a4.786,4.786,0,0,0,4.777,4.786H212.449a4.794,4.794,0,0,0,4.786-4.786V59.961a4.794,4.794,0,0,0-4.786-4.786Z" transform="translate(-4.719 -55)" fill="#ebebeb"/><path d="M428.756,302.873H259.5a5.014,5.014,0,0,1-5-5V59.961a5.014,5.014,0,0,1,5-4.961H428.756a5,5,0,0,1,4.987,4.961V297.868A5,5,0,0,1,428.756,302.873ZM259.5,55.175a4.794,4.794,0,0,0-4.786,4.786V297.868a4.794,4.794,0,0,0,4.786,4.786H428.756a4.794,4.794,0,0,0,4.786-4.786V59.961a4.794,4.794,0,0,0-4.786-4.786Z" transform="translate(-31.432 -55)" fill="#ebebeb"/><path d="M278.533,133.906a7.012,7.012,0,0,1,5.7-3.173,2.489,2.489,0,0,1,1.753.657c3.392-2.288,7.459-3.7,10.982-3.506a7.836,7.836,0,0,1,4.312,1.324c3.506-3.462,8.239-5.908,11.912-5.908,2.077,0,3.506.789,4.12,2.112,3.76-2.314,7.757-3.743,11.123-3.743,5.382,0,7.608,3.62,6.074,8.7,1.008.955,5.426,2.3,5.469,3.9H278.34Z" transform="translate(-34.376 -63.234)" fill="#fafafa"/><path d="M63.254,112.792a9.974,9.974,0,0,1,8.073-4.5,3.506,3.506,0,0,1,2.428.938c4.812-3.243,10.571-5.259,15.575-5.022a11.158,11.158,0,0,1,6.135,1.867c4.935-4.891,11.64-8.4,16.837-8.4,2.954,0,4.935,1.122,5.837,3,5.329-3.287,10.991-5.259,15.777-5.259,7.617,0,10.763,5.128,8.607,12.332,1.429,1.35,7.678,3.252,7.739,5.522H63A2.827,2.827,0,0,1,63.254,112.792Z" transform="translate(-7.781 -59.992)" fill="#fafafa"/><path d="M171.079,88.756a5.478,5.478,0,0,1,4.426-2.463,1.92,1.92,0,0,1,1.332.508,14.9,14.9,0,0,1,8.537-2.752,6.136,6.136,0,0,1,3.348,1.025c2.726-2.682,6.4-4.584,9.256-4.584a3.269,3.269,0,0,1,3.2,1.639,17.459,17.459,0,0,1,8.642-2.91c4.181,0,5.908,2.814,4.724,6.767.78.745,4.216,1.753,4.242,3.033H170.93C170.991,88.932,170.991,88.844,171.079,88.756Z" transform="translate(-21.111 -57.991)" fill="#fafafa"/><path d="M373.962,118.24a1.753,1.753,0,0,1,1.394.675c2.849-2.349,6.223-3.786,9.116-3.62a5.364,5.364,0,0,1,3.506,1.35h0c2.971-3.506,6.916-6.03,9.931-6.03a3.234,3.234,0,0,1,3.331,2.156c3.147-2.375,6.469-3.83,9.238-3.83,3.436,0,5.259,2.244,5.259,5.68a8.449,8.449,0,0,1,4.382-1.586,2.743,2.743,0,0,1,2.936,2.9h.482a3.655,3.655,0,0,1,3.208,5.259H369.36C370.385,119.44,372.384,118.152,373.962,118.24Z" transform="translate(-45.617 -61.662)" fill="#fafafa"/><path d="M187.026,154.65a11.229,11.229,0,0,1,1.963.657,10.518,10.518,0,0,1,1.867,1.069,8.1,8.1,0,0,1,1.306,1.183,20.485,20.485,0,0,1,2.551-2.989,16.3,16.3,0,0,1,1.622-1.376,9.448,9.448,0,0,1,1.657-1.025l-1.473,1.849c-.482.622-.964,1.227-1.437,1.849s-.876,1.253-1.367,1.884a19.91,19.91,0,0,0-1.28,1.972l-.491.8-.429-.526A10.518,10.518,0,0,0,190,158.525c-.543-.456-1.1-.876-1.665-1.315a40.732,40.732,0,0,1-3.392-2.8A7.819,7.819,0,0,1,187.026,154.65Z" transform="translate(-22.841 -67.001)" fill="#ebebeb"/><path d="M303.977,88.11a11.567,11.567,0,0,1,1.972.657,10.177,10.177,0,0,1,1.858,1.069,8.179,8.179,0,0,1,1.306,1.183,20.514,20.514,0,0,1,2.559-2.989,17.525,17.525,0,0,1,1.622-1.376,9.867,9.867,0,0,1,1.657-1.025l-1.481,1.849c-.482.622-.964,1.227-1.429,1.849s-.929,1.253-1.376,1.884-.876,1.306-1.28,1.972l-.482.8-.429-.526a11.456,11.456,0,0,0-1.516-1.473c-.543-.456-1.1-.876-1.674-1.315-1.122-.876-2.279-1.753-3.383-2.8A7.449,7.449,0,0,1,303.977,88.11Z" transform="translate(-37.286 -58.783)" fill="#ebebeb"/><path d="M134.7,143.991a17.581,17.581,0,0,1,2.919.982,15.434,15.434,0,0,1,2.77,1.586,12.339,12.339,0,0,1,1.937,1.753,30.835,30.835,0,0,1,3.8-4.435,25.483,25.483,0,0,1,2.419-2.051A14.77,14.77,0,0,1,151,140.31l-2.191,2.752c-.719.876-1.437,1.814-2.13,2.743s-1.376,1.867-2.042,2.8-1.288,1.946-1.9,2.928l-.719,1.183-.631-.78a17.233,17.233,0,0,0-2.261-2.191c-.806-.675-1.639-1.315-2.48-1.955a63.1,63.1,0,0,1-5.031-4.155,11.4,11.4,0,0,1,3.094.351Z" transform="translate(-16.254 -65.536)" fill="#ebebeb"/><path d="M201.564,121.76a13.236,13.236,0,0,1,2.2.736,12.078,12.078,0,0,1,2.077,1.192,8.886,8.886,0,0,1,1.464,1.323,22.888,22.888,0,0,1,2.849-3.339,18.944,18.944,0,0,1,1.814-1.534,10.834,10.834,0,0,1,1.849-1.148l-1.639,2.069c-.543.692-1.078,1.367-1.6,2.06s-1.034,1.411-1.534,2.112-.973,1.455-1.429,2.2l-.543.876-.473-.578a12.6,12.6,0,0,0-1.7-1.648c-.6-.508-1.227-.99-1.867-1.473a44.887,44.887,0,0,1-3.778-3.129A8.869,8.869,0,0,1,201.564,121.76Z" transform="translate(-24.608 -62.903)" fill="#ebebeb"/><path d="M377.358,96.53a13.237,13.237,0,0,1,2.2.736,12.423,12.423,0,0,1,2.077,1.192,8.843,8.843,0,0,1,1.455,1.324,22.469,22.469,0,0,1,2.857-3.339,18.052,18.052,0,0,1,1.814-1.543,10.982,10.982,0,0,1,1.849-1.139l-1.648,2.069c-.543.692-1.078,1.367-1.6,2.06s-1.034,1.4-1.534,2.112-.973,1.455-1.429,2.2l-.543.876-.473-.587a13.085,13.085,0,0,0-1.7-1.639c-.6-.508-1.236-.99-1.867-1.473A46.651,46.651,0,0,1,375,96.258a8.869,8.869,0,0,1,2.358.272Z" transform="translate(-46.314 -59.787)" fill="#ebebeb"/><path d="M399.966,378.413c-.877-3.462-4.908-6.135-8.984-5.969a7.012,7.012,0,0,0-3.848,1.236,28.32,28.32,0,0,0-19.151-6.67,21.29,21.29,0,0,0-9.431,2.489c-4.461-6.512-12.052-11.123-19.283-11.123a12.446,12.446,0,0,0-9.641,3.979c-5.776-4.382-12.63-7.056-19.283-7.056-10.6,0-17.53,6.819-18.152,16.4-2.673,1.806-12.332,4.33-13.542,7.354H400.106C400.062,378.843,400.027,378.632,399.966,378.413Z" transform="translate(-34.414 -92.088)" fill="#f5f5f5"/><path d="M200.233,374.192a4.882,4.882,0,0,0-3.015,1.183,18.406,18.406,0,0,0-14.41-6.381,14.532,14.532,0,0,0-7.354,2.384h0c-3.129-6.223-8.765-10.632-14.322-10.632a9.221,9.221,0,0,0-7.564,3.813c-4.233-4.19-9.387-6.749-14.5-6.749-6.337,0-11.167,3.935-13.419,10.01a11.307,11.307,0,0,0-7.012-2.8,7.836,7.836,0,0,0-7.336,5.119,8.058,8.058,0,0,0-.876.053c-5.434.517-9.492,4.558-9.387,9.177H206.771a6.679,6.679,0,0,0-6.539-5.171Z" transform="translate(-12.479 -92.398)" fill="#fafafa"/><path d="M362.668,337.4l-.307-12.709-6.521-17.135h6.109l-.465-19.222H380.47L382.328,323l4.593.771-2.367,18.38-1.192.07,1.525,28.556h-21.4l-.333-13.656-2.665-19.958Z" transform="translate(-43.948 -83.817)" fill="#f0f0f0"/><path d="M418.982,246.518c2.945-6.775,1.069-11.64-4.383-13.822-2.121-8.371-16.767-17.705-35.936-22.219-21.772-5.136-37-.351-43.965,6.705a21.772,21.772,0,0,0-13.621,2.41c-7.538,3.909-12.2,10.4-12.227,16.128-5.382,2.288-7.117,7.249-3.971,14.129a21.036,21.036,0,0,0,9.492,9.475,14.455,14.455,0,0,0,1.543,6.959,17.572,17.572,0,0,0,2.48,3.892c-2.463,2.682-2.787,6.7-.473,11.745,2.165,4.724,7.17,9.379,15.049,11.71,3,5.662,13.27,9.843,25.489,9.843,12.806,0,23.481-4.593,25.874-10.667,1.551.14,3.138.219,4.768.219,14.567,0,23.315-6.565,26.374-13.261,1.753-3.778,1.99-7.012.973-9.475a20.728,20.728,0,0,0,8.572-8.958C428.474,253.618,425.915,248.359,418.982,246.518Z" transform="translate(-37.461 -73.936)" fill="#e6e6e6"/><path d="M172.5,280.718H159.951l-4.9,12.709H151.01l-.333,11.324-3.243,8.406L146.05,313l-2.182,7.888-1.376-7.669,3.637-20.536H138.8l-4.137-23.052H111.91l6.241,41.572-5.32.92,7.319,22.035,1.455.079,5.136,34.236H152.4L149.468,352.1l-.912-12.911,11.237-22.85.815-.044,6.547-12.148-2.831-.508Z" transform="translate(-13.821 -81.508)" fill="#f0f0f0"/><path d="M77.723,219.549c-3.506-8.125-1.28-13.954,5.259-16.575,2.551-10.027,20.1-21.211,43.106-26.637,26.111-6.135,44.351-.412,52.712,8.046a26.058,26.058,0,0,1,16.373,2.857c9.037,4.689,14.629,12.473,14.655,19.336,6.46,2.743,8.546,8.686,4.759,16.943-1.92,4.2-5.706,8.344-11.394,11.351a17.451,17.451,0,0,1-1.884,8.344,21.247,21.247,0,0,1-2.971,4.663c2.945,3.217,3.331,8.02.561,14.076-2.629,5.662-8.59,11.245-18.038,14.024-3.594,6.793-15.908,11.8-30.555,11.8-15.356,0-28.144-5.5-31.019-12.788-1.849.167-3.76.263-5.706.263-17.469,0-27.951-7.888-31.624-15.891-2.077-4.54-2.375-8.371-1.166-11.394a24.726,24.726,0,0,1-10.255-10.693C66.328,228.069,69.4,221.732,77.723,219.549Z" transform="translate(-8.48 -69.669)" fill="#f5f5f5"/><g transform="translate(49.18 306.703)"><ellipse cx="169.944" cy="9.922" rx="169.944" ry="9.922" fill="#f5f5f5"/></g><g transform="translate(247.479 59.444)"><path d="M323.547,184.065c-.14,2.428-.421,4.654-.736,7.012s-.754,4.558-1.253,6.819-1.043,4.531-1.753,6.767a62.84,62.84,0,0,1-2.428,6.635l-.736,1.639a9.6,9.6,0,0,1-.465.876c-.158.272-.342.6-.517.877a25.413,25.413,0,0,1-2.279,3.041,51.9,51.9,0,0,1-5,5.014,93.294,93.294,0,0,1-10.947,8.292l-2.226-2.875c1.569-1.516,3.164-3.085,4.707-4.645s3.068-3.155,4.514-4.768a62.355,62.355,0,0,0,4.041-4.908,22.4,22.4,0,0,0,1.56-2.463c.088-.193.2-.394.281-.578a6.327,6.327,0,0,0,.254-.6l.561-1.464a82.517,82.517,0,0,0,3.313-12.35c.421-2.112.728-4.26,1.043-6.4s.552-4.382.745-6.381Z" transform="translate(-283.938 -130.327)" fill="#ffb573"/><path d="M321.132,174.09c-2.954.745-5.022,12.92-5.022,12.92l8.151,5.539s7.81-12.271,5.539-15.523C327.408,173.635,325.453,172.986,321.132,174.09Z" transform="translate(-286.52 -129.091)" fill="#40a0c0"/><path d="M321.83,177.26l-2.27,12.262,4.575,3.112Z" transform="translate(-286.946 -129.544)" opacity="0.2"/><path d="M295.6,233.26l-8.134.587,4.856,5.443s4.5-1.026,5.259-3.9Z" transform="translate(-282.982 -136.46)" fill="#ffb573"/><path d="M282.35,236.814l3.331,5.128,6.013-2.568-4.856-5.443Z" transform="translate(-282.35 -136.543)" fill="#ffb573"/><path d="M339.022,405.538h-7.179l-.473-16.618h7.17Z" transform="translate(-288.404 -155.684)" fill="#ffb573"/><path d="M394.6,381.7l-6.644,2.708-8.414-14.506,6.644-2.717Z" transform="translate(-294.353 -153.001)" fill="#ffb573"/><path d="M386.611,385.118l6.933-4.12a.57.57,0,0,1,.745.132l4.049,5.014a1.157,1.157,0,0,1-.342,1.683c-2.437,1.394-3.69,1.946-6.74,3.751-1.876,1.113-6.285,4.935-8.87,6.477s-4.251-.947-3.3-1.814a24.6,24.6,0,0,0,6.723-10.132,1.884,1.884,0,0,1,.806-.99Z" transform="translate(-294.264 -154.696)" fill="#263238"/><path d="M329.98,406.93h8.064a.552.552,0,0,1,.57.491l.876,6.381a1.148,1.148,0,0,1-1.148,1.271c-2.814-.044-4.163-.21-7.713-.21-2.182,0-6.688.228-9.7.228s-3.173-2.98-1.919-3.252c5.627-1.21,7.836-2.875,9.729-4.47a1.911,1.911,0,0,1,1.245-.438Z" transform="translate(-286.786 -157.909)" fill="#263238"/><g transform="translate(42.966 214.189)" opacity="0.2"><path d="M331.37,388.92l.245,8.572h7.178l-.245-8.572Z" transform="translate(-331.37 -369.874)"/><path d="M386.184,367.19l-6.644,2.717,4.339,7.477,6.644-2.708Z" transform="translate(-337.319 -367.19)"/></g><path d="M321.72,173.867s-3.418,1.2,3.436,43.308H354.29c-.491-11.859-.508-19.178,5.163-43.518a85.2,85.2,0,0,0-12.376-1.63,92.539,92.539,0,0,0-13.235,0C328.171,172.544,321.72,173.867,321.72,173.867Z" transform="translate(-287.107 -128.868)" fill="#40a0c0"/><path d="M348.192,172.027a92.533,92.533,0,0,0-13.235,0c-1.586.14-3.234.351-4.786.57h0c-.675,2.559-.543,6.135,2.068,10.816h0a3.506,3.506,0,0,0,4.383,1.534h0c2.121-.876,12.858-5.39,16.312-10.982l.876-1.446C352.075,172.307,350.138,172.123,348.192,172.027Z" transform="translate(-288.214 -128.868)" fill="#fff"/><path d="M359.7,141.43c0,10.518-8.66,17.46-17.837,21.851-9.492,4.54-19.046-8.528-19.046-19.046a19.046,19.046,0,0,1,19.046-19.055C352.384,125.18,359.7,130.912,359.7,141.43Z" transform="translate(-287.348 -123.111)" fill="#263238"/><path d="M365.689,128.982c0,3.988-2.77,8.283-6.767,8.283a7.222,7.222,0,0,1,0-14.445C362.919,122.82,365.689,124.994,365.689,128.982Z" transform="translate(-290.915 -122.82)" fill="#263238"/><path d="M347.442,155.06c-.876,4.251-1.674,12.061,1.306,14.9,0,0-1.166,4.321-9.072,4.321-8.7,0-4.163-4.321-4.163-4.321,4.751-1.139,4.628-4.663,3.8-7.967Z" transform="translate(-288.77 -126.802)" fill="#ffb573"/><path d="M348.68,172.027a92.533,92.533,0,0,0-13.235,0l-.876.088a7.749,7.749,0,0,0-.386,5.873,3.506,3.506,0,0,0,4.9,2.244c3.664-1.753,9.343-4.882,11.324-8.09C349.846,172.1,349.259,172.053,348.68,172.027Z" transform="translate(-288.702 -128.868)" fill="#ffb573"/><path d="M344.829,158.29,340,162.418a13.9,13.9,0,0,1,.412,2.349c1.814-.263,4.3-2.253,4.5-4.155A6.485,6.485,0,0,0,344.829,158.29Z" transform="translate(-289.47 -127.201)" opacity="0.2"/><path d="M347.339,141.329c1.324,7.012,2.033,9.931-.552,14.348-3.892,6.644-12.779,6.74-16.163.272-3.05-5.811-4.7-16.285,1.359-20.729a9.712,9.712,0,0,1,15.356,6.109Z" transform="translate(-287.974 -124.115)" fill="#ffb573"/><path d="M325.025,223.568s-5.662,55.281-5.189,77.132c.482,22.789,8.826,74.669,8.826,74.669h9.72s-1.534-50.583-.675-72.933c.929-24.375,8.677-78.885,8.677-78.885Z" transform="translate(-286.976 -135.261)" fill="#263238"/><path d="M340.218,396.626H328.833L328,393l12.744-.447Z" transform="translate(-287.988 -156.133)" fill="#ee7a15"/><path d="M339.61,238.779c-7.161,14.4-1.437,40.669,1.1,50.442,1.3-14.673,3.506-32.623,5.189-45.8C344.782,235.974,342.915,232.144,339.61,238.779Z" transform="translate(-288.993 -136.719)" opacity="0.2"/><path d="M334.54,223.57s6.6,57.472,11.587,75.922c5.916,21.912,29.967,59.277,29.967,59.277l9.054-3.7s-15.523-42.554-20.054-54.1c-9.641-24.63-1.385-61.355-9.107-77.4Z" transform="translate(-288.796 -135.263)" fill="#263238"/><path d="M391.735,373.024,380.5,377.617l-2.638-3.05,12.981-5.987Z" transform="translate(-294.146 -153.172)" fill="#ee7a15"/><path d="M337.875,147.595c.14.561-.044,1.087-.4,1.183s-.78-.289-.929-.876.044-1.087.412-1.183S337.735,147.034,337.875,147.595Z" transform="translate(-289.037 -125.77)" fill="#263238"/><path d="M330.636,149.425c.149.561,0,1.1-.4,1.183s-.78-.289-.92-.877,0-1.087.4-1.183S330.5,148.864,330.636,149.425Z" transform="translate(-288.144 -125.996)" fill="#263238"/><path d="M329.8,148.57H328.35S329.288,149.4,329.8,148.57Z" transform="translate(-288.031 -126)" fill="#263238"/><path d="M333.206,150.14a15.435,15.435,0,0,1-1.1,4.084,2.472,2.472,0,0,0,2.095-.131Z" transform="translate(-288.496 -126.194)" fill="#ed893e"/><path d="M338.485,155.885a6.839,6.839,0,0,1-.815.272.184.184,0,0,1-.21-.123.175.175,0,0,1,.123-.21,4.628,4.628,0,0,0,3.191-2.629.168.168,0,0,1,.315.114A4.751,4.751,0,0,1,338.485,155.885Z" transform="translate(-289.156 -126.558)" fill="#263238"/><path d="M329.678,135.828s9.378,9.641,18.731,9.641c7.7,0,7.441-12.9-2.735-13.437S325.2,128.746,329.678,135.828Z" transform="translate(-288.062 -123.838)" fill="#263238"/><path d="M353.344,148.793a5.2,5.2,0,0,1-1.981,3.445c-1.455,1.1-2.849,0-3.006-1.753-.14-1.551.447-4,2.174-4.382a2.34,2.34,0,0,1,2.814,2.691Z" transform="translate(-290.5 -125.689)" fill="#ffb573"/><path d="M338.921,143.684a.333.333,0,0,1-.394.061,4.026,4.026,0,0,0-3.217.21.337.337,0,0,1-.316-.6,4.633,4.633,0,0,1,3.848-.219.333.333,0,0,1,.14.456A.316.316,0,0,1,338.921,143.684Z" transform="translate(-288.83 -125.287)" fill="#263238"/><path d="M327.013,145.193a.333.333,0,0,1-.333-.044.342.342,0,0,1-.079-.473,3.392,3.392,0,0,1,2.752-1.446.342.342,0,0,1,.315.359.333.333,0,0,1-.351.324,2.708,2.708,0,0,0-2.165,1.166A.35.35,0,0,1,327.013,145.193Z" transform="translate(-287.808 -125.341)" fill="#263238"/><path d="M384.451,388.546h-.088a.982.982,0,0,1-.7-.631.57.57,0,0,1,.053-.587c.517-.754,3.112-.657,3.41-.64a.166.166,0,0,1,.105.289C386.581,387.617,385.336,388.651,384.451,388.546ZM386.695,387c-1.034,0-2.428.114-2.708.508a.263.263,0,0,0,0,.263.649.649,0,0,0,.456.43C384.924,388.31,385.748,387.836,386.695,387Z" transform="translate(-294.855 -155.407)" fill="#40a0c0"/><path d="M386.924,386.725c-.876-.105-2.463-.71-2.708-1.411a.6.6,0,0,1,.245-.7.921.921,0,0,1,.736-.175c1.026.2,2.086,1.972,2.13,2.042a.175.175,0,0,1,0,.175.2.2,0,0,1-.149.088Zm-1.841-1.955a.543.543,0,0,0-.412.114c-.175.131-.167.237-.132.315.167.473,1.455,1.061,2.323,1.174-.386-.57-1.113-1.481-1.753-1.6Z" transform="translate(-294.927 -155.129)" fill="#40a0c0"/><path d="M328.269,408.1a2.744,2.744,0,0,1-1.753-.438.973.973,0,0,1-.307-.833.543.543,0,0,1,.289-.447c.877-.491,3.743.973,4.067,1.148a.17.17,0,0,1-.044.316,12.194,12.194,0,0,1-2.253.254Zm-1.28-1.481a.649.649,0,0,0-.315.061.21.21,0,0,0-.114.184.631.631,0,0,0,.193.543c.438.394,1.622.456,3.208.193a9.142,9.142,0,0,0-2.971-.982Z" transform="translate(-287.766 -157.829)" fill="#40a0c0"/><path d="M330.746,407.613h-.088c-.876-.394-2.551-1.937-2.419-2.752,0-.193.167-.43.64-.482a1.262,1.262,0,0,1,.947.3,4.992,4.992,0,0,1,1.069,2.761.158.158,0,0,1-.07.158A.175.175,0,0,1,330.746,407.613Zm-1.753-2.91h-.088c-.307,0-.333.158-.333.193-.088.491,1.069,1.709,1.937,2.235a3.98,3.98,0,0,0-.876-2.209.877.877,0,0,0-.6-.219Z" transform="translate(-288.017 -157.593)" fill="#40a0c0"/><path d="M337.006,146.734l-1.446-.044S336.524,147.566,337.006,146.734Z" transform="translate(-288.922 -125.768)" fill="#263238"/><path d="M355.215,221.59l.745,2.63c.1.21-.14.412-.482.412H325.484c-.263,0-.482-.131-.491-.289l-.263-2.63c0-.184.2-.333.491-.333h29.547a.543.543,0,0,1,.447.21Z" transform="translate(-287.584 -134.993)" fill="#40a0c0"/><path d="M355.215,221.59l.745,2.63c.1.21-.14.412-.482.412H325.484c-.263,0-.482-.131-.491-.289l-.263-2.63c0-.184.2-.333.491-.333h29.547a.543.543,0,0,1,.447.21Z" transform="translate(-287.584 -134.993)" fill="#fafafa" opacity="0.2"/><path d="M354.9,224.851h.8c.158,0,.272-.079.263-.175l-.368-3.392a.3.3,0,0,0-.307-.184H354.5c-.158,0-.281.088-.272.184l.368,3.392C354.6,224.772,354.73,224.851,354.9,224.851Z" transform="translate(-291.227 -134.958)" fill="#263238"/><path d="M328.034,224.851h.789c.158,0,.272-.079.263-.175l-.368-3.392c0-.1-.149-.184-.307-.184h-.789c-.158,0-.28.088-.272.184l.377,3.392C327.736,224.773,327.92,224.851,328.034,224.851Z" transform="translate(-287.908 -134.958)" fill="#263238"/><path d="M341.464,224.851h.789c.158,0,.272-.079.263-.175l-.368-3.392c0-.1-.149-.184-.307-.184h-.789c-.158,0-.28.088-.272.184l.377,3.392C341.166,224.773,341.306,224.851,341.464,224.851Z" transform="translate(-289.566 -134.958)" fill="#263238"/><path d="M344.581,222.615l-6.311-4.505.587,7.275s4.207,1.884,6.565.07Z" transform="translate(-289.256 -134.589)" fill="#ffb573"/><path d="M365.728,183.78c.543,4.286,1.008,8.59,1.437,12.893s.833,8.607,1.192,12.911l.061.806V211.5a7.531,7.531,0,0,1-.517,2.8,8.642,8.642,0,0,1-3.164,3.857,14.961,14.961,0,0,1-3.576,1.814,27.005,27.005,0,0,1-3.506.982,51.627,51.627,0,0,1-13.542.771l-.044-3.629c2.042-.272,4.163-.6,6.2-1.008a45,45,0,0,0,6.013-1.56,14.988,14.988,0,0,0,4.759-2.367,2.2,2.2,0,0,0,.824-1.139,1.113,1.113,0,0,0,0-.386l-.193-1.306c-.631-4.286-1.218-8.563-1.753-12.858s-1.078-8.59-1.516-12.893Z" transform="translate(-289.973 -130.349)" fill="#ffb573"/><path d="M363.769,173.9c2.919.877,6.434,10.939,6.434,10.939l-11.333,8.1s-4.128-8.388-2.9-12.166C357.239,176.842,360.438,172.88,363.769,173.9Z" transform="translate(-291.414 -129.108)" fill="#40a0c0"/><path d="M326.362,203.68a17.153,17.153,0,0,0-26.733,21.176l-.763,6.293,6.3-.754h0a17.153,17.153,0,0,0,21.194-26.716ZM309.174,220.86a7.143,7.143,0,1,1,5.057,2.1A7.152,7.152,0,0,1,309.174,220.86Z" transform="translate(-284.159 -132.176)" fill="#ee7a15"/><path d="M326.362,203.68a17.153,17.153,0,0,0-26.733,21.176l-.763,6.293,6.3-.754h0a17.153,17.153,0,0,0,21.194-26.716ZM309.174,220.86a7.143,7.143,0,1,1,5.057,2.1A7.152,7.152,0,0,1,309.174,220.86Z" transform="translate(-284.159 -132.176)" opacity="0.4"/><path d="M331.39,218.382l.824,6.065,5.794.938-.587-7.275Z" transform="translate(-288.407 -134.589)" fill="#ffb573"/></g><g transform="translate(88.807 121.176)"><path d="M199.672,377.2h0a98.343,98.343,0,0,1-69.541-167.884.876.876,0,0,1,1.236,0l10.413,10.4a.88.88,0,0,1-1.245,1.245l-9.782-9.782a96.588,96.588,0,1,0,136.6,136.6l-9.8-9.8a.88.88,0,1,1,1.245-1.245l10.422,10.422a.877.877,0,0,1,0,1.245,97.72,97.72,0,0,1-69.541,28.8Z" transform="translate(-101.321 -195.202)" fill="#ee7a15"/><circle cx="83.653" cy="83.653" r="83.653" transform="translate(14.698)" fill="#40a0c0"/><g transform="translate(14.698)" clip-path="url(#a)"><g transform="translate(-31.212 10.908)" opacity="0.2"><path d="M275.223,210.45l7.5,1.437c-.657.5-1.113,1.271-1.8,1.753,5.364.061,11.035-.552,16.206.876,4.83,1.35,8.975-.377,13.91.149,2.892.316,34.823,2.463,33.9,6.793-2.253-.351-5.2-1.473-7.319-.237l3.8,1.63c-2.016,1.113-7.45,2.06-7.424,3.979,0,1.376,1.893,1.99,2.4,3.217s.28,3.173.394,4.461c-1.569-1.42-5.846-3.953-6.442-5.855s2.884-5.425-2.226-4.672c-1.867.272-1.674,1.946-2.156,2.13-1.192.465-3.41.123-4.707.167-4.3.149-4.014.964-5.925,4.68,2.586.465,5.969.429,7.661,2.13s3,7.328,1.1,9.054c-.929.876-2.261.193-2.849.657s-1.63,2.927-1.437,3.6c.543,1.9,6.5,4.032,1.174,5.434-.675-1.113-2.165-5.049-3.339-5.513-1.657-.657-3.629,1.946-3.681-1.49l-2.384,2.033a4.733,4.733,0,0,0,4.777,1.586c-3.375.876-1.069,3.506-.053,4.707,1.569,1.841,1.657,1.893,1.753,3.953.184,3.786-2.41,6.819-6.3,7.678-1.955.429-3.375-.219-4.637,1.157-1.92,2.077-.053,2.244,1.025,3.971.754,1.218,2.288,3.673,2.034,5.145-.219,1.253-2.63,2.8-3.673,3.778-1.324-1.937-2.314-4.514-4.873-5.136-.228,3.2-.517,4.426,1.753,6.907.7.763,1.569,1.148,2.051,1.972s.359,2.568.876,3.646c-6.7-3.594-5.653-10.448-7.95-16.8-1.525,3.892-3.006-1.429-3.673-2.629-1.508-2.629-3.077-3.506-6.048-1.753-1.437.833-5.312,4.514-5.881,6.022-1.315,3.453,1.078,4.847-1.753,7.888-2.121-1.5-2.63-4.786-3.418-7.012-.876-2.437-2.428-5.145-2.191-7.8-1.56,3.339-3.769-.8-5.206-2.016-2.121-1.753-3.506-.982-6.337-1.245a17.827,17.827,0,0,1-3.234-.929c.552.149-1.262-1.069-1.008-.964-.377-.167-.973.552-1.5.351-1.657-.649-4.751-4-6.214-3.164.631,1.245,1.884,4.8,3.164,5.513,1.99,1.1,3.506-1.148,5.04-.877a12.51,12.51,0,0,1,3.068,2.945c.263,1.148,0,.736-.877,2.235a9.738,9.738,0,0,1-4.619,4.382c-1.551.877-5.154,3.155-7.012,3.2-2.419.053-2.375-.982-3.41-2.927s-5.811-13.717-8.143-12.385c1.823,3.944,3.375,8.2,5.627,11.938.806,1.341,3.094,5.706,4.558,6.3,1.753.71,5.1-.876,6.635-1.341-.745,7.012-6.5,9.641-9.869,15.041-3.05,4.856,2.5,10.518-1.174,14.778-.982,1.148-3.708,1.683-4.382,2.989-.561,1.078.508,2.726.175,3.927-.438,1.569-1.385,1-2.349,2.384-.789,1.122-.535,2.735-1.437,4.014a9.957,9.957,0,0,1-6.626,4.593c-4.2.947-4.558.815-5.934-2.857L220.1,308.758c-1.069-2.849-.622-3.979.237-7.012s1.175-3.725-.1-6.477a44.313,44.313,0,0,1-2.48-5.32c-.465-1.56,0-2.717-.2-4.339-.175-1.28-.123-1.972-1.315-3.015-.324-.289-1.446.307-1.849.1s-.78-1.49-1.28-1.586c-2.095-.394-4.97,1.008-7.389,1.1-3.681.14-6.135.079-8.555-2.182s-4.531-4.829-4.724-8.23c-.421-7.433,5.11-10.15,8.178-16.145,1.017-1.99,0-2.717,2.586-4.242a7.332,7.332,0,0,1,3.3-1.017c3.892-.727,7.985-.876,11.92-1.35-.342,2.963-.587,2.516,1.823,3.971,1.92,1.157,4.146,2.007,6.135,2.989.675-4.216,6.32-1.139,9.422-.877,4.751.421,3.918-1.841,4.716-5.811-1.858.1-4.3.649-6.074.061-2.63-.877-2.226-1.99-2.63-4.435l-2.927.535a4.558,4.558,0,0,1,.2,3.839,23.487,23.487,0,0,1-2.743-2.963c-.386-.631-.421-1.858-.771-2.323-1.262-1.674-3.673-3.05-5.312-4.382-1.963,2.8,2.63,4.97,4.628,6.048-1.9,2.244-2.437,4.488-5.163,2.069,3.068.193,3.41-.6,1.9-2.708-1.6-2.261-3.725-3.506-6-3.375-.351,0-.622.955-.973.99s-1.42-.71-1.753-.543-.938-.21-1.236-.079.149,1.2,0,1.341c-1.341,1.192-2.323,3.015-3.506,4.233-1.569,1.639-3.252,3.112-5.653,1.753-1.753-1.025-2.4-4.514-1.245-6.346,1.411-2.235,4.523.552,6.547-.955s-.692-3.822-1.753-4.987a34.182,34.182,0,0,0,4.847-1.849c1.753-1.008,1.253-1.806,2.682-2.857,1.1-.824,1.849-.316,2.568-1.253,1.061-1.376-1.262-2.831,1.849-2.971-1.7,4.382,5.969,3.839,8.186,2.27.473-.333.061-1.446.394-1.92a10.68,10.68,0,0,1,1.367-1.148v-1.166h1.49c1-.736,1.683.6,2.174-1.2-2.156.368-3.392,1.157-4.768-.245-1.946-1.981-.281-2.454,1.446-3.839-3.164-2.261-7.818,4.137-3.944,4.707-.727.876-2.682,4.426-3.76,4.654-2.147.465-1.753-2.524-2.042-3.979-1.437.57-2.41,1.28-3.383.666a2.786,2.786,0,0,1-.763-3.155c.666-1.183,3.716-1.586,4.873-2.507s1.753-2.822,3.085-3.673c4.444-2.91,13.235-1.841,17.293,1.271-1.849,1.122-4.155.386-6.188.149,1.192,1.578,2.857,3.506,5.022,2.831.272-.088.78-1.473,1.288-1.8,1.166-.763,3.173-1.113,4.505-1.586,4.461-1.569,7.888-1.6,12.586-.745-2.288-6.135,1.411-2.629,5.662-3.392,2.033-.359,3.9-1.963,5.864-2.586a58.918,58.918,0,0,1,6.819-1.315Z" transform="translate(-96.059 -206.282)"/><path d="M211.729,236.547l-5.119,1.122c.561-.824,2.086-2.288,2.174-3.2.175-1.937-.876-.929-1.192-1.648-1.455-3-.666-3.094,2.042-4.6.368,1.481.473,3.567,1.218,4.943S213.841,235.179,211.729,236.547Z" transform="translate(-97.811 -208.476)"/><path d="M206.641,233.586c-1.49,2.559-.272,2.533-3.751,3.094C203.784,234.611,203.276,232.262,206.641,233.586Z" transform="translate(-97.351 -209.092)"/><path d="M257.108,215.786c-6.057-1.832,3.445-4.5,4.637-4.794-2.472,0-5.916-.5-7.888,1.437C251.691,214.577,254.259,217,257.108,215.786Z" transform="translate(-103.546 -206.342)"/><path d="M225.3,210.635l2.191-1.753a11.105,11.105,0,0,0-6.135-.675Z" transform="translate(-99.632 -205.984)"/><path d="M227.25,207.49c1.613,1.753,3.8.877,5.951.6C231.212,207.814,229.257,207.621,227.25,207.49Z" transform="translate(-100.36 -205.916)"/><path d="M343,257.26a11.105,11.105,0,0,0,1.9,2.779c.876-3.813,3.261-1.867,5.759-4.181,1.35-1.245,1.253-3.874-.543-5.653-2.524-2.516-.508,1.359-1.516,3.138C347.479,255.27,344.446,255.358,343,257.26Z" transform="translate(-114.655 -211.09)"/><path d="M348.649,248.41l.78-.289c-.123-.289-.254-.578-.386-.876,1.437.526,2.875.517,3.313-1.052l-4.777-1.972C348.912,246.052,346.861,247.034,348.649,248.41Z" transform="translate(-115.221 -210.453)"/><path d="M346.5,242.284h1.218a60.852,60.852,0,0,0-6.048-8.064C340.887,236.017,345.322,240.478,346.5,242.284Z" transform="translate(-114.479 -209.217)"/><path d="M337.749,268.44c-1.394.622-1.332,2.025-.359,3.2Z" transform="translate(-113.875 -213.444)"/><path d="M325.822,274.79h1.49c-.456,1.394-.263,1.21-1.692,1.376Z" transform="translate(-112.509 -214.228)"/><path d="M312.27,291.48c5.145,2.165,10.176,6.749,10.176,12.192-2.673-.21-4.6-3.629-5.706-5.627S312.8,293.382,312.27,291.48Z" transform="translate(-110.86 -216.289)"/><path d="M329.359,295.875l-1.508-.333c-1.464,4.041,3.278,7.888,6.39,4.891,1.437-1.385,1.139-3.953,1.437-5.592.421-2.288,1.3-3.077-.955-4.821Z" transform="translate(-112.751 -216.109)"/><path d="M335.56,288.641c1.1-1.324,2.63-2.533,2.63-4.321C337.322,285.792,336.436,287.2,335.56,288.641Z" transform="translate(-113.736 -215.405)"/><path d="M339.633,282.574c-1.753-2.445-1.639-3.243-1.42-6.214,2.13.245,1.052,3.225,2.34,4.742,1.858,2.182,4.128,2.165,4.277,5.653.088,2.1-1.069,3.953-3.418,1.683C339.861,286.939,340.895,284.45,339.633,282.574Z" transform="translate(-114.049 -214.422)"/><path d="M343.882,296.75c-2.051,1.087-4.032-.6-5.312,1.832,1.753-1.28,3.129-.719,5.066-.359A6.55,6.55,0,0,0,343.882,296.75Z" transform="translate(-114.108 -216.94)"/><path d="M341.852,299.16c-2,1.446-3.059-.473-3.865,2.174-.324,1.061.2,3.322,1.376,3.287-.044-1.262-.508-2.629.508-3.445-.254,1.525.28,2.489,1.981,1.876l-1.42-2.63c.649.07,1.35-.272,2-.193Z" transform="translate(-114.025 -217.238)"/><path d="M332.023,307.621c-1.937-.508-6.556-2.726-8.143-1.3C325.878,307.209,330.375,309.488,332.023,307.621Z" transform="translate(-112.294 -218.064)"/><path d="M347.95,295.44a3.1,3.1,0,0,0-.491,3.8A4.943,4.943,0,0,0,347.95,295.44Z" transform="translate(-115.152 -216.778)"/><path d="M347.66,301.979c.237,1.148,1.49.876,2.8,1.008C350.2,301.733,349.019,301.681,347.66,301.979Z" transform="translate(-115.231 -217.567)"/><path d="M346.062,302l.535.508a1.4,1.4,0,0,1-1.017,0Z" transform="translate(-114.974 -217.589)"/><path d="M351.08,299.7c0,2.629,2.542,3.427,4.382,4.26s3.962,1.674,1.069,3.559c1.394-.2,2.586.719,3.681.622a12.06,12.06,0,0,0,1.753,0c.456-.105.692-1.63,1.148-1.639,1.341,0,1.166.5,2.358,1.359a8.651,8.651,0,0,0,3.76,1.92c-1.621-1.963-3.41-5.119-5.39-6.626-.877-.666-4.593-2.367-5.785-2.393-1.42,0-1.841.543-3.208,1.578C354.323,300.577,353.517,298.149,351.08,299.7Z" transform="translate(-115.653 -217.243)"/><path d="M368.83,304.454c1.543,1.148,6.135.8,4.68-1.674C372.178,304.647,371.012,304.454,368.83,304.454Z" transform="translate(-117.845 -217.685)"/><path d="M348.857,311.805c-.657.824-2.226,3.681-3.173,3.988-1.472.465-2.042-.955-3.19-.745-2.516.473-5.2,4.917-7.38,6.2-3.786,2.209-5.794,1.6-6.337,6.495-.193,1.8.736,3.883.316,5.636-.386,1.622-2.629,2.358.263,3.261,2.743.876,8.283-2.279,11.184-2.822,1.56-.3,2.261-.876,3.813,0,1.245.727,1.288,2.086,2.13,3.313,5.18,7.582,14.024.053,17.048-5.5,2.042-3.716,1.034-6.74-1.253-10.062-.982-1.42-1.551-1.753-2.2-3.357a51.232,51.232,0,0,1-1.6-6.442l-3.445,7.012c-3.252-2.41-4.382-2.2-2.463-5.7Z" transform="translate(-112.79 -218.795)"/><path d="M353.179,346.64l4.093.254c-1.2,1.578-1.972,3.751-4.382,3.077Z" transform="translate(-115.877 -223.102)"/><path d="M370.65,352.019c3.138,1.657,3.173,1.069,6.135-.876,1.6-1.052,5.715-2.384,3.506-4.523Z" transform="translate(-118.07 -223.099)"/><path d="M382.59,345.747a7.57,7.57,0,0,0,1.043,1.28c.877-.7,4.628-2.857,4.768-3.83s-2.095-2.892-2.822-3.786Z" transform="translate(-119.545 -222.209)"/><path d="M398.944,318.88a8.538,8.538,0,0,0-1.464.815C398.812,320.677,400.408,320.563,398.944,318.88Z" transform="translate(-121.384 -219.673)"/><path d="M382.29,322.819s4.084,3.138,3.76,2.165C385.638,323.766,383.5,322.732,382.29,322.819Z" transform="translate(-119.508 -220.159)"/><path d="M334.52,308.31c.561,2.025,7.6.456,9.694,0Z" transform="translate(-113.608 -218.368)"/><path d="M338.57,310.06c.438.982,2.779,2.042,3.41.771Z" transform="translate(-114.108 -218.584)"/><path d="M262.315,313.13c-2,1.806-4.514,3.313-5.11,5.864-.316,1.332-1.28,6.907-.105,7.766,2.717,2,3.629-4.181,4.155-5.636C262.438,317.819,263.078,316.522,262.315,313.13Z" transform="translate(-103.976 -218.963)"/><path d="M200.473,220.446c2.016.543,2.98-.088,4.8-.876C204.277,218.685,197.87,218.29,200.473,220.446Z" transform="translate(-96.976 -207.32)"/><path d="M133.536,282.819c-1.692,2.8-3.278,5.066-3.857,8.222-.771,4.207.342,5.259,2.568,9.054a17.645,17.645,0,0,0,2.253,3.673c1.3,1.324,3.506,1.806,4.865,3.12,2.051,2.051,1.578,3.909,1.753,7.012.421,6.6.149,13.226,2.323,19.528,1.1,3.182,1.7,5.82,3.892,8.336,3.138,3.611,4.286,3.716,9.01,3.716-3.848-3.041-5.452-3.506-5.539-8.134-.088-4.26-.447-5.487,2.182-8.765,4.943-6.135,11.789-12.271,14.427-19.59q1.3-3.6,2.586-7.2c.5-1.385,2.761-5.2,2.393-6.661-.517-2.042-7.459-3.576-9.922-4.505-1.043-.4-3.269-.806-4.014-1.6-1.4-1.49-.929-4.505-2.244-6.074-1.753-2.112-8.87-4.558-11.64-5.364a9.292,9.292,0,0,0-5-.167c-2.007.28-4.216,1.332-5.951,1.569a15.875,15.875,0,0,1-4.382-.6c-2.489-1.3-1.324-3.892-.973-5.916l-4.882-.57,2.629-6.135c-2.06.587-2.551,1.411-4.032,2.174-.964.491-3.006,1.657-4.19,1.043-2.629-1.367-2.174-7.012-.614-9.063,1.315-1.753,6.188-2.989,8.7-3.243,5-.5,4.794,1.753,6.179,5.627,1.876-2.375-.254-4.865.876-7.1.938-1.806,4.733-2.989,6.249-4.531,4.286-4.33,5.96-7.8,12.017-9.931v1.28l5.2-2.051H152.7a5.828,5.828,0,0,1,1.113-2.814l-3.9.579c3.278-1.753,8.318-1.113,11.105-2.884,2.963-1.884-.727-6.547-1.814-8.9l-3.576,2.112c-1.341-1.92,1.148-2.428-1.981-3.6-2.629-.973-3.024,0-4.435,1.613s-5.259,9.23-7.626,9.221c.692-2.91,1.551-3.261-.745-4.54-1.508-.876-6.539-.473-5.811-3.506.5-2.077,9.282-5.522,11.5-6.784-.4.736-.491,1.622-.876,2.367l4.233-.061-2.629-2.305c3.3-.412,3.9-.175,5.531-2.945-2.156-.421-3.62.877-5.329,1.92.456-2.367-2.191-1.56-3.927-1.586l-11.938-.184c-3.094,0-6.267-.3-9.352-.14-2.305.123-4.645,1-6.933.982-5.794,0-9.747-2.5-15.54-1.148-6.135,1.42-9.641,4.233-14.786,7.775.622.727,1.253,1.455,1.884,2.174l-4.382,3.076c4.567-1.534,10.886-5.031,15.637-4.794,2.761.14,5.706.982,6.4,3.015s.219,5.636-.368,7.608c-1.332,4.488-7.967,11.228-4.829,16.312.4.657,1.753.736,2.191,1.437.745,1.183.1,3.769.421,5.145.4,1.753,1.753,5.425,4.023,5.32-1.481-3.348-2.48-5.7-2.8-9.273,2.629.727,5.189,7.012,5.671,9.168.21.947-.228,2.279.149,3.033.508,1.017,4.155,3.033,5.136,3.445,1.367.57,3.155,0,4.453.6.964.429,2.542,2.218,3.506,2.9.719.5,1.622.394,2.261.955s.877,1.841,1.5,2.533c1.113,1.192,3.006,1.928,4.479,2.761C131.143,276.911,133.115,281.8,133.536,282.819Z" transform="translate(-82.48 -207.085)"/><path d="M134.54,271.916c3.567-1.376,5.671,2.787,9.229,2.112C139.948,272.047,138.572,270.382,134.54,271.916Z" transform="translate(-88.91 -213.799)"/><path d="M145.836,274.94c1.753.184,4.172-.263,4.68,1.6-2.112.377-3.892.99-5.846-.193.657,0,1.359-.263,2.016-.289Z" transform="translate(-90.161 -214.247)"/><path d="M140.62,276.22a17.643,17.643,0,0,1,1.884.412,7.4,7.4,0,0,1-1.884.71Z" transform="translate(-89.661 -214.405)"/><path d="M152.41,276.22a1.648,1.648,0,0,0,2.016.561C153.8,276.6,153.094,276.369,152.41,276.22Z" transform="translate(-91.117 -214.405)"/><path d="M171.311,237.83l-3.261,3.12,5.653,1.411c-.079-.815.105-2.428-.3-3.173C172.923,238.259,171.126,240.021,171.311,237.83Z" transform="translate(-93.048 -209.663)"/><path d="M166.842,218.9l-5.583,2.489c1.622.578,5.259,2.691,6.9,2.437s4.295-3.208,5.653-4.225c-1.753-1.639-4.216-4.961-6.477-5.759a9.9,9.9,0,0,0-9.063,1.753c.614.517,1.508,1.674,2.279,1.92.535.175,1.473-.806,2.033-.71C164.169,217.074,166.316,217.258,166.842,218.9Z" transform="translate(-91.84 -206.648)"/><path d="M165.725,218.79c-2.489.719-.982,1.49.719.543Z" transform="translate(-92.599 -207.312)"/><path d="M153.085,218.014c-3.813-2.629,4-5.5,6.241-5.5-1.148.666-3.708,1.586-4.295,2.629C154.268,216.551,156.126,218.873,153.085,218.014Z" transform="translate(-91.072 -206.536)"/><path d="M134.355,218.071c0-1.052,1.49-2.822,2.007-3.778-1.516.4-3.751,1.823-4.382,0,2.752-.929,4.242-1.665,6.959-1.157,3.173.6,4.093,1.2,7.336.649-.587,1.49-1.324,2.682-.877,4.286Z" transform="translate(-88.593 -206.593)"/><path d="M139.73,211.148c3.953,1.876,6.135,1.3,10.518.8-1.49-.333-3.506-1.455-4.882-1.63C143.718,210.1,141.4,210.911,139.73,211.148Z" transform="translate(-89.551 -206.261)"/><path d="M152.282,213.1a14.389,14.389,0,0,0-2.542.7,5.468,5.468,0,0,0,1.043,1.534l3.637-2.235a19.341,19.341,0,0,0-2.139,0Z" transform="translate(-90.787 -206.605)"/><path d="M154.19,210.713c1.7,1.1,6.67.587,8.712.736,2.814.21,3.366,0,5.89-1.253,4.637-2.331,9.343-3.1,14.462-4.225-5.32,0-11.07-.622-16.338,0C164.059,206.313,154.374,207.338,154.19,210.713Z" transform="translate(-91.337 -205.694)"/><path d="M177.8,210.429a54,54,0,0,1,13.147-2.831,63.338,63.338,0,0,1,14.024.57c-2.165,2.2-4.584,5.8-7.371,7.135-2.016.964-4.777.543-6.793,1.508-1.56.754-2.98,2.516-4.286,3.637-3.3,2.866-4.865-.324-4.295-3.725.228-1.4,1.981-3.83.421-5.259C181.534,210.56,179.045,211.49,177.8,210.429Z" transform="translate(-94.252 -205.91)"/></g></g><path d="M213.407,412.406a.877.877,0,0,1-.876-.877V399.766a.876.876,0,0,1,1.753,0v11.763a.877.877,0,0,1-.876.876Z" transform="translate(-115.056 -218.647)" fill="#ee7a15"/><path d="M235.109,412.611c0,1.42-11.245,2.568-25.12,2.568s-25.129-1.148-25.129-2.568,11.254-4.961,25.129-4.961S235.109,411.191,235.109,412.611Z" transform="translate(-111.638 -219.729)" fill="#ee7a15"/></g></svg>