<svg xmlns="http://www.w3.org/2000/svg" width="381.873" height="326.547" viewBox="0 0 381.873 326.547"><g transform="translate(0 42.006)"><rect width="381.873" height="0.191" transform="translate(0 250.051)" fill="#ebebeb"/><rect width="25.295" height="0.191" transform="translate(318.314 262.339)" fill="#ebebeb"/><rect width="6.637" height="0.191" transform="translate(246.331 264.417)" fill="#ebebeb"/><rect width="36.408" height="0.191" transform="translate(281.143 255.252)" fill="#ebebeb"/><rect width="18.086" height="0.191" transform="translate(40.066 256.535)" fill="#ebebeb"/><rect width="19.743" height="0.191" transform="translate(64.949 256.535)" fill="#ebebeb"/><rect width="49.369" height="0.191" transform="translate(100.41 259.758)" fill="#ebebeb"/><path d="M190.035,270.987H42.563a4.361,4.361,0,0,1-4.353-4.361V59.323A4.361,4.361,0,0,1,42.563,55H190.035a4.361,4.361,0,0,1,4.361,4.361V266.626A4.361,4.361,0,0,1,190.035,270.987ZM42.563,55.153a4.17,4.17,0,0,0-4.162,4.17v207.3a4.17,4.17,0,0,0,4.162,4.17H190.035a4.178,4.178,0,0,0,4.17-4.17V59.323a4.178,4.178,0,0,0-4.17-4.17Z" transform="translate(-9.027 -55)" fill="#ebebeb"/><path d="M406.34,270.987H258.861a4.369,4.369,0,0,1-4.361-4.361V59.323A4.369,4.369,0,0,1,258.861,55H406.34a4.361,4.361,0,0,1,4.346,4.323v207.3A4.361,4.361,0,0,1,406.34,270.987ZM258.861,55.153a4.178,4.178,0,0,0-4.17,4.17v207.3a4.178,4.178,0,0,0,4.17,4.17H406.34a4.178,4.178,0,0,0,4.17-4.17V59.323a4.178,4.178,0,0,0-4.17-4.17Z" transform="translate(-60.127 -55)" fill="#ebebeb"/><rect width="21.003" height="80.239" transform="translate(63.948 250.051) rotate(180)" fill="#e6e6e6"/><path d="M60.214,378.889H56.22V367.54h8.172Z" transform="translate(-13.282 -128.839)" fill="#f0f0f0"/><rect width="21.003" height="80.239" transform="translate(183.788 250.051) rotate(180)" fill="#e6e6e6"/><rect width="123.33" height="73.274" transform="translate(166.275 243.085) rotate(180)" fill="#f0f0f0"/><rect width="55.372" height="36.561" transform="translate(125.606 228.902) rotate(-90)" fill="#e6e6e6"/><path d="M181.1,285.257h7.233a11.456,11.456,0,0,0,8.294-3.567H172.79A11.456,11.456,0,0,0,181.1,285.257Z" transform="translate(-40.822 -108.556)" fill="#f0f0f0"/><rect width="55.372" height="36.561" transform="translate(86.326 228.902) rotate(-90)" fill="#e6e6e6"/><path d="M129.172,285.257H136.4a11.456,11.456,0,0,0,8.31-3.567H120.87A11.456,11.456,0,0,0,129.172,285.257Z" transform="translate(-28.556 -108.556)" fill="#f0f0f0"/><rect width="55.372" height="36.561" transform="translate(47.039 228.895) rotate(-90)" fill="#e6e6e6"/><path d="M77.74,285.257h7.233a11.456,11.456,0,0,0,8.3-3.567H69.43a11.456,11.456,0,0,0,8.31,3.567Z" transform="translate(-16.403 -108.556)" fill="#f0f0f0"/><path d="M211.185,378.889h3.994V367.54H207Z" transform="translate(-48.904 -128.839)" fill="#f0f0f0"/><rect width="115.708" height="108.376" transform="translate(327.808 122.879) rotate(180)" fill="#e6e6e6"/><rect width="117.922" height="108.376" transform="translate(325.875 122.879) rotate(180)" fill="#f0f0f0"/><rect width="115.708" height="7.721" transform="translate(327.808 130.601) rotate(180)" fill="#e6e6e6"/><rect width="117.922" height="7.721" transform="translate(318.948 130.601) rotate(180)" fill="#f0f0f0"/><rect width="96.736" height="106.291" transform="translate(320.056 20.316) rotate(90)" fill="#fafafa"/><path d="M388.94,178.346,354.793,81.61H338.67l34.147,96.736Z" transform="translate(-80.012 -61.287)" fill="#fff"/><path d="M415.4,146.57a.42.42,0,0,1-.412-.42V86.432a.412.412,0,0,1,.412-.412.42.42,0,0,1,.42.412V146.15A.42.42,0,0,1,415.4,146.57Z" transform="translate(-98.043 -62.329)" fill="#f0f0f0"/><path d="M366.343,178.346,332.2,81.61H325.91l34.147,96.736Z" transform="translate(-76.997 -61.287)" fill="#fff"/><rect width="96.736" height="0.741" transform="translate(214.498 20.316) rotate(90)" fill="#e6e6e6"/><path d="M270.47,89.748H386.185l.535-5.178H271Z" transform="translate(-63.9 -61.986)" fill="#e6e6e6"/><path d="M270.47,94.716H386.185l.535-5.186H271Z" transform="translate(-63.9 -63.158)" fill="#e6e6e6"/><path d="M270.47,100.676H386.185l.535-5.186H271Z" transform="translate(-63.9 -64.566)" fill="#e6e6e6"/><path d="M270.47,107.308H386.185l.535-5.178H271Z" transform="translate(-63.9 -66.135)" fill="#e6e6e6"/><path d="M270.47,115.256H386.185l.535-5.186H271Z" transform="translate(-63.9 -68.01)" fill="#e6e6e6"/><path d="M270.47,124.188H386.185l.535-5.178H271Z" transform="translate(-63.9 -70.123)" fill="#e6e6e6"/><rect width="20.759" height="55.517" transform="translate(327.647 246.53) rotate(180)" fill="#f0f0f0"/><rect width="102.365" height="3.521" transform="translate(323.66 250.051) rotate(180)" fill="#f0f0f0"/><rect width="89.58" height="55.517" transform="translate(217.309 191.013)" fill="#f5f5f5"/><rect width="73.259" height="18.208" transform="translate(225.466 197.848)" fill="#f0f0f0"/><rect width="73.259" height="18.208" transform="translate(225.466 221.486)" fill="#f0f0f0"/><rect width="20.499" height="2.497" rx="1.249" transform="translate(272.344 208.205) rotate(180)" fill="#f5f5f5"/><rect width="20.499" height="2.497" rx="1.249" transform="translate(272.344 231.843) rotate(180)" fill="#f5f5f5"/><ellipse cx="7.615" cy="7.615" rx="7.615" ry="7.615" transform="translate(110.468 148.077) rotate(-13.28)" fill="#f5f5f5"/><ellipse cx="7.615" cy="7.615" rx="7.615" ry="7.615" transform="translate(97.172 147.429) rotate(-13.28)" fill="#f5f5f5"/><ellipse cx="7.615" cy="7.615" rx="7.615" ry="7.615" transform="translate(78.936 148.77) rotate(-13.28)" fill="#f5f5f5"/><ellipse cx="7.615" cy="7.615" rx="7.615" ry="7.615" transform="translate(86.788 152.288) rotate(-13.28)" fill="#f5f5f5"/><path d="M158.936,259.88s-.855,13.465-33.773,13.465S91.39,259.88,91.39,259.88Z" transform="translate(-21.591 -103.404)" fill="#e6e6e6"/><rect width="28.45" height="70.753" transform="translate(80.591 103.816) rotate(180)" fill="#e6e6e6"/><rect width="31.886" height="70.753" transform="translate(77.948 103.816) rotate(180)" fill="#f5f5f5"/><rect width="61.665" height="22.172" transform="translate(73.091 37.607) rotate(90)" fill="#fff"/><rect width="28.45" height="70.753" transform="translate(125.491 79.178) rotate(180)" fill="#e6e6e6"/><rect width="31.886" height="70.753" transform="translate(122.856 79.178) rotate(180)" fill="#f5f5f5"/><rect width="61.665" height="22.172" transform="translate(117.999 12.961) rotate(90)" fill="#fff"/><rect width="28.45" height="70.753" transform="translate(166.604 122.879) rotate(180)" fill="#e6e6e6"/><rect width="31.886" height="70.753" transform="translate(163.969 122.879) rotate(180)" fill="#f5f5f5"/><rect width="61.665" height="22.172" transform="translate(159.104 56.67) rotate(90)" fill="#fff"/></g><g transform="translate(42.854 309.256)"><ellipse cx="148.083" cy="8.646" rx="148.083" ry="8.646" fill="#f5f5f5"/></g><g transform="translate(138.826)"><path d="M427,177.76l2.23,5.316-11.716,6.568-2.222-5.316Z" transform="translate(-236.94 -41.996)" fill="#ff8b7b"/><path d="M417.767,132.41l2.9,4.972L411.42,148l-2.91-4.972Z" transform="translate(-235.338 -31.282)" fill="#ff8b7b"/><path d="M422.536,137.087l-6.064-3.544a.5.5,0,0,1-.229-.588l1.6-4.995a.848.848,0,0,1,1.245-.458c1.932,1.176,3.292,2.123,5.743,3.559,1.527.886,4.72,2.551,6.813,3.765s1.153,3.444.183,3.131c-4.323-1.4-6.438-1.085-8.31-.7a1.39,1.39,0,0,1-.985-.168Z" transform="translate(-237.159 -30.094)" fill="#263238"/><path d="M431.328,182.443l-4.3-4.582a.5.5,0,0,1-.046-.626l2.956-4.33a.84.84,0,0,1,1.321-.1c1.527,1.688,3.666,4.17,5.614,6.255,2.291,2.436,3.093,3.254,5.766,6.11,1.619,1.726.321,3.819-.512,3.261-3.819-2.62-5.109-4.071-9.524-5.27A2.65,2.65,0,0,1,431.328,182.443Z" transform="translate(-239.681 -40.761)" fill="#263238"/><path d="M238.255,215.776c-.687,4.445-1.428,8.913-2.215,13.35l-2.368,13.511a11.6,11.6,0,0,1-2.047,4.583,14.977,14.977,0,0,1-3.231,3.154,24.616,24.616,0,0,1-7.1,3.361,42.557,42.557,0,0,1-7.126,1.482c-1.184.145-2.368.237-3.544.313s-2.337.1-3.6.061l-.275-4.315c2.062-.42,4.254-.909,6.309-1.527a46.343,46.343,0,0,0,5.973-2.146,19.2,19.2,0,0,0,4.865-2.971,7.256,7.256,0,0,0,1.474-1.726,4.347,4.347,0,0,0,.573-1.657l.306-3.208c.107-1.146.244-2.291.367-3.414.267-2.291.55-4.537.855-6.79.611-4.521,1.321-9,2.146-13.5Z" transform="translate(-187.672 -50.639)" fill="#ff8b7b"/><path d="M244.933,215.234c-.115,1.161-.3,2.36-.512,3.551a86.6,86.6,0,0,1-2.559,10.081l-9.318-2.688s-2.291-8.638,0-15.5,9.211-7.34,11.853-1.909C245.132,210.24,245.2,212.653,244.933,215.234Z" transform="translate(-193.525 -48.448)" fill="#ee7a15"/><path d="M244.933,215.234c-.115,1.161-.3,2.36-.512,3.551a86.6,86.6,0,0,1-2.559,10.081l-9.318-2.688s-2.291-8.638,0-15.5,9.211-7.34,11.853-1.909C245.132,210.24,245.2,212.653,244.933,215.234Z" transform="translate(-193.525 -48.448)" fill="#fff" opacity="0.2"/><path d="M247.722,218.2c-.115,1.161-.3,2.36-.512,3.551l-3.88-.764C243.651,219.014,245.812,216.494,247.722,218.2Z" transform="translate(-196.314 -51.418)" opacity="0.2"/><path d="M208.813,262.05l-6.293.252,2.765,6.82a5.53,5.53,0,0,0,5.277-3.9Z" transform="translate(-186.672 -61.91)" fill="#ff8b7b"/><path d="M196.36,265.679l4.621,3.559,2.849-.038-2.765-6.82Z" transform="translate(-185.217 -61.988)" fill="#ff8b7b"/><path d="M417.52,190.627l6.034-3.391-2.23-5.316-6.034,3.391Z" transform="translate(-236.94 -42.979)" opacity="0.2"/><path d="M408.51,144.854l2.91,4.972,5.018-5.751-3.857-3.9Z" transform="translate(-235.338 -33.118)" opacity="0.2"/><path d="M240.552,208.786c6.4-2.429,18.727-6.041,40.181-8.768l-6.163-30.2c-18.781.367-34.369,4.376-56.059,11.219a77.189,77.189,0,0,0,4.14,12.006,113.691,113.691,0,0,0,6.37,11.456c.26.382.527.764.764,1.123A9.2,9.2,0,0,0,240.552,208.786Z" transform="translate(-190.45 -40.121)" fill="#ee7a15"/><path d="M240.552,208.786c6.4-2.429,18.727-6.041,40.181-8.768l-6.163-30.2c-18.781.367-34.369,4.376-56.059,11.219a77.189,77.189,0,0,0,4.14,12.006,113.691,113.691,0,0,0,6.37,11.456c.26.382.527.764.764,1.123A9.2,9.2,0,0,0,240.552,208.786Z" transform="translate(-190.45 -40.121)" fill="#fff" opacity="0.2"/><rect width="7.706" height="35.4" transform="translate(72.187 129.065) rotate(-5.24)" fill="#263238"/><path d="M281.926,193.1l-3.009.283a1.459,1.459,0,0,1-1.589-1.329h0a1.459,1.459,0,0,1,1.321-1.589l3.009-.275a1.466,1.466,0,0,1,1.589,1.321h0a1.459,1.459,0,0,1-1.321,1.589Z" transform="translate(-204.344 -44.931)" fill="#fff"/><path d="M283.306,208.458l-3.009.275a1.459,1.459,0,0,1-1.589-1.321h0a1.466,1.466,0,0,1,1.321-1.589l3.009-.275a1.459,1.459,0,0,1,1.589,1.321h0a1.459,1.459,0,0,1-1.321,1.589Z" transform="translate(-204.671 -48.56)" fill="#fff"/><rect width="1.321" height="131.853" transform="translate(75.68)" fill="#263238"/><path d="M232.12,184.371s5.942-2.864,9.165-7.4q-3.391.894-6.958,1.925Z" transform="translate(-193.665 -41.81)" opacity="0.2"/><path d="M207.88,208.513c4.086-1.321,11.235-4.353,12.258-8.3,0,0,4.3-1.069,8.1,5.774,4.185,7.531-1.734,5.675-1.734,5.675-3.269-3.559-6.255-1.757-8.722.55Z" transform="translate(-187.939 -47.286)" fill="#ff8b7b"/><path d="M213.17,212.63l5.866,2.184a13.9,13.9,0,0,1,1.833-1.482c-1.1-1.444-4.017-2.643-5.759-1.894A6.385,6.385,0,0,0,213.17,212.63Z" transform="translate(-189.188 -49.899)" opacity="0.2"/><path d="M185.329,203.392c-1.1-1.329-2.291-1.527-3.559-.764,3.422,2.979,3.177,10.547,8.6,12.5s9.486-4.453,10.792-6.874a3.177,3.177,0,0,0,.4-2.291c1.795-2.543-4.911-5.927-2.933-9.3,2.161-3.7-.642-5.484-6.11-6.874C193.3,193.716,184.779,199.337,185.329,203.392Z" transform="translate(-181.77 -44.839)" fill="#263238"/><path d="M204.241,205.006c5.285,2.184,8.493,3.192,10.326,6.874,2.765,5.53-1.993,11.342-7.828,10.784-5.247-.5-12.984-3.987-13.343-10.013a7.8,7.8,0,0,1,10.845-7.645Z" transform="translate(-184.513 -48.286)" fill="#ff8b7b"/><path d="M206.7,205.84c-2.742.458-10.3,1.138-12.06-4.346s8.34-5.888,8.63-10.395c4.376.7,3.506,2.94,6.316,6.545C214.12,203.511,211.386,205.054,206.7,205.84Z" transform="translate(-184.761 -45.148)" fill="#263238"/><path d="M189.622,214c-1.749-2.169-1.879-8.4,1.314-13.182s2.146-.267,6.232-2.245c-.932,2.933.527,8.745-.39,12.892C195.594,216.868,192.6,217.716,189.622,214Z" transform="translate(-183.336 -46.904)" fill="#263238"/><path d="M211.7,205.118a5.468,5.468,0,0,1,2.482,3.33c.458,1.848-1.214,2.719-2.933,2.154-1.528-.512-3.635-2.085-3.33-3.918a2.444,2.444,0,0,1,3.781-1.566Z" transform="translate(-187.941 -48.359)" fill="#ff8b7b"/><path d="M213.449,207.8a.909.909,0,1,1-1.123-.619A.909.909,0,0,1,213.449,207.8Z" transform="translate(-188.833 -48.938)" fill="#263238"/><path d="M220.9,219.477h0a.176.176,0,0,1-.145-.2,9.524,9.524,0,0,0-7.966-10.845.173.173,0,1,1,.046-.344,9.875,9.875,0,0,1,8.264,11.242.183.183,0,0,1-.2.145Z" transform="translate(-189.063 -49.161)" fill="#263238"/><path d="M222.812,225.367h0a.7.7,0,0,1-.6-.764l.29-2.291a.7.7,0,0,1,.764-.6h0a.7.7,0,0,1,.611.764l-.29,2.291A.718.718,0,0,1,222.812,225.367Z" transform="translate(-191.323 -52.379)" fill="#263238"/><path d="M298.743,202.513s35,15.779,52.1,11.655c17.772-4.3,43.847-24.784,43.847-24.784l-3.773-9s-24.2,14.985-41.853,18.185c-19.262,3.452-39.593-18.926-54.379-15.9Z" transform="translate(-208.445 -42.615)" fill="#263238"/><path d="M313.4,191.055c2.291,4.987,14.916,8.279,22.309,6.782-6.828-2.673-13.549-6.622-19.857-9.577C313.878,188.825,312.778,189.711,313.4,191.055Z" transform="translate(-212.827 -44.477)" opacity="0.2"/><path d="M295.9,182.305s33.735,4.8,49.178-2.016c16.909-7.469,43.793-32.917,43.793-32.917l-6.675-7.172s-21.9,17.047-38.951,22.821c-18.536,6.27-37.156-3.055-51.3-.2C294.277,174.416,295.9,182.305,295.9,182.305Z" transform="translate(-207.798 -33.123)" fill="#263238"/><path d="M417.2,147.068l-8.539-8.218-2.566,2.688,8.844,8.814Z" transform="translate(-234.769 -32.804)" fill="#263238"/><path d="M417.2,147.068l-8.539-8.218-2.566,2.688,8.844,8.814Z" transform="translate(-234.769 -32.804)" fill="#fff" opacity="0.2"/><path d="M423.969,189.893l-4.407-10.333-3.483,1.451,4.873,11.914Z" transform="translate(-237.126 -42.422)" fill="#263238"/><path d="M423.969,189.893l-4.407-10.333-3.483,1.451,4.873,11.914Z" transform="translate(-237.126 -42.422)" fill="#fff" opacity="0.2"/><path d="M205.594,216.582c.443.153.718.5.619.764s-.535.4-.978.252-.71-.512-.611-.764A.786.786,0,0,1,205.594,216.582Z" transform="translate(-187.164 -51.155)" fill="#263238"/><path d="M203.364,223.09c.443.153.718.5.619.764s-.535.4-.978.244-.71-.5-.611-.764S202.928,222.938,203.364,223.09Z" transform="translate(-186.637 -52.691)" fill="#263238"/><path d="M204.67,221.14a16.709,16.709,0,0,1,3.055,3.391,2.7,2.7,0,0,0,1.115-1.97Z" transform="translate(-187.18 -52.245)" fill="#ff5652"/><path d="M212.319,219.684a4.3,4.3,0,0,1-.046,1.023.13.13,0,0,1-.153.115.137.137,0,0,1-.115-.153,3.643,3.643,0,0,0-.947-3.192.153.153,0,0,1,0-.2.137.137,0,0,1,.191,0A3.765,3.765,0,0,1,212.319,219.684Z" transform="translate(-188.681 -51.324)" fill="#263238"/><path d="M203.822,213.749a.267.267,0,0,1-.183.237,2.139,2.139,0,0,0-1.428,1.352.275.275,0,1,1-.527-.137,2.7,2.7,0,0,1,1.787-1.734.275.275,0,0,1,.344.176A.245.245,0,0,1,203.822,213.749Z" transform="translate(-186.47 -50.429)" fill="#263238"/><path d="M200.074,224.366a.252.252,0,0,1-.084.168.267.267,0,0,1-.382,0,2.7,2.7,0,0,1-.817-2.352.267.267,0,0,1,.321-.214.275.275,0,0,1,.214.321,2.146,2.146,0,0,0,.664,1.856.283.283,0,0,1,.084.221Z" transform="translate(-185.785 -52.439)" fill="#263238"/><path d="M221.68,172.571c.435-1.1.84-2.047,1.306-3.055s.924-1.948,1.405-2.918c.97-1.917,2.016-3.819,3.147-5.667s2.345-3.674,3.666-5.453l1.008-1.329,1.085-1.291c.344-.435.764-.855,1.13-1.275l.58-.626.145-.153.252-.252a6.527,6.527,0,0,1,.558-.5,11.823,11.823,0,0,1,4.017-2.016,26.993,26.993,0,0,1,3.513-.764,49.47,49.47,0,0,1,6.606-.542,81.864,81.864,0,0,1,12.77.764l-.16,4.323c-4.025.367-8.126.817-12.052,1.413a54.66,54.66,0,0,0-5.69,1.161,18.427,18.427,0,0,0-2.475.817,4.7,4.7,0,0,0-1.459.855h0l-.107.137-.428.55c-.29.367-.58.764-.848,1.123l-.825,1.153-.764,1.2c-1.039,1.619-2.047,3.292-2.994,5.018s-1.864,3.483-2.742,5.27c-.443.886-.878,1.78-1.3,2.673l-1.207,2.643Z" transform="translate(-191.199 -34.661)" fill="#ff8b7b"/><path d="M218.67,179.954c-2.085-5.094,9.165-17.7,9.165-17.7l8.4,3.949s-.718,7.974-4.865,13.747C227.018,186.064,221.038,185.735,218.67,179.954Z" transform="translate(-190.427 -38.332)" fill="#ee7a15"/><path d="M218.67,179.954c-2.085-5.094,9.165-17.7,9.165-17.7l8.4,3.949s-.718,7.974-4.865,13.747C227.018,186.064,221.038,185.735,218.67,179.954Z" transform="translate(-190.352 -38.461)" fill="#fff" opacity="0.2"/><path d="M426.816,140.037a1.741,1.741,0,0,1,.8.81.825.825,0,0,1-.114.764.435.435,0,0,1-.4.214c-.718-.038-1.749-1.963-1.864-2.177a.127.127,0,0,1,.137-.2A6.814,6.814,0,0,1,426.816,140.037Zm.13,1.459a.443.443,0,0,0,.176.061c.038,0,.092,0,.153-.1a.55.55,0,0,0,.092-.519c-.138-.389-.764-.764-1.718-1.123A5.492,5.492,0,0,0,426.946,141.5Z" transform="translate(-239.286 -32.944)" fill="#40a0c0"/><path d="M425.279,139.464a.06.06,0,0,1,.053.046c.351.58.7,2.253.275,2.749a.458.458,0,0,1-.558.084.764.764,0,0,1-.412-.443c-.3-.81.42-2.291.451-2.375a.138.138,0,0,1,.115-.076.092.092,0,0,1,.077.015Zm-.176,2.6h.061a.239.239,0,0,0,.237,0c.26-.29.107-1.482-.183-2.169a3.33,3.33,0,0,0-.321,1.9A.542.542,0,0,0,425.1,142.069Z" transform="translate(-239.131 -32.945)" fill="#40a0c0"/><path d="M435.313,186.518a2.169,2.169,0,0,1,.695,1.268.764.764,0,0,1-.305.642.451.451,0,0,1-.42.084c-.764-.244-1.489-2.742-1.573-3.055a.137.137,0,0,1,.053-.145.13.13,0,0,1,.16,0A10.173,10.173,0,0,1,435.313,186.518Zm-.16,1.6a.589.589,0,0,0,.214.153.16.16,0,0,0,.16,0,.512.512,0,0,0,.214-.42c0-.474-.626-1.207-1.65-1.986A7.478,7.478,0,0,0,435.152,188.122Z" transform="translate(-241.29 -43.774)" fill="#40a0c0"/><path d="M433.614,185.375v.046c.244.726.275,2.581-.275,2.948-.122.084-.336.137-.626-.107a1.039,1.039,0,0,1-.344-.718,3.924,3.924,0,0,1,1.008-2.169.137.137,0,0,1,.13,0,.107.107,0,0,1,.107,0Zm-.764,2.62.061.061c.183.16.267.107.29.092.328-.221.4-1.581.237-2.391a3.177,3.177,0,0,0-.764,1.772A.7.7,0,0,0,432.85,187.995Z" transform="translate(-240.974 -43.792)" fill="#40a0c0"/><path d="M273.457,151.331l4.972,3.055.917-7.3s-4.812-1.688-6,.764Z" transform="translate(-203.406 -34.616)" fill="#ff8b7b"/><path d="M286.24,154.342l.428-6.026-5.751-1.016L280,154.6Z" transform="translate(-204.977 -34.8)" fill="#ff8b7b"/></g><g transform="translate(82.63 197.619)"><rect width="172.706" height="9.57" transform="translate(0 27.35)" fill="#40a0c0"/><rect width="44.885" height="9.57" transform="translate(127.821 27.35)" opacity="0.2"/><path d="M318,307.09h10.845v81.186a2.169,2.169,0,0,1-2.169,2.169h-6.484a2.169,2.169,0,0,1-2.169-2.169V307.09Z" transform="translate(-157.758 -270.17)" fill="#40a0c0"/><path d="M325.11,307.09h5.415v81.186a2.169,2.169,0,0,1-2.169,2.169h-3.238V307.09Z" transform="translate(-159.438 -270.17)" opacity="0.2"/><path d="M110.32,307.09h10.822v81.186a2.169,2.169,0,0,1-2.169,2.169h-6.484a2.169,2.169,0,0,1-2.169-2.169V307.09Z" transform="translate(-108.693 -270.17)" fill="#40a0c0"/><path d="M117.4,307.09h5.415v81.186a2.169,2.169,0,0,1-2.169,2.169H117.4Z" transform="translate(-110.366 -270.17)" opacity="0.2"/><path d="M162,307.09h10.822v81.186a2.169,2.169,0,0,1-2.169,2.169h-6.484A2.169,2.169,0,0,1,162,388.276Z" transform="translate(-120.903 -270.17)" fill="#40a0c0"/><path d="M169.09,307.09H174.5v81.186a2.169,2.169,0,0,1-2.169,2.169H169.1V307.09Z" transform="translate(-122.578 -270.17)" opacity="0.2"/><rect width="152.787" height="18.765" transform="translate(9.745 50.804)" fill="#40a0c0"/><rect width="34.712" height="18.765" transform="translate(127.821 50.804)" opacity="0.2"/><path d="M266.34,307.09h10.822v81.186a2.169,2.169,0,0,1-2.169,2.169h-6.484a2.169,2.169,0,0,1-2.169-2.169V307.09Z" transform="translate(-145.553 -270.17)" fill="#40a0c0"/><path d="M273.42,307.09h5.415v81.186a2.169,2.169,0,0,1-2.169,2.169h-3.238V307.09Z" transform="translate(-147.226 -270.17)" opacity="0.2"/><path d="M138.094,284.262a8.255,8.255,0,0,0,.168-1.642H121.75a8.241,8.241,0,0,0,13.747,6.156,2.606,2.606,0,1,0,2.6-4.514Zm-1.321,4.04a1.817,1.817,0,0,1-.672-.13,8.24,8.24,0,0,0,1.78-3.055,1.787,1.787,0,0,1-1.107,3.2Z" transform="translate(-111.394 -264.389)" fill="#ee7a15"/><path d="M138.094,284.262a8.255,8.255,0,0,0,.168-1.642H121.75a8.241,8.241,0,0,0,13.747,6.156,2.606,2.606,0,1,0,2.6-4.514Zm-1.321,4.04a1.817,1.817,0,0,1-.672-.13,8.24,8.24,0,0,0,1.78-3.055,1.787,1.787,0,0,1-1.107,3.2Z" transform="translate(-111.394 -264.308)" fill="#fafafa" opacity="0.3"/><path d="M119.17,292.31c0,.947,4.582,1.718,10.227,1.718s10.219-.764,10.219-1.718Z" transform="translate(-110.784 -266.679)" fill="#ee7a15"/><path d="M119.17,292.31c0,.947,4.582,1.718,10.227,1.718s10.219-.764,10.219-1.718Z" transform="translate(-110.784 -266.673)" fill="#fafafa" opacity="0.6"/><path d="M191.034,258.75H149.12l5.43,25.822h41.922Z" transform="translate(-117.86 -258.75)" fill="#263238"/><path d="M190.022,258.75H148.1l5.43,25.822V286.1h41.922v-1.528Z" transform="translate(-117.619 -258.75)" fill="#40a0c0"/><path d="M190.022,258.75H148.1l5.43,25.822V286.1h41.922v-1.528Z" transform="translate(-117.619 -258.75)" fill="#fafafa" opacity="0.5"/><rect width="14.206" height="1.527" transform="translate(92.039 27.342) rotate(180)" fill="#263238"/><rect width="50.094" height="5.614" transform="translate(117.747 21.736)" fill="#ee7a15"/><rect width="33.926" height="5.614" transform="translate(117.747 21.736)" fill="#fafafa" opacity="0.8"/><rect width="16.169" height="5.614" transform="translate(167.833 27.342) rotate(180)" fill="#fafafa" opacity="0.5"/><rect width="14.725" height="0.344" transform="translate(168.666 23.432) rotate(180)" fill="#ee7a15" opacity="0.4"/><rect width="12.732" height="0.344" transform="translate(165.657 24.432) rotate(180)" fill="#ee7a15" opacity="0.4"/><path d="M0,0H12.732V.344H0Z" transform="translate(168.154 25.776) rotate(180)" fill="#ee7a15" opacity="0.4"/><rect width="27.449" height="0.344" transform="translate(116.494 25.769)" fill="#ee7a15" opacity="0.1"/><rect width="23.73" height="0.344" transform="translate(123.651 24.364)" fill="#ee7a15" opacity="0.1"/><rect width="23.73" height="0.344" transform="translate(117.548 22.538)" fill="#ee7a15" opacity="0.1"/></g></svg>