<svg xmlns="http://www.w3.org/2000/svg" width="897.025" height="809.017" viewBox="0 0 897.025 809.017"><g transform="translate(-47.27 -48.82)"><g transform="translate(59.482 48.82)"><path d="M129.061,332.051c0-4.248-.243-8.451-.288-12.61l.619.619c-10.044.111-20.11.354-30.155.376l-30.155.133,1.128-1.128v25.486l-1.018-1.018c4.956,0,9.911,0,14.911.133l14.867.155,30.42.642ZM99.5,345.546l-15.177.266c-5.066,0-10.155,0-15.243.133H68V318.29h1.15l30.155.155c10.044,0,20.11.243,30.155.376h.487v.62c0,4.314-.2,8.628-.288,12.876l-.332,12.61Z" transform="translate(-34.35 277.876)" fill="#ebebeb"/><path d="M113.873,346.5c-.111-4.248-.265-8.429-.31-12.61l.619.619c-10.044.133-20.088.376-30.155.376l-30.155.155,1.15-1.15-.133,25.486-1.018-1.018c4.978,0,9.934,0,14.911.133l14.978.266,30.42.619ZM84.228,360.089l-15.177.243c-5.066.111-10.155,0-15.243.133H52.79V332.81h1.15l30.155.133c10.066,0,20.11.265,30.155.376h.642v.6c0,4.425-.2,8.628-.288,12.876l-.332,12.611Z" transform="translate(-52.79 295.479)" fill="#ebebeb"/><path d="M144.308,346.541c0-4.248-.265-8.429-.31-12.61l.642.619c-10.066.133-20.11.376-30.155.376l-30.155.155,1.128-1.15-.133,25.486-1-1.018c4.956,0,9.911,0,14.889.133l15,.266,30.42.619Zm-29.579,13.518-15.155.243c-5.066.111-10.177,0-15.243.133H83.313v-1.04l-.133-25.486V332.78h1.15l30.155.133c10.044,0,20.088.266,30.155.376h.619v.6c0,4.425-.2,8.628-.31,12.876l-.31,12.61Z" transform="translate(-15.946 295.443)" fill="#ebebeb"/><path d="M465.061,346.492c-.111-4.248-.265-8.429-.31-12.61l.619.619c-10.044.133-20.088.376-30.155.376l-30.154.155,1.15-1.15-.133,25.486-1.018-1.018c4.978,0,9.933,0,14.911.133l15,.266,30.4.619ZM435.482,360.01l-15.155.243c-5.088.111-10.177,0-15.265.133H404V332.82h1.128l30.155.133c10.066,0,20.11.266,30.155.376h.509v.6c0,4.425-.2,8.628-.31,12.876l-.332,12.611Z" transform="translate(373.004 295.491)" fill="#ebebeb"/><path d="M465.061,62.492c-.111-4.248-.265-8.429-.31-12.61l.619.619c-10.044.111-20.088.354-30.155.376l-30.154.133,1.15-1.128-.133,25.486-1.018-1.018c4.978,0,9.933,0,14.911.133l15,.243,30.4.642ZM435.482,76.01l-15.155.243c-5.088.111-10.177,0-15.265.133H404V48.82h1.128l30.155.133c10.066,0,20.11.265,30.155.376h.509v.619c0,4.314-.2,8.628-.31,12.876l-.332,12.61Z" transform="translate(373.004 -48.82)" fill="#ebebeb"/><path d="M480.308,77.162c-.111-4.226-.266-8.429-.31-12.588l.62.619c-10.044,0-20.11.354-30.155.354l-30.155.155,1.128-1.128-.111,25.464-1.018-1H435.22l14.978.266,30.42.619ZM450.728,90.679l-15.177.265H419.291V89.9L419.18,64.44V63.29h1.15l30.155.155c10.044,0,20.11.243,30.155.354h.642v.619c0,4.314-.2,8.606-.288,12.876l-.266,12.743Z" transform="translate(391.408 -31.277)" fill="#ebebeb"/><path d="M113.873,62.579c-.111-4.248-.265-8.429-.31-12.61l.619.619c-10.044.133-20.088.376-30.155.376l-30.155.155,1.15-1.15-.133,25.486-1.018-1.018c4.978,0,9.934,0,14.911.133l14.978.243,30.42.642ZM84.228,76.1l-15.177.243c-5.066,0-10.155,0-15.243.133H52.79V48.84h1.15l30.155.133c10.066,0,20.11.265,30.155.376h.642v.619c0,4.425-.2,8.628-.288,12.876l-.332,12.61Z" transform="translate(-52.79 -48.796)" fill="#ebebeb"/><path d="M294.885,259.334c.111,4.226.265,8.429.31,12.611l-.619-.642c10.044-.111,20.11-.354,30.155-.354l30.155-.155-1.15,1.15.133-25.486,1.018,1H339.973L325,247.188l-30.42-.619Zm29.579-13.518,15.177-.266c5.066,0,10.155,0,15.243-.111h1.062v27.655H354.8l-30.155-.155c-10.044,0-20.11-.243-30.155-.354H294v-.6c0-4.425.2-8.628.288-12.9l.332-12.588Z" transform="translate(239.644 189.555)" fill="#ebebeb"/><path d="M310.107,244.8c.111,4.248.266,8.429.31,12.61l-.619-.619c10.044-.111,20.088-.354,30.155-.376l30.155-.133-1.15,1.128.133-25.486,1.018,1.018c-4.978,0-9.933,0-14.911-.133l-15-.243-30.4-.642Zm29.624-13.518,15.155-.243c5.066-.111,10.177,0,15.265-.133h1v1.018l.133,25.486v1.15h-1.128L340,258.432c-10.066,0-20.11-.265-30.155-.376H309.2v-.619c0-4.314.2-8.628.31-12.876l.332-12.61Z" transform="translate(258.072 171.939)" fill="#ebebeb"/><path d="M435.04,63.66,273.36,254.189l245.86,44.756Z" transform="translate(214.621 -30.829)" fill="#ebebeb"/><path d="M413.269,77.6,286.7,226.735l192.454,35.022Z" transform="translate(230.794 -13.928)" fill="#fff"/><path d="M341.968,98.59l19.513,3.562-14.4,71.592-16.858-3.053Z" transform="translate(283.556 11.519)" fill="#ebebeb"/><rect width="17.124" height="17.124" transform="translate(612.091 191.263) rotate(10.32)" fill="#ebebeb"/><path d="M176.793,260.58,115.51,410.269,275.774,388.5Z" transform="translate(23.249 207.91)" fill="#ebebeb"/><path d="M170.724,269.67,122.76,386.837,248.2,369.8Z" transform="translate(32.039 218.931)" fill="#fff"/><path d="M143.5,285.216l12.7-1.726,5.509,46.946-11,1.5Z" transform="translate(57.184 235.685)" fill="#ebebeb"/><rect width="11.084" height="11.084" transform="matrix(0.991, -0.135, 0.135, 0.991, 208.661, 573.513)" fill="#ebebeb"/></g><g transform="translate(114.968 794.033)"><ellipse cx="380.814" cy="31.902" rx="380.814" ry="31.902" fill="#ebebeb"/></g><g transform="translate(764.01 507.93)"><path d="M408.16,415.5s18.1-64.889,32.522-86.924,41.349-46.261,41.349-46.261S481.411,382.385,408.16,415.5Z" transform="translate(-326.48 -224.843)" fill="#40a0c0"/><path d="M408.751,399.987a309.723,309.723,0,0,0,16.482-31.438,217.444,217.444,0,0,1,8.982-34.115c0-.221.354-.111.31.111-2.389,10.243-5.177,20.4-7.721,30.619,7.3-15.774,14.226-31.77,22.92-46.7a100.844,100.844,0,0,1,8.385-20.774c.11-.177.42,0,.332.111a131.235,131.235,0,0,0-5.641,15.486,153.484,153.484,0,0,1,13.739-18.96c.31-.376.951,0,.619.42-11.615,14.845-19.646,31.725-27.278,48.8a261.21,261.21,0,0,0,22.7-28.362h.155a233.218,233.218,0,0,1-24.336,31.5c-5.575,12.522-11.062,25.088-17.7,36.991,13.274-11.195,23.451-25.708,33.539-39.69a.31.31,0,0,1,.509.332c-10.11,15.354-20.553,29.823-35.088,41.172a160.152,160.152,0,0,1-9.69,15.177.774.774,0,0,1-1.217-.686Z" transform="translate(-325.765 -210.476)" fill="#263238"/><path d="M416.735,452.864s32.5-59.844,23.053-117.853-19.535-78.672-19.535-78.672S369.169,346.56,416.735,452.864Z" transform="translate(-340.652 -256.34)" fill="#40a0c0"/><path d="M399.746,343.2a282.658,282.658,0,0,0,12.544,48.3c0-21.283.509-42.566,1.062-63.849a164.686,164.686,0,0,1-6.084-39.668c0-.4.575-.354.6,0a227.354,227.354,0,0,0,5.708,34.115q.73-26.349,1.7-52.676a.233.233,0,0,1,.465,0c0,27.433,0,54.867-.177,82.322a221.807,221.807,0,0,0,9.4-32.588h.2a127.654,127.654,0,0,1-9.6,37.079c-.133,17.544-.31,35.088-.708,52.61,5.509-18.65,11.372-36.7,12.964-56.393a.221.221,0,0,1,.42,0c-.443,21.725-6.04,43.783-13.274,64.159a1.481,1.481,0,0,1-.354.509c-.177,6.394-.354,12.81-.575,19.225a.708.708,0,0,1-1.416,0q-.4-19.679-.332-39.336a176.637,176.637,0,0,1-12.81-53.871C399.459,343.068,399.724,343.024,399.746,343.2Z" transform="translate(-337.004 -240.746)" fill="#263238"/><path d="M401.022,298.6a112.545,112.545,0,0,1,2.212,15.818c0,.177-.266.2-.31,0a110.978,110.978,0,0,1-2.655-15.752C400.248,298.293,400.934,298.2,401.022,298.6Z" transform="translate(-336.045 -205.418)" fill="#263238"/><path d="M410.175,278.75c0-.177.288-.111.31,0a40.439,40.439,0,0,1-1.637,10.907.231.231,0,0,1-.443-.133C409.113,286.073,409.556,282.356,410.175,278.75Z" transform="translate(-326.194 -229.304)" fill="#263238"/><path d="M435.465,424.164s1.327-62.477-16.593-93.517S371.24,283.79,371.24,283.79,383.231,393.877,435.465,424.164Z" transform="translate(-371.24 -223.061)" fill="#40a0c0"/><path d="M393.316,358.437a232.872,232.872,0,0,0,24.336,30.73c-3.562-12.765-7.721-25.309-12.389-37.61-10.044-8.849-20.022-17.942-26.172-30a.163.163,0,1,1,.288-.155c6.637,10.664,15.486,19.2,24.823,27.411A486.312,486.312,0,0,0,379.246,294.5a.4.4,0,0,1,.686-.4,296.981,296.981,0,0,1,15.641,28.517c-1.681-6.637-3.031-13.518-4.734-20.133,0-.2.2-.265.288,0a113.911,113.911,0,0,1,7.345,26.548,318.151,318.151,0,0,1,15.686,42.477c-.465-9.38-1.04-18.694-2.013-28.031a.155.155,0,0,1,.31,0,151.671,151.671,0,0,1,2.721,31.46q3.871,13.96,6.5,28.23a.2.2,0,0,1-.4,0c-.973-3.96-2.035-7.92-3.119-11.858h-.2a127.212,127.212,0,0,1-24.734-32.876S393.294,358.371,393.316,358.437Z" transform="translate(-361.746 -210.762)" fill="#263238"/><path d="M376.288,300.15c1.991,2.212,3.827,4.425,5.752,6.637a51.286,51.286,0,0,1,5.155,6.04s0,.177-.133.133a30.6,30.6,0,0,1-5.951-5.885A48.318,48.318,0,0,1,376,300.438C376,300.194,376.155,300,376.288,300.15Z" transform="translate(-365.469 -203.293)" fill="#263238"/><path d="M466.785,343.79,464.573,363.7l-6.814,60.53h-59.4l-6.814-60.53L389.33,343.79h77.433Z" transform="translate(-349.308 -150.319)" fill="#455a64"/><path d="M466.773,343.79,464.56,363.7H391.552L389.34,343.79Z" transform="translate(-349.296 -150.319)" fill="#37474f"/><rect width="88.03" height="22.677" transform="translate(122.72 201.635) rotate(180)" fill="#455a64"/></g><g transform="translate(47.27 780.692)"><path d="M944.3,380.736l-112.123.531-112.145.2-224.245.376-224.245-.376-112.145-.2L47.27,380.736l112.123-.553,112.145-.177,224.245-.376,224.245.376,112.145.2Z" transform="translate(-47.27 -379.63)" fill="#263238"/></g><g transform="translate(258.078 180.832)"><path d="M450.346,187.073c0,77.167-58.959,139.711-131.7,139.711-58.539,0-108.118-40.508-125.264-96.525,27.455,24.336,81.039,60.862,142.167,46.3,67.521-16.084,98.8-64.778,112.123-117.654A149.176,149.176,0,0,1,450.346,187.073Z" transform="translate(-80.94 -47.363)" opacity="0.1"/><path d="M305.6,135.1a41.742,41.742,0,0,0-6.637-5.354l5.951-.8c.465,0,.31-.752,0-.774a42.322,42.322,0,0,0-8.208.155,44.822,44.822,0,0,0-12.19-4.779,102.212,102.212,0,0,1,12.057-3.053c.42,0,.332-.774-.111-.752a48.673,48.673,0,0,0-14.248,3.274,51.088,51.088,0,0,0-9-.863c-.243,0-.221.354,0,.376a54.322,54.322,0,0,1,7.279,1.173,64.157,64.157,0,0,0-7.788,3.938,33.69,33.69,0,0,0-6.15.133c-.221,0-.221.354,0,.332a32.059,32.059,0,0,1,5.066.177,70.8,70.8,0,0,0-7.832,5.619c-.177.133,0,.376.221.243a59.6,59.6,0,0,1,8.849-5.73,48.672,48.672,0,0,1,10.752,2.81c-2.92.929-5.818,1.969-8.65,3.075-.2,0-.111.376,0,.288a70.356,70.356,0,0,1,10.2-2.765c3.119,1.217,6.217,2.588,9.38,3.894.465.2.774-.575.332-.8a71.025,71.025,0,0,0-7.257-3.562c2.942-.509,5.885-.907,8.849-1.283a72.68,72.68,0,0,1,8.407,5.664C305.4,136.1,306.024,135.524,305.6,135.1Zm-19.911-4.425a45.375,45.375,0,0,0-11.5-2.832,68.765,68.765,0,0,1,8.451-3.518,56.815,56.815,0,0,1,11.416,4.425,71.511,71.511,0,0,0-8.363,1.814Z" transform="translate(4.335 -94.839)" opacity="0.1"/><path d="M215.053,171.582c.442-.2.111-.774-.31-.708a19.911,19.911,0,0,0-5.332,1.748,57.642,57.642,0,0,1,2.212-5.929.487.487,0,0,0-.819-.487,28.761,28.761,0,0,0-3.186,7.367,29.182,29.182,0,0,0-6.814,5.553,51.6,51.6,0,0,1,1.615-11.239.442.442,0,0,0-.841-.243,30.111,30.111,0,0,0-2.035,12.987,32.809,32.809,0,0,0-4.425,6.991c0,.2.177.376.288.177a30.709,30.709,0,0,1,4.27-5.885,39.312,39.312,0,0,0,1,5.73c-.841.774-1.659,1.549-2.389,2.323-.221.2.111.531.332.332.73-.686,1.5-1.283,2.212-1.9a38.387,38.387,0,0,0,1.991,5.531c0,.2.42,0,.354-.155a38.47,38.47,0,0,1-1.7-5.907,42.813,42.813,0,0,1,4.845-3.341l.31-.133a42.024,42.024,0,0,0,.752,5.642c0,.221.4.111.354,0a33.608,33.608,0,0,1-.265-5.951c2.212-1.128,4.425-2.057,6.637-3.252.42-.243.111-.8-.31-.73a20.685,20.685,0,0,0-6.327,2.478,41.678,41.678,0,0,1,1.283-7.721A58.47,58.47,0,0,1,215.053,171.582Zm-13.739,15.487a37.231,37.231,0,0,1-.6-6.239,35.618,35.618,0,0,1,6.349-4.978,31.928,31.928,0,0,0-.531,7.279,36.678,36.678,0,0,0-5.221,3.894Z" transform="translate(-78.83 -38.707)" opacity="0.1"/><path d="M253.984,150.548c-23.1,15.73-34.535,36.216-33.185,59.07s-15.73,41.061-17.7,65.973,12.7,42.566,12.7,53.937-11.239,31.438-11.239,31.438,24.513,32.013,91.946,30.973,99.2-23.916,99.2-23.916-9.757-21.261-10.752-27.632,13.805-29.69,14.225-49.668S381.66,243.8,381.615,233.888s2.08-66.26-40.752-86.99a90.486,90.486,0,0,0-86.879,3.65Z" transform="translate(-69.377 -73.292)" fill="#263238"/><path d="M231,176.045c.442-1-.73-2.212-1.5-1.239a151.15,151.15,0,0,0-26.858,51.747c-5.2,17.9-.376,35.022,8.141,50.663.243.442.863,0,.642-.4-9.2-18.318-11.062-36.194-3.319-55.53C214.452,205.314,223.855,191.4,231,176.045Z" transform="translate(-72.322 -28.524)" fill="#263238"/><path d="M306.549,236.015c-3.053-18.65-14.557-37.1-23.031-53.318a.841.841,0,0,0-1.5.686c5.243,15.619,14.115,29.712,18.916,45.464a71.349,71.349,0,0,1-4.314,51.88c-.243.509.42.929.708.443a66.371,66.371,0,0,0,9.226-45.154Z" transform="translate(26.486 -18.959)" fill="#263238"/><path d="M303.2,223.912c-8.672-15.044-17.367-31.3-20.663-48.893,0-.4-.619-.2-.553.2a138.162,138.162,0,0,0,13.761,40.862c7.655,14.579,19.093,28.119,20.376,45.53a.31.31,0,1,0,.6,0C317.646,246.943,310.08,235.859,303.2,223.912Z" transform="translate(26.473 -28.096)" fill="#263238"/><path d="M291.266,262.965c-74.291,86.459-163.029,263.67-141.923,296.921,23.5,37.013,130.729-86.127,126.879-91.57-3.274-4.6,30.486-110.286,54.977-187.564S309.651,241.593,291.266,262.965Z" transform="translate(-138.162 44.266)" fill="#eb9481"/><path d="M291.266,262.965c-74.291,86.459-163.029,263.67-141.923,296.921,23.5,37.013,130.729-86.127,126.879-91.57-3.274-4.6,30.486-110.286,54.977-187.564S309.651,241.593,291.266,262.965Z" transform="translate(-138.162 44.266)" fill="#455a64"/><path d="M182.635,553.451l12.92-82.632s-30.486-53.229-12.787-91.437c8.849-19.336,70.154-113.893,103.118-137.83,30.973-22.455,78.163-.376,92.565,19.159,41.438,56.172,62.9,109.468,86.039,292.806Z" transform="translate(-100.504 41.365)" fill="#455a64"/><path d="M351.588,236.62a51.432,51.432,0,0,0-3.65,6.637,42.035,42.035,0,0,0-3.385,11.261,41.68,41.68,0,0,0,6.172-10,55.83,55.83,0,0,0,2.544-7.057ZM308.779,389.1a40.908,40.908,0,0,0-3.407,11.239,41,41,0,0,0,6.172-10,41.793,41.793,0,0,0,3.385-11.261,41.284,41.284,0,0,0-6.15,10.022Zm-37.19,154.622c-.6,1.394-1.173,2.81-1.681,4.248h2.987c.531-1,1.018-1.991,1.482-3.009a41.549,41.549,0,0,0,3.385-11.261A42.236,42.236,0,0,0,271.589,543.718Zm156.348-179.4v.2a.643.643,0,0,0,0-.2Zm-75.22,158.936a41.791,41.791,0,0,0-3.385,11.261,45.153,45.153,0,0,0,9.558-21.261,41.678,41.678,0,0,0-6.173,10ZM194.156,449.6a41.635,41.635,0,0,0-3.385,11.239,45.155,45.155,0,0,0,9.557-21.261,42.231,42.231,0,0,0-6.173,10.022ZM246.213,335a40.818,40.818,0,0,0-3.407,11.261,40.446,40.446,0,0,0,6.172-10.022A40.861,40.861,0,0,0,252.364,325a41.592,41.592,0,0,0-6.15,10Zm140.463-42.765a41.637,41.637,0,0,0-11.239-3.385,40.993,40.993,0,0,0,10,6.172,41.8,41.8,0,0,0,11.261,3.385,42.236,42.236,0,0,0-10.044-6.172Zm32.942,128.317a40.109,40.109,0,0,0-11.239-3.385,40.9,40.9,0,0,0,10,6.15,41.814,41.814,0,0,0,11.261,3.407,41.53,41.53,0,0,0-10.044-6.084ZM237.784,284.761l-1,1.327a30.824,30.824,0,0,0,3.518.664q-1.239-.973-2.544-1.9ZM271.3,444.051a40.774,40.774,0,0,0-11.261-3.385,41.44,41.44,0,0,0,10.022,6.15,40.817,40.817,0,0,0,11.261,3.407,42.236,42.236,0,0,0-10.044-6.172Zm38.23-132.167a41.215,41.215,0,0,0-5.575-10.354,45.553,45.553,0,0,0,8.274,21.792,40.955,40.955,0,0,0-2.721-11.438Zm52.3,132.543a40.446,40.446,0,0,0-5.553-10.354,45.552,45.552,0,0,0,8.274,21.792,40.4,40.4,0,0,0-2.743-11.438ZM188.095,357.946c-.509.885-1.04,1.77-1.549,2.611a29.552,29.552,0,0,0,2.81,4.425,32.633,32.633,0,0,0-1.283-7.035Zm34.867,141.768a41.216,41.216,0,0,0-5.575-10.354,42.037,42.037,0,0,0,2.721,11.438,41.216,41.216,0,0,0,5.575,10.354,41.151,41.151,0,0,0-2.743-11.438ZM280,257.372a41.857,41.857,0,0,0-10.354,5.553A41.349,41.349,0,0,0,281.08,260.2a40.446,40.446,0,0,0,10.354-5.553A40.97,40.97,0,0,0,280,257.372ZM410.99,488.033a41.856,41.856,0,0,0-10.354,5.553,41.151,41.151,0,0,0,11.5-2.81,40.442,40.442,0,0,0,10.354-5.553,41.147,41.147,0,0,0-11.5,2.721ZM230.306,396.751a41.856,41.856,0,0,0-10.354,5.553,42.032,42.032,0,0,0,11.438-2.7,41.217,41.217,0,0,0,10.354-5.575A41.149,41.149,0,0,0,230.306,396.751Zm73.008,93.76a41.859,41.859,0,0,0-10.354,5.553,45.553,45.553,0,0,0,21.792-8.274,41.151,41.151,0,0,0-11.349,2.655Zm-122.631,47.1-.553,3.429h.2a41.857,41.857,0,0,0,10.354-5.553,38.586,38.586,0,0,0-9.911,2.058Zm188.6-182.122a41.216,41.216,0,0,0-10.354,5.575,45.554,45.554,0,0,0,21.792-8.274,41.127,41.127,0,0,0-11.349,2.633Z" transform="translate(-97.004 46.85)" fill="#37474f"/><path d="M232.741,263.248q-9.358,12.832-18.3,26.106c1.637-3.429,3.274-6.836,4.867-10.265a.221.221,0,0,0-.376-.2c-2.212,4.292-4.248,8.65-6.239,13.031q-11.969,17.7-23.208,35.929a94.224,94.224,0,0,0-8.23,16.084,71.874,71.874,0,0,0-4.049,17.1,91.124,91.124,0,0,0-.265,17.544,122.344,122.344,0,0,0,2.544,17.9,114.533,114.533,0,0,0,6.305,19.557c1.327,3.075,2.721,6.128,4.248,9.137s4.226,8.3,4.181,8.518c-.575,3.075-1.15,5.243-1.527,7.832l-1.195,7.942q-1.195,7.92-2.345,15.885c-1.549,10.509-2.876,21.017-4.181,31.548-.752,6.062-1.15,12.168-1.991,18.186,0,.243.332.354.376,0,.863-5.243,2.212-10.442,3.119-15.664s1.925-10.509,2.92-15.752c1.991-10.6,3.54-21.283,5.2-31.924.465-2.965.929-5.907,1.372-8.849a56.633,56.633,0,0,0,1.128-9.823s-9.425-19.4-13.1-32.986a116.042,116.042,0,0,1-3.761-17.522,91.793,91.793,0,0,1-.2-17.433,76.037,76.037,0,0,1,3.341-17.079,88.5,88.5,0,0,1,7.323-16.217c6.15-10.951,12.7-21.681,19.336-32.345,7.544-12.1,15.155-24.137,22.942-36.062C233.205,263.226,232.9,263.049,232.741,263.248Z" transform="translate(-101.23 79.027)" fill="#263238"/><path d="M271.211,335.3a263.078,263.078,0,0,0-39.247,4.823c-6.416,1.35-12.721,3.009-19.048,4.8-3.142.907-6.283,1.681-9.469,2.456a41.241,41.241,0,0,1-10.133,1.482.243.243,0,0,0,0,.487,70.792,70.792,0,0,0,9.69.2,69.668,69.668,0,0,0,9.292-1.35c6.5-1.327,12.964-2.965,19.491-4.425,13.119-2.81,26.239-5.619,39.557-7.478C271.941,336.3,271.83,335.257,271.211,335.3Z" transform="translate(-81.316 166.486)" fill="#263238"/><path d="M278.665,342.782a285.89,285.89,0,0,0-32.522-2.9c-5.442-.155-10.863,0-16.305.288-2.588.155-5.177.354-7.765.575s-5.686.863-8.54,1.062c-.288,0-.31.487,0,.487,2.7-.111,5.42.221,8.119.266l8.141.111c5.42,0,10.841.243,16.283.288,10.863,0,21.7.266,32.566.708C279.218,343.689,279.218,342.848,278.665,342.782Z" transform="translate(-56.779 171.969)" fill="#263238"/><path d="M149.594,440.908c22.5,21.969,71.614,17.7,196.281,18.407,17.256.111,50.729-121.437,32.323-122.5-23.208-1.327-113.516-1.482-120.109-.642C202.359,343.055,134.328,426.019,149.594,440.908Z" transform="translate(-136.666 166.917)" fill="#eb9481"/><path d="M252.248,344.907s48.23-14.248,75.862-13.894c37.035.487,68.8,16.128,81.725,23.5,26.969,15.376,81.548,71.194,68.229,89.711-12.08,16.77-64.977-43.1-64.977-43.1s64,52.145,45.752,69.667S383.153,415.3,383.153,415.3s64.557,55.044,42.9,70.132c-16.394,11.416-72.145-51.769-72.145-51.769s55.154,47.765,38.827,60.154c-18.053,13.761-73.185-41.327-73.185-41.327-46.858,24.646-79.822,15.243-102.233,7.212C211.894,457.76,252.248,344.907,252.248,344.907Z" transform="translate(-52.53 161.282)" fill="#eb9481"/><path d="M296.145,353.931c7.743,5.841,15.619,11.725,22.809,18.252s14.181,13.274,20.73,20.442c16.084,17.566,23.385,31.084,22.854,30.309-12.854-18.584-38.23-42.323-45.442-48.849S303.07,360.812,295.9,354.175C295.791,354.13,296.145,353.776,296.145,353.931Z" transform="translate(43.328 189.027)" fill="#263238"/><path d="M285.35,365.483c9.557,7.9,19.336,15.487,28.539,23.717s17.146,16.947,25.73,25.84c.664.686,0,.819-.619.155-8.849-8.54-17.832-15.752-26.858-24.2s-17.7-17.234-27.013-25.31C284.93,365.571,285.2,365.35,285.35,365.483Z" transform="translate(30.207 203.029)" fill="#263238"/><path d="M274.361,373.724c15.221,11.327,28.34,25.464,40.885,39.623.619.708-.155.774-.841,0-13.274-13.429-23.717-24.07-40.442-39.2C273.7,374.033,274.029,373.48,274.361,373.724Z" transform="translate(16.639 212.995)" fill="#263238"/><path d="M394.939,330.8,308.923,469.537s-138.848,9.181-159.6-24.889S226.048,343.5,259.056,341.884,394.939,330.8,394.939,330.8Z" transform="translate(-137.833 161.031)" fill="#455a64"/><path d="M215.874,400.451a41.209,41.209,0,0,0-10.354,5.575,45.553,45.553,0,0,0,21.792-8.274,41.129,41.129,0,0,0-11.438,2.7Zm124.069-47.61a41.859,41.859,0,0,0-10.354,5.553,45.553,45.553,0,0,0,21.792-8.274A41.146,41.146,0,0,0,339.944,352.841Zm-80.464,9.27a41.217,41.217,0,0,0-5.575-10.354,42.035,42.035,0,0,0,2.721,11.438,41.214,41.214,0,0,0,5.575,10.354,41.15,41.15,0,0,0-2.721-11.438Zm-77.189-4.248c-.221-.575-.465-1.128-.708-1.681-.819.642-1.615,1.305-2.411,1.969l.265.774a41.351,41.351,0,0,0,5.575,10.376,40.972,40.972,0,0,0-2.721-11.438Zm76.3,82.543A41.283,41.283,0,0,0,247.334,437a41,41,0,0,0,10,6.172,42.033,42.033,0,0,0,11.261,3.385,40.908,40.908,0,0,0-10-6.151Zm-97.344-21.416a40.82,40.82,0,0,0-11.261-3.407,40.442,40.442,0,0,0,10.022,6.173,40.86,40.86,0,0,0,11.239,3.385,41.59,41.59,0,0,0-9.889-6.15Zm146.768-12.876a41.546,41.546,0,0,0-3.385,11.261,45.375,45.375,0,0,0,9.557-21.283,42.233,42.233,0,0,0-6.062,10.022Z" transform="translate(-133.544 184.454)" fill="#37474f"/><path d="M174.383,358.73c7.168-6.482,27.876-22.367,50.884-22.92a.2.2,0,1,1,0,.4c-18.473,3.1-43.207,17.1-50.663,22.81a.2.2,0,0,1-.221-.288Z" transform="translate(-104 167.105)" fill="#263238"/><path d="M209.46,446.911c33.871-47.3,62.278-102.167,67.9-111.37.266-.443-.465-.819-.708-.354-5.044,9.314-44.247,68.473-67.964,111.326C208.4,447,209.128,447.354,209.46,446.911Z" transform="translate(-62.463 166.091)" fill="#263238"/><path d="M291.256,283.885c-1.77,5.155-36.792,42.964-60.021,35.531-16.327-5.243,2.212-41.172,2.212-41.172l-5.708-48.672,63.539-31.681S291.964,281.716,291.256,283.885Z" transform="translate(-43.198 -0.105)" fill="#eb9481"/><path d="M289.605,229.193a93.229,93.229,0,0,1-58.3,46.349L226,229.591l63.561-31.681S289.539,212.047,289.605,229.193Z" transform="translate(-41.393 -0.08)" fill="#263238"/><path d="M210.473,212.5c-27.632,75.22,14.358,100.331,30.6,106.193,14.734,5.4,65.641,21.88,100.884-50.154s8.96-108.693-24.115-122.786S238.083,137.211,210.473,212.5Z" transform="translate(-71.352 -70.752)" fill="#eb9481"/><path d="M217.43,168.493a50.508,50.508,0,0,1,5.487-.841,8.982,8.982,0,0,1,5.752.221,2.854,2.854,0,0,1,1.217,3.252,7.079,7.079,0,0,1-5.951,4,10.31,10.31,0,0,1-7.411-1.15,3.053,3.053,0,0,1,.907-5.487Z" transform="translate(-54.526 -37.211)" fill="#263238"/><path d="M247.472,177.1a48.861,48.861,0,0,1-4.867-2.611,8.96,8.96,0,0,1-4.425-3.628,2.832,2.832,0,0,1,.973-3.341,7.079,7.079,0,0,1,7.168.376,10.442,10.442,0,0,1,5.221,5.354,3.053,3.053,0,0,1-4.071,3.849Z" transform="translate(-26.869 -37.895)" fill="#263238"/><path d="M236.043,178.759c0-.177.332.376.243.6-1.814,5.155-3.031,11.349,1.106,14.579.133.111,0,.354-.133.288C231.773,191.568,233.477,183.361,236.043,178.759Z" transform="translate(-32.144 -23.34)" fill="#263238"/><path d="M242.078,177.072c8.584,2.035,3.872,19.026-4.071,17.146S234.888,175.28,242.078,177.072Z" transform="translate(-31.807 -25.503)" fill="#263238"/><path d="M239.693,177.885c1.217,1.372,2.212,3.473,3.938,4.137s4.071-.575,5.885-1.9c.2-.133.31,0,.243.265-.841,3.274-3.031,6.283-6.637,5.8-3.3-.442-4.779-3.96-4.69-7.456C238.432,178.084,239.206,177.332,239.693,177.885Z" transform="translate(-26.325 -24.591)" fill="#263238"/><path d="M225.533,174.788c0-.221-.487.133-.531.354-1.261,5.31-3.584,11.195-8.849,11.659a.157.157,0,0,0,0,.31C222.193,187.863,225.2,180.01,225.533,174.788Z" transform="translate(-53.492 -28.197)" fill="#263238"/><path d="M224.12,171.866c-8.318-2.92-13.54,13.938-5.841,16.637S231.067,174.321,224.12,171.866Z" transform="translate(-55.309 -32.066)" fill="#263238"/><path d="M222.224,173.676c-1.593.487-3.429,1.7-5.044,1.305s-2.677-2.7-3.319-4.8c0-.221-.243-.111-.31,0-1.084,3.208-1.062,6.88,1.836,8.473s5.575-.686,7.345-3.65C223.042,174.538,222.888,173.476,222.224,173.676Z" transform="translate(-57.284 -33.854)" fill="#263238"/><path d="M233.34,197.876c-1.571.951-3.23,2.367-5.2,2.1a14.271,14.271,0,0,1-5.42-2.655.2.2,0,0,0-.288.221,7.323,7.323,0,0,0,6.084,4.425,5.818,5.818,0,0,0,5.265-3.761C233.937,197.942,233.561,197.721,233.34,197.876Z" transform="translate(-45.724 -0.821)" fill="#263238"/><path d="M224.925,213.786s-3.761,8.274-4.823,11.991a140.49,140.49,0,0,0,21.438,5.332c.442,0,.819-1.637.42-1.748-10.332-3.208-12.323-3.872-18.141-5.442,0-1.106,6.172-12.7,5.6-12.92a33.187,33.187,0,0,0-8.849-.509c6.526-15.885,15.487-30.575,21.792-46.46.221-.575-.575-1-.885-.531-10.531,14.756-18.451,32.854-25.6,49.07C214.859,214.56,223.266,213.985,224.925,213.786Z" transform="translate(-53.769 -42.04)" fill="#263238"/><path d="M329.305,266.648c-18.894-5.221-10.442-65.066-9.336-72.411-.929,4.58-6.018,28.761-8.1,29.38a18.962,18.962,0,0,1-5.708-2.566h0a59.293,59.293,0,0,0,1.372-8.85c.155-1.372-1.195,2.788-3.164,7.81-1.018-.553-2.212-1.195-3.3-1.814a70.8,70.8,0,0,0,2.566-18.761c0-2.411-3.075,7.7-7.389,16.128-12.3-6.637-30.155-15.885-47.765-20.708-4.69-1.305-8.849-2.212-12.478-2.92,1.659-7.124,4.292-14.513,3.385-13.009a72.031,72.031,0,0,0-6.128,12.522c-1.991-.354-3.85-.664-5.509-.885,1.9-10.177,10.509-25.066,8.318-22.986a73.009,73.009,0,0,0-15.619,22.411,28.761,28.761,0,0,1-9.137-1.239c.42-3.3,6.482-22.9,31.172-41.526,30.287-22.854,84.711-15.354,103.229,25.575,0,0,18.606,19.646,16.549,43.65S340.212,269.657,329.305,266.648Z" transform="translate(-59.19 -76.982)" fill="#263238"/><path d="M264.419,203.193s23.451-19.579,32.765-10.575-12.876,40.575-27.035,41.858a13.562,13.562,0,0,1-15.619-11.792Z" transform="translate(-6.804 -9.367)" fill="#eb9481"/><path d="M286.776,195.468c.2,0,.155.332,0,.354-10,1.217-17.035,8.3-22.7,16.062,3.584-2.611,7.721-3.451,11.327.951.2.243-.133.553-.354.42a8.363,8.363,0,0,0-9.624.4,42.039,42.039,0,0,0-6.195,6.018c-.642.708-1.991-.133-1.416-.973a.532.532,0,0,1,.133-.177C260.781,206.95,274.1,193.278,286.776,195.468Z" transform="translate(-2.989 -3.324)" fill="#263238"/><path d="M226,149.359a85.486,85.486,0,0,1,65,2.721c26.062,11.925,54.159,32.057,63.384,81.459,0,0,11.726-55.044-27.787-82.742C276.884,116.019,236.509,138.165,226,149.359Z" transform="translate(-41.393 -79.935)" fill="#ee7a15"/><path d="M198.79,224.534s10.619-19.911,25.177-10.31.487,27.19.487,27.19Z" transform="translate(-74.381 16.526)" fill="#ff9cbd"/><rect width="30.708" height="158.317" transform="matrix(0.835, 0.55, -0.55, 0.835, 124.9, 240.317)" fill="#40a0c0"/><rect width="35.862" height="6.283" transform="matrix(0.835, 0.55, -0.55, 0.835, 123.24, 238.188)" fill="#37474f"/><rect width="35.862" height="6.283" transform="matrix(0.835, 0.55, -0.55, 0.835, 119.389, 243.998)" fill="#37474f"/><path d="M186.105,294.714l-20.4,9.889-6.637,3.3.332-7.5,1.084-22.677,4.757-1.593s.354,4.889.376,4.978l4.779-1.593s.354,4.867.376,4.956l4.69-1.615s.42,4.911.442,5l4.712-1.615.42,5.089,4.712-1.615S186.083,294.625,186.105,294.714Z" transform="translate(-122.536 94.751)" fill="#ebebeb"/><path d="M165.743,291.344l-6.7,3.3.332-7.5Z" transform="translate(-122.572 108.099)" fill="#37474f"/><g transform="translate(49.056 260.285)" opacity="0.1"><path d="M164.73,332.577c5.553-9.049,11.239-18.009,16.969-26.947l17.323-26.7,17.7-26.548c5.951-8.849,11.925-17.566,18.031-26.239-5.531,9.049-11.239,18.009-16.947,26.947l-17.345,26.7-17.7,26.548C176.81,315.121,170.858,323.9,164.73,332.577Z" transform="translate(-164.73 -226.14)"/><path d="M168.21,334.9c5.553-9.071,11.239-18.009,16.969-26.947l17.323-26.7L220.2,254.7c5.951-8.849,11.925-17.566,18.031-26.239-5.531,9.049-11.239,17.987-16.947,26.924l-17.345,26.7-17.7,26.548C180.289,317.441,174.382,326.2,168.21,334.9Z" transform="translate(-160.511 -223.327)"/><path d="M171.69,337.195c5.553-9.049,11.261-18.009,16.969-26.947L206,283.567l17.7-26.548c5.929-8.849,11.9-17.566,18.009-26.239-5.531,9.071-11.239,18.009-16.947,26.947l-17.345,26.7-17.7,26.548C183.77,319.761,177.818,328.611,171.69,337.195Z" transform="translate(-156.292 -220.515)"/></g><path d="M382.539,287.152c26.15,63.119,65.862,195.285,36.128,236.9-28.65,40.11-192.122-50.044-225.285-68.583-13.606-7.566,22.655-124.224,38.075-117.985,33.893,13.739,102.986,61.061,104.822,60.2s-.664-54.247-1.062-106.9C334.641,214.254,363.756,241.776,382.539,287.152Z" transform="translate(-84.57 54.371)" fill="#eb9481"/><path d="M192.741,254.12c-11.283,9.469-1.305,20.973-1.305,20.973a27.566,27.566,0,0,0-17.7,5.841c-8.584,7.411-.73,24.115-.73,24.115a33.938,33.938,0,0,0-17.7,9.159c-7.5,7.9-1.991,25.885-1.991,25.885a29.867,29.867,0,0,0-10.553,17.9c-2.588,18.938,19.69,37.787,33.938,49.668,21.172,17.7,65.464,32.92,74.844,37.876l77.831-90s-48.672-70.8-66.614-83.76C244.488,258.611,203.847,244.806,192.741,254.12Z" transform="translate(-142.556 64.372)" fill="#eb9481"/><path d="M165.842,261.531c19.2,6.637,35.4,18.429,52.3,29.358a.359.359,0,0,1-.4.6c-16.637-11.062-35.4-18.695-52.322-29.093a.487.487,0,0,1,.42-.863Z" transform="translate(-115.082 77.027)" fill="#263238"/><path d="M157.386,275.072a53.431,53.431,0,0,1,11.748,7.3q5.973,4.314,11.77,8.849,11.681,9.026,22.854,18.584c.332.288,0,.863-.376.6-7.765-5.973-15.487-11.836-23.606-17.478q-6.018-4.226-12.057-8.363a63.65,63.65,0,0,1-11.062-8.318.708.708,0,0,1,.73-1.173Z" transform="translate(-125.719 93.42)" fill="#263238"/><path d="M147.693,291.423c3.783,1.261,7.146,4.668,10.221,7.146q5.2,4.226,10.487,8.385c7.035,5.531,14.049,11.062,21.261,16.349.376.266,0,.841-.376.575-7.367-5.332-14.779-10.575-22.124-15.973-3.584-2.655-7.168-5.332-10.708-8.009-3.031-2.212-7.08-4.823-9.093-8.119C147.272,291.6,147.494,291.379,147.693,291.423Z" transform="translate(-136.756 113.285)" fill="#263238"/><path d="M261.676,355.093,199,475.777s140.662,67.013,190.263,60.375,26.548-101.26,23.54-122.587c-2.212-15.243-28.141-107.41-48.406-144.888s-38.163-38.119-40.951,12.92,1.372,113.052-.686,112.123S261.676,355.093,261.676,355.093Z" transform="translate(-74.126 53.111)" fill="#455a64"/><path d="M325.6,326.788a41.215,41.215,0,0,0-10.354,5.575,45.552,45.552,0,0,0,21.792-8.274,41.129,41.129,0,0,0-11.438,2.7ZM259.624,461.742a41.857,41.857,0,0,0-10.354,5.553,45.553,45.553,0,0,0,21.792-8.274,41.148,41.148,0,0,0-11.438,2.788Zm107.587-2.5a41.856,41.856,0,0,0-10.354,5.553,41.144,41.144,0,0,0,11.5-2.655,40.435,40.435,0,0,0,10.354-5.553,41.151,41.151,0,0,0-11.5,2.721Zm-49.181-43.517a40.441,40.441,0,0,0-5.553-10.354,45.552,45.552,0,0,0,8.274,21.792,40.4,40.4,0,0,0-2.721-11.372Zm-90.53-.376a40.777,40.777,0,0,0-11.261-3.385,41.437,41.437,0,0,0,10.022,6.15,40.819,40.819,0,0,0,11.261,3.407,42.232,42.232,0,0,0-10.022-6.106Zm148.228-23.407a40.1,40.1,0,0,0-11.239-3.385,40.9,40.9,0,0,0,10,6.15,41.809,41.809,0,0,0,11.261,3.407,41.524,41.524,0,0,0-9.934-6.106ZM342.787,263.625a41.632,41.632,0,0,0-11.239-3.385,41,41,0,0,0,10,6.172,41.792,41.792,0,0,0,11.261,3.385,42.234,42.234,0,0,0-9.933-6.195ZM308.938,494.618a46.325,46.325,0,0,0-3.053,9.2l1.062.31a45.43,45.43,0,0,0,4.779-8.252,42.037,42.037,0,0,0,3.385-11.261,41.678,41.678,0,0,0-6.173,10ZM270.222,351.566A43.386,43.386,0,0,0,265,360.416a40.9,40.9,0,0,0-3.407,11.239,41,41,0,0,0,6.172-10,45.127,45.127,0,0,0,3.142-9.69h0Z" transform="translate(-53.225 75.486)" fill="#37474f"/><path d="M255.751,309.807a139.784,139.784,0,0,1,16.15,21.371A249.528,249.528,0,0,1,284.512,353.7c0,.177-.354.266-.465,0-4.425-7.389-9.757-14.6-14.646-21.88s-10.575-14.314-14.978-21.7C254.136,309.718,255.375,309.387,255.751,309.807Z" transform="translate(-6.985 135.343)" fill="#263238"/><path d="M392.79,286.52c3.695,15.2,18.318,67.721,20.907,83.119a341.5,341.5,0,0,1,5.376,46.46,157.833,157.833,0,0,1-.929,23.1,76.962,76.962,0,0,1-5.442,22.124,29.8,29.8,0,0,1-14.624,15.619,46.459,46.459,0,0,1-21.858,3.119c-15.243-.863-30.287-5.265-45.154-9.779s-29.557-9.911-44.247-15.221-29.292-10.818-43.849-16.526-29.137-11.349-43.606-17.234l.111.376,3.894-8.053-4.425,7.81-.133.243.265.111q21.305,9.956,42.853,19.115,21.571,9.192,43.473,17.7c14.579,5.642,29.358,10.951,44.247,15.774s30.132,9.447,46.216,10.31a51.105,51.105,0,0,0,24.026-3.916,31.151,31.151,0,0,0,10.022-7.478,38.806,38.806,0,0,0,6.637-10.465,81.855,81.855,0,0,0,5.575-23.34,141.835,141.835,0,0,0,.553-23.584C419.029,363.665,401.861,316.453,392.79,286.52Z" transform="translate(-74.357 107.347)" fill="#263238"/><path d="M288.795,273.33c-.265,6.438-.31,12.854-.487,19.292l-.177,19.27c-.177,12.854,0,25.73-.288,38.5l-.111,2.367v1.836h0l.133-.266a1.57,1.57,0,0,1,.885-.642h.243a1.019,1.019,0,0,1,.443,0h.088l-.42-.221-1.018-.531-2.057-1.173c-2.743-1.615-5.487-3.3-8.208-4.978l-16.46-10.022-16.482-9.978-16.77-9.933h-.155V317l-1.195,2.655,1.482-2.5H228c5.243,3.761,10.487,7.478,15.8,11.062l15.973,10.8c5.354,3.584,10.752,7.035,16.172,10.531,2.743,1.7,5.465,3.407,8.252,5.066l2.1,1.239,1.128.6a3.473,3.473,0,0,0,.642.31h.288l.332.111a2.7,2.7,0,0,0,.73,0h.4a2.212,2.212,0,0,0,.973-.774l.177-.31h0v-.2a1.457,1.457,0,0,0,0-.288v-4.823c.2-12.92,0-25.752-.553-38.606l-.819-19.292C289.613,286.162,289.237,279.746,288.795,273.33Z" transform="translate(-40.471 91.356)" fill="#263238"/><path d="M234.538,367.3c7.1-13.871,14.115-27.809,21.77-41.438,4.425-7.721,8.628-15.487,13.053-23.186.177-.288.686,0,.553.265-6.637,14.2-13.274,28.429-20.486,42.345s-14.292,27.743-21.681,41.482c-4.2,7.832-8.628,15.487-13.274,23.053,0,.133-.354,0-.288-.155C220.246,395.241,227.348,381.281,234.538,367.3Z" transform="translate(-55.727 126.789)" fill="#263238"/><path d="M252.52,280.18a111.879,111.879,0,0,0,5.288,22.124,95.793,95.793,0,0,0-2.057-11.195A101.2,101.2,0,0,0,252.52,280.18Z" transform="translate(-9.241 99.661)" fill="#263238"/><path d="M221.87,246.058s-3.407,36.637,17.81,38.517,53.783-27.655,66.924-38.517a67.455,67.455,0,0,0-46.814-14.535C234.746,232.916,221.87,246.058,221.87,246.058Z" transform="translate(-46.643 40.465)" fill="#eb9481"/></g><g transform="translate(117.49 681.114)"><rect width="248.625" height="11.15" transform="translate(173.184 153.427)" fill="#a6a6a6"/><rect width="125.131" height="11.15" transform="translate(296.656 153.427)" fill="#c7c7c7"/><path d="M355.556,499.176h-242.3L79.01,334.62H321.33Z" transform="translate(-79.01 -334.62)" fill="#c7c7c7"/><path d="M167.769,382.322a14.27,14.27,0,0,1-14.447,16.15,18.407,18.407,0,0,1-17.854-16.15,14.27,14.27,0,0,1,14.469-16.15A18.363,18.363,0,0,1,167.769,382.322Z" transform="translate(-10.713 -296.372)" fill="#fff"/></g><g transform="translate(59.408 122.209)"><path d="M55.375,314.051A48.561,48.561,0,0,0,116.215,376l20.553,13.274-2.212-24.159a48.561,48.561,0,1,0-79.181-51.061Z" transform="translate(-52.757 159.413)" fill="#ee7a15"/><rect width="6.593" height="44.358" transform="translate(30.543 476.466) rotate(-45)" fill="#fff"/><rect width="6.593" height="44.358" transform="translate(61.893 471.809) rotate(45)" fill="#fff"/><path d="M146.272,147.237a63.65,63.65,0,0,0,102.654,49.026l31.349,7.323-13.584-28.761a63.665,63.665,0,0,0-58.053-92.552,63.694,63.694,0,0,0-62.375,64.986Z" transform="translate(60.591 -81.668)" fill="#fff"/><path d="M146.269,147.562a63.959,63.959,0,0,0,10.288,33.185,67.3,67.3,0,0,0,5.221,7.035,68.419,68.419,0,0,0,6.239,6.172,60.244,60.244,0,0,0,6.947,5.332c1.195.841,2.522,1.482,3.761,2.212l1.9,1.084c.642.354,1.327.619,1.991.929a62.9,62.9,0,0,0,16.637,5.177,60.416,60.416,0,0,0,8.695.752,54.617,54.617,0,0,0,8.717-.31,62.853,62.853,0,0,0,31.77-13.1l.288-.221h.376l31.393,7.146-1.106,1.35-13.65-28.761-.221-.465.221-.465a63.649,63.649,0,0,0,6.814-27.367,62.831,62.831,0,0,0-5.841-27.632,65.4,65.4,0,0,0-17.3-22.345,62.544,62.544,0,0,0-25.4-12.544,63.671,63.671,0,0,0-28.451-.221,64.579,64.579,0,0,0-25.686,12.433,63.8,63.8,0,0,0-23.606,50.619Zm0,0a64.247,64.247,0,0,1,104.18-51.57A65,65,0,0,1,268.479,118.8a64.159,64.159,0,0,1-.841,56.725V174.6l13.5,28.761.863,1.814-1.969-.465-31.3-7.5.664-.155a64.158,64.158,0,0,1-32.632,12.9,56.3,56.3,0,0,1-8.849.177,61.947,61.947,0,0,1-8.849-.885,64.491,64.491,0,0,1-16.725-5.487,61.948,61.948,0,0,1-14.6-9.8,68.687,68.687,0,0,1-6.217-6.217,67.917,67.917,0,0,1-5.2-7.1,63.937,63.937,0,0,1-10.044-33.075Z" transform="translate(60.595 -81.992)" fill="#263238"/><path d="M174.279,139.741a20.2,20.2,0,0,1,1.416-7.788,12.964,12.964,0,0,1,5.841-6.018c.885-.531,1.991-1.15,3.274-1.814a28.493,28.493,0,0,0,3.827-2.434,14.4,14.4,0,0,0,3.142-3.318,7.854,7.854,0,0,0,1.283-4.425,7.344,7.344,0,0,0-.708-3.274,8.274,8.274,0,0,0-1.858-2.389,8.164,8.164,0,0,0-2.7-1.46,10.375,10.375,0,0,0-3.164-.487,9.181,9.181,0,0,0-3.54.664,12.742,12.742,0,0,0-2.876,1.681A16.152,16.152,0,0,0,176,110.892a25.416,25.416,0,0,0-1.726,2.434l-7.7-5.31a17.234,17.234,0,0,1,3.053-4.867,18.718,18.718,0,0,1,4.425-3.584,20.574,20.574,0,0,1,5.265-2.212,22.5,22.5,0,0,1,5.841-.752,22.787,22.787,0,0,1,6.637.973,16.9,16.9,0,0,1,5.885,3.1,15.862,15.862,0,0,1,4.248,5.442,17.876,17.876,0,0,1,1.637,7.92,17.258,17.258,0,0,1-.664,5.022,14.423,14.423,0,0,1-1.9,3.938,16.549,16.549,0,0,1-2.92,3.186,35.95,35.95,0,0,1-3.805,2.743c-1.195.708-2.367,1.394-3.54,2.035a20.068,20.068,0,0,0-3.23,2.212,10.509,10.509,0,0,0-2.411,2.743,7.235,7.235,0,0,0-.929,3.761Zm.177,20.641V148.148h9.823v12.234Z" transform="translate(85.239 -64.282)" fill="#40a0c0"/></g></g></svg>