<svg xmlns="http://www.w3.org/2000/svg" width="332.611" height="326.547" viewBox="0 0 332.611 326.547"><g transform="translate(0.707)"><g transform="translate(3.817 7.824)"><path d="M266.419,61.168c-16.9,9.57-28.817,25.665-43.26,38.586a139.664,139.664,0,0,1-63.442,32.206c-19.361,4.149-39.589,4.21-58.246,10.735-36.4,12.645-61.328,50.173-61.955,88.33s21.3,75.148,53.521,96.067a128.889,128.889,0,0,0,35.624,16.065c23.7,6.6,48.828,6.311,73.316,3.788,42.3-4.363,86.644-28.15,113.308-61.683A241.92,241.92,0,0,0,367.3,146.009c1.123-26.839,0-56.591-21.506-76.153S291.627,46.882,266.419,61.168Z" transform="translate(-39.503 -52.415)" fill="#ee7a15"/><path d="M266.419,61.168c-16.9,9.57-28.817,25.665-43.26,38.586a139.664,139.664,0,0,1-63.442,32.206c-19.361,4.149-39.589,4.21-58.246,10.735-36.4,12.645-61.328,50.173-61.955,88.33s21.3,75.148,53.521,96.067a128.889,128.889,0,0,0,35.624,16.065c23.7,6.6,48.828,6.311,73.316,3.788,42.3-4.363,86.644-28.15,113.308-61.683A241.92,241.92,0,0,0,367.3,146.009c1.123-26.839,0-56.591-21.506-76.153S291.627,46.882,266.419,61.168Z" transform="translate(-39.503 -38.415)" fill="#fff" opacity="0.7"/></g><g transform="translate(52.814 242.429)"><ellipse cx="135.749" cy="42.059" rx="135.749" ry="42.059" fill="#40a0c0"/><ellipse cx="135.749" cy="42.059" rx="135.749" ry="42.059" fill="#fff" opacity="0.5"/></g><g transform="translate(36.626)"><rect width="199.176" height="118.506" rx="8.95" transform="translate(0 21.657)" fill="#fff"/><path d="M276.356,76.087V79.17H77.18V76.087a7.837,7.837,0,0,1,7.794-7.837H268.6a7.785,7.785,0,0,1,7.759,7.837Z" transform="translate(-77.18 -46.637)" fill="#40a0c0"/><rect width="199.176" height="118.506" rx="8.95" transform="translate(0 21.657)" fill="none" stroke="#263238" stroke-linecap="round" stroke-linejoin="round" stroke-width="1"/><path d="M276.356,76.087V79.17H77.18V76.087a7.837,7.837,0,0,1,7.794-7.837H268.6a7.785,7.785,0,0,1,7.759,7.837Z" transform="translate(-77.18 -46.637)" fill="none" stroke="#263238" stroke-linecap="round" stroke-linejoin="round" stroke-width="1"/><path d="M102.278,74.245a1.994,1.994,0,1,1-1.994-1.985,1.994,1.994,0,0,1,1.994,1.985Z" transform="translate(-79.908 -47.155)" fill="#263238"/><path d="M114.228,74.245a1.994,1.994,0,1,1-1.994-1.985,1.994,1.994,0,0,1,1.994,1.985Z" transform="translate(-81.452 -47.155)" fill="#263238"/><circle cx="1.994" cy="1.994" r="1.994" transform="translate(39.194 25.096)" fill="#263238"/><rect width="62.741" height="33.517" rx="3.69" transform="translate(11.808 41.162)" fill="none" stroke="#263238" stroke-linecap="round" stroke-linejoin="round" stroke-width="1"/><line x2="54.398" transform="translate(15.5 70.465)" fill="none" stroke="#263238" stroke-linecap="round" stroke-linejoin="round" stroke-width="1"/><rect width="6.313" height="6.313" transform="translate(19.541 64.064)" fill="#40a0c0" stroke="#263238" stroke-miterlimit="10" stroke-width="1"/><rect width="6.313" height="14.699" transform="translate(28.78 55.766)" fill="#ee7a15" stroke="#263238" stroke-miterlimit="10" stroke-width="1"/><rect width="6.313" height="12.322" transform="translate(39.186 58.291)" fill="#40a0c0" stroke="#263238" stroke-miterlimit="10" stroke-width="1"/><rect width="6.313" height="24.165" transform="translate(50.123 46.021)" fill="#ee7a15" stroke="#263238" stroke-miterlimit="10" stroke-width="1"/><rect width="6.313" height="24.165" transform="translate(61.051 46.213)" fill="#40a0c0" stroke="#263238" stroke-miterlimit="10" stroke-width="1"/><circle cx="17.651" cy="17.651" r="17.651" transform="translate(134.686 41.11)" fill="#40a0c0" stroke="#263238" stroke-miterlimit="10" stroke-width="1"/><path d="M252.73,120.015v1.811h-2.961v-1.811a5.382,5.382,0,0,1-4.11-5.486v-.819l3.353-.366v.871c0,1.681.871,2.7,2.238,2.7a2.064,2.064,0,0,0,2.229-2.2c0-1.611-1.506-3-3.283-4.467-2.107-1.742-4.206-3.814-4.206-6.74s1.376-4.9,3.779-5.495V96.19h2.961v1.8c2.43.566,3.84,2.612,3.84,5.53v.592l-3.353.357v-.61c0-1.742-.688-2.7-1.907-2.7s-1.907.758-1.907,2.2c0,1.611,1.55,2.961,3.292,4.467,2.072,1.742,4.206,3.814,4.206,6.74a5.355,5.355,0,0,1-4.171,5.442Z" transform="translate(-98.948 -50.247)" fill="#263238"/><line x2="5.155" transform="translate(10.345 91.799)" fill="none" stroke="#263238" stroke-linecap="round" stroke-linejoin="round" stroke-width="1"/><line x2="5.155" transform="translate(10.345 101.761)" fill="none" stroke="#263238" stroke-linecap="round" stroke-linejoin="round" stroke-width="1"/><line x2="5.155" transform="translate(10.345 111.731)" fill="none" stroke="#263238" stroke-linecap="round" stroke-linejoin="round" stroke-width="1"/><line x2="5.155" transform="translate(10.345 121.693)" fill="none" stroke="#263238" stroke-linecap="round" stroke-linejoin="round" stroke-width="1"/><line y1="4.006" transform="translate(26.864 125.211)" fill="none" stroke="#263238" stroke-linecap="round" stroke-linejoin="round" stroke-width="1"/><line y1="4.006" transform="translate(35.032 125.211)" fill="none" stroke="#263238" stroke-linecap="round" stroke-linejoin="round" stroke-width="1"/><line y1="4.006" transform="translate(43.2 125.211)" fill="none" stroke="#263238" stroke-linecap="round" stroke-linejoin="round" stroke-width="1"/><line y1="4.006" transform="translate(51.377 125.211)" fill="none" stroke="#263238" stroke-linecap="round" stroke-linejoin="round" stroke-width="1"/><line y1="4.006" transform="translate(59.545 125.211)" fill="none" stroke="#263238" stroke-linecap="round" stroke-linejoin="round" stroke-width="1"/><line y1="4.006" transform="translate(67.713 125.211)" fill="none" stroke="#263238" stroke-linecap="round" stroke-linejoin="round" stroke-width="1"/><line y1="4.006" transform="translate(75.881 125.211)" fill="none" stroke="#263238" stroke-linecap="round" stroke-linejoin="round" stroke-width="1"/><line y1="4.006" transform="translate(84.058 125.211)" fill="none" stroke="#263238" stroke-linecap="round" stroke-linejoin="round" stroke-width="1"/><line y1="4.006" transform="translate(92.226 125.211)" fill="none" stroke="#263238" stroke-linecap="round" stroke-linejoin="round" stroke-width="1"/><line y1="4.006" transform="translate(100.394 125.211)" fill="none" stroke="#263238" stroke-linecap="round" stroke-linejoin="round" stroke-width="1"/><line y1="4.006" transform="translate(108.562 125.211)" fill="none" stroke="#263238" stroke-linecap="round" stroke-linejoin="round" stroke-width="1"/><line y1="4.006" transform="translate(116.739 125.211)" fill="none" stroke="#263238" stroke-linecap="round" stroke-linejoin="round" stroke-width="1"/><line y1="4.006" transform="translate(124.907 125.211)" fill="none" stroke="#263238" stroke-linecap="round" stroke-linejoin="round" stroke-width="1"/><line y1="4.006" transform="translate(133.075 125.211)" fill="none" stroke="#263238" stroke-linecap="round" stroke-linejoin="round" stroke-width="1"/><line y1="4.006" transform="translate(141.243 125.211)" fill="none" stroke="#263238" stroke-linecap="round" stroke-linejoin="round" stroke-width="1"/><line y1="4.006" transform="translate(149.106 125.211)" fill="none" stroke="#263238" stroke-linecap="round" stroke-linejoin="round" stroke-width="1"/><line y1="4.006" transform="translate(156.969 125.211)" fill="none" stroke="#263238" stroke-linecap="round" stroke-linejoin="round" stroke-width="1"/><line y1="4.006" transform="translate(164.824 125.211)" fill="none" stroke="#263238" stroke-linecap="round" stroke-linejoin="round" stroke-width="1"/><path d="M264.325,141.138v38.715c0,2.656-2.7,4.8-6.026,4.8H95.1a6.461,6.461,0,0,1-5.225-2.36A4.119,4.119,0,0,1,89,179.854V141.138c0-2.612,2.7-4.8,6.026-4.8H258.3C261.626,136.34,264.325,138.482,264.325,141.138Z" transform="translate(-78.707 -55.435)" fill="none" stroke="#40a0c0" stroke-linecap="round" stroke-linejoin="round" stroke-width="1"/><path d="M214.76,55.307l-52.1,70.186-19.924,26.838-21.77-13.863L94.329,173.8h-.383a4.8,4.8,0,0,1-4.136-2.36l29.929-39.717,21.77,13.837,14.9-20.028L210.737,52.39Z" transform="translate(-78.812 -44.588)" fill="#263238"/><path d="M218.12,55.038,237.269,43.43l-5.294,20.08L228.6,54.219Z" transform="translate(-95.39 -43.43)" fill="#263238"/></g><g transform="translate(0 55.283)"><path d="M334.876,310.52H65.332L35.12,341.041" transform="translate(-35.12 -149.65)" fill="none" stroke="#263238" stroke-linecap="round" stroke-linejoin="round" stroke-width="1"/><line y1="59.345" transform="translate(34.518 80.157)" fill="none" stroke="#263238" stroke-linecap="round" stroke-linejoin="round" stroke-width="1"/><line y1="11.477" transform="translate(34.518 145.945)" fill="none" stroke="#263238" stroke-linecap="round" stroke-linejoin="round" stroke-width="1"/><g transform="translate(238.304)"><path d="M402.99,142.273s0-3.588-5.024-8.6-8.246-7.889-8.246-7.889-2.517,8.246,2.151,13.271a87.95,87.95,0,0,0,11.12,9.7Z" transform="translate(-359.973 -125.78)" fill="#40a0c0"/><path d="M394.621,168s0-3.588-5.024-8.612-8.246-7.889-8.246-7.889-2.508,8.246,2.151,13.271a89.375,89.375,0,0,0,11.12,9.709Z" transform="translate(-358.892 -129.103)" fill="#40a0c0"/><path d="M404.589,149.514s.383-3.57,5.9-8.037,9.039-6.966,9.039-6.966,1.62,8.49-3.544,12.966a88.393,88.393,0,0,1-12.078,8.455Z" transform="translate(-361.894 -126.908)" fill="#40a0c0"/><path d="M394.382,180.138s.758-3.483,6.714-7.367,9.709-5.991,9.709-5.991.723,8.595-4.859,12.531a87.77,87.77,0,0,1-12.9,7.132Z" transform="translate(-360.491 -131.077)" fill="#40a0c0"/><path d="M396.49,212.783s0-3.588,5.016-8.6,8.246-7.889,8.246-7.889,2.517,8.255-2.151,13.271a87.269,87.269,0,0,1-11.111,9.709Z" transform="translate(-360.935 -134.89)" fill="#40a0c0"/><path d="M394.56,220.617s.505-3.553-3.753-9.23-7.036-8.987-7.036-8.987-3.64,7.837.253,13.445a88.33,88.33,0,0,0,9.631,11.164Z" transform="translate(-359.092 -135.68)" fill="#40a0c0"/><path d="M390.7,244.831s0-3.579,5.025-8.6,8.246-7.837,8.246-7.837,2.517,8.246-2.151,13.262a87.947,87.947,0,0,1-11.12,9.709Z" transform="translate(-360.187 -139.038)" fill="#40a0c0"/><path d="M394.536,266.138s-.871-3.483,2.691-9.579,5.982-9.709,5.982-9.709,4.511,7.35,1.28,13.384a88.129,88.129,0,0,1-8.307,12.191Z" transform="translate(-360.671 -141.423)" fill="#40a0c0"/><path d="M403.621,143.7a101.662,101.662,0,0,1-1.376,11.129c-1.985,10.258-6.966,16.876-8.934,26.124s3.718,21.2,2.194,33.09-6.165,18.513-4.859,26.455,8.273,29.433,8.273,29.433" transform="translate(-360.151 -128.095)" fill="none" stroke="#263238" stroke-linecap="round" stroke-linejoin="round" stroke-width="1.177"/><line y1="4.162" x2="5.408" transform="translate(42.652 20.829)" fill="none" stroke="#263238" stroke-linecap="round" stroke-linejoin="round" stroke-width="1.177"/><line x1="2.255" y1="4.032" transform="translate(40.64 16.179)" fill="none" stroke="#263238" stroke-linecap="round" stroke-linejoin="round" stroke-width="1.177"/><path d="M394.09,184.991s4.528-3.4,9.187-6.8" transform="translate(-360.625 -132.552)" fill="none" stroke="#263238" stroke-linecap="round" stroke-linejoin="round" stroke-width="1.177"/><path d="M395.495,176.013A72.575,72.575,0,0,0,387.44,163.7" transform="translate(-359.766 -130.68)" fill="none" stroke="#263238" stroke-linecap="round" stroke-linejoin="round" stroke-width="1.177"/><path d="M396.69,219.167A56.239,56.239,0,0,1,406.4,206.21" transform="translate(-360.961 -136.172)" fill="none" stroke="#263238" stroke-linecap="round" stroke-linejoin="round" stroke-width="1.177"/><path d="M394.5,224.832a63.911,63.911,0,0,0-4.946-9.326c-2.612-3.9-3.03-4.406-3.03-4.406" transform="translate(-359.647 -136.804)" fill="none" stroke="#263238" stroke-linecap="round" stroke-linejoin="round" stroke-width="1.177"/><path d="M390.7,252.591a60.6,60.6,0,0,1,4.084-8.255,53.6,53.6,0,0,1,5.277-6.966" transform="translate(-360.187 -140.198)" fill="none" stroke="#263238" stroke-linecap="round" stroke-linejoin="round" stroke-width="1.177"/><path d="M396.419,273.461a15.343,15.343,0,0,1,1.358-7.942c1.89-3.649,4.023-8.438,4.911-10.319" transform="translate(-360.917 -142.502)" fill="none" stroke="#263238" stroke-linecap="round" stroke-linejoin="round" stroke-width="1.177"/><path d="M367.3,197.991s-.392-2.238,2.212-5.939,4.354-5.852,4.354-5.852,2.464,4.894.087,8.551a55.867,55.867,0,0,1-5.921,7.28Z" transform="translate(-357.161 -133.587)" fill="#40a0c0"/><path d="M375.337,213.251s-.392-2.255,2.212-5.948,4.354-5.843,4.354-5.843,2.464,4.9.087,8.551a55.294,55.294,0,0,1-5.921,7.28Z" transform="translate(-358.199 -135.558)" fill="#40a0c0"/><path d="M366.658,202.95s-.61-2.194-4.572-4.354-6.426-3.4-6.426-3.4-.1,5.46,3.64,7.75a55.853,55.853,0,0,0,8.49,3.988Z" transform="translate(-355.66 -134.75)" fill="#40a0c0"/><path d="M376.184,221.073s-.871-2.116-5.016-3.884-6.749-2.7-6.749-2.7.479,5.46,4.424,7.323a56.187,56.187,0,0,0,8.865,3.074Z" transform="translate(-356.792 -137.242)" fill="#40a0c0"/><path d="M378.821,241.678s-.392-2.247-4.084-4.85-6.035-4.058-6.035-4.058-.679,5.46,2.8,8.09a55.641,55.641,0,0,0,8.02,4.85Z" transform="translate(-357.338 -139.604)" fill="#40a0c0"/><path d="M381.243,246.222s-.705-2.168,1.35-6.191,3.483-6.4,3.483-6.4,3.135,4.493,1.306,8.455a56.773,56.773,0,0,1-4.859,8.046Z" transform="translate(-358.95 -139.715)" fill="#40a0c0"/><path d="M388.431,267.521s.261-2.264,3.8-5.077,5.791-4.354,5.791-4.354.993,5.4-2.325,8.238a56.5,56.5,0,0,1-7.724,5.312Z" transform="translate(-359.834 -142.875)" fill="#40a0c0"/><path d="M385.922,261.178s-.392-2.255-4.084-4.859-6.026-4.049-6.026-4.049-.679,5.46,2.787,8.09a56.046,56.046,0,0,0,8.029,4.85Z" transform="translate(-358.257 -142.123)" fill="#40a0c0"/><path d="M386.144,274.88s.2-2.281-2.717-5.73-4.807-5.46-4.807-5.46-2.038,5.094.653,8.534a56.924,56.924,0,0,0,6.531,6.749Z" transform="translate(-358.531 -143.599)" fill="#40a0c0"/><path d="M366.85,199.14a64.428,64.428,0,0,0,2.081,6.836c2.351,6.209,6.183,9.823,8.429,15.413s0,13.7,2.221,20.986,5.878,10.92,5.9,16.066-1.959,19.366-1.959,19.366" transform="translate(-357.106 -135.259)" fill="none" stroke="#263238" stroke-linecap="round" stroke-linejoin="round" stroke-width="1.177"/><line x1="3.84" y1="2.012" transform="translate(7.446 67.678)" fill="none" stroke="#263238" stroke-linecap="round" stroke-linejoin="round" stroke-width="1.177"/><line y1="2.769" x2="0.984" transform="translate(10.606 63.951)" fill="none" stroke="#263238" stroke-linecap="round" stroke-linejoin="round" stroke-width="1.177"/><path d="M377.7,223.935s-3.213-1.637-6.5-3.265" transform="translate(-357.668 -138.04)" fill="none" stroke="#263238" stroke-linecap="round" stroke-linejoin="round" stroke-width="1.177"/><path d="M376.14,218.366a46.017,46.017,0,0,1,3.718-8.586" transform="translate(-358.306 -136.633)" fill="none" stroke="#263238" stroke-linecap="round" stroke-linejoin="round" stroke-width="1.177"/><path d="M379.729,245.671a35.834,35.834,0,0,0-7.489-7.071" transform="translate(-357.802 -140.357)" fill="none" stroke="#263238" stroke-linecap="round" stroke-linejoin="round" stroke-width="1.177"/><path d="M382.1,248.836a39.925,39.925,0,0,1,2.064-6.365c1.21-2.743,1.419-3.1,1.419-3.1" transform="translate(-359.076 -140.457)" fill="none" stroke="#263238" stroke-linecap="round" stroke-linejoin="round" stroke-width="1.177"/><path d="M388.06,270.717a33.5,33.5,0,0,1,4.128-4.284,22.18,22.18,0,0,0,2.682-2.342" transform="translate(-359.846 -143.651)" fill="none" stroke="#263238" stroke-linecap="round" stroke-linejoin="round" stroke-width="1.177"/><path d="M387.13,265.979a39.076,39.076,0,0,0-3.483-4.728,33.956,33.956,0,0,0-4.067-3.771" transform="translate(-358.75 -142.797)" fill="none" stroke="#263238" stroke-linecap="round" stroke-linejoin="round" stroke-width="1.177"/><path d="M386.119,279.638a9.823,9.823,0,0,0-1.742-4.85c-1.585-2.09-3.483-4.859-4.2-5.948" transform="translate(-358.828 -144.264)" fill="none" stroke="#263238" stroke-linecap="round" stroke-linejoin="round" stroke-width="1.177"/><path d="M402.041,313.633H379.174a1.742,1.742,0,0,1-1.742-1.7L374.15,286.63H407l-3.283,25.305A1.742,1.742,0,0,1,402.041,313.633Z" transform="translate(-358.049 -146.563)" fill="#263238"/><path d="M406.359,290.782h-32.55a2.56,2.56,0,0,1-2.569-2.543h0a2.612,2.612,0,0,1,2.56-2.569h32.559a2.56,2.56,0,0,1,2.569,2.56h0a2.56,2.56,0,0,1-2.569,2.551Z" transform="translate(-357.673 -146.439)" fill="#263238"/></g></g><g transform="translate(163.535 35.261)"><path d="M317.83,170.617a31.617,31.617,0,0,1-24.49,30.8h-.1c-.827.183-1.655.348-2.508.47a32.287,32.287,0,0,1-4.519.322,31.615,31.615,0,1,1-1.167-63.219c.287.008.592.008.871.008a1.5,1.5,0,0,1,.279,0,2,2,0,0,1,.322,0,31.131,31.131,0,0,1,12.383,2.656,31.619,31.619,0,0,1,18.931,28.963Z" transform="translate(-254.005 -91.038)" fill="#40a0c0"/><path d="M299.886,141.669c-36.512-1.9-36.687,38.637-36.687,38.637s-5.573-13.227,3.527-27.865c5.085-8.194,13.933-11.808,20.777-13.41A31.131,31.131,0,0,1,299.886,141.669Z" transform="translate(-254.974 -91.043)" fill="#fff" opacity="0.4"/><path d="M317.83,170.618a31.618,31.618,0,0,1-24.59,30.826,31.094,31.094,0,0,1-7.029.793A31.624,31.624,0,0,1,285.044,139h1.167A31.627,31.627,0,0,1,317.83,170.618Z" transform="translate(-254.004 -91.039)" fill="none" stroke="#263238" stroke-linecap="round" stroke-linejoin="round" stroke-width="1"/><path d="M318.8,170.618a31.618,31.618,0,0,1-24.59,30.826h-1.168A31.627,31.627,0,0,1,286.012,139h1.167A31.627,31.627,0,0,1,318.8,170.618Z" transform="translate(-254.971 -91.039)" fill="none" stroke="#263238" stroke-linecap="round" stroke-linejoin="round" stroke-width="1"/><path d="M300.477,191.469l.819,3.344-5.469,1.332-.819-3.335c-4.894,0-8.821-3.178-10.075-8.281l-.374-1.515,6.035-2.186.383,1.576c.758,3.1,2.8,4.589,5.355,3.962a3.919,3.919,0,0,0,3.126-5.077c-.732-2.978-4.145-4.842-8.1-6.766-4.676-2.264-9.5-5.138-10.824-10.545-1.289-5.277.331-9.675,4.5-11.851l-.819-3.344,5.46-1.332.819,3.335c4.746-.07,8.281,3.056,9.579,8.455l.27,1.1-6.026,2.186-.3-1.21c-.8-3.283-2.49-4.667-4.737-4.119s-3.178,2.264-2.525,4.929c.731,2.978,4.189,4.772,8.1,6.775,4.624,2.342,9.5,5.138,10.824,10.537C307.008,184.633,304.883,189.265,300.477,191.469Z" transform="translate(-257.376 -92.131)" fill="none" stroke="#263238" stroke-miterlimit="10" stroke-width="1"/><path d="M300.477,191.469l.819,3.344-5.469,1.332-.819-3.335c-4.894,0-8.821-3.178-10.075-8.281l-.374-1.515,6.035-2.186.383,1.576c.758,3.1,2.8,4.589,5.355,3.962a3.919,3.919,0,0,0,3.126-5.077c-.732-2.978-4.145-4.842-8.1-6.766-4.676-2.264-9.5-5.138-10.824-10.545-1.289-5.277.331-9.675,4.5-11.851l-.819-3.344,5.46-1.332.819,3.335c4.746-.07,8.281,3.056,9.579,8.455l.27,1.1-6.026,2.186-.3-1.21c-.8-3.283-2.49-4.667-4.737-4.119s-3.178,2.264-2.525,4.929c.731,2.978,4.189,4.772,8.1,6.775,4.624,2.342,9.5,5.138,10.824,10.537C307.008,184.633,304.883,189.265,300.477,191.469Z" transform="translate(-257.376 -92.131)" opacity="0.3"/><line y1="0.305" x2="6.679" transform="translate(16.046 106.461)" fill="none" stroke="#263238" stroke-linecap="round" stroke-linejoin="round" stroke-width="1"/><line y1="0.496" x2="5.826" transform="translate(12.832 104.048)" fill="none" stroke="#263238" stroke-linecap="round" stroke-linejoin="round" stroke-width="1"/><line y1="0.496" x2="5.826" transform="translate(10.22 101.706)" fill="none" stroke="#263238" stroke-linecap="round" stroke-linejoin="round" stroke-width="1"/><line x2="4.99" transform="translate(9.419 57.653)" fill="none" stroke="#263238" stroke-linecap="round" stroke-linejoin="round" stroke-width="1"/><line y1="0.226" x2="4.972" transform="translate(11.883 55.127)" fill="none" stroke="#263238" stroke-linecap="round" stroke-linejoin="round" stroke-width="1"/><line y1="0.496" x2="5.242" transform="translate(15.001 52.55)" fill="none" stroke="#263238" stroke-linecap="round" stroke-linejoin="round" stroke-width="1"/><path d="M293.335,201.417h-.1a31.1,31.1,0,0,1-7.027.792,31.615,31.615,0,1,1-1.167-63.219c.287.008.592.008.871.008-7.707,2.43-20.638,8.638-24.095,21.587C256.936,178.986,267.934,199.876,293.335,201.417Z" transform="translate(-254.004 -91.038)" opacity="0.3"/><path d="M323.279,171.01a31.617,31.617,0,0,1-24.49,30.8h-.1c-.827.183-1.654.348-2.508.47l8.185-60.25A31.619,31.619,0,0,1,323.279,171.01Z" transform="translate(-259.453 -91.431)" opacity="0.1"/><path d="M342.834,113.728a19.157,19.157,0,0,1-22.911,6.653l-.113-.052q-.892-.392-1.742-.871a17.1,17.1,0,0,1-1.846-1.149,19.157,19.157,0,0,1,21.065-31.9l.427.27c.2.113.392.253.592.392s.583.427.871.653A19.157,19.157,0,0,1,342.834,113.728Z" transform="translate(-261.07 -83.923)" fill="#40a0c0"/><path d="M314.4,114.232s-3.126-9.2,1.028-15.979c5.225-8.49,13.227-12.365,24.121-10.275,0,0-5.9-3.988-15.787-1.158S308.575,103.251,314.4,114.232Z" transform="translate(-261.495 -84.166)" fill="#fff" opacity="0.4"/><path d="M342.832,113.741a19.157,19.157,0,0,1-22.911,6.635,18.766,18.766,0,0,1-3.744-2.055,19.157,19.157,0,0,1,21.517-31.627c.192.113.392.244.583.383a19.157,19.157,0,0,1,4.554,26.664Z" transform="translate(-261.068 -83.928)" fill="none" stroke="#263238" stroke-linecap="round" stroke-linejoin="round" stroke-width="1"/><path d="M343.239,113.943a19.157,19.157,0,0,1-22.911,6.635l-.583-.383A19.157,19.157,0,0,1,338.1,86.9c.192.113.392.244.583.383a19.157,19.157,0,0,1,4.554,26.664Z" transform="translate(-261.475 -84.13)" fill="none" stroke="#263238" stroke-linecap="round" stroke-linejoin="round" stroke-width="1"/><path d="M327.349,117.111l-.758,1.933-3.17-1.245.758-1.942a6.2,6.2,0,0,1-2.09-7.6l.348-.871,3.744,1.019-.357.923c-.705,1.794-.226,3.239,1.254,3.823a2.369,2.369,0,0,0,3.318-1.419c.679-1.742-.357-3.84-1.637-6.165-1.515-2.752-2.891-5.852-1.663-8.987s3.544-4.667,6.357-4.284l.766-1.933,3.161,1.245-.758,1.924c2.369,1.62,3.022,4.354,1.794,7.532l-.253.627-3.744-1.019.279-.705c.749-1.9.4-3.178-.871-3.692s-2.36,0-2.969,1.559c-.679,1.742.409,3.814,1.637,6.165,1.472,2.778,2.9,5.86,1.672,8.987a6.174,6.174,0,0,1-6.818,4.128Z" transform="translate(-262.731 -84.755)" fill="none" stroke="#263238" stroke-miterlimit="10" stroke-width="1"/><path d="M327.349,117.111l-.758,1.933-3.17-1.245.758-1.942a6.2,6.2,0,0,1-2.09-7.6l.348-.871,3.744,1.019-.357.923c-.705,1.794-.226,3.239,1.254,3.823a2.369,2.369,0,0,0,3.318-1.419c.679-1.742-.357-3.84-1.637-6.165-1.515-2.752-2.891-5.852-1.663-8.987s3.544-4.667,6.357-4.284l.766-1.933,3.161,1.245-.758,1.924c2.369,1.62,3.022,4.354,1.794,7.532l-.253.627-3.744-1.019.279-.705c.749-1.9.4-3.178-.871-3.692s-2.36,0-2.969,1.559c-.679,1.742.409,3.814,1.637,6.165,1.472,2.778,2.9,5.86,1.672,8.987a6.174,6.174,0,0,1-6.818,4.128Z" transform="translate(-262.731 -84.755)" opacity="0.3"/><path d="M337.237,86.425c-5.225-.932-11.843-1.446-15.413.871-6.557,4.206-10.641,9.509-10.58,18.1s8.09,14.621,8.09,14.621l.47.34a18.86,18.86,0,0,1-3.631-2.012,19.157,19.157,0,0,1,21.064-31.9Z" transform="translate(-261.063 -83.928)" opacity="0.3"/><path d="M344.225,114.293a19.157,19.157,0,0,1-22.911,6.653l-.113-.052q-.892-.392-1.742-.871L340.516,88.3a19.157,19.157,0,0,1,3.71,25.993Z" transform="translate(-262.461 -84.489)" opacity="0.1"/></g><g transform="translate(54.255 44.849)"><path d="M305.687,375.082a114.944,114.944,0,0,1-28.6,24.687,101.063,101.063,0,0,1-10.449,5.451c-24.739,11.12-52.936,11.843-79.3,5.451-55.443-13.436-84.859-62.375-88.594-116.7-1-14.682-3.248-30.539,2.7-44.506s17.973-22.641,31.575-28.667c9.875-4.4,20.542-7.349,30.234-9.762a77.77,77.77,0,0,1,52.326,5.4c11.4,5.408,19.514,14.8,29.1,22.719q1.524,1.254,3.065,2.5a287.276,287.276,0,0,0,30.478,21.43c16.118,9.831,32.62,19.105,42.921,35.615C337.576,325.011,323.713,353.66,305.687,375.082Z" transform="translate(-97.433 -149.802)" fill="#40a0c0"/><path d="M305.687,375.082a114.944,114.944,0,0,1-28.6,24.687,101.063,101.063,0,0,1-10.449,5.451c-24.739,11.12-52.936,11.843-79.3,5.451-55.443-13.436-84.859-62.375-88.594-116.7-1-14.682-3.248-30.539,2.7-44.506s17.973-22.641,31.575-28.667c9.875-4.4,20.542-7.349,30.234-9.762a77.77,77.77,0,0,1,52.326,5.4c11.4,5.408,19.514,14.8,29.1,22.719q1.524,1.254,3.065,2.5a287.276,287.276,0,0,0,30.478,21.43c16.118,9.831,32.62,19.105,42.921,35.615C337.576,325.011,323.713,353.66,305.687,375.082Z" transform="translate(-97.433 -149.802)" fill="#fff" opacity="0.4"/><path d="M247.7,241.651q-1.541-1.237-3.065-2.508c-9.579-7.933-17.712-17.3-29.1-22.71a77.823,77.823,0,0,0-52.326-5.4c-23.05,5.721-51.638,14.534-61.826,38.437-5.948,13.933-3.7,29.816-2.691,44.5,3.779,54.329,33.195,103.267,88.638,116.7,30.164,7.315,62.7,5.312,89.753-10.9a114.946,114.946,0,0,0,28.6-24.687c18.025-21.422,31.888-50.071,15.474-76.386-10.293-16.545-26.794-25.784-42.921-35.615a287.274,287.274,0,0,1-30.53-21.43Z" transform="translate(-97.426 -149.802)" fill="none" stroke="#263238" stroke-miterlimit="10" stroke-width="1"/><path d="M171.564,357.78A79.738,79.738,0,0,0,158.18,363.2" transform="translate(-113.288 -169.056)" fill="none" stroke="#263238" stroke-linecap="round" stroke-linejoin="round" stroke-width="1"/><path d="M203.028,351.6A142.807,142.807,0,0,0,183,354.778" transform="translate(-120.053 -168.257)" fill="none" stroke="#263238" stroke-linecap="round" stroke-linejoin="round" stroke-width="1"/><path d="M190.73,348.855s-26.019-15.134-57.42-3" transform="translate(-102.062 -166.906)" fill="none" stroke="#263238" stroke-linecap="round" stroke-linejoin="round" stroke-width="1"/><path d="M307.682,375.082a114.945,114.945,0,0,1-28.6,24.687,101.067,101.067,0,0,1-10.449,5.451,81.6,81.6,0,0,1-8.334-3.056c-16.249-6.966-29.886-18.748-43.209-30.365-8.037-6.966-16.205-14.107-25.828-18.7a59.406,59.406,0,0,0-41.659-3.431,46.788,46.788,0,0,1,27.552-15.16c-6.879-6.261-16.449-8.891-25.749-9.056s-14.42.975-23.511,3.013c3.039-5.59,11.1-10.65,17.468-10.5a158.2,158.2,0,0,1-18.1-1.28c-8.212-1.324-11.886-10.989-13.114-19.21-3.4-22.641.044-46.753,12.4-66A67.183,67.183,0,0,1,135,220.795c9.875-4.4,20.542-7.349,30.234-9.762a77.771,77.771,0,0,1,52.326,5.4c11.4,5.408,19.514,14.8,29.1,22.719q1.524,1.254,3.065,2.5a287.275,287.275,0,0,0,30.478,21.43c16.118,9.831,32.62,19.105,42.921,35.615C339.57,325.011,325.707,353.66,307.682,375.082Z" transform="translate(-99.428 -149.802)" opacity="0.1"/><path d="M345.017,399a168.383,168.383,0,0,0,15.3,11.32c10.354.7,5.712,13.21,5.712,13.21l-8.865,5.7s-15.178-12.06-23.468-15.97S345.017,399,345.017,399Z" transform="translate(-161.329 -174.382)" fill="#fff"/><path d="M245.808,242.325s-1.419-14.046-3.683-17.991l-34.379-7v-2.665s.792-4.633-6.871-7.532-23.633.871-27.752,3.988-2.612,8.482-2.612,8.482-13.846,6.992-20.063,9.657a158.869,158.869,0,0,0-14.864,7.837s-2.821,32.289-2.264,39.787-.453,14.551.192,18.7,1.149,6.514,5.5,10.049,8.316,8.708,19.732,3.579l-1.594-1.263L232.3,282.642Z" transform="translate(-102.054 -149.458)" opacity="0.3"/><path d="M245.808,242.325s-1.419-14.046-3.683-17.991l-34.379-7v-2.665s.792-4.633-6.871-7.532-23.633.871-27.752,3.988-2.612,8.482-2.612,8.482-13.846,6.992-20.063,9.657a158.869,158.869,0,0,0-14.864,7.837s-2.821,32.289-2.264,39.787-.453,14.551.192,18.7,1.149,6.514,5.5,10.049,8.316,8.708,19.732,3.579l-1.594-1.263L232.3,282.642Z" transform="translate(-102.054 -149.458)" fill="#40a0c0"/><path d="M245.808,242.325s-1.419-14.046-3.683-17.991l-34.379-7v-2.665s.792-4.633-6.871-7.532-23.633.871-27.752,3.988-2.612,8.482-2.612,8.482-13.846,6.992-20.063,9.657a158.869,158.869,0,0,0-14.864,7.837s-2.821,32.289-2.264,39.787-.453,14.551.192,18.7,1.149,6.514,5.5,10.049,8.316,8.708,19.732,3.579l-1.594-1.263L232.3,282.642Z" transform="translate(-102.054 -149.458)" opacity="0.05"/><path d="M243.131,229H228.746a5.721,5.721,0,0,0-5.634,4.781l-7.088,42.669s-9.762.81-16.676,5.852-23.921-30.931-50.793-30.948c0,0,7.733,17.677,9.448,31.784,0,0-16.8-1.829-19.584,4.746s1.263,18.9,8.368,14.124,13.793-12.731,18.539-7.7,25.95,7.741,25.95,7.741L223.9,285.6l12.653-5.948Z" transform="translate(-102.608 -152.417)" opacity="0.1"/><path d="M202.362,204.71s8.168,2.264,9.492,5.007,1.184,9.683,1.184,9.683a33.526,33.526,0,0,1-8.786,12.087l-6.1-12.087.549,13.706s-11.564-1.924-16.475-5.617l-4.9-3.7s-2.116-6.966-1.811-9.326,9.126-7.149,9.126-7.149Z" transform="translate(-118.82 -149.278)" fill="#fff" opacity="0.4"/><path d="M356.426,442.306c-.226-.5,3.353-6.818.549-13.253S349.7,425.1,349.7,425.1s-12.722-8.1-18.069-10.659a91.178,91.178,0,0,1-11.1-6.6l-5.651,7.611,5.225,16.162Z" transform="translate(-157.763 -175.524)" fill="#ee7a15"/><path d="M354.34,422.409l16.336,9.979s11.486-7.367,16.963-12.452,17.782-15.918,17.782-15.918l7.837-10.545s-5.434-6.723-14.49-1.324c-11.7,6.966-25.976,17.085-35.494,16.989,0,0,1.872,11.695-8.873,13.271" transform="translate(-171.441 -173.225)" fill="#ee7a15"/><path d="M198.965,156.23s7.41,11.216,8.76,14.847,2.438,9,2.168,11.59-2.987,16.441-4.354,16.841L204.225,201l.871,5.869s-5.8,10.023-22.85,2.673c0,0-.662-11.7-2.734-15.378s-5.173.7-8.281-9.918,6.792-21.77,6.792-21.77Z" transform="translate(-117.565 -143.014)" fill="#fff"/><path d="M408.278,390.22s-8.4,1.463-11.129,6.435-7.959,14.211-9.744,18.679S370.86,430.59,370.86,430.59l1.959,1.82s12.017-7.428,19.271-14.49,23.25-24.826,23.25-24.826S414.191,391.953,408.278,390.22Z" transform="translate(-173.575 -173.247)" fill="#fff" opacity="0.5"/><path d="M316.961,413.37l-2.081,2.8,6.392,13.253,35.154,12.635,1.628-5.146s.54-5.225-11.8-9.2-19.863-6.592-23.372-9.318S316.961,413.37,316.961,413.37Z" transform="translate(-157.764 -176.239)" fill="#fff" opacity="0.5"/><path d="M180.986,298.635s-10.763-1.62-15.787,7.184-4.511,12.618-4.511,12.618,7.114,6.461,16.893,6.1,24.016-11.564,28.658-15.213,16.345-14.089,24.33-11.93l.871-7.55s-.784-3.387-7.611-2.473-9.509,4.807-11.712,4.807-4.284-2.116-8.708,5.442C203.4,297.616,187.874,300.368,180.986,298.635Z" transform="translate(-116.195 -159.938)" fill="#fff"/><path d="M200.06,174.75a31.175,31.175,0,0,0,.975,4.171,4.859,4.859,0,0,0,.871,1.837,5.63,5.63,0,0,0,3.353,1.28.915.915,0,0,1,.54.226.871.871,0,0,1,.131.522,6.966,6.966,0,0,1-1.184,3.849" transform="translate(-123.855 -145.407)" fill="none" stroke="#263238" stroke-linecap="round" stroke-linejoin="round" stroke-width="1"/><path d="M324.489,403l-7.219,9s7.924,7.323,16.127,10.04,22.562,7.837,24.966,11.782l-.923-4.694s-22.458-13.776-27.613-17.068A11.9,11.9,0,0,1,324.489,403Z" transform="translate(-157.987 -174.455)" opacity="0.1"/><path d="M354.34,422.431l14.377,8.159s7.1-4.859,10.58-8.438,7.776-7.55,10.45-15.57c3.649-11.085,14.1-16.362,14.1-16.362s-14.534,6.844-22.1,12.191-14.943,7.611-19.227,7.245C362.473,409.682,365.913,420.567,354.34,422.431Z" transform="translate(-170.492 -173.792)" opacity="0.1"/><path d="M194.24,190.67s5.651,4.432,11.521,2.769C205.761,193.439,200.222,204.411,194.24,190.67Z" transform="translate(-122.615 -147.464)" fill="#fff" stroke="#263238" stroke-linecap="round" stroke-linejoin="round" stroke-width="1"/><path d="M193.663,179.363c.165,1.219-.209,2.273-.819,2.36s-1.245-.871-1.411-2.064.2-2.273.819-2.36S193.533,178.144,193.663,179.363Z" transform="translate(-121.47 -145.736)" fill="#263238"/><path d="M207.794,176.814c.157,1.228-.209,2.281-.819,2.36s-1.254-.871-1.411-2.055.2-2.281.819-2.36S207.628,175.6,207.794,176.814Z" transform="translate(-125.087 -145.408)" fill="#263238"/><path d="M192.164,173.671s-3.292-1.7-5.634,1.942" transform="translate(-120.361 -145.217)" fill="none" stroke="#263238" stroke-linecap="round" stroke-linejoin="round" stroke-width="1"/><path d="M202.69,170.933s3.483-2.987,5.495,0" transform="translate(-124.514 -144.743)" fill="none" stroke="#263238" stroke-linecap="round" stroke-linejoin="round" stroke-width="1"/><path d="M179.126,186.15s-2.116-3.126-4.354-3.03-3.126,3.231-2.325,6.261,4.136,7.262,6.662,6.862a5.608,5.608,0,0,0,3.631-2.02" transform="translate(-116.836 -146.488)" fill="none" stroke="#263238" stroke-linecap="round" stroke-linejoin="round" stroke-width="1"/><path d="M201.795,159.13c2.377,1.977,4.894,4.128,6.1,7.036,1.062,2.473,1.3,5.225,2.273,7.724,1.036,2.673,2.168,5.469,2.255,8.386a35.52,35.52,0,0,1-1.054,8,44.106,44.106,0,0,1-1.611,6.7,11.85,11.85,0,0,1-6.252,6.531c-2.116,1.08-5.643,2.612-7.933,1.167-1.332-.871-3.335-3.361-5-5.651" transform="translate(-122.143 -143.389)" fill="none" stroke="#263238" stroke-linecap="round" stroke-linejoin="round" stroke-width="1"/><path d="M180.16,198.19s3.744,9.178,2.839,15.631" transform="translate(-118.621 -148.436)" fill="none" stroke="#263238" stroke-linecap="round" stroke-linejoin="round" stroke-width="1"/><path d="M176.695,179.174a3.605,3.605,0,0,0,1.446-3.231c-.139-1.411-1.115-2.717-.923-4.128a7.6,7.6,0,0,1,.749-1.933,8.107,8.107,0,0,0-.453-7.332s11.9.557,17.468-2.987,9.823-12.609,6.453-16.937-9.936,1.576-14.8,2.229-22.179,3.413-24.94,10.084,1.446,9.065,1.576,15.43.131,18.426,9.648,17.32c0,0-3.562-4.606-1.088-9.352C173.508,176.344,176.695,179.174,176.695,179.174Z" transform="translate(-114.947 -141.053)" fill="#263238"/><path d="M204.987,151.5a14.926,14.926,0,0,1,5.695,10.45c.531,4.772,9,14.046,2.891,19.332,0,0-1.419-5.617-2.255-8.386s-1.907-7.837-3.309-9.579-8.839-7.837-8.839-7.837Z" transform="translate(-124.152 -142.403)" fill="#263238"/><path d="M180.641,215.082s5.869,3.866,16.771,4.023l1.28,14.621s-12.261-.932-21.378-9.318c0,0-2.464-6.522-1.811-9.326s6.514-5.582,6.514-5.582" transform="translate(-118.175 -149.897)" fill="none" stroke="#263238" stroke-linecap="round" stroke-linejoin="round" stroke-width="1"/><path d="M208.569,208.244l.348,5.225a21.613,21.613,0,0,1-8.238,5.355l6.827,13s8.142-6.339,8.952-13c0,0,.07-6.818-1.35-8.769s-6.592-2.865-6.592-2.865" transform="translate(-124.506 -149.599)" fill="none" stroke="#263238" stroke-linecap="round" stroke-linejoin="round" stroke-width="1"/><path d="M171.8,159.887c.871-2.186,3.257-3.483,5.582-3.831a57.832,57.832,0,0,1,7.062-.165,18.13,18.13,0,0,0,9.23-2.612,12.339,12.339,0,0,0,5.573-7.628" transform="translate(-117.384 -141.647)" fill="none" stroke="#fff" stroke-linecap="round" stroke-linejoin="round" stroke-width="1" opacity="0.8"/><path d="M165.35,159.872c1.472-4.467,6.244-7.228,10.937-7.619,2.325-.2,4.676.07,6.966-.2s4.728-1.228,5.939-3.222" transform="translate(-115.521 -142.058)" fill="none" stroke="#fff" stroke-linecap="round" stroke-linejoin="round" stroke-width="1" opacity="0.8"/><path d="M158.735,311.219c-11.32,5.869-15.343-.174-21.648-5.173s-2.168-13.933-3.483-28.257,1.959-38.689,1.959-38.689,2.821-.644,10.65-5.434,24.3-12.087,24.3-12.087" transform="translate(-102.06 -151.458)" fill="none" stroke="#263238" stroke-linecap="round" stroke-linejoin="round" stroke-width="1"/><path d="M171.589,298.753s-1.794-5.686-6.862-5.834-13.062,2.133-18.757,12.905" transform="translate(-103.698 -160.675)" fill="none" stroke="#263238" stroke-linecap="round" stroke-linejoin="round" stroke-width="1"/><path d="M164.114,292.3a2.8,2.8,0,0,1-.914-.218,22.04,22.04,0,0,0-13.01-.592" transform="translate(-111.216 -160.4)" fill="none" stroke="#263238" stroke-linecap="round" stroke-linejoin="round" stroke-width="1"/><path d="M146.84,250.63c9.222,10.188,13.715,23.668,17.973,36.73" transform="translate(-110.44 -155.211)" fill="none" stroke="#263238" stroke-linecap="round" stroke-linejoin="round" stroke-width="1"/><path d="M218.8,219s16.719,3.988,24.887,4.937,9.492,2.09,9.492,2.09l1.524,5.695" transform="translate(-130.574 -151.125)" fill="none" stroke="#263238" stroke-linecap="round" stroke-linejoin="round" stroke-width="1"/><path d="M299.131,230.38l-56.941,2.186-4.65,58.561h9.753l49.444-11.068,6.217-48.277Z" transform="translate(-138.428 -152.595)" fill="#fff"/><path d="M240.94,293.273l62.279-59.693-6.043,46.892Z" transform="translate(-139.09 -153.008)" fill="#40a0c0"/><path d="M240.94,293.273l62.279-59.693-6.043,46.892Z" transform="translate(-139.09 -153.008)" fill="#fff" opacity="0.7"/><path d="M240.94,291.5l4.981-56.488,57.472-3.022-6.217,48.277Z" transform="translate(-139.108 -152.803)" fill="none" stroke="#263238" stroke-linecap="round" stroke-linejoin="round" stroke-width="1"/><path d="M283.82,262.436c-.383,3.44-2.221,6.052-4.1,5.843s-3.083-3.178-2.7-6.618,2.229-6.052,4.11-5.843S284.212,259,283.82,262.436Z" transform="translate(-143.744 -155.88)" fill="#263238"/><path d="M298.508,287.425s26.315-.749,34.544,4.685,13.062,32.681,11.921,47.153-11.068,47.685-11.068,47.685l-19.018-21.526s-9.37-34.065-4.258-47.406c0,0-25.253,1.419-35.2-1.7,0,0-8.908-14.586-24.182-19.41Z" transform="translate(-146.227 -159.961)" fill="#263238"/><path d="M329.231,388.7a130.459,130.459,0,0,1-18.1-20.9,172.189,172.189,0,0,0-35.015-38.515c-10.545-8.551-12.931-22.484-25.941-29.476-21.552-11.555-40.187,11.407-47.153,16.057S184,325.789,184,325.789s4.406,16.545,17.346,18.5,26.028-6.966,32.219-2.656,10.772,23.555,31.218,34.832c16.711,9.213,39.482,18.2,51.229,24.26,2.612,1.358,4.563,2.787,6.043,3.6,4.058,2.212,8.394,4.815,12.487,7.393l14.1,8.586s14.15-8.368,19.584-16.084c.723-1.036,2.229-3.8,3.64-6.461,3.074-5.826,6.966-11.05,12.357-13.933,3.727-2.012,7.045-2.612,6.966-2.821-.357-.662-7.114-4.119-11.7-2.229-9.718,4.014-29.145,19.436-38.315,18.287A68.645,68.645,0,0,1,329.231,388.7Z" transform="translate(-149.431 -161.151)" fill="none" stroke="#263238" stroke-miterlimit="10" stroke-width="1"/><path d="M329.231,388.708c-8.473,3.422-11.886,8.708-13.192,12.034-11.747-6.1-34.518-15.047-51.229-24.26-20.446-11.32-24.992-30.53-31.218-34.832s-19.323,4.65-32.219,2.656S184,325.785,184,325.785s12.069-5.225,19.036-9.875,23.033-27.622,47.145-16.057c13.314,6.383,15.4,20.9,25.941,29.476a172.059,172.059,0,0,1,35.015,38.515,128,128,0,0,0,18.1,20.864Z" transform="translate(-130.963 -161.156)" fill="#263238"/><path d="M275.14,315.242s-6.522-13.253-16.98-15.822" transform="translate(-139.678 -161.515)" fill="none" stroke="#fff" stroke-linecap="round" stroke-linejoin="round" stroke-width="1"/><path d="M228.358,287.259c-7.193-1.567-15.091,6.383-18.417,4.894-2.473-1.106-6.54,5.442-6.54,5.442a108.944,108.944,0,0,1-20.22,1.019c-9.692-.618-14.281,1.271-17.712,6.453l-4.789,12.687s12.635,11.32,26.124,4.728,31.41-26.481,43.757-26.411" transform="translate(-116.153 -159.918)" fill="none" stroke="#263238" stroke-linecap="round" stroke-linejoin="round" stroke-width="1"/><path d="M353.71,424.87s11.808.967,9.039-13.14" transform="translate(-163.853 -176.027)" fill="none" stroke="#263238" stroke-miterlimit="10" stroke-width="1"/><path d="M414.491,400.661c-.871,1.742-11.695,10.955-21.021,19.009,0-.122,2.612-5.042,3.692-7.141,2.482-4.633,8.891-17.337,21.091-19.009C419.986,394.565,414.491,400.661,414.491,400.661Z" transform="translate(-176.496 -173.674)" fill="#263238"/><path d="M406.928,390.33c-12.339,2.456-15.143,18.287-19.523,25.018s-16.545,15.883-16.545,15.883" transform="translate(-173.575 -173.262)" fill="none" stroke="#263238" stroke-miterlimit="10" stroke-width="1"/><path d="M356.974,429.227c2.012,3.675,1.062,7.942,0,10.615a22.155,22.155,0,0,1-1.933,3.805c-17.468-2.874-34.936-12.261-34.936-12.261l-4.5-13.933-.723-2.229,6.783-9.135" transform="translate(-157.777 -175.298)" fill="none" stroke="#263238" stroke-miterlimit="10" stroke-width="1"/><path d="M357.081,441.528a22.155,22.155,0,0,1-1.933,3.805c-17.468-2.874-34.936-12.261-34.936-12.261l-4.5-13.933a24.906,24.906,0,0,0,12.7,9.021C336.923,430.574,352.623,433.395,357.081,441.528Z" transform="translate(-157.752 -176.984)" fill="#263238"/><path d="M237.54,289.089l4.65-56.523,56.941-2.186,3.823,1.4" transform="translate(-138.428 -152.595)" fill="none" stroke="#263238" stroke-linecap="round" stroke-linejoin="round" stroke-width="1"/><path d="M364,416.183s7.785,1.393,13.767-3.483,15.622-15.909,15.622-15.909" transform="translate(-172.689 -174.096)" fill="none" stroke="#263238" stroke-miterlimit="10" stroke-width="1"/><path d="M372.976,411s-1.881,2.83,0,8.508" transform="translate(-173.74 -175.932)" fill="none" stroke="#263238" stroke-linecap="round" stroke-linejoin="round" stroke-width="1"/><path d="M379.366,407.89a11.59,11.59,0,0,0,.705,8.508" transform="translate(-174.61 -175.531)" fill="none" stroke="#263238" stroke-linecap="round" stroke-linejoin="round" stroke-width="1"/><path d="M386.9,403.51s-1.576,4.728,0,8.9" transform="translate(-175.557 -174.965)" fill="none" stroke="#263238" stroke-linecap="round" stroke-linejoin="round" stroke-width="1"/><path d="M323.514,404.74l-6.244,7.515a39.512,39.512,0,0,0,15.161,9.727c8.873,2.856,24.722,7.707,26.037,12.87" transform="translate(-158.16 -175.124)" fill="none" stroke="#263238" stroke-miterlimit="10" stroke-width="1"/></g></g></svg>