<svg xmlns="http://www.w3.org/2000/svg" width="510.898" height="319.677" viewBox="0 0 510.898 319.677"><path d="M58.733,216.415s-6.246-.456-5.67,13.561A158.483,158.483,0,0,0,55.1,251.459s-.187,3.1-2.588,2.5-6.942-3.635-9.171-1.376-1.5,5.939,1.578,10.18,9.432,13.763,10.023,14.624.785,2.439-.92,2.289-13.217-4.062-14.743,1.5,8.976,15.963,10.113,17.122,1.182,1.892.748,2.588-4.2-.972-7.525-1.952-7.338-1.5-7.951,1.765S38.642,313.641,56,323.762l8.333,4.159,7.892-5.034c16.239-11.8,19.882-21.849,18.947-25.058s-4.885-2.244-8.093-.965-6.769,3.351-7.293,2.7-.539-1.384.471-2.655,10.42-12.656,8.348-18.049-13.143-.359-14.826-.037-1.616-1.279-1.137-2.177,5.894-11.041,8.535-15.559,3.1-8.183.554-10.285-6.65,1.436-8.976,2.281-2.827-2.244-2.827-2.244a162.7,162.7,0,0,0-.157-21.573c-.83-14-7.151-12.873-7.151-12.873" transform="translate(-34.609 -79.806)" fill="#ebebeb"/><path d="M67.519,233.21v.292c0,.195.037.494.06.86.052.748.135,1.885.224,3.306.194,2.88.441,7.039.748,12.178.569,10.285,1.242,24.5,1.922,40.206s1.324,29.92,1.833,40.213c.262,5.131.471,9.29.621,12.185.075,1.429.127,2.536.165,3.314a5.5,5.5,0,0,0,.037.86,2.85,2.85,0,0,1,0,.292,1.744,1.744,0,0,0-.037-.292c-.037-.194,0-.494-.06-.86-.052-.748-.135-1.885-.224-3.306-.194-2.872-.441-7.039-.748-12.178-.568-10.285-1.242-24.5-1.922-40.213s-1.324-29.92-1.833-40.206c-.262-5.131-.471-9.29-.621-12.185-.075-1.429-.127-2.536-.165-3.314v-.86A2.855,2.855,0,0,1,67.519,233.21Z" transform="translate(-42.901 -84.049)" fill="#e0e0e0"/><path d="M54.47,270.78a2.431,2.431,0,0,1,.524.426c.322.292.748.748,1.324,1.272,1.1,1.092,2.581,2.64,4.181,4.376l4.077,4.488,1.242,1.346a3.123,3.123,0,0,1,.434.516,2.661,2.661,0,0,1-.524-.426c-.322-.292-.748-.748-1.316-1.279-1.092-1.1-2.551-2.663-4.151-4.4l-4.107-4.436L54.9,271.326a3.125,3.125,0,0,1-.434-.546Z" transform="translate(-39.614 -93.517)" fill="#e0e0e0"/><path d="M71.33,282.267c-.067-.067,2.992-3.261,6.807-7.136s6.979-6.971,7.039-6.912-2.992,3.261-6.814,7.136S71.389,282.32,71.33,282.267Z" transform="translate(-43.862 -92.871)" fill="#e0e0e0"/><path d="M71.28,316.218a2.657,2.657,0,0,1,.583-.366l1.631-.92c1.376-.748,3.269-1.848,5.318-3.1s3.875-2.461,5.191-3.336l1.556-1.04a3.173,3.173,0,0,1,.591-.352,5.943,5.943,0,0,1-.516.456c-.344.277-.86.658-1.5,1.122-1.279.928-3.089,2.162-5.146,3.418s-3.979,2.311-5.386,3.037c-.7.359-1.279.643-1.683.823a2.677,2.677,0,0,1-.643.262Z" transform="translate(-43.85 -102.669)" fill="#e0e0e0"/><path d="M52.81,308a2.065,2.065,0,0,1,.576.269c.359.187.883.479,1.5.838,1.272.748,2.992,1.735,4.929,2.872s3.635,2.192,4.877,2.992c.621.381,1.122.7,1.5.927a2.527,2.527,0,0,1,.516.374,2.183,2.183,0,0,1-.576-.269l-1.5-.838c-1.272-.748-2.992-1.743-4.929-2.88s-3.635-2.184-4.877-2.955c-.621-.389-1.122-.7-1.5-.928a2.848,2.848,0,0,1-.516-.4Z" transform="translate(-39.196 -102.896)" fill="#e0e0e0"/><path d="M49.15,336.5a3.739,3.739,0,0,1,.748.351l1.937,1.077c1.631.913,3.875,2.2,6.343,3.635s4.7,2.745,6.3,3.74l1.892,1.152a4.2,4.2,0,0,1,.666.464,3.742,3.742,0,0,1-.748-.352L64.35,345.5c-1.631-.92-3.875-2.2-6.343-3.635s-4.7-2.753-6.3-3.74l-1.922-1.159a3.666,3.666,0,0,1-.636-.464Z" transform="translate(-38.274 -110.078)" fill="#e0e0e0"/><path d="M72.56,345.84a4.639,4.639,0,0,1,.748-.486l2.027-1.234c1.713-1.04,4.069-2.491,6.627-4.159s4.847-3.231,6.485-4.376l1.952-1.354a4.614,4.614,0,0,1,.748-.471,5.56,5.56,0,0,1-.666.568c-.441.352-1.085.838-1.892,1.436-1.608,1.2-3.875,2.8-6.44,4.488s-4.944,3.089-6.687,4.084c-.875.494-1.586.89-2.079,1.145a4.405,4.405,0,0,1-.823.359Z" transform="translate(-44.173 -109.387)" fill="#e0e0e0"/><path d="M81.549,369.15H58.48l7.525,57h8.011Z" transform="translate(-40.625 -118.305)" fill="#e0e0e0"/><path d="M60.08,377.745s0,.075.12.2a1.5,1.5,0,0,0,.561.4,2.79,2.79,0,0,0,2.431-.3c.935-.516,1.743-1.5,2.992-1.967a6.53,6.53,0,0,1,4.249.082,18.1,18.1,0,0,1,3.949,1.945,27.247,27.247,0,0,0,3.209,1.72,8.932,8.932,0,0,0,2.371.688,5.239,5.239,0,0,0,.666.045h.239a11.786,11.786,0,0,1-3.164-.95,30.246,30.246,0,0,1-3.142-1.78,17.2,17.2,0,0,0-4.024-1.975,6.8,6.8,0,0,0-4.488-.052,5.8,5.8,0,0,0-1.683,1.047,12.631,12.631,0,0,1-1.324,1.017,2.73,2.73,0,0,1-2.244.4,2.52,2.52,0,0,1-.718-.516Z" transform="translate(-41.028 -119.891)" fill="#f5f5f5"/><path d="M61.2,391.141s.187-.232.546-.613a5.131,5.131,0,0,1,1.84-1.167,8.333,8.333,0,0,1,3.209-.486,34.626,34.626,0,0,1,4.017.546,13.465,13.465,0,0,0,4.107.172,11.22,11.22,0,0,0,3.239-.92,10.151,10.151,0,0,0,1.945-1.159,2.581,2.581,0,0,0,.613-.554,20.806,20.806,0,0,1-2.663,1.5,11.647,11.647,0,0,1-3.172.823,13.943,13.943,0,0,1-4.009-.194,29.641,29.641,0,0,0-4.062-.524,8.071,8.071,0,0,0-3.321.583,4.772,4.772,0,0,0-1.848,1.316,2.994,2.994,0,0,0-.352.509.644.644,0,0,0-.09.172Z" transform="translate(-41.31 -122.793)" fill="#f5f5f5"/><path d="M80.077,399.526a2.244,2.244,0,0,0-.636-.329,6.793,6.793,0,0,0-1.915-.411,12.808,12.808,0,0,0-2.887.165c-1.077.179-2.244.471-3.441.748a14.674,14.674,0,0,1-3.441.389,7.48,7.48,0,0,1-2.723-.591A6.312,6.312,0,0,1,63,397.94a1.736,1.736,0,0,0,.389.6,4.758,4.758,0,0,0,1.571,1.182,7.4,7.4,0,0,0,2.82.7,13.694,13.694,0,0,0,3.531-.367c1.227-.262,2.371-.568,3.418-.748a13.181,13.181,0,0,1,2.82-.239,10.713,10.713,0,0,1,2.528.464Z" transform="translate(-41.764 -125.56)" fill="#f5f5f5"/><path d="M63.93,410.179a3.688,3.688,0,0,1,2.244-.224,11.011,11.011,0,0,1,2.349.875,8.975,8.975,0,0,0,3.037.838,9.14,9.14,0,0,0,5.52-1.279,8.093,8.093,0,0,0,1.376-1.055c.277-.3.419-.471.4-.494a19.821,19.821,0,0,1-1.915,1.316,9.469,9.469,0,0,1-5.348,1.137c-2.192-.09-3.875-1.429-5.371-1.586a3.382,3.382,0,0,0-1.735.15C64.079,409.992,63.915,410.164,63.93,410.179Z" transform="translate(-41.998 -128.307)" fill="#f5f5f5"/><path d="M65.65,424.187a4.488,4.488,0,0,0,1.922-.389c1.159-.382,2.6-1.272,4.271-1.937a7.01,7.01,0,0,1,2.453-.516,4.623,4.623,0,0,1,1.967.449,4.376,4.376,0,0,1,1.429,1.234,1.054,1.054,0,0,0-.224-.486,3.119,3.119,0,0,0-1.085-.98A4.488,4.488,0,0,0,74.289,421a6.806,6.806,0,0,0-2.588.509c-1.735.688-3.127,1.608-4.234,2.042S65.642,424.127,65.65,424.187Z" transform="translate(-42.431 -131.371)" fill="#f5f5f5"/><path d="M67.16,432.055a5.311,5.311,0,0,0,1.5.471,25.888,25.888,0,0,0,3.65.621,26.228,26.228,0,0,0,3.74.1,5.617,5.617,0,0,0,1.5-.18c0-.112-2.334,0-5.191-.3S67.19,431.943,67.16,432.055Z" transform="translate(-42.812 -134.153)" fill="#f5f5f5"/><path d="M660.31,49.044,617.846,33.8,575.785,48.842c-5.371,2.536-10.076,4.054-10.076,9.043V82.8a94.153,94.153,0,0,0,13.853,49.563,86.246,86.246,0,0,0,38.724,34.169c17.2-5.58,30.025-20.473,37.864-33.2a94.047,94.047,0,0,0,13.861-49.556v-22.4C669.982,54.243,666.2,50.765,660.31,49.044Z" transform="translate(-168.441 -33.8)" fill="#f5f5f5"/><path d="M618.287,152.083a68.7,68.7,0,0,1-30.616-27.257,74.457,74.457,0,0,1-10.958-39.211V68.149c0-3.957,2.386-7.667,7.129-9.881l34.042-12.716V33.8l-42.1,15.042c-4.413,1.93-10.076,4.054-10.076,9.058V82.8a94.153,94.153,0,0,0,13.853,49.563,86.246,86.246,0,0,0,38.724,34.169Z" transform="translate(-168.441 -33.8)" fill="#ebebeb"/><path d="M635.851,166.534a51.177,51.177,0,0,0,8.34-3.575,75.048,75.048,0,0,0,17.66-13.891,95.229,95.229,0,0,0,12.282-16.5A90.636,90.636,0,0,0,687.6,82.533V61.97c0-10.24-5.236-11-9.724-12.926L635.41,33.8V45.544l34.408,12.933c4.742,2.244,7.129,5.917,7.129,9.874V85.817a74.449,74.449,0,0,1-10.966,39.211c-6.194,10.076-15.364,20.466-30.13,27.056Z" transform="translate(-186.006 -33.8)" fill="#e0e0e0"/><path d="M641.277,96.724l.045-3.359a11.026,11.026,0,1,0-22.051,0l-.045,3.418a6.171,6.171,0,0,0-5.236,6.1V122.7a6.171,6.171,0,0,0,6.171,6.171h20.585a6.171,6.171,0,0,0,6.171-6.171V102.88a6.171,6.171,0,0,0-5.64-6.156Zm-8.041,21.034h-5.378l.838-3.89a3.276,3.276,0,1,1,3.561-.06ZM638.9,96.694H621.6l.045-3.329a8.654,8.654,0,0,1,17.3,0Z" transform="translate(-180.608 -46.032)" fill="#e0e0e0"/><path d="M589.241,93.7a13.765,13.765,0,0,1-.636-3.448,59.456,59.456,0,0,1-.344-8.46c.045-1.653.157-3.224.307-4.653a9.851,9.851,0,0,1,.95-3.74,4.361,4.361,0,0,1,1.855-1.87c.576-.269.935-.254.943-.217a4.847,4.847,0,0,0-2.334,2.319,10.354,10.354,0,0,0-.748,3.59c-.112,1.414-.2,2.992-.247,4.608-.1,3.276,0,6.246.127,8.393A19.777,19.777,0,0,1,589.241,93.7Z" transform="translate(-174.117 -43.248)" fill="#fff"/><path d="M590.278,114.2c-.209,0-.4-1.017-.419-2.289s.12-2.3.322-2.3.4,1.017.419,2.244S590.48,114.188,590.278,114.2Z" transform="translate(-174.527 -52.903)" fill="#fff"/><g transform="translate(0.891 307.694)"><path d="M545.808,445.344c0,.112-114.184.195-255,.195S35.8,445.457,35.8,445.344s114.154-.194,255.011-.194S545.808,445.24,545.808,445.344Z" transform="translate(-35.8 -445.15)" fill="#263238"/></g><g transform="translate(85.176 21.139)"><path d="M483.229,62.06H158.593A10.136,10.136,0,0,0,148.48,72.188V301.445a10.136,10.136,0,0,0,10.113,10.136h124.6s7.921,24.5-16.643,37.183H383.033s-27.714-9.507-20.608-37.183h120.8a10.136,10.136,0,0,0,10.128-10.136V72.188A10.128,10.128,0,0,0,483.229,62.06Z" transform="translate(-148.48 -62.06)" fill="#455a64"/><path d="M381.171,362.75c4.413,6.313-2.5,13.225-8.812,8.811a2.2,2.2,0,0,1-.539-.546c-4.406-6.306,2.5-13.21,8.8-8.8A2.331,2.331,0,0,1,381.171,362.75Z" transform="translate(-204.409 -137.344)" fill="#263238"/><path d="M163.218,67.67H482.379a7.256,7.256,0,0,1,7.256,7.256V271.054H156V74.926a7.256,7.256,0,0,1,7.218-7.256Z" transform="translate(-150.375 -63.474)" fill="#fff"/><path d="M162.814,67.67h321.2a5.625,5.625,0,0,1,5.6,5.625V84.568H156V74.514a6.844,6.844,0,0,1,6.814-6.844Z" transform="translate(-150.375 -63.474)" fill="#ebebeb"/><ellipse cx="2.341" cy="2.341" rx="2.341" ry="2.341" transform="translate(13.876 10.659)" fill="#e0e0e0"/><ellipse cx="2.341" cy="2.341" rx="2.341" ry="2.341" transform="translate(20.862 10.659)" fill="#e0e0e0"/><ellipse cx="2.341" cy="2.341" rx="2.341" ry="2.341" transform="translate(27.504 10.659)" fill="#e0e0e0"/><path d="M448.876,395.614c0,.112-46.19.195-103.15.195s-103.166-.082-103.166-.195,46.182-.194,103.166-.194S448.876,395.51,448.876,395.614Z" transform="translate(-172.187 -146.064)" fill="#263238"/><path d="M409.715,122.208,358.851,103.47l-50.378,18.491c-6.433,3.112-12.073,4.982-12.073,11.123v30.624a117.916,117.916,0,0,0,16.6,60.9c9.395,15.641,23.936,31.745,46.377,41.986,20.593-6.859,35.964-25.148,45.359-40.8a117.871,117.871,0,0,0,16.6-60.9V137.362C421.295,128.6,416.769,124.317,409.715,122.208Z" transform="translate(-185.754 -72.495)" fill="#40a0c0"/><g transform="translate(110.644 30.975)" opacity="0.8"><path d="M409.715,122.208,358.851,103.47l-50.378,18.491c-6.433,3.112-12.073,4.982-12.073,11.123v30.624a117.916,117.916,0,0,0,16.6,60.9c9.395,15.641,23.936,31.745,46.377,41.986,20.593-6.859,35.964-25.148,45.359-40.8a117.871,117.871,0,0,0,16.6-60.9V137.362C421.295,128.6,416.769,124.317,409.715,122.208Z" transform="translate(-296.398 -103.47)" fill="#fff"/></g><path d="M400.477,204.477h-9.35V153.612a21.718,21.718,0,0,0-43.437,0v50.865h-9.35V153.612a31.07,31.07,0,1,1,62.141,0Z" transform="translate(-196.323 -77.3)" fill="#40a0c0"/><g transform="translate(142.017 45.24)" opacity="0.4"><path d="M400.477,204.477h-9.35V153.612a21.718,21.718,0,0,0-43.437,0v50.865h-9.35V153.612a31.07,31.07,0,1,1,62.141,0Z" transform="translate(-338.34 -122.54)"/></g><rect width="83.74" height="53.722" rx="5.81" transform="translate(131.216 104.542)" fill="#40a0c0"/><g transform="translate(166.08 117.403)" opacity="0.5"><path d="M384.512,226.02a7,7,0,1,0-8.909,6.732v10.472h3.822V232.752a6.979,6.979,0,0,0,5.087-6.732Z" transform="translate(-370.509 -219.014)"/></g><path d="M329.754,253.348c-.194,0-.344-8.976-.344-20.009s.15-20.009.344-20.009.352,8.976.352,20.009S329.949,253.348,329.754,253.348Z" transform="translate(-194.073 -100.179)" fill="#fafafa"/><path d="M370.995,234.328a3.267,3.267,0,0,1-.823-.464,8.4,8.4,0,0,1-1.8-1.84,9.806,9.806,0,0,1,3.486-14.721,8.6,8.6,0,0,1,2.468-.83,2.244,2.244,0,0,1,.943-.052,21.222,21.222,0,0,0-3.142,1.316,9.724,9.724,0,0,0-3.314,14.01,20.708,20.708,0,0,0,2.184,2.581Z" transform="translate(-203.388 -100.951)" fill="#fafafa"/><path d="M419.144,265.075s.2-.284.606-.815l.337-.449c.12-.172.224-.374.344-.591a8.853,8.853,0,0,0,.748-1.533c.12-.307.262-.621.382-.965s.2-.748.307-1.107a6.932,6.932,0,0,0,.254-1.234,12.7,12.7,0,0,0,.194-1.361,26.1,26.1,0,0,0-.3-6.56c-.748-4.914-2.842-10.689-6.029-16.972a132.229,132.229,0,0,0-12.941-20.121,206.01,206.01,0,0,0-19.3-21.692,235.726,235.726,0,0,0-25.328-21.625c-4.735-3.471-9.724-6.844-14.96-10.023a145.775,145.775,0,0,0-16.636-8.722,77.792,77.792,0,0,0-18.506-5.8,32.846,32.846,0,0,0-9.874-.247,18.619,18.619,0,0,0-4.765,1.384,11.878,11.878,0,0,0-6.485,7.233,18.417,18.417,0,0,0-.83,4.892,32.719,32.719,0,0,0,1.354,9.784,77.609,77.609,0,0,0,7.869,17.728,145.264,145.264,0,0,0,10.562,15.544c3.74,4.862,7.674,9.432,11.661,13.733a235.774,235.774,0,0,0,24.37,22.717,207.083,207.083,0,0,0,23.734,16.7,132.266,132.266,0,0,0,21.46,10.562c6.6,2.453,12.581,3.86,17.548,4.054a25.509,25.509,0,0,0,6.553-.449,13.181,13.181,0,0,0,1.324-.337,8.738,8.738,0,0,0,1.2-.4l1.062-.434c.329-.157.628-.337.913-.486a9.667,9.667,0,0,0,1.444-.942c.195-.15.389-.269.546-.4l.4-.389.748-.7-.711.748-.4.4c-.157.135-.344.262-.546.419a9.724,9.724,0,0,1-1.436.957c-.284.157-.583.337-.913.5l-1.07.441a7.575,7.575,0,0,1-1.2.4,13.29,13.29,0,0,1-1.331.359,25.932,25.932,0,0,1-6.583.486c-4.989-.172-10.988-1.571-17.616-4a131.864,131.864,0,0,1-21.528-10.539,203.889,203.889,0,0,1-23.794-16.688,235.347,235.347,0,0,1-24.43-22.717c-4-4.309-7.929-8.886-11.691-13.756a146.3,146.3,0,0,1-10.6-15.574,78.3,78.3,0,0,1-7.914-17.818A33.145,33.145,0,0,1,286,158.768a18.518,18.518,0,0,1,.853-5,12.222,12.222,0,0,1,6.665-7.48,18.627,18.627,0,0,1,4.87-1.414,32.911,32.911,0,0,1,9.993.247,77.71,77.71,0,0,1,18.6,5.834,143.46,143.46,0,0,1,16.621,8.774c5.236,3.187,10.263,6.568,14.96,10.046a236.454,236.454,0,0,1,25.35,21.692A206.1,206.1,0,0,1,403.189,213.2a132.177,132.177,0,0,1,12.918,20.2c3.171,6.306,5.236,12.11,5.984,17.04a25.9,25.9,0,0,1,.262,6.6,12.542,12.542,0,0,1-.194,1.369,8.647,8.647,0,0,1-.269,1.242c-.112.389-.217.748-.314,1.114a8.337,8.337,0,0,1-.4.965,8.547,8.547,0,0,1-.793,1.533c-.127.217-.232.419-.352.591l-.352.441C419.331,264.813,419.144,265.075,419.144,265.075Z" transform="translate(-183.132 -82.86)" fill="#40a0c0"/><path d="M437.418,217.656s-.037-.344-.09-1.01a3.906,3.906,0,0,0-.045-.561,4.283,4.283,0,0,0-.135-.673,9.287,9.287,0,0,0-.449-1.661c-.112-.307-.217-.636-.352-.972s-.337-.666-.516-1.032a7.839,7.839,0,0,0-.658-1.115c-.247-.359-.456-.748-.748-1.137a25.852,25.852,0,0,0-4.593-4.7,59.176,59.176,0,0,0-15.79-8.654,132.6,132.6,0,0,0-23.054-6.4,205.988,205.988,0,0,0-28.828-3.329,236.374,236.374,0,0,0-33.3.748c-5.842.553-11.811,1.361-17.848,2.491a145.19,145.19,0,0,0-18.221,4.563A77.935,77.935,0,0,0,275.1,202.2a32.912,32.912,0,0,0-7.48,6.388,18.293,18.293,0,0,0-2.633,4.2,11.871,11.871,0,0,0,0,9.724,18.55,18.55,0,0,0,2.633,4.2,32.711,32.711,0,0,0,7.48,6.351,77.793,77.793,0,0,0,17.683,8A144.548,144.548,0,0,0,311,245.632c6.036,1.137,12.006,1.937,17.847,2.491a235.247,235.247,0,0,0,33.3.748,205.859,205.859,0,0,0,28.828-3.329,132.225,132.225,0,0,0,23.054-6.4c6.56-2.566,11.968-5.5,15.79-8.654a25.6,25.6,0,0,0,4.593-4.7,12.6,12.6,0,0,0,.748-1.137,7.428,7.428,0,0,0,.628-1.092l.516-1.032c.135-.337.239-.666.352-.972a9.289,9.289,0,0,0,.449-1.661c.045-.239.1-.464.135-.666s0-.4.045-.561c.052-.673.09-1.01.09-1.01s0,.344-.052,1.01v.568a4.209,4.209,0,0,1-.127.673,9.365,9.365,0,0,1-.434,1.668c-.112.314-.209.643-.352.987l-.5,1.04a7.8,7.8,0,0,1-.628,1.1c-.247.367-.456.785-.748,1.159a25.661,25.661,0,0,1-4.6,4.742,58.957,58.957,0,0,1-15.805,8.737,132.534,132.534,0,0,1-23.091,6.448,206.044,206.044,0,0,1-28.866,3.389,235.8,235.8,0,0,1-33.354-.7c-5.849-.554-11.826-1.354-17.885-2.483a145.865,145.865,0,0,1-18.266-4.563A78.16,78.16,0,0,1,274.9,233.4a33.4,33.4,0,0,1-7.615-6.47,18.7,18.7,0,0,1-2.693-4.309,12.26,12.26,0,0,1,0-10,18.909,18.909,0,0,1,2.693-4.3,33.053,33.053,0,0,1,7.622-6.463,77.793,77.793,0,0,1,17.765-8.026,144.583,144.583,0,0,1,18.266-4.57c6.051-1.129,12.028-1.93,17.877-2.483a235.757,235.757,0,0,1,33.354-.688,204.95,204.95,0,0,1,28.873,3.4,132.252,132.252,0,0,1,23.076,6.47c6.568,2.6,11.968,5.55,15.813,8.737a25.924,25.924,0,0,1,4.585,4.75,12.754,12.754,0,0,1,.748,1.152,8.744,8.744,0,0,1,.628,1.1l.5,1.047c.142.337.239.673.352.98a9.261,9.261,0,0,1,.434,1.676c.045.239.1.464.127.673a3.5,3.5,0,0,1,0,.561A6.961,6.961,0,0,1,437.418,217.656Z" transform="translate(-177.47 -93.24)" fill="#40a0c0"/><path d="M415.746,131.254s-.3-.18-.853-.546l-.471-.307c-.18-.1-.4-.194-.613-.307a9.487,9.487,0,0,0-1.586-.658c-.314-.1-.636-.224-.987-.322l-1.144-.254a7.986,7.986,0,0,0-1.249-.172c-.441,0-.89-.112-1.369-.1a26.18,26.18,0,0,0-6.53.748c-4.84,1.092-10.472,3.568-16.509,7.181a132.027,132.027,0,0,0-19.186,14.294,205.783,205.783,0,0,0-20.293,20.742,236.236,236.236,0,0,0-19.83,26.764c-3.142,4.959-6.164,10.165-8.976,15.633a146.019,146.019,0,0,0-7.555,17.2,77.709,77.709,0,0,0-4.488,18.865,32.629,32.629,0,0,0,.441,9.866,18.252,18.252,0,0,0,1.705,4.66,11.856,11.856,0,0,0,7.66,5.947,18.274,18.274,0,0,0,4.937.494,32.709,32.709,0,0,0,9.664-2.027,77.789,77.789,0,0,0,17.152-9.073,144.819,144.819,0,0,0,14.773-11.609c4.593-4.077,8.886-8.3,12.9-12.581a235.477,235.477,0,0,0,20.944-25.874,205.832,205.832,0,0,0,15.057-24.8A132.691,132.691,0,0,0,418.4,162.88c1.99-6.732,2.992-12.813,2.835-17.78a25.586,25.586,0,0,0-.9-6.508,12.628,12.628,0,0,0-.434-1.3,7.9,7.9,0,0,0-.471-1.167c-.179-.359-.344-.748-.5-1.032s-.381-.606-.553-.875a9.272,9.272,0,0,0-1.04-1.376c-.157-.187-.3-.367-.441-.516l-.419-.381c-.494-.449-.748-.688-.748-.688l.748.658.419.374c.15.15.292.329.456.516a8.37,8.37,0,0,1,1.055,1.369c.18.277.382.561.569.875l.509,1.032a7.58,7.58,0,0,1,.494,1.174c.135.419.337.838.441,1.309a25.987,25.987,0,0,1,.942,6.53c.172,4.989-.808,11.071-2.783,17.848a132.175,132.175,0,0,1-9.021,22.208,206,206,0,0,1-15.013,24.886A235.843,235.843,0,0,1,373.6,235.968c-4.024,4.294-8.318,8.527-12.918,12.619a144.951,144.951,0,0,1-14.811,11.639,77.675,77.675,0,0,1-17.2,9.118,32.808,32.808,0,0,1-9.836,2.057,18.872,18.872,0,0,1-5.049-.509,12.245,12.245,0,0,1-7.906-6.134,18.609,18.609,0,0,1-1.743-4.765,33.164,33.164,0,0,1-.449-9.978,78.1,78.1,0,0,1,4.54-18.962,145.724,145.724,0,0,1,7.585-17.2c2.813-5.475,5.842-10.689,8.976-15.656a235.966,235.966,0,0,1,19.882-26.779,206.061,206.061,0,0,1,20.361-20.742,131.651,131.651,0,0,1,19.306-14.332c6.074-3.605,11.721-6.066,16.591-7.143a25.5,25.5,0,0,1,6.56-.748,13.189,13.189,0,0,1,1.376.1,8.063,8.063,0,0,1,1.257.18l1.137.239c.352.1.673.224.987.329a8.906,8.906,0,0,1,1.586.681c.224.112.434.209.613.314l.464.314C415.47,131.052,415.746,131.254,415.746,131.254Z" transform="translate(-187.544 -78.789)" fill="#40a0c0"/><ellipse cx="3.224" cy="3.224" rx="3.224" ry="3.224" transform="translate(79.798 159.311)" fill="#ee7a15"/><path d="M503.608,141.611a3.224,3.224,0,1,1-.942-2.285,3.224,3.224,0,0,1,.942,2.285Z" transform="translate(-236.344 -81.292)" fill="#ee7a15"/><path d="M289.186,290.2a.823.823,0,1,1-.815-.823.823.823,0,0,1,.815.823Z" transform="translate(-183.522 -119.342)" fill="#ee7a15"/><path d="M312.576,169.383a.823.823,0,1,1-.823-.823A.823.823,0,0,1,312.576,169.383Z" transform="translate(-189.416 -88.897)" fill="#ee7a15"/><path d="M483.566,228.113a.815.815,0,1,1-.236-.581.823.823,0,0,1,.236.581Z" transform="translate(-232.504 -103.696)" fill="#ee7a15"/><path d="M498.8,177.025a.823.823,0,1,1-.815-.815A.823.823,0,0,1,498.8,177.025Z" transform="translate(-236.341 -90.825)" fill="#ee7a15"/></g><g transform="translate(404.718 137.342)"><path d="M675.52,339.486a27.982,27.982,0,0,1,11.968-4.107c1.945-.2,4.077-.142,5.647,1.04a1.159,1.159,0,0,1,.576,1.032,1.242,1.242,0,0,1-.554.7,17.056,17.056,0,0,1-17.608,1.331" transform="translate(-600.831 -247.115)" fill="#40a0c0"/><path d="M675.93,334.145a58.431,58.431,0,0,0,7.712-6.784,19.539,19.539,0,0,0,4.832-8.939,3.613,3.613,0,0,0-.381-2.992c-6.149,4.8-10.973,11.011-12.163,18.7" transform="translate(-600.935 -242.11)" fill="#40a0c0"/><path d="M673.534,334.616a27.887,27.887,0,0,0-.15-10.121A13.682,13.682,0,0,0,668,316.14c-1.062,2.483-.606,5.341.142,7.936a38.547,38.547,0,0,0,5.341,11.257" transform="translate(-598.778 -242.289)" fill="#40a0c0"/><path d="M667.55,355.27a17.651,17.651,0,0,1,9.575,4.847,18.124,18.124,0,0,1,5.475,9.4c-3.59-.217-6.627-2.745-8.841-5.588s-3.74-5.947-6.156-8.595" transform="translate(-598.823 -252.149)" fill="#40a0c0"/><path d="M664.5,350.056a23.622,23.622,0,0,0-2.723-22.336c-2.087,7.413-1.317,15.783,2.723,22.336" transform="translate(-597.086 -245.207)" fill="#40a0c0"/><path d="M655.142,370.239a17.07,17.07,0,0,1,16.337,9.395c.2.4.381.92.112,1.279a1.219,1.219,0,0,1-1.085.322c-3.216-.209-6.066-2.147-8.415-4.346s-4.406-4.75-7-6.657" transform="translate(-595.683 -255.913)" fill="#40a0c0"/><path d="M653.78,361.943a30.421,30.421,0,0,0,.307-16.98c-.6-2.192-1.608-4.488-3.628-5.513a.7.7,0,0,0-.554-.1.748.748,0,0,0-.351.4,10.232,10.232,0,0,0-.853,4.87,30.663,30.663,0,0,0,.748,4.937c.636,2.992.972,6.253,2.625,8.849a18.072,18.072,0,0,1,1.055,1.945c.314.666.314.9.6,1.421" transform="translate(-594.067 -248.134)" fill="#40a0c0"/><path d="M625.389,367.457a21.868,21.868,0,0,0-3.837-18c-.269-.359-.636-.748-1.085-.7-.7.067-.868.98-.838,1.676a32.531,32.531,0,0,0,5.76,17.032" transform="translate(-586.746 -250.505)" fill="#40a0c0"/><path d="M617.553,373.394a26.181,26.181,0,0,1-21.483-4.368A17.376,17.376,0,0,1,607.7,367.6c3.882.89,7.435,2.633,9.851,5.8" transform="translate(-580.811 -255.148)" fill="#40a0c0"/><path d="M616.081,366.41a24.814,24.814,0,0,0-19.5-11.28,12.014,12.014,0,0,0,6.381,7.054,35.361,35.361,0,0,0,9.358,2.738c1.249.239,2.992.509,3.74,1.5" transform="translate(-580.939 -252.114)" fill="#40a0c0"/><path d="M625.933,336.907a56.532,56.532,0,0,1-2.5-11.422,19.216,19.216,0,0,1,2.244-11.295c3.74,7.3,4.159,15.835.337,23.106" transform="translate(-587.687 -241.798)" fill="#40a0c0"/><path d="M602.22,330.837c-4.413-8.026-13.419-14.429-22.53-15.327,3.516,8.752,13.105,15.514,22.53,15.327" transform="translate(-576.683 -242.13)" fill="#40a0c0"/><path d="M604.864,337.637c-6.582,1-12.185,5.236-18.341,7.749a8.227,8.227,0,0,1-4.144.8,3.246,3.246,0,0,1-2.035-5.745,8.813,8.813,0,0,1,2.992-1.825c6.732-2.79,13.883-2.857,20.944-1.167" transform="translate(-576.552 -247.374)" fill="#40a0c0"/><path d="M612.324,344.145c-1.5.426-2,1.2-3.187,2.2a34.228,34.228,0,0,1-13.906,7.143c-.531.135-1.227.187-1.5-.292s.06-.928.359-1.3A19.112,19.112,0,0,1,602.5,346.2c3.209-1.2,5.984-2.633,9.821-2.326" transform="translate(-580.197 -249.268)" fill="#40a0c0"/><path d="M617.185,306.761a26.307,26.307,0,0,1-20.2,6.867,1.354,1.354,0,0,1-.913-.329c-.509-.553.1-1.406.688-1.863,5.932-4.63,13.12-6.545,20.406-4.675" transform="translate(-580.764 -239.747)" fill="#40a0c0"/><path d="M609.068,302.637a28.118,28.118,0,0,0-25.178-4.151,19.823,19.823,0,0,0,11.968,5.236,37.857,37.857,0,0,0,13.18-1.115" transform="translate(-577.741 -237.508)" fill="#40a0c0"/><path d="M620.26,281.351c.584-5.917.2-10.592.613-16.546,0-.471.135-1.047.576-1.219.621-.232,1.137.524,1.339,1.159a18.97,18.97,0,0,1-2.521,16.456" transform="translate(-586.906 -229.035)" fill="#40a0c0"/><path d="M616.446,281.958a34.731,34.731,0,0,1-9.814-9.537c-1.937-2.648-3.568-5.827-3.127-9.081a9.425,9.425,0,0,1,7.084,3.486,19.791,19.791,0,0,1,3.605,7.256c.785,2.6,1.332,5.281,2.244,7.847" transform="translate(-582.666 -228.984)" fill="#40a0c0"/><path d="M599.808,279.661a79.289,79.289,0,0,1-24.138-14.212c2.88-1.159,6.186-.471,9.066.7a28.582,28.582,0,0,1,15.2,13.464" transform="translate(-575.67 -229.365)" fill="#40a0c0"/><path d="M608.166,290.207a49.362,49.362,0,0,1-13.4.067c-4.428-.733-8.452-2.453-12.514-4.159a1.443,1.443,0,0,1-.845-.651.972.972,0,0,1,.3-1.07,2.761,2.761,0,0,1,1.07-.5,23.232,23.232,0,0,1,13.524.808,62.636,62.636,0,0,1,11.871,5.505" transform="translate(-577.101 -233.994)" fill="#40a0c0"/><path d="M650.664,300.63a23.69,23.69,0,0,0,.217-19.62c-1.848,2.82-2.072,6.4-1.735,9.724s1.361,6.807,1.421,10.173" transform="translate(-594.152 -233.437)" fill="#40a0c0"/><path d="M667.344,299.059a27.355,27.355,0,0,1,20.338,8.662,19.038,19.038,0,0,1-11.138-2.065A56.814,56.814,0,0,1,667,299.269" transform="translate(-598.684 -237.984)" fill="#40a0c0"/><path d="M678.372,295.282c3.74-.3,7.286-.748,10.854.337a12.981,12.981,0,0,1,8.273,7.016,19.6,19.6,0,0,1-10.173-1.922,58.149,58.149,0,0,1-8.976-5.43" transform="translate(-601.544 -236.944)" fill="#40a0c0"/><path d="M662.069,293.65c3.344-2.192,6.732-4.421,10.659-5.326s8.4-.232,11.115,2.7c-3.149,1.848-6.971,2.065-10.622,2.057s-8.123-.045-11.572,1.174" transform="translate(-597.336 -235.185)" fill="#40a0c0"/><path d="M662.117,287.943c5.707-5.61,7.877-15.708,5.573-23.353a35.553,35.553,0,0,0-5.573,23.353" transform="translate(-597.4 -229.299)" fill="#40a0c0"/><path d="M636.518,268.353c-1.077-2.5-1.833-5.131-2.8-7.675a22.157,22.157,0,0,0-3.994-7.084,10.472,10.472,0,0,0-7.076-3.665A28.514,28.514,0,0,0,636.376,268.4" transform="translate(-587.509 -225.605)" fill="#40a0c0"/><path d="M645,275.608c1.78-2.453,3.845-5.782,6.261-7.615a10.5,10.5,0,0,1,8.512-2.244A19.837,19.837,0,0,1,645,275.608" transform="translate(-593.14 -229.538)" fill="#40a0c0"/><path d="M643.679,268.641a42.808,42.808,0,0,0,2.82-9.126,14.266,14.266,0,0,0-1.429-9.275c-3.134,5.924-4.144,12.282-1.548,18.468" transform="translate(-592.395 -225.683)" fill="#40a0c0"/><path d="M635.451,246.013c-1.773-5.879-7.151-10.2-12.963-12.193a4.855,4.855,0,0,0-2.244-.337,1.982,1.982,0,0,0-1.676,1.4c-.209.995.613,1.892,1.391,2.558a44.289,44.289,0,0,0,15.521,8.572" transform="translate(-586.472 -221.456)" fill="#40a0c0"/><path d="M638.08,237.157c-.232-3.785-.464-7.63-1.7-11.22s-3.605-6.956-7.061-8.527c-.583,3.83,1.1,7.637,3.134,10.928s4.488,6.4,5.715,10.068" transform="translate(-589.16 -217.41)" fill="#40a0c0"/><path d="M641.19,240.358c1.5-4.286,1.623-9.724,4.181-13.464,1.8-2.611,4.668-4.383,6.208-7.143a10.884,10.884,0,0,1-.359,8.108,23.7,23.7,0,0,1-4.742,6.792c-1.9,2.027-3.523,3.546-5.288,5.692" transform="translate(-592.18 -218)" fill="#40a0c0"/><path d="M641.087,372.88c.112,0,.217-28.559.224-63.783s-.082-63.8-.194-63.8-.209,28.559-.217,63.8S640.975,372.88,641.087,372.88Z" transform="translate(-592.107 -224.438)" fill="#40a0c0"/><path d="M607.78,301.48a5.925,5.925,0,0,0,1.077.4l2.955.995c2.491.853,5.917,2.079,9.634,3.605s7.143,2.857,9.118,4.57a6.665,6.665,0,0,1,1.833,2.424c.284.673.337,1.085.374,1.077a.835.835,0,0,0,0-.3,4.49,4.49,0,0,0-.209-.838,6.381,6.381,0,0,0-1.8-2.573,16.027,16.027,0,0,0-3.957-2.461c-1.586-.748-3.336-1.5-5.236-2.244-3.74-1.5-7.173-2.715-9.724-3.5-1.257-.389-2.289-.681-2.992-.868a6.989,6.989,0,0,0-1.07-.292Z" transform="translate(-583.761 -238.595)" fill="#40a0c0"/><path d="M596.85,274.619a3.064,3.064,0,0,0,.3.322l.912.86,3.426,3.1,11.385,10.143c4.488,3.957,8.288,7.734,10.951,10.584,1.331,1.421,2.386,2.6,3.1,3.418l.83.95a2.768,2.768,0,0,0,.307.314,2.8,2.8,0,0,0-.239-.367c-.172-.232-.426-.576-.748-.995-.681-.86-1.7-2.072-2.992-3.523a144.819,144.819,0,0,0-10.891-10.689c-4.488-3.949-8.52-7.48-11.467-10.053l-3.508-2.992-.972-.808A2.8,2.8,0,0,0,596.85,274.619Z" transform="translate(-581.007 -231.826)" fill="#40a0c0"/><path d="M623.6,295.959c.112-.052-.815-2.2-1.735-4.907s-1.376-5-1.5-4.982a16.934,16.934,0,0,0,1.1,5.109,32.223,32.223,0,0,0,1.384,3.433A5.188,5.188,0,0,0,623.6,295.959Z" transform="translate(-586.934 -234.712)" fill="#40a0c0"/><path d="M641.12,315.369a5.619,5.619,0,0,0,.681-.793l1.758-2.244c1.5-1.907,3.508-4.54,5.8-7.413s4.383-5.46,5.9-7.33c.748-.89,1.324-1.631,1.8-2.244a5.178,5.178,0,0,0,.621-.845,4.84,4.84,0,0,0-.748.748c-.456.494-1.107,1.227-1.9,2.139-1.578,1.818-3.74,4.376-5.984,7.256s-4.294,5.543-5.707,7.48c-.748.98-1.272,1.773-1.653,2.334a4.823,4.823,0,0,0-.561.913Z" transform="translate(-592.163 -236.836)" fill="#40a0c0"/><path d="M648.43,310.084a10.062,10.062,0,0,0,2.3-4.294,12.2,12.2,0,0,0,.516-4.331h-.18c.082.329.142.509.172.5s.037-.187,0-.531h-.179a19.963,19.963,0,0,1-.748,4.211A31.716,31.716,0,0,1,648.43,310.084Z" transform="translate(-594.005 -238.582)" fill="#40a0c0"/><path d="M657.88,300.524a7.658,7.658,0,0,1,1.6-.928,10.772,10.772,0,0,1,4.443-.352,27.3,27.3,0,0,1,4.488.748,14.524,14.524,0,0,0,1.847.449,6.213,6.213,0,0,0-1.765-.748,20.68,20.68,0,0,0-4.488-.853,9.723,9.723,0,0,0-4.585.494,2.812,2.812,0,0,0-1.541,1.189Z" transform="translate(-596.386 -237.909)" fill="#40a0c0"/><path d="M660.12,297.364c0,.06.928-.374,2.453-.9a24.767,24.767,0,0,1,12.357-.942c1.578.284,2.536.583,2.558.509a2.809,2.809,0,0,0-.651-.277,15.412,15.412,0,0,0-1.855-.516,21.69,21.69,0,0,0-6.328-.441,21.946,21.946,0,0,0-6.186,1.391,14.93,14.93,0,0,0-1.75.8C660.322,297.177,660.1,297.334,660.12,297.364Z" transform="translate(-596.95 -236.895)" fill="#40a0c0"/><path d="M641.19,281.849a49.818,49.818,0,0,0,1.788-6.216,50.961,50.961,0,0,0,1.391-6.313,49.819,49.819,0,0,0-1.788,6.216,49.375,49.375,0,0,0-1.391,6.313Z" transform="translate(-592.18 -230.491)" fill="#40a0c0"/><path d="M641,283.8a28.914,28.914,0,0,1,1.982-3.74,16.327,16.327,0,0,1,2.917-2.992,2.694,2.694,0,0,0-1.129.583,9.036,9.036,0,0,0-2.124,2.192A8.145,8.145,0,0,0,641,283.8Z" transform="translate(-592.132 -232.444)" fill="#40a0c0"/><path d="M641.135,381.464c.045,0,.127-.688.449-1.9a27.189,27.189,0,0,1,1.915-4.944,68.057,68.057,0,0,1,10.121-14.272c2.244-2.581,4.488-5.019,6.321-7.353a51.7,51.7,0,0,0,4.488-6.515,30.982,30.982,0,0,0,2.244-4.832c.209-.591.367-1.062.449-1.384a2.242,2.242,0,0,0,.12-.494s-.247.658-.748,1.818a35.5,35.5,0,0,1-2.379,4.75,54.962,54.962,0,0,1-4.563,6.418c-1.87,2.311-4.062,4.735-6.328,7.323a64.747,64.747,0,0,0-10.083,14.414,24.355,24.355,0,0,0-1.8,5.027,13.263,13.263,0,0,0-.254,1.436A2.14,2.14,0,0,0,641.135,381.464Z" transform="translate(-592.155 -248.244)" fill="#40a0c0"/><path d="M611,361.449a11.017,11.017,0,0,0,1.182.666,25.59,25.59,0,0,1,3.067,2.027,34.275,34.275,0,0,1,4.024,3.673c1.414,1.5,2.872,3.224,4.353,5.079,2.992,3.74,5.752,7.024,7.413,9.657a31.489,31.489,0,0,1,1.863,3.179,10.269,10.269,0,0,0,.651,1.2.986.986,0,0,0-.1-.337c-.09-.217-.209-.531-.4-.928a28.755,28.755,0,0,0-1.758-3.261,99.98,99.98,0,0,0-7.338-9.724c-1.5-1.862-2.992-3.6-4.4-5.094a32.839,32.839,0,0,0-4.129-3.643,21.37,21.37,0,0,0-3.164-1.93c-.389-.2-.711-.322-.92-.411A3.285,3.285,0,0,0,611,361.449Z" transform="translate(-584.573 -253.706)" fill="#40a0c0"/><path d="M610.41,372.493a17.749,17.749,0,0,0,2.5.359,33.216,33.216,0,0,1,5.924,1.167,17.955,17.955,0,0,1,5.3,2.783c1.227.95,1.8,1.728,1.863,1.683a2.243,2.243,0,0,0-.374-.576,9.853,9.853,0,0,0-1.309-1.3,16.074,16.074,0,0,0-5.363-2.947,26.576,26.576,0,0,0-6.021-1.07,13.664,13.664,0,0,0-2.521-.1Z" transform="translate(-584.424 -256.485)" fill="#40a0c0"/><path d="M629.238,376.447c.135-.075-.995-1.8-1.87-4.107s-1.01-4.383-1.16-4.361a4.16,4.16,0,0,0,.045,1.339,14.356,14.356,0,0,0,.748,3.164,15.433,15.433,0,0,0,1.451,2.895,4.135,4.135,0,0,0,.785,1.07Z" transform="translate(-588.397 -255.352)" fill="#40a0c0"/><path d="M601.23,331.79a3,3,0,0,0,.4.209l1.174.531c.516.224,1.137.5,1.84.875s1.533.748,2.386,1.257l1.361.748c.479.277.943.6,1.444.905,1,.613,2.012,1.361,3.082,2.132a52.914,52.914,0,0,1,11.886,12.3c.748,1.1,1.444,2.132,2.02,3.157.292.509.6.987.86,1.5l.748,1.391c.486.875.83,1.705,1.167,2.424s.606,1.354.808,1.87l.494,1.2a1.725,1.725,0,0,0,.2.4,1.781,1.781,0,0,0-.12-.434l-.426-1.219a19.3,19.3,0,0,0-.748-1.907c-.322-.748-.651-1.578-1.122-2.468-.232-.449-.464-.92-.711-1.406s-.554-.98-.838-1.5c-.568-1.04-1.279-2.087-2-3.2a51.017,51.017,0,0,0-11.968-12.387c-1.085-.748-2.109-1.5-3.127-2.109-.5-.307-.98-.628-1.5-.9l-1.384-.748c-.875-.5-1.713-.86-2.431-1.2a18.864,18.864,0,0,0-1.877-.808l-1.2-.464a1.538,1.538,0,0,0-.419-.142Z" transform="translate(-582.111 -246.233)" fill="#40a0c0"/><path d="M621.5,346.772a2.88,2.88,0,0,0-.98-1.5,6.2,6.2,0,0,0-3.957-1.5,10.824,10.824,0,0,0-4.159.815,6.1,6.1,0,0,0-1.578.748,9.069,9.069,0,0,0,1.668-.486,12.715,12.715,0,0,1,4.054-.681,6.425,6.425,0,0,1,3.74,1.331A11.927,11.927,0,0,1,621.5,346.772Z" transform="translate(-584.53 -249.254)" fill="#40a0c0"/><path d="M628.129,348.943a15.472,15.472,0,0,1-1.122-3.658,15.059,15.059,0,0,1,.254-3.815,2.508,2.508,0,0,0-.464,1.07,7.593,7.593,0,0,0,.636,5.468A2.572,2.572,0,0,0,628.129,348.943Z" transform="translate(-588.492 -248.672)" fill="#40a0c0"/><path d="M654.25,401c-.613,10.913-3.9,22.014-8.976,33.234H623.29c-4.825-11.108-7.891-22.193-8.43-33.234Z" transform="translate(-585.545 -263.673)" fill="#263238"/><path d="M619.62,424.519c0,.112,7.248.209,16.179.209s16.179-.1,16.179-.209-7.241-.209-16.179-.209S619.62,424.407,619.62,424.519Z" transform="translate(-586.745 -269.547)" fill="#fafafa"/><path d="M620.28,429.809c0,.112,6.792.2,15.17.2s15.162-.09,15.162-.2-6.784-.209-15.162-.209S620.28,429.69,620.28,429.809Z" transform="translate(-586.911 -270.88)" fill="#fafafa"/><path d="M655,410.56a61.406,61.406,0,0,0,0,10.135,63.682,63.682,0,0,0,0-10.136Z" transform="translate(-595.607 -266.082)" fill="#fafafa"/><path d="M639.24,410.56a65.819,65.819,0,0,0,0,10.472A68.253,68.253,0,0,0,639.24,410.56Z" transform="translate(-591.636 -266.082)" fill="#fafafa"/><path d="M624.442,410.44a71,71,0,0,0,0,10.7A68.506,68.506,0,0,0,624.442,410.44Z" transform="translate(-587.909 -266.052)" fill="#fafafa"/><path d="M615.79,410.489c0,.112,8.5.2,18.977.2s18.97-.09,18.97-.2-8.49-.209-18.97-.209S615.79,410.377,615.79,410.489Z" transform="translate(-585.78 -266.011)" fill="#fafafa"/></g><g transform="translate(44.643 33.581)"><path d="M105.017,412.8l-3.553,18.192L94.5,444.56a1.9,1.9,0,0,0,.943,2.611h0a1.877,1.877,0,0,0,1.735-.12c3.344-2.042,15.6-9.619,15.79-10.966.209-1.556,5.019-18.932,5.019-18.932Z" transform="translate(-94.292 -162.885)" fill="#40a0c0"/><path d="M95.83,454.6l17.8-12.3-.172.748a2.842,2.842,0,0,1-1.055,1.668c-1.481,1.1-5.505,4.092-14.781,9.784A1.893,1.893,0,0,1,95.83,454.6Z" transform="translate(-94.679 -170.319)" fill="#263238"/><path d="M116.11,435.115a1.144,1.144,0,0,0-.628,1.4,1.1,1.1,0,0,0,1.376.636,1.2,1.2,0,0,0,.658-1.5,1.152,1.152,0,0,0-1.5-.509" transform="translate(-99.617 -168.49)" fill="#ebebeb"/><path d="M102.584,448.463a5.819,5.819,0,0,0-1.257-1.788,5.91,5.91,0,0,0-2-.853c0-.045.254-.135.7-.1a2.992,2.992,0,0,1,2.528,2.02C102.666,448.171,102.629,448.463,102.584,448.463Z" transform="translate(-95.561 -171.179)" fill="#263238"/><path d="M100.189,451.621c-.1.06-.561-.651-1.436-1.129a15.721,15.721,0,0,0-1.713-.613,2.087,2.087,0,0,1,1.915.262C99.95,450.686,100.294,451.6,100.189,451.621Z" transform="translate(-94.984 -172.198)" fill="#263238"/><path d="M106.238,444.893A19.541,19.541,0,0,0,104.143,443a18.7,18.7,0,0,0-2.543-1.212,4.182,4.182,0,0,1,2.768.875,4.234,4.234,0,0,1,1.87,2.229Z" transform="translate(-96.133 -170.189)" fill="#263238"/><path d="M108.293,438.178c-.075.1-.98-.539-2.244-.868s-2.394-.247-2.409-.367a3.606,3.606,0,0,1,2.506,0,3.68,3.68,0,0,1,2.147,1.234Z" transform="translate(-96.647 -168.913)" fill="#263238"/><path d="M109.8,431.086a9.33,9.33,0,0,0-2.341-.972,9.1,9.1,0,0,0-2.536.082c0-.045.232-.232.7-.382a4.151,4.151,0,0,1,3.665.673C109.662,430.794,109.827,431.056,109.8,431.086Z" transform="translate(-96.97 -167.131)" fill="#263238"/><path d="M107.836,427.776a1.564,1.564,0,0,1,.12-.688,5,5,0,0,1,.942-1.676,2.169,2.169,0,0,1,1.122-.808.748.748,0,0,1,.808.352,1.234,1.234,0,0,1,.1.875,2.678,2.678,0,0,1-2.835,1.922,3.112,3.112,0,0,1-2.64-2.244,1.092,1.092,0,0,1,.142-.89.748.748,0,0,1,.853-.217,2.686,2.686,0,0,1,1.055.883,5.348,5.348,0,0,1,.928,1.676,1.713,1.713,0,0,1,.142.688,8.618,8.618,0,0,0-1.287-2.177,2.409,2.409,0,0,0-.942-.748.389.389,0,0,0-.464.12.748.748,0,0,0-.06.591,2.775,2.775,0,0,0,2.311,1.915,2.326,2.326,0,0,0,2.424-1.593.905.905,0,0,0-.045-.621.4.4,0,0,0-.441-.194,1.87,1.87,0,0,0-.965.666,7.166,7.166,0,0,0-1.272,2.169Z" transform="translate(-97.096 -165.796)" fill="#263238"/><path d="M185.245,414.69l3.029,18.281,6.56,13.771a1.893,1.893,0,0,1-1.01,2.581h0a1.885,1.885,0,0,1-1.728-.172c-3.284-2.139-15.327-10.061-15.469-11.415-.172-1.563-4.488-19.074-4.488-19.074Z" transform="translate(-113.909 -163.362)" fill="#40a0c0"/><path d="M195.259,456.683,177.83,443.87l.142.748a2.88,2.88,0,0,0,1.01,1.69c1.414,1.144,5.386,4.2,14.489,10.2a1.922,1.922,0,0,0,1.788.157Z" transform="translate(-115.343 -170.715)" fill="#263238"/><path d="M180.807,436.78a1.152,1.152,0,0,1,.591,1.414,1.114,1.114,0,0,1-1.4.6,1.2,1.2,0,0,1-.613-1.5,1.137,1.137,0,0,1,1.5-.456" transform="translate(-115.717 -168.913)" fill="#ebebeb"/><path d="M193.539,450.519a5.774,5.774,0,0,1,1.331-1.72,5.619,5.619,0,0,1,2.02-.793c0-.052-.254-.15-.688-.127a2.992,2.992,0,0,0-2.588,1.945C193.471,450.213,193.494,450.512,193.539,450.519Z" transform="translate(-119.292 -171.724)" fill="#263238"/><path d="M195.894,453.735c.1.06.576-.636,1.5-1.085a15.352,15.352,0,0,1,1.735-.568,2.109,2.109,0,0,0-1.922.2C196.164,452.8,195.79,453.7,195.894,453.735Z" transform="translate(-119.89 -172.748)" fill="#263238"/><path d="M189.53,446.84a20.479,20.479,0,0,1,2.147-1.833,18.955,18.955,0,0,1,2.581-1.137,5.176,5.176,0,0,0-4.727,2.992Z" transform="translate(-118.291 -170.715)" fill="#263238"/><path d="M187.68,440.057c.067.1.995-.516,2.3-.808s2.394-.18,2.416-.3a3.74,3.74,0,0,0-2.506-.1A3.673,3.673,0,0,0,187.68,440.057Z" transform="translate(-117.825 -169.407)" fill="#263238"/><path d="M186.308,432.915a9.266,9.266,0,0,1,2.371-.9,9.146,9.146,0,0,1,2.528.15c0-.045-.224-.239-.688-.4a4.2,4.2,0,0,0-1.907-.15,4.121,4.121,0,0,0-1.765.748C186.451,432.639,186.271,432.885,186.308,432.915Z" transform="translate(-117.478 -167.614)" fill="#263238"/><path d="M188.144,429.681a1.631,1.631,0,0,0-.112-.7,4.8,4.8,0,0,0-.883-1.7,2.146,2.146,0,0,0-1.107-.845.748.748,0,0,0-.808.329,1.212,1.212,0,0,0-.135.875,2.693,2.693,0,0,0,2.775,2,3.119,3.119,0,0,0,2.7-2.169,1.077,1.077,0,0,0-.12-.89.748.748,0,0,0-.845-.247,2.6,2.6,0,0,0-1.077.853,5.534,5.534,0,0,0-.98,1.646,1.75,1.75,0,0,0-.157.681,8.856,8.856,0,0,1,1.346-2.139,2.6,2.6,0,0,1,.965-.748.4.4,0,0,1,.456.135.748.748,0,0,1,.045.591,2.768,2.768,0,0,1-2.364,1.848,2.326,2.326,0,0,1-2.379-1.638.9.9,0,0,1,.067-.621.434.434,0,0,1,.449-.187,2.012,2.012,0,0,1,.942.7,7.3,7.3,0,0,1,1.219,2.222Z" transform="translate(-117.167 -166.288)" fill="#263238"/><path d="M108.22,247.423c-1.691-2.573-8.7,137.163-8.228,137.97l18.461.262L128.5,310.989l5.468-57.1,8.774,53.647,10.809,78.623,20.2.284L161.254,243.96,135.149,229Z" transform="translate(-95.723 -116.57)" fill="#263238"/><path d="M126.8,127.622s-5.625.987-7.817,2.9-4.353,6.223-4.353,6.223l-10.756,7.241,9.47,37.73L105.4,233.862l1.586,4.488,59.332-.987,1.129-4.092-6.134-47.394,2.693-31.805,2.476-12.776-10.741-4.81s4.922-1.5,5.146-2.379S149.8,127.45,149.8,127.45,131.95,124.4,126.8,127.622Z" transform="translate(-96.705 -90.651)" fill="#ee7a15"/><path d="M110.45,236.642c6.732,8.669,15.835,15.065,24.834,21.318a16.838,16.838,0,0,0,6.134,3.112,8.6,8.6,0,0,0,8.632-3.62c1.3-1.982,1.743-4.488,3.284-6.283,1.047-1.219,2.506-2,3.628-3.157a15.59,15.59,0,0,0,2.326-3.433l3.68-6.642c-4.488,0-8.6,2.184-12.641,4.107s-8.52,3.673-12.873,2.678c-6.036-1.384-9.881-7.525-15.708-9.687a13.113,13.113,0,0,0-11.22,1.07" transform="translate(-98.363 -117.89)" opacity="0.3"/><path d="M101.86,149.95s-2.244,2.82-2.7,8.744-4.309,37.012-2.992,41.477,17.9,23.113,23.435,22.657l2.065-.748,1.975,1.533,8.841-6.627L113,192.459l1.047-35.306S108.024,148.581,101.86,149.95Z" transform="translate(-94.696 -96.612)" fill="#ee7a15"/><path d="M122.145,132a4.44,4.44,0,0,0-.486.4,8.746,8.746,0,0,0-1.189,1.406,26.779,26.779,0,0,0-1.548,2.551c-.591,1.055-1.354,2.139-2.162,3.426l-.127-.157a5.475,5.475,0,0,1,3.643,0,12.8,12.8,0,0,1,3.673,2.012,34.633,34.633,0,0,1,6.612,7.114,146.563,146.563,0,0,1,12.155,20.5v.1c-.09,3.082-.18,6.306-.277,9.6-.479,16.688-.905,31.79-1.219,42.749-.172,5.453-.307,9.874-.4,12.948-.052,1.5-.1,2.7-.127,3.523a5.179,5.179,0,0,1-.045.913,2.022,2.022,0,0,1,0,.314,1.991,1.991,0,0,1,0-.314v-.913c0-.83.037-2.012.06-3.523.067-3.082.157-7.48.277-12.956.262-10.943.606-26.053,1.107-42.749.1-3.291.187-6.523.277-9.6v.09a149.708,149.708,0,0,0-12.043-20.525,34.811,34.811,0,0,0-6.515-7.091,12.761,12.761,0,0,0-3.575-2,5.236,5.236,0,0,0-3.5,0l-.3.112.172-.262c.823-1.272,1.563-2.409,2.2-3.4s1.107-1.878,1.6-2.528a7.787,7.787,0,0,1,1.242-1.376,2.446,2.446,0,0,1,.5-.359Z" transform="translate(-99.87 -92.126)" fill="#263238"/><path d="M171.6,138c0,.06-1.137.4-2.932,1.115a27.953,27.953,0,0,0-6.568,3.65,43.386,43.386,0,0,0-5.475,5.191l-1.548,1.7a3.739,3.739,0,0,1-.606.591,3.553,3.553,0,0,1,.494-.688c.329-.434.83-1.04,1.5-1.78a36.246,36.246,0,0,1,5.438-5.318,25.05,25.05,0,0,1,6.732-3.6c.92-.337,1.676-.554,2.207-.7A3.037,3.037,0,0,1,171.6,138Z" transform="translate(-109.456 -93.638)" fill="#263238"/><path d="M151.519,172.928a5.64,5.64,0,0,1,.075-1.115c.082-.711.232-1.735.471-2.992.464-2.513,1.294-5.984,2.394-9.724a86.352,86.352,0,0,1,3.329-9.417c.509-1.182.965-2.109,1.309-2.738a6.03,6.03,0,0,1,.591-.942,6.406,6.406,0,0,1-.456,1.017c-.3.643-.748,1.586-1.189,2.768-.957,2.356-2.094,5.7-3.209,9.425s-1.967,7.143-2.5,9.642c-.269,1.242-.464,2.244-.591,2.955A6.937,6.937,0,0,1,151.519,172.928Z" transform="translate(-108.712 -95.654)" fill="#263238"/><path d="M154,149.58a72.428,72.428,0,0,1,3.029-6.732,70.106,70.106,0,0,1,3.389-6.568,71.811,71.811,0,0,1-3.037,6.732A69.069,69.069,0,0,1,154,149.58Z" transform="translate(-109.338 -93.205)" fill="#263238"/><path d="M156.45,172.112l.172-.367a1.294,1.294,0,0,0,.7.232c.3,0,.419-.09.419-.224,0-.4-1.242-.142-1.234-.942,0-.359.307-.658.913-.651a1.406,1.406,0,0,1,.748.2l-.157.374a1.227,1.227,0,0,0-.591-.18c-.292,0-.411.1-.411.239,0,.4,1.249.142,1.234.928,0,.359-.307.658-.92.651A1.5,1.5,0,0,1,156.45,172.112Z" transform="translate(-109.955 -101.742)" fill="#fff"/><path d="M160.951,172.01v.4H159.29l.037-2.147h1.616v.4h-1.122v.471h.995v.389h-.995v.494Z" transform="translate(-110.671 -101.768)" fill="#fff"/><path d="M161.86,171.331a1.115,1.115,0,0,1,1.182-1.092,1.085,1.085,0,0,1,.875.4l-.322.284a.681.681,0,0,0-.531-.254.688.688,0,1,0,0,1.369.681.681,0,0,0,.539-.247l.314.3a1.085,1.085,0,0,1-.89.367,1.1,1.1,0,0,1-1.167-1.122Z" transform="translate(-111.318 -101.762)" fill="#fff"/><path d="M166.614,171.838a2.478,2.478,0,0,1-.09-.314.784.784,0,0,0-.075-.209v.2c0,.411-.187.576-.486.568s-.479-.172-.471-.583V170.32H165v1.2a.9.9,0,0,0,.957.995.95.95,0,0,0,.8-.344,1.272,1.272,0,0,1-.142-.337Z" transform="translate(-112.108 -101.783)" fill="#fff"/><path d="M167.31,171v.823a1.561,1.561,0,0,1,.06.172l.067.269a2.3,2.3,0,0,1,.045.7,1,1,0,0,0,.292-.748v-1.2Z" transform="translate(-112.692 -101.954)" fill="#fff"/><path d="M169.944,173.277l-.4-.6h-.456v.6h-.494V171.13h.928c.568,0,.928.307.92.793a.688.688,0,0,1-.456.666l.471.7Zm-.441-1.743h-.4v.748h.4c.3,0,.456-.135.464-.367a.41.41,0,0,0-.464-.419Z" transform="translate(-113.014 -101.987)" fill="#fff"/><path d="M171.63,171.1h.494v2.147h-.494Z" transform="translate(-113.78 -101.979)" fill="#fff"/><path d="M173.328,171.534h-.688v-.4H174.5v.4h-.688v1.743h-.5Z" transform="translate(-114.035 -101.987)" fill="#fff"/><path d="M176.362,172.531v.748h-.494v-.748l-.808-1.391h.531l.553.965.591-.943h.486Z" transform="translate(-114.645 -101.989)" fill="#fff"/><path d="M168.824,175.2a2.028,2.028,0,0,1-.3-.561c-.165-.367-.381-.92-.621-1.608a29.024,29.024,0,0,1-1.272-5.55,28.493,28.493,0,0,1-.157-5.685c.06-.748.135-1.316.2-1.72a1.75,1.75,0,0,1,.15-.613,16.263,16.263,0,0,1-.075,2.341,35.359,35.359,0,0,0,1.414,11.145A22.943,22.943,0,0,1,168.824,175.2Z" transform="translate(-112.462 -99.046)" fill="#263238"/><g transform="translate(42.504 45.757)" opacity="0.3"><path d="M152.876,164.306c-.314,2.663-1.167,3.979-1.212,6.657,0,.576-.92,9.649-.381,9.851s2.992-6.358,3.553-9.649c.411-2.581,1.137-5.984,1.571-8.55,1.257-7.518,4.047-11.564,7.959-18.109.748-1.234,3.5-4.608,3.5-4.608-.262-.172-1.361.352-2.124.7a42.574,42.574,0,0,0-6.156,4.144,74.913,74.913,0,0,0-3.172,6.814,97.293,97.293,0,0,0-3.6,13.187" transform="translate(-151.114 -139.865)"/></g><g transform="translate(17.173 47.354)" opacity="0.3"><path d="M119.644,142s-2.409,1.316-2.394,2.379a3.1,3.1,0,0,0,1.75,2.476,23,23,0,0,0,2.992,1.107,17.488,17.488,0,0,1,6.051,4.316,51.284,51.284,0,0,1,7.54,9.664c1.758,2.917,3.366,6.171,6.306,7.891-1.99-3.561-4.054-7.009-6.044-10.569a68.286,68.286,0,0,0-6.874-10.061c-2.588-3.142-6.807-6.949-9.32-7.2" transform="translate(-117.25 -142)"/></g><path d="M109,202.475a.747.747,0,0,1,0-.194,2.994,2.994,0,0,1,0-.576,4.708,4.708,0,0,1,3.433-3.987,4.78,4.78,0,0,1,4.144.92l-.292.142a37.466,37.466,0,0,1,.449-7.532c.374-2.461.83-4.78,1.085-6.9a56.271,56.271,0,0,0,.441-5.685c.045-1.623,0-2.94,0-3.845v-1.047a1.167,1.167,0,0,1,0-.367,1.235,1.235,0,0,1,.052.359c0,.284.052.636.082,1.047.067.913.112,2.244.1,3.86a50.761,50.761,0,0,1-.359,5.715c-.239,2.147-.681,4.488-1.062,6.927a39.226,39.226,0,0,0-.479,7.48v.4l-.307-.254a4.488,4.488,0,0,0-3.845-.905,4.293,4.293,0,0,0-2.581,1.78,4.652,4.652,0,0,0-.748,1.937A3.268,3.268,0,0,0,109,202.475Z" transform="translate(-97.993 -102.559)" fill="#263238"/><path d="M111.49,229.242a1.369,1.369,0,0,1,.239.2c.165.172.381.381.651.643.583.546,1.436,1.354,2.588,2.289a38.508,38.508,0,0,0,4.361,3.074,17.2,17.2,0,0,0,2.895,1.459,3.74,3.74,0,0,0,1.668.247,2.468,2.468,0,0,0,1.541-.673l.112-.12.127.09c.621.486,1.294,1,1.982,1.5h-.217l8.834-6.635-.037.277-.157-.194c-2.663-3.321-5.042-6.6-7.248-9.537s-4.2-5.6-5.932-7.772-3.187-3.9-4.234-5.042c-.516-.576-.942-1.01-1.227-1.3a3.135,3.135,0,0,1-.419-.464,3.544,3.544,0,0,1,.471.411c.307.269.748.688,1.287,1.249,1.085,1.122,2.581,2.805,4.338,4.974s3.785,4.787,5.984,7.727,4.615,6.2,7.271,9.507l.15.194.127.157-.157.12-8.849,6.62-.112.082-.112-.082L125.44,236.7h.247a2.8,2.8,0,0,1-1.78.748,4.018,4.018,0,0,1-1.8-.284,17.735,17.735,0,0,1-2.94-1.5,36.341,36.341,0,0,1-4.3-3.164,34.35,34.35,0,0,1-2.536-2.371l-.621-.673a1.317,1.317,0,0,1-.217-.217Z" transform="translate(-98.626 -111.096)" fill="#263238"/><path d="M116.915,159.7c-.067,0-.352-.86-1.077-2.162a15.162,15.162,0,0,0-1.451-2.162,17.2,17.2,0,0,0-2.244-2.281,17.793,17.793,0,0,0-2.64-1.78,16.084,16.084,0,0,0-2.386-1.04c-1.414-.471-2.341-.591-2.326-.666a2.2,2.2,0,0,1,.658,0,10.062,10.062,0,0,1,1.75.367,14.264,14.264,0,0,1,2.476.987,16.037,16.037,0,0,1,2.715,1.8,16.217,16.217,0,0,1,2.244,2.356,13.761,13.761,0,0,1,1.414,2.244,11.011,11.011,0,0,1,.681,1.661,2.312,2.312,0,0,1,.187.681Z" transform="translate(-96.937 -96.558)" fill="#263238"/><g transform="translate(54.073 64.131)" opacity="0.3"><path d="M168.181,174.581c.247.531,1.122.2,1.227-.217a1.8,1.8,0,0,0-.269-1.279,22.441,22.441,0,0,1-2.461-8.654,21.4,21.4,0,0,0,1.5,10.15" transform="translate(-166.581 -164.43)"/></g><g transform="translate(10.467 93.085)" opacity="0.3"><path d="M108.483,209.183a4.922,4.922,0,0,1,2.244-5.633,2.88,2.88,0,0,1,1.6-.411c1.212.09,2.079,1.167,2.79,2.147a5.049,5.049,0,0,0-6.4,3.86" transform="translate(-108.285 -203.137)"/></g><path d="M185.12,150.75a21.146,21.146,0,0,1-1.01,1.915,30.393,30.393,0,0,0-2.035,4.795,30.789,30.789,0,0,0-1.174,5.079,19.182,19.182,0,0,1-.314,2.147,8.87,8.87,0,0,1,0-2.184,24.25,24.25,0,0,1,3.284-9.971,8.6,8.6,0,0,1,1.249-1.78Z" transform="translate(-116.02 -96.851)" fill="#263238"/><path d="M174.677,176.14c-.4.411-.509,3.9-.509,3.9,0,4.211.269,6.059.277,10.263a19.359,19.359,0,0,1-.464,5.176,18.9,18.9,0,0,1-.987,2.581,16.239,16.239,0,0,1-1.631,3.089A18.454,18.454,0,0,1,169.4,203.3a79.546,79.546,0,0,0-9.051,10.741l-1.646,2.386,16.322-15.312.8-2.02.045-.239Z" transform="translate(-110.522 -103.249)" opacity="0.3"/><path d="M180.033,146.36s2.573.972,3.912,6.732a207.116,207.116,0,0,1,3.89,21.812c.262,3.508,3.74,16.329,1.04,21.977s-15.544,23.076-20.63,23.637l-2.124-.539-2.244.382-6.246-7.2.546-2.057a2.057,2.057,0,0,1,0-2.169c.748-1.025,16.681-16,16.681-16s-.613-.075-.748-1.107c-.224-1.78,1.324-1.72,1.324-1.72L174.4,174.44Z" transform="translate(-110.252 -95.745)" fill="#ee7a15"/><path d="M186.841,210.393c-.067.1-1.242-.748-2.91-1.272s-3.112-.546-3.112-.666a5.984,5.984,0,0,1,3.231.292,5.842,5.842,0,0,1,2.79,1.646Z" transform="translate(-116.096 -111.367)" fill="#263238"/><path d="M190.237,207.017a11.594,11.594,0,0,0-8.737-2.341,3.53,3.53,0,0,1,1.346-.344,9.1,9.1,0,0,1,6.4,1.713A3.448,3.448,0,0,1,190.237,207.017Z" transform="translate(-116.267 -110.339)" fill="#263238"/><path d="M180.459,207.517a1.157,1.157,0,0,1-.591-.224,1.264,1.264,0,0,1-.419-.6,1.631,1.631,0,0,1,0-.89,1.966,1.966,0,0,1,.232-.546v.037a1.137,1.137,0,0,1,.995-.666c.3,0,.456.067.449.112s-.165.045-.4.127a1,1,0,0,0-.681.546h0a2.437,2.437,0,0,0-.18.449,1.257,1.257,0,0,0,.239,1.189C180.279,207.345,180.489,207.465,180.459,207.517Z" transform="translate(-115.735 -110.429)" fill="#263238"/><path d="M179.842,175.12a3.6,3.6,0,0,1,.142.868c.067.561.142,1.376.217,2.379.165,2.012.322,4.795.456,7.869s.247,5.775.337,7.877c.037.943.067,1.743.09,2.386a3.972,3.972,0,0,1,0,.875,3.6,3.6,0,0,1-.142-.868c-.067-.561-.142-1.369-.217-2.379-.165-2.012-.314-4.795-.449-7.869s-.247-5.775-.337-7.877c-.037-.942-.075-1.735-.1-2.386A3.973,3.973,0,0,1,179.842,175.12Z" transform="translate(-115.843 -102.992)" fill="#263238"/><path d="M175.072,208.35a3.4,3.4,0,0,1-.4.389l-1.182,1.062-4.376,3.972c-1.84,1.7-4.032,3.74-6.44,6.1-1.2,1.167-2.476,2.424-3.74,3.74a4.391,4.391,0,0,0-.8,1.07,1.96,1.96,0,0,0-.135,1.279,7.158,7.158,0,0,1,.232,1.5,1.5,1.5,0,0,1-.8,1.391l.075-.307c1.032,1.189,2.124,2.424,3.224,3.688l3.172,3.628-.18-.1,2.244-.381h0a9.983,9.983,0,0,0,2.633.426,4.952,4.952,0,0,0,2.244-1.047,35.667,35.667,0,0,0,3.568-3.329c2.147-2.244,3.9-4.391,5.341-6.179s2.566-3.261,3.344-4.256c.381-.479.673-.86.9-1.144a2.767,2.767,0,0,1,.329-.382,2.243,2.243,0,0,1-.269.419l-.845,1.182c-.748,1.025-1.84,2.513-3.261,4.331s-3.157,3.979-5.3,6.253a34.949,34.949,0,0,1-3.59,3.4,5.3,5.3,0,0,1-2.446,1.122,9.6,9.6,0,0,1-2.715-.419h.067l-2.244.381h-.112l-.067-.082-3.172-3.62-3.224-3.7-.18-.209.254-.1a1.092,1.092,0,0,0,.561-1.04,6.89,6.89,0,0,0-.224-1.391,2.394,2.394,0,0,1,.172-1.5,4.728,4.728,0,0,1,.875-1.159q1.967-1.975,3.792-3.74c2.431-2.341,4.638-4.376,6.508-6.051s3.4-2.992,4.488-3.882l1.227-1.01A2.909,2.909,0,0,1,175.072,208.35Z" transform="translate(-110.086 -111.366)" fill="#263238"/><path d="M165.319,196.1c0,.112-10.2.052-22.769-.127s-22.769-.419-22.769-.524,10.2-.052,22.777.135S165.319,196,165.319,196.1Z" transform="translate(-100.715 -108.102)" fill="#263238"/><path d="M158.025,204.59a1.415,1.415,0,0,1,0,.292,4.091,4.091,0,0,1-.135.815,16.558,16.558,0,0,1-.9,2.91,17.952,17.952,0,0,1-15.536,11.183,17.016,17.016,0,0,1-3.044-.075c-.359-.037-.628-.1-.815-.127a.936.936,0,0,1-.277-.075,33.044,33.044,0,0,0,4.114,0,18.319,18.319,0,0,0,15.3-11.018A34.178,34.178,0,0,0,158.025,204.59Z" transform="translate(-105.134 -110.418)" fill="#263238"/><path d="M135.378,245.851c-.067.082-.494-.157-.883-.606s-.554-.9-.464-.957.4.284.748.7S135.446,245.769,135.378,245.851Z" transform="translate(-104.3 -120.42)" fill="#263238"/><path d="M139.253,242.888c-.082.067-.4-.217-.748-.636s-.494-.815-.4-.875.411.224.748.643S139.343,242.828,139.253,242.888Z" transform="translate(-105.325 -119.686)" fill="#263238"/><path d="M161.1,235.38c.052.1-.374.4-.913.748s-.987.636-1.055.554.284-.5.838-.875S161.06,235.283,161.1,235.38Z" transform="translate(-110.63 -118.17)" fill="#263238"/><path d="M163.964,238.168c.09.06-.172.628-.748,1.159s-1.115.785-1.167.7.389-.471.89-.972S163.874,238.108,163.964,238.168Z" transform="translate(-111.365 -118.878)" fill="#263238"/><path d="M166.671,241.5c.075.075-.254.554-.808.987s-1.092.651-1.144.561.374-.449.905-.868S166.589,241.422,166.671,241.5Z" transform="translate(-112.038 -119.716)" fill="#263238"/><path d="M128.53,135.07c.112-.045,1,2.244,2.528,4.75s3.067,4.406,2.992,4.488a6.051,6.051,0,0,1-1.107-1.144,25.829,25.829,0,0,1-2.2-3.142,24.588,24.588,0,0,1-1.713-3.433,5.6,5.6,0,0,1-.5-1.518Z" transform="translate(-102.919 -92.9)" fill="#263238"/><path d="M167.919,269.342a5.249,5.249,0,0,1-.636,0h-1.81l-6.665.06c-5.625.067-13.4.277-21.977.539s-16.366.434-21.991.426c-2.82,0-5.094,0-6.665-.06l-1.818-.052a3.438,3.438,0,0,1-.628-.045,4.113,4.113,0,0,1,.628-.037h1.818l6.657-.067c5.632-.067,13.4-.277,21.984-.539s16.359-.426,21.991-.426c2.813,0,5.094,0,6.665.06l1.81.06A3.488,3.488,0,0,1,167.919,269.342Z" transform="translate(-97.174 -126.684)" fill="#263238"/><path d="M160.8,247.21a1.653,1.653,0,0,0,1.571.748c.613,0,1.2-.224,1.81-.254a1.683,1.683,0,0,1,1.6.673,1.429,1.429,0,0,1-.045,1.384,2.812,2.812,0,0,1-1.055.972,5.692,5.692,0,0,1-6.463-.621" transform="translate(-110.401 -121.158)" fill="#b78876"/><path d="M143.34,257.407a36.241,36.241,0,0,0,5.782,4.683,2.319,2.319,0,0,0,1.5.516c.546-.09.972-.8.613-1.212a1.683,1.683,0,0,0,1.99.052,1.705,1.705,0,0,0,.606-1.81.052.052,0,0,1,.067-.06,1.893,1.893,0,0,0,1.646-.112,1.414,1.414,0,0,0,.613-1.578,1.453,1.453,0,0,0,2.311-.374,2.558,2.558,0,0,0-.434-2.618,12.972,12.972,0,0,0-2.072-1.87,4.129,4.129,0,0,1-1.556-2.244" transform="translate(-106.651 -122.058)" fill="#b78876"/><path d="M153.156,264.293a4,4,0,0,1-1.967-1.272,3.927,3.927,0,0,1-1.249-1.982c.1-.052.636.823,1.5,1.713S153.216,264.188,153.156,264.293Z" transform="translate(-108.315 -124.643)" fill="#aa6550"/><path d="M156.982,262.061a4.159,4.159,0,0,1-1.773-1.234,4.233,4.233,0,0,1-1.249-1.758c.1-.067.7.666,1.5,1.5A18.876,18.876,0,0,1,156.982,262.061Z" transform="translate(-109.328 -124.145)" fill="#aa6550"/><path d="M160.267,259.814a3.74,3.74,0,0,1-1.7-1.137,3.86,3.86,0,0,1-1.189-1.668c.09-.067.673.628,1.5,1.391S160.335,259.724,160.267,259.814Z" transform="translate(-110.189 -123.626)" fill="#aa6550"/><path d="M135.677,236.6s-.224-.957,2.244-.651a28.208,28.208,0,0,0,6.313.4c2.76-.142,7.241-.927,7.241-.927l7.2,6.343s-7.368,6.47-9.575,7.622-6.687,4.024-9.245,3.89c-1.937-.1-2.109-1.07-2.109-1.07s-1.9-1.3-1.616-1.937c0,0-2.244-.127-1.825-1.848,0,0-1.608-.3-1.87-1.212s.95-1.99,1.421-2.453c.748-.748,7.3-5.55,7.331-5.685C141.174,239.11,135.572,238.549,135.677,236.6Z" transform="translate(-103.895 -118.19)" fill="#b78876"/><path d="M140.936,246.39a19.1,19.1,0,0,1-2.947,2.513,19.449,19.449,0,0,1-3.179,2.244,18.889,18.889,0,0,1,2.947-2.521,20.069,20.069,0,0,1,3.179-2.237Z" transform="translate(-104.502 -120.952)" fill="#aa6550"/><path d="M145.029,247.289a4.578,4.578,0,0,1-.86,1.174,19.142,19.142,0,0,1-5.513,4.309,4.533,4.533,0,0,1-1.346.546c-.06-.1,1.93-1.085,4.062-2.753S144.939,247.207,145.029,247.289Z" transform="translate(-105.132 -121.177)" fill="#aa6550"/><path d="M148.628,250.26a4.959,4.959,0,0,1-.972,1.316,13.958,13.958,0,0,1-6.732,4.047,4.8,4.8,0,0,1-1.623.247,25.308,25.308,0,0,0,5.079-2.124A25,25,0,0,0,148.628,250.26Z" transform="translate(-105.633 -121.927)" fill="#aa6550"/><path d="M157.734,247.5a3.241,3.241,0,0,1-.546.561c-.367.344-.913.823-1.608,1.384a47.115,47.115,0,0,1-5.76,3.979c-1.182.688-2.334,1.3-3.4,1.81a11.97,11.97,0,0,1-2.992,1.107,4.766,4.766,0,0,1-2.147,0,1.743,1.743,0,0,1-.748-.314,5.236,5.236,0,0,0,2.805,0,13.336,13.336,0,0,0,2.872-1.159c1.047-.524,2.192-1.144,3.359-1.825a61.644,61.644,0,0,0,5.79-3.86C156.844,248.158,157.689,247.454,157.734,247.5Z" transform="translate(-105.943 -121.231)" fill="#aa6550"/><path d="M140.85,79.352a12.926,12.926,0,0,0-14.078,11.9c-.449,5.984-.875,12.484-.883,15.761,0,7.016,6.994,8.228,6.994,8.228s-.2,2.079-.434,4.66a9.245,9.245,0,0,0,8.654,10.038h0a9.23,9.23,0,0,0,9.784-8.677L152.564,93A12.926,12.926,0,0,0,140.85,79.359Z" transform="translate(-102.254 -78.846)" fill="#b78876"/><path d="M135.177,126.358a16.3,16.3,0,0,0,9.186-2.468s-2.349,5.071-9.343,4.338Z" transform="translate(-104.555 -90.083)" fill="#aa6550"/><path d="M160.514,100.752c.12-.052,4.847-1.361,4.623,3.441s-4.989,3.583-5,3.441S160.514,100.752,160.514,100.752Z" transform="translate(-110.885 -84.202)" fill="#b78876"/><path d="M162.209,106.424a1.53,1.53,0,0,0,.224.127.8.8,0,0,0,.621.045,2.087,2.087,0,0,0,1.047-1.81,2.858,2.858,0,0,0-.18-1.2,1,1,0,0,0-.6-.673.434.434,0,0,0-.509.209c-.067.127-.045.224-.067.232s-.1-.082-.052-.284a.531.531,0,0,1,.2-.292.651.651,0,0,1,.471-.1,1.189,1.189,0,0,1,.838.748,2.827,2.827,0,0,1,.224,1.346,2.184,2.184,0,0,1-1.316,2.02.913.913,0,0,1-.748-.165C162.216,106.536,162.194,106.432,162.209,106.424Z" transform="translate(-111.405 -84.735)" fill="#aa6550"/><path d="M130.71,100.1a1.01,1.01,0,0,0,.957,1.025.95.95,0,0,0,1.04-.89,1,1,0,0,0-.95-1.025.965.965,0,0,0-1.047.89Z" transform="translate(-103.469 -83.862)" fill="#263238"/><path d="M129.435,98.315c.12.135.89-.419,1.967-.4s1.863.568,1.982.434-.067-.292-.411-.546a2.685,2.685,0,0,0-1.578-.516,2.648,2.648,0,0,0-1.571.479C129.487,98.023,129.375,98.255,129.435,98.315Z" transform="translate(-103.144 -83.38)" fill="#263238"/><path d="M145.16,100.489a1,1,0,0,0,.95,1.025.957.957,0,0,0,1.047-.883,1,1,0,0,0-.95-1.032.965.965,0,0,0-1.047.89Z" transform="translate(-107.11 -83.961)" fill="#263238"/><path d="M143.6,98.785c.12.135.89-.419,1.967-.4s1.863.568,1.982.441-.067-.3-.411-.554a2.723,2.723,0,0,0-1.578-.516,2.6,2.6,0,0,0-1.571.486C143.657,98.493,143.545,98.725,143.6,98.785Z" transform="translate(-106.714 -83.498)" fill="#263238"/><path d="M137.3,106.726a7.115,7.115,0,0,0-1.75-.337c-.269,0-.531-.09-.576-.284a1.429,1.429,0,0,1,.194-.808l.845-2.087a36.982,36.982,0,0,0,1.907-5.46,36.217,36.217,0,0,0-2.341,5.288l-.808,2.1a1.579,1.579,0,0,0-.165,1.077.748.748,0,0,0,.449.411,1.967,1.967,0,0,0,.471.075A6.477,6.477,0,0,0,137.3,106.726Z" transform="translate(-104.443 -83.496)" fill="#263238"/><path d="M141.937,93.588c.127.284,1.2.075,2.468.15s2.319.344,2.468.067c.067-.127-.135-.389-.561-.651a4.181,4.181,0,0,0-1.863-.516,4.107,4.107,0,0,0-1.892.352C142.1,93.207,141.885,93.453,141.937,93.588Z" transform="translate(-106.296 -82.206)" fill="#263238"/><path d="M128.891,92.982c.187.247.928,0,1.825,0s1.646.194,1.825-.06c.075-.127-.037-.374-.367-.606a2.633,2.633,0,0,0-2.94.045C128.913,92.608,128.809,92.862,128.891,92.982Z" transform="translate(-103.004 -82.019)" fill="#263238"/><path d="M154.113,95.027a8.228,8.228,0,0,1-.15,2.3,2.536,2.536,0,0,1-1.257,1.735c-1.212.583-2.708-.359-3.231-1.6a8.081,8.081,0,0,1-.209-3.994,19.291,19.291,0,0,0,0-5.49,7.869,7.869,0,0,0-2.566-4.75,5.012,5.012,0,0,0-5.161-.815,28.154,28.154,0,0,0-2.76,1.975,4.211,4.211,0,0,1-2.91.688c-1.01-.172-2.371-.883-2.2-1.885.4-2.341-1.227-.374-1.122-.748.18-.658,1.533-1.8,2.094-2.244a7.48,7.48,0,0,1,3.216-1.279,16.778,16.778,0,0,1,9.163,1.04,11.886,11.886,0,0,1,6.523,6.238c1.346,3.306,1.137,5.311.681,8.871" transform="translate(-103.931 -78.694)" fill="#263238"/><path d="M139.907,113.9c0,.217-.883.434-2,.494s-2.035-.06-2.05-.277.89-.441,2-.5S139.9,113.7,139.907,113.9Z" transform="translate(-104.767 -87.49)" fill="#263238"/><path d="M158.122,99.923a5.034,5.034,0,0,1-1.5-.322c-.89-.269-2.087-.748-3.4-1.242l-3.336-1.346a6.516,6.516,0,0,1-1.384-.583,5.341,5.341,0,0,1,1.5.322c.89.269,2.087.748,3.4,1.242l3.336,1.346A6.321,6.321,0,0,1,158.122,99.923Z" transform="translate(-107.954 -83.163)" fill="#263238"/><path d="M132.168,95.509a1.436,1.436,0,0,1,1.257,1.189,5.984,5.984,0,0,1-4.368,6.695,3.478,3.478,0,0,1-2.738-.262,4.214,4.214,0,0,1-1.556-3.478,4.488,4.488,0,0,1,.479-2.8,4.032,4.032,0,0,1,3.231-1.5,36.652,36.652,0,0,1,3.7.15Z" transform="translate(-101.957 -82.893)" fill="#263238"/><path d="M141.747,95.763a1.444,1.444,0,0,0-1.3,1.174,6.036,6.036,0,0,0,4.219,6.889,3.538,3.538,0,0,0,2.775-.18c1.152-.688,1.541-2.154,1.676-3.478a4.488,4.488,0,0,0-.4-2.842,4.069,4.069,0,0,0-3.224-1.608c-1.242-.1-3.74.045-3.74.045Z" transform="translate(-105.896 -82.975)" fill="#263238"/><path d="M140.968,95.94a21.138,21.138,0,0,1-4.114.12,23.023,23.023,0,0,1-4.114-.277,21.192,21.192,0,0,1,4.122-.12,22.981,22.981,0,0,1,4.107.277Z" transform="translate(-103.98 -82.957)" fill="#263238"/><path d="M161,131.572v-.112a1.494,1.494,0,0,1,0-.352,3.814,3.814,0,0,1,.464-1.242,8.743,8.743,0,0,0,.845-1.863,9.507,9.507,0,0,0,.314-2.693c0-1.01-.127-2.1-.2-3.321a1.713,1.713,0,0,1,.232-.972.913.913,0,0,1,.98-.449.748.748,0,0,1,.479.367.591.591,0,0,1,0,.643.942.942,0,0,1-1.13.217,1.683,1.683,0,0,1-.89-1.952,1.72,1.72,0,0,1,.666-.972,1.19,1.19,0,0,1,.583-.232.748.748,0,0,1,.658.224.681.681,0,0,1,.165.711.7.7,0,0,1-.628.381,1.476,1.476,0,0,1-.808-2.768,1.5,1.5,0,0,1,1.077-.194,1.07,1.07,0,0,1,.509.3.651.651,0,0,1,.172.621.666.666,0,0,1-.456.449,1.279,1.279,0,0,1-.554.045,1.93,1.93,0,0,1-.942-.419,1.668,1.668,0,0,1-.613-1.84,1.5,1.5,0,0,1,1.616-.95.89.89,0,0,1,.748.748.666.666,0,0,1-.2.531.86.86,0,0,1-.486.209,1.309,1.309,0,0,1-.875-.322,2.057,2.057,0,0,1-.561-.681,1.264,1.264,0,0,1,.352-1.6.905.905,0,0,1,1.4.554v.1l-.09.045a1.316,1.316,0,0,1-1.818-.651,1.115,1.115,0,0,1,.082-.965,1.377,1.377,0,0,1,.673-.6,1.122,1.122,0,0,1,.853,0,.636.636,0,0,1,.411.688.449.449,0,0,1-.269.329.568.568,0,0,1-.389,0,.748.748,0,0,1-.4-.531,5.827,5.827,0,0,1,0-1.773,2.5,2.5,0,0,1,.127-.606,9.03,9.03,0,0,0,.06,2.334.546.546,0,0,0,.307.4.254.254,0,0,0,.374-.172c.082-.381-.546-.621-.957-.4a.987.987,0,0,0-.591,1.227,1.032,1.032,0,0,0,1.4.494l-.075.15a.6.6,0,0,0-.913-.322.927.927,0,0,0-.217,1.182,1.4,1.4,0,0,0,1.092.8c.2,0,.389-.187.359-.352a.546.546,0,0,0-.441-.4,1.092,1.092,0,0,0-1.182.748,1.279,1.279,0,0,0,.5,1.406,1.608,1.608,0,0,0,.748.337c.254,0,.554-.052.583-.217s-.157-.381-.4-.434a1.047,1.047,0,0,0-.748.15,1.13,1.13,0,0,0-.546.748,1.077,1.077,0,0,0,.3.89,1.107,1.107,0,0,0,.845.374c.322,0,.389-.232.209-.449s-.509-.127-.748.052a1.4,1.4,0,0,0-.524.748,1.331,1.331,0,0,0,.673,1.5c.247.112.591.082.7-.082a.341.341,0,0,0-.262-.486.591.591,0,0,0-.613.307,1.354,1.354,0,0,0-.187.748c.06,1.174.172,2.311.157,3.336a9.492,9.492,0,0,1-.389,2.745,7.563,7.563,0,0,1-.92,1.878,4.039,4.039,0,0,0-.516,1.182A1.311,1.311,0,0,0,161,131.572Z" transform="translate(-111.098 -86.754)" fill="#e0e0e0"/><path d="M163.948,107.372a2.633,2.633,0,0,0-.314-1.032,1.227,1.227,0,0,0-.868-.591.943.943,0,0,0-.95.606.98.98,0,0,0,.352,1.062h0l.082.06c.127.075.307.09.426.165a.86.86,0,0,1,.329.8,9.041,9.041,0,0,0-.067.905c0,.217.142.471.359.479s.329-.187.4-.359a3.822,3.822,0,0,0,.247-2.094Z" transform="translate(-111.297 -85.511)" fill="#e0e0e0"/><path d="M134.548,128.525a10.729,10.729,0,0,0-1.631,3.635,52.608,52.608,0,0,0,.987,7.024,10.031,10.031,0,0,0,1.571,3.822l.972,1.429a33.314,33.314,0,0,1,3.5,6.59c1.9,4.8,5.086,12.881,5.236,13.262a30.278,30.278,0,0,0,1.414,2.82l1.69-20.159,5.086-10.083a6.852,6.852,0,0,0,.748-2.82l.12-3.231a4.57,4.57,0,0,0-1.182-3.224h0l-.254,2.917-8.43,7.66-9.791-6.583Z" transform="translate(-104.023 -91.015)" fill="#fff"/><path d="M144.312,141.82a5.079,5.079,0,0,0-1.765,1.661,18.858,18.858,0,0,0-2.042,5.58c-.06.224-.112.449-.165.658l-.075.3-.239-.2a37.594,37.594,0,0,1-3.957-3.95,14.212,14.212,0,0,1-1.459-1.75,13.016,13.016,0,0,1,1.653,1.571,55.283,55.283,0,0,0,4.009,3.83l-.314.1.165-.658a16.948,16.948,0,0,1,2.2-5.64,4.226,4.226,0,0,1,1.354-1.272,1.5,1.5,0,0,1,.636-.232Z" transform="translate(-104.452 -94.601)" fill="#263238"/><path d="M153.8,147.253a22.973,22.973,0,0,1-1.9,3.089l-.307.464v-.568a11.516,11.516,0,0,0-.524-2.738,15.183,15.183,0,0,0-1.5-4.249,11.629,11.629,0,0,0-1.2-1.421,2.07,2.07,0,0,1,.449.254,4.488,4.488,0,0,1,.98,1.01,13.142,13.142,0,0,1,1.646,4.3,10.33,10.33,0,0,1,.494,2.85l-.314-.1a23.254,23.254,0,0,1,2.169-2.887Z" transform="translate(-107.921 -94.604)" fill="#263238"/><path d="M149.871,169.375c-.1,0-.583-6.1-1.07-13.651s-.793-13.666-.688-13.674.591,6.1,1.077,13.651S149.976,169.367,149.871,169.375Z" transform="translate(-107.849 -94.659)" fill="#263238"/><path d="M125.182,100.058a1.922,1.922,0,0,1-.09-1.758c.322-.98,1.077-1.444,1.122-1.354a11.4,11.4,0,0,0-.748,1.5C125.2,99.318,125.294,100.036,125.182,100.058Z" transform="translate(-102.01 -83.291)" fill="#e0e0e0"/><path d="M141.578,100.659c-.082.067-.576-.568-.569-1.5s.486-1.586.569-1.5-.187.688-.18,1.5S141.676,100.607,141.578,100.659Z" transform="translate(-106.064 -83.473)" fill="#e0e0e0"/></g></svg>