<svg xmlns="http://www.w3.org/2000/svg" width="368.522" height="407" viewBox="0 0 368.522 407"><g transform="translate(-63.73 -47.13)"><g transform="translate(63.73 47.13)"><path d="M63.99,409.9l46.031-.238,46.041-.089,92.061-.168,92.061.168,46.041.089,46.031.238-46.031.238-46.041.089-92.061.168-92.061-.168-46.041-.089Z" transform="translate(-63.733 -50.787)" fill="#263238"/><rect width="127.995" height="96.12" transform="translate(0 3.851)" fill="#dbdbdb"/><rect width="111.473" height="81.232" transform="translate(8.256 11.295)" fill="#ebebeb"/><rect width="26.906" height="58.998" transform="translate(22.708 22.946)" fill="#fff"/><rect width="46.743" height="31.905" transform="translate(58.533 22.946)" fill="#fff"/><rect width="22.016" height="22.016" transform="translate(58.533 59.929)" fill="#fff"/><rect width="15.363" height="22.016" transform="translate(89.913 59.929)" fill="#fff"/><circle cx="12.73" cy="12.73" r="12.73" transform="translate(36.924 22.946)" fill="#dbdbdb"/><path d="M122.86,129.527h37.527V92Z" transform="translate(-64.327 -47.583)" fill="#dbdbdb"/><rect width="131.677" height="201.901" transform="translate(236.845)" fill="#ebebeb"/><rect width="55.603" height="89.804" transform="translate(244.022 8.088)" fill="#fff"/><rect width="55.603" height="89.804" transform="translate(305.742 8.088)" fill="#fff"/><rect width="55.603" height="89.804" transform="translate(244.022 104)" fill="#fff"/><rect width="55.603" height="89.804" transform="translate(305.742 104)" fill="#fff"/><path d="M384.43,47.13h51.059V335.975H405.931l20.63-146.981Z" transform="translate(-66.967 -47.13)" fill="#dbdbdb"/><path d="M393.37,55.01l8.553,33.459,8.4,33.5,16.809,66.987.02.089-.01.089L419.2,259.188l-3.979,35.023-4.128,35.013,3.643-35.062,3.811-35.053,7.622-70.085.01.168-16.482-67.066-8.236-33.538Z" transform="translate(-67.057 -47.21)" fill="#ebebeb"/><path d="M432.935,61l.238,28.965.139,28.975.119,57.929-.119,57.939-.129,28.965-.248,28.975-.247-28.975-.129-28.965-.119-57.939.119-57.929.139-28.975Z" transform="translate(-67.452 -47.27)" fill="#ebebeb"/><path d="M423.3,66.48l2.039,30.766,1.9,30.776,3.772,61.542h0c-.247,11.433-.634,22.867-.94,34.3l-.99,34.29-.99,34.3-1.128,34.33.653-34.3.8-34.3.812-34.3c.277-11.433.5-22.877.841-34.3h0l-3.465-61.572-1.723-30.737Z" transform="translate(-67.359 -47.325)" fill="#ebebeb"/><path d="M416.526,322.587l2.821-33.281,2.97-33.271c2.049-22.174,4.009-44.358,6.118-66.522v.129l-9.216-51.812-4.544-25.916L410.21,85.99l4.88,25.856,4.811,25.817,9.473,51.762v.129c-1.98,22.174-4.158,44.338-6.227,66.512L419.9,289.307Z" transform="translate(-67.227 -47.522)" fill="#ebebeb"/><rect width="11.532" height="6.731" transform="translate(356.99 139.438)" fill="#dbdbdb"/><rect width="31.192" height="288.855" transform="translate(236.845)" fill="#dbdbdb"/><path d="M328.515,61l.247,31.232.089,31.232.158,62.463-.158,62.463-.089,31.232-.247,31.232-.238-31.232-.089-31.232-.158-62.463.158-62.463.089-31.232Z" transform="translate(-66.398 -47.27)" fill="#ebebeb"/><path d="M314.055,68.31l.238,27.9.139,27.886.119,55.771-.119,55.771-.139,27.886-.238,27.9-.247-27.9-.139-27.886-.109-55.771.119-55.771.129-27.886Z" transform="translate(-66.252 -47.344)" fill="#ebebeb"/><path d="M321.285,74.97l.248,32.647.079,32.657.168,65.3-.168,65.3-.079,32.657-.248,32.657-.238-32.657-.089-32.657-.168-65.3.168-65.3.089-32.657Z" transform="translate(-66.325 -47.411)" fill="#ebebeb"/><path d="M308.675,62.66l.238,34.181L309,131.013l.168,68.353L309,267.719l-.089,34.172-.238,34.182-.247-34.182-.079-34.172-.168-68.353.168-68.353.089-34.172Z" transform="translate(-66.197 -47.287)" fill="#ebebeb"/><rect width="39.666" height="27.143" transform="translate(30.806 117.957)" fill="#ebebeb"/><path d="M94.85,168.3c3.415,1.92,6.781,3.96,10.127,5.939,1.683.99,3.326,2.049,4.95,3.079l4.95,3.1h-.535l4.95-3.1c1.663-.99,3.306-2.079,4.95-3.079l5.039-3.019c1.693-.99,3.376-1.98,5.088-2.97-1.594,1.138-3.227,2.227-4.831,3.336l-4.722,3.346c-1.623,1.1-3.286,2.128-4.95,3.2l-4.95,3.178-.267.168-.267-.168-4.95-3.178c-1.643-1.069-3.3-2.1-4.95-3.2C101.3,172.734,98.047,170.566,94.85,168.3Z" transform="translate(-64.044 -48.353)" fill="#fff"/><path d="M95,188.719a82.162,82.162,0,0,1,7.533-5.86,80.958,80.958,0,0,1,8.1-5.058,80.576,80.576,0,0,1-7.533,5.87A80.876,80.876,0,0,1,95,188.719Z" transform="translate(-64.046 -48.449)" fill="#fff"/><path d="M134.671,188.719a82.02,82.02,0,0,1-8.1-5.049,79.182,79.182,0,0,1-7.523-5.87,80.824,80.824,0,0,1,8.088,5.058A79.559,79.559,0,0,1,134.671,188.719Z" transform="translate(-64.288 -48.449)" fill="#fff"/><rect width="0.99" height="3.277" transform="translate(30.311 108.989)" fill="#dbdbdb"/><rect width="0.99" height="3.277" transform="translate(23.864 112.068) rotate(-45)" fill="#dbdbdb"/><rect width="3.277" height="0.99" transform="translate(21.481 117.819)" fill="#dbdbdb"/><rect width="3.277" height="0.99" transform="translate(23.873 124.565) rotate(-45)" fill="#dbdbdb"/><rect width="0.99" height="3.277" transform="translate(30.311 124.372)" fill="#dbdbdb"/><rect width="0.99" height="3.277" transform="translate(34.746 122.947) rotate(-45)" fill="#dbdbdb"/><rect width="3.277" height="0.99" transform="translate(36.864 117.819)" fill="#dbdbdb"/><rect width="3.277" height="0.99" transform="translate(34.735 113.69) rotate(-45)" fill="#dbdbdb"/></g><g transform="translate(93.071 415.543)"><ellipse cx="159.424" cy="19.293" rx="159.424" ry="19.293" fill="#ebebeb"/></g><g transform="translate(236.884 129.233)"><rect width="59.85" height="3.96" transform="translate(35.983 237.716)" fill="#455a64"/><path d="M279.448,231.05l-.287,18.759-1.821,119-.059,3.96-.8,52.2H273.43l-.8-52.2-.059-3.96-1.821-119-.287-18.759Z" transform="translate(-238.971 -131.089)" fill="#455a64"/><path d="M270.46,231.05h8.988l-.287,18.759h-8.414Z" transform="translate(-238.971 -131.089)" fill="#263238"/><path d="M339.9,231.05l-.287,18.759-2.683,175.154H333.88l-.8-52.2-.059-3.96-1.821-119-.287-18.759Z" transform="translate(-239.581 -131.089)" fill="#455a64"/><path d="M339.9,231.05l-.287,18.759H331.2l-.287-18.759Z" transform="translate(-239.581 -131.089)" fill="#263238"/><rect width="59.85" height="3.96" transform="translate(8.068 237.716)" fill="#37474f"/><path d="M251.248,231.05l-.287,18.759-1.821,119-.059,3.96-.8,52.2H245.23l-2.683-175.154-.287-18.759Z" transform="translate(-238.686 -131.089)" fill="#37474f"/><path d="M242.26,231.05h8.988l-.287,18.759h-8.414Z" transform="translate(-238.686 -131.089)" fill="#263238"/><path d="M311.708,231.05l-.287,18.759-1.821,119-.059,3.96-.8,52.2H305.69l-.8-52.2-.059-3.96-1.821-119-.287-18.759Z" transform="translate(-239.297 -131.089)" fill="#37474f"/><path d="M302.72,231.05h8.988l-.287,18.759h-8.414Z" transform="translate(-239.297 -131.089)" fill="#263238"/><rect width="104.989" height="10.275" transform="translate(0 91.23)" fill="#40a0c0"/><rect width="84.518" height="10.275" transform="translate(0 91.23)" fill="#263238" opacity="0.1"/><path d="M350.692,130.842l-6.7,90.458H281.369l-.564-8.681L275.39,130.07l66.908.683Z" transform="translate(-239.021 -130.07)" fill="#40a0c0"/><path d="M342.3,130.753l-4.6,90.547H281.369l-.564-8.681L275.39,130.07Z" transform="translate(-239.021 -130.07)" fill="#263238" opacity="0.1"/><path d="M344.689,213.46l-.643,8.681H281.424l-.564-8.681Z" transform="translate(-239.076 -130.912)" fill="#263238"/></g><g transform="translate(181.143 69.703)"><path d="M268.626,81.16c-12.295,13.106-13.433,45.357,3.455,66.254,14.294,17.69,45.684,19.719,58.592,8.177,13.7-12.245,11.453-31.915-.089-39.6-11.146-7.414-23.936-5.811-30.826-13.908-3.306-3.88-4.86-12.344-9.483-18.284C285.118,77.191,274.922,74.439,268.626,81.16Z" transform="translate(-183.118 -70.007)" fill="#263238"/><path d="M282.967,131.184c-3.2,21.194-6.009,37.616-11.433,42.22-4.375,3.682-10.78,6.662-17.452,9.008a171.992,171.992,0,0,1-21.837,5.811c-2.277.465-4.177.812-5.524,1.069-3.336.614-11.473-20.927-9.414-23.916.475-.683,2.633-1.425,5.692-2.188,10.3-2.554,30.865-5.306,31.954-6.622s6.721-10.948,14.354-23.57c5.266-8.721,10.077-11.671,12.423-9.7C283.046,124.413,283.581,127.1,282.967,131.184Z" transform="translate(-182.69 -70.466)" fill="#eb9481"/><path d="M231.895,188.635a86.44,86.44,0,0,1-10.3,5.256c-2.851,1.089-11.136,3.96-12.641.99-.99-2.059,3.643-4.336,6.929-6.019,1.722-.891,3.772-2.97,3.148-4.039-1.079-1.98-5.5.455-8.375,2.455-5.553,3.861-12.869,10.6-16.63,7.919-1.435-.99,0-3.178,2.079-5.355-3.514,2.633-7.325,4.86-8.909,3.8a1.98,1.98,0,0,1-.653-2.613,2.6,2.6,0,0,1-2.9-.218c-1.307-1.168-.871-3.079.287-5.1a1.425,1.425,0,0,1-1.148-.624c-2.881-3.692,9-15.918,13.344-17.323,12.76-4.158,26.727-4.158,26.727-4.158C228.163,167.273,231.9,188.625,231.895,188.635Z" transform="translate(-182.34 -70.879)" fill="#eb9481"/><path d="M211.906,178.21a21.263,21.263,0,0,0-8.4,4.049c-2.871,2.336-5.048,5.375-7.662,7.919a.074.074,0,1,0,.109.1c1.218-1.326,2.584-2.534,3.861-3.811s2.455-2.544,3.781-3.7a21.144,21.144,0,0,1,8.335-4.554S211.936,178.2,211.906,178.21Z" transform="translate(-182.476 -71.026)" fill="#263238"/><path d="M208.942,172.83a52.953,52.953,0,0,0-9.82,4.326c-3.326,2.049-5.811,5.157-8.256,8.157q-2.217,2.693-4.286,5.484c-.059.079,0,.188.109.109q3.712-4.633,7.711-9.038a27.838,27.838,0,0,1,8.741-6.553c1.891-.911,3.861-1.663,5.811-2.425C208.991,172.879,208.971,172.82,208.942,172.83Z" transform="translate(-182.383 -70.972)" fill="#263238"/><path d="M204.865,168.26c-3.267.99-6.118,1.772-8.909,3.791a47.794,47.794,0,0,0-8.345,8.464c-1.326,1.673-2.6,3.4-3.851,5.128-.049.069.069.158.129.089a110.444,110.444,0,0,1,9.315-10.889,21.779,21.779,0,0,1,5.365-4.148,39.949,39.949,0,0,1,6.306-2.445Z" transform="translate(-182.355 -70.926)" fill="#263238"/><path d="M283.345,131.19c-3.2,21.194-6.009,37.616-11.433,42.219-4.375,3.682-10.78,6.662-17.452,9.008L282.108,123.3C283.425,124.419,283.959,127.1,283.345,131.19Z" transform="translate(-183.068 -70.472)" fill="#263238"/><path d="M284.75,127.509v.99a4.017,4.017,0,0,1-.059.851,100.076,100.076,0,0,1-2.6,15.69h-1.722l-6.929.228h-.99l-6.87.228h-.881l-2.524.079-1.98.069s6.929-13.285,14.849-21.3a11.957,11.957,0,0,1,2.495-1.98C281.117,120.451,284.68,121.579,284.75,127.509Z" transform="translate(-183.126 -70.454)" fill="#40a0c0"/><circle cx="0.515" cy="0.515" r="0.515" transform="translate(97.169 51.343)" fill="#fff"/><path d="M273.609,133.995a.515.515,0,1,1-.5-.515.5.5,0,0,1,.5.515Z" transform="translate(-183.251 -70.575)" fill="#fff"/><circle cx="0.515" cy="0.515" r="0.515" transform="translate(97.169 62.886)" fill="#fff"/><circle cx="0.515" cy="0.515" r="0.515" transform="translate(93.249 57.045)" fill="#fff"/><path d="M284.993,127.57v.99h0a.515.515,0,1,1,0-.99Z" transform="translate(-183.37 -70.515)" fill="#fff"/><path d="M265.7,145.626a.475.475,0,0,1-.059.238h-.881a.5.5,0,0,1-.079-.267.515.515,0,0,1,.99,0Z" transform="translate(-183.172 -70.693)" fill="#fff"/><path d="M273.61,145.6h-.99a.515.515,0,0,1,.99,0Z" transform="translate(-183.252 -70.693)" fill="#fff"/><path d="M281.431,145.337h-.851a.5.5,0,0,1,.436-.247A.515.515,0,0,1,281.431,145.337Z" transform="translate(-183.332 -70.692)" fill="#fff"/><circle cx="0.515" cy="0.515" r="0.515" transform="translate(85.419 68.587)" fill="#fff"/><circle cx="0.515" cy="0.515" r="0.515" transform="translate(93.249 68.587)" fill="#fff"/><path d="M284.77,127.509v.99a4.015,4.015,0,0,1-.059.851,100.069,100.069,0,0,1-2.6,15.69h-1.722l-6.929.228h-.99l-6.87.228h-.881l-2.524.079L277.5,122.381C281.137,120.451,284.7,121.579,284.77,127.509Z" transform="translate(-183.146 -70.454)" fill="#263238"/><path d="M235.493,383.238c2.445-.416,61.839-32.172,63.354-34.815.574-.99-3.544-9.9-8.83-20.56-1.148-2.3-2.336-4.662-3.564-7.058-7.919-15.561-16.71-31.885-16.71-31.885L229.95,310.054l17.818,31.3,3.9,6.88s-17.313,22.332-18.65,25.4S233.048,383.654,235.493,383.238Z" transform="translate(-182.821 -72.144)" fill="#eb9481"/><path d="M235.519,383.563c2.445-.416,61.839-32.172,63.354-34.815.693-1.227-5.534-14.136-12.394-27.618l-38.7,20.55,3.9,6.88s-17.3,22.332-18.64,25.4S233.074,383.979,235.519,383.563Z" transform="translate(-182.847 -72.469)" fill="#fff"/><path d="M235.519,383.635c2.445-.416,61.839-32.172,63.354-34.815.574-.99-3.544-9.9-8.83-20.56l-38.359,20.372s-17.3,22.332-18.64,25.4S233.074,384.051,235.519,383.635Z" transform="translate(-182.847 -72.541)" fill="#ee7a15"/><path d="M235.129,381.015c9.83-5.563,49.98-27.1,60.117-31.855.079,0,.109,0,0,.059-9.612,5.732-49.941,26.935-60.058,31.964C235,381.282,234.921,381.134,235.129,381.015Z" transform="translate(-182.872 -72.752)" fill="#263238"/><path d="M235.75,370.268a9.058,9.058,0,0,1,7.256-.752,8.731,8.731,0,0,1,5.068,4.128c0,.059-.079.119-.119.059a10.473,10.473,0,0,0-12.136-3.306C235.74,370.426,235.67,370.317,235.75,370.268Z" transform="translate(-182.879 -72.953)" fill="#263238"/><path d="M248.508,351.9c3.96-2.188,9.325-3.247,13.542-1.317.168.079.059.307-.1.317a62.935,62.935,0,0,0-13.255,1.525.279.279,0,0,1-.188-.525Z" transform="translate(-183.006 -72.756)" fill="#263238"/><path d="M246.048,354.776c3.96-2.188,9.325-3.257,13.542-1.317.168.069.059.307-.1.307a62.3,62.3,0,0,0-13.255,1.534.279.279,0,1,1-.188-.525Z" transform="translate(-182.982 -72.785)" fill="#263238"/><path d="M243.588,357.646c3.96-2.188,9.325-3.247,13.542-1.317.168.079.059.307-.1.307a62.358,62.358,0,0,0-13.255,1.534.279.279,0,0,1-.188-.525Z" transform="translate(-182.957 -72.814)" fill="#263238"/><path d="M241.128,360.516c3.96-2.188,9.325-3.247,13.542-1.317.168.079.059.307-.1.317a62.372,62.372,0,0,0-13.255,1.534.287.287,0,0,1-.188-.535Z" transform="translate(-182.932 -72.843)" fill="#263238"/><path d="M288.169,341c4.474-2.376,8.177,4.583,3.692,6.929S283.685,343.351,288.169,341Z" transform="translate(-183.388 -72.664)" fill="#263238"/><path d="M241.852,349.16c3.633,1.623,7.84,1.613,11.73,2.059a.544.544,0,0,0,.544-.7.119.119,0,0,0,.059-.178,23.758,23.758,0,0,0-9.068-8.256c-2.168-1.069-5.583-1.346-6.712,1.406S239.724,348.21,241.852,349.16Zm-1.98-3.207c-1.92-4.544,3.771-3.306,5.336-2.455a25.263,25.263,0,0,1,2.9,1.911c1.93,1.426,3.623,3.1,5.395,4.7-1.891-.337-3.8-.5-5.7-.772-2.247-.317-6.83-.881-7.9-3.385Z" transform="translate(-182.903 -72.673)" fill="#263238"/><path d="M267.138,340.2c-1.7-2.435-4.95-1.406-6.86.119a23.758,23.758,0,0,0-7.018,10.057.119.119,0,0,0,.1.158.564.564,0,0,0,.693.574c3.692-1.3,7.8-2.227,10.978-4.613C266.861,345.1,268.742,342.5,267.138,340.2Zm-7.919,7.8c-1.8.683-3.623,1.267-5.4,1.98a67.634,67.634,0,0,1,4.237-5.781,25.986,25.986,0,0,1,2.4-2.5c1.336-1.178,6.622-3.643,5.751,1.218-.455,2.712-4.811,4.276-6.949,5.088Z" transform="translate(-183.056 -72.646)" fill="#263238"/><path d="M257.539,252.228c.99,11.592,27.658,62.364,27.658,62.364l-35.053,17.571-7.018,3.524s-32.439-57.187-30.687-82.924c1.495-21.837,39.3-49.357,62.552-76.223h31.34c-9.9,30.459-46.169,64.087-48.7,74.352A4.584,4.584,0,0,0,257.539,252.228Z" transform="translate(-182.644 -71.009)" fill="#455a64"/><path d="M243.4,328.6c6.929-3.692,4.86-2.722,11.79-6.335,3.4-1.772,20.422-10.691,23.857-11.819a.079.079,0,0,1,.069.139c-2.97,2.118-20.145,10.681-23.57,12.384-6.989,3.485-5.019,2.415-12.047,5.821a.109.109,0,1,1-.1-.188Z" transform="translate(-182.956 -72.361)" fill="#263238"/><path d="M303.07,181.32a372.1,372.1,0,0,1-33.657,47.892c-3.049,3.663-6.2,7.226-9.355,10.8-2.673,2.97-5.375,6.365-5.89,10.5-.564,4.613,1.445,9.1,3.059,13.294,1.782,4.633,3.583,9.256,5.464,13.859,2.039,4.95,4.167,9.9,6.533,14.661q1.821,3.682,3.811,7.276.99,1.792,2.049,3.564c.346.594,2.8,4.643,3.158,5.237.119.188.416.416.119-.079-.673-1.109-3.415-5.7-4.049-6.83-2.495-4.455-4.722-9.038-6.83-13.69s-4.128-9.483-6.029-14.284-3.861-9.513-5.474-14.314a20.61,20.61,0,0,1-1.4-7.711,13.928,13.928,0,0,1,2.613-7.048c2.693-3.96,6.3-7.4,9.394-11.057q9.661-11.374,18.353-23.52a324.689,324.689,0,0,0,18.293-28.45C303.239,181.31,303.12,181.25,303.07,181.32Z" transform="translate(-183.064 -71.057)" fill="#263238"/><path d="M285.583,315.364,250.53,332.935,257.925,253C258.914,264.592,285.583,315.364,285.583,315.364Z" transform="translate(-183.029 -71.781)" fill="#263238"/><path d="M272.609,446.111c2.485,0,66.393-21.283,68.3-23.629.733-.891-1.821-10.374-5.237-21.778-.732-2.455-1.515-4.95-2.316-7.553-5.187-16.67-11.087-34.251-11.087-34.251l-42.794,14.116,12.275,33.855,2.683,7.434s-20.788,19.1-22.659,21.9S270.134,446.051,272.609,446.111Z" transform="translate(-183.231 -72.85)" fill="#eb9481"/><path d="M272.609,446.46c2.485,0,66.393-21.283,68.3-23.629.891-1.089-3.069-14.849-7.553-29.311l-41.576,13.72,2.683,7.434s-20.788,19.1-22.659,21.9S270.134,446.4,272.609,446.46Z" transform="translate(-183.231 -73.199)" fill="#fff"/><path d="M272.609,446.537c2.485,0,66.393-21.283,68.3-23.629.732-.891-1.821-10.374-5.237-21.778l-41.24,13.6s-20.788,19.1-22.659,21.9S270.134,446.478,272.609,446.537Z" transform="translate(-183.231 -73.276)" fill="#ee7a15"/><path d="M272.7,443.833c10.622-3.821,53.841-18.274,64.631-21.243.089,0,.109,0,0,.059-10.444,4.029-53.772,18.125-64.591,21.362C272.53,444.081,272.471,443.922,272.7,443.833Z" transform="translate(-183.251 -73.493)" fill="#263238"/><path d="M275.179,433.254a9.068,9.068,0,0,1,7.276.475,8.78,8.78,0,0,1,4.306,4.949c0,.059-.1.1-.129,0a10.483,10.483,0,0,0-11.4-5.316C275.14,433.4,275.09,433.284,275.179,433.254Z" transform="translate(-183.277 -73.595)" fill="#263238"/><path d="M290.848,417.309c4.267-1.495,9.741-1.633,13.572.99.149.1,0,.307-.148.287a62.485,62.485,0,0,0-13.324-.732.277.277,0,0,1-.1-.544Z" transform="translate(-183.433 -73.429)" fill="#263238"/><path d="M287.938,419.719c4.267-1.485,9.741-1.623,13.572.99.148.109,0,.317-.148.287a62.481,62.481,0,0,0-13.324-.723.287.287,0,0,1-.1-.554Z" transform="translate(-183.404 -73.453)" fill="#263238"/><path d="M285,422.139c4.267-1.485,9.741-1.633,13.572.99.148.1,0,.307-.139.287a62.61,62.61,0,0,0-13.334-.723.287.287,0,0,1-.1-.554Z" transform="translate(-183.375 -73.478)" fill="#263238"/><path d="M282.118,424.559c4.267-1.495,9.741-1.633,13.572.99.149.1,0,.307-.139.287a62.579,62.579,0,0,0-13.334-.733.277.277,0,0,1-.1-.544Z" transform="translate(-183.345 -73.502)" fill="#263238"/><path d="M331.783,413.218c4.821-1.584,7.3,5.939,2.465,7.484S326.963,414.811,331.783,413.218Z" transform="translate(-183.822 -73.396)" fill="#263238"/><path d="M284.75,413.471c3.306,2.217,7.464,2.92,11.216,4.019.386.109.663-.267.653-.6a.129.129,0,0,0,.1-.168,23.758,23.758,0,0,0-7.553-9.671c-1.98-1.416-5.276-2.267-6.85.257S282.819,412.174,284.75,413.471Zm-1.376-3.514c-1.129-4.811,4.266-2.623,5.672-1.514a26,26,0,0,1,2.534,2.366,69.615,69.615,0,0,1,4.524,5.553c-1.812-.653-3.663-1.148-5.494-1.732C288.422,413.966,283.977,412.639,283.374,409.956Z" transform="translate(-183.344 -73.322)" fill="#263238"/><path d="M311.173,408.98c-1.267-2.693-4.662-2.237-6.781-1.049a23.758,23.758,0,0,0-8.612,8.731.119.119,0,0,0,.069.178c-.049.327.178.742.584.673,3.861-.653,8.058-.871,11.6-2.693C310.1,413.711,312.371,411.464,311.173,408.98Zm-9.1,6.345c-1.891.366-3.781.643-5.662,1.079a63.776,63.776,0,0,1,5.148-4.949,24.416,24.416,0,0,1,2.792-2.059c1.515-.94,7.137-2.485,5.464,2.168-.95,2.465-5.484,3.277-7.741,3.712Z" transform="translate(-183.485 -73.335)" fill="#263238"/><path d="M286.906,401.347l46.318-15.264s-22.253-64.077-27.549-96.239c-2.792-16.918,10.364-64.968,15.037-69.828,11.938-12.423,12.473-25.421,3.831-43.556H285.451s2.4,19.184,2.059,19.947c-8.731,19.788-34.073,64.176-29.955,97.4C264.267,348.04,286.906,401.347,286.906,401.347Z" transform="translate(-183.095 -71.008)" fill="#455a64"/><path d="M285.819,393.854c9.523-3.821,39.913-13.75,43.289-14.324.079,0,.119.109.049.139-2.97,1.643-18.927,7.1-43.269,14.393a.11.11,0,1,1-.069-.208Z" transform="translate(-183.384 -73.058)" fill="#263238"/><path d="M284.742,177.242c.634,5.019.832,13.621,3.752,13.621s1.92-10.493,1.891-12.869c0-2.2.733-1.93.94.653.544,6.989.653,13.176-3.088,13.067S284,180.7,284,178.213C284,176.926,284.544,175.659,284.742,177.242Z" transform="translate(-183.367 -71.009)" fill="#263238"/><path d="M288.35,191.346a21.41,21.41,0,0,1,.129,5.306c0,.148-.6.059-.663-.049-.386-.713-.267-4.168-.406-5.088a.478.478,0,0,1,.94-.168Z" transform="translate(-183.401 -71.155)" fill="#263238"/><path d="M287.633,196.658c-7.167,12.463-17.64,35.973-18.363,40.309,0,.218.2.327.287.109,1.633-3.96,12.552-27.628,18.739-40.368C288.425,196.46,287.752,196.441,287.633,196.658Z" transform="translate(-183.218 -71.211)" fill="#263238"/><path d="M307.7,251.821c3.108-12.008,6.751-24.084,13.086-34.835,1.752-2.97,3.871-5.732,5.524-8.751a19.711,19.711,0,0,0,2.495-9.167c.129-6.929-2.821-13.5-5.682-19.65-.079-.178-.347,0-.257.168,2.752,5.939,5.623,12.364,5.573,19.056a19.314,19.314,0,0,1-2.514,9.374c-1.465,2.643-3.287,5.068-4.851,7.642-6.375,10.434-10.186,22.174-13.3,33.934-3.316,12.542-7.266,25.441-5.692,38.537a139.578,139.578,0,0,0,4.168,19.145c1.772,6.652,3.623,13.285,5.5,19.917,4.217,14.849,8.444,29.8,13.354,44.467,0,.049.109,0,.089,0-3.89-13.3-8.028-26.52-11.79-39.864q-2.791-9.948-5.464-19.927c-1.772-6.632-3.692-13.255-4.851-20.026a59.454,59.454,0,0,1,.059-20.719C304.314,264.6,306.046,258.2,307.7,251.821Z" transform="translate(-183.545 -71.038)" fill="#263238"/><path d="M326.207,176.962a49.4,49.4,0,0,1-5.692,2.871l-.931.376a67.094,67.094,0,0,1-16.967,4.207c-17.393,2.118-33.805-1.5-35.191-3.762l1.851-17.571.1-.99.247-2.386s-4.3-5.5-4.524-11.879a9.262,9.262,0,0,1,.2-2.049c.049-.3.119-.6.2-.931,1.267-5.148,5.365-12.77,8.86-18.056a39.327,39.327,0,0,1,3.791-5.039c3.96-4.167,8.384-5.118,12.73-3.96h0a18.75,18.75,0,0,1,5.563,2.673,39.854,39.854,0,0,1,10.384,11.127c3.128,4.781,6.454,11.79,9.444,18.868.109.247.208.495.307.742C321.95,164.133,326.207,176.962,326.207,176.962Z" transform="translate(-183.176 -70.412)" fill="#40a0c0"/><path d="M281.376,122.315a.515.515,0,1,1-.515-.515.515.515,0,0,1,.515.515Zm7.315-.5a.515.515,0,1,0,.515.5.5.5,0,0,0-.515-.5Zm7.84,0a.515.515,0,1,0,.5.5A.5.5,0,0,0,296.531,121.81Zm-23.5,11.532a.629.629,0,1,0,.475.515.5.5,0,0,0-.475-.515Zm7.83,0a.515.515,0,1,0,0,1.03.525.525,0,0,0,.515-.515.515.515,0,0,0-.535-.515Zm7.83,0a.5.5,0,0,0-.5.515.515.515,0,1,0,.5-.515Zm7.84,0a.629.629,0,1,0,.475.515.5.5,0,0,0-.475-.515Zm7.83,0a.515.515,0,0,0,0,1.03.524.524,0,0,0,.515-.515.515.515,0,0,0-.515-.515Zm-27.42-5.831a.515.515,0,1,0,.515.5.5.5,0,0,0-.515-.5Zm7.84,0a.515.515,0,1,0,.5.5.5.5,0,0,0-.485-.5Zm7.83,0a.515.515,0,1,0,.561.2A.515.515,0,0,0,292.611,127.512Zm7.83,0a.515.515,0,1,0,.515.5.5.5,0,0,0-.515-.5Zm-34.973,17.452c-.079.327-.148.634-.2.931a.5.5,0,0,0,.436-.5A.5.5,0,0,0,265.468,144.964Zm7.563-.079a.515.515,0,1,0,.5.5A.5.5,0,0,0,273.031,144.885Zm7.83,0a.515.515,0,1,0,.561.2A.515.515,0,0,0,280.861,144.885Zm7.83,0a.515.515,0,1,0,.515.5.5.5,0,0,0-.515-.5Zm7.84,0a.515.515,0,1,0,.5.5A.5.5,0,0,0,296.531,144.885Zm7.83,0a.515.515,0,1,0,.561.2A.515.515,0,0,0,304.361,144.885Zm7.83,0a.515.515,0,1,0,.515.5.5.5,0,0,0-.515-.5Zm-43.081-5.84a.515.515,0,0,0,0,1.03.525.525,0,0,0,.515-.515.515.515,0,0,0-.515-.515Zm7.83,0a.5.5,0,0,0-.5.515.515.515,0,1,0,.5-.515Zm7.84,0a.629.629,0,1,0,.475.515.5.5,0,0,0-.455-.515Zm7.83,0a.515.515,0,0,0,0,1.029.525.525,0,0,0,.515-.515.515.515,0,0,0-.515-.515Zm7.83,0a.5.5,0,0,0-.5.515.515.515,0,1,0,.5-.515Zm7.84,0a.629.629,0,1,0,.475.515.5.5,0,0,0-.475-.515Zm-35.251,17.373a.629.629,0,1,0,.475.515.5.5,0,0,0-.475-.515Zm7.83,0a.515.515,0,1,0,0,1.029.525.525,0,0,0,.515-.515.515.515,0,0,0-.535-.515Zm7.83,0a.5.5,0,0,0-.5.515.515.515,0,1,0,.5-.515Zm7.84,0a.629.629,0,1,0,.475.515.5.5,0,0,0-.475-.515Zm7.83,0a.515.515,0,0,0,0,1.029.524.524,0,0,0,.515-.515.515.515,0,0,0-.515-.515Zm7.83,0a.5.5,0,0,0-.5.515.515.515,0,1,0,.5-.515Zm-43.081-5.831a.515.515,0,1,0,.561.2A.515.515,0,0,0,269.111,150.586Zm7.83,0a.515.515,0,1,0,.515.5.5.5,0,0,0-.515-.5Zm7.84,0a.515.515,0,1,0,.5.5.5.5,0,0,0-.485-.5Zm7.83,0a.515.515,0,1,0,.561.2A.515.515,0,0,0,292.611,150.586Zm7.83,0a.515.515,0,1,0,.515.5.5.5,0,0,0-.515-.5Zm7.84,0a.515.515,0,1,0,.5.5.5.5,0,0,0-.505-.5Zm7.919,0h-.139a.515.515,0,1,0,.445.762,2.77,2.77,0,0,0-.257-.742ZM272.982,167.94a.515.515,0,1,0,.5.5.5.5,0,0,0-.456-.485Zm7.83,0a.515.515,0,1,0,.561.2.515.515,0,0,0-.561-.2Zm7.83,0a.515.515,0,1,0,.515.5.5.5,0,0,0-.465-.485Zm7.84,0a.515.515,0,1,0,.5.5.5.5,0,0,0-.456-.485Zm7.83,0a.515.515,0,1,0,.561.2.515.515,0,0,0-.561-.2Zm7.83,0a.515.515,0,1,0,.515.5.5.5,0,0,0-.465-.485Zm7.84,0a.515.515,0,1,0,.5.5.5.5,0,0,0-.456-.485Zm-50.921-5.84a.515.515,0,0,0,0,1.029.524.524,0,0,0,.515-.515.515.515,0,0,0-.465-.495Zm7.83,0a.5.5,0,0,0-.5.515.515.515,0,1,0,.5-.515Zm7.84,0a.629.629,0,1,0,.475.515.5.5,0,0,0-.406-.495Zm7.83,0a.515.515,0,1,0,0,1.029.525.525,0,0,0,.515-.515.515.515,0,0,0-.465-.495Zm7.83,0a.5.5,0,0,0-.5.515.515.515,0,1,0,.5-.515Zm7.84,0a.629.629,0,1,0,.475.515.5.5,0,0,0-.426-.495Zm7.83,0a.515.515,0,1,0,0,1.029.525.525,0,0,0,.515-.515.515.515,0,0,0-.465-.495Zm-43.081,17.373a.629.629,0,1,0,.475.515.5.5,0,0,0-.426-.495Zm7.83,0a.515.515,0,0,0,0,1.029.525.525,0,0,0,.515-.515.515.515,0,0,0-.485-.495Zm7.83,0a.5.5,0,0,0-.5.515.515.515,0,1,0,.5-.515Zm7.84,0a.629.629,0,1,0,.475.515.5.5,0,0,0-.426-.495Zm7.83,0a.515.515,0,0,0,0,1.029.525.525,0,0,0,.515-.515.515.515,0,0,0-.466-.495Zm7.83,0a.5.5,0,0,0-.5.515.515.515,0,1,0,.5-.515Zm7.84,0a.515.515,0,0,0-.515.515.446.446,0,0,0,.069.247l.931-.376a.5.5,0,0,0-.436-.366Zm-50.921-5.831a.515.515,0,1,0,.561.2A.515.515,0,0,0,269.062,173.641Zm7.83,0a.515.515,0,1,0,.515.5.5.5,0,0,0-.466-.485Zm7.84,0a.515.515,0,1,0,.5.5.5.5,0,0,0-.436-.485Zm7.83,0a.515.515,0,1,0,.561.2A.515.515,0,0,0,292.562,173.641Zm7.83,0a.515.515,0,1,0,.515.5.5.5,0,0,0-.466-.485Zm7.84,0a.515.515,0,1,0,.5.5.5.5,0,0,0-.456-.485Zm7.83,0a.515.515,0,1,0,.561.2A.515.515,0,0,0,316.062,173.641Zm7.83,0a.515.515,0,1,0,.515.5.5.5,0,0,0-.466-.485Z" transform="translate(-183.177 -70.457)" fill="#fff"/><path d="M326.47,176.968c-7.127,4.227-15.482,6.474-23.619,7.454-3.781-19.323-10.216-57.5-11.73-66.522a18.749,18.749,0,0,1,5.563,2.673A39.855,39.855,0,0,1,307.067,131.7C315.977,145.33,326.47,176.968,326.47,176.968Z" transform="translate(-183.438 -70.417)" fill="#263238"/><path d="M303.27,125.6c13,14.849,30.964,40.358,24.134,46.743-11.235,10.483-45.536,18.313-53.405,19.8-3.405.634-11.711-21.352-9.6-24.391S303,160.306,303.1,158.039c.069-1.277-5.019-12.017-9.464-25.391C288.5,117.206,299.548,121.334,303.27,125.6Z" transform="translate(-183.165 -70.456)" fill="#eb9481"/><path d="M269.86,165.94s-10.513.594-17.373,1.307c-3.831.4-10.325,1.663-13.007,3.237-3.96,2.356-19.244,14.779-16.314,18.541,2.653,3.405,14.393-8.909,14.393-8.909s-12.948,11.4-8.988,14.908,15.353-12.2,15.353-12.2-13.037,12.008-8.394,14.987c3.514,2.247,14.651-11.394,14.651-11.394s-11.136,10.4-7.622,12.869c3.88,2.722,14.948-9.216,14.948-9.216,9.978,4.771,16.69,2.97,21.3,1.1C279.927,190.747,269.86,165.94,269.86,165.94Z" transform="translate(-182.749 -70.902)" fill="#eb9481"/><path d="M241.864,176c-1.564,1.277-3.168,2.574-4.613,3.96s-2.851,2.891-4.167,4.435a34.945,34.945,0,0,0-4.524,6.514c2.534-3.96,7.642-9.147,9.1-10.562s2.821-2.91,4.267-4.326C241.944,176,241.864,175.94,241.864,176Z" transform="translate(-182.807 -71.004)" fill="#263238"/><path d="M247.148,181.16c-1.98,1.732-3.96,3.366-5.771,5.187s-3.445,3.673-5.167,5.6c-.129.148,0,.168.129,0,1.792-1.851,3.593-3.435,5.415-5.266s3.564-3.742,5.435-5.5C247.217,181.18,247.178,181.13,247.148,181.16Z" transform="translate(-182.884 -71.056)" fill="#263238"/><path d="M252.5,184.81a57.68,57.68,0,0,0-8.216,8.592c-.129.158,0,.168.178,0,2.673-2.91,4.752-5.217,8.127-8.513C252.644,184.859,252.565,184.75,252.5,184.81Z" transform="translate(-182.965 -71.093)" fill="#263238"/><path d="M262.741,166.32c-4.8.277-9.721.564-14.482,1.237a24.906,24.906,0,0,0-11.493,4.326,67.46,67.46,0,0,0-8.909,8.3,29.8,29.8,0,0,0-4.138,5.058c-.663,1.119-1.633,2.881-.574,3.96,1.287,1.356,5.623-.327,10.008-4.851.158-.158.049-.247-.119-.1-6.2,5.732-8.85,5.286-9.592,4.415-.475-.554-.119-1.6.228-2.405a15.174,15.174,0,0,1,2.128-3.227,64.435,64.435,0,0,1,9.345-9.315,25.421,25.421,0,0,1,12.9-5.732c4.87-.713,9.9-.653,14.73-1.435C262.87,166.488,262.84,166.32,262.741,166.32Z" transform="translate(-182.748 -70.906)" fill="#263238"/><path d="M319.026,143.522,296.7,144.838a102.388,102.388,0,0,1-4.128-15.69c-.059-.317-.109-.634-.158-.931v-.277h0c-1.257-8.216,1.307-10.493,9.256-4.118a76.081,76.081,0,0,1,10.345,10.2l.287.337c1.5,1.782,2.772,3.435,3.791,4.831.208.287.416.564.594.831C318.194,142.136,319.026,143.522,319.026,143.522Z" transform="translate(-183.448 -70.44)" fill="#40a0c0"/><path d="M297.35,122.315a.515.515,0,1,1-.5-.5A.5.5,0,0,1,297.35,122.315Z" transform="translate(-183.491 -70.457)" fill="#fff"/><path d="M297.349,133.995a.515.515,0,1,1-.5-.515.5.5,0,0,1,.5.515Z" transform="translate(-183.491 -70.575)" fill="#fff"/><circle cx="0.515" cy="0.515" r="0.515" transform="translate(120.669 62.886)" fill="#fff"/><circle cx="0.515" cy="0.515" r="0.515" transform="translate(108.919 57.045)" fill="#fff"/><circle cx="0.515" cy="0.515" r="0.515" transform="translate(116.749 57.045)" fill="#fff"/><circle cx="0.515" cy="0.515" r="0.515" transform="translate(116.749 68.587)" fill="#fff"/><circle cx="0.515" cy="0.515" r="0.515" transform="translate(124.589 68.587)" fill="#fff"/><path d="M316.892,140.172a.5.5,0,0,1-.267.079.515.515,0,0,1-.515-.515.5.5,0,0,1,.188-.4C316.506,139.627,316.714,139.9,316.892,140.172Z" transform="translate(-183.691 -70.634)" fill="#fff"/><path d="M283.549,81.878c-1.237-.465-2.425-7.4,2.148-10.711s10.4.465,7.919,6.157C292.1,80.888,286.182,82.868,283.549,81.878Z" transform="translate(-183.351 -69.933)" fill="#263238"/><path d="M296.5,120.564l-.069.079c-3.643,3.9-10.978,10.978-15.888,10.364a10.463,10.463,0,0,1-7.137-4.7,48.8,48.8,0,0,1,4.732-5.167C283.893,115.169,290.5,116.476,296.5,120.564Z" transform="translate(-183.26 -70.409)" fill="#eb9481"/><path d="M289.467,119.334c-.079,1.059-3.96,8.474-8.642,8.988-1.534.158-2.811-8.177-2.811-8.177l-.238-.594-3.277-8.325,9.117-8.088,1.327-1.089s.752,2.336,1.653,5.256a1.43,1.43,0,0,0,.129.416c.05.148.109.317.148.475.139.426.277.871.416,1.317s.2.673.3.99.188.7.3,1.069A59.028,59.028,0,0,1,289.467,119.334Z" transform="translate(-183.271 -70.257)" fill="#eb9481"/><path d="M286.6,107.306a17.947,17.947,0,0,1-8.82,12.245l-3.277-8.325,9.117-8.088,1.327-1.089S285.7,104.386,286.6,107.306Z" transform="translate(-183.271 -70.257)" fill="#263238"/><path d="M260.459,99.042c.99,15.67,10.513,16.828,13.859,16.611,3.069-.2,13.483-1.277,14.1-16.957s-6.989-20.174-14.027-20.085S259.449,83.381,260.459,99.042Z" transform="translate(-183.128 -70.021)" fill="#eb9481"/><path d="M263.222,96.641a8.932,8.932,0,0,0,.99-.366,1.782,1.782,0,0,0,.99-.574.554.554,0,0,0-.089-.673,1.426,1.426,0,0,0-1.406-.139,2.069,2.069,0,0,0-1.168.891.6.6,0,0,0,.683.861Z" transform="translate(-183.149 -70.184)" fill="#263238"/><path d="M274.126,95.5a10.069,10.069,0,0,1-1.089-.079,1.722,1.722,0,0,1-1.079-.287.564.564,0,0,1-.1-.683,1.4,1.4,0,0,1,1.317-.495,1.98,1.98,0,0,1,1.356.535.594.594,0,0,1-.406,1.01Z" transform="translate(-183.243 -70.175)" fill="#263238"/><path d="M272.59,99.77s.089,0,.089.079c.089,1.069.366,2.277,1.366,2.524v.059C272.847,102.393,272.5,100.79,272.59,99.77Z" transform="translate(-183.251 -70.234)" fill="#263238"/><path d="M273.411,98.54c1.693-.317,2.217,3.088.643,3.385S272.006,98.807,273.411,98.54Z" transform="translate(-183.251 -70.222)" fill="#263238"/><path d="M274.128,98.616c.327.149.663.445.99.426s.683-.426.9-.812h.069c.109.653,0,1.366-.733,1.564s-1.168-.317-1.435-.99C273.91,98.755,274,98.557,274.128,98.616Z" transform="translate(-183.265 -70.219)" fill="#263238"/><path d="M265.823,100.29s-.079.069-.069.109c.2,1.049.257,2.287-.643,2.792v.059C266.268,102.893,266.179,101.26,265.823,100.29Z" transform="translate(-183.176 -70.24)" fill="#263238"/><path d="M264.689,99.33c-1.722.139-1.307,3.574.277,3.435S266.124,99.211,264.689,99.33Z" transform="translate(-183.16 -70.23)" fill="#263238"/><path d="M263.982,99.65c-.247.208-.475.574-.792.634s-.693-.267-.99-.594h0c.059.653.356,1.317.99,1.366s.94-.564.99-1.237C264.2,99.729,264.081,99.561,263.982,99.65Z" transform="translate(-183.146 -70.233)" fill="#263238"/><path d="M273.28,108c-.2.3-.386.683-.762.792a2.97,2.97,0,0,1-1.178,0v.059a1.445,1.445,0,0,0,1.445.307,1.138,1.138,0,0,0,.634-1.089C273.4,108,273.31,108,273.28,108Z" transform="translate(-183.239 -70.317)" fill="#263238"/><path d="M268.856,103.833a6.929,6.929,0,0,0-1.643.624c-.1-3.356.337-6.7.188-10.048a.1.1,0,1,0-.2,0,53.649,53.649,0,0,0-.663,10.81c0,.366,2.346-1.208,2.346-1.208S268.876,103.833,268.856,103.833Z" transform="translate(-183.19 -70.179)" fill="#263238"/><path d="M287.439,100.022c-3.89.406-6.682-11.334-7.008-12.78.158.921.99,5.8.634,6.048a3.782,3.782,0,0,1-1.247-.059h0a11.673,11.673,0,0,0-.386-1.732,8.749,8.749,0,0,0,0,1.683l-.742-.1a14.266,14.266,0,0,0-.891-3.673c-.178-.445,0,1.653-.2,3.534a47.2,47.2,0,0,0-10.384-.366c-.99.1-1.8.228-2.534.366-.208-1.445-.257-2.97-.317-2.663a14.107,14.107,0,0,0-.228,2.772l-1.089.238c-.386-1.98.129-5.425-.129-4.88a14.522,14.522,0,0,0-1.267,5.306c-1.356.465-1.7.792-1.792.436a17.224,17.224,0,0,1,3.7-11.285c4.2-5.237,13.69-7.731,20.115-1.475,0,0,4.89,2.3,6.256,6.929S289.7,99.775,287.439,100.022Z" transform="translate(-183.123 -70.012)" fill="#263238"/><path d="M286.288,100.223s2.653-5.355,5.029-4.484.911,8.286-1.524,9.642a2.663,2.663,0,0,1-3.732-.881Z" transform="translate(-183.387 -70.193)" fill="#eb9481"/><path d="M290.855,97.88v.059c-1.7.99-2.4,2.831-2.8,4.672a1.465,1.465,0,0,1,2.109-.723.059.059,0,0,1,0,.109,1.614,1.614,0,0,0-1.693.832,7.4,7.4,0,0,0-.634,1.564c-.059.178-.366.129-.337-.059v-.049C287.113,101.958,288.42,98.484,290.855,97.88Z" transform="translate(-183.401 -70.215)" fill="#263238"/><path d="M268.83,106.636a4.444,4.444,0,0,0,1.792,1.317,1.979,1.979,0,0,0,1.2,0c.861-.247.861-.99.683-1.713a4.7,4.7,0,0,0-.406-.99,5.722,5.722,0,0,1-3.267,1.386Z" transform="translate(-183.213 -70.29)" fill="#263238"/><path d="M270.64,107.983a1.98,1.98,0,0,0,1.2,0c.861-.247.861-.99.683-1.713A2.039,2.039,0,0,0,270.64,107.983Z" transform="translate(-183.232 -70.3)" fill="#ff9cbd"/></g><g transform="translate(213.861 111.596)"><path d="M255.061,121.272a12.028,12.028,0,0,1,2.059,6.642c0,8.414-9.236,15.235-20.63,15.235s-20.61-6.82-20.61-15.235,9.226-15.235,20.61-15.235a24.748,24.748,0,0,1,14.225,4.217l7.107-1.8Z" transform="translate(-215.397 -112.257)" fill="#fff"/><path d="M255.056,121.268a11.75,11.75,0,0,1,.554,12.78,16.184,16.184,0,0,1-4.544,4.95,21.61,21.61,0,0,1-6.009,3.089,27.52,27.52,0,0,1-6.632,1.356,28.114,28.114,0,0,1-6.761-.327,22.481,22.481,0,0,1-12.1-5.88,14.472,14.472,0,0,1-3.633-5.811,11.77,11.77,0,0,1-.059-6.87,14.166,14.166,0,0,1,3.544-5.85,19.948,19.948,0,0,1,5.563-3.96,26.47,26.47,0,0,1,13.215-2.415,24.649,24.649,0,0,1,12.651,4.326h-.188l7.127-1.7.247-.059-.109.228Zm0,0,2.653-6.226.139.158-7.078,1.911h-.1l-.089-.059a24.173,24.173,0,0,0-12.423-3.96,26.955,26.955,0,0,0-6.563.465,23.362,23.362,0,0,0-6.236,2.029,18.907,18.907,0,0,0-5.286,3.781,13.265,13.265,0,0,0-3.277,5.484,10.81,10.81,0,0,0,.089,6.316,13.3,13.3,0,0,0,3.356,5.435,21.54,21.54,0,0,0,11.592,5.692,27.539,27.539,0,0,0,13.027-.832,18.669,18.669,0,0,0,10.4-7.632,11.878,11.878,0,0,0,1.742-6.276,12.234,12.234,0,0,0-1.95-6.286Z" transform="translate(-215.392 -112.253)" fill="#263238"/><path d="M229.166,128.048a2.138,2.138,0,1,0-2.138,2.138A2.138,2.138,0,0,0,229.166,128.048Z" transform="translate(-215.488 -112.391)" fill="#263238"/><path d="M238.826,128.048a2.138,2.138,0,1,0-2.138,2.138A2.138,2.138,0,0,0,238.826,128.048Z" transform="translate(-215.585 -112.391)" fill="#263238"/><path d="M248.476,128.048a2.138,2.138,0,1,0-2.138,2.138,2.138,2.138,0,0,0,2.138-2.138Z" transform="translate(-215.683 -112.391)" fill="#263238"/></g><g transform="translate(127.886 147.071)"><rect width="77.688" height="3.484" transform="translate(50.713 47.941)" fill="#455a64"/><rect width="39.101" height="3.484" transform="translate(50.713 47.941)" fill="#263238"/><path d="M214.147,199.516H138.439l-9.9-51.426h75.708Z" transform="translate(-128.54 -148.09)" fill="#455a64"/><path d="M176.336,174.013a4.148,4.148,0,0,1-4.2,4.613,5.128,5.128,0,0,1-5.019-4.613,4.158,4.158,0,0,1,4.207-4.6,5.118,5.118,0,0,1,5.009,4.6Z" transform="translate(-128.929 -148.305)" fill="#a6a6a6"/></g><g transform="translate(279.411 169.69)"><path d="M312.018,191.69a7.226,7.226,0,0,1-8.038,4.336,9.37,9.37,0,0,1-1.98-.614l1.178-2.732a5.939,5.939,0,0,0,1.069.366,4.356,4.356,0,0,0,5.088-2.594c1.3-2.811.861-8.592-1.336-10.434-.148-.139-.713-.3-2.7.535-.366.158-.782.337-1.247.564a5.262,5.262,0,0,1-1.128.475l-.327-1.445-.416-1.425c.129-.049.327-.148.584-.277a19.061,19.061,0,0,1,2.811-1.158c1.495-.445,3.128-.564,4.336.455C313.463,180.751,313.641,188.166,312.018,191.69Z" transform="translate(-281.816 -171.001)" fill="#ee7a15"/><path d="M303.158,192.84a5.938,5.938,0,0,0,1.069.366l-.247,2.97a9.377,9.377,0,0,1-1.98-.614Z" transform="translate(-281.816 -171.161)" fill="#263238"/><path d="M305.555,177.29l-.277,3.267c-.366.158-.782.337-1.247.564a5.267,5.267,0,0,1-1.129.475l-.327-1.445-.416-1.426c.129-.049.327-.148.584-.277A19.064,19.064,0,0,1,305.555,177.29Z" transform="translate(-281.817 -171.004)" fill="#263238"/><path d="M303.754,170.94l-.1,2.643L303.6,175.2l-.03.97L302.7,199.4H282.659l-.861-23.233-.03-.97-.059-1.614-.1-2.643Z" transform="translate(-281.61 -170.94)" fill="#ee7a15"/><path d="M303.754,170.94l-.1,2.643H281.709l-.1-2.643Z" transform="translate(-281.61 -170.94)" fill="#455a64"/><path d="M303.6,175.24l-.03.97H281.8l-.03-.97Z" transform="translate(-281.612 -170.983)" fill="#455a64"/></g><g transform="translate(113.374 198.15)"><path d="M164.328,206.34l-.248,19.511-2.722,214H158.3l-2.722-214-.247-19.511Z" transform="translate(-114.298 -199.757)" fill="#455a64"/><path d="M155.33,206.34h9l-.248,19.511h-8.5Z" transform="translate(-114.298 -199.757)" fill="#263238"/><path d="M383.518,206.34l-.247,19.511-2.722,214H377.49l-2.722-214-.247-19.511Z" transform="translate(-116.511 -199.757)" fill="#455a64"/><path d="M383.518,206.34l-.247,19.511h-8.5l-.247-19.511Z" transform="translate(-116.511 -199.757)" fill="#263238"/><path d="M132.8,206.34l-.247,19.511-2.722,214H126.77l-2.722-214L123.8,206.34Z" transform="translate(-113.98 -199.757)" fill="#37474f"/><path d="M123.8,206.34h9l-.247,19.511h-8.5Z" transform="translate(-113.98 -199.757)" fill="#263238"/><path d="M351.978,206.34l-.247,19.511-2.722,214H345.95l-2.722-214-.247-19.511Z" transform="translate(-116.192 -199.757)" fill="#37474f"/><path d="M342.98,206.34h9l-.247,19.511h-8.5Z" transform="translate(-116.192 -199.757)" fill="#263238"/><rect width="214.721" height="3.96" transform="translate(14.324 172.382)" fill="#37474f"/><rect width="27.816" height="11.295" transform="translate(244.537)" fill="#455a64"/><rect width="244.536" height="11.295" fill="#37474f"/></g><g transform="translate(79.582 279.961)"><path d="M164.094,318.357c-15.928,22.946-32.469,49.5-35.864,77.807,0,.426.653.544.733.119a167.865,167.865,0,0,1,6.682-22.768c10.82-3.316,21.451-6.088,26.866-17.076,5.514-11.295,4.356-25.738,2.891-37.864C165.3,317.921,164.421,317.921,164.094,318.357Z" transform="translate(-80.233 -282.696)" fill="#40a0c0"/><path d="M135.36,373.065c7.335-16.779,16.779-33.657,28.846-47.515.079-.089.208,0,.139.139-7.919,9.85-13.859,20.56-19.7,31.459,5.454-5.623,11.433-10.661,16.6-16.611.1-.109.257,0,.168.168-5.128,6.236-10.721,13.017-17.422,17.65q-2.673,5.019-5.395,10.048c.445-.247.911-.475,1.376-.713.079,0,.148.079.069.119-.515.267-.99.544-1.544.772-.861,1.584-1.722,3.178-2.6,4.761A.3.3,0,1,1,135.36,373.065Z" transform="translate(-80.305 -282.771)" fill="#263238"/><path d="M140.919,367.522a96.954,96.954,0,0,0,12.671-8.592c.109-.089.267.069.158.158a67.313,67.313,0,0,1-12.641,8.751C140.9,367.908,140.711,367.641,140.919,367.522Z" transform="translate(-80.36 -283.108)" fill="#263238"/><path d="M126.168,398.446c0,.346.624.317.6,0-.178-9.285-.525-18.6-.663-27.925,2.237-4.86,7.266-7.662,10.7-11.612a49.131,49.131,0,0,0,6.345-9.4,66.324,66.324,0,0,0,6.929-25.807c.693-9.949-4.019-42.566-8.177-41.328-2.148.653-8.7,17.076-10.4,22.491a154.646,154.646,0,0,0-5.811,27.371C122.941,354.118,123.871,376.53,126.168,398.446Z" transform="translate(-80.191 -282.335)" fill="#40a0c0"/><path d="M125,358.493h0c.168-11.75,2.475-23.679,4.613-35.132,2.316-12.344,5.1-23.985,11.1-35.1.109-.208.416,0,.317.178a129.477,129.477,0,0,0-8.909,26.945c.406-.673.9-1.307,1.326-1.98.158-.247.574,0,.416.228a17.283,17.283,0,0,1-1.891,2.841.179.179,0,0,1-.089,0c-1.911,8.83-3.217,17.818-4.286,26.826.089-.119.188-.247.287-.356s.178,0,.139.1c-.158.307-.337.6-.5.9-.544,4.563-.99,9.107-1.534,13.621,7.919-7.147,14.552-15.482,18.155-25.629,0-.049.089,0,.079,0-3.514,10.523-9.266,19.947-18.333,26.529-.139,1.218-.267,2.435-.406,3.643,0,.248-.436.2-.436,0v-3.217a.248.248,0,0,1-.04-.4Z" transform="translate(-80.2 -282.394)" fill="#263238"/><path d="M128.3,341.625c5.939-9.394,11.423-18.521,15.65-28.836,0-.119.238,0,.2.079-3.514,10.236-8.553,20.64-15.532,28.984C128.478,342.021,128.181,341.814,128.3,341.625Z" transform="translate(-80.234 -282.642)" fill="#263238"/><path d="M135.7,310.589c2.425-4.6,5-9.087,7.266-13.78.069-.129.247,0,.2.109a70.011,70.011,0,0,1-7.068,13.859.228.228,0,0,1-.4-.188Z" transform="translate(-80.309 -282.481)" fill="#263238"/><path d="M134.74,312.75c.059,0,.059.069,0,.079S134.69,312.75,134.74,312.75Z" transform="translate(-80.299 -282.642)" fill="#263238"/><path d="M120.969,370.625a94.16,94.16,0,0,1-1.643,18.343c.119.653.228,1.307.346,1.98,1.742-6.712,2.7-19.966,2.693-21.095h0a135.05,135.05,0,0,0-2.851-27.539c-3.366-16.967-10.117-33.152-22.372-45.536a.851.851,0,0,0-1.307.307c-4.445,12.334-2.346,26.846,2.089,38.893a71.483,71.483,0,0,0,9.929,18.165C112.129,359.756,117.474,364.458,120.969,370.625Z" transform="translate(-79.881 -282.479)" fill="#40a0c0"/><path d="M98.765,302.449c11.79,17.957,20.263,39.418,21.847,60.988,0,.386-.614.5-.683.109-.327-1.93-.673-3.841-1.039-5.751h0c-4.791-4.326-9.711-8.909-13.215-14.383-.059-.089.079-.208.158-.129,4.187,4.524,8.107,9.157,12.809,13.156q-1.406-7.127-3.306-14.017l-.921-.99c-.2-.228.119-.574.327-.346l.277.287a165.312,165.312,0,0,0-6.444-18.58c-2.97-3.336-6.266-6.2-8.474-10.265a.089.089,0,0,1,.149-.089c1.742,2.307,3.445,4.633,5.4,6.761.792.851,1.643,1.643,2.455,2.475a143.439,143.439,0,0,0-9.78-18.967.257.257,0,0,1,.436-.257Z" transform="translate(-79.931 -282.537)" fill="#263238"/><path d="M101.727,325.169c3.781,4.8,8.068,9.355,11.6,14.324.1.139-.109.3-.238.188-4.464-3.96-8.305-9.424-11.612-14.364A.144.144,0,0,1,101.727,325.169Z" transform="translate(-79.963 -282.767)" fill="#263238"/><path d="M114,340.77l.168.148c.109.109-.059.277-.168.178l-.158-.158C113.721,340.839,113.879,340.661,114,340.77Z" transform="translate(-80.088 -282.925)" fill="#263238"/><path d="M79.75,332.989c1.178,9.374,6.454,20.471,12.7,27.549a29.8,29.8,0,0,0,9.9,7.246c4.237,1.98,8.681,4.2,13.047,5.761a84.878,84.878,0,0,1,5.029,16.056c.119-.475.247-.99.376-1.445-3.465-23.758-19.471-43.655-39.6-56.147a.99.99,0,0,0-1.455.98Z" transform="translate(-79.744 -282.836)" fill="#40a0c0"/><path d="M86.839,339.877a.167.167,0,0,1,.2-.267,80.674,80.674,0,0,1,26.015,30.232c.158.317-.287.624-.485.3-.99-1.574-1.98-3.108-2.97-4.623h0c-4.524-.723-8.909-3.762-12.3-6.672-.089-.079,0-.218.129-.139a27.583,27.583,0,0,0,5.811,3.831,60.386,60.386,0,0,0,5.791,2.1c-1.752-2.594-3.564-5.078-5.444-7.494-4.89-1.5-9.592-4.346-13.75-7.207-.129-.089,0-.307.129-.228a135.467,135.467,0,0,0,12.76,6.355,112.855,112.855,0,0,0-9.176-10.087c-1.554-.762-3.128-1.534-4.633-2.356a.129.129,0,0,1,.089-.228A16.281,16.281,0,0,1,92.551,345C90.74,343.272,88.859,341.55,86.839,339.877Z" transform="translate(-79.815 -282.913)" fill="#263238"/><path d="M87.508,348.17a5.871,5.871,0,0,1,.772.525c.069.059,0,.158-.089.119a4.548,4.548,0,0,1-.812-.426.129.129,0,0,1,.129-.218Z" transform="translate(-79.82 -283)" fill="#263238"/><path d="M145.032,375.77l-.792,18.105-2.178,49.664H106.97l-2.178-49.664L104,375.77Z" transform="translate(-79.989 -283.278)" fill="#37474f"/><path d="M145.032,375.77l-.792,18.105H104.792L104,375.77Z" transform="translate(-79.989 -283.278)" fill="#263238"/><rect width="47.07" height="11.414" transform="translate(20.992 88.779)" fill="#37474f"/></g></g></svg>