<svg xmlns="http://www.w3.org/2000/svg" xmlns:xlink="http://www.w3.org/1999/xlink" width="902.398" height="801.637" viewBox="0 0 902.398 801.637">
  <defs>
    <clipPath id="clip-path">
      <path id="Path_4446" data-name="Path 4446" d="M333.8,265.262s-92.945,25.094-99.984,27.606-6.018,18.6-6.018,22.111S207.2,423.992,207.2,423.992a137.036,137.036,0,0,0-18.6,14.078c-8.033,7.536-5.024,17.584-5.024,20.1s.5,3.506-2.015,6.018-8.033-1.989-7.013,13.581-4.527,52.334,9.525,54.244,21.117.523,41.71-6.516a51.68,51.68,0,0,0,28.627-23.55v59.295h252.2s25.618-74.864,27.135-124.084,8.033-121.6-.994-135.153-56.783-28.627-98.99-33.651S341.336,263.247,333.8,265.262Z" transform="translate(-174.293 -264.029)" fill="#40a0c0" stroke="#263238" stroke-linecap="round" stroke-linejoin="round" stroke-width="1"/>
    </clipPath>
    <clipPath id="clip-path-2">
      <path id="Path_4454" data-name="Path 4454" d="M241.367,270.354s-8.53,300.215-5.024,300.215h61.309s.5-218.835,4.5-239.429,13.581-57.28,12.063-67.328-69.814-4.527-69.814-4.527A39.981,39.981,0,0,0,241.367,270.354Z" transform="translate(-235.497 -257.772)" fill="#fff" stroke="#263238" stroke-linecap="round" stroke-linejoin="round" stroke-width="1"/>
    </clipPath>
    <clipPath id="clip-path-3">
      <path id="Path_4461" data-name="Path 4461" d="M301.787,286.76a114.769,114.769,0,0,1-62.147,2.276c-2.3,89.753-5.757,234.666-3.3,234.666h61.309S298.124,318.605,301.787,286.76Z" transform="translate(-235.496 -286.76)" fill="#367334" stroke="#263238" stroke-linecap="round" stroke-linejoin="round" stroke-width="1"/>
    </clipPath>
    <clipPath id="clip-path-4">
      <path id="Path_4476" data-name="Path 4476" d="M292.16,299.715l9.551,53.25,10.467-59.295,40.69-4.5s-.366,63.3-.366,79.365,7.039,89.439,9.054,115.135-11.566,34.017-30.144,34.645-33.677-16.564-39.7-51.235.994-97.97-2.015-108.515S274,304.818,274,304.818Z" transform="translate(-274 -289.17)" fill="#40a0c0" stroke="#263238" stroke-linecap="round" stroke-linejoin="round" stroke-width="1"/>
    </clipPath>
  </defs>
  <g id="Studying-bro" transform="translate(-68.29 -137.96)">
    <g id="freepik--background-simple--inject-9" transform="translate(118.387 161.239)">
      <path id="Path_4398" data-name="Path 4398" d="M242.933,131.841S102.939,208.909,88.73,348.932s91.454,269.6,173.462,376.325,227.837,146.111,353.046,98.98,89.308-142.422,182.123-251.844S936.413,444.667,936.831,313.876,762.977,68.341,559.921,65.62,242.933,131.841,242.933,131.841Z" transform="translate(-87.435 -65.541)" fill="#ee7a15"/>
      <path id="Path_4399" data-name="Path 4399" d="M242.933,131.841S102.939,208.909,88.73,348.932s91.454,269.6,173.462,376.325,227.837,146.111,353.046,98.98,89.308-142.422,182.123-251.844S936.413,444.667,936.831,313.876,762.977,68.341,559.921,65.62,242.933,131.841,242.933,131.841Z" transform="translate(-87.435 -65.541)" fill="#fff" opacity="0.7"/>
    </g>
    <g id="freepik--Fan--inject-9" transform="translate(242.433 137.96)">
      <line id="Line_88" data-name="Line 88" x2="43.464" transform="translate(212.808 130.391)" fill="#fff" stroke="#263238" stroke-miterlimit="10" stroke-width="2"/>
      <path id="Path_4400" data-name="Path 4400" d="M368.916,111.128l-6.8,20.384s-203.763,21.745-221.426-8.164,12.246-40.742,82.871-29.883S368.916,111.128,368.916,111.128Z" transform="translate(-135.723 11.099)" fill="#fff" stroke="#263238" stroke-miterlimit="10" stroke-width="1"/>
      <line id="Line_89" data-name="Line 89" x1="43.464" transform="translate(345.057 130.391)" fill="#fff" stroke="#263238" stroke-miterlimit="10" stroke-width="2"/>
      <path id="Path_4401" data-name="Path 4401" d="M276.41,111.128l6.8,20.384s203.763,21.745,221.4-8.164-12.089-40.742-82.74-29.883S276.41,111.128,276.41,111.128Z" transform="translate(91.726 11.099)" fill="#fff" stroke="#263238" stroke-miterlimit="10" stroke-width="1"/>
      <path id="Path_4402" data-name="Path 4402" d="M242.313,126.974s-7.667,43.882,6.123,48.017,46.682,3.219,55.841-9.028,3.009-24.492-7.144-42.914S260.316,103.528,242.313,126.974Z" transform="translate(33.165 43.348)" fill="#fff" stroke="#263238" stroke-miterlimit="10" stroke-width="1"/>
      <path id="Path_4403" data-name="Path 4403" d="M248.24,50.96V188.52h12.377V57.162" transform="translate(46.184 -50.96)" fill="#fff" stroke="#263238" stroke-miterlimit="10" stroke-width="1"/>
      <path id="Path_4404" data-name="Path 4404" d="M248.494,132.213a126.047,126.047,0,0,0,76.146,0h19.494V114.55c0-13.084-25.775-23.55-57.568-23.55S229,101.467,229,114.55v17.663Z" transform="translate(15.078 13.773)" fill="#fff" stroke="#263238" stroke-miterlimit="10" stroke-width="1"/>
      <ellipse id="Ellipse_77" data-name="Ellipse 77" cx="57.568" cy="23.55" rx="57.568" ry="23.55" transform="translate(244.078 122.436)" fill="#fff" stroke="#263238" stroke-miterlimit="10" stroke-width="1"/>
      <ellipse id="Ellipse_78" data-name="Ellipse 78" cx="57.568" cy="23.55" rx="57.568" ry="23.55" transform="translate(244.078 122.436)" fill="#fff" stroke="#263238" stroke-miterlimit="10" stroke-width="1"/>
    </g>
    <g id="freepik--Bookshelves--inject-9" transform="translate(68.29 285.103)">
      <rect id="Rectangle_335" data-name="Rectangle 335" width="37.183" height="103.988" transform="translate(645.49 380.522)" fill="#a8a8a8"/>
      <rect id="Rectangle_336" data-name="Rectangle 336" width="18.579" height="61.807" transform="translate(654.805 389.052)" fill="#8c8c8c"/>
      <circle id="Ellipse_79" data-name="Ellipse 79" cx="5.521" cy="5.521" r="5.521" transform="translate(658.573 464.413)" fill="#8c8c8c"/>
      <rect id="Rectangle_337" data-name="Rectangle 337" width="37.183" height="103.988" transform="translate(698.583 380.522)" fill="#8c8c8c"/>
      <rect id="Rectangle_338" data-name="Rectangle 338" width="18.579" height="61.807" transform="translate(707.872 389.052)" fill="#a8a8a8"/>
      <circle id="Ellipse_80" data-name="Ellipse 80" cx="5.521" cy="5.521" r="5.521" transform="translate(711.666 464.413)" fill="#a8a8a8"/>
      <rect id="Rectangle_339" data-name="Rectangle 339" width="37.183" height="103.988" transform="translate(751.676 380.522)" fill="#8c8c8c"/>
      <rect id="Rectangle_340" data-name="Rectangle 340" width="18.579" height="61.807" transform="translate(760.965 389.052)" fill="#a8a8a8"/>
      <path id="Path_4405" data-name="Path 4405" d="M371.625,323.427a5.547,5.547,0,1,0-5.521,5.547,5.547,5.547,0,0,0,5.521-5.547Z" transform="translate(404.177 146.429)" fill="#a8a8a8"/>
      <rect id="Rectangle_341" data-name="Rectangle 341" width="37.183" height="103.988" transform="translate(804.769 380.522)" fill="#a8a8a8"/>
      <rect id="Rectangle_342" data-name="Rectangle 342" width="18.579" height="61.807" transform="translate(814.058 389.052)" fill="#8c8c8c"/>
      <path id="Path_4406" data-name="Path 4406" d="M391.915,323.427a5.547,5.547,0,1,0-5.547,5.547A5.547,5.547,0,0,0,391.915,323.427Z" transform="translate(436.98 146.429)" fill="#8c8c8c"/>
      <path id="Path_4407" data-name="Path 4407" d="M599.7,206.561v-7.536H585.624V171H574.581v28.025H327.407V171H316.365v28.025h-18.6v7.536h18.6V324.1h-18.6v7.536h18.6V449.208h-18.6v7.536h18.6V574.287h-18.6v7.536h18.6v128.69h11.042V581.823H574.581v128.69h11.043V581.823H599.7v-7.536H585.624V456.745H599.7v-7.536H585.624V331.64H599.7V324.1H585.624V206.561Zm-25.12,367.726H327.407V456.745H574.581Zm0-125.079H327.407V331.64H574.581Zm0-125.1H327.407V206.561H574.581Z" transform="translate(302.696 -91.033)" fill="#a8a8a8"/>
      <rect id="Rectangle_343" data-name="Rectangle 343" width="37.183" height="103.988" transform="translate(772.191 129.082)" fill="#8c8c8c"/>
      <rect id="Rectangle_344" data-name="Rectangle 344" width="18.579" height="61.807" transform="translate(781.48 137.613)" fill="#8c8c8c"/>
      <path id="Path_4408" data-name="Path 4408" d="M379.465,227.367a5.547,5.547,0,1,0-5.521,5.547,5.548,5.548,0,0,0,5.521-5.547Z" transform="translate(416.852 -8.872)" fill="#8c8c8c"/>
      <rect id="Rectangle_345" data-name="Rectangle 345" width="37.183" height="103.988" transform="translate(728.57 129.082)" fill="#8c8c8c"/>
      <rect id="Rectangle_346" data-name="Rectangle 346" width="18.579" height="61.807" transform="translate(737.886 137.613)" fill="#8c8c8c"/>
      <circle id="Ellipse_81" data-name="Ellipse 81" cx="5.521" cy="5.521" r="5.521" transform="translate(741.654 212.974)" fill="#8c8c8c"/>
      <rect id="Rectangle_347" data-name="Rectangle 347" width="37.183" height="103.988" transform="translate(684.976 129.082)" fill="#a8a8a8"/>
      <rect id="Rectangle_348" data-name="Rectangle 348" width="18.579" height="61.807" transform="translate(694.265 137.613)" fill="#8c8c8c"/>
      <circle id="Ellipse_82" data-name="Ellipse 82" cx="5.521" cy="5.521" r="5.521" transform="translate(698.033 212.974)" fill="#8c8c8c"/>
      <rect id="Rectangle_349" data-name="Rectangle 349" width="37.183" height="103.988" transform="translate(823.426 129.082)" fill="#8c8c8c"/>
      <rect id="Rectangle_350" data-name="Rectangle 350" width="18.579" height="61.807" transform="translate(832.741 137.613)" fill="#8c8c8c"/>
      <circle id="Ellipse_83" data-name="Ellipse 83" cx="5.521" cy="5.521" r="5.521" transform="translate(836.509 212.974)" fill="#8c8c8c"/>
      <rect id="Rectangle_351" data-name="Rectangle 351" width="37.183" height="103.988" transform="translate(638.529 129.082)" fill="#a8a8a8"/>
      <rect id="Rectangle_352" data-name="Rectangle 352" width="18.579" height="61.807" transform="translate(647.818 137.613)" fill="#8c8c8c"/>
      <circle id="Ellipse_84" data-name="Ellipse 84" cx="5.521" cy="5.521" r="5.521" transform="translate(651.586 212.974)" fill="#8c8c8c"/>
      <path id="Path_4409" data-name="Path 4409" d="M452.84,169.37H341.08a23.184,23.184,0,0,1,5.573,15.7h0a23.289,23.289,0,0,1-5.574,15.7H452.84a15.7,15.7,0,0,0,15.7-15.7h0A15.7,15.7,0,0,0,452.84,169.37Z" transform="translate(372.732 -93.669)" fill="#d4d4d4" stroke="#fff" stroke-miterlimit="10" stroke-width="1"/>
      <path id="Path_4410" data-name="Path 4410" d="M385.47,169.61v29.8a15.7,15.7,0,0,0,11.2-14.941h0a15.7,15.7,0,0,0-11.2-14.863Z" transform="translate(444.498 -93.281)" fill="#9c9c9c" stroke="#fff" stroke-miterlimit="10" stroke-width="1"/>
      <path id="Path_4411" data-name="Path 4411" d="M452.84,156.7H341.08a23.289,23.289,0,0,1,5.573,15.7h0a23.289,23.289,0,0,1-5.574,15.7H452.84a15.7,15.7,0,0,0,15.7-15.7h0A15.7,15.7,0,0,0,452.84,156.7Z" transform="translate(372.732 -114.152)" fill="#d4d4d4" stroke="#fff" stroke-miterlimit="10" stroke-width="1"/>
      <path id="Path_4412" data-name="Path 4412" d="M385.47,156.94v29.935a15.7,15.7,0,0,0,11.2-14.968h0a15.7,15.7,0,0,0-11.2-14.968Z" transform="translate(444.498 -113.764)" fill="#9c9c9c" stroke="#fff" stroke-miterlimit="10" stroke-width="1"/>
      <rect id="Rectangle_353" data-name="Rectangle 353" width="37.183" height="103.988" transform="translate(675.163)" fill="#a8a8a8"/>
      <rect id="Rectangle_354" data-name="Rectangle 354" width="18.579" height="61.807" transform="translate(684.452 8.53)" fill="#a8a8a8"/>
      <path id="Path_4413" data-name="Path 4413" d="M342.342,178.021a5.495,5.495,0,1,0-1.609,3.912,5.521,5.521,0,0,0,1.609-3.912Z" transform="translate(356.92 -88.608)" fill="#a8a8a8"/>
      <rect id="Rectangle_355" data-name="Rectangle 355" width="37.183" height="103.988" transform="translate(823.426 253.167)" fill="#a8a8a8"/>
      <rect id="Rectangle_356" data-name="Rectangle 356" width="18.579" height="61.807" transform="translate(832.741 261.723)" fill="#8c8c8c"/>
      <path id="Path_4414" data-name="Path 4414" d="M399.013,274.781a5.521,5.521,0,1,0-5.521,5.521A5.521,5.521,0,0,0,399.013,274.781Z" transform="translate(448.539 67.824)" fill="#8c8c8c"/>
      <rect id="Rectangle_357" data-name="Rectangle 357" width="37.183" height="103.988" transform="translate(780.329 253.167)" fill="#a8a8a8"/>
      <rect id="Rectangle_358" data-name="Rectangle 358" width="18.579" height="61.807" transform="translate(789.618 261.723)" fill="#8c8c8c"/>
      <path id="Path_4415" data-name="Path 4415" d="M382.533,274.781a5.521,5.521,0,1,0-5.521,5.521,5.521,5.521,0,0,0,5.521-5.521Z" transform="translate(421.896 67.824)" fill="#8c8c8c"/>
      <rect id="Rectangle_359" data-name="Rectangle 359" width="37.183" height="103.988" transform="translate(691.36 253.167)" fill="#a8a8a8"/>
      <rect id="Rectangle_360" data-name="Rectangle 360" width="18.579" height="61.807" transform="translate(700.65 261.723)" fill="#8c8c8c"/>
      <path id="Path_4416" data-name="Path 4416" d="M348.532,274.781a5.521,5.521,0,1,0-5.521,5.521A5.521,5.521,0,0,0,348.532,274.781Z" transform="translate(366.928 67.824)" fill="#8c8c8c"/>
      <rect id="Rectangle_361" data-name="Rectangle 361" width="37.183" height="103.988" transform="translate(737.205 253.167)" fill="#a8a8a8"/>
      <rect id="Rectangle_362" data-name="Rectangle 362" width="18.579" height="61.807" transform="translate(746.495 261.723)" fill="#8c8c8c"/>
      <path id="Path_4417" data-name="Path 4417" d="M366.052,274.781a5.521,5.521,0,1,0-5.521,5.521,5.521,5.521,0,0,0,5.521-5.521Z" transform="translate(395.253 67.824)" fill="#8c8c8c"/>
      <rect id="Rectangle_363" data-name="Rectangle 363" width="37.183" height="103.988" transform="translate(346.348 380.522)" fill="#a8a8a8"/>
      <rect id="Rectangle_364" data-name="Rectangle 364" width="18.579" height="61.807" transform="translate(355.637 389.052)" fill="#a8a8a8"/>
      <circle id="Ellipse_85" data-name="Ellipse 85" cx="5.521" cy="5.521" r="5.521" transform="translate(359.405 464.413)" fill="#a8a8a8"/>
      <rect id="Rectangle_365" data-name="Rectangle 365" width="37.183" height="103.988" transform="translate(399.414 380.522)" fill="#a8a8a8"/>
      <rect id="Rectangle_366" data-name="Rectangle 366" width="18.579" height="61.807" transform="translate(408.73 389.052)" fill="#a8a8a8"/>
      <circle id="Ellipse_86" data-name="Ellipse 86" cx="5.521" cy="5.521" r="5.521" transform="translate(412.498 464.413)" fill="#a8a8a8"/>
      <rect id="Rectangle_367" data-name="Rectangle 367" width="37.183" height="103.988" transform="translate(452.507 380.522)" fill="#a8a8a8"/>
      <rect id="Rectangle_368" data-name="Rectangle 368" width="18.579" height="61.807" transform="translate(461.823 389.052)" fill="#a8a8a8"/>
      <circle id="Ellipse_87" data-name="Ellipse 87" cx="5.521" cy="5.521" r="5.521" transform="translate(465.591 464.413)" fill="#a8a8a8"/>
      <rect id="Rectangle_369" data-name="Rectangle 369" width="37.183" height="103.988" transform="translate(505.6 380.522)" fill="#a8a8a8"/>
      <rect id="Rectangle_370" data-name="Rectangle 370" width="18.579" height="61.807" transform="translate(514.89 389.052)" fill="#a8a8a8"/>
      <path id="Path_4418" data-name="Path 4418" d="M277.585,323.427a5.547,5.547,0,1,0-5.521,5.547,5.548,5.548,0,0,0,5.521-5.547Z" transform="translate(252.141 146.429)" fill="#a8a8a8"/>
      <rect id="Rectangle_371" data-name="Rectangle 371" width="11.043" height="539.513" transform="translate(319.893 79.967)" fill="#a8a8a8"/>
      <rect id="Rectangle_372" data-name="Rectangle 372" width="11.043" height="539.513" transform="translate(578.109 79.967)" fill="#a8a8a8"/>
      <rect id="Rectangle_373" data-name="Rectangle 373" width="301.942" height="7.536" transform="translate(301.288 107.992)" fill="#a8a8a8"/>
      <rect id="Rectangle_374" data-name="Rectangle 374" width="301.942" height="7.536" transform="translate(301.288 233.07)" fill="#a8a8a8"/>
      <rect id="Rectangle_375" data-name="Rectangle 375" width="301.942" height="7.536" transform="translate(301.288 358.175)" fill="#a8a8a8"/>
      <rect id="Rectangle_376" data-name="Rectangle 376" width="301.942" height="7.536" transform="translate(301.288 483.254)" fill="#a8a8a8"/>
      <rect id="Rectangle_377" data-name="Rectangle 377" width="37.183" height="103.988" transform="translate(473.022 129.082)" fill="#a8a8a8"/>
      <rect id="Rectangle_378" data-name="Rectangle 378" width="18.579" height="61.807" transform="translate(482.312 137.613)" fill="#a8a8a8"/>
      <path id="Path_4419" data-name="Path 4419" d="M265.135,227.367a5.547,5.547,0,1,0-5.521,5.547,5.548,5.548,0,0,0,5.521-5.547Z" transform="translate(232.013 -8.872)" fill="#a8a8a8"/>
      <rect id="Rectangle_379" data-name="Rectangle 379" width="37.183" height="103.988" transform="translate(429.428 129.082)" fill="#a8a8a8"/>
      <rect id="Rectangle_380" data-name="Rectangle 380" width="18.579" height="61.807" transform="translate(438.717 137.613)" fill="#8c8c8c"/>
      <circle id="Ellipse_88" data-name="Ellipse 88" cx="5.521" cy="5.521" r="5.521" transform="translate(442.485 212.974)" fill="#8c8c8c"/>
      <rect id="Rectangle_381" data-name="Rectangle 381" width="37.183" height="103.988" transform="translate(385.807 129.082)" fill="#a8a8a8"/>
      <rect id="Rectangle_382" data-name="Rectangle 382" width="18.579" height="61.807" transform="translate(395.097 137.613)" fill="#8c8c8c"/>
      <circle id="Ellipse_89" data-name="Ellipse 89" cx="5.521" cy="5.521" r="5.521" transform="translate(398.865 212.974)" fill="#8c8c8c"/>
      <rect id="Rectangle_383" data-name="Rectangle 383" width="37.183" height="103.988" transform="translate(524.284 129.082)" fill="#a8a8a8"/>
      <rect id="Rectangle_384" data-name="Rectangle 384" width="18.579" height="61.807" transform="translate(533.573 137.613)" fill="#8c8c8c"/>
      <circle id="Ellipse_90" data-name="Ellipse 90" cx="5.521" cy="5.521" r="5.521" transform="translate(537.341 212.974)" fill="#a8a8a8"/>
      <rect id="Rectangle_385" data-name="Rectangle 385" width="37.183" height="103.988" transform="translate(339.361 129.082)" fill="#a8a8a8"/>
      <rect id="Rectangle_386" data-name="Rectangle 386" width="18.579" height="61.807" transform="translate(348.65 137.613)" fill="#8c8c8c"/>
      <circle id="Ellipse_91" data-name="Ellipse 91" cx="5.521" cy="5.521" r="5.521" transform="translate(352.418 212.974)" fill="#8c8c8c"/>
      <rect id="Rectangle_387" data-name="Rectangle 387" width="37.183" height="103.988" transform="translate(339.361 3.48)" fill="#a8a8a8"/>
      <rect id="Rectangle_388" data-name="Rectangle 388" width="18.579" height="61.807" transform="translate(348.65 12.011)" fill="#8c8c8c"/>
      <circle id="Ellipse_92" data-name="Ellipse 92" cx="5.521" cy="5.521" r="5.521" transform="translate(352.418 87.372)" fill="#8c8c8c"/>
      <rect id="Rectangle_389" data-name="Rectangle 389" width="37.183" height="103.988" transform="translate(380.208 3.48)" fill="#a8a8a8"/>
      <rect id="Rectangle_390" data-name="Rectangle 390" width="18.579" height="61.807" transform="translate(389.523 12.011)" fill="#8c8c8c"/>
      <circle id="Ellipse_93" data-name="Ellipse 93" cx="5.521" cy="5.521" r="5.521" transform="translate(393.291 87.372)" fill="#8c8c8c"/>
      <rect id="Rectangle_391" data-name="Rectangle 391" width="37.183" height="103.988" transform="translate(522.897 72.352) rotate(90)" fill="#a8a8a8"/>
      <rect id="Rectangle_392" data-name="Rectangle 392" width="18.579" height="61.78" transform="translate(514.366 81.641) rotate(90)" fill="#8c8c8c"/>
      <path id="Path_4420" data-name="Path 4420" d="M237.411,184.122a5.521,5.521,0,1,0-5.521-5.521A5.521,5.521,0,0,0,237.411,184.122Z" transform="translate(196.203 -87.671)" fill="#8c8c8c"/>
      <rect id="Rectangle_393" data-name="Rectangle 393" width="37.183" height="103.988" transform="translate(524.284 253.167)" fill="#a8a8a8"/>
      <rect id="Rectangle_394" data-name="Rectangle 394" width="18.579" height="61.807" transform="translate(533.573 261.723)" fill="#a8a8a8"/>
      <path id="Path_4421" data-name="Path 4421" d="M284.683,274.781a5.521,5.521,0,1,0-5.521,5.521,5.521,5.521,0,0,0,5.521-5.521Z" transform="translate(263.701 67.824)" fill="#a8a8a8"/>
      <rect id="Rectangle_395" data-name="Rectangle 395" width="37.183" height="103.988" transform="translate(481.16 253.167)" fill="#a8a8a8"/>
      <rect id="Rectangle_396" data-name="Rectangle 396" width="18.579" height="61.807" transform="translate(490.45 261.723)" fill="#a8a8a8"/>
      <path id="Path_4422" data-name="Path 4422" d="M268.2,274.781a5.521,5.521,0,1,0-5.521,5.521,5.521,5.521,0,0,0,5.521-5.521Z" transform="translate(237.058 67.824)" fill="#a8a8a8"/>
      <rect id="Rectangle_397" data-name="Rectangle 397" width="37.183" height="103.988" transform="translate(392.192 253.167)" fill="#a8a8a8"/>
      <rect id="Rectangle_398" data-name="Rectangle 398" width="18.579" height="61.807" transform="translate(401.482 261.723)" fill="#a8a8a8"/>
      <path id="Path_4423" data-name="Path 4423" d="M234.2,274.781a5.521,5.521,0,1,0-5.521,5.521A5.521,5.521,0,0,0,234.2,274.781Z" transform="translate(182.09 67.824)" fill="#a8a8a8"/>
      <rect id="Rectangle_399" data-name="Rectangle 399" width="37.183" height="103.988" transform="translate(438.037 253.167)" fill="#a8a8a8"/>
      <rect id="Rectangle_400" data-name="Rectangle 400" width="18.579" height="61.807" transform="translate(447.326 261.723)" fill="#a8a8a8"/>
      <path id="Path_4424" data-name="Path 4424" d="M251.723,274.781A5.521,5.521,0,1,0,246.2,280.3,5.521,5.521,0,0,0,251.723,274.781Z" transform="translate(210.414 67.824)" fill="#a8a8a8"/>
      <rect id="Rectangle_401" data-name="Rectangle 401" width="37.183" height="103.988" transform="translate(45.034 380.522)" fill="#a8a8a8"/>
      <rect id="Rectangle_402" data-name="Rectangle 402" width="18.579" height="61.807" transform="translate(54.323 389.052)" fill="#8c8c8c"/>
      <circle id="Ellipse_94" data-name="Ellipse 94" cx="5.521" cy="5.521" r="5.521" transform="translate(58.117 464.413)" fill="#8c8c8c"/>
      <rect id="Rectangle_403" data-name="Rectangle 403" width="37.183" height="103.988" transform="translate(98.127 380.522)" fill="#a8a8a8"/>
      <rect id="Rectangle_404" data-name="Rectangle 404" width="18.579" height="61.807" transform="translate(107.416 389.052)" fill="#8c8c8c"/>
      <circle id="Ellipse_95" data-name="Ellipse 95" cx="5.521" cy="5.521" r="5.521" transform="translate(111.21 464.413)" fill="#8c8c8c"/>
      <rect id="Rectangle_405" data-name="Rectangle 405" width="37.183" height="103.988" transform="translate(151.22 380.522)" fill="#8c8c8c"/>
      <rect id="Rectangle_406" data-name="Rectangle 406" width="18.579" height="61.807" transform="translate(160.509 389.052)" fill="#a8a8a8"/>
      <circle id="Ellipse_96" data-name="Ellipse 96" cx="5.521" cy="5.521" r="5.521" transform="translate(164.277 464.413)" fill="#a8a8a8"/>
      <rect id="Rectangle_407" data-name="Rectangle 407" width="37.183" height="103.988" transform="translate(204.313 380.522)" fill="#a8a8a8"/>
      <rect id="Rectangle_408" data-name="Rectangle 408" width="18.579" height="61.807" transform="translate(213.602 389.052)" fill="#8c8c8c"/>
      <circle id="Ellipse_97" data-name="Ellipse 97" cx="5.521" cy="5.521" r="5.521" transform="translate(217.37 464.413)" fill="#8c8c8c"/>
      <rect id="Rectangle_409" data-name="Rectangle 409" width="11.043" height="539.513" transform="translate(18.579 79.967)" fill="#a8a8a8"/>
      <rect id="Rectangle_410" data-name="Rectangle 410" width="11.043" height="539.513" transform="translate(276.822 79.967)" fill="#a8a8a8"/>
      <rect id="Rectangle_411" data-name="Rectangle 411" width="301.942" height="7.536" transform="translate(0 107.992)" fill="#a8a8a8"/>
      <rect id="Rectangle_412" data-name="Rectangle 412" width="301.942" height="7.536" transform="translate(0 233.07)" fill="#a8a8a8"/>
      <rect id="Rectangle_413" data-name="Rectangle 413" width="301.942" height="7.536" transform="translate(0 358.175)" fill="#a8a8a8"/>
      <rect id="Rectangle_414" data-name="Rectangle 414" width="301.942" height="7.536" transform="translate(0 483.254)" fill="#a8a8a8"/>
      <rect id="Rectangle_415" data-name="Rectangle 415" width="37.183" height="103.988" transform="translate(171.735 129.082)" fill="#8c8c8c"/>
      <rect id="Rectangle_416" data-name="Rectangle 416" width="18.579" height="61.807" transform="translate(181.024 137.613)" fill="#a8a8a8"/>
      <path id="Path_4425" data-name="Path 4425" d="M149.995,227.367a5.547,5.547,0,1,0-5.547,5.547A5.547,5.547,0,0,0,149.995,227.367Z" transform="translate(45.866 -8.872)" fill="#a8a8a8"/>
      <rect id="Rectangle_417" data-name="Rectangle 417" width="37.183" height="103.988" transform="translate(128.114 129.082)" fill="#a8a8a8"/>
      <rect id="Rectangle_418" data-name="Rectangle 418" width="18.579" height="61.807" transform="translate(137.403 137.613)" fill="#8c8c8c"/>
      <circle id="Ellipse_98" data-name="Ellipse 98" cx="5.521" cy="5.521" r="5.521" transform="translate(141.198 212.974)" fill="#8c8c8c"/>
      <rect id="Rectangle_419" data-name="Rectangle 419" width="37.183" height="103.988" transform="translate(84.52 129.082)" fill="#a8a8a8"/>
      <rect id="Rectangle_420" data-name="Rectangle 420" width="18.579" height="61.807" transform="translate(93.809 137.613)" fill="#8c8c8c"/>
      <circle id="Ellipse_99" data-name="Ellipse 99" cx="5.521" cy="5.521" r="5.521" transform="translate(97.577 212.974)" fill="#8c8c8c"/>
      <rect id="Rectangle_421" data-name="Rectangle 421" width="37.183" height="103.988" transform="translate(222.97 129.082)" fill="#a8a8a8"/>
      <rect id="Rectangle_422" data-name="Rectangle 422" width="18.579" height="61.807" transform="translate(232.259 137.613)" fill="#8c8c8c"/>
      <circle id="Ellipse_100" data-name="Ellipse 100" cx="5.521" cy="5.521" r="5.521" transform="translate(236.053 212.974)" fill="#8c8c8c"/>
      <rect id="Rectangle_423" data-name="Rectangle 423" width="37.183" height="103.988" transform="translate(154.752 108.829) rotate(-90)" fill="#a8a8a8"/>
      <rect id="Rectangle_424" data-name="Rectangle 424" width="18.579" height="61.807" transform="translate(163.309 99.513) rotate(-90)" fill="#8c8c8c"/>
      <path id="Path_4426" data-name="Path 4426" d="M165.054,172.81a5.547,5.547,0,1,0,5.521,5.547,5.547,5.547,0,0,0-5.521-5.547Z" transform="translate(79.138 -88.107)" fill="#8c8c8c"/>
      <rect id="Rectangle_425" data-name="Rectangle 425" width="37.183" height="103.988" transform="translate(150.879 72.3) rotate(-90)" fill="#a8a8a8"/>
      <rect id="Rectangle_426" data-name="Rectangle 426" width="18.579" height="61.807" transform="translate(159.41 62.984) rotate(-90)" fill="#8c8c8c"/>
      <path id="Path_4427" data-name="Path 4427" d="M163.531,158.85a5.5,5.5,0,1,0,3.912,1.609,5.521,5.521,0,0,0-3.912-1.609Z" transform="translate(76.761 -110.676)" fill="#8c8c8c"/>
      <rect id="Rectangle_427" data-name="Rectangle 427" width="37.183" height="103.988" transform="translate(38.073 129.082)" fill="#a8a8a8"/>
      <rect id="Rectangle_428" data-name="Rectangle 428" width="18.579" height="61.807" transform="translate(47.362 137.613)" fill="#8c8c8c"/>
      <circle id="Ellipse_101" data-name="Ellipse 101" cx="5.521" cy="5.521" r="5.521" transform="translate(51.13 212.974)" fill="#8c8c8c"/>
      <rect id="Rectangle_429" data-name="Rectangle 429" width="37.183" height="103.988" transform="translate(222.97 253.167)" fill="#a8a8a8"/>
      <rect id="Rectangle_430" data-name="Rectangle 430" width="18.579" height="61.807" transform="translate(232.259 261.723)" fill="#8c8c8c"/>
      <path id="Path_4428" data-name="Path 4428" d="M169.575,274.814a5.547,5.547,0,1,0-5.521,5.521,5.547,5.547,0,0,0,5.521-5.521Z" transform="translate(77.521 67.792)" fill="#8c8c8c"/>
      <rect id="Rectangle_431" data-name="Rectangle 431" width="37.183" height="103.988" transform="translate(179.846 253.167)" fill="#8c8c8c"/>
      <rect id="Rectangle_432" data-name="Rectangle 432" width="18.579" height="61.807" transform="translate(189.162 261.723)" fill="#a8a8a8"/>
      <path id="Path_4429" data-name="Path 4429" d="M153.063,274.781a5.521,5.521,0,1,0-5.521,5.521A5.521,5.521,0,0,0,153.063,274.781Z" transform="translate(50.91 67.824)" fill="#a8a8a8"/>
      <rect id="Rectangle_433" data-name="Rectangle 433" width="37.183" height="103.988" transform="translate(46.891 253.167)" fill="#8c8c8c"/>
      <rect id="Rectangle_434" data-name="Rectangle 434" width="18.579" height="61.807" transform="translate(56.207 261.723)" fill="#a8a8a8"/>
      <path id="Path_4430" data-name="Path 4430" d="M102.253,274.781a5.521,5.521,0,1,0-5.521,5.521,5.521,5.521,0,0,0,5.521-5.521Z" transform="translate(-31.235 67.824)" fill="#a8a8a8"/>
      <rect id="Rectangle_435" data-name="Rectangle 435" width="37.183" height="103.988" transform="translate(90.878 253.167)" fill="#8c8c8c"/>
      <rect id="Rectangle_436" data-name="Rectangle 436" width="18.579" height="61.807" transform="translate(100.194 261.723)" fill="#a8a8a8"/>
      <path id="Path_4431" data-name="Path 4431" d="M119.063,274.781a5.521,5.521,0,1,0-5.521,5.521A5.521,5.521,0,0,0,119.063,274.781Z" transform="translate(-4.058 67.824)" fill="#a8a8a8"/>
      <rect id="Rectangle_437" data-name="Rectangle 437" width="37.183" height="103.988" transform="translate(136.723 253.167)" fill="#8c8c8c"/>
      <rect id="Rectangle_438" data-name="Rectangle 438" width="18.579" height="61.807" transform="translate(146.038 261.723)" fill="#a8a8a8"/>
      <path id="Path_4432" data-name="Path 4432" d="M136.582,274.781a5.521,5.521,0,1,0-5.521,5.521A5.521,5.521,0,0,0,136.582,274.781Z" transform="translate(24.267 67.824)" fill="#a8a8a8"/>
    </g>
    <g id="freepik--Character--inject-9" transform="translate(233.378 415.611)">
      <path id="Path_4433" data-name="Path 4433" d="M217.7,433c-12.456-13.895-17.532-29.359-13.764-50.581,6.542-36.634,46.734-77.376,46.734-102.994s17.924-85.279,72.692-88.811,82.557,24,94.2,84.284,11.069,70.834,24.623,98.964c5.574,11.592,11.88,23.289,14.183,36.084,4.579,25.382-22.975,37.785-42.469,44.772-54.742,19.573-123.247,32.5-174.8-2.957A119.27,119.27,0,0,1,217.7,433Z" transform="translate(-16.053 -190.315)" fill="#263238" stroke="#263238" stroke-linecap="round" stroke-linejoin="round" stroke-width="1"/>
      <path id="Path_4434" data-name="Path 4434" d="M284.24,240.45a46.761,46.761,0,0,0,9.315,3.166" transform="translate(115.75 -109.261)" fill="none" stroke="#fff" stroke-linecap="round" stroke-miterlimit="10" stroke-width="1"/>
      <path id="Path_4435" data-name="Path 4435" d="M255.54,208.65s21.588,51.026,47.1,67.72c5.731,3.742,10.755,6.725,15.1,9.132" transform="translate(69.35 -160.673)" fill="none" stroke="#fff" stroke-linecap="round" stroke-miterlimit="10" stroke-width="1"/>
      <path id="Path_4436" data-name="Path 4436" d="M284.7,214.66c-12.4,21.431-36.032,55.4-67.8,69.657" transform="translate(6.881 -150.956)" fill="none" stroke="#fff" stroke-linecap="round" stroke-miterlimit="10" stroke-width="1"/>
      <path id="Path_4437" data-name="Path 4437" d="M249.262,207.52s-1.518,3.454-4.422,9.028" transform="translate(52.052 -162.499)" fill="none" stroke="#fff" stroke-linecap="round" stroke-miterlimit="10" stroke-width="1"/>
      <path id="Path_4438" data-name="Path 4438" d="M246.488,241.66s-40.3,40.14-35.326,87.241" transform="translate(-3.082 -107.305)" fill="none" stroke="#fff" stroke-linecap="round" stroke-miterlimit="10" stroke-width="1"/>
      <path id="Path_4439" data-name="Path 4439" d="M237.129,245s-18.657,51.052-12.77,83.447" transform="translate(17.084 -101.905)" fill="none" stroke="#fff" stroke-linecap="round" stroke-miterlimit="10" stroke-width="1"/>
      <path id="Path_4440" data-name="Path 4440" d="M333.8,265.262s-92.945,25.094-99.984,27.606-6.018,18.6-6.018,22.111S207.2,423.992,207.2,423.992a137.036,137.036,0,0,0-18.6,14.078c-8.033,7.536-5.024,17.584-5.024,20.1s.5,3.506-2.015,6.018-8.033-1.989-7.013,13.581-4.527,52.334,9.525,54.244,21.117.523,41.71-6.516a51.68,51.68,0,0,0,28.627-23.55v59.295h252.2s25.618-74.864,27.135-124.084,8.033-121.6-.994-135.153-56.783-28.627-98.99-33.651S341.336,263.247,333.8,265.262Z" transform="translate(-62.002 -71.142)" fill="#40a0c0"/>
      <g id="Group_299" data-name="Group 299" transform="translate(112.291 192.887)" clip-path="url(#clip-path)">
        <path id="Path_4441" data-name="Path 4441" d="M355.114,275.4c1.308,1.544,1.858,2.852.733,3.376-3.454,1.649-19.678,6.882-21.64,13.764s-1.151-20.934-4.919-12.8-8.871,40.35-29.516,105.3c-16.511,51.837-25.461,118.092-19.887,157.735h58.693s25.618-74.864,27.135-124.084,8.033-121.6-.994-135.153a31.192,31.192,0,0,0-9.6-8.138Z" transform="translate(-6.263 -245.644)" opacity="0.24"/>
        <path id="Path_4442" data-name="Path 4442" d="M263.752,264.344a22.713,22.713,0,0,0-8.033,9.551c-3.506,7.013-33.154,61.781-35.666,64.293s13.555,2.015,20.1-.994,18.579-3.009,18.579-3.009l11.566,9.028,35.666,14.078s16.067-11.566,24.1-18.081,11.566-9.054,11.566-9.054a113.822,113.822,0,0,1,20.1,9.054c8.033,5.024,5.024,7.536,8.033,5.024s1.518-7.536-2.617-14.575-16.564-45.714-32.159-60.184S282.331,250.266,263.752,264.344Z" transform="translate(-100.739 -277.188)" fill="#40a0c0" stroke="#263238" stroke-linecap="round" stroke-linejoin="round" stroke-width="1"/>
        <path id="Path_4443" data-name="Path 4443" d="M264.43,306.93l69.343.5-1.518,19.6-35.666,18.081L264.43,327.523Z" transform="translate(-28.568 -194.669)" fill="#40a0c0" stroke="#263238" stroke-linecap="round" stroke-linejoin="round" stroke-width="1"/>
        <path id="Path_4444" data-name="Path 4444" d="M204.91,304.62l69.343.5-1.518,19.6L237.069,342.8,204.91,325.213Z" transform="translate(-124.794 -198.404)" fill="#40a0c0" stroke="#263238" stroke-linecap="round" stroke-linejoin="round" stroke-width="1"/>
        <path id="Path_4445" data-name="Path 4445" d="M238.437,493.818s-3.925-148.577-.968-165.324-17.715-66.909-16.747-40.323,7.85,66.648,8.426,76.617-23.184,5.05-21.221,17.846,15.7,12.77,19.7,32.473-29.543,18.683-29.543,29.516,11.828,25.565,1.989,34.436-15.386-3.009-15.386-3.009a50.711,50.711,0,0,1,1.936,29.2,161.435,161.435,0,0,0,22.425-6.332,51.68,51.68,0,0,0,28.627-23.55v21.352Z" transform="translate(-157.484 -237.324)" opacity="0.24"/>
      </g>
      <path id="Path_4447" data-name="Path 4447" d="M333.8,265.262s-92.945,25.094-99.984,27.606-6.018,18.6-6.018,22.111S207.2,423.992,207.2,423.992a137.036,137.036,0,0,0-18.6,14.078c-8.033,7.536-5.024,17.584-5.024,20.1s.5,3.506-2.015,6.018-8.033-1.989-7.013,13.581-4.527,52.334,9.525,54.244,21.117.523,41.71-6.516a51.68,51.68,0,0,0,28.627-23.55v59.295h252.2s25.618-74.864,27.135-124.084,8.033-121.6-.994-135.153-56.783-28.627-98.99-33.651S341.336,263.247,333.8,265.262Z" transform="translate(-62.002 -71.142)" fill="none" stroke="#263238" stroke-linecap="round" stroke-linejoin="round" stroke-width="1"/>
      <path id="Path_4448" data-name="Path 4448" d="M215.144,322.09v86.927s-4.527-55.265-16.564-69.343" transform="translate(-22.737 22.727)" fill="none" stroke="#263238" stroke-linecap="round" stroke-linejoin="round" stroke-width="1"/>
      <path id="Path_4449" data-name="Path 4449" d="M179,340s26.638,9.551,32.159,29.124-.994,32.159-.994,32.159" transform="translate(-54.392 51.682)" fill="none" stroke="#263238" stroke-linecap="round" stroke-linejoin="round" stroke-width="1"/>
      <path id="Path_4450" data-name="Path 4450" d="M168.184,359.4s19.442-8.844,20.934-10.467,18.6-.811,25.748,17.4,1.963,26.952-1.6,28.915-22.216,7.405-27.371,7.405S159.078,366.155,168.184,359.4Z" transform="translate(-75.448 65.222)" fill="#40a0c0" stroke="#263238" stroke-linecap="round" stroke-linejoin="round" stroke-width="1"/>
      <path id="Path_4451" data-name="Path 4451" d="M241.367,270.354s-8.53,300.215-5.024,300.215h61.309s.5-218.835,4.5-239.429,13.581-57.28,12.063-67.328-69.814-4.527-69.814-4.527A39.981,39.981,0,0,0,241.367,270.354Z" transform="translate(36.947 -81.257)" fill="#fff"/>
      <g id="Group_300" data-name="Group 300" transform="translate(272.443 176.514)" clip-path="url(#clip-path-2)">
        <path id="Path_4452" data-name="Path 4452" d="M241.367,270.354s-8.53,300.215-5.024,300.215h61.309s.5-218.835,4.5-239.429,13.581-57.28,12.063-67.328-69.814-4.527-69.814-4.527A39.981,39.981,0,0,0,241.367,270.354Z" transform="translate(-235.497 -257.772)" fill="#40a0c0"/>
        <path id="Path_4453" data-name="Path 4453" d="M241.367,270.354s-8.53,300.215-5.024,300.215h61.309s.5-218.835,4.5-239.429,13.581-57.28,12.063-67.328-69.814-4.527-69.814-4.527A39.981,39.981,0,0,0,241.367,270.354Z" transform="translate(-235.497 -257.772)" fill="#fff" opacity="0.7"/>
      </g>
      <path id="Path_4455" data-name="Path 4455" d="M241.367,270.354s-8.53,300.215-5.024,300.215h61.309s.5-218.835,4.5-239.429,13.581-57.28,12.063-67.328-69.814-4.527-69.814-4.527A39.981,39.981,0,0,0,241.367,270.354Z" transform="translate(36.947 -81.257)" fill="none" stroke="#263238" stroke-linecap="round" stroke-linejoin="round" stroke-width="1"/>
      <path id="Path_4456" data-name="Path 4456" d="M301.787,286.76a114.769,114.769,0,0,1-62.147,2.276c-2.3,89.753-5.757,234.666-3.3,234.666h61.309S298.124,318.605,301.787,286.76Z" transform="translate(36.946 -34.391)" fill="#fff"/>
      <g id="Group_301" data-name="Group 301" transform="translate(272.442 252.369)" clip-path="url(#clip-path-3)">
        <path id="Path_4457" data-name="Path 4457" d="M297.745,382.625c0-8.216,0-17.506.157-27.475H235.808c0,10.048-.236,19.311-.288,27.475Z" transform="translate(-235.458 -176.193)" fill="#367334"/>
        <path id="Path_4458" data-name="Path 4458" d="M236.323,335.15c-.183,9.42-.366,18.6-.523,27.475h61.911c0-8.975.157-18.186.262-27.475Z" transform="translate(-235.005 -208.527)" fill="#367334"/>
        <path id="Path_4459" data-name="Path 4459" d="M236.782,315.15c-.209,9.132-.419,18.317-.6,27.475h61.414c.131-9.368.262-18.6.419-27.475Z" transform="translate(-234.391 -240.862)" fill="#367334"/>
        <path id="Path_4460" data-name="Path 4460" d="M237.31,295.15c-.209,8.818-.445,18.029-.68,27.475h61.152c.235-10.284.523-19.6.837-27.475Z" transform="translate(-233.664 -273.196)" fill="#367334"/>
      </g>
      <path id="Path_4462" data-name="Path 4462" d="M301.787,286.76a114.769,114.769,0,0,1-62.147,2.276c-2.3,89.753-5.757,234.666-3.3,234.666h61.309S298.124,318.605,301.787,286.76Z" transform="translate(36.946 -34.391)" fill="none" stroke="#263238" stroke-linecap="round" stroke-linejoin="round" stroke-width="1"/>
      <path id="Path_4463" data-name="Path 4463" d="M278.851,213s-9.054,28.627-48.226,54.271c0,0-2.617,35.666,8.033,62.278s38.675,47.729,50.738,45.217,35.666-29.647,43.7-48.723,8.059-53.25,8.059-53.25S300.439,246.258,278.851,213Z" transform="translate(28.612 -153.64)" fill="#fff" stroke="#263238" stroke-linecap="round" stroke-linejoin="round" stroke-width="1"/>
      <path id="Path_4464" data-name="Path 4464" d="M247.857,250.1s-1.021,16.564,1.492,18.081,7.039.994,7.536-4.527" transform="translate(56.597 -93.66)" fill="none" stroke="#263238" stroke-linecap="round" stroke-linejoin="round" stroke-width="1"/>
      <path id="Path_4465" data-name="Path 4465" d="M245.81,262.245s15.569,3.009,24.1-2.015" transform="translate(53.62 -77.283)" fill="none" stroke="#263238" stroke-linecap="round" stroke-linejoin="round" stroke-width="1"/>
      <path id="Path_4466" data-name="Path 4466" d="M264.314,231.756s-21.091-5.626-30.144,10.074" transform="translate(34.801 -124.902)" fill="none" stroke="#263238" stroke-linecap="round" stroke-linejoin="round" stroke-width="1"/>
      <path id="Path_4467" data-name="Path 4467" d="M253.44,240.072s14.627-14.732,35.247-1.439" transform="translate(65.955 -121.182)" fill="none" stroke="#263238" stroke-linecap="round" stroke-linejoin="round" stroke-width="1"/>
      <path id="Path_4468" data-name="Path 4468" d="M236.4,243.18s9.551,9.054,25.12,2.617" transform="translate(38.407 -104.848)" fill="none" stroke="#263238" stroke-linecap="round" stroke-linejoin="round" stroke-width="1"/>
      <path id="Path_4469" data-name="Path 4469" d="M254.61,244.614s13.083,6.045,24.1-.994" transform="translate(67.847 -104.136)" fill="none" stroke="#263238" stroke-linecap="round" stroke-linejoin="round" stroke-width="1"/>
      <circle id="Ellipse_102" data-name="Ellipse 102" cx="21.091" cy="21.091" r="21.091" transform="translate(263.581 121.271)" fill="none" stroke="#263238" stroke-linecap="round" stroke-linejoin="round" stroke-width="0.75"/>
      <circle id="Ellipse_103" data-name="Ellipse 103" cx="21.091" cy="21.091" r="21.091" transform="translate(313.927 121.271)" fill="none" stroke="#263238" stroke-linecap="round" stroke-linejoin="round" stroke-width="0.75"/>
      <line id="Line_90" data-name="Line 90" x2="8.138" transform="translate(305.762 142.362)" fill="none" stroke="#263238" stroke-linecap="round" stroke-linejoin="round" stroke-width="0.75"/>
      <line id="Line_91" data-name="Line 91" x2="12.351" transform="translate(356.108 142.362)" fill="none" stroke="#263238" stroke-linecap="round" stroke-linejoin="round" stroke-width="0.75"/>
      <line id="Line_92" data-name="Line 92" x2="5.6" transform="translate(257.929 142.362)" fill="none" stroke="#263238" stroke-linecap="round" stroke-linejoin="round" stroke-width="0.75"/>
      <path id="Path_4470" data-name="Path 4470" d="M252.448,246.077s5.364.236.34,2.093-10.1.942-15.308-3.48C237.48,244.69,247.45,246,252.448,246.077Z" transform="translate(40.153 -102.406)" fill="#263238" stroke="#263238" stroke-linecap="round" stroke-linejoin="round" stroke-width="1"/>
      <path id="Path_4471" data-name="Path 4471" d="M258.654,244.762s-5.233-.471-.6,2.015,9.891,2.276,15.7-1.465A113.239,113.239,0,0,1,258.654,244.762Z" transform="translate(70.319 -102.348)" fill="#263238" stroke="#263238" stroke-linecap="round" stroke-linejoin="round" stroke-width="1"/>
      <path id="Path_4472" data-name="Path 4472" d="M327.914,407.139l-8.033-82.9s-17.087-3.506-23.106-7.536-13.083-9.028-13.083-9.028-4,3.506-7.013,0-12.56-10.467-14.078-16.093S271.655,278.5,278.17,269.5s13.581-17.584,18.6-17.087,26.612,22.5,37.759,39.7S350.1,313.7,350.6,319.741s10.467,36.634,10.467,36.634l2.617,51.758Z" transform="translate(80.528 -89.954)" fill="#fff" stroke="#263238" stroke-linecap="round" stroke-linejoin="round" stroke-width="1"/>
      <path id="Path_4473" data-name="Path 4473" d="M276.681,281.361s-9.891-9.76-9.891-12.691" transform="translate(87.538 -63.638)" fill="none" stroke="#263238" stroke-linecap="round" stroke-linejoin="round" stroke-width="1"/>
      <path id="Path_4474" data-name="Path 4474" d="M292.16,299.715l9.551,53.25,10.467-59.295,40.69-4.5s-.366,63.3-.366,79.365,7.039,89.439,9.054,115.135-11.566,34.017-30.144,34.645-33.677-16.564-39.7-51.235.994-97.97-2.015-108.515S274,304.818,274,304.818Z" transform="translate(99.195 -30.495)" fill="#40a0c0"/>
      <g id="Group_302" data-name="Group 302" transform="translate(373.195 258.675)" clip-path="url(#clip-path-4)">
        <path id="Path_4475" data-name="Path 4475" d="M303.721,517.687c15.151-2.25,25.461-11.54,23.707-34.017-2.015-25.618-9.054-98.964-9.054-115.135s.5-79.365.5-79.365l-6.594.733c-3.794,12.639-24.937,86.822-14.183,139.784,11.828,58.065,21.666,63.952,5.914,87.581Z" transform="translate(-239.926 -289.17)" opacity="0.24"/>
      </g>
      <path id="Path_4477" data-name="Path 4477" d="M292.16,299.715l9.551,53.25,10.467-59.295,40.69-4.5s-.366,63.3-.366,79.365,7.039,89.439,9.054,115.135-11.566,34.017-30.144,34.645-33.677-16.564-39.7-51.235.994-97.97-2.015-108.515S274,304.818,274,304.818Z" transform="translate(99.195 -30.495)" fill="none" stroke="#263238" stroke-linecap="round" stroke-linejoin="round" stroke-width="1"/>
      <path id="Path_4478" data-name="Path 4478" d="M158.915,374.888s-1.2,8.086,6.123,9.917,24.937-2.747,26.4-6.516a5.731,5.731,0,0,0-1.151-6.2H174.223S162.108,368.346,158.915,374.888Z" transform="translate(-86.982 101.837)" fill="#fff" stroke="#263238" stroke-linecap="round" stroke-linejoin="round" stroke-width="1"/>
      <path id="Path_4479" data-name="Path 4479" d="M131.38,343.513l66.6,46.263,4.972-6.62L136.038,336.5Z" transform="translate(-131.38 46.024)" fill="#263238" stroke="#263238" stroke-linecap="round" stroke-linejoin="round" stroke-width="1"/>
      <path id="Path_4480" data-name="Path 4480" d="M146.845,354.241l5.181-6.594L136.038,336.5l-4.658,7.013Z" transform="translate(-131.38 46.024)" fill="#fff" stroke="#263238" stroke-linecap="round" stroke-linejoin="round" stroke-width="1"/>
      <path id="Path_4481" data-name="Path 4481" d="M180.081,405.806a44.483,44.483,0,0,0,28.025-11.7c11.932-11.618,12.743-19.39-3.375-36.085s-51.366,2.852-52.491,10.231S180.081,405.806,180.081,405.806Z" transform="translate(-97.708 70.212)" fill="#fff" stroke="#263238" stroke-linecap="round" stroke-linejoin="round" stroke-width="1"/>
      <path id="Path_4482" data-name="Path 4482" d="M216.745,382.527s-4.553,9.5-8.871,13.084-11.173,4.553-15.229-1.23-8.216-23.734-11.749-24.1-21.143-6.149-26.167-13.084-4.762-12.3,6.306-9,40.69,7.144,40.69,7.144,7.013,4.213,11.88,19" transform="translate(-98.706 63.321)" fill="#fff" stroke="#263238" stroke-linecap="round" stroke-linejoin="round" stroke-width="1"/>
      <path id="Path_4483" data-name="Path 4483" d="M154.72,383.786c1.57,1.936,6.725,10.7,9.158,11.3s17.375-8.9,23.132-16.145-4.972-17.3-8.033-18.709S154.72,383.786,154.72,383.786Z" transform="translate(-93.646 84.304)" fill="#fff" stroke="#263238" stroke-linecap="round" stroke-linejoin="round" stroke-width="1"/>
      <path id="Path_4484" data-name="Path 4484" d="M158.266,361.663s-13.084,7.85-9.97,13.241,13.581,13.581,16.93,12.142,25.905-11.932,25.8-17.663-.471-12.56-12.011-11.618A103.489,103.489,0,0,0,158.266,361.663Z" transform="translate(-104.806 80.26)" fill="#fff" stroke="#263238" stroke-linecap="round" stroke-linejoin="round" stroke-width="1"/>
      <path id="Path_4485" data-name="Path 4485" d="M148.656,351.564s-6.359,12.927-.523,18.526,41.867,5.469,43.7-1.125-11.671-8.007-21.588-12.272S150.043,348.5,148.656,351.564Z" transform="translate(-108.28 68.614)" fill="#fff" stroke="#263238" stroke-linecap="round" stroke-linejoin="round" stroke-width="1"/>
      <path id="Path_4486" data-name="Path 4486" d="M285.265,392.926s-.994-17.087-16.067-23.105-23.132-3.533-56.783,5.521A322.037,322.037,0,0,1,147.6,385.389v7.536Z" transform="translate(-105.157 94.58)" fill="#fff" stroke="#263238" stroke-linecap="round" stroke-linejoin="round" stroke-width="1"/>
      <path id="Path_4487" data-name="Path 4487" d="M200,392.926s.994-17.087,16.067-23.105,23.106-3.533,56.783,5.521a321.857,321.857,0,0,0,64.79,10.048v7.536Z" transform="translate(-20.441 94.58)" fill="#fff" stroke="#263238" stroke-linecap="round" stroke-linejoin="round" stroke-width="1"/>
      <rect id="Rectangle_439" data-name="Rectangle 439" width="283.861" height="5.521" transform="translate(38.937 484.497)" fill="#263238" stroke="#263238" stroke-linecap="round" stroke-linejoin="round" stroke-width="1"/>
    </g>
  </g>
</svg>
