<svg xmlns="http://www.w3.org/2000/svg" xmlns:xlink="http://www.w3.org/1999/xlink" width="1176.992" height="775.646" viewBox="0 0 1176.992 775.646"><defs><clipPath id="a"><path d="M164.629,242.33a4.888,4.888,0,1,0,8.4,0h5.655a4.946,4.946,0,0,0-.69,2.473,4.888,4.888,0,1,0,9.086-2.473h5.751a4.754,4.754,0,0,0-.69,2.473,4.888,4.888,0,1,0,9.086-2.473h5.655a4.755,4.755,0,0,0-.69,2.473,4.888,4.888,0,1,0,9.757,0,4.754,4.754,0,0,0-.69-2.473h5.655A4.888,4.888,0,1,0,230,244.8a4.754,4.754,0,0,0-.69-2.473h5.559a4.888,4.888,0,1,0,8.4,0h3.546V343.294H162.77V242.33Z" transform="translate(-162.77 -242.33)" fill="none"/></clipPath></defs><g transform="translate(-76.9 -62.349)"><g transform="translate(90.894 43.18)"><path d="M89.5,123.26a51.106,51.106,0,0,1,4.7,5.6,28.5,28.5,0,0,1-.383,32.971,53.96,53.96,0,0,1-4.831,5.482,8.586,8.586,0,0,0,1.591-1.188,25.072,25.072,0,0,0,3.776-3.968,28.006,28.006,0,0,0,.326-33.642,25.609,25.609,0,0,0-3.6-4.045A7.668,7.668,0,0,0,89.5,123.26Z" transform="translate(1046.199 30.247)" fill="#f5f5f5"/><g transform="translate(-287.634 19.169)"><path d="M364.233,89.74,329.92,198.315h24.843l10.946-37.438Z" transform="translate(318.768 -0.488)" fill="#ebebeb"/><rect width="512.548" height="30.632" transform="translate(613.665 197.712)" fill="#e0e0e0"/><rect width="24.805" height="47.022" transform="translate(1029.983 221.654)" fill="#e0e0e0"/><rect width="24.786" height="47.022" transform="translate(709.991 221.654)" fill="#e0e0e0"/><path d="M313.154,72.873s23,17.521.958,40.677a2.032,2.032,0,0,1-1.457.613l-200.97-1.169S94.433,93.825,108.771,71.55Z" transform="translate(795.653 -17.167)" fill="#ebebeb"/><path d="M132.17,81.973c0,.211,25.035.4,55.9.4s55.9-.192,55.9-.4-25.035-.4-55.9-.4S132.17,81.743,132.17,81.973Z" transform="translate(819.583 -7.979)" fill="#e0e0e0"/><path d="M146.76,85.763c0,.23,11.77.4,26.281.4s26.281-.173,26.281-.4-11.77-.4-26.281-.4S146.76,85.533,146.76,85.763Z" transform="translate(836.259 -4.504)" fill="#e0e0e0"/><path d="M204.023,112.608c.134,0-.441-2.3-1.054-6.038A85.913,85.913,0,0,1,201.8,91.924a88.046,88.046,0,0,1,1.438-14.645c.69-3.719,1.323-5.981,1.188-6.019a6.4,6.4,0,0,0-.594,1.553c-.326,1.016-.728,2.492-1.15,4.351a71.368,71.368,0,0,0-.288,29.521c.4,1.917.767,3.355,1.073,4.371a7.244,7.244,0,0,0,.556,1.553Z" transform="translate(727.182 -17.433)" fill="#e0e0e0"/><path d="M214.751,71.42a7.129,7.129,0,0,0-.9,1.457,19.985,19.985,0,0,0-.882,1.8c-.326.728-.709,1.534-1.035,2.473a43.956,43.956,0,0,0-1.917,6.652A49.836,49.836,0,0,0,209,92.276a48.4,48.4,0,0,0,.728,8.454,45.737,45.737,0,0,0,1.8,6.709c.307.939.69,1.744,1,2.473a16.582,16.582,0,0,0,.863,1.917,8.4,8.4,0,0,0,.863,1.476c.153,0-.978-2.243-2.166-5.962a46.837,46.837,0,0,1-1.61-6.633,53.667,53.667,0,0,1-.671-8.339,52.558,52.558,0,0,1,.805-8.319,48.284,48.284,0,0,1,1.706-6.613C213.677,73.644,214.751,71.5,214.751,71.42Z" transform="translate(701.521 -17.286)" fill="#e0e0e0"/><path d="M122.736,111.835a6.863,6.863,0,0,0,.939-1.342,14.048,14.048,0,0,0,.939-1.687c.326-.671.728-1.419,1.073-2.3a35.714,35.714,0,0,0,1.917-6.345,39.583,39.583,0,0,0,.767-8.089,40.045,40.045,0,0,0-1-8.07,33.815,33.815,0,0,0-2.128-6.287,21.083,21.083,0,0,0-1.131-2.281,12.915,12.915,0,0,0-.978-1.649c-.594-.882-.92-1.361-.978-1.323s1.15,2.032,2.569,5.463a39.623,39.623,0,0,1,1.917,6.23,42.175,42.175,0,0,1,.92,7.917,44.721,44.721,0,0,1-.69,7.955,41.136,41.136,0,0,1-1.764,6.268C123.829,109.726,122.583,111.7,122.736,111.835Z" transform="translate(954.365 -16.333)" fill="#e0e0e0"/><path d="M110.279,116.876a10.14,10.14,0,0,0,1.035-1.534,15.872,15.872,0,0,0,1.035-1.917c.383-.767.843-1.61,1.227-2.588a43.765,43.765,0,0,0,2.3-7.112,49.843,49.843,0,0,0,1.131-9.067,48.69,48.69,0,0,0-.728-9.105,43.361,43.361,0,0,0-1.917-7.188,27.754,27.754,0,0,0-1.093-2.645,20.283,20.283,0,0,0-.958-1.917,6.462,6.462,0,0,0-.978-1.553c-.134,0,1.15,2.358,2.492,6.326a47.124,47.124,0,0,1-.709,32.051C111.525,114.557,110.126,116.78,110.279,116.876Z" transform="translate(988.522 -16.525)" fill="#e0e0e0"/><path d="M171,125.09v38.473h74.4V125.09Z" transform="translate(743.719 31.925)" fill="#ebebeb"/><path d="M328.238,146.6v1.016a22.025,22.025,0,0,1-22.179,20.645H84.424v-2.78h52.62a19.169,19.169,0,0,0,19.169-19.169h0a19.169,19.169,0,0,0-19.169-19.169H84.424V123l221.635.671A22.2,22.2,0,0,1,328.238,146.6Z" transform="translate(826.825 30.009)" fill="#e0e0e0"/><path d="M174.16,135.583c0,.23,15.335.422,34.16.422s34.179-.192,34.179-.422-15.335-.4-34.179-.4S174.16,135.372,174.16,135.583Z" transform="translate(740.559 41.177)" fill="#e0e0e0"/><path d="M175.51,140.1c0,.23,14.473.422,32.339.422s32.339-.192,32.339-.422-14.473-.4-32.339-.4S175.51,139.892,175.51,140.1Z" transform="translate(740.282 45.322)" fill="#e0e0e0"/><path d="M179.48,144.243c0,.23,13.016.4,29.061.4s29.08-.173,29.08-.4-13.016-.4-29.08-.4S179.48,144.013,179.48,144.243Z" transform="translate(735.238 49.118)" fill="#e0e0e0"/><path d="M174.89,131.523c0,.23,14.99.4,33.469.4s33.47-.173,33.47-.4-14.971-.4-33.47-.4S174.89,131.312,174.89,131.523Z" transform="translate(739.829 37.454)" fill="#e0e0e0"/><path d="M178.16,127.463c0,.23,13.418.4,29.789.4s29.808-.173,29.808-.4-13.418-.4-29.808-.4S178.16,127.233,178.16,127.463Z" transform="translate(737.632 33.732)" fill="#e0e0e0"/><path d="M93.525,123.69a52.333,52.333,0,0,1,4.677,5.6,28.5,28.5,0,0,1-.4,32.952,53.139,53.139,0,0,1-4.831,5.5,9.928,9.928,0,0,0,1.591-1.189,25.974,25.974,0,0,0,3.642-3.93A28.006,28.006,0,0,0,98.6,129a25.61,25.61,0,0,0-3.6-4.045A7.667,7.667,0,0,0,93.525,123.69Z" transform="translate(1034.682 30.642)" fill="#f5f5f5"/><path d="M168.086,123.69a49.724,49.724,0,0,1,4.716,5.6,28.5,28.5,0,0,1-.4,32.952,50.491,50.491,0,0,1-4.831,5.5,9.931,9.931,0,0,0,1.591-1.188,25.055,25.055,0,0,0,3.7-3.93,28.006,28.006,0,0,0,.4-33.623,24.69,24.69,0,0,0-3.6-4.045A7.666,7.666,0,0,0,168.086,123.69Z" transform="translate(817.021 30.642)" fill="#f5f5f5"/><path d="M164.176,123.26a52.337,52.337,0,0,1,4.716,5.6,28.543,28.543,0,0,1-.4,32.971,53.959,53.959,0,0,1-4.831,5.482,8.589,8.589,0,0,0,1.591-1.189,25.073,25.073,0,0,0,3.7-3.968,28.006,28.006,0,0,0,.4-33.623,25.609,25.609,0,0,0-3.6-4.045A7.666,7.666,0,0,0,164.176,123.26Z" transform="translate(828.427 30.247)" fill="#f5f5f5"/><path d="M105.544,148.845l.211-15.642a10.965,10.965,0,0,1,.556-4.026,3.834,3.834,0,0,1,2.971-2.492c1.917-.882,5,.767,6.364,3.01a14.741,14.741,0,0,1,1.553,7.668,110.677,110.677,0,0,1-.613,12.345,13.879,13.879,0,0,1-1.457,5.655,4.716,4.716,0,0,1-8.933-.748,15.738,15.738,0,0,1-.652-5.77Z" transform="translate(997.436 33.167)" fill="#f5f5f5"/><path d="M119.17,135.992c0,.211,16.026.4,35.77.4s35.789-.192,35.789-.4-16.006-.422-35.789-.422S119.17,135.762,119.17,135.992Z" transform="translate(897.74 41.535)" fill="#f5f5f5"/><path d="M123.768,140.33l.4-36.46H104.33l-.69,36.46Z" transform="translate(994.068 12.468)" fill="#f5f5f5"/><path d="M103.76,107.465a51.008,51.008,0,0,0,9.22.422,51.008,51.008,0,0,0,9.22-.422,54.479,54.479,0,0,0-9.22-.4,54.479,54.479,0,0,0-9.22.4Z" transform="translate(995.808 15.353)" fill="#e0e0e0"/><path d="M103.76,110.408a52.18,52.18,0,0,0,9.22.4,52.179,52.179,0,0,0,9.22-.4,52.183,52.183,0,0,0-9.22-.4,52.179,52.179,0,0,0-9.22.4Z" transform="translate(995.808 18.046)" fill="#e0e0e0"/><path d="M103.76,113.335a51.013,51.013,0,0,0,9.22.422,51.011,51.011,0,0,0,9.22-.422,54.481,54.481,0,0,0-9.22-.4A54.479,54.479,0,0,0,103.76,113.335Z" transform="translate(995.808 20.735)" fill="#e0e0e0"/><path d="M103.76,116.278a52.177,52.177,0,0,0,9.22.4,52.177,52.177,0,0,0,9.22-.4,52.177,52.177,0,0,0-9.22-.4,52.179,52.179,0,0,0-9.22.4Z" transform="translate(995.808 23.428)" fill="#e0e0e0"/><path d="M103.76,119.215a51.008,51.008,0,0,0,9.22.422,51.008,51.008,0,0,0,9.22-.422,54.478,54.478,0,0,0-9.22-.4,54.475,54.475,0,0,0-9.22.4Z" transform="translate(995.808 26.127)" fill="#e0e0e0"/><path d="M324.919,103.37H104.99c-2.722,12.057-2.339,25.342,0,39.393H323.98v-2.684H310.562a6.307,6.307,0,0,1-6.326-6.307V111.958a6.307,6.307,0,0,1,6.326-6.307h14.319Z" transform="translate(794.374 12.01)" fill="#ebebeb"/><path d="M131.96,117.419h-3.68a.671.671,0,0,0-.383,0,.748.748,0,0,0-.4.69.422.422,0,0,0,0,.23,4.2,4.2,0,0,0,.23.939,10.524,10.524,0,0,0,2.3,4.16,4.39,4.39,0,0,0,3.144,1.61h.441a3.6,3.6,0,0,0,2.492-1.917,8.223,8.223,0,0,0,1.093-4.409,11.962,11.962,0,0,0-.441-3.144,10.639,10.639,0,0,0-2.166-4.256,4.466,4.466,0,0,0-3.316-1.764,3.048,3.048,0,0,0-1.38.326,4.447,4.447,0,0,0-2.147,2.684.786.786,0,0,0-.1.364.69.69,0,0,0,.115.383.728.728,0,0,0,.671.4h.249a.786.786,0,0,0,.518-.5h0a3.642,3.642,0,0,1,.441-.863,2.051,2.051,0,0,1,1.744-1.054,2.185,2.185,0,0,1,1.227.441,6.46,6.46,0,0,1,1.917,2.895,10.83,10.83,0,0,1,.863,4.141,7.667,7.667,0,0,1-.613,3.24,2.147,2.147,0,0,1-1.917,1.438,2.588,2.588,0,0,1-1.783-1.073,9.431,9.431,0,0,1-1.917-3.393h2.626a.835.835,0,0,0,.882-.882,1.094,1.094,0,0,0,0-.268.824.824,0,0,0-.709-.422Z" transform="translate(935.346 17.686)" fill="#fafafa"/><path d="M135.327,110.1a.466.466,0,0,1-.1.268q-.23.805-2.588,13.629a.688.688,0,0,0,0,.192.806.806,0,0,0,.115.4.709.709,0,0,0,.652.4h.134a.709.709,0,0,0,.594-.556l.882-4.524h4.524l2.166,4.543a.383.383,0,0,0,0,.153.805.805,0,0,0,.671.383.767.767,0,0,0,.422-.115.786.786,0,0,0,.364-.671.959.959,0,0,0,0-.23c-.134-.326-.364-.824-.671-1.5q-4.735-10.351-5.751-12.23a.882.882,0,0,0-.767-.537A.824.824,0,0,0,135.327,110.1Zm1,3.048,2.435,5.137h-3.45Z" transform="translate(919.48 17.832)" fill="#fafafa"/><path d="M140.147,125.026h6.633a.824.824,0,0,0,.422-.115,1.246,1.246,0,0,0,.383-.843h0q0-.4-1.917-13.572a1.477,1.477,0,0,0,0-.288.709.709,0,0,0-.709-.5.786.786,0,0,0-.364,0,.767.767,0,0,0-.422.709c0,.594.211,1.917.46,3.719.748,5.751,1.15,8.856,1.188,9.163h-5.636a1.5,1.5,0,0,0-.422,0,.748.748,0,0,0-.5.748.518.518,0,0,0,0,.249A.9.9,0,0,0,140.147,125.026Z" transform="translate(902.392 17.804)" fill="#fafafa"/><path d="M146.443,110.14a1.913,1.913,0,0,0-.115.268q-.23.805-2.588,13.629a.688.688,0,0,0,0,.192.8.8,0,0,0,.115.4.728.728,0,0,0,.652.4h.134a.728.728,0,0,0,.613-.556l.9-4.6h4.524l2.166,4.543a.384.384,0,0,0,0,.153.863.863,0,0,0,.671.383.882.882,0,0,0,.441-.115.824.824,0,0,0,.364-.671.517.517,0,0,0,0-.23c-.134-.326-.364-.824-.671-1.5Q148.9,112.1,147.9,110.217a.862.862,0,0,0-.767-.537.805.805,0,0,0-.69.46Zm.978,3.048,2.435,5.137H146.4Z" transform="translate(887.048 17.796)" fill="#fafafa"/><path d="M155.072,117.861c-.518,1.438-.92,2.55-1.208,3.316-.69,1.917-1.016,2.895-1.016,2.99a.71.71,0,0,0,.115.4.767.767,0,0,0,.671.364.69.69,0,0,0,.652-.537l.134-.326c.345-.824.939-2.377,1.764-4.677l3.834,5.137a.882.882,0,0,0,.69.4,1.035,1.035,0,0,0,.422,0,.748.748,0,0,0,.364-.671v-.173a1.916,1.916,0,0,0-.4-.633c-1.265-1.629-2.645-3.565-4.16-5.751.153-.441.307-.863.46-1.246,1.4-3.834,2.109-5.751,2.109-5.866a1.035,1.035,0,0,0,0-.4.69.69,0,0,0-.652-.383.786.786,0,0,0-.728.422l-2.224,5.981-4.409-6.019a.9.9,0,0,0-.709-.383.786.786,0,0,0-.364,0,.728.728,0,0,0-.383.69.823.823,0,0,0,0,.364Z" transform="translate(867.857 17.895)" fill="#fafafa"/><path d="M156.775,109.841a.786.786,0,0,0-.364.1.748.748,0,0,0-.422.671c1.073,8.569,1.687,13.208,1.783,13.9a8.608,8.608,0,0,0,1.419,3.623,5.176,5.176,0,0,0,4.409,2.147,5.08,5.08,0,0,0,2.128-.556,4.716,4.716,0,0,0,2.4-2.128.862.862,0,0,0,0-.383,1.035,1.035,0,0,0,0-.4.786.786,0,0,0-.69-.383.728.728,0,0,0-.594.326,4.275,4.275,0,0,1-3.393,1.917,3.431,3.431,0,0,1-2.645-1.342,7.322,7.322,0,0,1-1.457-4.16,4.141,4.141,0,0,0,.978,1.035,3.949,3.949,0,0,0,2.377.767h.441a3.508,3.508,0,0,0,2.511-1.917,8.051,8.051,0,0,0,1.112-4.409,18.49,18.49,0,0,0-.115-2.492c-.115-1.342-.422-3.24-.882-5.751a1.07,1.07,0,0,0,0-.23.748.748,0,0,0-.709-.537.69.69,0,0,0-.383.115.709.709,0,0,0-.4.633c0,.4.134,1.4.364,3.01a44.4,44.4,0,0,1,.537,4.62,9.585,9.585,0,0,1-.594,3.6c-.46,1.073-1.112,1.61-1.917,1.61h-.268a3.68,3.68,0,0,1-1.917-1.591,9.585,9.585,0,0,1-1.629-3.661l-1.016-7.553a.92.92,0,0,0-.1-.326A.748.748,0,0,0,156.775,109.841Z" transform="translate(849.745 17.75)" fill="#fafafa"/><path d="M213.7,143.528c.23,0,.4-9.048.4-20.2s-.173-20.224-.4-20.224-.4,9.048-.4,20.224S213.473,143.528,213.7,143.528Z" transform="translate(693.923 11.762)" fill="#f5f5f5"/><path d="M119.823,143.528c.23,0,.4-9.048.4-20.2s-.173-20.224-.4-20.224-.4,9.048-.4,20.224S119.612,143.528,119.823,143.528Z" transform="translate(967.764 11.762)" fill="#e0e0e0"/><path d="M215.732,143.528c.211,0,.4-9.048.4-20.2s-.192-20.224-.4-20.224-.422,9.048-.422,20.224S215.5,143.528,215.732,143.528Z" transform="translate(688.041 11.762)" fill="#f5f5f5"/><path d="M117.933,143.528c.23,0,.422-9.048.422-20.2s-.192-20.224-.422-20.224-.4,9.048-.4,20.224S117.722,143.528,117.933,143.528Z" transform="translate(973.258 11.762)" fill="#e0e0e0"/><path d="M196.533,106.57h0l-23.252,18.748-.211.173h.268l3.086.824,19.629,5.137h0l17.789-7.534,5.1-2.166,1.342-.575.326-.153h0l-.345.134-1.342.537-5.061,2.109-17.827,7.438h0l-19.629-5.176-3.086-.805v.23l23.195-18.824h0" transform="translate(764.422 14.944)" fill="#e0e0e0"/><path d="M198.925,114.8l-1.284,1.188-1.687-.364.748,1.572-.882,1.5,1.725-.211,1.15,1.3.326-1.725,1.591-.69-1.514-.843Z" transform="translate(740.924 22.49)" fill="#e0e0e0"/><path d="M186.716,118.65l-.863.728-1.093-.307.422,1.054-.633.939,1.131-.077.69.882.288-1.093,1.054-.4-.958-.594Z" transform="translate(775.427 26.02)" fill="#e0e0e0"/><path d="M176.111,113.857l-1.38.1-.863-1.093-.345,1.342-1.3.479,1.169.728.058,1.38,1.054-.882,1.342.383-.518-1.284Z" transform="translate(810.664 20.711)" fill="#e0e0e0"/><path d="M206.012,107.207l-1.38.077-.863-1.073-.345,1.342-1.284.46,1.169.748.038,1.38,1.073-.882,1.323.383-.5-1.284Z" transform="translate(723.409 14.614)" fill="#e0e0e0"/><path d="M187.592,106.572l-.882.038-.556-.69-.211.863-.843.307.748.46.038.882.69-.556.843.249-.326-.824Z" transform="translate(774.494 14.348)" fill="#e0e0e0"/><path d="M185.64,107.927s7.514-.153,16.792-.556,16.792-.786,16.773-.882-7.514.173-16.792.556S185.64,107.85,185.64,107.927Z" transform="translate(741.845 14.852)" fill="#e0e0e0"/><path d="M92.006,112.075H315.06c2.933-6.633,3.642-12.92,0-18.575H92.006a21.623,21.623,0,0,0,0,18.575Z" transform="translate(827.025 2.96)" fill="#e0e0e0"/><rect width="120.843" height="6.748" transform="translate(975.063 101.77)" fill="#ebebeb"/><path d="M93.648,111.942a6.729,6.729,0,0,0,1.764-2.243,16.639,16.639,0,0,0,2.032-6.594,16.39,16.39,0,0,0-.863-6.843,6.518,6.518,0,0,0-1.342-2.511,22.25,22.25,0,0,0,.805,2.684,19.936,19.936,0,0,1,.594,6.613,19.667,19.667,0,0,1-1.744,6.383A20.935,20.935,0,0,0,93.648,111.942Z" transform="translate(1039.888 3.189)" fill="#e0e0e0"/><path d="M96.165,111.942a6.729,6.729,0,0,0,1.764-2.243,16.332,16.332,0,0,0,2.032-6.594,16.083,16.083,0,0,0-.863-6.843,6.517,6.517,0,0,0-1.342-2.511,22.258,22.258,0,0,0,.805,2.684,19.438,19.438,0,0,1,.594,6.613,18.747,18.747,0,0,1-1.744,6.383,20.937,20.937,0,0,0-1.246,2.511Z" transform="translate(1032.54 3.189)" fill="#e0e0e0"/><path d="M205.228,111.7a38.934,38.934,0,0,1-1.572-9.086,38.723,38.723,0,0,1,1.476-9.105,18.92,18.92,0,0,0,.1,18.192Z" transform="translate(722.832 2.969)" fill="#f5f5f5"/><path d="M202.133,111.5c.23,0-.709-3.968-.671-8.895s.939-8.818.69-8.875a26.99,26.99,0,0,0,0,17.77Z" transform="translate(730.087 3.171)" fill="#f5f5f5"/><path d="M403.907,43.18H250.84V242.924H402.871Z" transform="translate(432.161 -43.18)" fill="#e0e0e0"/><rect width="152.185" height="197.712" transform="translate(695.02 0.978)" fill="#fff"/><path d="M244.64,43.3V242.507h153.7V43.3Zm1.572,197.712V44.8h150.67V241.012Z" transform="translate(449.613 -43.07)" fill="#e0e0e0"/><rect width="116.511" height="154.888" transform="translate(714.802 22.428)" fill="#fff"/><path d="M369.856,55.016V98.147c0,27.24-.1,65.9-.173,111.757l.345-.364H253.537l.4.4V55.054l-.633.23,84.613-.173h.192l-84.8-.422H253v155.6H370.239v-.345c0-46.006-.134-84.69-.173-111.987,0-13.591,0-24.326-.1-31.687v-10.5A1.939,1.939,0,0,0,369.856,55.016Z" transform="translate(461.688 -32.626)" fill="#e0e0e0"/><path d="M260.78,157.054a21.43,21.43,0,0,0-2.051-3.355c-1.361-1.917-3.278-4.735-5.463-7.668s-4.275-5.6-5.751-7.457a17.057,17.057,0,0,0-2.664-2.895,23.23,23.23,0,0,0,2.224,3.24l5.636,7.668,5.636,7.572A19.415,19.415,0,0,0,260.78,157.054Z" transform="translate(586.77 41.636)" fill="#e0e0e0"/><path d="M260.642,43.69a112.087,112.087,0,0,0-8.128,10.466A111.5,111.5,0,0,0,245,65.1a106.654,106.654,0,0,0,7.974-10.466,113.1,113.1,0,0,0,7.668-10.946Z" transform="translate(586.62 -42.712)" fill="#e0e0e0"/><line x2="20.032" y2="22.198" transform="translate(695 0.978)" fill="#fff"/><path d="M334.032,65.888a139.509,139.509,0,0,0-9.719-11.367A137.778,137.778,0,0,0,314,43.69a143.244,143.244,0,0,0,9.738,11.367,139.949,139.949,0,0,0,10.294,10.831Z" transform="translate(380.962 -42.712)" fill="#e0e0e0"/><path d="M314.45,156.971a131.14,131.14,0,0,0,9.872-10.332,128.137,128.137,0,0,0,9.259-10.869,137.591,137.591,0,0,0-9.853,10.332A135.429,135.429,0,0,0,314.45,156.971Z" transform="translate(380.551 41.718)" fill="#e0e0e0"/><path d="M363.985,160.459s-12.537-38.837-19.993-42.977a71.617,71.617,0,0,0-32.722-8.856c-17.252-.153-25.457,1.131-35.578,8.089-11.674,8.032-19.591,43.342-19.591,43.342" transform="translate(462 16.818)" fill="#e0e0e0"/><path d="M282.52,75.32c10.716.479,13.419,14.875,12.613,23-.345,3.834-1.534,8.128.422,11.5,1.4,2.4,4.141,3.834,5.291,6.345,1.419,3.048,0,6.575-.958,9.776s-1.457,7.265,1.112,9.45a92.818,92.818,0,0,1-18.5,3.47,31.3,31.3,0,0,1-18.134-4.026" transform="translate(508.69 -13.71)" fill="#e0e0e0"/><path d="M319.647,105.817c7.073-16.2-2.511-26.109-8.78-29.674a26.434,26.434,0,0,0-12.422-2.684,45.449,45.449,0,0,0-12.594,1.112,22.715,22.715,0,0,0-10.927,6.115c-5.157,5.482-6.345,13.61-5.885,21.086a58.811,58.811,0,0,0,7.4,25.246,6.038,6.038,0,0,0,2.185,2.549,2.281,2.281,0,0,0,3.029-.537" transform="translate(479.213 -15.472)" fill="#e0e0e0"/><path d="M288.213,156.141c-7.265.5-13.629-5.751-14.377-16.965L270,82.2l.268,3.949a4.6,4.6,0,0,1,4.121-4.639L296.954,79.2a13.725,13.725,0,0,1,15.125,12.863c.518,8.664.824,19.284-.23,25.744-2.109,13-12.077,14.626-12.077,14.626l.767,9.45a13.188,13.188,0,0,1-12.268,14.262Z" transform="translate(486.781 -10.224)" fill="#f5f5f5"/><path d="M275.875,90.426a1.649,1.649,0,0,1-1.61,1.668,1.61,1.61,0,0,1-1.725-1.514,1.668,1.668,0,0,1,1.629-1.668,1.591,1.591,0,0,1,1.706,1.514Z" transform="translate(518.594 -1.251)" fill="#e0e0e0"/><path d="M278.109,89.584c-.211.211-1.457-.728-3.259-.728s-3.125.9-3.316.69.115-.5.69-.92a4.773,4.773,0,0,1,2.665-.805,4.447,4.447,0,0,1,2.588.843C278.032,89.1,278.2,89.488,278.109,89.584Z" transform="translate(518.374 -2.248)" fill="#e0e0e0"/><path d="M284.856,90.427a1.649,1.649,0,0,1-1.61,1.668,1.572,1.572,0,0,1-1.706-1.514,1.649,1.649,0,0,1,1.61-1.668,1.572,1.572,0,0,1,1.706,1.514Z" transform="translate(492.361 -1.252)" fill="#e0e0e0"/><path d="M287.323,89.734c-.192.211-1.457-.728-3.259-.728s-3.105.9-3.316.671.115-.479.709-.9a4.658,4.658,0,0,1,2.645-.805,4.313,4.313,0,0,1,2.588.843C287.246,89.235,287.438,89.638,287.323,89.734Z" transform="translate(491.505 -2.111)" fill="#e0e0e0"/><path d="M275.657,103.048a10.6,10.6,0,0,1,2.933-.518c.441,0,.882-.153.958-.46a2.242,2.242,0,0,0-.307-1.361c-.422-1.112-.863-2.262-1.342-3.489A59.422,59.422,0,0,1,274.89,88a61.225,61.225,0,0,1,3.834,8.875c.46,1.227.882,2.4,1.284,3.527a2.646,2.646,0,0,1,.249,1.783,1.189,1.189,0,0,1-.767.671,3.107,3.107,0,0,1-.767.115,12.229,12.229,0,0,1-3.067.077Z" transform="translate(509.65 -2.083)" fill="#e0e0e0"/><path d="M293.995,109.176a33.182,33.182,0,0,1-17.425-4.7s4.658,9.01,17.674,7.84Z" transform="translate(492.5 13.028)" fill="#ebebeb"/><path d="M282.968,98.687a3.259,3.259,0,0,0-2.895-1.208,2.952,2.952,0,0,0-2.051,1.093,1.917,1.917,0,0,0-.134,2.128,2.166,2.166,0,0,0,2.339.613,6.843,6.843,0,0,0,2.3-1.361,1.916,1.916,0,0,0,.518-.537.613.613,0,0,0,0-.671" transform="translate(501.572 6.591)" fill="#e0e0e0"/><path d="M277.338,96.49c.307,0,.307,1.917,1.917,3.316s3.738,1.169,3.834,1.457-.46.364-1.342.383a4.773,4.773,0,0,1-3.125-1.093,4.237,4.237,0,0,1-1.514-2.78C276.992,96.95,277.2,96.471,277.338,96.49Z" transform="translate(502.679 5.701)" fill="#e0e0e0"/><path d="M288.5,87.9c-.173.5-1.917.249-4.083.5s-3.834.824-4.083.383.172-.671.863-1.15a6.844,6.844,0,0,1,3.029-1.035,6.422,6.422,0,0,1,3.182.383C288.2,87.287,288.58,87.67,288.5,87.9Z" transform="translate(491.148 -3.421)" fill="#e0e0e0"/><path d="M278.013,86.874c-.326.4-1.553,0-3.048,0s-2.741.268-3.048-.173,0-.613.633-1a4.179,4.179,0,0,1,2.473-.652,4.026,4.026,0,0,1,2.415.824C277.975,86.318,278.147,86.74,278.013,86.874Z" transform="translate(517.837 -4.791)" fill="#e0e0e0"/><path d="M336.347,76.022c-12.594-7.093-26.128-2.128-36.326,8.109-2.262,2.262-4.275,4.926-7.208,6.173s-7.38,1.15-9.278,4.026c-2.185,3.374.767,8.128-.824,11.827-1.5,3.393-6.153,4.371-7.879,7.668-1.361,2.569-.518,5.751.134,8.53s.882,6.249-1.246,8.224l27.105,10.294a7.054,7.054,0,0,0,3.834.422c3.834-.767,4.141-4.332,3.834-7.284a12.229,12.229,0,0,1,.172-6.556c1.112-2.4,3.834-3.661,4.888-6.1,1.764-4.294-3.105-8.76-2.511-13.418a8.646,8.646,0,0,1,5.521-6.268c2.665-1.15,5.617-1.534,8.377-2.434,6.4-2.032,11.674-7.9,14.4-14.415a7.016,7.016,0,0,0-2.914-8.837Z" transform="translate(452.295 -16.118)" fill="#e0e0e0"/></g><rect width="244.005" height="254.357" transform="translate(0 68.971)" fill="#e0e0e0"/><rect width="244.005" height="254.357" transform="translate(16.524 68.971)" fill="#fafafa"/><path d="M551,333.63H795.235V79.12H551Zm244.005-.153H551.153V79.273H795.005Z" transform="translate(-534.553 -10.226)" fill="#e0e0e0"/><rect width="178.408" height="185.98" transform="translate(49.322 103.169)" fill="#fff"/><path d="M551.2,194.66a29.238,29.238,0,0,0,4.409,5.118c2.856,3.01,6.843,7.073,11.329,11.5s8.626,8.358,11.674,11.157a27.084,27.084,0,0,0,5.156,4.294,28.625,28.625,0,0,0-4.39-5.1c-2.856-3.01-6.863-7.093-11.367-11.5s-8.626-8.377-11.674-11.176a27.162,27.162,0,0,0-5.137-4.294Z" transform="translate(-323.469 95.716)" fill="#e0e0e0"/><path d="M693.33,194.42a30.1,30.1,0,0,0-5.118,4.409c-3.009,2.856-7.073,6.863-11.5,11.348s-8.358,8.607-11.137,11.655a28.508,28.508,0,0,0-4.313,5.157,27.12,27.12,0,0,0,5.1-4.39c3.01-2.837,7.093-6.863,11.5-11.367s8.4-8.626,11.176-11.674a27.167,27.167,0,0,0,4.294-5.137Z" transform="translate(-644.008 95.496)" fill="#e0e0e0"/><path d="M693.588,112.6a29.231,29.231,0,0,0-4.409-5.118c-2.856-3.01-6.844-7.073-11.348-11.5s-8.607-8.358-11.655-11.157A27.085,27.085,0,0,0,661,80.53a28.618,28.618,0,0,0,4.39,5.1c2.856,3.01,6.863,7.093,11.367,11.5s8.626,8.377,11.674,11.176a27.165,27.165,0,0,0,5.156,4.294Z" transform="translate(-643.767 -8.933)" fill="#e0e0e0"/><path d="M551.2,113.079a30.1,30.1,0,0,0,5.118-4.409c3.009-2.856,7.073-6.843,11.5-11.348s8.377-8.607,11.156-11.655a26.84,26.84,0,0,0,4.294-5.157,28.19,28.19,0,0,0-5.08,4.39c-3.01,2.837-7.093,6.863-11.5,11.367s-8.4,8.626-11.176,11.674A27.156,27.156,0,0,0,551.2,113.079Z" transform="translate(-322.971 -8.951)" fill="#e0e0e0"/><path d="M568.762,283.318V269.765c0-8.8,0-21.623.173-37.9.1-32.588.211-78.977.364-134.53l-.69.69H746.5l-.786-.786c0,68.262,0,132.115.115,185.942l.671-.69-128.817.345-36.192.192H569.433a4.372,4.372,0,0,0-.863,0H581.2l36.019.173,129.258.345h.69v-.23c0-53.866,0-117.718.1-185.942V96.59H567.88v.786c.134,55.744.268,102.287.345,134.971,0,16.217.134,28.984.172,37.744,0,4.294,0,7.668.1,9.91v2.53A3.836,3.836,0,0,0,568.762,283.318Z" transform="translate(-518.941 5.793)" fill="#e0e0e0"/><path d="M600.256,133.237a66.882,66.882,0,0,1,67.208-8.434s3.335,44.089,3.086,63.412-19.476,22.236-19.476,22.236v20.837L604.3,233.051l-6.978-97.61Z" transform="translate(-498.678 26.673)" fill="#f5f5f5"/><path d="M632.533,170.169A44.857,44.857,0,0,1,607.44,163s5.923,13.84,25.131,12.115Z" transform="translate(-480.08 66.686)" fill="#e0e0e0"/><path d="M646.665,138.418c-.326-.134-13.227-3.834-12.805,9.259s13.553,10.006,13.553,9.585S646.665,138.418,646.665,138.418Z" transform="translate(-545.547 43.613)" fill="#f5f5f5"/><path d="M642.035,150.489a3.477,3.477,0,0,1-.594.364,2.32,2.32,0,0,1-1.725,0,5.75,5.75,0,0,1-2.78-5,7.551,7.551,0,0,1,.537-3.3,2.665,2.665,0,0,1,1.668-1.917,1.169,1.169,0,0,1,1.38.575c.192.364.115.633.173.652s.288-.23.153-.767a1.534,1.534,0,0,0-.537-.805,1.687,1.687,0,0,0-1.284-.288,3.163,3.163,0,0,0-2.319,2.109,7.668,7.668,0,0,0-.69,3.7c.173,2.645,1.61,5.08,3.527,5.559a2.454,2.454,0,0,0,2.089-.4C642.035,150.815,642.035,150.527,642.035,150.489Z" transform="translate(-544.291 45.574)" fill="#e0e0e0"/><path d="M607.7,138.827a2.78,2.78,0,0,1-2.665,2.78,2.626,2.626,0,0,1-2.818-2.492,2.741,2.741,0,0,1,2.645-2.76,2.626,2.626,0,0,1,2.837,2.473Z" transform="translate(-445.205 42.246)" fill="#e0e0e0"/><path d="M611.735,137.7c-.345.345-2.435-1.188-5.387-1.188s-5.118,1.5-5.444,1.131.192-.805,1.131-1.5a7.668,7.668,0,0,1,4.371-1.342,7.284,7.284,0,0,1,4.275,1.38C611.582,136.88,611.908,137.532,611.735,137.7Z" transform="translate(-446.573 40.838)" fill="#e0e0e0"/><path d="M622.872,139.478a2.76,2.76,0,0,1-2.645,2.78,2.645,2.645,0,0,1-2.837-2.492,2.76,2.76,0,0,1,2.645-2.76,2.607,2.607,0,0,1,2.837,2.473Z" transform="translate(-489.454 42.841)" fill="#e0e0e0"/><path d="M626.9,137.976c-.345.364-2.435-1.169-5.387-1.169s-5.137,1.5-5.444,1.131.172-.805,1.131-1.5a7.381,7.381,0,0,1,4.351-1.342,7.265,7.265,0,0,1,4.294,1.38C626.765,137.171,627.072,137.822,626.9,137.976Z" transform="translate(-490.816 41.103)" fill="#e0e0e0"/><path d="M607.861,159.783a20.975,20.975,0,0,1,4.811-.863c.748,0,1.476-.23,1.591-.748a3.835,3.835,0,0,0-.5-2.224q-1.054-2.76-2.243-5.751c-3.086-8.185-5.329-14.914-5-15.048s3.105,6.422,6.211,14.607c.748,2.013,1.457,3.949,2.147,5.751a4.45,4.45,0,0,1,.383,2.952,1.916,1.916,0,0,1-1.246,1.112,4.659,4.659,0,0,1-1.284.173A18.212,18.212,0,0,1,607.861,159.783Z" transform="translate(-461.044 41.149)" fill="#e0e0e0"/><path d="M629.077,131.646c-.287.805-3.24.422-6.709.843s-6.268,1.361-6.728.633c-.211-.345.268-1.093,1.4-1.917a11.5,11.5,0,0,1,5-1.744,11.157,11.157,0,0,1,5.252.613C628.559,130.572,629.211,131.262,629.077,131.646Z" transform="translate(-492.228 35.855)" fill="#e0e0e0"/><path d="M611.428,133.284c-.518.671-2.55,0-5,0s-4.524.46-5-.249c-.211-.345.115-1.016,1.016-1.649a6.94,6.94,0,0,1,4.083-1.093,6.747,6.747,0,0,1,3.987,1.342C611.371,132.268,611.658,132.958,611.428,133.284Z" transform="translate(-447.359 36.69)" fill="#e0e0e0"/><path d="M680.352,123.684a7.092,7.092,0,0,0-2.626-6.345,5.061,5.061,0,0,0-6.537.479,5.866,5.866,0,0,0-5.042-7.131c-3.144-.192-5.751,2.185-8.856,3.01a14.262,14.262,0,0,1-8.971-1.035c-2.856-1.15-5.521-2.741-8.4-3.834a24.613,24.613,0,0,0-31.476,14.434,10.927,10.927,0,0,0-11.5,4.39,17.962,17.962,0,0,0-2.76,12.633,41.019,41.019,0,0,0,2.2,8.626q0,.374,0,.748c.211,10.581,1.4,23,5.9,23,7.879.134,6-14.7,6-14.7,9.585-3.719,6.057-18.192,8.473-20.377s7.476-7.3,27.68,3.029c7.859,4.006,18.287,3.834,23.981,2.588H669a17.924,17.924,0,0,0,5.195-2.185,10.467,10.467,0,0,0,4.275-4.754,5.617,5.617,0,0,0-1.112-6.019,12.422,12.422,0,0,0,2.99-6.556Z" transform="translate(-502.098 15.638)" fill="#e0e0e0"/><path d="M615.707,159.915a8.8,8.8,0,0,1-3.393-.4,4.888,4.888,0,0,1-2.55-2.339,5.023,5.023,0,0,1,0-4.141,5.148,5.148,0,0,1,.537-.959c.268-.268.211-.249.479-.211a5.858,5.858,0,0,1,1.016.4l1.054.422c1.361.556,2.588,1.035,3.623,1.419a10.733,10.733,0,0,0,3.45,1.035,11.314,11.314,0,0,0-3.144-1.764c-1-.5-2.185-1.054-3.527-1.649l-1.016-.46a10.389,10.389,0,0,0-1.169-.479,1.341,1.341,0,0,0-.939,0,1.915,1.915,0,0,0-.69.537,5.751,5.751,0,0,0-.537,6.288,5.444,5.444,0,0,0,3.22,2.607,5.329,5.329,0,0,0,2.76.115C615.439,160.2,615.726,159.992,615.707,159.915Z" transform="translate(-468.909 55.413)" fill="#e0e0e0"/></g><g transform="translate(701.588 340.687)"><path d="M436.437,208.117l-.268,5.157a4.5,4.5,0,1,0-.364,6.863l-.288,5.176a4.332,4.332,0,0,0-2.818-1.227,4.492,4.492,0,1,0,2.454,8.051l-.268,5.176a4.428,4.428,0,0,0-2.818-1.227,4.486,4.486,0,0,0-.479,8.952,4.39,4.39,0,0,0,2.933-.9l-.287,5.176a4.332,4.332,0,0,0-2.818-1.227,4.486,4.486,0,0,0-.479,8.952,4.332,4.332,0,0,0,2.933-.92l-.268,5.195a4.486,4.486,0,1,0-.364,6.805l-.288,5.195a4.332,4.332,0,0,0-2.818-1.227,4.486,4.486,0,0,0-.479,8.952,4.333,4.333,0,0,0,2.933-.92l-.173,3.22L294.22,280.021l7-80.511Z" transform="translate(-294.22 -197.344)" fill="#ebebeb"/><path d="M434.818,205.741l-.288,5.176a4.37,4.37,0,0,0-2.818-1.227,4.486,4.486,0,1,0,2.454,8.032L433.9,222.9a4.5,4.5,0,1,0-.364,6.863l-.288,5.176a4.37,4.37,0,0,0-2.818-1.227,4.486,4.486,0,1,0,2.454,8.051l-.268,5.176a4.428,4.428,0,0,0-2.818-1.227,4.486,4.486,0,0,0-.479,8.952,4.39,4.39,0,0,0,2.933-.9l-.288,5.176a4.37,4.37,0,0,0-2.818-1.227,4.486,4.486,0,0,0-.479,8.952,4.371,4.371,0,0,0,2.933-.92l-.268,5.195a4.486,4.486,0,1,0-.364,6.805l-.173,3.22-138.172-7.38,4.026-75.2Z" transform="translate(-289.534 -198.38)" fill="#f5f5f5"/><path d="M293.11,206.132c0,.288,30.9,2.147,69.009,4.2s69.009,3.47,69.009,3.2-30.9-2.166-69.009-4.2S293.11,205.9,293.11,206.132Z" transform="translate(-286.784 -191.295)" fill="#e0e0e0"/><path d="M293.4,212.417c0,.268,30.9,2.147,69.009,4.2s69.105,3.47,69.105,3.182-30.882-2.147-69.009-4.179S293.419,212.13,293.4,212.417Z" transform="translate(-287.726 -185.542)" fill="#e0e0e0"/><path d="M293.74,218.686c0,.288,30.92,2.166,69.009,4.2s69.009,3.47,69.105,3.2-30.9-2.147-69.009-4.2S293.759,218.417,293.74,218.686Z" transform="translate(-288.718 -179.791)" fill="#e0e0e0"/><path d="M294.07,225.026c0,.268,30.9,2.147,69.009,4.2s69.105,3.47,69.105,3.2-30.9-2.166-69.009-4.2S294.089,224.661,294.07,225.026Z" transform="translate(-289.68 -173.997)" fill="#e0e0e0"/><path d="M294.4,231.248c0,.268,30.9,2.147,69.009,4.179s69.105,3.489,69.124,3.2-30.9-2.147-69.009-4.2S294.419,230.96,294.4,231.248Z" transform="translate(-290.662 -168.277)" fill="#e0e0e0"/><rect width="0.958" height="75.297" transform="translate(122.555 81.561) rotate(-176.94)" fill="#40a0c0"/><path d="M309.2,276.531c.268,0,1.4-16.811,2.511-37.572s1.783-37.61,1.514-37.629-1.4,16.811-2.511,37.572S308.917,276.512,309.2,276.531Z" transform="translate(-199.671 -195.675)" fill="#e0e0e0"/><path d="M296.375,277.22c.268,0,1.4-16.792,2.511-37.553S300.668,202,300.4,202s-1.4,16.792-2.511,37.572S296.087,277.22,296.375,277.22Z" transform="translate(-162.247 -195.061)" fill="#e0e0e0"/><path d="M316.228,276.105c.268,0,1.4-16.811,2.511-37.572S320.522,201,320.254,201s-1.4,16.811-2.511,37.591S315.96,276.086,316.228,276.105Z" transform="translate(-220.171 -195.978)" fill="#e0e0e0"/><path d="M323.258,275.781c.288,0,1.4-16.811,2.511-37.572s1.783-37.61,1.514-37.629-1.4,16.792-2.511,37.572S322.99,275.762,323.258,275.781Z" transform="translate(-240.677 -196.363)" fill="#e0e0e0"/><path d="M330.293,275.4c.268,0,1.38-16.811,2.492-37.572s1.8-37.61,1.514-37.629-1.4,16.811-2.511,37.572S330.005,275.382,330.293,275.4Z" transform="translate(-261.168 -196.711)" fill="#e0e0e0"/><path d="M337.315,275.012c.268,0,1.4-16.792,2.511-37.572s1.783-37.61,1.514-37.61-1.4,16.792-2.511,37.572S337.027,275.012,337.315,275.012Z" transform="translate(-281.666 -197.05)" fill="#e0e0e0"/><path d="M344.338,274.651c.268,0,1.4-16.811,2.511-37.572s1.783-37.61,1.514-37.629-1.4,16.811-2.511,37.572S344.07,274.632,344.338,274.651Z" transform="translate(-302.166 -197.399)" fill="#e0e0e0"/><path d="M351.365,274.271c.287,0,1.4-16.811,2.511-37.572s1.8-37.61,1.514-37.629-1.4,16.811-2.511,37.591S351.1,274.252,351.365,274.271Z" transform="translate(-322.669 -197.747)" fill="#e0e0e0"/><path d="M358.394,273.9c.268,0,1.4-16.811,2.511-37.572s1.783-37.61,1.514-37.629-1.4,16.792-2.511,37.572S358.107,273.882,358.394,273.9Z" transform="translate(-343.155 -198.087)" fill="#e0e0e0"/><path d="M308.97,214.185a3.222,3.222,0,0,0,.978.153l2.837.249,10.371.69c8.779.556,20.914,1.227,34.294,1.917s25.553,1.169,34.332,1.438,14.243.307,14.224,0l-48.5-2.435-34.313-1.591-10.39-.4h-2.837A3.085,3.085,0,0,0,308.97,214.185Z" transform="translate(-292.063 -183.917)" fill="#263238"/><path d="M309.05,221.368c0,.268,22.294,1.514,49.84,2.78s49.84,2.07,49.84,1.783-22.275-1.514-49.84-2.78S309.146,221.08,309.05,221.368Z" transform="translate(-294.941 -177.355)" fill="#263238"/><path d="M309.82,227.634c0,.288,22.275,1.534,49.84,2.8s49.84,2.051,49.84,1.783-22.275-1.534-49.84-2.78S309.839,227.366,309.82,227.634Z" transform="translate(-297.187 -171.603)" fill="#263238"/><path d="M317.494,209.552a12.077,12.077,0,0,1-4.428,7.668,7.9,7.9,0,1,1-2.895-14.243" transform="translate(-187.68 -194.312)" fill="#e0e0e0"/><path d="M313.082,209.488a6.288,6.288,0,1,1-5.943-6.613,6.287,6.287,0,0,1,5.943,6.613Z" transform="translate(-182.941 -194.267)" fill="#455a64"/><path d="M306.14,207.367a3.834,3.834,0,1,1-1.45-3.968A3.834,3.834,0,0,1,306.14,207.367Z" transform="translate(-172.377 -194.466)" fill="#455a64"/><path d="M305.123,210.161c0-.153-.594-.115-1.361-.4a3.642,3.642,0,0,1-2.147-2.07,3.834,3.834,0,0,1,.288-3.01c.383-.748.824-1.093.748-1.227s-.69,0-1.323.824a3.987,3.987,0,0,0-.652,3.738,3.834,3.834,0,0,0,2.914,2.434C304.605,210.6,305.161,210.3,305.123,210.161Z" transform="translate(-174.887 -193.771)" fill="#263238"/><path d="M306.171,204.272c-.134-.249-1.073,0-2.128-.23s-1.783-.9-1.917-.728.288,1.342,1.783,1.706S306.4,204.464,306.171,204.272Z" transform="translate(-179.098 -193.882)" fill="#263238"/><path d="M300.9,210.564c.268,0,.537-1.169,1.534-2.089s2.166-1.131,2.166-1.4-1.514-.575-2.856.671S300.627,210.622,300.9,210.564Z" transform="translate(-174.781 -190.628)" fill="#263238"/><path d="M372.894,207.222a12.134,12.134,0,0,1-4.428,7.668,7.9,7.9,0,1,1-2.895-14.243" transform="translate(-349.278 -196.449)" fill="#e0e0e0"/><path d="M356.1,205.885a6.077,6.077,0,1,0,2.008-4.2A6.077,6.077,0,0,0,356.1,205.885Z" transform="translate(-344.639 -196.78)" fill="#40a0c0"/><path d="M360.317,203.424a3.623,3.623,0,1,0,1.2-2.527A3.642,3.642,0,0,0,360.317,203.424Z" transform="translate(-352.074 -196.925)" fill="#40a0c0"/><path d="M360,206.682a1.929,1.929,0,0,0,1.438.441,3.642,3.642,0,0,0,3.067-2.032,3.834,3.834,0,0,0-.23-3.661c-.537-.824-1.15-1.035-1.208-.939s.288.518.575,1.265a3.7,3.7,0,0,1,0,2.895,3.47,3.47,0,0,1-2.262,1.783C360.578,206.624,360.041,206.529,360,206.682Z" transform="translate(-348.75 -196.465)" fill="#263238"/><path d="M358.5,201.121c-.211.192.69,1.15,2.185.978s2.128-1.323,1.917-1.476-.978.383-2.013.5S358.653,200.891,358.5,201.121Z" transform="translate(-343.586 -196.348)" fill="#263238"/><path d="M363.719,207.584c.268,0,.633-1.438-.518-2.8s-2.722-1.208-2.684-.939,1.093.594,1.917,1.591S363.431,207.565,363.719,207.584Z" transform="translate(-348.862 -193.533)" fill="#263238"/><g transform="translate(-783 -25.024)"><path d="M168.886,243.77a4.888,4.888,0,1,0,8.4,0h5.751a4.945,4.945,0,0,0-.69,2.473,4.888,4.888,0,1,0,9.086-2.473h5.655a4.754,4.754,0,0,0-.69,2.473,4.888,4.888,0,1,0,9.086-2.473h5.751a4.754,4.754,0,0,0-.69,2.473,4.888,4.888,0,1,0,9.757,0,4.755,4.755,0,0,0-.69-2.473h5.751a4.754,4.754,0,0,0-.69,2.473,4.888,4.888,0,1,0,9.757,0,4.754,4.754,0,0,0-.69-2.473h5.751a4.888,4.888,0,1,0,8.4,0h3.546V344.639l-88.179,4.85,4.217-105.718Z" transform="translate(141.848 -156.761)" fill="#e0e0e0"/><g transform="translate(310.158 84.249)" clip-path="url(#a)"><path d="M164.629,242.33a4.888,4.888,0,1,0,8.4,0h5.655a4.946,4.946,0,0,0-.69,2.473,4.888,4.888,0,1,0,9.086-2.473h5.751a4.754,4.754,0,0,0-.69,2.473,4.888,4.888,0,1,0,9.086-2.473h5.655a4.755,4.755,0,0,0-.69,2.473,4.888,4.888,0,1,0,9.757,0,4.754,4.754,0,0,0-.69-2.473h5.655A4.888,4.888,0,1,0,230,244.8a4.754,4.754,0,0,0-.69-2.473h5.559a4.888,4.888,0,1,0,8.4,0h3.546V343.294H162.77V242.33Z" transform="translate(-162.77 -242.33)" fill="#f5f5f5"/><path d="M159.638,349.617c.288,0,.748-24.441,1.054-54.594s.345-54.613,0-54.613-.748,24.441-1.054,54.594S159.37,349.617,159.638,349.617Z" transform="translate(-70.482 -244.09)" fill="#e0e0e0"/><path d="M166.662,349.547c.288,0,.767-24.441,1.073-54.594s.326-54.613,0-54.613-.748,24.441-1.054,54.594S166.394,349.547,166.662,349.547Z" transform="translate(-91.001 -244.155)" fill="#e0e0e0"/><path d="M170.168,349.547c.268,0,.748-24.441,1.054-54.594s.345-54.613,0-54.613-.748,24.441-1.054,54.594S169.9,349.547,170.168,349.547Z" transform="translate(-101.197 -244.155)" fill="#e0e0e0"/><path d="M177.289,349.547c.268,0,.748-24.441,1.054-54.594s.326-54.613,0-54.613-.748,24.441-1.054,54.594S177,349.547,177.289,349.547Z" transform="translate(-121.947 -244.155)" fill="#e0e0e0"/><path d="M184.4,349.547c.268,0,.748-24.441,1.054-54.594s.326-54.613,0-54.613-.748,24.441-1.054,54.594S184.112,349.547,184.4,349.547Z" transform="translate(-142.687 -244.155)" fill="#e0e0e0"/><path d="M191.522,349.547c.268,0,.748-24.441,1.054-54.594s.326-54.613,0-54.613-.748,24.441-1.054,54.594S191.311,349.547,191.522,349.547Z" transform="translate(-163.516 -244.155)" fill="#e0e0e0"/><path d="M198.259,349.547c.268,0,.748-24.441,1.054-54.594s.326-54.613,0-54.613-.748,24.441-1.054,54.594S197.972,349.547,198.259,349.547Z" transform="translate(-183.115 -244.155)" fill="#e0e0e0"/><path d="M205,349.547c.268,0,.748-24.441,1.054-54.594s.345-54.613,0-54.613S205.3,264.781,205,294.934,204.73,349.547,205,349.547Z" transform="translate(-202.794 -244.155)" fill="#e0e0e0"/><path d="M173.719,349.477c.268,0,.748-24.46,1.054-54.613s.326-54.594,0-54.594-.748,24.422-1.054,54.594S173.432,349.458,173.719,349.477Z" transform="translate(-111.534 -244.219)" fill="#e0e0e0"/><path d="M180.748,349.4c.268,0,.748-24.441,1.054-54.594s.345-54.594,0-54.613-.748,24.441-1.054,54.613S180.48,349.4,180.748,349.4Z" transform="translate(-132.058 -244.292)" fill="#e0e0e0"/><path d="M187.772,349.327c.288,0,.767-24.441,1.073-54.594s.326-54.613,0-54.613-.748,24.441-1.054,54.613S187.5,349.327,187.772,349.327Z" transform="translate(-152.578 -244.356)" fill="#e0e0e0"/><path d="M194.829,349.237c.268,0,.748-24.441,1.054-54.594s.326-54.613,0-54.613-.748,24.441-1.054,54.594S194.542,349.237,194.829,349.237Z" transform="translate(-173.11 -244.439)" fill="#e0e0e0"/><path d="M201.56,349.617c.288,0,.748-24.441,1.054-54.594s.345-54.613,0-54.613-.748,24.441-1.054,54.594S201.234,349.617,201.56,349.617Z" transform="translate(-192.723 -244.09)" fill="#e0e0e0"/><path d="M208.9,349.117c.288,0,.748-24.46,1.073-54.613s.326-54.594,0-54.594-.748,24.422-1.073,54.594S208.628,349.1,208.9,349.117Z" transform="translate(-214.167 -244.549)" fill="#e0e0e0"/><path d="M159.94,290.308c0,.268,24.46.748,54.594,1.035s54.613.326,54.613,0-24.441-.748-54.594-1.054S159.959,290.04,159.94,290.308Z" transform="translate(-179.684 -198.545)" fill="#e0e0e0"/><path d="M160.23,293.911c0,.268,24.441.748,54.594,1.035s54.613.326,54.613,0S245,294.2,214.824,293.892,160.23,293.624,160.23,293.911Z" transform="translate(-180.53 -195.247)" fill="#e0e0e0"/><path d="M159.87,283.262c0,.288,24.46.748,54.594,1.054s54.613.326,54.613,0-24.441-.748-54.594-1.035S159.889,282.956,159.87,283.262Z" transform="translate(-179.48 -204.994)" fill="#e0e0e0"/><path d="M159.8,276.23c0,.268,24.46.728,54.613,1.035s54.594.326,54.594,0-24.441-.728-54.594-1.035S159.819,275.981,159.8,276.23Z" transform="translate(-179.276 -211.438)" fill="#e0e0e0"/><path d="M159.73,269.2c0,.268,24.46.748,54.613,1.035s54.594.326,54.594,0-24.422-.748-54.594-1.054S159.749,268.914,159.73,269.2Z" transform="translate(-179.072 -217.904)" fill="#e0e0e0"/><path d="M159.66,262.145c0,.288,24.46.748,54.613,1.054s54.594.307,54.594,0-24.422-.748-54.594-1.035S159.679,261.877,159.66,262.145Z" transform="translate(-178.868 -224.343)" fill="#e0e0e0"/><path d="M159.59,255.1c0,.288,24.441.748,54.594,1.054s54.594.326,54.594,0-24.422-.728-54.594-1.035S159.59,254.846,159.59,255.1Z" transform="translate(-178.644 -230.808)" fill="#e0e0e0"/><path d="M159.51,248.118c0,.268,24.441.748,54.594,1.035s54.594.326,54.613,0-24.441-.748-54.613-1.054S159.51,247.792,159.51,248.118Z" transform="translate(-178.43 -237.249)" fill="#e0e0e0"/><path d="M159.51,245.275c0,.268,24.441.748,54.594,1.035s54.594.326,54.613,0-24.441-.748-54.613-1.054S159.51,244.968,159.51,245.275Z" transform="translate(-178.43 -239.85)" fill="#e0e0e0"/><path d="M159.51,251.665c0,.288,24.441.748,54.594,1.054s54.594.326,54.613,0-24.441-.748-54.613-1.035S159.51,251.4,159.51,251.665Z" transform="translate(-178.43 -233.953)" fill="#e0e0e0"/><path d="M159.51,258.649c0,.288,24.441.748,54.594,1.054s54.594.326,54.613,0-24.441-.728-54.613-1.035S159.51,258.38,159.51,258.649Z" transform="translate(-178.43 -227.556)" fill="#e0e0e0"/><path d="M159.51,265.629c0,.287,24.441.748,54.594,1.054s54.594.326,54.613,0-24.441-.728-54.613-1.035S159.51,265.36,159.51,265.629Z" transform="translate(-178.43 -221.156)" fill="#e0e0e0"/><path d="M159.51,272.627c0,.268,24.441.728,54.594,1.035s54.594.326,54.613,0-24.441-.728-54.613-1.035S159.51,272.339,159.51,272.627Z" transform="translate(-178.43 -214.755)" fill="#e0e0e0"/><path d="M159.51,279.611c0,.268,24.441.728,54.594,1.035s54.594.326,54.613,0-24.441-.748-54.613-1.054S159.51,279.324,159.51,279.611Z" transform="translate(-178.43 -208.359)" fill="#e0e0e0"/><path d="M159.51,286.591c0,.268,24.441.728,54.594,1.035s54.594.326,54.613,0-24.441-.748-54.613-1.054S159.51,286.3,159.51,286.591Z" transform="translate(-178.43 -201.959)" fill="#e0e0e0"/><path d="M164.629,242.33a4.888,4.888,0,1,0,8.4,0h5.655a4.946,4.946,0,0,0-.69,2.473,4.888,4.888,0,1,0,9.086-2.473h5.751a4.754,4.754,0,0,0-.69,2.473,4.888,4.888,0,1,0,9.086-2.473h5.655a4.755,4.755,0,0,0-.69,2.473,4.888,4.888,0,1,0,9.757,0,4.754,4.754,0,0,0-.69-2.473h5.655A4.888,4.888,0,1,0,230,244.8a4.754,4.754,0,0,0-.69-2.473h5.559a4.888,4.888,0,1,0,8.4,0h3.546V343.294H162.77V242.33Z" transform="translate(-162.77 -242.33)" fill="none"/></g><path d="M198.484,253.222a12.077,12.077,0,0,1-4.428,7.668,7.9,7.9,0,1,1-2.895-14.243" transform="translate(159.463 -154.27)" fill="#e0e0e0"/><path d="M194.161,253.108a6.288,6.288,0,1,1-5.942-6.613,6.287,6.287,0,0,1,5.942,6.613Z" transform="translate(163.939 -154.271)" fill="#ee7a15"/><path d="M187.384,250.632a3.834,3.834,0,1,1-3.565-3.968A3.834,3.834,0,0,1,187.384,250.632Z" transform="translate(174.321 -154.115)" fill="#ee7a15"/><path d="M186.226,253.768c0-.153-.594-.1-1.361-.383a3.681,3.681,0,0,1-2.147-2.089,3.834,3.834,0,0,1,.288-3.01c.383-.728.824-1.093.748-1.208s-.69,0-1.323.805a3.987,3.987,0,0,0-.652,3.834,3.834,3.834,0,0,0,2.914,2.434C185.689,254.209,186.264,253.864,186.226,253.768Z" transform="translate(171.971 -153.762)" fill="#263238"/><path d="M187.383,247.889c-.134-.249-1.073,0-2.128-.211s-1.783-.9-2.013-.748.288,1.361,1.783,1.706S187.556,248.1,187.383,247.889Z" transform="translate(167.65 -153.883)" fill="#263238"/><path d="M181.984,254.181c.268,0,.537-1.169,1.514-2.089s2.185-1.131,2.185-1.4-1.514-.556-2.856.671S181.7,254.239,181.984,254.181Z" transform="translate(172.091 -150.629)" fill="#263238"/><path d="M170.45,261.368c0,.268,13.418.5,29.942.5s29.962-.23,29.962-.5-13.418-.5-29.962-.5S170.45,261.119,170.45,261.368Z" transform="translate(149.12 -141.081)" fill="#263238"/><path d="M170.45,264.618c0,.268,13.418.5,29.942.5s29.962-.23,29.962-.5-13.418-.5-29.962-.5S170.45,264.331,170.45,264.618Z" transform="translate(149.12 -138.101)" fill="#263238"/><path d="M170.45,267.868c0,.268,13.418.5,29.942.5s29.962-.23,29.962-.5-13.418-.5-29.962-.5S170.45,267.581,170.45,267.868Z" transform="translate(149.12 -135.121)" fill="#263238"/><path d="M170.45,271.108c0,.287,13.418.5,29.942.5s29.962-.211,29.962-.5-13.418-.5-29.962-.5S170.45,270.84,170.45,271.108Z" transform="translate(149.12 -132.15)" fill="#263238"/><path d="M170.45,274.358c0,.288,13.418.5,29.942.5s29.962-.211,29.962-.5-13.418-.5-29.962-.5S170.45,274.128,170.45,274.358Z" transform="translate(149.12 -129.17)" fill="#263238"/><path d="M170.45,277.608c0,.268,13.418.5,29.942.5s29.962-.23,29.962-.5-13.418-.5-29.962-.5S170.45,277.34,170.45,277.608Z" transform="translate(149.12 -126.19)" fill="#263238"/><path d="M170.45,280.858c0,.268,13.418.5,29.942.5s29.962-.23,29.962-.5-13.418-.5-29.962-.5S170.45,280.571,170.45,280.858Z" transform="translate(149.12 -123.21)" fill="#263238"/></g><g transform="translate(-162.165 -38.682)"><path d="M352.665,310.272l-112.945,14.4,1.514-41.348Z" transform="translate(-105.977 -120.496)" fill="#e0e0e0"/><rect width="108.805" height="36.115" transform="translate(246.759 190.601) rotate(175.23)" fill="#82430d"/><path d="M247.53,292.621c0,.268,18.211-1.016,40.62-2.895s40.543-3.6,40.524-3.834-18.211,1.016-40.62,2.875S247.511,292.353,247.53,292.621Z" transform="translate(-96.956 -118.162)" fill="#263238"/><path d="M247.42,297.521c0,.268,18.211-1.016,40.62-2.895s40.543-3.6,40.524-3.834-18.192,1.016-40.62,2.875S247.4,297.253,247.42,297.521Z" transform="translate(-96.635 -113.669)" fill="#263238"/><path d="M299.81,277.75l-42.019,3.489,2.2,1.879-2.875,2.511,3.431,1.572-3.067,2.722,44.032-3.68-2.741-2.319,1.361-2.492-2.358-1.208Z" transform="translate(-88.182 -125.604)" fill="#ebebeb"/></g></g><g transform="translate(236.802 565.522)"><path d="M729.252,342.833a31.438,31.438,0,0,0-30.671-26.4c-66.211-.882-234.785-2.4-243.833,4.773-11.272,8.952-17.252,13.534-16.275,27.738C439.3,361.984,453.5,587.2,453.5,587.2H769.048Z" transform="translate(-438.37 -315.669)" fill="#455a64"/><path d="M617.73,578.992a4.784,4.784,0,0,0,.1-.671,9.472,9.472,0,0,1,.153-1.917c.134-1.764.326-4.294.556-7.5s.5-7.265.652-11.9.46-9.93.46-15.776c0-2.933,0-6,.1-9.182s0-6.518-.115-9.949c0-6.882-.4-14.224-.729-21.949-.882-15.45-2.339-32.4-4.7-50.089s-5.578-34.5-8.856-49.553c-1.744-7.534-3.355-14.7-5.157-21.355-.882-3.316-1.668-6.537-2.55-9.585s-1.744-6-2.549-8.818c-1.572-5.636-3.278-10.639-4.658-15.086s-2.7-8.2-3.834-11.291-1.917-5.406-2.53-7.093l-.69-1.917c-.153-.4-.249-.613-.249-.613a3.034,3.034,0,0,0,.153.652l.594,1.917c.556,1.706,1.342,4.1,2.358,7.169s2.319,6.882,3.642,11.329,2.99,9.47,4.5,15.105c.805,2.818,1.629,5.751,2.492,8.837s1.629,6.307,2.492,9.585c1.764,6.633,3.335,13.821,5.061,21.335,3.24,15.105,6.307,31.821,8.76,49.5s3.834,34.5,4.773,49.993c.345,7.668.767,15.048.824,21.93,0,3.431.173,6.748.173,9.93v9.163c0,5.847-.211,11.137-.326,15.776s-.288,8.626-.46,11.885-.288,5.751-.364,7.534V578.3a3.6,3.6,0,0,0-.077.69Z" transform="translate(-566.598 -307.343)" fill="#263238"/><path d="M495.012,375.329a1.119,1.119,0,0,1-.479-.192,4.639,4.639,0,0,0-1.457,0,6.575,6.575,0,0,0-4.62,2.722,7.533,7.533,0,0,0-.46,7.859,10.062,10.062,0,0,0,3.067,3.7,9.583,9.583,0,0,0,4.888,1.706,7.936,7.936,0,0,0,5.041-1.323,6.287,6.287,0,0,0,2.607-4.1,8.568,8.568,0,0,0-2.415-7.553c-3.546-3.029-6.671-3.125-6.613-2.837s.172,0,.479,0a7.98,7.98,0,0,1,1.342.46,13.86,13.86,0,0,1,4.294,2.78,7.974,7.974,0,0,1,2.013,6.882,5.348,5.348,0,0,1-2.262,3.47,6.939,6.939,0,0,1-4.409,1.131,8.607,8.607,0,0,1-4.39-1.514,8.721,8.721,0,0,1-2.818-3.3,6.862,6.862,0,0,1,.211-7.054,6.537,6.537,0,0,1,4.083-2.741A15.332,15.332,0,0,1,495.012,375.329Z" transform="translate(-266.468 -261.194)" fill="#263238"/><path d="M494.88,360.571c0,.211,3.259-.383,8.473.1a38.836,38.836,0,0,1,31.821,22.371c2.243,4.735,2.78,7.974,2.99,7.936a9.042,9.042,0,0,0-.364-2.281,32.6,32.6,0,0,0-1.917-5.942,37.763,37.763,0,0,0-32.453-22.716,34.028,34.028,0,0,0-6.268.172A8.8,8.8,0,0,0,494.88,360.571Z" transform="translate(-315.812 -275.055)" fill="#263238"/><path d="M508.576,398.621a6.634,6.634,0,0,0-.748-1.629A24.479,24.479,0,0,0,505.049,393a29.579,29.579,0,0,0-29.1-9.93,26.168,26.168,0,0,0-4.639,1.476,6.943,6.943,0,0,0-1.591.824c0,.192,2.377-.9,6.364-1.61a30.824,30.824,0,0,1,28.447,9.7C507.234,396.454,508.4,398.716,508.576,398.621Z" transform="translate(-237.994 -254.505)" fill="#263238"/><path d="M494.07,405.659a12.23,12.23,0,0,0,3.24-2.339,36.17,36.17,0,0,0,6.268-7.38,35.345,35.345,0,0,0,4.083-8.76,11.5,11.5,0,0,0,.786-3.93A70.757,70.757,0,0,1,502.7,395.4a74.2,74.2,0,0,1-8.626,10.256Z" transform="translate(-284.542 -253.703)" fill="#263238"/><path d="M550.568,376.724a2.117,2.117,0,0,0-.479-.192,4.64,4.64,0,0,0-1.457,0,6.652,6.652,0,0,0-4.62,2.722,7.668,7.668,0,0,0-.479,7.859,10.121,10.121,0,0,0,3.086,3.7,9.585,9.585,0,0,0,4.888,1.706,7.936,7.936,0,0,0,5.042-1.323,6.365,6.365,0,0,0,2.607-4.1,8.569,8.569,0,0,0-2.4-7.687c-3.546-3.01-6.671-3.125-6.613-2.837s.173,0,.479.1a7.976,7.976,0,0,1,1.342.46,13.857,13.857,0,0,1,4.294,2.78,7.974,7.974,0,0,1,1.917,6.882,5.425,5.425,0,0,1-2.262,3.47,6.94,6.94,0,0,1-4.409,1.131,8.607,8.607,0,0,1-4.39-1.514,8.722,8.722,0,0,1-2.818-3.3,6.862,6.862,0,0,1,.211-7.054,6.536,6.536,0,0,1,4.083-2.741A15.327,15.327,0,0,1,550.568,376.724Z" transform="translate(-428.567 -259.924)" fill="#263238"/><path d="M550.44,362c0,.211,3.259-.383,8.473.1A38.837,38.837,0,0,1,590.7,384.387c2.243,4.735,2.78,7.974,2.99,7.936a9.053,9.053,0,0,0-.364-2.281A32.591,32.591,0,0,0,591.4,384.1a37.763,37.763,0,0,0-32.415-22.716,34.022,34.022,0,0,0-6.268.172,8.8,8.8,0,0,0-2.281.441Z" transform="translate(-477.838 -273.818)" fill="#263238"/><path d="M564.156,400.006a6.635,6.635,0,0,0-.748-1.629,25.785,25.785,0,0,0-2.779-3.987,29.674,29.674,0,0,0-29.1-9.93,27.005,27.005,0,0,0-4.658,1.476,5.752,5.752,0,0,0-1.572.844c0,.172,2.377-.92,6.364-1.629a30.786,30.786,0,0,1,28.428,9.7C562.814,397.84,563.984,400.1,564.156,400.006Z" transform="translate(-400.117 -253.225)" fill="#263238"/><path d="M549.65,407a12.229,12.229,0,0,0,3.24-2.339,36.786,36.786,0,0,0,6.268-7.38,35.352,35.352,0,0,0,4.083-8.76,11.508,11.508,0,0,0,.786-3.834,70.938,70.938,0,0,1-5.751,12.134A74.2,74.2,0,0,1,549.65,407Z" transform="translate(-446.665 -252.382)" fill="#263238"/></g><g transform="translate(225.807 418.955)"><path d="M445.37,343.146c84.92-83.9,190.657-103.936,190.657-103.936,62.875,37.5,105.3,100.428,137.6,175.955-54.172,50.128-123.833,98.185-183.45,102.594C495.9,493.931,445.37,343.146,445.37,343.146Z" transform="translate(-445.37 -239.21)" fill="#ee7a15"/><g transform="translate(0 1.61)" opacity="0.4"><path d="M445.37,343.146c84.92-83.9,190.657-103.936,190.657-103.936,62.875,37.5,105.3,100.428,137.6,175.955-54.172,50.128-123.833,98.185-183.45,102.594C495.9,493.931,445.37,343.146,445.37,343.146Z" transform="translate(-445.37 -239.21)"/></g><path d="M501.705,398.857a3.036,3.036,0,0,0,.211-.575l.537-1.725c.479-1.572,1.15-3.834,2.032-6.748l7.457-25.361-.364.211,41.655,13.419-.268-.249a1.236,1.236,0,0,0,.115.211c.115.153.4.23.5.153a.536.536,0,0,0,.268-.268,1.717,1.717,0,0,0,0-.307V349.592c0-5.022.211-10.121.5-15.335a137.482,137.482,0,0,1,1.649-15.891l-.594.383,38.089,8.837,23,5.348.5.115v-.5c3.412-17.9,6.671-34.907,9.585-50.588l-.575.364a341.515,341.515,0,0,0,60.5,10.562h.307v-.307c1.591-13.035,2.856-23.387,3.719-30.537.422-3.508.728-6.249.958-8.128.1-.9.153-1.591.211-2.109a6.721,6.721,0,0,0,0-.709,2.507,2.507,0,0,0-.134.69,19.113,19.113,0,0,1-.326,2.089c-.249,1.917-.633,4.62-1.112,8.128-.939,7.131-2.3,17.482-4.006,30.5l.345-.288A347.571,347.571,0,0,1,626.5,281.579l-.479-.134v.479c-3.01,15.68-6.288,32.684-9.719,50.568l.594-.383-23-5.367-37.879-8.779-.5-.115v.5a132.831,132.831,0,0,0-1.629,16.006c-.287,5.233-.4,10.371-.479,15.335s0,9.891,0,14.626v13.38h0c.1,0,.192,0,.249.1h0l.249-.153.211-.1-.479-.153-41.885-13.38-.288-.1v.307l-7.188,25.438-1.917,6.786-.46,1.744a2.148,2.148,0,0,0-.192.671Z" transform="translate(-471.437 -228.308)" fill="#40a0c0"/><path d="M485.882,410.54a2.235,2.235,0,0,0,.192-.441c.134-.345.307-.786.518-1.361l1.917-5.291c1.649-4.677,4.026-11.5,7.054-20.147l-.326.172,49.648,13.265.46.115v-.46c1.188-9.144,2.511-18.939,3.968-29.271s3.01-21.22,5-32.4l-.594.383,36.422,8.454,24.613,5.751.5.115v-.518c3.412-17.885,6.652-34.888,9.585-50.569l-.575.345a341.751,341.751,0,0,0,60.5,10.581h.307v-.288c1.591-13.035,2.856-23.406,3.719-30.537.4-3.527.728-6.249.939-8.147.1-.882.173-1.591.23-2.089a4.147,4.147,0,0,0,0-.728,4.635,4.635,0,0,0-.134.709,18.28,18.28,0,0,1-.307,2.089c-.249,1.917-.633,4.6-1.112,8.109-.939,7.15-2.3,17.482-4.006,30.5l.345-.268a347.583,347.583,0,0,1-60.172-10.831l-.479-.134v.479c-3.01,15.68-6.288,32.588-9.738,50.568l.594-.4-24.594-5.751-36.422-8.415-.5-.115v.5c-1.917,11.214-3.508,22.1-4.965,32.434s-2.722,20.147-3.834,29.291l.518-.345-49.725-12.978h-.23l-.1.23c-2.914,8.684-5.214,15.527-6.805,20.224-.748,2.319-1.342,4.1-1.764,5.348-.172.575-.326,1.016-.422,1.361Z" transform="translate(-439.377 -213.289)" fill="#fafafa"/><path d="M473.511,434.081V432.49c0-1.035-.211-2.626-.383-4.62-.364-4.1-.882-10.064-1.553-17.693l-.326.268,51.489,17.1.441.153v-.46c4.064-21.086,8.856-46.006,14.07-73.016l-.594.383,31.5,7.265,29.463,6.824.5.115.1-.5c3.412-17.9,6.652-34.907,9.585-50.568l-.556.345a342.348,342.348,0,0,0,60.5,10.581h.307v-.307c1.591-13.035,2.856-23.406,3.719-30.537.4-3.527.728-6.249.939-8.128.1-.9.172-1.591.23-2.089a4.16,4.16,0,0,0,0-.728,2.841,2.841,0,0,1-.134.709c-.134.46-.173,1.188-.307,2.089-.249,1.917-.633,4.6-1.112,8.109-.939,7.131-2.281,17.463-4.006,30.5l.345-.268a347.908,347.908,0,0,1-60.306-10.812l-.479-.134-.1.479c-3.01,15.661-6.288,32.588-9.738,50.549l.594-.383-29.463-6.843-31.457-7.227-.5-.115v.518c-5.137,27.009-9.891,51.949-13.9,73.035l.518-.307-51.584-16.811-.345-.115v.383q1.15,11.5,1.783,17.655c.211,1.917.383,3.527.5,4.62A8.857,8.857,0,0,0,473.511,434.081Z" transform="translate(-393.748 -195.5)" fill="#40a0c0"/><path d="M458.828,454.413l.115-.364.307-1.093c.249-1.016.613-2.434,1.093-4.236.92-3.834,2.262-9.24,3.968-16.141s3.661-15.335,5.942-24.92,4.754-20.492,7.054-32.415l-.537.364,60.939,14.185.518.134.1-.518c.307-1.668.652-3.47,1-5.272,3.029-15.815,5.942-31.054,8.664-45.3l-.594.364a339.729,339.729,0,0,0,60.5,10.581h.345v-.345c1.553-12.824,2.818-23.195,3.68-30.383.422-3.546.728-6.307.958-8.224.1-.9.172-1.61.211-2.147a3.468,3.468,0,0,0,0-.728,3.342,3.342,0,0,0-.153.728l-.307,2.109c-.268,1.917-.652,4.677-1.131,8.2-.958,7.188-2.319,17.54-4.006,30.364l.364-.307a347.33,347.33,0,0,1-60.307-10.811l-.479-.134-.115.5c-2.722,14.262-5.655,29.482-8.7,45.3-.345,1.8-.69,3.6-1,5.272l.594-.383-60.977-14.109-.441-.1-.1.46c-2.243,11.885-4.754,22.735-6.9,32.4s-4.121,18.077-5.751,25.054-2.856,12.383-3.719,16.179c-.422,1.917-.728,3.259-.958,4.294l-.23,1.093C458.828,454.279,458.809,454.413,458.828,454.413Z" transform="translate(-310.534 -176.171)" fill="#fafafa"/><path d="M494.48,397.816a16.167,16.167,0,0,0,.709-2.645l1.648-7.4c1.342-6.268,3.182-15.048,5.195-24.92l-.594.383,5.751,1.342c11.214,2.607,21.393,4.907,28.754,6.518l8.741,1.917a22.157,22.157,0,0,0,3.24.556,18.921,18.921,0,0,0-3.144-.939l-8.684-2.166c-7.323-1.8-17.482-4.217-28.754-6.824l-5.751-1.323-.5-.115v.5c-1.917,9.949-3.68,18.748-4.869,25.054-.537,3.048-1,5.54-1.342,7.457a17.427,17.427,0,0,0-.4,2.607Z" transform="translate(-313.81 -126.437)" fill="#40a0c0"/><path d="M464.6,380.376a16.768,16.768,0,0,0,.709-2.7c.422-1.917.959-4.447,1.591-7.457,1.3-6.288,3.029-15.01,4.888-24.652.1-.594.211-1.169.326-1.725l-.633.383c9.125,2.473,17.406,4.236,23.406,5.31,2.99.556,5.425.939,7.112,1.169a13.23,13.23,0,0,0,2.626.268,15.066,15.066,0,0,0-2.569-.633l-7.035-1.476c-5.962-1.265-14.185-3.125-23.271-5.6l-.518-.134-.1.518-.345,1.725c-1.917,9.585-3.45,18.383-4.581,24.709-.518,3.029-.939,5.559-1.284,7.514A14.819,14.819,0,0,0,464.6,380.376Z" transform="translate(-213.234 -143.923)" fill="#40a0c0"/><path d="M447.693,339.563a37.653,37.653,0,0,0,1.534-12.153,19.322,19.322,0,0,0-1.265,6.019A18.728,18.728,0,0,0,447.693,339.563Z" transform="translate(-125.189 -158.337)" fill="#40a0c0"/><path d="M515.748,380.982a1.594,1.594,0,0,0,.115-.479,10.713,10.713,0,0,1,.288-1.4c.23-1.284.556-3.105,1-5.463.863-4.831,2.089-11.847,3.661-20.7l-.326.23,28.965,4.639h.383v-.364c2.914-17.425,6.4-38.339,10.255-61.342l-.575.383,39.527,9.2,20.147,4.658.479.115.115-.479c4.275-17.406,8.262-33.891,11.252-49.092l-.5.364,58.83,9.029h.288v-.307c1.131-9.431,2.032-16.888,2.665-22.045.268-2.53.5-4.486.652-5.866a12.068,12.068,0,0,1,.153-1.5,1.516,1.516,0,0,0,0-.518v.5l-.23,1.5-.805,5.847c-.69,5.157-1.687,12.594-2.933,22.006l.326-.249-58.773-9.355h-.422l-.1.422c-3.029,15.163-7.035,31.648-11.329,49.035l.594-.364-20.147-4.677-39.527-9.163-.5-.115v.5c-3.834,23-7.188,44.089-10.045,61.342l.422-.307-28.984-4.447h-.288v.268c-1.457,8.875-2.607,15.91-3.393,20.741-.383,2.377-.671,4.2-.863,5.5-.1.594-.153,1.054-.211,1.419a1.8,1.8,0,0,0-.172.537Z" transform="translate(-499.8 -238.44)" fill="#fafafa"/><path d="M542.49,292.68a2.357,2.357,0,0,0,.537.211l1.591.479c1.38.46,3.47.92,6.077,1.917a125.391,125.391,0,0,1,21.316,9.585,149.041,149.041,0,0,1,27.949,20.338,192.734,192.734,0,0,1,27.776,31.955,285.606,285.606,0,0,1,21.259,36.728c5.751,11.712,10.39,22.543,14.147,31.687s6.671,16.6,8.7,21.738c1.016,2.511,1.8,4.5,2.377,5.923.249.613.46,1.131.633,1.514a2.931,2.931,0,0,0,.249.518,2.553,2.553,0,0,0-.153-.556c-.134-.4-.326-.92-.556-1.553q-.767-2.147-2.185-5.981c-1.917-5.195-4.754-12.671-8.415-21.872s-8.243-20.051-13.974-31.84a281.666,281.666,0,0,0-21.278-36.92,189.439,189.439,0,0,0-27.968-32.07,146.048,146.048,0,0,0-28.217-20.262,116.581,116.581,0,0,0-21.546-9.24c-2.626-.9-4.754-1.3-6.153-1.706l-1.61-.383A3.485,3.485,0,0,0,542.49,292.68Z" transform="translate(-533.02 -190.182)" fill="#263238"/></g><g transform="translate(305.781 226.483)"><path d="M276.248,447.21c.633.134,3.335,2.875-.518,7.227s-27.086,16.256-31.361,9.144,6.038-12.057,6.038-12.057Z" transform="translate(357.814 143.983)" fill="#ffbe9d"/><path d="M320.971,477.341s-23.962-2.645-33.738-1.4c-10.6,1.361-21.853-3.987-28.524-11.31a38.337,38.337,0,0,1-8.415-16.946l-15.335-10.658s-1.648-36.249,22.524-30.4l28.236,1s55.591,9.2,64.179,16.121c0,0,10.466,10.179,13.514,14.109,1.15,1.5,2.128,16.428-8.492,21.527,0,0,6.268,7.994.748,12.518l-2.588,1.917s3.585,7.994.211,10.275-30.038,10.371-37.61,5.1,1.208-11.348,5.214-11.885" transform="translate(287.576 106.184)" fill="#ffbe9d"/><path d="M275.963,433.1a24.135,24.135,0,0,0-3.125.345c-2.013.249-4.927.613-8.549.882-1.8.115-3.834.23-5.9.268s-4.39,0-6.824.173a14.032,14.032,0,0,0-7.342,2.319,8.128,8.128,0,0,0-3.585,7.38,6.269,6.269,0,0,0,2.147,3.834,10.775,10.775,0,0,0,3.623,2.013,32.718,32.718,0,0,0,7.5,1.4,67.591,67.591,0,0,0,12.824-.249c3.623-.383,6.518-.863,8.511-1.208a17.257,17.257,0,0,0,3.105-.652,21.933,21.933,0,0,0-3.144.268c-2.032.23-4.946.594-8.55.882a72.714,72.714,0,0,1-12.652,0,32.836,32.836,0,0,1-7.265-1.4,10.293,10.293,0,0,1-3.3-1.821,5.367,5.367,0,0,1-1.8-3.2,7.188,7.188,0,0,1,3.163-6.46,13.572,13.572,0,0,1,6.843-2.2c2.339-.211,4.639-.134,6.767-.249s4.141-.211,5.962-.4c3.623-.345,6.518-.805,8.53-1.188a15.337,15.337,0,0,0,3.067-.728Z" transform="translate(362.45 131.045)" fill="#eb996e"/><path d="M275.353,424.07a20.2,20.2,0,0,0-3.125.345c-1.917.268-4.907.652-8.492.958s-7.879.556-12.652.556a16.946,16.946,0,0,0-7.572,1.131,6.039,6.039,0,0,0-2.875,3.086,7.8,7.8,0,0,0-.4,4.294,10.314,10.314,0,0,0,4.85,6.652,16.639,16.639,0,0,0,7.284,2.358,72.306,72.306,0,0,0,12.748-.594l8.511-.863a18.162,18.162,0,0,0,3.125-.46,20.615,20.615,0,0,0-3.144,0l-8.55.556a79.572,79.572,0,0,1-12.594.364,15.833,15.833,0,0,1-6.863-2.281,9.3,9.3,0,0,1-4.371-5.981,5.751,5.751,0,0,1,2.741-6.345,16.065,16.065,0,0,1,7.112-1.073,113.416,113.416,0,0,0,12.709-.767c3.6-.4,6.5-.9,8.492-1.284a17.808,17.808,0,0,0,3.067-.652Z" transform="translate(365.015 122.765)" fill="#eb996e"/><path d="M244.965,429.377a31.4,31.4,0,0,0,2.166-4.428,27.316,27.316,0,0,0,2.3-4.351c-.192-.192-1.917,1.38-3.182,3.834a8.262,8.262,0,0,0-1.284,4.946Z" transform="translate(383.039 119.567)" fill="#eb996e"/><path d="M238.766,414.029l22.658-3.01s64.025-13.054,64.658-11.367,3.834,2.281,1.419,9.144-39.316,12.939-40.965,15.125-2.837,14.895-17.252,20.741-23.5,3.834-23.5,3.834" transform="translate(315.935 100.238)" fill="#ffbe9d"/><path d="M245.388,448.742l.479.134,1.476.211a34.5,34.5,0,0,0,5.751,0,50.067,50.067,0,0,0,8.875-1.572,48.9,48.9,0,0,0,11.137-4.332,25.878,25.878,0,0,0,9.987-10.428,58.455,58.455,0,0,0,3.067-7.457,6.925,6.925,0,0,1,.422-.843,2.033,2.033,0,0,1,.671-.422,19.52,19.52,0,0,1,1.917-.671c1.342-.422,2.722-.786,4.141-1.15,5.636-1.476,11.6-2.895,17.693-4.677,3.048-.9,6.134-1.917,9.2-3.125a30.669,30.669,0,0,0,4.5-2.224,10.888,10.888,0,0,0,2.07-1.629,4.619,4.619,0,0,0,.786-1.169c.211-.441.268-.843.422-1.246a9.317,9.317,0,0,0,.307-5.233,6.153,6.153,0,0,0-1.38-2.262,4.294,4.294,0,0,1-.633-.882l-.153-.249a.671.671,0,0,0-.364-.23,2.154,2.154,0,0,0-.422,0h-.671c-3.335.211-6.5.767-9.585,1.265-6.268,1.035-12.288,2.147-18.019,3.24-11.5,2.166-21.738,4.236-30.383,6.019-2.147.422-4.217.92-6.153,1.246l-5.559.767-8.875,1.265-5.617.843-1.457.249-.5.115a1.513,1.513,0,0,0,.518,0l1.457-.134,5.655-.671,8.914-1.093,5.578-.709c1.917-.307,4.006-.767,6.172-1.169l30.422-5.751c5.751-1.054,11.751-2.166,18-3.182,3.125-.479,6.345-1.035,9.585-1.246h.767a.328.328,0,0,1,.1-.23h0c-.748.268-.192,0-.364.172h0a3.93,3.93,0,0,0,.786,1.131,5.31,5.31,0,0,1,1.188,1.917,8.434,8.434,0,0,1-.326,4.639,4.313,4.313,0,0,1-1,2.032,10.082,10.082,0,0,1-1.917,1.457,31.624,31.624,0,0,1-4.351,2.147c-3.01,1.227-6.057,2.2-9.105,3.105-6.057,1.8-12,3.22-17.636,4.716-1.419.383-2.818.767-4.179,1.188a16.082,16.082,0,0,0-2.032.728,2.4,2.4,0,0,0-1.035.728,4.621,4.621,0,0,0-.517,1.016,57.848,57.848,0,0,1-3.01,7.4,25.036,25.036,0,0,1-9.585,10.2,49.041,49.041,0,0,1-10.927,4.409,50.4,50.4,0,0,1-8.76,1.706,38.732,38.732,0,0,1-5.636.192H245.81Z" transform="translate(316.252 100.03)" fill="#eb996e"/><path d="M257.027,442.642a7.379,7.379,0,0,0-2.358.115,22.638,22.638,0,0,0-6.172,1.821,20.319,20.319,0,0,0-3.834,2.3,6.824,6.824,0,0,0-2.837,4.447,5.5,5.5,0,0,0,2.837,5.061,10.639,10.639,0,0,0,6.1,1.265,114.31,114.31,0,0,0,20.914-3.086,53.941,53.941,0,0,0,6.134-1.917,10.851,10.851,0,0,0,2.166-.939,10.989,10.989,0,0,0-2.281.556c-1.457.422-3.546,1-6.173,1.572a135.674,135.674,0,0,1-20.8,2.78,9.815,9.815,0,0,1-5.54-1.093,4.581,4.581,0,0,1-2.435-4.16,6,6,0,0,1,2.435-3.834,19.167,19.167,0,0,1,3.661-2.3A33.467,33.467,0,0,1,257.027,442.642Z" transform="translate(358.498 139.752)" fill="#eb996e"/><path d="M734.378,478.109s-28.39-46.735-34.773-77.578-39.354-79.782-50.07-92.549S596.34,280.34,596.34,280.34l-15.68-8.473L459.146,261.19S378.309,269.7,353.83,292.033s-43.591,73.4-43.591,98.913S285.53,637.54,285.53,637.54l299.443-.383-6.709-109S614.436,503.7,624,482.422s4.256-10.639,4.256-10.639,33.949,72.172,45.642,80.683S821.6,602.71,821.6,602.71l18.613-71.367Z" transform="translate(-285.53 -26.584)" fill="#40a0c0"/><path d="M505.563,282.8c3.278,1.016,43.84,105.776,46.7,115.3s0,69.565,0,69.565l-13.418,24.786s3.834,18.1.958,26.684l60.038,11.5s15.24-10.486,29.54,0l70.926,6s-20.8.23-14.607,32.128c6.057,31.246,10.677,38.108,10.677,38.108l-248.913-5.751s-27.661-1.38-23.444-54.556S440.1,346.715,440.1,346.715,458.234,268.121,505.563,282.8Z" transform="translate(-410.254 -8.441)" fill="#40a0c0"/><path d="M492.681,439.276a5.52,5.52,0,0,0,.594-1.284l1.514-3.834c.652-1.629,1.438-3.642,2.2-6.038s1.783-5.061,2.588-8.109,1.917-6.364,2.665-9.987,1.648-7.5,2.415-11.5a211.841,211.841,0,0,0,2.933-27.009,217.359,217.359,0,0,0-.824-27.163c-.5-4.141-.9-8.09-1.572-11.751-.307-1.917-.556-3.6-.9-5.31s-.69-3.3-1.016-4.85c-.613-3.086-1.4-5.751-2.032-8.281s-1.227-4.486-1.783-6.173-.939-2.875-1.246-3.834a13.924,13.924,0,0,0-.5-1.342,5.749,5.749,0,0,0,.307,1.4c.268.978.633,2.281,1.074,3.834s1.073,3.834,1.61,6.211,1.323,5.176,1.917,8.281c.307,1.553.613,3.163.939,4.85s.556,3.45.843,5.272c.633,3.661,1.016,7.668,1.476,11.732a203.658,203.658,0,0,1-2.089,53.9c-.748,4.1-1.438,7.994-2.319,11.5s-1.706,6.939-2.53,9.987-1.725,5.751-2.454,8.128-1.438,4.428-2.032,6.077l-1.342,3.834a11.5,11.5,0,0,0-.441,1.457Z" transform="translate(-350.119 11.579)" fill="#263238"/><path d="M505.95,458.495a7.482,7.482,0,0,0,.652-.728l1.649-2.2c.709-.978,1.591-2.147,2.665-3.45s2.243-2.856,3.68-4.447,2.952-3.374,4.716-5.157,3.68-3.681,5.751-5.617a142.217,142.217,0,0,1,14.339-11.5,143.752,143.752,0,0,1,15.8-9.355c2.55-1.227,4.946-2.435,7.284-3.374s4.486-1.917,6.479-2.588,3.834-1.323,5.463-1.917,3.01-.958,4.16-1.265l2.645-.786a3.47,3.47,0,0,0,.92-.345,4.256,4.256,0,0,0-.958.153l-2.7.594c-1.169.268-2.588.613-4.236,1.112s-3.508,1-5.521,1.764-4.255,1.476-6.575,2.473-4.792,2.109-7.361,3.316a132.616,132.616,0,0,0-15.968,9.355,136.632,136.632,0,0,0-14.377,11.617c-2.051,1.917-4.006,3.834-5.751,5.751s-3.278,3.623-4.658,5.272-2.53,3.22-3.585,4.562a39.571,39.571,0,0,0-2.53,3.565c-.613,1-1.112,1.687-1.514,2.319A3.943,3.943,0,0,0,505.95,458.495Z" transform="translate(-449.995 105.976)" fill="#263238"/><path d="M528.7,436.051c.153.134,2.358-2.377,6.5-5.751a65.862,65.862,0,0,1,7.668-5.367,73.016,73.016,0,0,1,10.332-5,72.181,72.181,0,0,1,11.042-3.105,66.533,66.533,0,0,1,9.316-1.093c5.348-.211,8.665.192,8.684,0a10.313,10.313,0,0,0-2.32-.383,23.694,23.694,0,0,0-2.741-.249,32.869,32.869,0,0,0-3.642,0,61.031,61.031,0,0,0-9.47.9,66.38,66.38,0,0,0-11.214,3.086,65.672,65.672,0,0,0-10.467,5.137,60.53,60.53,0,0,0-7.668,5.6,35.261,35.261,0,0,0-2.665,2.492,21.57,21.57,0,0,0-1.917,1.917,10.727,10.727,0,0,0-1.438,1.821Z" transform="translate(-493.697 114.484)" fill="#263238"/><path d="M511.85,413.4c.115.173,3.048-2.166,8.415-4.812a43.564,43.564,0,0,1,4.486-1.917c1.61-.69,3.412-1.208,5.291-1.8a60.689,60.689,0,0,1,25.438-1.744c1.917.326,3.834.594,5.482,1.054a45.453,45.453,0,0,1,4.716,1.342c5.751,1.917,8.895,3.834,8.99,3.6a12.514,12.514,0,0,0-2.243-1.361,22.566,22.566,0,0,0-2.741-1.38,39.33,39.33,0,0,0-3.834-1.534,40.838,40.838,0,0,0-4.735-1.457,53.29,53.29,0,0,0-5.559-1.188,58.428,58.428,0,0,0-25.821,1.783,46.814,46.814,0,0,0-5.348,1.917,39.736,39.736,0,0,0-4.5,2.089,37.6,37.6,0,0,0-3.527,2.051,20.357,20.357,0,0,0-2.53,1.725,11.1,11.1,0,0,0-1.975,1.629Z" transform="translate(-453.824 102.077)" fill="#263238"/><path d="M461.977,481.507a89.607,89.607,0,0,1-1.764-10.658,68.853,68.853,0,0,1,.1-11.712,93.465,93.465,0,0,1,2.492-14.128,99.068,99.068,0,0,1,4.773-13.419,74.106,74.106,0,0,1,5.751-10.236,97.772,97.772,0,0,1,6.767-8.454,18.344,18.344,0,0,0-2.2,1.917,24.47,24.47,0,0,0-2.339,2.53l-1.38,1.629c-.479.613-.92,1.265-1.419,1.917a66.41,66.41,0,0,0-5.942,10.256,82.889,82.889,0,0,0-7.361,27.949,64.828,64.828,0,0,0,.115,11.846c.1.843.192,1.629.268,2.4l.422,2.109a21.92,21.92,0,0,0,.805,3.335,18.266,18.266,0,0,0,.92,2.722Z" transform="translate(-258.38 112.523)" fill="#263238"/><path d="M438.48,515.476a1.919,1.919,0,0,0,.115-.556,12.284,12.284,0,0,1,.268-1.629c.211-1.514.518-3.623.9-6.307.786-5.482,1.8-13.418,2.99-23.271,2.358-19.648,5.176-46.869,7.38-77s3.355-57.508,3.834-77.271c.268-9.891.4-17.9.441-23.444v-8.032a.288.288,0,1,0-.115,0v1.668c0,1.514-.115,3.642-.211,6.364-.172,5.6-.422,13.591-.728,23.425-.709,19.783-1.917,47.1-4.16,77.233s-4.907,57.316-7.093,76.984c-1.112,9.776-2.032,17.712-2.665,23.291-.307,2.7-.537,4.811-.709,6.345a14.616,14.616,0,0,1-.173,1.649,3.053,3.053,0,0,0-.077.556Z" transform="translate(-193.152 6.612)" fill="#263238"/><path d="M377.47,406.833a21.88,21.88,0,0,0,1.3-2.933c.767-1.917,1.917-4.658,3.355-8.051,2.875-6.767,7.169-15.987,12.307-25.994s9.776-18.882,13.246-25.553c1.668-3.3,3.01-5.962,3.834-7.821a20.943,20.943,0,0,0,1.284-2.952,17.773,17.773,0,0,0-1.629,2.76l-4.16,7.668c-3.489,6.479-8.4,15.335-13.534,25.438s-9.335,19.3-12.057,26.166c-1.361,3.431-2.415,6.23-3.067,8.185A20.344,20.344,0,0,0,377.47,406.833Z" transform="translate(-34.359 39.747)" fill="#263238"/><path d="M367.15,362.725a5.868,5.868,0,0,0,1.744-.326c1.093-.268,2.664-.728,4.6-1.361a113.539,113.539,0,0,0,28.332-14.032c1.668-1.15,2.99-2.128,3.834-2.837a6.824,6.824,0,0,0,1.3-1.169,62.545,62.545,0,0,0-5.578,3.412,150.3,150.3,0,0,1-13.725,7.668c-5.521,2.7-10.658,4.831-14.434,6.249a64.88,64.88,0,0,0-6.077,2.4Z" transform="translate(-8.742 48.43)" fill="#263238"/><path d="M345.04,397.587a10.33,10.33,0,0,0,2.07-1.246c1.265-.863,3.144-2.089,5.5-3.508a113.368,113.368,0,0,1,40.083-15.009c2.722-.479,4.927-.786,6.46-.978a10.539,10.539,0,0,0,2.377-.4,10.619,10.619,0,0,0-2.415,0,53.217,53.217,0,0,0-6.537.652,100.738,100.738,0,0,0-21.086,5.367,101.924,101.924,0,0,0-19.361,9.738c-2.319,1.534-4.141,2.837-5.348,3.834a13.134,13.134,0,0,0-1.744,1.553Z" transform="translate(39.074 79.032)" fill="#263238"/><path d="M438.64,261.28a15.451,15.451,0,0,0,.115,1.553c.134,1.112.307,2.588.518,4.447.5,3.834,1.188,9.431,2.358,16.294A206.46,206.46,0,0,0,447,307.42a111.188,111.188,0,0,0,12.019,27.374A83.928,83.928,0,0,0,469,347.6l.383.422.364-.479a50.705,50.705,0,0,1,18.192-15.086,48.345,48.345,0,0,1,9.584-3.527,42.418,42.418,0,0,1,8.722-1.169,35.981,35.981,0,0,1,12.422,1.744c2.78.978,4.256,1.706,4.294,1.61a6.892,6.892,0,0,0-1.054-.556,25.977,25.977,0,0,0-3.125-1.38,34.81,34.81,0,0,0-12.556-2.051,42.343,42.343,0,0,0-8.895,1.074,48.858,48.858,0,0,0-9.776,3.489,51.086,51.086,0,0,0-18.594,15.335h.748a85.258,85.258,0,0,1-9.853-12.652,112.929,112.929,0,0,1-12.019-27.105,224.973,224.973,0,0,1-5.559-23.693c-1.265-6.824-2.051-12.4-2.665-16.236-.288-1.917-.537-3.316-.709-4.409a6.824,6.824,0,0,0-.268-1.649Z" transform="translate(-261.784 -26.501)" fill="#263238"/><path d="M429.36,273.619l18.46-24.479,20.07.633L533.1,284.22Z" transform="translate(-254.134 -37.633)" fill="#40a0c0"/><path d="M414.87,322.751a4.409,4.409,0,0,0,1.054,0,23.37,23.37,0,0,0,3.01-.5,37.361,37.361,0,0,0,10.294-4.409,22.58,22.58,0,0,1,7-2.895,20.607,20.607,0,0,1,8.664,0,20.262,20.262,0,0,1,14.473,12.594l1.035,2.8v-5.329c-.23-15.105-.249-28.754-.863-38.7-.288-4.946-.671-8.952-1.093-11.693-.173-1.38-.383-2.434-.537-3.144a6.6,6.6,0,0,0-.268-1.073c-.1,0,.173,1.514.422,4.275s.575,6.728.767,11.674c.441,9.891.326,23.559.575,38.684v2.358l.958-.192a21.086,21.086,0,0,0-15.22-13.131,21.508,21.508,0,0,0-16.179,3.2,40.5,40.5,0,0,1-10.045,4.639C416.327,322.56,414.851,322.655,414.87,322.751Z" transform="translate(-153.651 -18.139)" fill="#263238"/><path d="M394.39,223.841V370.869a35.655,35.655,0,0,0,8.377,23h0a108.212,108.212,0,0,0,29.521,24.441l29.636,16.7,24.537-21.968a35.712,35.712,0,0,0,11.866-25.208c.422-10.7.422-21.489.422-21.489s41.54-2.99,45.45-43.955c1.917-19.284,2.415-58.792,2.511-95.214a79.706,79.706,0,0,0-73.131-79.61l-1.169-.1a76.179,76.179,0,0,0-78.019,76.37Z" transform="translate(-200.704 -130.876)" fill="#ffbe9d"/><path d="M471.567,270.709s-26.089,0-52.217-19.629c0,0,10.2,30.556,51.431,30.249Z" transform="translate(-173.408 -35.854)" fill="#eb996e"/><path d="M413.322,206.144a5.885,5.885,0,0,1-6.134,5.444,5.617,5.617,0,0,1-5.6-5.751,5.866,5.866,0,0,1,6.115-5.444,5.617,5.617,0,0,1,5.617,5.751Z" transform="translate(-81.119 -82.336)" fill="#263238"/><path d="M422.91,201.078c-.786.69-4.946-2.952-11.252-3.45s-11.195,2.262-11.808,1.438c-.307-.383.537-1.687,2.684-2.99a16.045,16.045,0,0,1,9.585-2.089,15.335,15.335,0,0,1,8.875,3.7C422.757,199.334,423.294,200.752,422.91,201.078Z" transform="translate(-87.372 -88.273)" fill="#263238"/><path d="M444.621,204.814a5.885,5.885,0,0,1-6.134,5.444,5.636,5.636,0,0,1-5.617-5.751A5.885,5.885,0,0,1,439,199.063a5.636,5.636,0,0,1,5.617,5.751Z" transform="translate(-172.379 -83.555)" fill="#263238"/><path d="M455.273,199.024c-.786.69-4.965-2.952-11.252-3.45s-11.195,2.262-11.808,1.419c-.307-.364.537-1.687,2.684-2.971a16.179,16.179,0,0,1,9.585-2.109,15.45,15.45,0,0,1,8.875,3.7C455.119,197.261,455.694,198.7,455.273,199.024Z" transform="translate(-181.785 -90.168)" fill="#263238"/><path d="M413.788,246.235c0-.364,3.968-.728,10.39-1.016,1.61,0,3.163-.211,3.527-1.284a8.282,8.282,0,0,0-.671-4.869c-1.208-4.026-2.454-8.224-3.834-12.652-5.156-18-8.76-32.741-8.032-32.933s5.5,14.224,10.658,32.2c1.246,4.447,2.434,8.665,3.546,12.709a9.26,9.26,0,0,1,.307,6.383,4.026,4.026,0,0,1-2.837,2.147,10.83,10.83,0,0,1-2.76.153C417.737,246.81,413.769,246.5,413.788,246.235Z" transform="translate(-121.284 -88.67)" fill="#263238"/><path d="M423.752,222.431c1.035,0,.479,6.863,5.943,12.211s12.786,5.195,12.767,6.153c0,.422-1.744,1.188-4.831,1.016a17.042,17.042,0,0,1-10.677-4.754,14.8,14.8,0,0,1-4.543-10.2C422.391,223.984,423.292,222.355,423.752,222.431Z" transform="translate(-150.168 -62.125)" fill="#263238"/><path d="M459.271,185.59c-.767,1.668-7,.326-14.454.613s-13.629,1.8-14.473.173c-.383-.767.786-2.281,3.335-3.834a25.188,25.188,0,0,1,22.045-.594C458.351,183.347,459.6,184.8,459.271,185.59Z" transform="translate(-182.103 -101.309)" fill="#263238"/><path d="M421.536,191.587c-1.227,1.342-5.444-.5-10.658-1s-9.719.153-10.62-1.419c-.383-.767.422-2.147,2.473-3.335a14.875,14.875,0,0,1,8.875-1.629,14.646,14.646,0,0,1,8.262,3.585C421.593,189.459,422.053,190.993,421.536,191.587Z" transform="translate(-86.802 -97.281)" fill="#263238"/><path d="M503.4,178.759l-.23.153a32.453,32.453,0,0,0-13.8,19.879l-.173.824c-2.569,11.5-3.278,23.482-5.962,35.022s-2.185,20.358-13.744,23A15.335,15.335,0,0,1,453.4,251.1a9.852,9.852,0,0,1-1.016-5.482c.134-28.409-5.578-39.45-3.067-69.009a24.92,24.92,0,0,1,12-19.4c6.556-3.93,14.492-7.9,21.086-4.083s14.434,17.425,19.323,23.329" transform="translate(-261.46 -127.085)" fill="#263238"/><path d="M496.409,198.587c-.69-.345-27.489-10.658-28.926,17.463s27.105,23.732,27.182,23S496.409,198.587,496.409,198.587Z" transform="translate(-290.416 -85.936)" fill="#ffbe9d"/><path d="M484.589,223.629c-.115-.1-.5.326-1.342.652a4.869,4.869,0,0,1-3.661-.115c-2.914-1.227-5.176-6.077-5.061-11.156a16.121,16.121,0,0,1,1.725-6.939,5.636,5.636,0,0,1,3.834-3.565A2.473,2.473,0,0,1,482.9,204c.345.805.134,1.342.287,1.4s.613-.441.46-1.61a3.221,3.221,0,0,0-1.016-1.821,3.834,3.834,0,0,0-2.684-.843,6.9,6.9,0,0,0-5.329,4.1,16.544,16.544,0,0,0-2.089,7.668c-.115,5.751,2.511,11.118,6.518,12.5a5.233,5.233,0,0,0,4.524-.518C484.512,224.3,484.685,223.687,484.589,223.629Z" transform="translate(-288.392 -81.668)" fill="#eb996e"/><path d="M378.182,169.084c-5.981-11.789,14.262-26.339,28.466-29.559s31.878,5.042,45.259,10.754c8.454,3.6,16.773,8.339,25.955,8.7,6.153.268,12.192-1.476,18.153-3.048s12.134-2.99,18.23-2.051,12.134,4.7,13.974,10.581-2.109,13.418-8.262,13.725c8.109-3.623,18.882,2.895,19.4,11.77S530,206.6,521.51,204.011c4.236-2.7,9.949,2.8,9.029,7.668s-5.751,8.2-10.447,9.834c-12.134,4.16-25.629,1.4-37.4-3.68s-22.447-12.345-34.083-17.712-31.093-14.875-43.476-11.636c-9.125,2.4-16.179,12.575-21.086,9.8a17.252,17.252,0,0,1-7.821-13.418,49.266,49.266,0,0,1,1.917-15.91" transform="translate(-158.464 -138.803)" fill="#263238"/><path d="M523.538,173.92c-.23-.153-1.61,1.917-4.907,4.984a38.741,38.741,0,0,1-16.409,8.722,35.636,35.636,0,0,1-26.645-3.278c-9.182-5.061-16.639-14.3-25.361-23.118s-19.265-15.834-30.268-17.751-21.431,1.227-27.565,7.054a24.632,24.632,0,0,0-7.878,17.6,19.515,19.515,0,0,0,.786,5.272c.422,1.131.69,1.706.786,1.668a43.746,43.746,0,0,1-.479-6.9,24.211,24.211,0,0,1,8.09-16.179c5.751-5.176,15.6-7.955,25.8-6s20.262,8.511,28.754,17.252,16.236,18.115,26.07,23.406a38.338,38.338,0,0,0,45.067-6.92,27.454,27.454,0,0,0,3.278-4.121C523.328,174.533,523.615,173.977,523.538,173.92Z" transform="translate(-158.594 -135.031)" fill="#455a64"/><path d="M462.437,231.025c.1.1,1.284-.671,2.53-2.818a18.862,18.862,0,0,0,2.224-10.045c.134-9.086-7.054-19.438-7.035-31.994a28.293,28.293,0,0,1,4.486-16.486,21.623,21.623,0,0,1,11.176-8.147,18.287,18.287,0,0,1,9.47-.5c2.224.556,3.374,1.169,3.508.958s-.92-1.073-3.2-1.917a17.712,17.712,0,0,0-10.313-.364,22.793,22.793,0,0,0-12.729,8.569,29.847,29.847,0,0,0-5.176,17.981,51.224,51.224,0,0,0,3.949,18.115,53.5,53.5,0,0,1,3.834,13.974C466.041,226.616,462.054,230.852,462.437,231.025Z" transform="translate(-263.498 -120.176)" fill="#455a64"/><rect width="14.434" height="33.412" rx="2.14" transform="matrix(-0.733, 0.68, -0.68, -0.733, 212.936, 145.184)" fill="#263238"/><path d="M433.149,332.17a8.361,8.361,0,0,1-.115,1.131c-.115.748-.134,1.917-.249,3.3-.211,2.933-.5,7.246-.9,12.843-.767,11.272-1.917,27.738-3.278,48.613s-3.01,46.159-4.927,75.048q-.69,10.831-1.457,22.332c-.288,3.834-.441,7.668-.613,11.693a56.268,56.268,0,0,0,0,5.962,57.943,57.943,0,0,0,.326,6.038l.748,6.1c.441,2.013.882,4.045,1.3,6.077a58.782,58.782,0,0,0,1.917,6,31.263,31.263,0,0,0,2.645,5.751c4.026,7.457,10.294,14.434,19,17.252H695.269l-.173-.633c-1.821-6.479-3.623-12.882-5.406-19.265q-1.361-4.773-2.665-9.585a66.2,66.2,0,0,1-2.224-9.45,41.079,41.079,0,0,1,1.648-18.824,23,23,0,0,1,4.486-8.089,13.189,13.189,0,0,1,7.668-4.5l3.93-.613-3.834-.326-70.83-5.942h.211a24.191,24.191,0,0,0-15.335-4.7,30.671,30.671,0,0,0-14.78,4.716h.326l-60.057-11.31.268.46a25.17,25.17,0,0,0,1.035-7.073,57.7,57.7,0,0,0-.192-6.843,105.971,105.971,0,0,0-1.821-12.958v.23c4.811-8.99,9.22-17.252,13.3-24.8v-.115c.939-22.1,1.284-39.527,1.112-51.412,0-5.943-.287-10.5-.594-13.572a23.2,23.2,0,0,0-.518-3.45c-.172-.767-.268-1.15-.268-1.15a5.42,5.42,0,0,0,.192,1.169,25.463,25.463,0,0,1,.441,3.45c.268,3.067.441,7.668.46,13.553,0,11.885-.345,29.31-1.361,51.393v-.115c-4.083,7.572-8.53,15.776-13.418,24.747h0v.115a108.351,108.351,0,0,1,1.821,12.958,56.981,56.981,0,0,1,.173,6.786,24.688,24.688,0,0,1-1.016,6.862l-.115.383h.383l60.038,11.5h.153l.153-.1a29.616,29.616,0,0,1,14.339-4.524,23.156,23.156,0,0,1,14.7,4.543h.23l70.811,6.019V488.9a14.051,14.051,0,0,0-8.281,4.792,24.172,24.172,0,0,0-4.677,8.435,41.962,41.962,0,0,0-1.706,19.265,65.639,65.639,0,0,0,2.243,9.585q1.323,4.754,2.665,9.585,2.684,9.585,5.387,19.169l.479-.633H635.231L447.7,559.23h0a28.753,28.753,0,0,1-10.869-6.709,40.488,40.488,0,0,1-7.572-10.141c-1.016-1.917-1.744-3.834-2.607-5.751a50.741,50.741,0,0,1-1.917-5.923c-.614-1.974-.863-4.006-1.3-6s-.5-4.045-.748-6.038a57.187,57.187,0,0,1-.345-5.981,55.611,55.611,0,0,1,0-5.923c.173-3.93.307-7.8.594-11.636q.709-11.5,1.419-22.351c1.917-28.888,3.431-54.191,4.754-75.086s2.32-37.342,3.029-48.613c.326-5.6.594-9.93.767-12.863,0-1.438.134-2.53.172-3.3S433.149,332.17,433.149,332.17Z" transform="translate(-408.555 38.5)" fill="#263238"/><path d="M504.44,277.68a36.69,36.69,0,0,0,3.412,2.128,79.815,79.815,0,0,1,8.875,6.364,104.122,104.122,0,0,1,23,27.489,227.072,227.072,0,0,1,15.335,32.588l3.987,10.2,1.112,2.78a4.045,4.045,0,0,0,.441.939,3.834,3.834,0,0,0-.249-1.016c-.249-.748-.575-1.687-.939-2.837-.843-2.454-2.07-5.981-3.7-10.332A205.448,205.448,0,0,0,540.593,313.1a99.835,99.835,0,0,0-23.386-27.527,67.98,67.98,0,0,0-9.125-6.134c-1.112-.671-2.051-1.073-2.645-1.38a4.778,4.778,0,0,0-1-.383Z" transform="translate(-425.558 -11.464)" fill="#263238"/><g transform="translate(128.683 339.27)" opacity="0.3"><path d="M499.959,315.943a127.247,127.247,0,0,1,10.735,57.335c-.728,19.476-3.067,39.009-1.15,58.428s8.645,39.22,23.118,52.275a18.806,18.806,0,0,1,4.677,5.195,5.272,5.272,0,0,1-.9,6.422,7.667,7.667,0,0,1-6.019.633c-13.859-2.415-27.891-4.141-41.77-6.537-2.971-.518-12.958-2.473-12.958-2.473a54.2,54.2,0,0,0,.844-11.5c-.441-3.47-1.8-15.336-1.8-15.336a20.4,20.4,0,0,1,2.665-4.946,113.387,113.387,0,0,0,11.5-29.5c4.735-9.68,6.863-19.418,9.067-28.466,6.077-25.131,5.9-49.84,2.032-81.68" transform="translate(-474.732 -315.79)"/></g><g transform="translate(262.427 296.968)" opacity="0.3"><path d="M458.627,307.558c-1.131,2.875-2.281,5.751-3.412,8.645a3.489,3.489,0,0,1-1.648,2.166c-1.706.652-3.067-1.438-3.834-3.086a22.14,22.14,0,0,0-17-11.943c-5.751-.671-11.808,1.016-17.54-.172a77.711,77.711,0,0,1,15.834-7.878,26.262,26.262,0,0,1,17.387-.173A16.045,16.045,0,0,1,458.9,308.21" transform="translate(-415.19 -293.722)"/></g><g transform="translate(179.328 260.696)" opacity="0.3"><path d="M518.63,317.643a93.394,93.394,0,0,0-20.3,1.917,31.668,31.668,0,0,0-17.386,10.006c-4.639,5.655-6.364,13.074-8.243,20.128-.364,1.361-1.016,2.971-2.4,3.125a3.412,3.412,0,0,1-2.3-.9c-11.5-8.434-19.054-21.335-23.195-34.946s-5.1-27.949-5.329-42.172c5.482,9.8,7.859,20.952,11.5,31.572s8.952,21.316,18.345,27.45a9.163,9.163,0,0,1,2.147-6.728,20.09,20.09,0,0,1,5.578-4.562,53.291,53.291,0,0,1,42.671-5.233" transform="translate(-439.48 -274.8)"/></g><path d="M362.886,423.257h23.482S439.333,404.087,450.221,406c9.815,1.649,45.719,25.5,52.754,30.23a4.427,4.427,0,0,1,1.706,2.166h0a7.668,7.668,0,0,1-4.294,9.776l-.728.307.307,1.073a12.708,12.708,0,0,1,.556,4.294,5.176,5.176,0,0,1-9.585,2.224l1.342,2.415a5.751,5.751,0,0,1,.748,3.22l-.115,2.166a5.9,5.9,0,0,1-4.064,5.291h0a5.885,5.885,0,0,1-6.134-1.706c-4.562-5-14.4-15.029-21.086-16.141a155.523,155.523,0,0,0-21.738-1.093,7.38,7.38,0,0,0-6.843,4.7h0c3.949.288,31.476,14.645,41.214,19.783a10.37,10.37,0,0,1,5.655,7.84c.364,3.048-1.169,6.23-7.208,4.831-12.939-3.029-36.23-13.725-36.23-13.725s-12-3.431-19.783,2.051c-10.946,7.668-15.968,10.562-25.361,7.438A79.635,79.635,0,0,1,375,475.474l-18.518-1.917S338.944,429.966,362.886,423.257Z" transform="translate(-74.619 106.077)" fill="#ffbe9d"/><path d="M357.41,420.69c0,.211,3.834-.978,9.949-1.38a51.336,51.336,0,0,1,42.8,18.268,99.046,99.046,0,0,1,5.885,8.147,11.7,11.7,0,0,0-1.169-2.454,44.515,44.515,0,0,0-4.16-6.134A49.725,49.725,0,0,0,367.3,418.62a46.008,46.008,0,0,0-7.3,1.227,12.463,12.463,0,0,0-2.588.843Z" transform="translate(0.844 117.577)" fill="#eb996e"/><path d="M353.16,414.164a40.256,40.256,0,0,1,34.5,5.022,96.534,96.534,0,0,1,19.361,16.428l5.329,5.6a13.668,13.668,0,0,0,2.032,1.917,18.464,18.464,0,0,0-1.744-2.262c-1.169-1.419-2.895-3.431-5.1-5.866a89.213,89.213,0,0,0-19.419-16.811,44.089,44.089,0,0,0-24.632-6.671,29.6,29.6,0,0,0-7.668,1.419,17.259,17.259,0,0,0-1.917.748Z" transform="translate(10.653 111.24)" fill="#eb996e"/></g><g transform="translate(284.055 218.825)"><path d="M582.054,135.11a78.364,78.364,0,0,1,64.294,123.2l9.412,29.233-28.754-9.8A78.383,78.383,0,1,1,582.112,135.11Z" transform="translate(-502.303 -134.532)" fill="#fff"/><path d="M526.784,179.01a6.767,6.767,0,1,0,6.556-6.958,6.767,6.767,0,0,0-6.556,6.958Z" transform="translate(-426.369 -100.662)" fill="#263238"/><path d="M540.944,179.44a6.767,6.767,0,1,0,6.556-6.958,6.767,6.767,0,0,0-6.556,6.958Z" transform="translate(-467.673 -100.268)" fill="#263238"/><path d="M556.242,176.475a6.748,6.748,0,1,0,4-3.276A6.767,6.767,0,0,0,556.242,176.475Z" transform="translate(-509.941 -99.872)" fill="#263238"/><path d="M580.366,134.85a5.617,5.617,0,0,0-1.361,0l-4.026.23a14.654,14.654,0,0,0-2.952.211l-3.527.613-4.121.709L559.8,137.9a75.2,75.2,0,0,0-22.083,10.447,79,79,0,0,0-34.5,60.479,81.865,81.865,0,0,0,0,10.831c.192,1.821.211,3.681.537,5.521s.671,3.681,1,5.559a79.765,79.765,0,0,0,8.3,21.815,85.245,85.245,0,0,0,14.99,19.361,83.252,83.252,0,0,0,21.182,14.281,75.638,75.638,0,0,0,25.495,7,49.835,49.835,0,0,0,6.767.364,62.386,62.386,0,0,0,6.824,0,82.427,82.427,0,0,0,13.591-2.128,80.052,80.052,0,0,0,26.837-12.268l-.824.115,28.006,10.275,1.668.613-.518-1.687-9.029-29.348-.115.728a79.209,79.209,0,0,0,13.744-34.236,71.63,71.63,0,0,0,.556-17.367,55.878,55.878,0,0,0-1.035-8.281l-.748-4.045c-.288-1.323-.728-2.588-1.093-3.834A79.17,79.17,0,0,0,627.119,148a75.892,75.892,0,0,0-18.671-9.144L604.27,137.5l-3.968-.882-3.623-.767c-1.15-.192-2.262-.288-3.316-.4-2.109-.211-3.949-.518-5.559-.537h-6.556a3.2,3.2,0,0,0-.844,0,3.624,3.624,0,0,0,.844,0l2.473.134,4.083.134a53.856,53.856,0,0,1,5.5.671A78.69,78.69,0,0,1,658,192.319c.326,1.265.767,2.53,1.035,3.834s.479,2.645.728,3.968a56.642,56.642,0,0,1,.978,8.147,71.618,71.618,0,0,1-.613,17A78.076,78.076,0,0,1,646.557,258.8l-.249.326.134.4q4.332,14.243,8.952,29.367l1.15-1.093-28.006-10.294-.441-.172-.383.268a77.923,77.923,0,0,1-26.224,11.962,76.9,76.9,0,0,1-13.284,2.089,59.586,59.586,0,0,1-6.671.1,50.329,50.329,0,0,1-6.594-.364,73.762,73.762,0,0,1-24.92-6.805,81.762,81.762,0,0,1-20.76-13.936,83.132,83.132,0,0,1-14.7-18.92,77.654,77.654,0,0,1-8.089-21.335c-.345-1.917-.671-3.642-1.016-5.425s-.345-3.642-.537-5.425a82.471,82.471,0,0,1-.153-10.639,78.249,78.249,0,0,1,33.584-59.731,75.183,75.183,0,0,1,21.738-10.6l4.524-1.342,4.064-.805,3.489-.671c1.073-.153,2.07-.211,2.933-.307l3.987-.422A9.587,9.587,0,0,0,580.366,134.85Z" transform="translate(-503.03 -134.808)" fill="#263238"/></g><g transform="translate(623.799 649.58)"><path d="M519.191,547.935l63.6-159.661a20.875,20.875,0,0,0-19.323-28.754H365.339a20.874,20.874,0,0,0-19.762,14.162L290.943,534.708l-63.815.307c-5.176,0-9.374,7.668-9.374,12.786h0L287.991,547Z" transform="translate(-217.755 -359.52)" fill="#263238"/><path d="M264.413,378.759a22.16,22.16,0,0,1,12.805,3.431,16.673,16.673,0,0,1,3.489,2.895c3.393,3.834,9.45,11.233,7.035,22.811s-9.872,13.169-13.418,13.553-27.834-6.537-27.834-6.537-8.818-7.5-5.751-17.348C243.557,389.111,251.378,379.239,264.413,378.759Z" transform="translate(35.471 -341.897)" fill="#ee7a15"/><path d="M276.1,403.945s-.882,6.192-3.987,7.668-8.895,1.284-13.418.173-11.042-3.642-11.808-7.073a14.434,14.434,0,0,1,.383-8.07,20.223,20.223,0,0,1,16.332-1.514A21.584,21.584,0,0,1,276.1,403.945Z" transform="translate(35.396 -327.843)" fill="#f5f5f5"/><g transform="translate(291.424 37.72)" opacity="0.4"><path d="M245.152,388.02a11.655,11.655,0,1,0,14.147-8.473A11.655,11.655,0,0,0,245.152,388.02Z" transform="translate(-244.801 -379.197)" fill="#fff"/></g><g transform="translate(317.876 52.677)" opacity="0.4"><path d="M243.487,406.169a14.952,14.952,0,0,1-3.316-9.891A14.569,14.569,0,0,1,244.5,387a28.6,28.6,0,0,1,1.265,11.789,21.3,21.3,0,0,1-2.281,7.38Z" transform="translate(-240.163 -387)" fill="#fff"/></g><g transform="translate(275.574 43.533)" opacity="0.4"><path d="M260.6,399.137a14.818,14.818,0,0,0,7.572-7.15,13.169,13.169,0,0,0,.748-9.757,32.376,32.376,0,0,0-6.613,9.3C260.049,396.875,260.6,399.137,260.6,399.137Z" transform="translate(-260.545 -382.23)" fill="#fff"/></g><path d="M286.08,418.243a12.882,12.882,0,1,0,12.882-12.863A12.882,12.882,0,0,0,286.08,418.243Z" transform="translate(-76.234 -317.47)" fill="#f5f5f5"/></g><g transform="translate(76.9 836.557)"><path d="M80.29,457.558c0,.268,263.5.5,588.5.5s588.5-.23,588.5-.5-263.443-.5-588.5-.5S80.29,457.271,80.29,457.558Z" transform="translate(-80.29 -457.06)" fill="#263238"/></g><g transform="translate(178.578 643.77)"><path d="M241.661,480.564c18.748-10.869,28.754-36.153,29.521-56.856s-7.859-42.268-24.92-54.134c-17.866-12.5-43.323-12.268-61.687-.518s-29.137,33.968-28.294,55.763,12.709,42.594,30.268,55.591" transform="translate(-151.497 -353.067)" fill="#4da94a"/><path d="M185.055,481.565a24.1,24.1,0,0,0,.345-4.735c.1-3.393.23-7.668.364-12.9.288-10.907.709-25.955,1.438-42.556s1.629-31.648,2.319-42.517c.307-5.195.556-9.585.767-12.9a23,23,0,0,0,0-4.735,24.478,24.478,0,0,0-.748,4.677c-.364,3.029-.824,7.419-1.323,12.863-1,10.85-2.089,25.9-2.818,42.537s-.958,31.706-.92,42.613c0,5.444,0,9.872.192,12.92a25.359,25.359,0,0,0,.383,4.735Z" transform="translate(-124.814 -352.151)" fill="#fff"/><path d="M152.26,391.634c0,.479,3.029.633,6.671.326s6.575-.939,6.537-1.419-3.029-.633-6.671-.326S152.222,391.155,152.26,391.634Z" transform="translate(-38.115 -325.71)" fill="#263238"/><path d="M154.065,383.545c.211.441,2.78-.268,5.751-1.591s5.233-2.76,5.042-3.2-2.78.268-5.751,1.591S153.874,383.181,154.065,383.545Z" transform="translate(-40.955 -336.195)" fill="#263238"/><path d="M159.081,378.251c.249.4,3.144-.958,6.173-3.45s4.888-5.1,4.543-5.406-2.741,1.629-5.751,4.045S158.812,377.849,159.081,378.251Z" transform="translate(-55.516 -344.685)" fill="#263238"/><path d="M167.345,372.2c.441.192,1.917-1.917,3.105-4.85s1.917-5.367,1.5-5.559-1.917,1.917-3.105,4.85S166.9,372.013,167.345,372.2Z" transform="translate(-73.385 -351.634)" fill="#263238"/><path d="M175.69,367.839c.441.192,1.917-2.109,2.933-5.31s1.073-5.962.613-6.038-1.323,2.434-2.3,5.5S175.249,367.628,175.69,367.839Z" transform="translate(-96.816 -356.489)" fill="#263238"/><path d="M189.277,357.007c-.46.172-.173,2.147.633,4.409s1.917,3.987,2.281,3.834.173-2.147-.633-4.409S189.737,356.815,189.277,357.007Z" transform="translate(-135.553 -356.027)" fill="#263238"/><path d="M197.041,361.186c-.326.364.863,1.917,2.665,3.661s3.546,2.741,3.834,2.4-.863-2.013-2.665-3.681S197.367,360.879,197.041,361.186Z" transform="translate(-161.969 -352.232)" fill="#263238"/><path d="M205.1,366.737c-.268.4,1.188,1.917,3.259,3.278s3.987,2.2,4.256,1.8-1.189-1.917-3.259-3.259S205.421,366.334,205.1,366.737Z" transform="translate(-186.509 -347.183)" fill="#263238"/><path d="M209.379,375c-.192.46,2.109,1.917,5.137,3.144s5.636,1.917,5.751,1.534-2.109-1.917-5.137-3.144S209.475,374.56,209.379,375Z" transform="translate(-202.39 -339.632)" fill="#263238"/><path d="M211.879,384.147c0,.479,2.281,1.169,5.233,1.534s5.387.268,5.444-.211-2.281-1.169-5.233-1.534S211.937,383.667,211.879,384.147Z" transform="translate(-209.491 -331.525)" fill="#263238"/><path d="M213.256,397.239c.192.441,2.684-.211,5.559-1.476s5.061-2.626,4.869-3.067-2.684.211-5.559,1.457S213.064,396.817,213.256,397.239Z" transform="translate(-213.244 -323.417)" fill="#263238"/><path d="M211.577,408.141c.153.441,3.316-.307,6.613-2.473s5.252-4.735,4.907-5.061-2.76,1.572-5.866,3.585S211.4,407.662,211.577,408.141Z" transform="translate(-209.476 -316.069)" fill="#263238"/><path d="M208.2,417.564c.288.383,2.8-1.093,5.214-3.7s3.7-5.195,3.3-5.463-2.281,1.783-4.581,4.275S207.9,417.238,208.2,417.564Z" transform="translate(-196.614 -308.911)" fill="#263238"/><path d="M159.108,414.224c-.23.422,2.415,2.243,5.885,4.045s6.479,2.933,6.69,2.492-2.4-2.243-5.885-4.045S159.338,413.86,159.108,414.224Z" transform="translate(-57.441 -303.616)" fill="#263238"/><path d="M156.076,406.42c-.192.441,1.917,1.917,4.716,3.105s5.252,1.917,5.444,1.514-1.917-1.917-4.716-3.105S156.287,405.979,156.076,406.42Z" transform="translate(-46.186 -310.822)" fill="#263238"/><path d="M152.049,399.6c0,.479,2.53,1.246,5.751,1.706s5.981.46,6.057,0-2.549-1.246-5.751-1.706S152.107,399.119,152.049,399.6Z" transform="translate(-36.102 -317.284)" fill="#263238"/><path d="M162.4,395.717c-.153.46,2.4,1.629,5.751,2.013s6.115-.211,6.077-.671-2.665-.709-5.885-1.073S162.531,395.238,162.4,395.717Z" transform="translate(-66.289 -320.725)" fill="#263238"/><path d="M172.236,387.2c-.134.441,1.917,1.476,4.6,1.725s4.907-.326,4.85-.805-2.147-.69-4.677-.939S172.389,386.718,172.236,387.2Z" transform="translate(-92.614 -328.595)" fill="#263238"/><path d="M174.013,381.821c.153.46,2.339.134,4.888-.748s4.466-1.917,4.294-2.415-2.339-.134-4.869.748S173.86,381.437,174.013,381.821Z" transform="translate(-97.535 -336.369)" fill="#263238"/><path d="M180.047,376.312c.326.345,1.917-.652,2.895-2.511s1.188-3.661.728-3.834-1.284,1.246-2.243,2.895S179.779,375.986,180.047,376.312Z" transform="translate(-109.703 -344.144)" fill="#263238"/><path d="M173.915,401.779c-.115.479,1.764,1.342,4.217,1.917a16.354,16.354,0,0,0,3.546.518l.364-1.035c-.652-.115-1.054,0-1.131.115s.173.5.69.882l.345-1.016a15.521,15.521,0,0,0-3.393-1.169C176.119,401.415,174.03,401.319,173.915,401.779Z" transform="translate(-96.191 -315.228)" fill="#263238"/><path d="M173.976,413.856c-.192.46,2.224,1.821,5.387,3.067s5.847,1.917,6.019,1.419-2.224-1.821-5.387-3.048S174.149,413.415,173.976,413.856Z" transform="translate(-99.645 -304.014)" fill="#263238"/><path d="M166.175,408.516c-.153.46,1.438,1.419,3.585,2.147s4.006.939,4.16.479-1.457-1.419-3.585-2.147S166.328,408.056,166.175,408.516Z" transform="translate(-73.231 -309.007)" fill="#263238"/><path d="M164.973,385.679c.115.46,2.914.192,6.153-.978s5.6-2.684,5.387-3.105-2.818.345-5.962,1.457S164.973,385.2,164.973,385.679Z" transform="translate(-73.543 -333.576)" fill="#263238"/><path d="M190.3,381.054c-.268.4,1.323,1.917,3.527,3.374s4.236,2.319,4.486,1.917-1.3-1.917-3.508-3.374S190.564,380.613,190.3,381.054Z" transform="translate(-143.837 -334.068)" fill="#263238"/><path d="M191.683,393.345c-.115.479,1.553,1.227,3.7,1.668s3.949.422,4.064,0-1.572-1.227-3.719-1.668S191.779,392.866,191.683,393.345Z" transform="translate(-147.658 -323.012)" fill="#263238"/><path d="M192.047,409.165c.211.441,2.588-.23,5.329-1.514s4.811-2.645,4.6-3.086-2.588.23-5.329,1.5S191.836,408.725,192.047,409.165Z" transform="translate(-150.879 -312.531)" fill="#263238"/><path d="M191.208,423.509c.383.307,1.917-.958,3.47-2.818s2.473-3.642,2.109-3.949-1.917.958-3.47,2.818S190.844,423.2,191.208,423.509Z" transform="translate(-144.021 -301.284)" fill="#263238"/><path d="M190.349,372.064c-.307.364.728,1.648,2.473,2.53s3.393.939,3.527.479-1.15-1.246-2.741-2.051S190.636,371.662,190.349,372.064Z" transform="translate(-141.915 -342.331)" fill="#263238"/><path d="M199.948,384.419c-.153.441,1.917,1.572,4.677,1.917s5.061-.134,5.022-.594-2.185-.767-4.773-1.15S200.2,383.959,199.948,384.419Z" transform="translate(-173.693 -331.108)" fill="#263238"/><path d="M197.384,373.338c-.211.422,1.821,1.917,4.7,2.78s5.387.92,5.444.46-2.166-1.246-4.907-2.128S197.614,372.839,197.384,373.338Z" transform="translate(-166.644 -341.189)" fill="#263238"/><path d="M199.717,402.769c0,.479,3.47.786,7.668,0s7.323-2.262,7.169-2.7-3.45.249-7.476.958S199.7,402.271,199.717,402.769Z" transform="translate(-178.179 -316.659)" fill="#263238"/><path d="M198.46,421.81c.288.383,2.837-1.112,5.387-3.681s4.045-5.118,3.661-5.406-2.435,1.687-4.907,4.16S198.154,421.426,198.46,421.81Z" transform="translate(-168.717 -304.952)" fill="#263238"/><path d="M165.254,360.205c-.249.383,7.016,3.316,15.335,12.172a75.143,75.143,0,0,1,19.169,42.4,95.366,95.366,0,0,1-1.15,25.974,202.41,202.41,0,0,1-4.869,20.837c-1.687,5.866-3.24,10.581-4.275,13.84a33.525,33.525,0,0,0-1.476,5.118,29.487,29.487,0,0,0,2.128-4.888c1.227-3.2,2.971-7.859,4.811-13.706a175.389,175.389,0,0,0,5.272-20.933,93.085,93.085,0,0,0,1.3-26.453c-2.166-18.882-11.233-34.5-20.032-43.054a55.3,55.3,0,0,0-11.5-8.99,35.7,35.7,0,0,0-3.527-1.917A3.8,3.8,0,0,0,165.254,360.205Z" transform="translate(-99.453 -353.092)" fill="#fff"/><path d="M198.913,481.376c.383-.192-3.949-6.863-7.9-18.882A106.543,106.543,0,0,1,186.3,414a90.92,90.92,0,0,1,7.476-25.879,60.977,60.977,0,0,1,12.747-17.751,46.371,46.371,0,0,1,12.5-7.9c3.259-1.361,5.195-1.687,5.176-1.917a4.12,4.12,0,0,0-1.438.1,27.352,27.352,0,0,0-3.987,1.073,43.668,43.668,0,0,0-13.073,7.668,60.02,60.02,0,0,0-13.419,18,89.484,89.484,0,0,0-7.668,26.319,102.92,102.92,0,0,0,5.291,49.169c.978,3.029,2.262,5.617,3.22,7.974a46.5,46.5,0,0,0,2.914,5.751,31.415,31.415,0,0,0,2.875,4.773Z" transform="translate(-157.054 -352.786)" fill="#fff"/><path d="M258.788,421.4H161.964l-.594,19.38h97.418Z" transform="translate(-148.898 -296.971)" fill="#263238"/><path d="M247.7,426.45l-5.559,59.175H171.353L165.66,427.1Z" transform="translate(-146.038 -292.34)" fill="#263238"/><path d="M161.38,432.052c0,.479,21.8.882,48.69.882s48.709-.4,48.709-.882-21.8-.882-48.709-.882S161.38,431.573,161.38,432.052Z" transform="translate(-148.908 -288.012)" fill="#455a64"/><path d="M168.1,443.732a14.491,14.491,0,0,0,2.032,3.834,55.7,55.7,0,0,0,7.514,8.875l.441.422.441-.46a140.606,140.606,0,0,1,18.978-16.62h-1.073l8.415,7.38,9.949,8.664.556.479.556-.479,16.16-13.591-.939-.1,8.358,10.2a23,23,0,0,0,3.3,3.6,26.451,26.451,0,0,0-2.7-4.045l-7.917-10.581-.4-.537-.537.441-16.409,13.3h1.093l-9.891-8.7-8.454-7.361-.518-.441-.556.4a124.942,124.942,0,0,0-18.882,17.137h.882a100.206,100.206,0,0,1-10.39-11.828Z" transform="translate(-145.795 -281.731)" fill="#455a64"/></g></g></svg>