<svg xmlns="http://www.w3.org/2000/svg" width="921.249" height="722.534" viewBox="0 0 921.249 722.534">
  <g id="Mobile_inbox-pana_1_" data-name="Mobile inbox-pana (1)" transform="translate(-140.264 -216.768)">
    <g id="freepik--background-complete--inject-5" transform="translate(397.623 41.872)">
      <g id="Group_286" data-name="Group 286" transform="translate(413.113 221.669)">
        <path id="Path_3984" data-name="Path 3984" d="M282.72,117.859,79.135,64.566a3.154,3.154,0,0,0-3.819,2.075l-40.3,135.142a3.175,3.175,0,0,0,2.283,3.964L248.81,257.484a3.134,3.134,0,0,0,3.819-2.324L284.94,121.616A3.154,3.154,0,0,0,282.72,117.859Z" transform="translate(-34.89 -8.239)" fill="#ebebeb"/>
        <path id="Path_3985" data-name="Path 3985" d="M244.183,147.777,165.322,42.124A11.788,11.788,0,0,0,150.8,38.513L34.58,92.906" transform="translate(6.594 -37.368)" fill="#ebebeb"/>
        <path id="Path_3986" data-name="Path 3986" d="M220.763,141.084,232.7,95.47,47.207,48.34,34.88,95.2,108.1,191.015Z" transform="translate(17.459 -25.57)" fill="#fafafa"/>
      </g>
      <path id="Path_3994" data-name="Path 3994" d="M65,286.723a36.172,36.172,0,0,1-26.667-29.51c-3.3-19.694,8.965-38.164,27.435-41.3s36.089,10.376,39.43,30.009a36.089,36.089,0,0,1-15.834,36.795c52.712-.685,59.519,55.638,59.519,55.638L27.275,358.9S15.259,302.806,65,286.723Z" transform="translate(387.113 299.77)" fill="#ebebeb"/>
      <g id="Group_303" data-name="Group 303" transform="translate(-300.474 199)">
        <rect id="Rectangle_319" data-name="Rectangle 319" width="216.866" height="146.162" transform="translate(246.799 214.276) rotate(-158.96)" fill="#ebebeb"/>
        <path id="Path_3995" data-name="Path 3995" d="M343.72,40.34a12.847,12.847,0,0,0,1.183,2.553l3.736,7.118,14.07,25.962,47.171,85.564.394.706.768-.249,1.868-.6,94.321-30.154,28.514-9.339,7.72-2.656a16.191,16.191,0,0,0,2.656-1.038,15.915,15.915,0,0,0-2.781.664l-7.845,2.283-28.7,8.758-94.487,29.614-1.868.581,1.162.477L363.871,75.288,349.344,49.616c-1.681-2.885-3.03-5.188-4.151-6.931a18.674,18.674,0,0,0-1.473-2.345Z" transform="translate(-248.117 -38.953)" fill="#e0e0e0"/>
        <path id="Path_3996" data-name="Path 3996" d="M406.742,200.106c.5-.187-7.513-24.737-17.93-54.85s-19.279-54.372-19.8-54.206,7.513,24.737,17.93,54.85S406.2,200.272,406.742,200.106Z" transform="translate(-161.201 15.574)" fill="#e0e0e0"/>
        <path id="Path_3997" data-name="Path 3997" d="M517.348,77.766c-.27-.457-22.454,12.306-49.537,28.535s-48.81,29.759-48.52,30.237S441.746,124.232,468.828,108,517.639,78.264,517.348,77.766Z" transform="translate(-376.173 1.278)" fill="#e0e0e0"/>
      </g>
      <g id="Group_304" data-name="Group 304" transform="translate(-72.853 34.593)">
        <rect id="Rectangle_320" data-name="Rectangle 320" width="95.38" height="141.513" transform="matrix(-0.117, -0.993, 0.993, -0.117, 24.208, 423.007)" fill="#ebebeb"/>
        <path id="Path_3998" data-name="Path 3998" d="M413.44,207.03a9.286,9.286,0,0,0,1.473,1.1l4.317,2.968,16,10.729L488.565,256.9l.436.291.374-.374.892-.913,45.3-46.071c5.686-5.852,10.376-10.646,13.614-14.07l3.673-3.86a10.667,10.667,0,0,0,1.2-1.411,9.474,9.474,0,0,0-1.391,1.224l-3.839,3.694-13.9,13.78L489.271,255.01l-.892.892h.809l-53.459-34.74L419.5,210.786l-4.462-2.76a9.048,9.048,0,0,0-1.6-1Z" transform="translate(-400.745 122.5)" fill="#e0e0e0"/>
        <path id="Path_3999" data-name="Path 3999" d="M463,262.821c.249-.249-11.85-12-26.979-26.211s-27.663-25.547-27.912-25.3,11.85,12,26.979,26.231S462.775,263.09,463,262.821Z" transform="translate(-298.626 144.885)" fill="#e0e0e0"/>
        <path id="Path_4000" data-name="Path 4000" d="M495.915,213.391c-.311-.187-9.235,13.946-19.943,31.544s-19.2,31.98-18.823,32.188,9.214-13.925,19.923-31.523S496.205,213.578,495.915,213.391Z" transform="translate(-433.288 147.123)" fill="#e0e0e0"/>
      </g>
      <path id="Path_4001" data-name="Path 4001" d="M509.848,379.367c-10.542-5.437-22.932-6.226-34.616-4.151-6.226,1.038-12.825,2.926-17.1,7.637s-5.084,13.012-.187,17.08c2.926,2.407,6.994,2.781,10.791,2.719,9.152-.1,19.3-1.7,26.605,3.8,4.151,3.134,6.952,8.3,11.933,9.9a11.787,11.787,0,0,0,12.971-5.769,20.109,20.109,0,0,0,1.474-14.859,22.7,22.7,0,0,0-11.871-16.353Z" transform="translate(-524.588 321.035)" fill="#ebebeb"/>
      <path id="Path_4002" data-name="Path 4002" d="M489.137,403.654c-6.433,9.193-18.947,6.226-24.758.54s-8.3-13.738-10.48-21.5c-5.105-17.723-10.231-36.317-6.454-54.352a30.3,30.3,0,0,1,6.952-14.8,15.793,15.793,0,0,1,14.942-4.96c6.226,1.66,10.231,7.845,13.074,13.718a129.6,129.6,0,0,1,12.8,55.617c0,8.944-1.038,18.345-6.081,25.733" transform="translate(-479.763 250.18)" fill="#ebebeb"/>
      <path id="Path_4003" data-name="Path 4003" d="M411.616,401.545c-6.994-8.3-8.3-20.4-5.209-30.776s10.127-19.238,18.242-26.46a97.849,97.849,0,0,1,32.644-19.259,34.865,34.865,0,0,1,14.693-2.511,15.357,15.357,0,0,1,12.306,7.471c3.445,6.537.145,14.527-3.4,20.981a250.257,250.257,0,0,1-21.458,32.727c-6.433,8.3-13.78,16.457-23.575,20.192s-19.985,3.258-25.173-3.59" transform="translate(-377.905 291.553)" fill="#ebebeb"/>
      <path id="Path_4004" data-name="Path 4004" d="M496.863,464.862a20.418,20.418,0,0,1-.581-4.15c-.291-3.03-.664-6.848-1.121-11.393a162.714,162.714,0,0,0-2.553-16.727,127.869,127.869,0,0,0-6.081-19.736,72.635,72.635,0,0,0-10.086-17.868A37.5,37.5,0,0,0,463.7,384.4a35.132,35.132,0,0,0-10.729-3.341,21.026,21.026,0,0,1-4.151-.6,18.529,18.529,0,0,1,4.151,0,32,32,0,0,1,11.186,2.906,37.355,37.355,0,0,1,13.448,10.687,71.2,71.2,0,0,1,10.376,18.221,120.1,120.1,0,0,1,6.039,20.047,140.245,140.245,0,0,1,2.221,16.934c.353,4.856.5,8.778.56,11.476A19.337,19.337,0,0,1,496.863,464.862Z" transform="translate(-487.054 327.683)" fill="#e0e0e0"/>
      <path id="Path_4005" data-name="Path 4005" d="M470.188,514.5a7.433,7.433,0,0,1-.1-1.951V507c0-4.815,0-11.767-.228-20.358-.436-17.2-1.909-35.716-4.773-61.8-2.719-24.53-6.35-53.086-10.19-71.639-.809-4.151-1.64-8.011-2.428-11.352s-1.37-6.226-2.075-8.529-.955-3.964-1.287-5.4a7.994,7.994,0,0,1-.332-1.909,11.031,11.031,0,0,1,.664,1.826c.415,1.39.955,3.154,1.619,5.313s1.432,5.147,2.283,8.467,1.847,7.18,2.822,11.331a627.749,627.749,0,0,1,10.688,66.409c2.885,26.148,4.15,49.952,4.275,67.2.1,8.612,0,15.585-.291,20.4-.145,2.262-.249,4.151-.353,5.541a7.551,7.551,0,0,1-.29,1.992Z" transform="translate(-461.167 269.27)" fill="#e0e0e0"/>
      <path id="Path_4006" data-name="Path 4006" d="M419.835,461.248a35.3,35.3,0,0,1,0-5.79,155.772,155.772,0,0,1,1.764-15.689,207.877,207.877,0,0,1,5.105-22.828,185.787,185.787,0,0,1,9.546-26.979,144.609,144.609,0,0,1,28.079-43.726,71.236,71.236,0,0,1,6.6-6.122c1.017-.872,1.909-1.722,2.822-2.407l2.573-1.764a36.485,36.485,0,0,1,4.877-3.113c.27.374-6.911,4.607-15.98,14.257a151.5,151.5,0,0,0-27.373,43.581,213.01,213.01,0,0,0-9.629,26.792c-2.49,8.4-4.151,16.125-5.416,22.641s-1.888,11.829-2.3,15.523A41.153,41.153,0,0,1,419.835,461.248Z" transform="translate(-404.262 302.658)" fill="#e0e0e0"/>
      <path id="Path_4007" data-name="Path 4007" d="M518.081,433.74l-4.607,63.026H432.517L427.91,433.74Z" transform="translate(-464.794 385.099)" fill="#e0e0e0"/>
      <rect id="Rectangle_321" data-name="Rectangle 321" width="107.645" height="24.841" transform="translate(-46.534 793.998)" fill="#e0e0e0"/>
      <path id="Path_4008" data-name="Path 4008" d="M530.021,462.95v6.89H424.14v-6.89Z" transform="translate(-398.91 415.47)" fill="#ebebeb"/>
      <path id="Path_4009" data-name="Path 4009" d="M518.577,478.39l4.96-12.12H426.58l5.79,12.12Z" transform="translate(-397.49 419.04)" fill="#e0e0e0"/>
      <path id="Path_4010" data-name="Path 4010" d="M428.57,448.24a4.014,4.014,0,0,0,.394.581l1.2,1.6,4.711,6.039.208.27.208-.291c2.968-4.15,6.931-9.567,11.58-16.021h-.664l11.414,16.146.353.519.415-.477c4.151-5.022,8.778-10.376,13.531-16.1h-.789l.747.955,12.1,15.149.394.519.374-.54,11.414-16.146H495.5l14.07,16.021.249.27.187-.311,4.4-7.409,1.121-1.951a4.161,4.161,0,0,0,.353-.706,4.466,4.466,0,0,0-.477.623l-1.245,1.889-4.628,7.263h.457l-13.842-16.208-.353-.415-.311.456-11.518,16.063h.768L472.67,440.831l-.747-.934-.394-.477-.394.477-13.489,16.125h.768L446.874,439.96l-.332-.477-.332.477-11.331,16.208h.415l-4.918-5.873-1.307-1.536C428.757,448.385,428.591,448.219,428.57,448.24Z" transform="translate(-463.96 391.206)" fill="#f5f5f5"/>
      <path id="Path_4011" data-name="Path 4011" d="M428.24,433.8c0,.27,20.275.5,45.3.5s45.3-.228,45.3-.5-20.275-.5-45.3-.5S428.24,433.528,428.24,433.8Z" transform="translate(-466.245 384.625)" fill="#f5f5f5"/>
      <path id="Path_4012" data-name="Path 4012" d="M426.42,466.848c0,.291,22.06.519,49.246.519s49.246-.228,49.246-.519-22.039-.5-49.246-.5S426.42,466.578,426.42,466.848Z" transform="translate(-398.534 419.126)" fill="#f5f5f5"/>
    </g>
    <g id="freepik--Character--inject-5" transform="translate(486.319 216.768)">
      <path id="Path_4013" data-name="Path 4013" d="M344.924,333l.291,111.525L394.5,434.4l41.506-8.675S379.187,537.788,317.385,537.788s-69.791-93.242-69.791-93.242L243.92,333Z" transform="translate(-19.587 100.842)" fill="#9b7564"/>
      <path id="Path_4014" data-name="Path 4014" d="M303.053,270.094c4.524,2.573,10.75-.768,12.825-5.583s1.121-10.376-.457-15.44-3.777-9.92-4.151-15.17a22.372,22.372,0,0,1,15.025-22c-8.924-7.077-9.65-22.247-1.453-30.154,3.839-3.694,8.944-5.707,13.406-8.612a45.653,45.653,0,0,0,7.056-5.748,29.053,29.053,0,0,1-12.161.374,19.715,19.715,0,0,1-14.278-12.452,17.827,17.827,0,0,1,4.317-18.283,16.353,16.353,0,0,1,18.387-2.739c5.769,3.051,8.924,9.318,11.725,15.212l2.615,5.458c8.114-10.75,15.751-21.853,28.265-25.63,11.352-3.424,23.554.394,35.383-.457,8.612-.643,16.872-3.735,25.464-4.69s18.366.892,23.43,7.886c2.988,4.151,3.922,9.422,6.931,13.51,6.226,8.426,19.632,9.567,24.737,18.678,4.151,7.429.955,16.81,2.739,25.132,1.93,9.048,9.4,15.668,15.5,22.621s11.435,16.5,8.01,25.09c-3.03,7.575-11.85,11.642-14.714,19.259-2.075,5.562-.581,11.725-.477,17.661s-2.262,12.991-8.052,14.34l-65.849,17.391c-22.683,9.214-46.071,18.677-70.559,18.553s-50.616-11.788-60.183-34.284a14.029,14.029,0,0,0,9.442-4.151A23.6,23.6,0,0,1,303.053,270.094Z" transform="translate(-233.743 -123.947)" fill="#263238"/>
      <path id="Path_4015" data-name="Path 4015" d="M394.6,267.408c-5.437-16.6-10.792-33.516-13.261-50.907s-1.951-35.529,4.151-51.882c.913-2.49,8.82-19.238,11.476-18.968,1.888.187-2.968,15.793-2.075,17.453,9.131,15.689,11.622,34.553,10.148,52.671a237.305,237.305,0,0,1-10.522,51.737" transform="translate(-271.308 -100.613)" fill="#263238"/>
      <path id="Path_4016" data-name="Path 4016" d="M375.184,427.4c-27.228-.581-58.108-60.183-58.108-60.183l-1.764-152.865c-1.411-44.017,23.015-81.538,67.052-81.745l4.151.208a78.861,78.861,0,0,1,74.523,76.495c1.017,38.164,1.681,80.355.332,100.734-2.781,42.17-45.345,46.466-45.345,46.466s-.249,9.8-.373,22.205c-.291,27.85-29.448,49.558-40.364,48.624Z" transform="translate(-193.747 -114.633)" fill="#9b7564"/>
      <path id="Path_4017" data-name="Path 4017" d="M391.6,250.476s-26.688.145-54.082-19.2c0,0,11.746,31.42,54.061,29.884Z" transform="translate(-169.427 -8.535)" fill="#7f6358"/>
      <path id="Path_4018" data-name="Path 4018" d="M336.75,188.551a6.039,6.039,0,0,1-6.226,5.769,5.769,5.769,0,0,1-5.915-5.748,6.039,6.039,0,0,1,6.226-5.79,5.769,5.769,0,0,1,5.914,5.769Z" transform="translate(-87.784 -60.688)" fill="#263238"/>
      <path id="Path_4019" data-name="Path 4019" d="M344.379,181.43c-.789.747-5.167-2.885-11.663-3.217s-11.414,2.677-12.078,1.826c-.311-.353.519-1.743,2.677-3.134a16.416,16.416,0,0,1,9.712-2.428,15.938,15.938,0,0,1,9.235,3.528C344.172,179.749,344.773,181.1,344.379,181.43Z" transform="translate(-87.153 -69.65)" fill="#263238"/>
      <path id="Path_4020" data-name="Path 4020" d="M364.9,187.8a6.039,6.039,0,0,1-6.226,5.769,5.769,5.769,0,0,1-5.915-5.769,6.039,6.039,0,0,1,6.122-5.769A5.79,5.79,0,0,1,364.9,187.8Z" transform="translate(-174.353 -61.495)" fill="#263238"/>
      <path id="Path_4021" data-name="Path 4021" d="M375.071,181.048c-.789.747-5.188-2.864-11.663-3.2s-11.414,2.656-12.078,1.826c-.332-.374.5-1.743,2.677-3.154a16.6,16.6,0,0,1,9.712-2.428,16,16,0,0,1,9.235,3.528C374.843,179.264,375.445,180.716,375.071,181.048Z" transform="translate(-181.515 -70.057)" fill="#263238"/>
      <path id="Path_4022" data-name="Path 4022" d="M333.388,230.138c0-.374,4.151-.851,10.646-1.328,1.66,0,3.237-.332,3.59-1.453a8.3,8.3,0,0,0-.851-4.96q-2.075-6.226-4.151-12.887c-5.852-18.3-9.982-33.35-9.235-33.578s6.081,14.527,11.912,32.769c1.39,4.5,2.739,8.82,4.005,12.929a9.567,9.567,0,0,1,.519,6.558,4.151,4.151,0,0,1-2.864,2.262,10.9,10.9,0,0,1-2.822.249C337.476,230.7,333.409,230.511,333.388,230.138Z" transform="translate(-119.245 -68.053)" fill="#263238"/>
      <path id="Path_4023" data-name="Path 4023" d="M342.447,203.721c1.058,0,.685,7.035,6.454,12.348s13.282,4.96,13.282,5.935c0,.457-1.743,1.287-4.9,1.2a17.578,17.578,0,0,1-11.124-4.566,15.3,15.3,0,0,1-4.96-10.376C341.077,205.36,341.97,203.659,342.447,203.721Z" transform="translate(-147.625 -38.171)" fill="#263238"/>
      <path id="Path_4024" data-name="Path 4024" d="M380.537,167.621c-.747,1.743-7.18.56-14.838,1.058s-13.925,2.262-14.838.623c-.415-.789.747-2.387,3.32-3.964a25.858,25.858,0,0,1,22.6-1.266C379.52,165.338,380.849,166.812,380.537,167.621Z" transform="translate(-185.922 -82.965)" fill="#263238"/>
      <path id="Path_4025" data-name="Path 4025" d="M343.293,171.154c-1.224,1.411-5.624-.353-10.978-.706s-9.982.457-10.937-1.141c-.436-.768.373-2.221,2.428-3.507a15.959,15.959,0,0,1,17.661,1.494C343.293,168.912,343.833,170.427,343.293,171.154Z" transform="translate(-87.582 -81.082)" fill="#263238"/>
      <path id="Path_4026" data-name="Path 4026" d="M414.339,188.153c-.706-.353-28.535-10.127-29.178,18.677s28.535,23.554,28.6,22.828S414.339,188.153,414.339,188.153Z" transform="translate(-291.01 -56.928)" fill="#9b7564"/>
      <path id="Path_4027" data-name="Path 4027" d="M402.238,213.737c-.125,0-.519.332-1.37.706a5.023,5.023,0,0,1-3.756,0c-3.03-1.183-5.5-6.1-5.541-11.31a16.894,16.894,0,0,1,1.577-7.18,5.832,5.832,0,0,1,3.86-3.777,2.573,2.573,0,0,1,2.947,1.453c.373.809.166,1.39.332,1.432s.623-.477.415-1.66a3.258,3.258,0,0,0-1.1-1.847,3.694,3.694,0,0,0-2.76-.789,7.077,7.077,0,0,0-5.354,4.358,17.016,17.016,0,0,0-1.93,8.031c0,5.832,2.926,11.331,7.077,12.638a5.375,5.375,0,0,0,4.628-.664C402.175,214.422,402.341,213.779,402.238,213.737Z" transform="translate(-288.081 -52.13)" fill="#7f6358"/>
      <path id="Path_4028" data-name="Path 4028" d="M463.425,163.89c4.711-2.511-9.131-17.847-20.566-23.222-17.266-8.094-43.747-13.282-59.81-8.944-19.362,5.209-35.508,14.527-45.428,32.042S323.8,201.6,324.112,221.645c.1,6.122.643,12.452,3.86,17.723,3.943,6.433,11.642,10.563,11.186,19.383a12.1,12.1,0,0,0,2.885,8.861c5.23,5.686,11.767.477,14.8-4.773,6.516-11.248,7.388-24.758,8.114-37.708.519-9.214,1.017-18.677-1.473-27.518-1.349-4.835-3.57-9.422-4.649-14.319s-.872-10.376,2.241-14.423a17.967,17.967,0,0,1,2.366-2.345,30.216,30.216,0,0,1,29.988-5.313c16.208,5.977,43.892,14.942,51.218,9.5,10.542-7.824,13.116-12.971,13.116-12.971Z" transform="translate(-214.334 -117.275)" fill="#263238"/>
      <path id="Path_4029" data-name="Path 4029" d="M371.514,130.723c15.938-5.105,34.035-4.586,48.79,3.32,7.845,4.151,14.9,10.833,17.183,19.4s-1.494,19.093-9.754,22.33l-.581.353c-12.452,3.985-20.379,2.241-32.623-2.179-10.376-3.715-19.425-10.21-29.739-13.884a58.835,58.835,0,0,0-34.367-1.432C341.63,146.226,355.555,135.891,371.514,130.723Z" transform="translate(-201.243 -120.238)" fill="#263238"/>
      <path id="Path_4030" data-name="Path 4030" d="M362.593,150.34c.249.207,2.573-2.553,7.263-5.811a41.98,41.98,0,0,1,8.778-4.69,26.854,26.854,0,0,1,11.746-2.075,39.43,39.43,0,0,1,20.151,8.3c4.483,3.549,6.558,6.537,6.828,6.33s-.311-.892-1.266-2.221a31.42,31.42,0,0,0-4.669-5.147,37.521,37.521,0,0,0-20.877-9.193,27.58,27.58,0,0,0-12.576,2.241,38.351,38.351,0,0,0-8.924,5.25C364.377,147.081,362.385,150.215,362.593,150.34Z" transform="translate(-247.253 -111.215)" fill="#455a64"/>
      <path id="Path_4031" data-name="Path 4031" d="M372.526,147.732a24.589,24.589,0,0,0,2.2,8.3,60.183,60.183,0,0,0,26.979,30.4,24.118,24.118,0,0,0,7.928,3.154c.353-.56-12.141-5.292-22.621-17.287S373.128,147.462,372.526,147.732Z" transform="translate(-260.113 -98.377)" fill="#455a64"/>
      <path id="Path_4032" data-name="Path 4032" d="M371.89,150a9.424,9.424,0,0,0-.1,3.279,50.579,50.579,0,0,0,1.245,8.882,60.453,60.453,0,0,0,37.562,43.1,51.615,51.615,0,0,0,8.633,2.449,9.132,9.132,0,0,0,3.279.332c0-.332-4.545-1.121-11.393-4.151a63.607,63.607,0,0,1-36.753-42.17C372.409,154.628,372.243,150,371.89,150Z" transform="translate(-271.244 -95.934)" fill="#455a64"/>
      <path id="Path_4033" data-name="Path 4033" d="M326.53,127.75c0,.332,3.009,1.038,7.658,2.885a62.755,62.755,0,0,1,29.656,24.447,78.247,78.247,0,0,0,4.3,6.952,22.35,22.35,0,0,0-3.113-7.658A55.1,55.1,0,0,0,352.16,139.04a54.308,54.308,0,0,0-17.515-9.671,23.221,23.221,0,0,0-8.114-1.619Z" transform="translate(-123.157 -119.859)" fill="#455a64"/>
      <path id="Path_4034" data-name="Path 4034" d="M390.01,129.5c-.477,0,.789,8.3,7.326,16.083s14.527,10.48,14.527,10-6.994-3.86-13.095-11.248S390.592,129.315,390.01,129.5Z" transform="translate(-298.433 -117.979)" fill="#455a64"/>
      <path id="Path_4035" data-name="Path 4035" d="M337.975,384.99l-17.142-10.522a18.678,18.678,0,0,0-9.65-2.719h-33.2l-34.284,31.233-10.231,5.105,3.818,53.957,22.288-2.739s47.586,2.075,52.193-1.017,11.269-12.8,11.269-12.8,26.086-8.446,28.639-10.729c9.692-8.7,5.79-10.771,5.79-10.771l4.462-2.075c.83,1.577,7.326-9.007,6.641-14.319-.394-3.092.519-3.071.519-3.071a17.059,17.059,0,0,0,8.3-11.808c.477-3.154-12.452-.892-12.452-.892l-32.229.436Z" transform="translate(60.723 142.509)" fill="#9b7564"/>
      <path id="Path_4036" data-name="Path 4036" d="M216.08,405.173,246.4,363.9a11.788,11.788,0,0,1,9.546-4.835H315.88a4.358,4.358,0,0,1,4.358,4.358h0a4.462,4.462,0,0,1-1.058,2.843l-34.346,39.845h0Z" transform="translate(153.958 128.864)" fill="#455a64"/>
      <path id="Path_4037" data-name="Path 4037" d="M237.03,391.505a26.025,26.025,0,0,0,6.765.892,114.141,114.141,0,0,0,32.706-2.822,26.483,26.483,0,0,0,6.516-2.075,41.5,41.5,0,0,0-6.724,1.017,160.233,160.233,0,0,1-16.166,2.075c-6.35.457-12.12.664-16.291.643a38.55,38.55,0,0,0-6.807.27Z" transform="translate(147.701 159.444)" fill="#7f6358"/>
      <path id="Path_4038" data-name="Path 4038" d="M241.18,400.215a26.457,26.457,0,0,0,6.765.892,111.919,111.919,0,0,0,16.457-.228,113.111,113.111,0,0,0,16.27-2.594,26.067,26.067,0,0,0,6.5-2.075,41.74,41.74,0,0,0-6.724,1.017,160.211,160.211,0,0,1-16.166,2.075c-6.35.456-12.12.664-16.291.643a38.538,38.538,0,0,0-6.807.27Z" transform="translate(134.939 168.81)" fill="#7f6358"/>
      <path id="Path_4039" data-name="Path 4039" d="M407.252,381.85a30.313,30.313,0,0,1-1,3.777,14.2,14.2,0,0,1-7.346,7.678l-.228.1v.249a22.828,22.828,0,0,1-2.345,10.542,19.882,19.882,0,0,1-9.359,9.173l-.56.249.27.519a4.794,4.794,0,0,1,0,4.151,10.666,10.666,0,0,1-2.947,3.59,38.453,38.453,0,0,1-8.965,5.147,128.665,128.665,0,0,1-21.977,6.89h-.291l-.145.249a40.565,40.565,0,0,1-6.745,7.554,20.938,20.938,0,0,1-8.8,5.209,28.01,28.01,0,0,1-7.824.789l-7.886.208-15.212.415-27.394.768h-.1l-32.644,6.662-9.069,1.951-2.366.56a2.348,2.348,0,0,0-.809.249,3.576,3.576,0,0,0,.83,0l2.407-.373,9.152-1.619,32.748-6.226h-.1l27.394-.581,15.191-.353,7.907-.187a30.087,30.087,0,0,0,8.177-.872,22.309,22.309,0,0,0,9.38-5.52,40.982,40.982,0,0,0,6.952-7.865l-.436.311a126.276,126.276,0,0,0,22.185-7.077,39.434,39.434,0,0,0,9.235-5.4,11.811,11.811,0,0,0,3.258-4.151,5.852,5.852,0,0,0-.125-5.064l-.29.768a20.918,20.918,0,0,0,9.8-9.8,23.389,23.389,0,0,0,2.221-11l-.228.353a14.174,14.174,0,0,0,7.43-8.3,10.376,10.376,0,0,0,.664-3.735Z" transform="translate(30.772 153.369)" fill="#7f6358"/>
      <path id="Path_4040" data-name="Path 4040" d="M258.865,405.827c-.166.332,3.86,2.387,9.318,3.113s9.858-.187,9.8-.54-4.379-.187-9.609-.913S259.01,405.433,258.865,405.827Z" transform="translate(107.438 179.074)" fill="#7f6358"/>
      <path id="Path_4041" data-name="Path 4041" d="M261.25,381.451c0,.394,6.579.955,14.755,1.266s14.8.208,14.8-.208-6.579-.955-14.755-1.266S261.25,381.036,261.25,381.451Z" transform="translate(89.654 152.523)" fill="#7f6358"/>
      <path id="Path_4042" data-name="Path 4042" d="M281.2,403.506a4,4,0,0,0,2.075.83,9.546,9.546,0,0,0,5.977-1.328,46.4,46.4,0,0,0,6.994-5.6l8.177-7.16L319.364,377.4a49.115,49.115,0,0,0,6.06-5.5,42.339,42.339,0,0,0-6.7,4.711c-4.005,3.071-9.443,7.471-15.274,12.452-2.905,2.532-5.645,4.981-8.094,7.243a53,53,0,0,1-6.62,5.728,9.837,9.837,0,0,1-5.4,1.66C281.968,403.714,281.241,403.382,281.2,403.506Z" transform="translate(13.63 142.67)" fill="#7f6358"/>
      <path id="Path_4043" data-name="Path 4043" d="M216.06,403.334a5.729,5.729,0,0,0,.809-.892l2.075-2.656,7.886-9.941L238.2,375.027l6.682-8.758a10.127,10.127,0,0,1,4.483-3.134,10.5,10.5,0,0,1,2.781-.56h2.988l41.506-.166,12.6-.166h3.424a5.508,5.508,0,0,0,1.2-.1,4.15,4.15,0,0,0-1.2-.1l-3.424-.1-12.6-.187-41.506-.145h-3.071a11.726,11.726,0,0,0-3.051.622,11.269,11.269,0,0,0-4.939,3.487l-6.662,8.82-11.186,14.963c-3.092,4.151-5.624,7.616-7.471,10.148-.809,1.121-1.453,2.075-2.075,2.781a4.413,4.413,0,0,0-.623.913Z" transform="translate(160.37 131.595)" fill="#263238"/>
      <path id="Path_4044" data-name="Path 4044" d="M235.308,365.156a2.47,2.47,0,1,0,.415,3.507,2.532,2.532,0,0,0-.332-3.424" transform="translate(206.307 134.866)" fill="#f5f5f5"/>
      <path id="Path_4045" data-name="Path 4045" d="M418.377,239.87l-84.422,49.62L318.432,563.426,298.26,718.408H601.665s-3.341-188.622-4.379-245.671c-.747-39.991.332-117.5-13.2-165.171C578.319,287.249,521.83,261,521.83,261,490.887,288.328,456.292,280.172,418.377,239.87Z" transform="translate(-298.016 0.701)" fill="#40a0c0"/>
      <path id="Path_4046" data-name="Path 4046" d="M299.16,437.74c0,.291,65.5.54,146.307.54s146.307-.249,146.307-.54-65.5-.54-146.307-.54S299.16,437.428,299.16,437.74Z" transform="translate(-289.992 212.886)" fill="#fff"/>
      <g id="Group_284" data-name="Group 284" transform="translate(20.388 603.742)" opacity="0.3">
        <path id="Path_4047" data-name="Path 4047" d="M580.65,415.141c-23.492,19.694-60,30.361-90.046,36.442s-60.743,8.3-90.876,13.821c-21.064,3.922-43.166,9.463-63.483,2.615a56.033,56.033,0,0,1-37.064-47.877,5.167,5.167,0,0,1,.913-4.151,5.5,5.5,0,0,1,4.3-1.037c90.71,4.026,186.775,3.466,276.261.124" transform="translate(-299.07 -414.869)"/>
      </g>
      <path id="Path_4048" data-name="Path 4048" d="M602.642,452.06H390.632l-1.038-111.712L291.766,327.73s-.436,113.455-.436,150.665c0,44.66,38.6,75.706,71.016,70.933s240.3-43.581,240.3-43.581Z" transform="translate(-284.611 95.175)" fill="#9b7564"/>
      <path id="Path_4049" data-name="Path 4049" d="M389.829,424.553,503.845,436.4V302.631s-11.206-45.2-50.6-43.311-62.59,44.494-63.421,83.571S389.829,424.553,389.829,424.553Z" transform="translate(-389.46 21.553)" fill="#40a0c0"/>
      <path id="Path_4050" data-name="Path 4050" d="M278.31,264.93s36.546,24.052,46.341,50.6c10.273,27.83,24.7,117.98,24.7,117.98H298.108Z" transform="translate(-4.295 27.648)" fill="#40a0c0"/>
      <path id="Path_4051" data-name="Path 4051" d="M388.246,282.72a29.385,29.385,0,0,0,0,4.877c.1,3.383.249,7.865.415,13.3.332,11.206.685,26.709.643,43.83s-.5,32.623-.934,43.83c-.208,5.437-.374,9.92-.5,13.3a31.393,31.393,0,0,0,0,4.877,29.625,29.625,0,0,0,.581-4.856c.291-3.113.643-7.658.975-13.261.685-11.227,1.287-26.73,1.349-43.892s-.457-32.665-1.079-43.892c-.291-5.6-.6-10.127-.872-13.261a31.585,31.585,0,0,0-.581-4.856Z" transform="translate(-272.907 46.777)" fill="#263238"/>
      <path id="Path_4052" data-name="Path 4052" d="M391.15,261.2c0,.291,3.818-.726,10-.623a44.473,44.473,0,0,1,38.974,23.907c2.885,5.458,3.694,9.276,3.964,9.214a9.212,9.212,0,0,0-.457-2.7,36.494,36.494,0,0,0-2.594-6.973,43.083,43.083,0,0,0-39.887-24.488,38.572,38.572,0,0,0-7.409.851A8.842,8.842,0,0,0,391.15,261.2Z" transform="translate(-333.213 21.835)" fill="#263238"/>
      <path id="Path_4053" data-name="Path 4053" d="M300.524,295.29a7.916,7.916,0,0,0-.145,1.515c0,1.162,0,2.594-.124,4.337,0,3.756-.124,9.193-.124,15.917,0,13.448.208,32.022.6,52.525s.789,38.87,1.058,52.5c.125,6.558.228,11.954.311,15.917,0,1.743.124,3.175.166,4.337a5.044,5.044,0,0,0,.145,1.494,6.223,6.223,0,0,0,.145-1.494c0-1.162,0-2.594.125-4.337,0-3.756.125-9.193.125-15.917,0-13.448-.208-32.022-.6-52.546s-.768-38.87-1.038-52.484c-.145-6.579-.249-11.954-.332-15.917,0-1.743-.125-3.175-.145-4.337A5.484,5.484,0,0,0,300.524,295.29Z" transform="translate(-3.038 60.293)" fill="#263238"/>
      <path id="Path_4054" data-name="Path 4054" d="M283.88,317.3a140.869,140.869,0,0,0,17.349.394,139.74,139.74,0,0,0,17.349-.705,140.843,140.843,0,0,0-17.349-.394,134.757,134.757,0,0,0-17.349.706Z" transform="translate(14.914 83.088)" fill="#fff"/>
      <path id="Path_4055" data-name="Path 4055" d="M303.34,302.28c0,.291,39.43.54,87.888.54s87.93-.249,87.93-.54-39.43-.54-87.93-.54S303.34,301.927,303.34,302.28Z" transform="translate(-186.05 67.229)" fill="#fff"/>
      <path id="Path_4056" data-name="Path 4056" d="M388.89,295.705a5.034,5.034,0,0,0,1.162,0l3.279-.27,12.037-1.038c10.19-.851,24.26-1.785,39.825-2.221s29.676-.249,39.887,0l12.1.374h3.279a4.026,4.026,0,0,0,1.162,0,5.123,5.123,0,0,0-1.141-.166l-3.279-.291c-2.864-.228-6.973-.477-12.1-.726-10.21-.477-24.322-.747-39.928-.332s-29.7,1.494-39.866,2.532c-5.085.519-9.194,1-12.016,1.391l-3.258.456a4.509,4.509,0,0,0-1.141.29Z" transform="translate(-386.052 55.499)" fill="#fff"/>
      <path id="Path_4057" data-name="Path 4057" d="M388.33,332.771c0,.311,25.754,0,57.485-.747s57.506-1.556,57.485-1.847-25.733,0-57.506.768S388.33,332.481,388.33,332.771Z" transform="translate(-386.571 97.688)" fill="#fff"/>
      <path id="Path_4058" data-name="Path 4058" d="M306.36,270.17c0,.311,40.634.54,90.752.54s90.752-.228,90.752-.54-40.634-.54-90.752-.54S306.36,269.879,306.36,270.17Z" transform="translate(-201.024 32.701)" fill="#fff"/>
      <path id="Path_4059" data-name="Path 4059" d="M300.6,342.83c0,.291,40.758.54,91.042.54s91.042-.249,91.042-.54-40.758-.54-91.042-.54S300.6,342.518,300.6,342.83Z" transform="translate(-183.891 110.831)" fill="#fff"/>
      <path id="Path_4060" data-name="Path 4060" d="M299.23,374.91c0,.29,44.328.54,98.991.54s99.012-.249,99.012-.54-44.328-.54-99.012-.54S299.23,374.6,299.23,374.91Z" transform="translate(-195.595 145.326)" fill="#fff"/>
      <path id="Path_4061" data-name="Path 4061" d="M299.07,467.41c0,.291,66.845.539,149.275.539s149.275-.249,149.275-.539-66.824-.54-149.275-.54S299.07,467.14,299.07,467.41Z" transform="translate(-295.65 244.789)" fill="#fff"/>
      <g id="Group_285" data-name="Group 285" transform="translate(105.544 381.628)" opacity="0.3">
        <path id="Path_4062" data-name="Path 4062" d="M392.065,385.435c1.328-26.439.374-51.176,1.722-77.595a490.643,490.643,0,0,1,12.659,118.291c-.145,9.443-.6,19.051-3.653,28s-11.5,16.6-20.13,20.421l-.83-90.254C385.715,384.584,388.163,385.248,392.065,385.435Z" transform="translate(-381.834 -307.84)"/>
      </g>
    </g>
  </g>
</svg>
