<svg xmlns="http://www.w3.org/2000/svg" width="958.671" height="903.286" viewBox="0 0 958.671 903.286"><g transform="translate(-76.313 -76.932)"><g transform="translate(76.312 76.932)"><path d="M983.982,226.345S921.658,98.375,784.066,79.451,550.4,152.885,449.189,200.273C396.034,225.1,335.6,215.449,279.305,227.462,99.242,265.813,31.443,506.473,106.418,643.214c64.9,118.456,179.133,180.063,353.109,194.282S755.5,868.3,911.346,752.209,1056.672,394.555,983.982,226.345Z" transform="translate(-76.312 -76.932)" fill="#4da94a"/><path d="M983.982,226.345S921.658,98.375,784.066,79.451,550.4,152.885,449.189,200.273C396.034,225.1,335.6,215.449,279.305,227.462,99.242,265.813,31.443,506.473,106.418,643.214c64.9,118.456,179.133,180.063,353.109,194.282S755.5,868.3,911.346,752.209,1056.672,394.555,983.982,226.345Z" transform="translate(-76.312 -76.932)" fill="#fff" opacity="0.85"/></g><g transform="translate(107.721 906.917)"><ellipse cx="456.337" cy="34.046" rx="456.337" ry="34.046" transform="translate(0 5.209)" fill="#40a0c0"/><ellipse cx="456.337" cy="34.046" rx="456.337" ry="34.046" transform="translate(0 5.209)" fill="#fff" opacity="0.5"/><line x1="873.046" transform="translate(22.697)" fill="#fff" stroke="#000" stroke-miterlimit="10" stroke-width="1"/></g><g transform="translate(636.268 575.07)"><path d="M363.48,270.8a28.438,28.438,0,0,1,0,22.8h80.53s9.94-2.445,9.94-11.4a16.638,16.638,0,0,0-9.7-11.163Z" transform="translate(-160.215 -253.684)" fill="#fff"/><path d="M447.472,272.676a20.6,20.6,0,0,0-10.631-1.728H370.849a31.894,31.894,0,0,1-7.149,0,23.547,23.547,0,0,1,1.568,4.678h80.424v17.382a12.146,12.146,0,0,0,7.973-10.631,9.807,9.807,0,0,0-5.315-9.036Z" transform="translate(-159.85 -253.62)" opacity="0.25"/><path d="M444.611,298.207h-80.9a2.419,2.419,0,0,1,0-4.837h80.9a9.355,9.355,0,1,0,0-18.6H364.426a2.419,2.419,0,1,1,0-4.837h80.185a14.192,14.192,0,1,1,0,28.358Z" transform="translate(-163.845 -255.151)" fill="#263238"/><path d="M452.49,281.38a28.465,28.465,0,0,0,0,22.8H371.96s-9.94-2.419-9.94-11.4a16.558,16.558,0,0,1,9.7-11.136Z" transform="translate(-162.635 -236.145)" fill="#fff"/><path d="M368.142,283.254a20.7,20.7,0,0,1,10.764-1.7h27.428l38.564-.133a30.519,30.519,0,0,0,7.149,0,22.434,22.434,0,0,0-1.595,4.678H369.976v17.408A12.119,12.119,0,0,1,362,292.875a9.807,9.807,0,0,1,5.316-9.01Z" transform="translate(-162.671 -236.079)" opacity="0.25"/><path d="M376.311,308.838h80.9a2.445,2.445,0,0,0,0-4.864h-80.9a9.355,9.355,0,1,1,0-18.6h80.158a2.445,2.445,0,1,0,0-4.864H376.311a14.219,14.219,0,1,0,0,28.385Z" transform="translate(-163.957 -237.637)" fill="#263238"/><path d="M339.021,273.768l5.315-9.408H305.826l5.448,9.408c-7.628,6.644-15.574,15.947-15.574,26.578,0,20.119,13.156,36.438,29.368,36.438s29.368-16.319,29.368-36.438C354.436,289.821,346.49,280.413,339.021,273.768Z" transform="translate(-272.578 -264.36)" fill="#263238"/><path d="M354.65,277.265l4.385-7.575H328.073l4.385,7.575c-6.139,5.315-12.518,12.89-12.518,21.262,0,16.186,10.631,29.235,23.627,29.235s23.6-13.129,23.6-29.235C367.248,290.155,360.869,282.607,354.65,277.265Z" transform="translate(-232.394 -255.524)" fill="#263238"/><path d="M367.21,280.086,370.718,274h-24.85l3.508,6.086c-4.943,4.279-10.046,10.365-10.046,17.116,0,13,8.478,23.548,18.95,23.548s18.976-10.631,18.976-23.548C377.256,290.451,372.127,284.365,367.21,280.086Z" transform="translate(-200.25 -248.379)" fill="#263238"/><path d="M305.208,479.242h-7.814L290.67,351.67h21.262Z" transform="translate(-280.916 -119.621)" fill="#263238"/><path d="M416.408,479.242h-7.814L401.87,351.67h21.262Z" transform="translate(-96.574 -119.621)" fill="#263238"/><rect width="334.877" height="175.997" transform="translate(0 71.999)" fill="#ee7a15"/><rect width="334.877" height="175.997" transform="translate(-0.983 73.806)" fill="#fff" opacity="0.4"/><rect width="304.845" height="153.539" transform="translate(15.016 83.214)" fill="none" stroke="#263238" stroke-linecap="round" stroke-linejoin="round" stroke-width="1"/><line y2="152.156" transform="translate(166.455 83.214)" fill="#fff" stroke="#263238" stroke-linecap="round" stroke-linejoin="round" stroke-width="1"/><rect width="7.495" height="32.425" transform="translate(26.79 145.592)" fill="#263238"/><rect width="7.495" height="32.425" transform="translate(302.399 145.592)" fill="#263238"/></g><g transform="translate(105.594 128.487)"><rect width="180.727" height="260.46" transform="translate(178.973)" fill="#ee7a15"/><rect width="180.727" height="260.46" transform="translate(178.96 1.199)" fill="#fff" opacity="0.59"/><rect width="129.087" height="186.043" transform="translate(204.78 37.209)" fill="#fff"/><rect width="125.393" height="180.727" transform="translate(0 141.765)" fill="#ee7a15"/><rect width="125.393" height="180.727" transform="translate(0 141.765)" fill="#fff" opacity="0.59"/><rect width="89.566" height="129.087" transform="translate(17.913 167.571)" fill="#fff"/><rect width="125.393" height="180.727" transform="translate(502.316 225.032)" fill="#ee7a15"/><rect width="125.393" height="180.727" transform="translate(502.316 225.46)" fill="#fff" opacity="0.59"/><rect width="89.566" height="129.087" transform="translate(520.229 250.839)" fill="#fff"/></g><g transform="translate(380.323 125.462)"><path d="M307.645,241.36S282.05,302.2,273.413,338.74s-7.973,112.955-7.973,119.6-26.578,43.853-28.571,65.779-14.618,108.3-17.275,117.606-25.249,37.209-24.584,40.531,29.235,1.329,31.229,1.329,5.98-39.2,8.638-45.182,42.524-87.042,49.833-112.29,9.967-59.135,9.967-59.135L337.2,359.338,353.145,462.99s-5.98,52.491-1.329,78.4,4.651,134.881,5.315,136.874,49.833,1.993,49.833,1.993,5.316-2.658-4.651-7.973c-2.5-1.329-31.229-17.94-33.222-20.6s19.269-97.008,21.262-125.579-.664-68.437-.664-68.437,13.289-74.417,10.631-117.606-21.927-98.709-21.927-98.709Z" transform="translate(-183.577 147.119)" fill="#fff" stroke="#263238" stroke-linecap="round" stroke-linejoin="round" stroke-width="1"/><path d="M358.824,598.456c5.316-27.455,11.109-58.1,12.093-72.344,1.993-28.571-.664-68.437-.664-68.437s13.289-74.417,10.631-117.606-22.059-98.709-22.059-98.709h-70.7S262.48,302.2,253.842,338.74s-7.973,112.955-7.973,119.6-26.578,43.853-28.571,65.779c-1.2,13.05-6.139,48.876-10.5,77.739a46.484,46.484,0,0,0,23.415,5.316c12.97-27.455,30.352-65.195,34.923-81.009,7.309-25.249,9.967-59.135,9.967-59.135l42.524-107.639,15.947,103.652s-5.98,52.491-1.329,78.4c1.807,9.993,2.9,32.4,3.615,56.238a83.288,83.288,0,0,0,22.963.771Z" transform="translate(-164.007 147.119)" fill="#263238" stroke="#263238" stroke-linecap="round" stroke-linejoin="round" stroke-width="1"/><line y1="30.564" x2="19.933" transform="translate(153.622 475.893)" fill="none" stroke="#fff" stroke-linecap="round" stroke-linejoin="round" stroke-width="1"/><path d="M254.75,244.5l1.329,51.162s7.973-5.98,8.638-10.631-1.993-35.215-1.993-35.215" transform="translate(-84.517 152.325)" fill="none" stroke="#fff" stroke-linecap="round" stroke-linejoin="round" stroke-width="1"/><path d="M226.237,434.284c1.435,0,3.933-20.624,6.219-34.232a24.692,24.692,0,0,0-4.89-7.628c-3.322-2.658-8.638,3.322-8.638,3.322l-.93.4c-5.794,11.481-23.574,33.86-22.99,36.81S224.244,434.284,226.237,434.284Z" transform="translate(-183.577 396.419)" fill="#4da94a" stroke="#263238" stroke-linecap="round" stroke-linejoin="round" stroke-width="1"/><line x2="29.235" transform="translate(14.089 824.723)" fill="none" stroke="#263238" stroke-linecap="round" stroke-linejoin="round" stroke-width="1"/><path d="M301.43,416.348c-2.5-1.329-31.229-17.94-33.222-20.6,0,0-5.315,2.658-4.651,5.315a24.9,24.9,0,0,1,.664,5.316l-8.372,1.143c.133,8.744.266,14.378.4,14.8.664,1.993,49.833,1.993,49.833,1.993S311.4,421.663,301.43,416.348Z" transform="translate(-82.694 403.06)" fill="#4da94a" stroke="#263238" stroke-linecap="round" stroke-linejoin="round" stroke-width="1"/><line x2="49.168" transform="translate(173.555 822.73)" fill="none" stroke="#263238" stroke-linecap="round" stroke-linejoin="round" stroke-width="1"/><path d="M247.445,207.16S190.2,274.986,190.7,278.919s85.58,44.252,93.287,45.687,16.345,4.81,19.721,4.81,14.91-7.681,14.91-7.681,18.6,6.724,19.242,4.332-12.518-6.272-12.518-6.272h17.329s4.306-.957,0-2.392a137.713,137.713,0,0,0-16.85-2.9l17.329-.478s4.811-1.435,0-2.392-15.388-1.94-15.388-1.94l13.927-1.914s2.419-2.9-.957-2.9-19.721-.478-21.262,0-11.03,2.844-11.03,2.844l9.621-6.246s-2.9-1.94-4.332-.957-11.535,7.681-12.04,9.116-7.681,5.794-7.681,5.794-4.81-.983-9.143-1.462-58.657-45.687-58.657-45.687l50.976-48.079Z" transform="translate(-190.699 90.424)" fill="#fff" stroke="#263238" stroke-linecap="round" stroke-linejoin="round" stroke-width="1"/><path d="M264.16,218.729s45.687,32.239,53.873,33.674,12.97-14.432,5.316-24.531-38.006-27.4-38.006-27.4Z" transform="translate(-68.918 79.334)" fill="#fff" stroke="#263238" stroke-linecap="round" stroke-linejoin="round" stroke-width="1"/><path d="M280.443,193.637s-24.053-1.94-33.647,2.392-38.006,40.876-38.006,40.876l30.777,20.677,6.246-2.392s10.631,21.634,19.242,30.777,18.764,23.069,18.764,30.3a50.733,50.733,0,0,0,.957,11.056h70.749l-3.375-31.255s15.947-21.049,14.937-32.584a50.18,50.18,0,0,0-7.787-21.448l24.106-21s-8.159-25.966-18.259-29.82-33.2,0-33.2,0S298.25,198.926,280.443,193.637Z" transform="translate(-160.708 61.157)" fill="#40a0c0" stroke="#263238" stroke-linecap="round" stroke-linejoin="round" stroke-width="1"/><path d="M233.51,222.4s6.884,10.286,23.362,10.286" transform="translate(-119.728 115.688)" fill="none" stroke="#263238" stroke-linecap="round" stroke-linejoin="round" stroke-width="1"/><path d="M254.511,153.343s-14.8-8.239-15.947-4.943,6.033,4.943,4.385,6.033-9.329.532-9.887,3.827,4.943,4.385,1.116,4.943-12.624,0-12.624,4.385,7.123,4.917,5.5,6.565-10.418,2.206-10.977,8.212,3.854,6.033,1.09,8.771-7.123,4.943-8.212,10.977,1.648,6.565,2.658,9.3-3.827,6.033-1.648,12.066,7.681,7.123,7.681,9.86-5.475,3.854,1.648,10.977,13.156,7.123,13.156,7.123-4.943,6.033-1.648,10.418,3.3,1.09,5.475,2.658-1.09,5.475,3.3,6.565,7.681-5.475,8.771-.558,3.3,10.418,6.033,9.329,4.917-6.565,5.475-4.943,3.3,7.149,6.565,7.149,5.5-3.3,7.681,0a10.817,10.817,0,0,0,9.329,4.917c2.658-.558,4.385-4.917,7.123-4.917s7.654,3.827,9.3,2.658,3.854-4.943,7.123-2.658,9.887,4.359,11.508,2.179-.532-7.123,3.3-7.123,9.86,1.09,10.418-2.658-5.475-7.681,1.09-7.681,9.329,1.648,9.329-3.827V252.53s2.179,1.09,2.658-2.658a38.884,38.884,0,0,1,3.3-9.329s3.269,4.385,3.269-2.179-4.385-8.771-.532-10.418,4.917-1.648,4.917-4.943a40.894,40.894,0,0,0-1.648-8.771,10.152,10.152,0,0,0,4.385-8.212,17.009,17.009,0,0,0-1.648-8.212s5.5-3.3-.532-6.033-2.658-8.771-2.658-12.066-1.09-4.917-3.3-5.475-2.179-3.827-1.648-6.033-2.658-6.565-6.033-7.123-4.385-2.179-4.385-3.827,3.854-6.033-.532-6.033-7.681-.558-8.239-2.179-5.475-7.681-8.771-7.681-7.654-4.385-7.654-4.385a3.96,3.96,0,0,0-3.854-3.3c-3.269,0-6.565-4.917-12.6-3.827s-8.771,4.385-12.066,3.3-.531-3.854-4.917-1.648-5.342,4.332-6.857,4.332-.558-5.5-3.854-.558-5.475,8.771-5.475,8.771.558-4.385-2.658-3.827S253.395,147.841,254.511,153.343Z" transform="translate(-160.848 -38.001)" fill="#263238" stroke="#263238" stroke-linecap="round" stroke-linejoin="round" stroke-width="1"/><path d="M250.182,174.05s1.435,31.734.957,37.023-15.388,8.186-15.388,8.186,14.432,29.82,31.255,31.255,22.139-33.2,22.139-33.2a10.232,10.232,0,0,1-10.631-6.246c-2.9-7.2-1.94-29.235-1.94-29.235Z" transform="translate(-116.015 35.536)" fill="#fff" stroke="#263238" stroke-linecap="round" stroke-linejoin="round" stroke-width="1"/><path d="M251.8,154.71s-6.83.478-6.326,2.924,9.276,3.907,2.445,6.352-9.276,1.94-8.8,4.864,7.814,2.445,1.967,7.335-7.335,4.864-7.335,6.83,2.924,3.4.983,5.847-2.445,2.924-1.94,5.316,4.385,1.94,3.4,5.847.983,7.814,13.661,19.03S285.471,236.117,295.7,233.7s11.216-24.4,9.276-39.521-16.584-34.152-16.584-34.152a34.18,34.18,0,0,0-9.276-1.94c-3.907,0-2.924-2.95-6.831-2.95s-3.907.983-7.309,0-2.924-4.385-5.847-4.385S251.8,154.71,251.8,154.71Z" transform="translate(-121.218 -3.09)" fill="#fff" stroke="#263238" stroke-linecap="round" stroke-linejoin="round" stroke-width="1"/><path d="M259.134,166.74a4.757,4.757,0,0,1-1.94,4.385c-2.445,1.967-4.89,2.923-7.814.983" transform="translate(-93.42 23.417)" fill="none" stroke="#263238" stroke-linecap="round" stroke-linejoin="round" stroke-width="1"/><line y1="4.89" x2="5.369" transform="translate(167.655 197.466)" fill="none" stroke="#263238" stroke-linecap="round" stroke-linejoin="round" stroke-width="1"/><line y1="4.385" x2="15.123" transform="translate(128.16 178.463)" fill="none" stroke="#263238" stroke-linecap="round" stroke-linejoin="round" stroke-width="1"/><path d="M248.83,164.561s1.94-8.771,8.292-10.631" transform="translate(-94.331 2.182)" fill="none" stroke="#263238" stroke-linecap="round" stroke-linejoin="round" stroke-width="1"/><path d="M249.49,167.165a2.445,2.445,0,1,1-2.445-2.445A2.445,2.445,0,0,1,249.49,167.165Z" transform="translate(-101.344 20.069)" fill="#263238"/><path d="M256.28,163.659a2.445,2.445,0,1,1-2.419-2.419,2.445,2.445,0,0,1,2.419,2.419Z" transform="translate(-90.087 14.3)" fill="#263238"/><path d="M241.589,174.925s-5.316-7.707-9.143-.957,6.751,11.907,19,11.242Z" transform="translate(-122.81 30.807)" fill="#fff" stroke="#263238" stroke-linecap="round" stroke-linejoin="round" stroke-width="1"/><path d="M267.093,182.279s-9.781-1.754-11.163,1.037,8.717,5.608,14.325,4.545S267.093,182.279,267.093,182.279Z" transform="translate(-82.774 48.276)" fill="#fff" stroke="#263238" stroke-linecap="round" stroke-linejoin="round" stroke-width="1"/><path d="M287.392,225.835a13.288,13.288,0,0,1-8.186-1.914c-2.9-2.419-5.767-11.535-5.767-11.535s-4.332,3.827-6.724,1.914-7.229-15.388-7.229-15.388l13.475-9.621a26.575,26.575,0,0,0-3.375-6.246c-1.914-2.419-12.518-7.628-11.535-10.631S274.4,178.66,274.4,178.66s3.375,5.767,4.81,7.681,16.824,36.092,16.824,36.092,42.816,50.976,46.165,56.265,5.794,16.345,1.94,20.677-9.143,4.332-18.285.478S287.392,225.835,287.392,225.835Z" transform="translate(-79.153 31.829)" fill="#fff" stroke="#263238" stroke-linecap="round" stroke-linejoin="round" stroke-width="1"/><path d="M273.038,180.23s-13.98,7.335-13.634,9.781" transform="translate(-76.813 45.781)" fill="none" stroke="#263238" stroke-linecap="round" stroke-linejoin="round" stroke-width="1"/><path d="M273.469,182.2s-13.289,5.581-13.289,8.4" transform="translate(-75.516 49.046)" fill="none" stroke="#263238" stroke-linecap="round" stroke-linejoin="round" stroke-width="1"/><line x1="1.754" y1="1.754" transform="translate(192.372 241.372)" fill="none" stroke="#263238" stroke-linecap="round" stroke-linejoin="round" stroke-width="1"/></g></g></svg>