<svg xmlns="http://www.w3.org/2000/svg" width="773.785" height="506.458" viewBox="0 0 773.785 506.458"><g transform="translate(-42.41 -39.278)"><g transform="translate(42.41 40.921)"><path d="M246.494,177.442H99.14V76.63H246.494ZM100.3,176.278H245.331V77.794H100.3Z" transform="translate(-33.131 -34.811)" fill="#ebebeb"/><path d="M109.874,82.622a2.932,2.932,0,1,1-2.932-2.932A2.932,2.932,0,0,1,109.874,82.622Z" transform="translate(-32.334 -34.311)" fill="#a6a6a6"/><path d="M120.164,82.622a2.932,2.932,0,1,1-2.932-2.932A2.932,2.932,0,0,1,120.164,82.622Z" transform="translate(-30.651 -34.311)" fill="#ebebeb"/><path d="M130.454,82.622a2.932,2.932,0,1,1-2.932-2.932A2.932,2.932,0,0,1,130.454,82.622Z" transform="translate(-28.968 -34.311)" fill="#40a0c0"/><rect width="146.191" height="1.164" transform="translate(66.591 53.478)" fill="#ebebeb"/><path d="M689.084,210.905l6.853-11.042-3.386-2.094a3.049,3.049,0,0,1-1.431-2.9,18.054,18.054,0,0,0,0-1.943,3.083,3.083,0,0,1,1.606-2.8l3.491-1.885-6.144-11.45-3.491,1.873a3.1,3.1,0,0,1-3.223-.209,18.634,18.634,0,0,0-1.652-1.024,3.1,3.1,0,0,1-1.629-2.8l.128-3.968-12.985-.407-.128,3.991a3.084,3.084,0,0,1-1.8,2.688l-.861.43-.826.477a3.118,3.118,0,0,1-3.223,0L657,175.777l-6.853,11.042,3.386,2.106a3.072,3.072,0,0,1,1.431,2.909,17.824,17.824,0,0,0,0,1.932,3.072,3.072,0,0,1-1.617,2.8l-3.491,1.885L656,209.9l3.491-1.873a3.072,3.072,0,0,1,3.223.2,18.623,18.623,0,0,0,1.652,1.024,3.1,3.1,0,0,1,1.629,2.8l-.116,3.979,12.985.407.128-3.991a3.072,3.072,0,0,1,1.8-2.676l.861-.431.826-.477a3.107,3.107,0,0,1,3.246,0Zm-11-8.145a26.206,26.206,0,1,0,0-.047Z" transform="translate(56.95 -19.498)" fill="#ebebeb"/><path d="M288.324,99.571l-4.55-7.889-2.42,1.4A2.153,2.153,0,0,1,279.027,93a10.619,10.619,0,0,0-1.164-.675,2.164,2.164,0,0,1-1.164-1.932V87.61h-9.064v2.781a2.164,2.164,0,0,1-1.164,1.932,11.968,11.968,0,0,0-1.164.675,2.153,2.153,0,0,1-2.269.081l-2.409-1.4L256,99.571l2.42,1.4a2.153,2.153,0,0,1,1.059,2c0,.221,0,.454,0,.675v.663a2.164,2.164,0,0,1-1.047,2L256,107.716l4.55,7.889,2.42-1.4a2.129,2.129,0,0,1,2.269.081,12.8,12.8,0,0,0,1.164.675,2.164,2.164,0,0,1,1.164,1.92v2.793h9.111v-2.793a2.153,2.153,0,0,1,1.164-1.92,12.649,12.649,0,0,0,1.164-.675,2.129,2.129,0,0,1,2.327-.081l2.42,1.4,4.55-7.889-2.42-1.4a2.153,2.153,0,0,1-1.059-2c0-.221,0-.454,0-.675v-.675a2.176,2.176,0,0,1,1.059-2.013Zm-8.7,4.072a7.459,7.459,0,1,1-7.458-7.435,7.459,7.459,0,0,1,7.458,7.435Z" transform="translate(-7.473 -33.015)" fill="#ebebeb"/><path d="M102.987,267.7a35.458,35.458,0,1,1-.008,0Zm0,52.012a16.546,16.546,0,1,1,11.715-4.838,16.558,16.558,0,0,1-11.715,4.838Z" transform="translate(-38.304 -3.558)" fill="#ebebeb"/><path d="M105.727,270.328H92.09l.756-9.658h12.124Z" transform="translate(-34.284 -4.708)" fill="#ebebeb"/><path d="M83.751,273.8,74.1,283.439l-6.295-7.354,8.576-8.576Z" transform="translate(-38.255 -3.589)" fill="#ebebeb"/><path d="M69.888,291.48v13.637l-9.658-.756V292.236Z" transform="translate(-39.495 0.331)" fill="#ebebeb"/><path d="M73.353,313.78,83,323.426l-7.354,6.295-8.576-8.576Z" transform="translate(-38.376 3.979)" fill="#ebebeb"/><path d="M91.04,326.76h13.637l-.756,9.658H91.8Z" transform="translate(-34.456 6.102)" fill="#ebebeb"/><path d="M113.34,324.164l9.646-9.634,6.283,7.354-8.564,8.576Z" transform="translate(-30.808 4.102)" fill="#ebebeb"/><path d="M126.32,306.167V292.53l9.658.756v12.124Z" transform="translate(-28.685 0.503)" fill="#ebebeb"/><path d="M123.724,284.191l-9.634-9.646,7.354-6.295,8.575,8.575Z" transform="translate(-30.685 -3.468)" fill="#ebebeb"/><path d="M611.594,234.66a35.454,35.454,0,1,0,35.454,35.454A35.454,35.454,0,0,0,611.594,234.66Zm0,52.012a16.558,16.558,0,1,1,16.558-16.558,16.558,16.558,0,0,1-16.558,16.558Z" transform="translate(44.892 -8.963)" fill="#ebebeb"/><path d="M614.387,237.276H600.75l.756-9.646h12.124Z" transform="translate(48.917 -10.112)" fill="#ebebeb"/><path d="M592.411,240.753l-9.646,9.646-6.3-7.365,8.576-8.564Z" transform="translate(44.946 -8.994)" fill="#ebebeb"/><path d="M578.548,258.43v13.637l-9.658-.756V259.186Z" transform="translate(43.706 -5.075)" fill="#ebebeb"/><path d="M582.013,280.74l9.646,9.634-7.354,6.295-8.576-8.575Z" transform="translate(44.825 -1.425)" fill="#ebebeb"/><path d="M599.7,293.72h13.625l-.745,9.646H600.456Z" transform="translate(48.745 0.698)" fill="#ebebeb"/><path d="M622,291.126l9.646-9.646,6.283,7.365-8.575,8.576Z" transform="translate(52.393 -1.304)" fill="#ebebeb"/><path d="M634.98,273.127V259.49l9.646.756v12.124Z" transform="translate(54.516 -4.901)" fill="#ebebeb"/><path d="M632.384,251.139,622.75,241.5l7.354-6.295,8.576,8.575Z" transform="translate(52.516 -8.873)" fill="#ebebeb"/><path d="M696.783,296.137l-15.266.326-7.749.128c-2.595.058-5.2,0-7.8.07h-.512v-.524l-.07-13.055V282.5h.582l15.406.07c5.143,0,10.274.128,15.406.186h.326v.326c0,2.211-.093,4.41-.151,6.586Zm0,0-.163-6.574c-.058-2.164-.128-4.305-.151-6.446l.314.326c-5.131.058-10.263.186-15.406.186l-15.406.07.582-.582v13.02l-.524-.512c2.537,0,5.073,0,7.621.058l7.575.2Z" transform="translate(59.49 -1.137)" fill="#ebebeb"/><path d="M682,310.242l-15.266.326-7.761.128c-2.583,0-5.189,0-7.784.07h-.512V296.64h.582l15.406.081c5.131,0,10.274.128,15.406.186h.326v.314c0,2.211-.093,4.41-.151,6.586Zm0,0-.163-6.574c-.058-2.164-.128-4.305-.151-6.446l.314.326c-5.131.058-10.274.186-15.406.186l-15.406.07.582-.582v13.02l-.524-.512c2.537,0,5.073,0,7.621.058l7.645.14Z" transform="translate(57.084 1.175)" fill="#ebebeb"/><path d="M711.553,310.242l-15.266.326-7.749.128c-2.595,0-5.2,0-7.8.07h-.512v-.524l-.07-13.02v-.582h.582l15.406.081c5.143,0,10.274.128,15.406.186h.326v.314c0,2.211-.1,4.41-.151,6.586Zm0,0-.163-6.574c0-2.164-.128-4.305-.151-6.446l.314.326c-5.131.058-10.263.186-15.406.186l-15.406.07.582-.582v13.02l-.524-.512c2.548,0,5.073,0,7.621.058l7.656.14Z" transform="translate(61.906 1.175)" fill="#ebebeb"/><path d="M319.2,162.992l-15.266.326-7.749.128H287.88v-.524l-.07-13.02v-.582h.582l15.406.07c5.143,0,10.274.128,15.406.186h.326v.314c0,2.211-.1,4.4-.163,6.574Zm0,0-.163-6.586c0-2.164-.128-4.305-.151-6.435l.314.314c-5.131,0-10.263.186-15.406.186l-15.406.081.582-.582-.058,13.02-.524-.524c2.537,0,5.073,0,7.621.07l7.656.128Z" transform="translate(-2.27 -22.922)" fill="#ebebeb"/><path d="M304.416,177.09l-15.266.326-7.761.128c-2.583,0-5.189,0-7.784.058h-.512v-.524l-.093-13V163.5h.582l15.406.07c5.131,0,10.274.128,15.406.186h.326v.326c0,2.211-.093,4.4-.151,6.574Zm0,0-.163-6.586c-.058-2.164-.128-4.305-.151-6.435l.314.314c-5.131.058-10.274.186-15.406.186l-15.406.081.582-.582-.023,13.02-.524-.524c2.537,0,5.073,0,7.621.07l7.645.128Z" transform="translate(-4.693 -20.602)" fill="#ebebeb"/><path d="M333.973,177.09l-15.266.326-7.749.128c-2.595,0-5.19,0-7.8.058h-.512v-.524l-.07-13V163.5h.582l15.406.07c5.143,0,10.274.128,15.406.186h.326v.326c0,2.211-.1,4.4-.151,6.574Zm0,0-.163-6.586c0-2.164-.128-4.305-.151-6.435l.314.314c-5.131.058-10.263.186-15.406.186l-15.406.081.582-.582-.058,13.02-.524-.524c2.548,0,5.073,0,7.621.07l7.656.128Z" transform="translate(0.146 -20.602)" fill="#ebebeb"/><path d="M103.277,237.024l-15.266.326-7.761.128c-2.583,0-5.19,0-7.784.058H72V223.41h.582l15.406.07c5.131,0,10.274.128,15.406.186h.326v.314c0,2.211-.093,4.4-.151,6.574Zm0,0-.163-6.586c0-2.164-.128-4.305-.151-6.435l.314.314c-5.131.058-10.274.186-15.406.186l-15.406.081.582-.582-.058,13.02-.524-.524c2.537,0,5.073,0,7.621.07l7.645.128Z" transform="translate(-37.57 -10.803)" fill="#ebebeb"/><path d="M542.273,162.974l-15.266.326-7.749.128c-2.595.058-5.2,0-7.8.058h-.512v-.524l-.07-13.02v-.582h.582l15.406.07c5.143,0,10.274.14,15.406.2h.326v.314c0,2.211-.093,4.41-.151,6.574Zm0,0-.163-6.574c-.058-2.176-.128-4.317-.151-6.446l.314.314c-5.131.058-10.263.186-15.406.2l-15.406.07.582-.582-.058,13.02-.524-.524c2.537,0,5.073,0,7.621.07l7.656.128Z" transform="translate(34.217 -22.915)" fill="#ebebeb"/><path d="M695.243,54.292l-15.266.326-7.761.128c-2.583,0-5.19,0-7.784.07h-.512V40.69h.582l15.406.07c5.131,0,10.274.14,15.406.2h.326v.314c0,2.211-.093,4.41-.151,6.574Zm0,0-.163-6.574c-.058-2.176-.128-4.317-.151-6.446l.314.314c-5.131,0-10.274.186-15.406.2l-15.406.07.582-.582-.058,13.02-.524-.524c2.536,0,5.073,0,7.621.07l7.645.128Z" transform="translate(59.25 -40.69)" fill="#ebebeb"/><path d="M710.023,68.4l-15.266.326-7.749.128c-2.595.058-5.2,0-7.8.058H678.7v-.524l-.07-13.02V54.79h.582l15.406.07c5.143,0,10.274.14,15.406.2h.326v.314c0,2.211-.1,4.41-.163,6.574Zm0,0-.163-6.574c0-2.176-.128-4.317-.151-6.446l.314.314c-5.131,0-10.263.186-15.406.2l-15.406.07.582-.582V68.4l-.524-.524c2.537,0,5.073,0,7.621.07l7.656.128Z" transform="translate(61.656 -38.384)" fill="#ebebeb"/><path d="M73.745,54.3l-15.278.326-7.749.128c-2.583,0-5.19,0-7.784.07H42.41V40.7H43l15.406.081c5.131,0,10.263.128,15.406.186h.314v.314c0,2.211-.1,4.41-.151,6.586Zm0,0-.175-6.574c0-2.176-.128-4.317-.151-6.446l.326.314c-5.143.07-10.274.186-15.406.2l-15.406.07.582-.582-.07,13.02-.512-.454h7.61l7.656.128Z" transform="translate(-42.41 -40.688)" fill="#ebebeb"/></g><g transform="translate(673.6 276.042)"><path d="M632.82,316.1c-7.435-15.278-20.444-23.132-35.1-18.792s-16.93,24.772-5.992,29.939,21.887-9.914,27.67-13.009S632.82,316.1,632.82,316.1Z" transform="translate(-584.871 -234.03)" fill="#40a0c0"/><path d="M638.953,356.241c0-1.838-.1-3.677-.175-5.515l-.384-11.042c-.256-6.725-.977-13.323-3.77-19.525a30.252,30.252,0,0,0-11.787-13.59,24.76,24.76,0,0,0-6.2-2.676,14.5,14.5,0,0,0-7.238-3.968,29.5,29.5,0,0,0-10.309-.268c-.116,0-.116.209,0,.2a24.854,24.854,0,0,1,9.751.7,20.686,20.686,0,0,1,3.933,1.524,19.778,19.778,0,0,1,2.327,1.443,20.944,20.944,0,0,0-8.959.093,19.782,19.782,0,0,0-3.107,1.024,8.692,8.692,0,0,0-2.444-.209,14.632,14.632,0,0,0-3.176.454,24.365,24.365,0,0,0-6.027,2.63.1.1,0,0,0,.1.163,22.62,22.62,0,0,1,5.888-2.211,18.771,18.771,0,0,1,3.025-.442,13.386,13.386,0,0,1,1.676,0,19.386,19.386,0,0,0-9.471,9.448c0,.1.116.2.163.093a17.849,17.849,0,0,1,12.078-9.692c.326-.081.663-.116.989-.186a13.328,13.328,0,0,0-.163,1.478c-.093.745-.221,1.489-.372,2.222a35.951,35.951,0,0,1-2.967,8.808,20.386,20.386,0,0,1-2.478,4.177c-.093.116.081.244.151.116.884-1.373,1.908-2.653,2.711-4.084a30.762,30.762,0,0,0,1.99-4.259,28.922,28.922,0,0,0,1.3-4.584c.163-.826.291-1.652.384-2.49a5.491,5.491,0,0,0,.093-1.513,20.047,20.047,0,0,1,5.213-.1c-.652,3.642-1.35,7.447-3.4,10.612,0,.1.116.2.175.093a43.808,43.808,0,0,0,2.513-5.213,19.43,19.43,0,0,0,1.257-5.434,24.085,24.085,0,0,1,8.61,2.886,28.414,28.414,0,0,1,11.461,12.543,46.89,46.89,0,0,1,4.247,17.966c.489,7.808.593,15.662,1.373,23.458,0,.5.849.675.954.1a28.082,28.082,0,0,0,.058-5.224Z" transform="translate(-583.812 -233.506)" fill="#263238"/><path d="M618.612,305.2a8.684,8.684,0,0,0-1.7-1.559,23.036,23.036,0,0,0-1.885-1.443,13.834,13.834,0,0,0-4.224-1.955c-.116,0-.163.163,0,.186a11.3,11.3,0,0,1,4.177,2.048c.617.454,1.164.954,1.792,1.454a10.762,10.762,0,0,0,1.71,1.454C618.543,305.441,618.682,305.3,618.612,305.2Z" transform="translate(-580.646 -233.356)" fill="#263238"/><path d="M597.946,309.265a42.719,42.719,0,0,0-3.409,4.5A27.522,27.522,0,0,0,592,318.8c0,.058,0,.093.081,0a60.063,60.063,0,0,1,6-9.448C598.167,309.3,598.016,309.161,597.946,309.265Z" transform="translate(-583.704 -231.886)" fill="#263238"/><path d="M611.167,308.015a10.8,10.8,0,0,1-.838,2.758,17.747,17.747,0,0,1-1.42,2.455s0,.1.093.058a9.9,9.9,0,0,0,2.327-5.224C611.342,307.887,611.191,307.841,611.167,308.015Z" transform="translate(-580.939 -232.103)" fill="#263238"/><path d="M631.37,314.952s10.472-13.23,30.846-8.541c19.3,4.456,28.217,39.864,8.7,44.1s-16.069-28.531-23.178-34.081C642.575,312.346,635.012,313.218,631.37,314.952Z" transform="translate(-577.265 -232.512)" fill="#40a0c0"/><path d="M679.249,325.363a40.34,40.34,0,0,0-4.189-3.211,18.144,18.144,0,0,0-4.457-2.222,26.765,26.765,0,0,0-2.653-3.409,26.5,26.5,0,0,0-6.132-4.887h.6a29.819,29.819,0,0,1,3.223,0,18.211,18.211,0,0,1,6.272,1.559.1.1,0,0,0,.081-.175,28.751,28.751,0,0,0-6.26-1.885,18.106,18.106,0,0,0-3.176-.268,10.181,10.181,0,0,0-1.7.093h-.326a27.494,27.494,0,0,0-5.818-2.164l.57-.151a29.087,29.087,0,0,1,3.014-.489,23.073,23.073,0,0,1,6.074.093.1.1,0,0,0,0-.2,38.668,38.668,0,0,0-6.144-.244,26.376,26.376,0,0,0-5.108.663,26.286,26.286,0,0,0-3.7-.419c-7.086-.3-14.812,2.327-19.176,8.145s-5.213,13.6-5.981,20.63a157.561,157.561,0,0,0-.78,29.531c0,.582.861.477.884-.082.268-8.343.558-16.7,1.361-25.017.361-3.851.78-7.715,1.419-11.543a34.17,34.17,0,0,1,2.793-9.495,17.455,17.455,0,0,1,6.865-7.377,23.039,23.039,0,0,1,9.7-2.979,26.168,26.168,0,0,1,9.122.849,6.169,6.169,0,0,0,0,1.792,10.319,10.319,0,0,0,.454,2.222,10.549,10.549,0,0,0,.85,1.978c.372.7.849,1.315,1.268,1.978,0,.116.233,0,.151-.1a9.216,9.216,0,0,1-1.571-4,15.68,15.68,0,0,1-.244-2.071v-1.571a26.681,26.681,0,0,1,8.878,4.654c.489.4.966.814,1.431,1.245a9.82,9.82,0,0,0-1.722,2.118,21.214,21.214,0,0,0-1.8,3.211,27.518,27.518,0,0,0-1.885,7.075.1.1,0,1,0,.2,0,20.467,20.467,0,0,1,2.327-6.7,29.839,29.839,0,0,1,1.8-2.979c.349-.489.7-.966,1.07-1.431.2-.256.419-.512.605-.78a27.923,27.923,0,0,1,5.818,8.145h0a13.776,13.776,0,0,0-2.327,3.421,29.992,29.992,0,0,0-1.9,4.061,68.231,68.231,0,0,0-2.432,8.285.1.1,0,1,0,.2,0,34.907,34.907,0,0,1,2.874-8.145c.617-1.28,1.257-2.525,1.931-3.77a37.161,37.161,0,0,0,1.908-3.549,26.155,26.155,0,0,1,2.327,9.413c0,.116.2.1.2,0a32.849,32.849,0,0,0-4.829-14.37c1.233.535,2.49,1.036,3.677,1.687a20.166,20.166,0,0,1,4.224,2.967C679.214,325.6,679.342,325.491,679.249,325.363Z" transform="translate(-578.612 -232.124)" fill="#263238"/><path d="M658.957,323.551c-.617,2-1.385,3.945-1.932,5.969a23.172,23.172,0,0,0-.9,5.981s.093.058.093,0a58.014,58.014,0,0,1,2.909-11.892.093.093,0,1,0-.174-.058Z" transform="translate(-573.215 -229.556)" fill="#263238"/><path d="M670.451,319.685a11.286,11.286,0,0,0-2.7-1.92,19.782,19.782,0,0,0-3.107-1.105c-.116,0-.163.163,0,.186a12.23,12.23,0,0,1,2.99,1.245,21.717,21.717,0,0,1,2.769,1.687.058.058,0,0,0,.047-.093Z" transform="translate(-571.839 -230.671)" fill="#263238"/><path d="M640,303.057s1.943-23.772,19.606-31.474c14.754-6.435,23.2,10.146,12.8,20.293C663.911,300.09,650.379,296.39,640,303.057Z" transform="translate(-575.853 -238.28)" fill="#40a0c0"/><path d="M670.543,275.6a72.281,72.281,0,0,0-7.854,3.723,57.835,57.835,0,0,0-6.109,4.026c.3-.605.547-1.233.849-1.827a30.291,30.291,0,0,1,1.5-2.676,25.306,25.306,0,0,1,3.886-4.934c.093-.081,0-.221-.14-.128a38.187,38.187,0,0,0-4.1,4.771,26.612,26.612,0,0,0-1.675,2.688,10.207,10.207,0,0,0-1.163,2.734l-.2.14a57.78,57.78,0,0,0-8.436,8.261,2.789,2.789,0,0,1,.151-.687c.337-1.164.7-2.327,1.07-3.491a29.214,29.214,0,0,1,3.2-6.981c.07-.1-.1-.209-.175-.093a55.855,55.855,0,0,0-3.7,6.749,27.313,27.313,0,0,0-1.164,3.491,16.054,16.054,0,0,0-.57,2.4c-.768.966-1.524,1.955-2.234,2.967-7.586,10.8-11.4,23.865-12.311,36.932a115.532,115.532,0,0,0-.2,11.705,73.633,73.633,0,0,0,1.036,11.752c0,.244.43.174.43-.07-.093-3.433-.442-6.853-.512-10.286s.058-6.888.326-10.321a95.677,95.677,0,0,1,3.863-20.223,72.421,72.421,0,0,1,8.89-18.908c.745-.151,1.478-.349,2.211-.535s1.769-.454,2.641-.7A26.691,26.691,0,0,0,655,294.263c.1,0,0-.221-.1-.163a15.578,15.578,0,0,1-5,1.722c-1.373.279-2.816.465-4.2.78a66.6,66.6,0,0,1,4.107-5.4,30.751,30.751,0,0,0,10.053-.756,39.824,39.824,0,0,0,5.143-1.594c1.769-.687,3.491-1.559,5.189-2.327.14-.058,0-.244-.07-.174a29.939,29.939,0,0,1-10.193,3.339,62.42,62.42,0,0,1-9.53.78c1.257-1.443,2.548-2.839,3.933-4.154,4.654-4.422,10.158-8.482,16.29-10.6C670.706,275.739,670.648,275.553,670.543,275.6Z" transform="translate(-577.307 -237.689)" fill="#263238"/><path d="M653.153,275.4a26.677,26.677,0,0,0-2.164,3.165,17.719,17.719,0,0,0-1.559,3.689s.058.07.07,0c.593-1.164,1.094-2.385,1.687-3.491a17.369,17.369,0,0,1,2.106-3.211C653.375,275.439,653.235,275.311,653.153,275.4Z" transform="translate(-574.311 -237.424)" fill="#263238"/><path d="M667.781,282.2a18.288,18.288,0,0,1-3.619,1.513,31.4,31.4,0,0,1-3.689.989c-.058,0,0,.116,0,.1a17.749,17.749,0,0,0,3.817-.838,30.9,30.9,0,0,0,3.584-1.606C667.99,282.318,667.9,282.143,667.781,282.2Z" transform="translate(-572.508 -236.309)" fill="#263238"/><path d="M633.646,303.254c-.1,1.024-2.665-8.622-17.6-17.2-13.567-7.784-29.764-28.03-16.464-40.818C610.317,234.894,638.6,257.421,633.646,303.254Z" transform="translate(-583.276 -242.759)" fill="#40a0c0"/><path d="M642.305,357.514a262.164,262.164,0,0,0-2.327-30.032,134.979,134.979,0,0,0-6.306-26.89c-1.164-3.142-2.327-6.225-3.758-9.309a22.528,22.528,0,0,0,0-3.549c-.081-1.524-.209-3.049-.361-4.561s-.291-3.037-.466-4.55-.5-3.014-.57-4.526a.093.093,0,0,0-.186,0,33.512,33.512,0,0,1,.535,4.817q.175,2.2.244,4.4v6.074c-1.408-2.967-2.909-5.9-4.538-8.738,1.012-6.2-.3-12.671-1.571-18.722,0-.128-.209-.07-.186,0a52.3,52.3,0,0,1,.989,9.6c0,2.548,0,5.1-.07,7.633-.361-.605-.721-1.222-1.082-1.815q-2.915-4.747-6.214-9.309a14.367,14.367,0,0,0-.14-4.41,35.8,35.8,0,0,0-1.082-4.829,49.014,49.014,0,0,0-1.652-4.654c-.628-1.513-1.513-3.06-2.141-4.654a.1.1,0,0,0-.175.081,22.328,22.328,0,0,1,1.873,4.654,42.793,42.793,0,0,1,1.164,4.654c.314,1.571.57,3.142.791,4.736.151,1.047.244,2.141.419,3.2a114.647,114.647,0,0,0-10.472-12.171c-.082-.093-.209,0-.128.14a138.187,138.187,0,0,1,15.185,20.665l.489.826c-.826-.512-1.769-.919-2.548-1.35l-4.352-2.4c-1.42-.756-2.828-1.536-4.235-2.327-.721-.4-1.443-.814-2.176-1.164a17.331,17.331,0,0,1-2.537-1.4.093.093,0,1,0-.1.151c1.431.791,2.7,1.966,4.1,2.851s2.816,1.745,4.259,2.56c2.664,1.478,5.539,2.548,8.145,4.084,1.815,3.165,3.491,6.423,5.027,9.739q-2.327-1.524-4.852-2.9c-1.059-.593-2.118-1.164-3.188-1.745a15.475,15.475,0,0,1-3.014-1.815.095.095,0,0,0-.128.14A28.119,28.119,0,0,0,620.7,284.7c1.92,1.164,3.851,2.2,5.818,3.188,1.594,3.491,3.048,7.063,4.317,10.682,6.295,17.814,8.6,36.711,9.7,55.479.337,5.6.5,11.194.57,16.8s-.221,11.182-.209,16.779a.146.146,0,0,0,.291,0c.675-4.968.791-10.018,1.012-15.01S642.422,362.61,642.305,357.514Z" transform="translate(-581.649 -241.667)" fill="#263238"/><path d="M615.862,274.3a71.28,71.28,0,0,1-7.947-4.107,84.959,84.959,0,0,1-7.54-4.782s-.081,0,0,.07a63.519,63.519,0,0,0,7.237,5.061,73.544,73.544,0,0,0,8.145,3.933C615.874,274.521,615.967,274.346,615.862,274.3Z" transform="translate(-582.34 -239.054)" fill="#263238"/><path d="M617.611,256.39c-.221-.861-.489-1.722-.78-2.56a.081.081,0,0,0,0-.1c-.186-.477-.384-.954-.582-1.431a1.324,1.324,0,0,0-.07-.175l-.116-.279h0c.058,0,.093.337.151.5a1.478,1.478,0,0,0,.082.279,71.86,71.86,0,0,1,2.211,10.135.093.093,0,1,0,.175,0A33.93,33.93,0,0,0,617.611,256.39Z" transform="translate(-579.773 -241.273)" fill="#263238"/><path d="M656.7,345.43l-1.07,12.636-3.258,38.526H617.407l-3.258-38.526L613.09,345.43Z" transform="translate(-580.255 -225.965)" fill="#37474f"/><path d="M656.7,345.43l-1.07,12.636H614.149L613.09,345.43Z" transform="translate(-580.255 -225.965)" fill="#263238"/><rect width="50.476" height="12.124" transform="translate(29.403 114.392)" fill="#37474f"/></g><g transform="translate(52.079 446.099)"><path d="M50.72,389.48l94.331-.279,94.331-.1,188.661-.186L616.7,389.1l94.331.1,94.331.279-94.331.291-94.331.1-188.661.186-188.661-.186-94.331-.1Z" transform="translate(-50.72 -388.91)" fill="#263238"/></g><g transform="translate(87.3 491.49)"><ellipse cx="342.101" cy="27.123" rx="342.101" ry="27.123" transform="translate(0)" fill="#ebebeb"/></g><g transform="translate(119.206 39.278)"><rect width="490.63" height="328.196" transform="translate(63.903 100.582)" fill="#ebebeb"/><rect width="483.498" height="320.191" transform="translate(67.464 104.584)" fill="#263238"/><rect width="618.437" height="22.527" transform="translate(0 453.399)" fill="#dbdbdb"/><path d="M108.41,432.4l63.9-24.609h490.63l63.9,24.609Z" transform="translate(-108.41 20.999)" fill="#ebebeb"/><path d="M168.23,423.661l41.237-15.871H606.221l41.237,15.871Z" transform="translate(-98.625 20.999)" fill="#263238"/><rect width="428.857" height="271.542" transform="translate(94.796 128.915)" fill="#fff"/><rect width="421.608" height="65.637" transform="translate(94.424 139.363)" fill="#40a0c0"/><rect width="429.217" height="10.449" transform="translate(94.424 128.915)" fill="#455a64"/><path d="M197.43,154.925a2.595,2.595,0,1,1-2.595-2.595,2.595,2.595,0,0,1,2.595,2.595Z" transform="translate(-94.698 -20.786)" fill="#c7c7c7"/><path d="M206.53,154.925a2.595,2.595,0,1,1-2.595-2.595,2.595,2.595,0,0,1,2.595,2.595Z" transform="translate(-93.21 -20.786)" fill="#fff"/><path d="M215.62,154.925a2.595,2.595,0,1,1-2.595-2.595,2.595,2.595,0,0,1,2.595,2.595Z" transform="translate(-91.723 -20.786)" fill="#40a0c0"/><rect width="7.61" height="261.093" transform="translate(516.031 139.363)" fill="#dbdbdb"/><path d="M555.446,249.348h0a1.955,1.955,0,0,1-1.966-1.966V162.336a1.955,1.955,0,0,1,1.966-1.966h0a1.966,1.966,0,0,1,1.966,1.966v85.045A1.966,1.966,0,0,1,555.446,249.348Z" transform="translate(-35.61 -19.471)" fill="#a6a6a6"/><rect width="102.499" height="13.684" transform="translate(391.553 152.104)" fill="#fff"/><path d="M547.59,183.843H444.8V169.88H547.59Zm-102.51-.279H547.31v-13.4H445.033Z" transform="translate(-53.387 -17.915)" fill="#c7c7c7"/><rect width="13.963" height="13.963" transform="translate(480.24 151.965)" fill="#455a64"/><path d="M531.485,179.79l-1.257.966-2.327-3.1-.861-1.164a2.049,2.049,0,0,0,.489-.279,2.13,2.13,0,0,0,.651-.838l.908,1.164Z" transform="translate(-39.935 -17.016)" fill="#fff"/><path d="M529.616,173.12a3.491,3.491,0,1,0-1.164,5.143,3.056,3.056,0,0,0,.477-.314,3.486,3.486,0,0,0,.686-4.829Zm-1.489,3.735a2.07,2.07,0,1,1,.652-.838,2.13,2.13,0,0,1-.651.838Z" transform="translate(-40.545 -17.618)" fill="#fff"/><rect width="0.733" height="8.308" transform="translate(394.415 154.792)" fill="#c7c7c7"/><rect width="236.065" height="13.684" transform="translate(150.345 152.104)" fill="#fff"/><path d="M473.856,183.843H237.5V169.88H473.856Zm-236.076-.279h235.8v-13.4h-235.8Z" transform="translate(-87.295 -17.915)" fill="#c7c7c7"/><rect width="0.733" height="8.308" transform="translate(153.207 154.792)" fill="#c7c7c7"/><path d="M216.13,181.215l-4.98-4.584,4.968-4.771.78.8-4.119,3.956,4.107,3.782Z" transform="translate(-91.605 -17.591)" fill="#fff"/><path d="M225.878,171.85l4.98,4.6-4.98,4.771-.768-.814,4.119-3.944-4.107-3.782Z" transform="translate(-89.322 -17.593)" fill="#fff"/><rect width="76.528" height="58.714" transform="translate(372.296 376.627) rotate(180)" fill="#40a0c0"/><path d="M369.16,324.327a6.981,6.981,0,1,0,5.457-5.457A6.981,6.981,0,0,0,369.16,324.327Z" transform="translate(-65.782 6.432)" fill="#fff" opacity="0.6"/><path d="M384.29,356.543h51.29l-25.645-31.6Z" transform="translate(-63.285 7.448)" fill="#40a0c0"/><path d="M384.29,356.543h51.29l-25.645-31.6Z" transform="translate(-63.285 7.448)" opacity="0.2"/><path d="M362.6,355.012h45.472L385.336,334.44Z" transform="translate(-66.832 9.002)" fill="#40a0c0"/><path d="M362.6,355.012h45.472L385.336,334.44Z" transform="translate(-66.832 9.002)" opacity="0.1"/><rect width="76.528" height="12.648" transform="translate(295.756 363.99)" fill="#40a0c0"/><rect width="76.528" height="12.648" transform="translate(295.756 363.99)" opacity="0.1"/><rect width="57.48" height="4.84" transform="translate(115.647 317.925)" fill="#a6a6a6"/><rect width="166.355" height="4.84" transform="translate(115.647 329.141)" fill="#ebebeb"/><rect width="166.355" height="4.84" transform="translate(115.647 339.776)" fill="#ebebeb"/><rect width="166.355" height="4.84" transform="translate(115.647 350.423)" fill="#ebebeb"/><rect width="166.355" height="4.84" transform="translate(115.647 361.058)" fill="#ebebeb"/><rect width="166.355" height="4.84" transform="translate(115.647 371.705)" fill="#ebebeb"/><rect width="57.48" height="12.939" transform="translate(254.193 222.977)" fill="#a6a6a6"/><rect width="118.102" height="4.84" transform="translate(254.193 244.841)" fill="#ebebeb"/><rect width="118.102" height="4.84" transform="translate(254.193 255.476)" fill="#ebebeb"/><rect width="118.102" height="4.84" transform="translate(254.193 266.123)" fill="#ebebeb"/><rect width="118.102" height="4.84" transform="translate(254.193 276.758)" fill="#ebebeb"/><rect width="118.102" height="4.84" transform="translate(254.193 290.918)" fill="#ebebeb"/><rect width="118.102" height="4.84" transform="translate(254.193 301.553)" fill="#ebebeb"/><rect width="105.117" height="13.172" transform="translate(389.062 222.977)" fill="#ee7a15"/><rect width="104.558" height="140.257" transform="translate(389.353 236.149)" fill="#fff"/><path d="M547.92,382.792H442.78V242H547.92Zm-104.558-.465H547.338V242.5H443.362Z" transform="translate(-53.718 -6.119)" fill="#dbdbdb"/><path d="M443.337,382.579l-.547-.175L547.36,242.16l.535.163Z" transform="translate(-53.716 -6.092)" fill="#dbdbdb"/><path d="M547.36,382.579,442.79,242.323l.547-.163L547.9,382.4Z" transform="translate(-53.716 -6.092)" fill="#dbdbdb"/><rect width="125.281" height="82.951" transform="translate(115.868 223.21)" fill="#fff"/><path d="M207.82,314.321V230.94h125.7v83.381H207.82Zm.4-82.962V313.9H333.078V231.359Z" transform="translate(-92.15 -7.928)" fill="#dbdbdb"/><path d="M208.16,231.3c10.542,6.679,21.014,13.462,31.475,20.258l31.288,20.514,31.149,20.735,15.522,10.472,15.452,10.554-15.766-10.077-15.7-10.181-31.3-20.514-31.149-20.735C228.778,245.344,218.446,238.374,208.16,231.3Z" transform="translate(-92.094 -7.869)" fill="#dbdbdb"/><path d="M333.046,231.3q-15.411,10.612-30.974,20.944l-31.149,20.793-31.288,20.514-15.708,10.181L208.16,313.809l15.452-10.554,15.522-10.472,31.149-20.735,31.3-20.514C312.043,244.762,322.5,237.932,333.046,231.3Z" transform="translate(-92.094 -7.869)" fill="#dbdbdb"/><path d="M425.177,184.128a11.74,11.74,0,1,0-7.954-4.2,11.74,11.74,0,0,0,7.954,4.2Zm-9.134-12.66a10.309,10.309,0,1,1,9.309,11.217,10.309,10.309,0,0,1-9.309-11.217Zm9.134,12.66a11.74,11.74,0,1,0-7.954-4.2,11.74,11.74,0,0,0,7.954,4.2Zm-9.134-12.66a10.309,10.309,0,1,1,9.309,11.217,10.309,10.309,0,0,1-9.309-11.217Zm9.134,12.66a11.74,11.74,0,1,0-7.954-4.2,11.74,11.74,0,0,0,7.954,4.2Zm-9.134-12.66a10.309,10.309,0,1,1,9.309,11.217,10.309,10.309,0,0,1-9.309-11.217Zm7.97,25.6a22.756,22.756,0,1,0-.047,0Zm-11.217-25.9a12.486,12.486,0,1,1-.047,0Zm1.827.163a5.089,5.089,0,1,0-.047,0Zm1.42.14a10.309,10.309,0,1,1,9.309,11.217,10.309,10.309,0,0,1-9.309-11.217Zm9.134,12.66a11.74,11.74,0,1,0-7.954-4.2,11.74,11.74,0,0,0,7.954,4.2Zm-9.134-12.66a10.309,10.309,0,1,1,9.309,11.217,10.309,10.309,0,0,1-9.309-11.217Zm9.134,12.66a11.74,11.74,0,1,0-7.954-4.2,11.74,11.74,0,0,0,7.954,4.2Zm-9.134-12.66a10.309,10.309,0,1,1,9.309,11.217,10.309,10.309,0,0,1-9.309-11.217Z" transform="translate(-60.468 -21.552)" fill="#ee7a15"/><path d="M420.6,149.186l9.471.884.1-6.749-8.436-.791Z" transform="translate(-57.345 -22.389)" fill="#ee7a15"/><path d="M435.85,152.988l6.074,7.319,4.852-4.7-5.411-6.516Z" transform="translate(-54.851 -21.316)" fill="#ee7a15"/><path d="M443.794,166.18l-.884,9.483,6.76.093.78-8.424Z" transform="translate(-53.696 -18.52)" fill="#ee7a15"/><path d="M440.509,181.43,433.19,187.5l4.7,4.852,6.516-5.411Z" transform="translate(-55.286 -16.026)" fill="#ee7a15"/><path d="M427.086,189.374l-9.471-.884-.1,6.76,8.436.78Z" transform="translate(-57.851 -14.871)" fill="#ee7a15"/><path d="M412.026,186.1l-6.074-7.331-4.852,4.712L406.511,190Z" transform="translate(-60.535 -16.461)" fill="#ee7a15"/><path d="M403.606,172.678l.884-9.483-6.76-.1-.78,8.436Z" transform="translate(-61.214 -19.026)" fill="#ee7a15"/><path d="M407.408,157.616l7.319-6.085-4.7-4.84-6.516,5.4Z" transform="translate(-60.141 -21.708)" fill="#ee7a15"/><g transform="translate(335.736 120.141)" opacity="0.3"><path d="M425.177,184.128a11.74,11.74,0,1,0-7.954-4.2,11.74,11.74,0,0,0,7.954,4.2Zm-9.134-12.66a10.309,10.309,0,1,1,9.309,11.217,10.309,10.309,0,0,1-9.309-11.217Zm9.134,12.66a11.74,11.74,0,1,0-7.954-4.2,11.74,11.74,0,0,0,7.954,4.2Zm-9.134-12.66a10.309,10.309,0,1,1,9.309,11.217,10.309,10.309,0,0,1-9.309-11.217Zm9.134,12.66a11.74,11.74,0,1,0-7.954-4.2,11.74,11.74,0,0,0,7.954,4.2Zm-9.134-12.66a10.309,10.309,0,1,1,9.309,11.217,10.309,10.309,0,0,1-9.309-11.217Zm7.97,25.6a22.756,22.756,0,1,0-.047,0Zm-11.217-25.9a12.486,12.486,0,1,1-.047,0Zm1.827.163a5.089,5.089,0,1,0-.047,0Zm1.42.14a10.309,10.309,0,1,1,9.309,11.217,10.309,10.309,0,0,1-9.309-11.217Zm9.134,12.66a11.74,11.74,0,1,0-7.954-4.2,11.74,11.74,0,0,0,7.954,4.2Zm-9.134-12.66a10.309,10.309,0,1,1,9.309,11.217,10.309,10.309,0,0,1-9.309-11.217Zm9.134,12.66a11.74,11.74,0,1,0-7.954-4.2,11.74,11.74,0,0,0,7.954,4.2Zm-9.134-12.66a10.309,10.309,0,1,1,9.309,11.217,10.309,10.309,0,0,1-9.309-11.217Z" transform="translate(-396.204 -141.693)"/><path d="M420.6,149.186l9.471.884.1-6.749-8.436-.791Z" transform="translate(-393.082 -142.53)"/><path d="M435.85,152.988l6.074,7.319,4.852-4.7-5.411-6.516Z" transform="translate(-390.587 -141.457)"/><path d="M443.794,166.18l-.884,9.483,6.76.093.78-8.424Z" transform="translate(-389.432 -138.662)"/><path d="M440.509,181.43,433.19,187.5l4.7,4.852,6.516-5.411Z" transform="translate(-391.022 -136.167)"/><path d="M427.086,189.374l-9.471-.884-.1,6.76,8.436.78Z" transform="translate(-393.587 -135.012)"/><path d="M412.026,186.1l-6.074-7.331-4.852,4.712L406.511,190Z" transform="translate(-396.271 -136.602)"/><path d="M403.606,172.678l.884-9.483-6.76-.1-.78,8.436Z" transform="translate(-396.95 -139.167)"/><path d="M407.408,157.616l7.319-6.085-4.7-4.84-6.516,5.4Z" transform="translate(-395.877 -141.85)"/></g><path d="M521.761,200.975a7.528,7.528,0,1,0-6.8-8.145A7.528,7.528,0,0,0,521.761,200.975Zm-5.818-8.145a2.615,2.615,0,1,1-.058.035Zm5.818,8.145a7.528,7.528,0,1,0-6.8-8.145A7.528,7.528,0,0,0,521.761,200.975Zm-5.818-8.145a2.615,2.615,0,1,1-.058.035Zm5.818,8.145a7.528,7.528,0,1,0-6.8-8.145A7.528,7.528,0,0,0,521.761,200.975Zm-5.818-8.145a2.615,2.615,0,1,1-.058.035Zm5.085,16.453a15.859,15.859,0,1,0-10.758-5.65A15.871,15.871,0,0,0,521.028,209.283Zm-7.191-16.6a3.486,3.486,0,1,1-.035,0Zm1.164.1a8.309,8.309,0,1,0-.035,0Zm.919.081a2.653,2.653,0,1,1-.035,0Zm5.818,8.145a5.529,5.529,0,1,1,.023-.035Zm-5.818-8.145a2.653,2.653,0,1,1-.035,0Zm5.818,8.145a5.529,5.529,0,1,1,.023-.035Zm-5.818-8.145a2.653,2.653,0,1,1-.035,0Z" transform="translate(-43.278 -16.651)" fill="#ee7a15"/><path d="M518.83,178.59l6.074.559.07-4.328-5.4-.5Z" transform="translate(-41.278 -17.189)" fill="#ee7a15"/><path d="M528.61,181.02l3.9,4.7,3.107-3.025-3.467-4.166Z" transform="translate(-39.678 -16.5)" fill="#ee7a15"/><path d="M533.7,189.48l-.559,6.074,4.328.07.5-5.411Z" transform="translate(-38.937 -14.709)" fill="#ee7a15"/><path d="M531.6,199.26l-4.7,3.9,3.025,3.107L534.1,202.8Z" transform="translate(-39.958 -13.11)" fill="#ee7a15"/><path d="M522.992,204.349l-6.074-.559-.058,4.328,5.4.5Z" transform="translate(-41.6 -12.369)" fill="#ee7a15"/><path d="M513.345,202.251l-3.9-4.7-3.107,3.025,3.456,4.177Z" transform="translate(-43.321 -13.389)" fill="#ee7a15"/><path d="M507.94,193.644l.57-6.074-4.34-.07-.5,5.411Z" transform="translate(-43.758 -15.033)" fill="#ee7a15"/><path d="M510.37,183.983l4.7-3.886-3.014-3.107-4.177,3.456Z" transform="translate(-43.069 -16.752)" fill="#ee7a15"/><g transform="translate(459.912 157.085)" opacity="0.6"><path d="M521.761,200.975a7.528,7.528,0,1,0-6.8-8.145A7.528,7.528,0,0,0,521.761,200.975Zm-5.818-8.145a2.615,2.615,0,1,1-.058.035Zm5.818,8.145a7.528,7.528,0,1,0-6.8-8.145A7.528,7.528,0,0,0,521.761,200.975Zm-5.818-8.145a2.615,2.615,0,1,1-.058.035Zm5.818,8.145a7.528,7.528,0,1,0-6.8-8.145A7.528,7.528,0,0,0,521.761,200.975Zm-5.818-8.145a2.615,2.615,0,1,1-.058.035Zm5.085,16.453a15.859,15.859,0,1,0-10.758-5.65A15.871,15.871,0,0,0,521.028,209.283Zm-7.191-16.6a3.486,3.486,0,1,1-.035,0Zm1.164.1a8.309,8.309,0,1,0-.035,0Zm.919.081a2.653,2.653,0,1,1-.035,0Zm5.818,8.145a5.529,5.529,0,1,1,.023-.035Zm-5.818-8.145a2.653,2.653,0,1,1-.035,0Zm5.818,8.145a5.529,5.529,0,1,1,.023-.035Zm-5.818-8.145a2.653,2.653,0,1,1-.035,0Z" transform="translate(-503.19 -173.783)" fill="#fff"/><path d="M518.83,178.59l6.074.559.07-4.328-5.4-.5Z" transform="translate(-501.19 -174.32)" fill="#fff"/><path d="M528.61,181.02l3.9,4.7,3.107-3.025-3.467-4.166Z" transform="translate(-499.591 -173.631)" fill="#fff"/><path d="M533.7,189.48l-.559,6.074,4.328.07.5-5.411Z" transform="translate(-498.85 -171.84)" fill="#fff"/><path d="M531.6,199.26l-4.7,3.9,3.025,3.107L534.1,202.8Z" transform="translate(-499.87 -170.241)" fill="#fff"/><path d="M522.992,204.349l-6.074-.559-.058,4.328,5.4.5Z" transform="translate(-501.513 -169.5)" fill="#fff"/><path d="M513.345,202.251l-3.9-4.7-3.107,3.025,3.456,4.177Z" transform="translate(-503.233 -170.52)" fill="#fff"/><path d="M507.94,193.644l.57-6.074-4.34-.07-.5,5.411Z" transform="translate(-503.67 -172.164)" fill="#fff"/><path d="M510.37,183.983l4.7-3.886-3.014-3.107-4.177,3.456Z" transform="translate(-502.981 -173.883)" fill="#fff"/></g><path d="M443.661,204.1a31,31,0,1,0,31.812-30.183A31,31,0,0,0,443.661,204.1Zm16.511.442a14.486,14.486,0,1,1,3.991,10.354,14.475,14.475,0,0,1-3.991-10.354Z" transform="translate(-53.575 -17.256)" fill="#532c0b"/><path d="M465.85,176.084l11.915.3-.442-8.448-10.588-.279Z" transform="translate(-49.944 -18.278)" fill="#532c0b"/><path d="M485.25,179.609l8.215,8.645,5.667-6.283-7.307-7.691Z" transform="translate(-46.771 -17.195)" fill="#263238"/><path d="M496.214,195.39,495.9,207.3l8.459-.442.279-10.588Z" transform="translate(-45.029 -13.743)" fill="#532c0b"/><path d="M493.415,214.79l-8.645,8.2,6.283,5.678,7.7-7.307Z" transform="translate(-46.849 -10.569)" fill="#532c0b"/><path d="M477.355,225.754l-11.915-.314.431,8.459,10.6.279Z" transform="translate(-50.011 -8.827)" fill="#532c0b"/><path d="M458.22,222.955l-8.2-8.645-5.667,6.283,7.3,7.691Z" transform="translate(-53.461 -10.648)" fill="#532c0b"/><path d="M446.544,206.9l.314-11.927-8.459.442-.279,10.6Z" transform="translate(-54.48 -13.811)" fill="#532c0b"/><path d="M450.069,187.76l8.645-8.2-6.283-5.667-7.691,7.3Z" transform="translate(-53.397 -17.259)" fill="#532c0b"/><path d="M479.884,194.424l-10.158-3.014L462,198.752l2.478,10.3,10.146,3.014,7.7-7.3Zm-7.773,10.658a1.387,1.387,0,1,1,0,.035Z" transform="translate(-50.574 -14.394)" fill="#532c0b"/><path d="M513.251,107.908c-5.818,6.842-15.79,9.39-24.528,9.832s-18.9-.477-26.913-4.654a21.445,21.445,0,0,1-8.738-7.761c-2.176-3.6-2.4-7.365,0-10.693,1.943-2.676,6.155-4.561,6.19-6.981s-2-4.48-2.5-6.807c-.919-4.084,1.361-7.1,4.294-9.7,6.981-6.19,5.155-14.486,9.46-22.224,2.455-4.41,9.309-12.5,21.445-8.61,4.654,1.466,7.714,5.632,9.553,9.937,2.164,5.05.512,11.636,3.165,16.5,2.269,4.142,5.655,4.852,7.808,9.2.943,1.885,1.373,4.073-.71,8.471-.756,1.594-1.559,4.014-.908,5.934.919,2.641,4.084,3.9,5.1,6.656C517.265,100.752,515.8,104.882,513.251,107.908Z" transform="translate(-52.315 -39.278)" fill="#263238"/><path d="M455.881,103.7c-4.166-.721-5.888-6.4-3.211-9.239,1.7-1.815,4.224-2.618,5.923-4.422,2.793-2.955.361-5.7-1.094-8.657-3.153-6.423,1.315-10.67,6.027-14.545,3.572-2.944,4.329-6.365,4.654-10.763a.07.07,0,0,0-.128,0c-.361,3.235-.861,6.423-3.2,8.925-1.908,2.036-4.422,3.409-6.26,5.527a9.646,9.646,0,0,0-1.42,11.566c.605,1.164,1.757,2.548,1.99,3.828.547,3.049-1.792,4.573-4.014,6.039-1.71,1.164-3.6,2.327-4.259,4.375-1,3.049,1.734,7.249,4.968,7.621C455.986,103.98,456.044,103.7,455.881,103.7Z" transform="translate(-52.425 -36.537)" fill="#263238"/><path d="M458.2,107.468c-2.537-1.559-5.294-2.979-6.76-5.667-2.176-3.968.652-6.888,3.281-9.634a5.62,5.62,0,0,0,2.048-4.049c0-2.525-1.9-4.654-2.176-7.191-.652-5.992,5.411-9.506,8.506-13.846s4.235-9.646,5.434-14.812a.093.093,0,0,0-.175,0c-1.582,6.586-3.654,12.8-8.494,17.791-3.374,3.491-6.981,7.3-5.5,12.462.361,1.28,1.105,2.443,1.431,3.712.663,2.513-.058,4.131-1.769,5.9s-3.549,3.491-3.9,5.876c-.663,4.747,4.119,7.97,7.877,9.867a.226.226,0,1,0,.2-.407Z" transform="translate(-52.526 -37.163)" fill="#263238"/><path d="M510.177,93.11c-2.013-2.932-5.271-4.445-4.305-8.552.652-2.827,2.327-5.062,1.769-8.145a10.9,10.9,0,0,0-3.875-6.085c-2.4-2.141-5.05-3.9-6.749-6.656-1.873-3-2.653-6.5-3.491-9.867,0-.07-.128,0-.116,0,.826,4.573,1.873,9.309,5.294,12.8,1.792,1.827,3.991,3.223,5.76,5.073,3.188,3.316,3.06,6.853,1.548,10.856-.7,1.838-1.326,3.677-.512,5.6s2.618,3.13,3.863,4.736c5.248,6.865-3.328,15.126-10.263,16.185-.314,0-.291.512,0,.477,5.178-.628,10.763-5.062,12.055-10.018a7.8,7.8,0,0,0-.977-6.4Z" transform="translate(-45.436 -36.907)" fill="#263238"/><path d="M510.08,96.9c0-3.014-1.827-4.724-3.235-7.133-2.222-3.77.291-7.354.7-11.263A9.542,9.542,0,0,0,505.1,71.4c-2.234-2.746-5.131-4.747-6.981-7.877a19.048,19.048,0,0,1-2.432-10.984c0-.07-.1-.058-.116,0a18.279,18.279,0,0,0,4.584,14.382c2.246,2.5,5.318,4.573,6.516,7.889,1.268,3.491-.605,6.609-1.164,10.042a7.505,7.505,0,0,0,1.315,5.818,15.654,15.654,0,0,1,2.478,4.1,9.111,9.111,0,0,1-.838,6.423c-2.967,6.237-9.867,9.983-16.36,10.81-.221,0-.221.4,0,.372a22.6,22.6,0,0,0,15.033-8.192A12.334,12.334,0,0,0,510.08,96.9Z" transform="translate(-45.677 -37.117)" fill="#263238"/><path d="M483.4,75.433c-16.29,17.128-36.664,52.931-32.638,60.052,4.468,7.936,28.042-16.453,27.3-17.616-.628-.989,7.517-22.55,13.439-38.316S487.45,71.174,483.4,75.433Z" transform="translate(-52.496 -34.263)" fill="#d3766a"/><path d="M461.53,95.968,485,100.192s5.818-16.627,6.981-25.854c.652-5.178-2.4-5.387-6.225-2.641C472.421,81.319,461.53,95.968,461.53,95.968Z" transform="translate(-50.651 -34.261)" fill="#40a0c0"/><path d="M477.007,82.051a8.147,8.147,0,0,0-.745,2.222,7.853,7.853,0,0,0-.14,2.327,8.146,8.146,0,0,0,.733-2.222,8.261,8.261,0,0,0,.151-2.327Zm-12.229,9.832a9.636,9.636,0,0,0-1.164-.151,4.573,4.573,0,0,0-.314.384,10.647,10.647,0,0,0,1.361.361,8.227,8.227,0,0,0,2.327.151,8.343,8.343,0,0,0-2.211-.745Zm24.8-12.636a8.541,8.541,0,0,0-1.559-1.757,8.683,8.683,0,0,0,1.047,2.106,11.1,11.1,0,0,0,1.164,1.35,1.9,1.9,0,0,1,.116-.442h0a11.961,11.961,0,0,0-.768-1.257ZM479.9,95.537a8.471,8.471,0,0,0-1.757,1.548,9.1,9.1,0,0,0,3.863-2.606,8.321,8.321,0,0,0-2.106,1.059Z" transform="translate(-50.361 -33.027)" fill="#fff"/><path d="M484.355,93.19a156.513,156.513,0,0,0-19.781-3.91s-.07.14,0,.151c5.341,1.373,16.15,3.339,19.781,3.979C484.378,93.422,484.425,93.213,484.355,93.19Z" transform="translate(-50.158 -31.099)" fill="#263238"/><path d="M491.249,74.328c-1.164,9.227-6.981,25.854-6.981,25.854L466.29,96.948,489.282,70C490.783,70,491.621,71.373,491.249,74.328Z" transform="translate(-49.872 -34.252)" opacity="0.1"/><path d="M470.55,135.05h59.482s-6.981-40.725-26.169-62.565a12.1,12.1,0,0,0-17.384-.908c-1.105.989-13.567,17.454-15.534,25.866-1.292,5.5,3.9,11.566,3.9,11.566Z" transform="translate(-49.175 -34.526)" fill="#40a0c0"/><path d="M502.564,87.5a7.936,7.936,0,0,0-1.757,1.559A8.435,8.435,0,0,0,502.9,88a7.925,7.925,0,0,0,1.757-1.548,8.028,8.028,0,0,0-2.094,1.047Zm14.23,46.252a8.253,8.253,0,0,0-1.757,1.559,8.052,8.052,0,0,0,2.094-1.059A8.247,8.247,0,0,0,518.9,132.7,8.284,8.284,0,0,0,516.795,133.749Zm-19.967-16.744a8.248,8.248,0,0,0-1.769,1.548,8.914,8.914,0,0,0,3.863-2.606,8.052,8.052,0,0,0-2.094,1Zm-22.771,16a8.2,8.2,0,0,0-1.757,1.559,8.318,8.318,0,0,0,2.106-1.059,8.472,8.472,0,0,0,1.757-1.548,7.923,7.923,0,0,0-2.106.989Zm4.375-33a8.472,8.472,0,0,0-1.757,1.548,9.1,9.1,0,0,0,3.863-2.606,8.321,8.321,0,0,0-2.106,1.059Zm26.588,5.411a8.143,8.143,0,0,0-1.548-1.757,8.4,8.4,0,0,0,1.047,2.094,7.691,7.691,0,0,0,1.559,1.757,8.434,8.434,0,0,0-1.059-2.106ZM525.964,124.5a8,8,0,0,0-1.559-1.769,8.323,8.323,0,0,0,1.059,2.106,8.143,8.143,0,0,0,1.548,1.757,7.682,7.682,0,0,0-1.094-2.153Zm-38.223,4.131a7.935,7.935,0,0,0-1.559-1.757,8.437,8.437,0,0,0,1.059,2.094,8.148,8.148,0,0,0,1.548,1.757,8.03,8.03,0,0,0-1.094-2.106Zm.361-44.914a8.542,8.542,0,0,0-1.559-1.757,8.68,8.68,0,0,0,1.047,2.106,8.892,8.892,0,0,0,1.559,1.757A8.287,8.287,0,0,0,488.1,83.716Zm7.214-33.371a8.227,8.227,0,0,0-2.327-.151,7.819,7.819,0,0,0,2.222.745,8.308,8.308,0,0,0,2.327.151,8.412,8.412,0,0,0-2.222-.791Zm11.543,74.527a8.228,8.228,0,0,0-2.327-.151,8.344,8.344,0,0,0,2.222.745,7.925,7.925,0,0,0,2.327.14A8.251,8.251,0,0,0,506.858,124.871ZM487.45,109.466a8.308,8.308,0,0,0-2.327-.14,8.412,8.412,0,0,0,2.234.745,8.7,8.7,0,0,0,2.327.14,8.145,8.145,0,0,0-2.281-.745Zm27.763-11.333a8.679,8.679,0,0,0-2.327-.14,8.272,8.272,0,0,0,2.234.745,8.681,8.681,0,0,0,2.327.14,8.275,8.275,0,0,0-2.281-.745Zm-16-23.271a8.307,8.307,0,0,0-2.327-.151,8.274,8.274,0,0,0,2.234.745,7.831,7.831,0,0,0,2.327.14,8.308,8.308,0,0,0-2.281-.7ZM517.1,112.3a8.279,8.279,0,0,0-.745,2.234,8.677,8.677,0,0,0-.14,2.327,8.142,8.142,0,0,0,.745-2.222,8.756,8.756,0,0,0,.093-2.3Zm-37.886,3.049a8.382,8.382,0,0,0-.733,2.234,8.261,8.261,0,0,0-.151,2.327,8.142,8.142,0,0,0,.745-2.222,8.309,8.309,0,0,0,.093-2.3Zm23.19,16.918a8.148,8.148,0,0,0-.733,2.222,8.308,8.308,0,0,0-.151,2.327,8.413,8.413,0,0,0,.745-2.234,8.251,8.251,0,0,0,.093-2.281ZM492.9,94.84a8.272,8.272,0,0,0-.745,2.234,8.68,8.68,0,0,0-.14,2.327,8.273,8.273,0,0,0,.745-2.234A8.683,8.683,0,0,0,492.9,94.84Z" transform="translate(-48.889 -37.496)" fill="#fff"/><path d="M483.188,101.87a51.369,51.369,0,0,1,7.389,1.28c1.164.326,2.385.7,3.561,1.094.582.2,1.164.372,1.769.559a8.274,8.274,0,0,0,1.908.372c.058,0,.058.081,0,.093a13.8,13.8,0,0,1-1.838-.058,14.453,14.453,0,0,1-1.745-.337c-1.222-.314-2.432-.687-3.654-1.012-2.455-.652-4.922-1.3-7.424-1.78A.106.106,0,1,1,483.188,101.87Z" transform="translate(-47.129 -29.04)" fill="#263238"/><path d="M477.872,103.755a57.736,57.736,0,0,1,6.179-.244,30.262,30.262,0,0,1,3.083.209l1.478.186c.535.07,1.059.221,1.606.279v.093h-1.536l-1.547-.058-3.083-.1c-2.06-.081-4.107-.151-6.179-.163A.1.1,0,0,1,477.872,103.755Z" transform="translate(-47.991 -28.772)" fill="#263238"/><path d="M450.728,128.748c3.828,5.294,14.033,6.144,39.561,10.693,3.491.628,14.673-23.062,10.938-23.935-4.654-1.094-23.19-4.305-24.563-4.375C464.982,110.6,448.121,125.165,450.728,128.748Z" transform="translate(-52.462 -27.527)" fill="#d3766a"/><path d="M492.082,114s10.8,1.443,16.232,3.956a38.688,38.688,0,0,1,14.079,11.868c3.968,5.422,9.821,21.282,5.55,23.772-3.875,2.246-9.041-14.265-9.041-14.265s8.052,15.964,2.9,17.814-10.065-17.663-10.065-17.663,7.9,16.592,2.327,17.663c-4.247.8-9.681-16.616-9.681-16.616s6.69,14.3,2.327,15.324c-4.782,1.164-10.81-14.638-10.81-14.638-11.438.721-17.186-3.607-20.944-7.179C474.07,133.141,492.082,114,492.082,114Z" transform="translate(-48.46 -27.055)" fill="#d3766a"/><path d="M510.648,130.844c1.012,1.838,2.048,3.7,2.9,5.62s1.617,3.886,2.327,5.876a35.094,35.094,0,0,1,1.838,8.005,78.36,78.36,0,0,0-4.654-13.672c-.849-1.92-1.594-3.875-2.444-5.818C510.555,130.82,510.625,130.8,510.648,130.844Z" transform="translate(-42.626 -24.305)" fill="#263238"/><path d="M504.629,133.352c1.164,2.409,2.455,4.759,3.549,7.214s1.885,4.864,2.793,7.389c.07.186-.058.163-.14,0-1-2.478-2.129-4.654-3.165-7.156s-1.978-4.98-3.1-7.4C504.547,133.341,504.606,133.317,504.629,133.352Z" transform="translate(-43.611 -23.893)" fill="#263238"/><path d="M499.078,134.584a60.16,60.16,0,0,1,4.584,11.45c.058.2-.1.14-.174,0-1.454-3.828-2.56-6.842-4.538-11.322C498.927,134.584,499.009,134.514,499.078,134.584Z" transform="translate(-44.53 -23.693)" fill="#263238"/><path d="M497.34,150.43a20.326,20.326,0,0,0,2.327,2.734,8.665,8.665,0,0,0,1.408,1.105,2.525,2.525,0,0,0,1.617.465,1.547,1.547,0,0,0,1.164-1.059,4.981,4.981,0,0,0,.256-1.722,14.938,14.938,0,0,0-.465-3.491l-.558-2.246,1,2.083a40,40,0,0,0,2.013,3.665,14.906,14.906,0,0,0,2.548,3.188,1.943,1.943,0,0,0,1.606.617,2.211,2.211,0,0,0,1.443-1.012,6.539,6.539,0,0,0,.093-3.886l-.349-2.327,1.082,2.118a17.682,17.682,0,0,0,2.246,3.491,6.632,6.632,0,0,0,1.489,1.326,1.792,1.792,0,0,0,1.664.268,1.932,1.932,0,0,0,1.071-1.326,6.463,6.463,0,0,0,.256-1.978,18.836,18.836,0,0,0-.547-4.1l-.966-4.072,1.769,3.782a16.106,16.106,0,0,0,1.373,2.327,5.714,5.714,0,0,0,1.862,1.8,1.338,1.338,0,0,0,1.047.1,2.06,2.06,0,0,0,.9-.721,4.749,4.749,0,0,0,.7-2.478,17.45,17.45,0,0,0-.791-5.446q-.768-2.711-1.687-5.364a40.346,40.346,0,0,0-4.9-10.065,41.072,41.072,0,0,0-7.866-8.017,41.472,41.472,0,0,1,8.145,7.773,39.433,39.433,0,0,1,5.178,10.088c.652,1.769,1.268,3.561,1.792,5.376a18,18,0,0,1,.861,5.69,5.61,5.61,0,0,1-.815,2.9,2.8,2.8,0,0,1-1.28,1.024,2.141,2.141,0,0,1-1.675-.116,6.47,6.47,0,0,1-2.2-2.059,16.759,16.759,0,0,1-1.466-2.5l.8-.291a17.455,17.455,0,0,1,.582,4.329,7.456,7.456,0,0,1-.314,2.234,2.8,2.8,0,0,1-1.571,1.827,2.63,2.63,0,0,1-2.4-.337,7.412,7.412,0,0,1-1.664-1.513,18.393,18.393,0,0,1-2.327-3.677l.721-.221a18.261,18.261,0,0,1,.244,2.141,4.351,4.351,0,0,1-.454,2.222,2.874,2.874,0,0,1-1.92,1.315,1.78,1.78,0,0,1-1.233-.151,4.235,4.235,0,0,1-.954-.628,15.123,15.123,0,0,1-2.606-3.4,36.044,36.044,0,0,1-1.966-3.758l.454-.151a14.736,14.736,0,0,1,.4,3.642,5.478,5.478,0,0,1-.361,1.827,1.827,1.827,0,0,1-1.431,1.164,2.734,2.734,0,0,1-1.757-.558,9.076,9.076,0,0,1-1.4-1.164A20.353,20.353,0,0,1,497.34,150.43Z" transform="translate(-44.793 -26.041)" fill="#263238"/><path d="M463.28,114.014c1.7-1.07,6.493-3.6,11.217-2.9v.081a30.893,30.893,0,0,0-11.182,2.886Z" transform="translate(-50.364 -27.547)" fill="#263238"/><path d="M542.958,108.343a21.712,21.712,0,0,1,22.422-4.584l-12.939,12.217,4.142,9.4,9.146,4.654L578.691,117.8a21.747,21.747,0,1,1-35.733-9.46Z" transform="translate(-38.446 -28.95)" fill="#c7c7c7"/><path d="M494.666,213.691a21.759,21.759,0,0,1-22.434,4.654l12.939-12.217-4.142-9.413-9.146-4.654-12.951,12.148a21.747,21.747,0,1,1,35.733,9.483Z" transform="translate(-51.23 -16.893)" fill="#c7c7c7"/><rect width="19.373" height="105.745" transform="matrix(-0.686, -0.727, 0.727, -0.686, 443.929, 179.747)" fill="#c7c7c7"/><rect width="7.982" height="43.552" transform="matrix(-0.686, -0.727, 0.727, -0.686, 462.632, 154.251)" fill="#ebebeb"/><path d="M504.091,74.65c14.358,10.018,36.071,30,37.9,39.084,1.839,9.309-5.818,34.244-9.972,42.645-1.734,3.491-30.346-6.179-28.589-9.972,3.584-7.726,11.124-25.727,10.856-28.263s-11.519-21.991-17.616-33.232C486.893,66.912,493.944,67.587,504.091,74.65Z" transform="translate(-45.668 -34.248)" fill="#d3766a"/><path d="M504.962,132.15s-4.747,10.367-7.47,17.279c-1.559,3.863-3.63,10.728-3.491,14.091.233,5.027,4.433,25.9,9.518,24.982,4.654-.814-1.28-18.291-1.28-18.291s4.375,18.163,9.727,16.15-3.91-20.874-3.91-20.874,4.91,18.559,10.111,15.615c3.921-2.222-3.491-19.781-3.491-19.781s4.34,15.918,8.482,13.8c4.573-2.327-1.28-18.966-1.28-18.966,9.611-7.144,12.345-13.567,12.9-18.931C534.726,137.235,513.991,133.046,504.962,132.15Z" transform="translate(-45.34 -24.087)" fill="#d3766a"/><path d="M499.4,159.565c.43,2.141.861,4.328,1.489,6.435s1.326,4.189,2.153,6.225a36.07,36.07,0,0,0,3.945,7.621c-2.537-4.433-4.9-11.938-5.527-14.044s-1.35-4.166-1.978-6.272Z" transform="translate(-44.456 -19.608)" fill="#263238"/><path d="M505.9,157.5c0,3.06,2.327,11.426,4.794,15.918.1.2.163.1.093-.1-.873-2.653-4.084-13.148-4.829-15.836C505.947,157.438,505.9,157.461,505.9,157.5Z" transform="translate(-43.393 -19.947)" fill="#263238"/><path d="M511.16,154.733a33.744,33.744,0,0,0,4.073,12.217c.1.186.175,0,.1-.163-1.431-4.038-2.583-7.191-4.038-12.089a.072.072,0,0,0-.14.035Z" transform="translate(-42.533 -20.407)" fill="#263238"/><path d="M525.338,88.964,502.474,98.2s-8.25-14.265-11.112-23.12c-1.594-4.968,1.326-7.435,5.6-5.446C511.957,76.6,525.338,88.964,525.338,88.964Z" transform="translate(-45.843 -34.425)" fill="#40a0c0"/><path d="M511.658,78.845a8.141,8.141,0,0,0-.745,2.222,8.758,8.758,0,0,0-.14,2.327,8.272,8.272,0,0,0,.745-2.234A8.677,8.677,0,0,0,511.658,78.845Zm-15.941-7.4a8.308,8.308,0,0,0-2.327-.151,8.274,8.274,0,0,0,2.234.745,7.83,7.83,0,0,0,2.327.14,8.307,8.307,0,0,0-2.234-.733Zm13.66,23.1a2.674,2.674,0,0,0,.372.175l.5-.2a5.5,5.5,0,0,0-.873.023ZM499.115,84.069a7.933,7.933,0,0,0-1.757,1.559,8.436,8.436,0,0,0,2.094-1.059,7.922,7.922,0,0,0,1.757-1.548,8.028,8.028,0,0,0-2.094,1.024Z" transform="translate(-45.439 -34.045)" fill="#fff"/><path d="M500.544,91.348a156.965,156.965,0,0,1,18.71-7.528s.1.116.07.14c-4.992,2.327-15.254,6.295-18.7,7.586C500.567,91.581,500.474,91.372,500.544,91.348Z" transform="translate(-44.273 -31.992)" fill="#263238"/><path d="M503.283,95.6a5.819,5.819,0,0,1-1.164.442,17.9,17.9,0,0,1-1.4-2.4c-.675-1.361-1.385-2.711-2.071-4.072-1.361-2.711-2.886-5.329-4.352-7.982,0-.07-.174,0-.14,0,.582,1.385,1.164,2.746,1.792,4.1l-.058-.081-1.164-1.676h-.082l1.164,1.722.489,1.07c.652,1.4,1.338,2.793,2.071,4.166s2.944,5.655,3.491,5.713a16.579,16.579,0,0,0,1.478-.8C503.4,95.732,503.353,95.557,503.283,95.6Z" transform="translate(-45.314 -32.361)" fill="#263238"/><path d="M497.34,150.225c.966-2.56,2-5.085,3.049-7.6l3.2-7.517,6.6-14.94c-.745,2.618-1.7,5.178-2.688,7.726s-2.06,5.05-3.118,7.563-2.211,4.98-3.386,7.447S498.632,147.9,497.34,150.225Z" transform="translate(-44.793 -26.046)" fill="#263238"/><path d="M490.672,67.2c4.34.256,4.98,4.829,2.839,9.541s-5.969,6.516-8.064,6.307-4.166-2.327-2.676-7.808C484.644,68.261,488.054,67.05,490.672,67.2Z" transform="translate(-47.259 -34.712)" fill="#37474f"/><path d="M493.452,71.629c.128,1-2.048,8.657-6.353,10.042-1.4.442-4.177-7.1-4.177-7.1l-.337-.512-4.654-7.144,6.981-9.309,1.036-1.268s1.164,2.036,2.537,4.584c.07.116.128.244.2.372s.163.268.233.407c.221.372.431.768.64,1.164s.314.582.477.908l.477.931a54.358,54.358,0,0,1,2.944,6.923Z" transform="translate(-47.968 -36.487)" fill="#d3766a"/><path d="M488.482,60.948a17.058,17.058,0,0,1-5.888,13.113l-4.654-7.144,6.981-9.309,1.036-1.268S487.074,58.4,488.482,60.948Z" transform="translate(-47.966 -36.487)" fill="#263238"/><path d="M464.881,60.35c1.3,14.894,10.379,15.79,13.59,15.5,2.921-.256,12.8-1.513,13.044-16.464s-7.1-19.048-13.8-18.8S463.567,45.445,464.881,60.35Z" transform="translate(-50.127 -39.066)" fill="#d3766a"/><path d="M467.238,55.7a8.838,8.838,0,0,0,.977-.349,1.664,1.664,0,0,0,.919-.547.524.524,0,0,0-.093-.64,1.292,1.292,0,0,0-1.327-.128,1.92,1.92,0,0,0-1.105.849.559.559,0,0,0,.628.814Z" transform="translate(-49.831 -36.884)" fill="#263238"/><path d="M475.664,54.58a5.111,5.111,0,0,1-1.036-.07,1.7,1.7,0,0,1-1.036-.279.535.535,0,0,1-.093-.64,1.3,1.3,0,0,1,1.245-.489,1.966,1.966,0,0,1,1.3.512.57.57,0,0,1-.384.966Z" transform="translate(-48.704 -37.019)" fill="#263238"/><path d="M474.1,57.81a.094.094,0,0,1,.093.081c.081,1.024.349,2.164,1.3,2.4v.058C474.359,60.358,473.987,58.787,474.1,57.81Z" transform="translate(-48.597 -36.246)" fill="#263238"/><path d="M474.881,56.823c1.617-.314,2.118,2.932.628,3.223S473.531,57.032,474.881,56.823Z" transform="translate(-48.596 -36.411)" fill="#263238"/><path d="M475.363,56.932c.314.14.64.419.989.4s.652-.407.861-.768h.058c.1.617,0,1.3-.686,1.489a1.152,1.152,0,0,1-1.373-.9C475.165,57.072,475.235,56.874,475.363,56.932Z" transform="translate(-48.415 -36.451)" fill="#263238"/><path d="M469.153,58.22s-.07.058-.07.1c.2,1,.256,2.176-.593,2.653h0C469.584,60.7,469.491,59.128,469.153,58.22Z" transform="translate(-49.512 -36.179)" fill="#263238"/><path d="M468.289,57.44c-1.641.151-1.233,3.409.279,3.281S469.662,57.324,468.289,57.44Z" transform="translate(-49.718 -36.307)" fill="#263238"/><path d="M467.819,57.7c-.244.209-.454.547-.768.605s-.652-.244-.931-.559h0c.07.617.349,1.245.966,1.292s.9-.547.966-1.164C468.017,57.785,467.912,57.622,467.819,57.7Z" transform="translate(-49.9 -36.267)" fill="#263238"/><path d="M475.825,64.56c-.2.279-.372.652-.721.756a2.839,2.839,0,0,1-1.164,0h0a1.385,1.385,0,0,0,1.373.291,1.164,1.164,0,0,0,.617-1.047Z" transform="translate(-48.621 -35.142)" fill="#263238"/><path d="M471.3,63.252a22.421,22.421,0,0,0,.1,2.257,3.851,3.851,0,0,0,3.572-1.687c0-.07-.058-.14-.116-.081a5.132,5.132,0,0,1-2.967,1.326c-.081-.186.07-2.641,0-2.63a6.341,6.341,0,0,0-1.559.593c-.116-3.211.291-6.411.14-9.611a.1.1,0,0,0-.2,0,52.359,52.359,0,0,0-.593,10.344C469.64,64.16,471.036,63.415,471.3,63.252Z" transform="translate(-49.324 -36.976)" fill="#263238"/><path d="M472,63.838a3.724,3.724,0,0,0,1.652.9,1.734,1.734,0,0,0,1.024-.093c.686-.314.605-.989.372-1.536a3.933,3.933,0,0,0-.465-.814A4.817,4.817,0,0,1,472,63.838Z" transform="translate(-48.938 -35.514)" fill="#263238"/><path d="M473.41,64.619a1.734,1.734,0,0,0,1.024-.093c.687-.314.605-.989.372-1.536a1.745,1.745,0,0,0-1.4,1.629Z" transform="translate(-48.707 -35.399)" fill="#ff9bbc"/><path d="M490.885,60.858c-2.676.931-4.736-5.213-4.736-5.213s-12.159.524-15.2-8.808a16.558,16.558,0,0,1-6.248,10.588s-1.8-11.5,6.051-15.313c0,0,9.844-5.713,17.384,1.164S492.677,60.218,490.885,60.858Z" transform="translate(-50.16 -39.178)" fill="#263238"/><path d="M469.88,45.27a10.7,10.7,0,0,0,1.466,4.235,10.984,10.984,0,0,0,3.037,3.386,9.084,9.084,0,0,0,.966.617l.489.3.512.233,1.047.454,1.094.314.547.151.559.093,1.164.175h2.246c-.733-.151-1.466-.221-2.188-.384l-1.082-.256-.524-.14a4.656,4.656,0,0,1-.524-.186l-1.024-.372c-.337-.14-.652-.314-.977-.465l-.489-.244-.465-.291a7.977,7.977,0,0,1-.9-.593,13.009,13.009,0,0,1-3.014-3.118,12.8,12.8,0,0,1-1.094-1.9A13.736,13.736,0,0,1,469.88,45.27Z" transform="translate(-49.285 -38.297)" fill="#263238"/><path d="M485.723,58.118s2.4-5.166,4.654-4.387,1.047,7.866-1.245,9.215a2.525,2.525,0,0,1-3.572-.756Z" transform="translate(-46.72 -36.927)" fill="#d3766a"/><path d="M489.82,55.46h0a6.434,6.434,0,0,0-2.56,4.515,1.4,1.4,0,0,1,1.99-.733v.093a1.559,1.559,0,0,0-1.594.838,7.534,7.534,0,0,0-.57,1.5c0,.175-.349.14-.314,0h0C486.353,59.463,487.5,56.088,489.82,55.46Z" transform="translate(-46.536 -36.631)" fill="#263238"/><path d="M487.333,61.4a.605.605,0,1,0,1.164-.3.594.594,0,0,0-.733-.431A.605.605,0,0,0,487.333,61.4Z" transform="translate(-46.433 -35.783)" fill="#fff"/><path d="M488.362,60.227a.439.439,0,1,0,.314-.535.442.442,0,0,0-.314.535Z" transform="translate(-46.264 -35.941)" fill="#fff"/><path d="M490.18,55.26l.861-.3a.326.326,0,0,0,.2-.407h0a.326.326,0,0,0-.407-.2l-.861.3a.326.326,0,0,0-.2.407h0a.326.326,0,0,0,.407.2Z" transform="translate(-46.034 -36.815)" fill="#ee7a15"/><path d="M490.34,56.015l.9-.1a.314.314,0,0,0,.279-.361h0a.314.314,0,0,0-.349-.279l-.9.116a.3.3,0,0,0-.279.349h0a.314.314,0,0,0,.349.279Z" transform="translate(-45.996 -36.662)" fill="#ee7a15"/><path d="M482.46,55.649l2.548,2.5,3.235-4.875-1.164-1.105Zm1.431.128,2.99-2.5.256.256L484.81,56.65Z" transform="translate(-47.227 -37.169)" fill="#ee7a15"/></g><g transform="translate(102.252 182.765)"><path d="M205.255,464.164c-2.2.686-64.648-.652-67-2.211-.9-.582-1.233-9.693-1.326-20.712v-7.33c0-2.944,0-5.946.058-8.843.163-13.044.559-24.528.559-24.528l40.655.756-.465,24.528-.163,8.843-.349,7.33S200.9,453.2,203.288,455.193,207.442,463.489,205.255,464.164Z" transform="translate(-86.792 -123.674)" fill="#ad6359"/><path d="M205.255,460.716c-2.2.686-64.648-.652-67-2.211-.9-.582-1.233-9.693-1.326-20.711v-7.331c0-2.944,0-5.946.058-8.843l40.725.756-.163,8.843-.349,7.33s23.679,11.205,26.064,13.195S207.442,460.041,205.255,460.716Z" transform="translate(-86.792 -120.226)" fill="#fff"/><path d="M205.479,459.576c-1.431.442-28.03,0-47.392-.71-4.48-.186-8.587-.384-11.88-.582-4.561-.3-7.61-.605-8.145-.931-1.094-.721-1.373-14.091-1.361-28.193l40.865.756-.349,7.365s23.818,11.275,26.227,13.265S207.678,458.878,205.479,459.576Z" transform="translate(-86.829 -118.993)" fill="#ee7a15"/><path d="M204.006,453.3c-10.472-.489-53-1.443-63.438-1.164-.081,0-.081.07,0,.07,10.414.71,52.907,1.327,63.438,1.233C204.227,453.464,204.227,453.312,204.006,453.3Z" transform="translate(-86.207 -115.242)" fill="#263238"/><path d="M174.634,434.213c-4.119-.861-9.2-.337-12.427,2.548-.128.116,0,.291.163.244a58.184,58.184,0,0,1,12.241-2.269.268.268,0,0,0,.023-.524Z" transform="translate(-82.666 -118.228)" fill="#263238"/><path d="M177.176,435.813c-4.131-.861-9.2-.337-12.439,2.548-.128.116,0,.291.175.256a57.5,57.5,0,0,1,12.241-2.327.268.268,0,0,0,.023-.477Z" transform="translate(-82.252 -117.966)" fill="#263238"/><path d="M179.756,437.424c-4.131-.873-9.215-.337-12.439,2.548-.128.1,0,.279.175.244a58.176,58.176,0,0,1,12.229-2.269.268.268,0,0,0,.035-.524Z" transform="translate(-81.83 -117.703)" fill="#263238"/><path d="M182.244,439.053c-4.119-.861-9.2-.337-12.427,2.548-.128.116,0,.291.163.244a58.185,58.185,0,0,1,12.241-2.269.268.268,0,0,0,.023-.524Z" transform="translate(-81.421 -117.436)" fill="#263238"/><path d="M181.455,426.266c-1.571-2.327-4.654-1.338-6.388.081a22.178,22.178,0,0,0-6.586,9.309.128.128,0,0,0,.093.163.51.51,0,0,0,.64.524c3.491-1.164,7.284-2.036,10.263-4.259C181.21,430.838,182.956,428.418,181.455,426.266Zm-7.377,7.237c-1.687.628-3.386,1.164-5.05,1.862,1.292-1.827,2.5-3.689,3.968-5.387a24.828,24.828,0,0,1,2.246-2.327c1.257-1.094,6.19-3.386,5.364,1.164C180.151,431.3,176.067,432.747,174.078,433.5Z" transform="translate(-81.632 -119.694)" fill="#263238"/><path d="M159.936,434.077c3.386,1.536,7.319,1.536,10.938,1.966a.512.512,0,0,0,.512-.652.1.1,0,0,0,.058-.163,22.107,22.107,0,0,0-8.424-7.738c-2.025-1-5.213-1.28-6.272,1.292S157.97,433.181,159.936,434.077Zm-1.8-2.99c-1.78-4.247,3.491-3.072,4.992-2.327a22.95,22.95,0,0,1,2.688,1.792c1.8,1.338,3.374,2.9,5.027,4.4-1.769-.314-3.491-.477-5.329-.733-2.118-.2-6.4-.791-7.377-3.13Z" transform="translate(-83.594 -119.384)" fill="#263238"/><path d="M173.514,458.623c-5.259-.14-10.577-.314-15.441-.5-4.48-.163-8.575-.361-11.88-.57-4.55-.3-7.6-.605-8.145-.931-.954-.64-1.292-10.961-1.338-22.992C146.03,439.878,164.252,452.282,173.514,458.623Z" transform="translate(-86.828 -118.261)" opacity="0.2"/><path d="M185.113,464.515h-46.4s2.548-104.442,2.048-106.874c-1.164-5.818-27.588-97.891-27.588-97.891l36.641.628,12.52.221s-1.082,15.336-.64,16.953c6.12,22.341,18.07,60.506,20.514,74.631C186.417,376.735,185.113,464.515,185.113,464.515Z" transform="translate(-90.678 -146.703)" fill="#455a64"/><path d="M179.686,429.145c-7.237-.186-32.882-.954-42.528-.233-.07,0-.07.128,0,.14,3.3.535,35.279.384,42.517.291a.1.1,0,1,0,.012-.2Z" transform="translate(-86.763 -119.083)" fill="#263238"/><path d="M143.514,354.555c-1.385-5.655-11.717-40.83-14.882-51.93s-6.132-22.271-8.855-33.487c-.349-1.42-.7-2.839-1.07-4.259,0-.116-.209-.058-.186.058,1.047,5.643,2.42,11.24,3.747,16.837s2.746,11.159,4.235,16.709q4.491,16.72,9.8,33.22c1.78,5.469,4.654,16.72,6.248,22.259s-.989,96.495-.826,97.972a.337.337,0,0,0,.663,0C142.583,441.218,144.875,360.129,143.514,354.555Z" transform="translate(-89.803 -145.874)" fill="#263238"/><path d="M149.812,260.407s-8.96,97.74-9.064,97.263c-1.164-5.62-25.959-92.213-27.518-97.623l-.07-.256Z" transform="translate(-90.68 -146.696)" fill="#263238"/><path d="M163.893,468.764c-2.2.687-64.648-.652-67-2.211-.884-.582-1.164-9.692-1.315-20.711V429.668c.163-13.044.559-24.528.559-24.528l40.655.756-.465,24.528-.175,8.843-.349,7.33s23.679,11.205,26.076,13.195S166.092,468.089,163.893,468.764Z" transform="translate(-93.555 -122.922)" fill="#ad6359"/><path d="M163.893,465.316c-2.2.687-64.648-.652-67-2.211-.884-.582-1.164-9.693-1.315-20.712V426.22l40.725.756-.175,8.843-.349,7.33s23.679,11.205,26.076,13.195S166.092,464.641,163.893,465.316Z" transform="translate(-93.555 -119.474)" fill="#fff"/><path d="M164.117,464.176c-1.431.442-28.03,0-47.392-.71-4.48-.186-8.576-.384-11.88-.582-4.55-.3-7.61-.605-8.145-.931-1.082-.721-1.361-14.091-1.35-28.193l40.853.756-.349,7.365s23.818,11.275,26.227,13.265S166.328,463.478,164.117,464.176Z" transform="translate(-93.593 -118.24)" fill="#ee7a15"/><path d="M162.658,457.9c-10.472-.489-53.012-1.443-63.449-1.164-.081,0-.081.07,0,.07,10.472.71,52.907,1.327,63.438,1.233C162.867,458.064,162.879,457.912,162.658,457.9Z" transform="translate(-92.972 -114.49)" fill="#263238"/><path d="M133.286,438.813c-4.131-.861-9.215-.337-12.439,2.548-.128.116,0,.291.175.244a58.175,58.175,0,0,1,12.229-2.327.268.268,0,0,0,.035-.465Z" transform="translate(-89.431 -117.475)" fill="#263238"/><path d="M135.814,440.413c-4.119-.861-9.2-.337-12.427,2.548-.128.116,0,.291.163.256a57.5,57.5,0,0,1,12.241-2.327.268.268,0,0,0,.023-.477Z" transform="translate(-89.016 -117.213)" fill="#263238"/><path d="M138.356,442.053c-4.131-.861-9.2-.337-12.439,2.548-.128.1,0,.279.175.244a58.181,58.181,0,0,1,12.241-2.269.268.268,0,0,0,.023-.524Z" transform="translate(-88.602 -116.945)" fill="#263238"/><path d="M140.9,443.623c-4.131-.861-9.215-.337-12.439,2.548-.128.116,0,.291.175.244a58.185,58.185,0,0,1,12.229-2.327.268.268,0,0,0,.035-.465Z" transform="translate(-88.186 -116.688)" fill="#263238"/><path d="M140.1,430.866c-1.582-2.327-4.654-1.338-6.4.082a22.014,22.014,0,0,0-6.574,9.309c0,.081,0,.128.093.151a.512.512,0,0,0,.64.524c3.491-1.164,7.272-2.036,10.251-4.259C139.859,435.427,141.593,433.018,140.1,430.866Zm-7.389,7.237c-1.687.628-3.386,1.164-5.038,1.862,1.292-1.827,2.49-3.689,3.956-5.387a23.556,23.556,0,0,1,2.257-2.327c1.245-1.094,6.179-3.386,5.352,1.164C138.789,435.9,134.716,437.347,132.715,438.1Z" transform="translate(-88.395 -118.941)" fill="#263238"/><path d="M118.593,438.677c3.374,1.536,7.307,1.536,10.926,1.966a.512.512,0,0,0,.512-.652.1.1,0,0,0,0-.163,22.108,22.108,0,0,0-8.424-7.738c-2.025-1-5.213-1.28-6.26,1.292S116.615,437.793,118.593,438.677Zm-1.815-2.99c-1.769-4.247,3.491-3.072,4.992-2.269a22.025,22.025,0,0,1,2.688,1.792c1.8,1.338,3.374,2.9,5.027,4.4-1.769-.314-3.491-.477-5.317-.733C122.049,438.572,117.767,438.026,116.778,435.687Z" transform="translate(-90.365 -118.631)" fill="#263238"/><path d="M138.858,469.255l-45.018-.826s12.636-162.388,11.066-170.987c-2.571-14.079-.384-30.16,6.4-37.793l43.867.815s.64,12.334-4.026,19.606c0,0-4.154,2.525-6.179,3.63Z" transform="translate(-93.84 -146.719)" fill="#455a64"/><path d="M137.115,433.069c-6.83-.3-4.864-.3-11.636-.535-3.351-.116-25.308-.826-28.449-.384a.07.07,0,0,0,0,.14c3.118.593,25.087.919,28.426.966,6.83.1,4.875,0,11.706,0a.1.1,0,0,0-.047-.186Z" transform="translate(-93.33 -118.527)" fill="#263238"/><path d="M147.241,275.545a84.372,84.372,0,0,0-12.473,7.074.151.151,0,0,0,.151.256c4.212-2.234,8.517-4.4,12.6-6.842a.281.281,0,0,0-.279-.489Z" transform="translate(-87.154 -144.125)" fill="#263238"/><path d="M140.809,274.948a19.511,19.511,0,0,0-.652,2.583,5.5,5.5,0,0,0-.163,2.083c0,.14.209.128.268,0a6.98,6.98,0,0,0,.721-2.083c.233-.8.465-1.606.675-2.409a.442.442,0,0,0-.849-.175Z" transform="translate(-86.296 -144.261)" fill="#263238"/><path d="M140.472,271.907c.14-.733.268-1.454.419-2.187s.349-1.5.442-2.269c0-.116.209-.082.186,0-.128.733-.163,1.489-.233,2.222s-.151,1.489-.244,2.222c-.163,1.385-.431,2.769-.721,4.131a4.724,4.724,0,0,0,2.025-.8,3.828,3.828,0,0,0,1.164-2.083c.221-.838.419-1.687.663-2.513a15.57,15.57,0,0,0,.7-2.793c0-.128.209-.081.186,0a29.918,29.918,0,0,1-1.164,5.888,3.281,3.281,0,0,1-1.164,1.943,6.3,6.3,0,0,1-2.467.675c-.1.058-.244,0-.233-.116a42.747,42.747,0,0,1,.442-4.317Z" transform="translate(-86.285 -145.455)" fill="#263238"/><path d="M111.15,295.847c-.244-3.235-.71-6.435-1.012-9.669a59.772,59.772,0,0,1,1.536-19.28c0-.116-.163-.174-.186-.058a71.618,71.618,0,0,0-2.06,16.93c.175,5.678,1.071,11.31,1.059,17.011s-.57,11.531-1.047,17.279-.966,11.566-1.443,17.36c-1.932,23.271-3.735,46.543-5.585,69.814q-.768,9.739-1.5,19.478c-.5,6.609-1.268,22.9-1.641,29.52,0,.57.826.547.884,0,1.164-11.636,2.176-33.057,3.13-44.739s1.85-23.143,2.769-34.709,1.827-23.132,2.734-34.7c.454-5.818.884-11.636,1.326-17.36s.966-11.519,1.164-17.3a83.613,83.613,0,0,0-.128-9.576Z" transform="translate(-92.952 -145.554)" fill="#263238"/><path d="M125.294,266.787a.1.1,0,0,0-.175,0,7.541,7.541,0,0,0-.454,2.327,17.258,17.258,0,0,1-.652,2.537,10.216,10.216,0,0,1-2.711,4.375c-2.816,2.537-6.528,3.421-10.111,4.224-.128,0-.081.221,0,.233a16.056,16.056,0,0,0,6.237-.861,13.022,13.022,0,0,0,4.84-2.595,8.995,8.995,0,0,0,2.688-4.654,16.289,16.289,0,0,0,.349-2.827v-1.373A3.491,3.491,0,0,0,125.294,266.787Z" transform="translate(-91.015 -145.559)" fill="#263238"/><path d="M145.658,209.409c6.6,21.235,19.932,41.888,24.063,44.7,6.4,4.363,36.746,8.145,46.717,6.981,3.27-.384,2.071-23.05-.931-24.9s-32.475-2.211-34.477-3.014c-1.07-.419-16.79-18.559-25.6-28.03C147.135,196.284,143.656,202.963,145.658,209.409Z" transform="translate(-85.455 -156.333)" fill="#ad6359"/><path d="M168.938,218.927l-16.814,13.59s-7.365-15.918-7.947-25.6,4-8.576,9.367-3.921S168.938,218.927,168.938,218.927Z" transform="translate(-85.615 -156.553)" fill="#40a0c0"/><path d="M168.938,218.925l-6,4.852-10.81,8.738s-7.365-15.918-7.947-25.6c-.477-7.842,2.467-8.6,6.469-6.109a22.815,22.815,0,0,1,2.9,2.188C158.885,207.662,168.938,218.925,168.938,218.925Z" transform="translate(-85.615 -156.551)" fill="#40a0c0"/><path d="M164.859,214.55c.116-.093.093-.2,0-.116a146.608,146.608,0,0,0-14.149,11.391v.058C153.281,224.313,163.626,215.493,164.859,214.55Z" transform="translate(-84.538 -154.12)" fill="#263238"/><path d="M162.934,223.777l-10.81,8.738s-7.365-15.918-7.947-25.6c-.477-7.842,2.467-8.6,6.469-6.109Z" transform="translate(-85.615 -156.551)" fill="#263238"/><path d="M102.673,274.706c.116.186,63.8,13.009,64.508,12.462.989-.756,2.164-66.719-5.457-82.52-1.908-3.956-10.542-7.994-14.964-5.131-12.8,8.285-16.651,16.5-20.781,23.039A208.7,208.7,0,0,0,114.8,244.569C108.258,258.939,102.266,274.007,102.673,274.706Z" transform="translate(-92.398 -156.713)" fill="#40a0c0"/><g transform="translate(10.263 41.869)" opacity="0.1"><path d="M151.736,200.989,141.45,199C144.417,197.906,148.652,199.069,151.736,200.989Z" transform="translate(-96.315 -198.577)"/><path d="M156.781,205.852,137,202.012c.407-.314.838-.628,1.28-.942l17.954,3.491A12.326,12.326,0,0,1,156.781,205.852Z" transform="translate(-97.043 -198.17)"/><path d="M158.777,210.049l-25.447-4.91c.349-.337.71-.663,1.082-.989l24.051,4.654C158.545,209.188,158.684,209.619,158.777,210.049Z" transform="translate(-97.643 -197.666)"/><path d="M160.217,214.14l-30-5.818q.442-.512.908-1.012L160,212.9A6.5,6.5,0,0,1,160.217,214.14Z" transform="translate(-98.152 -197.149)"/><path d="M161.353,218.166l-33.743-6.539.78-1.047,32.789,6.307C161.249,217.34,161.307,217.748,161.353,218.166Z" transform="translate(-98.579 -196.614)"/><path d="M162.278,222.155,125.37,215c.221-.349.442-.71.675-1.059l36.071,6.981Z" transform="translate(-98.945 -196.065)"/><path d="M163.072,226.115,123.29,218.4l.652-1.07,39.014,7.563C162.991,225.3,163.026,225.7,163.072,226.115Z" transform="translate(-99.286 -195.51)"/><path d="M163.772,230.062l-42.552-8.25.628-1.082,41.888,8.145A8.236,8.236,0,0,0,163.772,230.062Z" transform="translate(-99.624 -194.954)"/><path d="M164.327,233.979l-45.007-8.715c.186-.372.372-.733.57-1.094l44.437,8.6Z" transform="translate(-99.935 -194.391)"/><path d="M164.9,237.881l-47.3-9.157c.175-.372.361-.733.547-1.094l46.694,9.041C164.853,237.078,164.876,237.474,164.9,237.881Z" transform="translate(-100.216 -193.825)"/><path d="M165.362,241.78,115.91,232.2l.524-1.094,48.87,9.46C165.338,240.977,165.35,241.373,165.362,241.78Z" transform="translate(-100.493 -193.256)"/><path d="M165.781,245.667,114.27,235.7c.163-.372.337-.745.512-1.105l50.964,9.867Z" transform="translate(-100.761 -192.687)"/><path d="M166.154,249.536,112.63,239.18l.489-1.07h0l52.954,10.251A6.505,6.505,0,0,1,166.154,249.536Z" transform="translate(-101.029 -192.111)"/><path d="M166.486,253.413,111.1,242.685c.175-.361.337-.733.5-1.105l54.862,10.635C166.474,252.622,166.474,253.018,166.486,253.413Z" transform="translate(-101.279 -191.543)"/><path d="M166.759,256.081v1.164L109.57,246.155c.163-.361.314-.733.489-1.105Z" transform="translate(-101.53 -190.976)"/><path d="M167.015,259.935V261.1L108.08,249.684l.477-1.164Z" transform="translate(-101.773 -190.408)"/><path d="M167.234,263.785v1.164L106.6,253.244l.465-1.164Z" transform="translate(-102.016 -189.826)"/><path d="M167.381,267.623v1.164L105.2,256.744l.442-1.164Z" transform="translate(-102.245 -189.254)"/><path d="M167.472,271.452v1.164L103.86,260.294l.419-1.164Z" transform="translate(-102.464 -188.673)"/><path d="M167.424,275.24a5.216,5.216,0,0,1-.151,1.164l-64.613-12.52a6.109,6.109,0,0,1,.3-1.164Z" transform="translate(-102.66 -188.086)"/></g><path d="M150.46,212.133c-2.746,0-8.273-5.248-10.367-9.634-.14-.3.477-3.351,1.059-7.086.337-2.269.663-4.806.791-7.133l14.393,4.328a37.071,37.071,0,0,0-1.908,8.878,5.162,5.162,0,0,0,0,.966v.163C154.684,204.5,154.707,212.063,150.46,212.133Z" transform="translate(-86.278 -158.393)" fill="#ad6359"/><path d="M154.105,202.463a.828.828,0,0,0,0,.163,10.912,10.912,0,0,1-1.513,0c-8.471-.663-10.007-11.228-10.263-14.126l13.649,4.072a36.818,36.818,0,0,0-1.92,8.878A6.4,6.4,0,0,0,154.105,202.463Z" transform="translate(-85.909 -158.357)" fill="#263238"/><path d="M138.028,176.934c-1.164,5.329,3,20.037,6.981,23.039,5.818,4.34,14.568,4,18.093-2.781,3.409-6.586-2.269-25.668-6.656-28.321C149.966,164.961,139.657,169.068,138.028,176.934Z" transform="translate(-86.645 -161.813)" fill="#ad6359"/><path d="M152.029,181.81s-.07.07,0,.1c.337.966.57,2.141-.209,2.746v.058C152.774,184.219,152.448,182.671,152.029,181.81Z" transform="translate(-84.356 -159.451)" fill="#263238"/><path d="M151.03,181.173c-1.606.384-.721,3.584.78,3.223S152.392,180.847,151.03,181.173Z" transform="translate(-84.625 -159.559)" fill="#263238"/><path d="M156.44,180.4h.093c.244,1,.7,2.106,1.687,2.188h0C157.092,182.855,156.51,181.377,156.44,180.4Z" transform="translate(-83.601 -159.682)" fill="#263238"/><path d="M157.087,179.3c1.559-.559,2.571,2.606,1.164,3.13S155.725,179.776,157.087,179.3Z" transform="translate(-83.596 -159.873)" fill="#263238"/><path d="M149.644,180.587c.407-.233.733-.512,1.164-.78a2.043,2.043,0,0,0,.989-1.012.7.7,0,0,0-.384-.78,1.745,1.745,0,0,0-1.745.3,2.548,2.548,0,0,0-1.164,1.454.745.745,0,0,0,1.14.814Z" transform="translate(-84.903 -160.09)" fill="#263238"/><path d="M158.034,178.263h-1.361a2.222,2.222,0,0,1-1.4-.244.71.71,0,0,1-.2-.838,1.768,1.768,0,0,1,1.582-.78,2.536,2.536,0,0,1,1.769.524.756.756,0,0,1-.4,1.338Z" transform="translate(-83.833 -160.338)" fill="#263238"/><path d="M152.88,190.116a1.524,1.524,0,0,0,1,.349,2.572,2.572,0,0,0,.989-.535h.058a1.373,1.373,0,0,1-1.164.884,1.163,1.163,0,0,1-1.024-.652S152.833,190.093,152.88,190.116Z" transform="translate(-84.206 -158.123)" fill="#263238"/><path d="M153.055,188.978a3.491,3.491,0,0,0,2.665.873,4.54,4.54,0,0,0,1.233-.291l.221-.081.209-.093a.279.279,0,0,0,.14-.279h0a.233.233,0,0,0,0-.093h0v-.081c-.2-.78-.593-1.908-.593-1.908.326.058,1.92.3,1.792-.093a52.887,52.887,0,0,0-4.154-9.844c0-.1-.221,0-.175.07.942,3.165,2.443,6.132,3.491,9.309a5.819,5.819,0,0,0-1.722,0c-.1,0,.8,2.188.861,2.537a4.852,4.852,0,0,1-3.793-.1C153,188.827,153,188.908,153.055,188.978Z" transform="translate(-84.16 -160.231)" fill="#263238"/><path d="M156.4,187.631a4.084,4.084,0,0,1-1.257,1.687,1.838,1.838,0,0,1-1.082.372c-.849,0-1.071-.71-1.094-1.373a4.492,4.492,0,0,1,.093-1.047,5.411,5.411,0,0,0,3.339.361Z" transform="translate(-84.168 -158.558)" fill="#263238"/><path d="M155.146,189.148a1.838,1.838,0,0,1-1.082.372c-.849,0-1.07-.71-1.094-1.373A1.932,1.932,0,0,1,155.146,189.148Z" transform="translate(-84.168 -158.424)" fill="#ff9bbc"/><path d="M139.187,187.232c.942-.7,2.327-4.445,2.9-5.992s-.652-8.308-1.082-10.309a10.925,10.925,0,0,0-2.932,5.364C137.535,178.679,138.024,182.961,139.187,187.232Z" transform="translate(-86.641 -161.231)" fill="#263238" opacity="0.2"/><path d="M153.93,173.219a5.271,5.271,0,0,1-4.305,2.839,5.422,5.422,0,0,1-4.794-2.2h-.07a5.364,5.364,0,0,0,4.934,2.606,5.434,5.434,0,0,0,4.4-3.211.083.083,0,0,0-.163-.035Z" transform="translate(-85.512 -160.867)" fill="#263238"/><path d="M146.377,163.347a8.343,8.343,0,0,0-5.969,5.341,5.969,5.969,0,0,0,.3,3.91c0,.058.128,0,.116,0a6.539,6.539,0,0,1,1.664-6.446,8.424,8.424,0,0,1,7.063-2.548,5.317,5.317,0,0,1,3.3,1.582c.081.1.291,0,.221-.116C151.834,163.347,149.076,162.66,146.377,163.347Z" transform="translate(-86.255 -162.514)" fill="#263238"/><path d="M163.129,165.882a6.783,6.783,0,0,0-3.642-2.909c-2.094-.71-4.131-.058-6.144.628-.058,0,0,.1,0,.081a9.413,9.413,0,0,1,5.294-.605,6.609,6.609,0,0,1,3.735,2.455,6.493,6.493,0,0,1-.8,8.471,6.609,6.609,0,0,1-4.945,1.687c-.07,0-.1.1,0,.116a6.632,6.632,0,0,0,6.5-9.925Z" transform="translate(-84.111 -162.583)" fill="#263238"/><path d="M138.234,180.892s-4.073-4.654-2.4-8.366c.954-2.06,5.48-2.839,5.48-2.839a8.284,8.284,0,0,1,4.375-4.6c3.549-1.7,8.506-.524,8.506-.524s3.1-2.851,6.853-1.7c5.248,1.606,6.272,8.808,2.106,12.148-2.921,2.327-8.04.442-8.04.442-.407.163-4.2,3.8-8.413.64,0,0-2.153,3-4.957,1.873a4,4,0,0,1-3.514,2.921Z" transform="translate(-87.037 -162.594)" fill="#263238"/><path d="M142.629,186.283s-3.921-4.456-5.969-3,1.257,8.145,3.933,8.832a2.63,2.63,0,0,0,3.351-1.792Z" transform="translate(-86.94 -159.258)" fill="#ad6359"/><path d="M137.43,184.87v.07A6.633,6.633,0,0,1,141.3,188.7a1.443,1.443,0,0,0-2.2-.151v.093a1.617,1.617,0,0,1,1.838.361,7.574,7.574,0,0,1,1,1.338c.1.151.384,0,.3-.151h0C142.061,187.849,139.92,184.824,137.43,184.87Z" transform="translate(-86.71 -158.951)" fill="#263238"/><rect width="125.281" height="82.951" transform="translate(72.246 50.436)" fill="#fff"/><path d="M155.76,289.151V205.77h125.7v83.381H155.76Zm.4-82.962v82.544H281.018V206.2Z" transform="translate(-83.712 -155.532)" fill="#dbdbdb"/><path d="M226,243.579a14.23,14.23,0,1,1-14.23-14.219A14.231,14.231,0,0,1,226,243.579Z" transform="translate(-76.878 -151.674)" fill="#ee7a15"/><path d="M204.61,248.44V236.42l15.033,6Z" transform="translate(-75.721 -150.519)" fill="#fff"/><rect width="125.281" height="6.481" transform="translate(72.258 126.905)" fill="#ebebeb"/><rect width="105.443" height="1.92" transform="translate(79.844 129.186)" fill="#c7c7c7"/><rect width="4.096" height="4.096" transform="translate(73.398 128.115)" fill="#c7c7c7"/><rect width="0.78" height="2.641" transform="translate(74.352 128.848)" fill="#a6a6a6"/><rect width="0.78" height="2.641" transform="translate(75.76 128.848)" fill="#a6a6a6"/><rect width="4.096" height="4.096" transform="translate(186.974 128.081)" fill="#c7c7c7"/><rect width="0.803" height="0.989" transform="translate(187.591 129.64)" fill="#a6a6a6"/><path d="M256.69,275.729l-1.21-.64V274.1l1.21-.64Z" transform="translate(-67.401 -144.46)" fill="#a6a6a6"/><g transform="translate(189.51 129.186)"><path d="M257,273.806l.186-.186a1.373,1.373,0,0,1,.372.756,1.3,1.3,0,0,1-.372,1.164l-.186-.186a1.059,1.059,0,0,0,.314-.756A1.082,1.082,0,0,0,257,273.806Z" transform="translate(-256.663 -273.62)" fill="#a6a6a6"/><path d="M256.9,275.08l-.186-.175a.57.57,0,0,0,.163-.4.524.524,0,0,0-.163-.384l.186-.186a.8.8,0,0,1,0,1.14Z" transform="translate(-256.71 -273.568)" fill="#a6a6a6"/></g><rect width="4.096" height="4.096" transform="translate(191.861 128.081)" fill="#c7c7c7"/><rect width="1.687" height="1.687" transform="translate(192.512 128.744)" fill="#a6a6a6"/><rect width="1.687" height="1.687" transform="translate(193.629 129.907)" fill="#fff"/><path d="M182.216,274.6a2.175,2.175,0,0,0,.221.954H162.47V273.62h19.99a2.187,2.187,0,0,0-.244.977Z" transform="translate(-82.614 -144.434)" fill="#a6a6a6"/><path d="M183.825,274.769a2.024,2.024,0,0,1-.221.954,2.195,2.195,0,1,1,.221-.954Z" transform="translate(-79.837 -144.606)" fill="#a6a6a6"/><path d="M131.229,212.432c-6.376,16.29-4.491,46.205,1.5,53.233,9.413,11.054,24.726,26.017,33.069,28.531,4.864,1.466,14.545-25.47,10.286-26.983-6.714-2.4-24.54-15.5-26.343-17.582s-5.422-22.841-7.586-35.477C139.816,200.424,134.475,204.136,131.229,212.432Z" transform="translate(-88.374 -155.655)" fill="#ad6359"/><path d="M160.38,285.456c14.382,5.9,31.521,3.8,34.325,2.816,2.4-.826,3.619-1.28,3.619-1.28,4.328-1.408,5.411-3.875,5.411-3.875s5.469-.163,5.923-3.491c.524-3.735-7.272-2.781-11.88-4.887-10.542-4.806-24.2-14.591-27.111-16.29Z" transform="translate(-82.956 -146.915)" fill="#ad6359"/><path d="M180.031,274.812A74.223,74.223,0,0,0,189.5,278.5a74.633,74.633,0,0,0,10.984,1.838.093.093,0,0,1,0,.186,39.467,39.467,0,0,1-20.607-5.492C179.729,275.033,179.845,274.742,180.031,274.812Z" transform="translate(-79.778 -144.241)" fill="#263238"/><path d="M176.72,279.921c3.118,1.164,8.622,3.13,18.978,3.491v.058a35.477,35.477,0,0,1-19.083-3.188C176.418,280.154,176.511,279.852,176.72,279.921Z" transform="translate(-80.318 -143.405)" fill="#263238"/><path d="M183.987,268.279c-1.164-1.164-.512-1.769,2.327-1.373s13.846,4.41,14.917.454-14.5-9.367-19.315-9.669a75.984,75.984,0,0,0-12.706.908C172.049,260.262,178.5,264.951,183.987,268.279Z" transform="translate(-81.512 -147.041)" fill="#ad6359"/><path d="M146.243,232.68l-21.573,1.71s2.9-17.291,7.866-25.6,8.145-4.817,9.949,2.048S146.243,232.68,146.243,232.68Z" transform="translate(-88.797 -155.831)" fill="#40a0c0"/><path d="M144.545,225.825c.14,0,.175-.116,0-.1a146.068,146.068,0,0,0-18.105,1.42v.081C129.512,227.361,143.021,225.906,144.545,225.825Z" transform="translate(-88.508 -152.269)" fill="#263238"/><path d="M127.751,232.494c-1.164.116-1.908.093-3.014.256.768-3.083,1.478-6.167,2.327-9.227s1.687-6.388,2.676-9.53h0c-.64,1.641-1.268,3.281-1.873,4.922a20.838,20.838,0,0,1,.617-3.165H128.4a19.082,19.082,0,0,0-.745,3.782c-.442,1.268-.873,2.537-1.245,3.84a73.885,73.885,0,0,0-2.153,9.82,19.479,19.479,0,0,0,3.491-.477C127.867,232.622,127.855,232.483,127.751,232.494Z" transform="translate(-88.864 -154.191)" fill="#263238"/><path d="M142.747,222.963l-.209-1.373h0c0-1.292.058-2.595,0-3.886,0-.07-.093,0-.1,0,0,1-.07,1.99-.093,2.99-.093-.559-.175-1.164-.268-1.676-.2-1.257-.535-2.467-.78-3.7,0-.093-.175-.07-.163,0,.14,1.326.2,2.653.384,3.968l.593,3.968c.372,2.513.756,5.05,1.3,7.54l-.291.1c-.081,0-.081.186,0,.186h.442a.186.186,0,0,0,.163-.175A76.371,76.371,0,0,0,142.747,222.963Z" transform="translate(-86.105 -153.98)" fill="#263238"/><path d="M230.305,224.423c-3.13,1.338-2.909-3.13-2.909-3.13s-1.873,6.353-5.632,6.481-3.177-5.271-3.153-5.667c-.093.337-1.966,6.12-5.818,5.818s-2.548-5.6-2.467-5.946c-.186.291-2.839,4.026-5.678,3.165-4.875-1.478,1.78-12.8.8-16.8l-6.981-3.1a10.24,10.24,0,0,0,5.469-1.955c2.327-1.606,3.921-2.7,5.69-2.921a3.747,3.747,0,0,1,3.968,2.048s1.594-3.235,4.6-3.13c1.536.07,2.8,2.583,2.8,2.583a4.456,4.456,0,0,1,4.049-2.327c2.118.209,3.06,2.7,3.06,2.7s2.467-1.827,4.573-.908C236.914,203.27,237.031,221.561,230.305,224.423Z" transform="translate(-76.726 -156.592)" fill="#ad6359"/><path d="M204.717,208.365l-5.387-2.094-.524-.372c-5.911-4.433-6.248-13.881-1.268-12.066,3.782,1.385,5.283,8.052,9.309,8.9h0Z" transform="translate(-77.446 -157.522)" fill="#ad6359"/><path d="M224.3,202.235s.081-.081.093,0a31.684,31.684,0,0,1-1,18.85c-.07.2-.419.151-.372-.07A64.707,64.707,0,0,0,224.3,202.235Z" transform="translate(-72.711 -156.116)" fill="#263238"/><path d="M218.218,201.478a.064.064,0,0,1,.128,0,29.776,29.776,0,0,1-2.327,20.5c-.116.209-.442.291-.326,0C217.625,217.605,218.754,207.366,218.218,201.478Z" transform="translate(-73.913 -156.244)" fill="#263238"/><path d="M208.372,221.913c3.072-6.213,3.851-12.8,3.677-19.664,0-.093.128-.081.151,0,1,3.339.652,7.726.093,11.124a18.279,18.279,0,0,1-3.712,8.657C208.5,222.123,208.3,222.042,208.372,221.913Z" transform="translate(-75.109 -156.119)" fill="#263238"/></g></g></svg>