<svg xmlns="http://www.w3.org/2000/svg" xmlns:xlink="http://www.w3.org/1999/xlink" width="530.968" height="520.99" viewBox="0 0 530.968 520.99"><defs><clipPath id="a"><path d="M264.135,283.25s-23.9,3.319-41.824,5.975-30.538,5.643-30.87,11.618-26.223,69.043-29.211,71.035a15.694,15.694,0,0,0-6.971,11.618,46.792,46.792,0,0,1-3.319,11.95s11.618-1.328,16.6,2.655,7.967,6.307,7.967,6.307,13.941-8.962,15.933-13.609-4.315-14.605-2.324-17.925,9.958-14.273,9.958-14.273,10.622,33.194,11.95,40.165a31.362,31.362,0,0,1-1,13.941H304.3V385.155c0-4.979,3.651-20.58,3.651-20.58s8.962,25.891,11.286,32.862a149.321,149.321,0,0,1,3.983,15.269h31.866s-10.954-32.862-14.937-43.152-8.63-51.45-10.622-56.429-30.206-20.58-44.148-23.9a214.063,214.063,0,0,1-21.244-5.975Z" transform="translate(-151.94 -283.25)" fill="#40a0c0" stroke="#263238" stroke-linecap="round" stroke-linejoin="round" stroke-width="1"/></clipPath></defs><g transform="translate(0 0)"><path d="M393.938,84.647C331.307,55.729,255.851,54.282,190.791,76.1,125.161,98.124,57.286,153.677,51.085,227.46,46.491,281.606,89.059,315.4,96.508,365.879c4.528,30.658-9.746,57.093-11.95,86.7-1.872,25.227,7.157,49.273,23.9,67.968,51.782,58.1,152.824,80.555,213.675,23.368,23.9-22.505,45.144-53.455,77.567-64.542,65.179-22.253,164.787-27.883,174.6-114.851,5.975-53-26.648-102.117-54.053-144.486C485.924,167.167,453.394,112.119,393.938,84.647Z" transform="translate(-44.047 -61.162)" fill="#40a0c0"/><path d="M393.938,84.647C331.307,55.729,255.851,54.282,190.791,76.1,125.161,98.124,57.286,153.677,51.085,227.46,46.491,281.606,89.059,315.4,96.508,365.879c4.528,30.658-9.746,57.093-11.95,86.7-1.872,25.227,7.157,49.273,23.9,67.968,51.782,58.1,152.824,80.555,213.675,23.368,23.9-22.505,45.144-53.455,77.567-64.542,65.179-22.253,164.787-27.883,174.6-114.851,5.975-53-26.648-102.117-54.053-144.486C485.924,167.167,453.394,112.119,393.938,84.647Z" transform="translate(-44.047 -61.162)" fill="#fff" opacity="0.7"/><path d="M393.938,84.647C331.307,55.729,255.851,54.282,190.791,76.1,125.161,98.124,57.286,153.677,51.085,227.46,46.491,281.606,89.059,315.4,96.508,365.879c4.528,30.658-9.746,57.093-11.95,86.7-1.872,25.227,7.157,49.273,23.9,67.968,51.782,58.1,152.824,80.555,213.675,23.368,23.9-22.505,45.144-53.455,77.567-64.542,65.179-22.253,164.787-27.883,174.6-114.851,5.975-53-26.648-102.117-54.053-144.486C485.924,167.167,453.394,112.119,393.938,84.647Z" transform="translate(-44.047 -61.162)" fill="#ee7a15"/><path d="M393.938,84.647C331.307,55.729,255.851,54.282,190.791,76.1,125.161,98.124,57.286,153.677,51.085,227.46,46.491,281.606,89.059,315.4,96.508,365.879c4.528,30.658-9.746,57.093-11.95,86.7-1.872,25.227,7.157,49.273,23.9,67.968,51.782,58.1,152.824,80.555,213.675,23.368,23.9-22.505,45.144-53.455,77.567-64.542,65.179-22.253,164.787-27.883,174.6-114.851,5.975-53-26.648-102.117-54.053-144.486C485.924,167.167,453.394,112.119,393.938,84.647Z" transform="translate(-50.74 -56.143)" fill="#fff" opacity="0.7"/></g><g transform="translate(5.856 76.171)"><rect width="493.924" height="4.501" transform="translate(0 246.749)" fill="#263238"/><path d="M312.1,263.875a10.21,10.21,0,0,0,2.974.319s-.451-1.328-.491-1.461c-.465-.956-1.925-2.549-3.107-2.39a1.407,1.407,0,0,0-1.142,1.779A2.961,2.961,0,0,0,312.1,263.875Z" transform="translate(35.161 -72.054)" fill="#263238"/><path d="M339.571,258.2c-1.195-.133-2.656,1.5-3.041,2.47,0,.093-.478,1.474-.451,1.474h0l-.73.85c-.465.571-.983,1.222-1.5,1.965a26.273,26.273,0,0,0-1.567,2.5,18.786,18.786,0,0,0-1.328,3h0v-1.407c-.146-1.062-1.036-3.041-2.2-3.253a1.434,1.434,0,0,0-1.646,1.328,2.961,2.961,0,0,0,1.142,2.217,9.933,9.933,0,0,0,2.656,1.235,25.216,25.216,0,0,0-.783,3.253c-.12.637-.212,1.328-.292,1.939v-.611c-.146-1.062-1.036-3.027-2.2-3.24a1.421,1.421,0,0,0-1.646,1.328,2.974,2.974,0,0,0,1.142,2.217,9.866,9.866,0,0,0,2.656,1.208c0,.239-.066.491-.093.744-.146,1.208-.279,2.4-.451,3.572-.066.425-.133.823-.212,1.235a4.2,4.2,0,0,0,0-.531c-.133-1.062-1.022-3.041-2.2-3.253a1.407,1.407,0,0,0-1.633,1.328,2.961,2.961,0,0,0,1.142,2.217,8.923,8.923,0,0,0,2.523,1.182c-.08.412-.173.823-.279,1.222s-.133.531-.212.8-.173.531-.266.8c-.173.491-.358,1.009-.544,1.487l-.385.956c.066-.412.173-1.208.173-1.328a5.311,5.311,0,0,0-.73-2.656,2.581,2.581,0,0,0,0-.319,1.407,1.407,0,0,0-1.726-1.195c-1.155.305-1.9,2.337-1.952,3.4a9.6,9.6,0,0,0,.066,1.182,3.158,3.158,0,0,0-.173-.744c-.119-.518-.252-1.022-.4-1.567l-.239-.8c-.08-.266-.186-.531-.279-.81-.226-.624-.491-1.248-.77-1.872a9.136,9.136,0,0,0,2.655-1,2.987,2.987,0,0,0,1.328-2.124,1.421,1.421,0,0,0-1.527-1.461c-1.195.133-2.231,2.031-2.443,3.08,0,.066-.093.836-.119,1.248-.173-.372-.332-.744-.518-1.115-.531-1.062-1.1-2.138-1.673-3.2l-.518-.983a10.119,10.119,0,0,0,2.775-1.022A2.987,2.987,0,0,0,322.416,273a1.421,1.421,0,0,0-1.54-1.447c-1.182.133-2.217,2.032-2.43,3.08,0,.08-.119,1.182-.133,1.461-.372-.717-.744-1.447-1.076-2.164a23.637,23.637,0,0,1-1.168-3.027,9.878,9.878,0,0,0,2.788-1.022,3.041,3.041,0,0,0,1.328-2.138,1.421,1.421,0,0,0-1.54-1.447c-1.182.133-2.217,2.031-2.443,3.08,0,.08-.12,1.328-.12,1.487l-.066-.186a17.636,17.636,0,0,1-.6-3.187c-.066-.6-.106-1.168-.119-1.726a9.214,9.214,0,0,0,2.815-.7,3,3,0,0,0,1.527-1.965,1.434,1.434,0,0,0-1.328-1.62c-1.195,0-2.43,1.779-2.762,2.788l-.226,1.062v-.743a17.82,17.82,0,0,1,.106-2.47,9.671,9.671,0,0,1,.12-1.155,9.373,9.373,0,0,0,2.164-1.912,2.947,2.947,0,0,0,.438-2.456,1.407,1.407,0,0,0-1.952-.8c-1.062.544-1.328,2.656-1.168,3.744,0,.093.425,1.487.438,1.487h0a9.019,9.019,0,0,1-.146,1.1c0,.73-.146,1.567-.159,2.47a24.871,24.871,0,0,0,.066,2.948,18.158,18.158,0,0,0,.544,3.24h0c-.186-.305-.744-1.115-.8-1.168-.7-.81-2.523-1.965-3.625-1.487a1.407,1.407,0,0,0-.637,2,2.961,2.961,0,0,0,2.178,1.221,9.971,9.971,0,0,0,2.921-.451,24.858,24.858,0,0,0,1.129,3.147c.266.6.544,1.195.836,1.779-.173-.252-.332-.465-.358-.491-.7-.81-2.523-1.965-3.625-1.5a1.421,1.421,0,0,0-.637,2.018,2.974,2.974,0,0,0,2.178,1.222,9.39,9.39,0,0,0,2.841-.438c.106.226.212.451.332.677.544,1.089,1.089,2.164,1.593,3.24.173.372.332.757.5,1.129l-.305-.438c-.7-.8-2.536-1.952-3.638-1.487a1.421,1.421,0,0,0-.624,2.018A2.974,2.974,0,0,0,318.221,283a9.423,9.423,0,0,0,2.748-.412c.159.385.319.783.451,1.168s.186.518.252.783.146.544.226.81c.12.5.252,1.036.359,1.54s.146.677.212,1.009l-.558-1.168c-.571-.9-2.2-2.324-3.372-2.018a1.394,1.394,0,0,0-.916,1.885,2.908,2.908,0,0,0,1.952,1.54,9.639,9.639,0,0,0,2.934,0c.12.558.226,1.089.305,1.607.319,1.779.518,3.266.637,4.315v.5H319.84l1.328,25.692H327.3l1.328-25.692h-3.359l.08-.146c.465-.956,1.1-2.337,1.792-3.983l.664-1.686a10.327,10.327,0,0,0,2.934.226,3.041,3.041,0,0,0,2.071-1.328,1.421,1.421,0,0,0-.783-1.952c-1.142-.385-2.868.9-3.505,1.766,0,0-.385.651-.6,1.022l.279-.73c.173-.491.345-.983.518-1.527l.239-.783a8.561,8.561,0,0,0,.212-.837c.159-.651.279-1.328.4-1.978a9.292,9.292,0,0,0,2.775.637,2.934,2.934,0,0,0,2.257-1.062,1.421,1.421,0,0,0-.478-2.058c-1.062-.544-2.974.465-3.731,1.222,0,0-.531.651-.783.983a10.013,10.013,0,0,1,.173-1.222c.146-1.182.266-2.39.385-3.585a10.551,10.551,0,0,1,.106-1.115,9.507,9.507,0,0,0,2.881.677,2.961,2.961,0,0,0,2.257-1.049,1.421,1.421,0,0,0-.478-2.058c-1.062-.558-2.974.465-3.731,1.208,0,0-.757.929-.916,1.155.08-.81.173-1.607.305-2.4a21.865,21.865,0,0,1,.69-3.16,9.879,9.879,0,0,0,2.881.677,2.961,2.961,0,0,0,2.257-1.049,1.421,1.421,0,0,0-.478-2.058c-1.062-.558-2.974.465-3.731,1.208,0,.066-.8,1-.929,1.182a1.331,1.331,0,0,0,0-.186,19.185,19.185,0,0,1,1.248-3c.279-.531.571-1.022.863-1.5a9.495,9.495,0,0,0,2.735.969,2.975,2.975,0,0,0,2.363-.81,1.434,1.434,0,0,0-.252-2.1c-1-.651-3,.146-3.837.81,0,0-.478.451-.77.757l.4-.624c.5-.757,1.009-1.421,1.461-2l.73-.89a9.3,9.3,0,0,0,2.855-.4,2.974,2.974,0,0,0,1.726-1.806,1.421,1.421,0,0,0-1.235-1.78Zm-13.185,32c-.73,1.646-1.328,3-1.859,3.983-.106.186-.186.359-.266.5h-.08a2.715,2.715,0,0,0-.08-.6c-.146-1.062-.372-2.563-.73-4.355-.106-.558-.239-1.168-.385-1.779a15.928,15.928,0,0,0,1.646-.77,10.619,10.619,0,0,0,2.377,1.54Z" transform="translate(35.24 -73.588)" fill="#263238"/><path d="M328.394,264.626s.385-1.407.4-1.5c.146-1.049-.186-3.187-1.328-3.7a1.407,1.407,0,0,0-1.925.85,2.948,2.948,0,0,0,.518,2.443A10.62,10.62,0,0,0,328.394,264.626Z" transform="translate(40.137 -72.394)" fill="#263238"/><path d="M97.429,265.829a9.756,9.756,0,0,0,2.828.319s-.438-1.328-.478-1.394c-.438-.916-1.819-2.43-2.948-2.27a1.328,1.328,0,0,0-1.089,1.686,2.855,2.855,0,0,0,1.686,1.66Z" transform="translate(-35.171 -71.353)" fill="#263238"/><path d="M123.655,260.386c-1.129-.12-2.483,1.421-2.895,2.35,0,.093-.451,1.407-.425,1.407h0c-.226.239-.451.5-.69.8-.438.544-.943,1.168-1.434,1.872a27.031,27.031,0,0,0-1.487,2.363,17.646,17.646,0,0,0-1.328,2.868h0v-1.328c-.133-1.009-.983-2.881-2.1-3.08a1.328,1.328,0,0,0-1.553,1.328,2.775,2.775,0,0,0,1.075,2.111,9.294,9.294,0,0,0,2.549,1.168,25.635,25.635,0,0,0-.744,3.094c-.106.611-.2,1.235-.279,1.846V276.6c-.133-1.009-.983-2.881-2.1-3.08a1.328,1.328,0,0,0-1.553,1.261,2.828,2.828,0,0,0,1.075,2.111,8.579,8.579,0,0,0,2.483,1.142,1.908,1.908,0,0,1-.093.717c-.133,1.142-.266,2.284-.425,3.4l-.2,1.168v-.5c-.133-1.009-.983-2.881-2.1-3.094a1.328,1.328,0,0,0-1.553,1.328,2.775,2.775,0,0,0,1.075,2.1,8.831,8.831,0,0,0,2.4,1.129c-.08.385-.159.783-.266,1.155a7.064,7.064,0,0,1-.212.757l-.239.757c-.173.465-.345.956-.518,1.407s-.252.624-.372.916c.066-.385.173-1.155.173-1.222a5.218,5.218,0,0,0-.7-2.536,2.352,2.352,0,0,0,0-.305,1.328,1.328,0,0,0-1.66-1.142c-1.089.292-1.792,2.231-1.846,3.24v1.129l-.159-.717c-.119-.491-.252-.969-.385-1.487-.08-.252-.159-.5-.226-.757s-.186-.518-.266-.77c-.226-.6-.478-1.195-.73-1.779a9.056,9.056,0,0,0,2.536-.956,2.855,2.855,0,0,0,1.235-2.018,1.328,1.328,0,0,0-1.461-1.328c-1.129.12-2.111,1.925-2.324,2.921,0,.066-.08.8-.106,1.195-.159-.345-.319-.7-.491-1.062-.5-1.022-1.049-2.031-1.593-3.054l-.491-.929a9.521,9.521,0,0,0,2.656-.969,2.855,2.855,0,0,0,1.235-2.031,1.328,1.328,0,0,0-1.461-1.328c-1.129.133-2.111,1.939-2.324,2.934,0,.066-.106,1.129-.119,1.394-.358-.69-.7-1.328-1.022-2.071a25.533,25.533,0,0,1-1.115-2.868,9.426,9.426,0,0,0,2.655-.982A2.815,2.815,0,0,0,105,269.747a1.328,1.328,0,0,0-1.461-1.328c-1.129.12-2.111,1.925-2.31,2.921,0,.08-.119,1.208-.133,1.421v-.173a17.05,17.05,0,0,1-.571-3.027c0-.571-.093-1.115-.12-1.646a8.9,8.9,0,0,0,2.656-.664,2.815,2.815,0,0,0,1.447-1.885,1.328,1.328,0,0,0-1.328-1.527c-1.142,0-2.324,1.686-2.655,2.656,0,0-.133.6-.212,1.009v-.717a16.264,16.264,0,0,1,.106-2.35,8.53,8.53,0,0,1,.12-1.089,8.789,8.789,0,0,0,2.045-1.819,2.775,2.775,0,0,0,.425-2.337,1.328,1.328,0,0,0-1.846-.757c-1.022.518-1.328,2.563-1.115,3.558,0,.093.4,1.421.412,1.407h0c0,.319-.093.664-.133,1.049,0,.69-.146,1.487-.159,2.35a22.223,22.223,0,0,0,0,2.788,16.236,16.236,0,0,0,.518,3.08h0l-.757-1.1c-.664-.77-2.4-1.872-3.452-1.421a1.328,1.328,0,0,0-.6,1.912,2.8,2.8,0,0,0,2.058,1.155,9.149,9.149,0,0,0,2.775-.425,24.578,24.578,0,0,0,1.089,2.987c.239.571.5,1.142.783,1.7l-.332-.478c-.664-.77-2.4-1.859-3.452-1.421a1.328,1.328,0,0,0-.6,1.912,2.815,2.815,0,0,0,2.058,1.168,9.293,9.293,0,0,0,2.656-.411l.319.637c.518,1.036,1.049,2.058,1.527,3.08l.478,1.075-.292-.412c-.664-.77-2.4-1.872-3.452-1.421a1.328,1.328,0,0,0-.6,1.912,2.815,2.815,0,0,0,2.058,1.168,8.617,8.617,0,0,0,2.656-.4c.146.372.292.744.425,1.115a6.624,6.624,0,0,1,.239.757c.066.266.146.5.212.757.119.478.239.982.345,1.461l.2.969-.531-1.115c-.544-.85-2.1-2.2-3.2-1.925a1.328,1.328,0,0,0-.89,1.806,2.828,2.828,0,0,0,1.872,1.461,9.122,9.122,0,0,0,2.788,0c.106.518.212,1.036.292,1.527.292,1.686.478,3.107.6,4.1v.491h-3.426l1.248,24.417h5.842l1.248-24.417h-3.187v-.146c.438-.916,1.049-2.231,1.7-3.837.212-.5.425-1.049.637-1.62a8.909,8.909,0,0,0,2.788.226,2.8,2.8,0,0,0,1.965-1.328,1.328,1.328,0,0,0-.744-1.859c-1.075-.358-2.656.863-3.333,1.686l-.558.969c.08-.226.173-.451.252-.69.173-.465.332-.943.5-1.447.08-.252.146-.5.226-.757s.133-.518.2-.783c.146-.624.266-1.248.372-1.885a9.041,9.041,0,0,0,2.656.6,2.854,2.854,0,0,0,2.151-1,1.328,1.328,0,0,0-.451-1.965c-1.009-.518-2.828.451-3.545,1.168,0,0-.5.611-.757.929a8.666,8.666,0,0,1,.173-1.155c.133-1.129.252-2.284.358-3.426a3.57,3.57,0,0,1,.106-1.049,9.3,9.3,0,0,0,2.735.637,2.854,2.854,0,0,0,2.151-1,1.328,1.328,0,0,0-.465-1.952c-1.009-.531-2.815.438-3.545,1.155,0,0-.717.876-.863,1.089.08-.77.159-1.527.279-2.284a23.545,23.545,0,0,1,.664-3,9.293,9.293,0,0,0,2.748.637,2.828,2.828,0,0,0,2.138-1,1.328,1.328,0,0,0-.451-1.965c-1.009-.518-2.828.451-3.545,1.168,0,0-.77.943-.89,1.115a.983.983,0,0,0,0-.186,16.584,16.584,0,0,1,1.195-2.841c.252-.5.531-.982.81-1.434a8.511,8.511,0,0,0,2.656.916,2.762,2.762,0,0,0,2.244-.757,1.328,1.328,0,0,0-.239-1.992c-.943-.637-2.855.12-3.651.757l-.73.73c.133-.2.252-.412.385-.6.478-.717.956-1.328,1.328-1.9.252-.319.478-.6.7-.85A9.123,9.123,0,0,0,122.7,264a2.868,2.868,0,0,0,1.646-1.713,1.328,1.328,0,0,0-.69-1.9ZM111.121,290.8c-.69,1.58-1.328,2.868-1.779,3.758-.08.186-.173.345-.239.491h-.08a1.549,1.549,0,0,0-.08-.584c-.133-1.009-.358-2.43-.69-4.129-.106-.544-.226-1.115-.358-1.7a14.6,14.6,0,0,0,1.553-.73,9.944,9.944,0,0,0,2.27,1.461C111.52,289.875,111.307,290.353,111.121,290.8Z" transform="translate(-35.174 -72.721)" fill="#263238"/><path d="M112.924,266.57s.372-1.328.385-1.407c.133-1.009-.186-3.041-1.208-3.532a1.328,1.328,0,0,0-1.832.81,2.815,2.815,0,0,0,.478,2.324,9.839,9.839,0,0,0,2.178,1.806Z" transform="translate(-30.418 -71.67)" fill="#263238"/><line y1="249.405" transform="translate(378.847)" fill="none" stroke="#263238" stroke-linecap="round" stroke-linejoin="round" stroke-width="1"/><line y1="247.851" transform="translate(155.785 1.553)" fill="none" stroke="#263238" stroke-linecap="round" stroke-linejoin="round" stroke-width="1"/><line x2="462.708" transform="translate(13.384 126.973)" fill="none" stroke="#263238" stroke-linecap="round" stroke-linejoin="round" stroke-width="1"/><line x1="5.762" y2="3.545" transform="translate(215.136 81.165)" fill="none" stroke="#263238" stroke-linecap="round" stroke-linejoin="round" stroke-width="0.5"/><line x1="89.517" y2="55.168" transform="translate(228.652 21.217)" fill="none" stroke="#263238" stroke-linecap="round" stroke-linejoin="round" stroke-width="0.5"/><line x1="71.725" y2="44.188" transform="translate(258.261 24.948)" fill="none" stroke="#263238" stroke-linecap="round" stroke-linejoin="round" stroke-width="0.5"/><line x1="21.669" y2="13.344" transform="translate(339.639 5.643)" fill="none" stroke="#263238" stroke-linecap="round" stroke-linejoin="round" stroke-width="0.5"/><circle cx="35.849" cy="35.849" r="35.849" transform="translate(118.608 20.54)" fill="#263238"/><circle cx="31.096" cy="31.096" r="31.096" transform="translate(123.361 25.294)" fill="#fff"/><path d="M151.25,173.687l20.169-5.723V139.75" transform="translate(-16.961 -111.575)" fill="none" stroke="#263238" stroke-miterlimit="10" stroke-width="2"/></g><g transform="translate(0.983 424.334)"><line x2="8.83" transform="translate(482.439)" fill="#fff" stroke="#263238" stroke-linecap="round" stroke-linejoin="round" stroke-width="1"/><line x2="470.462" fill="#fff" stroke="#263238" stroke-linecap="round" stroke-linejoin="round" stroke-width="1"/></g><g transform="translate(59.112 381.357)"><path d="M134.036,371.43H90.22s0,11.764,6.187,27.152c0,2.948,7.077,5.311,15.814,5.311s15.8-2.377,15.8-5.311a1.672,1.672,0,0,0,0-.438C133.969,382.968,134.036,371.43,134.036,371.43Z" transform="translate(-90.22 -340.828)" fill="#fff" stroke="#263238" stroke-linecap="round" stroke-linejoin="round" stroke-width="1"/><ellipse cx="22.001" cy="6.386" rx="22.001" ry="6.386" transform="translate(0.053 24.216)" fill="#fff" stroke="#263238" stroke-linecap="round" stroke-linejoin="round" stroke-width="1"/><ellipse cx="19.744" cy="5.338" rx="19.744" ry="5.338" transform="translate(2.31 25.265)" fill="#fff" stroke="#263238" stroke-linecap="round" stroke-linejoin="round" stroke-width="1"/><path d="M93.36,373.887c3.16,1.819,9.971,3.067,17.885,3.067s14.725-1.248,17.872-3.067c-3.147-1.806-9.971-3.067-17.872-3.067S96.52,372.081,93.36,373.887Z" transform="translate(-89.191 -341.027)" fill="#263238" stroke="#263238" stroke-linecap="round" stroke-linejoin="round" stroke-width="1"/><path d="M100.975,378.626s-5.723-14.287-4.05-18.1,7.143-3.333,9.055.478,2.855,18.1,2.855,18.1S103.113,381.016,100.975,378.626Z" transform="translate(-88.123 -345.262)" fill="#40a0c0" stroke="#263238" stroke-linecap="round" stroke-linejoin="round" stroke-width="1"/><path d="M104.545,383.18s-4.528-25.227-3.346-30.007,7.157-6.44,11.432-2.868,2.656,21.682,2.656,24.3-.239,8.1-.239,8.1A19.916,19.916,0,0,1,104.545,383.18Z" transform="translate(-86.686 -348.382)" fill="#40a0c0" stroke="#263238" stroke-linecap="round" stroke-linejoin="round" stroke-width="1"/><path d="M111.177,378.149s-3.532-9.772-1.421-13.583,6.426-2.377,6.426.717.239,10.489-.239,12.149S112.85,379.583,111.177,378.149Z" transform="translate(-84.038 -343.828)" fill="#40a0c0" stroke="#263238" stroke-linecap="round" stroke-linejoin="round" stroke-width="1"/><path d="M107.441,382.4c-5.962-22.572-.956-33.818-.956-33.818s7.143,12.388,3.333,33.818" transform="translate(-85.533 -348.317)" fill="none" stroke="#263238" stroke-linecap="round" stroke-linejoin="round" stroke-width="1"/><path d="M99.766,359.52s-5.484.239,3.572,19.053" transform="translate(-87.63 -344.731)" fill="none" stroke="#263238" stroke-linecap="round" stroke-linejoin="round" stroke-width="1"/></g><g transform="translate(79.321 184.439)"><path d="M265.587,309.768s-85.547-2.908-94.27,16.531,0,77.766,0,77.766H304.491s19.04-72.256,8.418-81.989S265.587,309.768,265.587,309.768Z" transform="translate(-85.119 -164.17)" fill="#263238" stroke="#263238" stroke-miterlimit="10" stroke-width="1"/><path d="M266.764,205.606s-4.647-2.151-7.356.584-4.952,4.156-7.05,4.275-7.157-1.394-8.6,2.47-4.182,3.572-5.975,4.063-7.528,2.231-7.767,4.541.146,5.311-1.992,5.8-7.329.252-8.046,3.85a9.839,9.839,0,0,1-5.59,7.1c-2.164.783-6.639,0-7.011,3.983s-.465,7.967-.465,7.967l-2.47,3.744s-4.063,2.257-3.08,6.36,4.873,6.838.332,10.383-7.488,5.311-5.391,8.458,5.59,3.24,4.873,6.838-5.7,8.1-.319,9.971,6.851,1.036,6.174,4.3,3.147,6.639,4.873,6.838.956.77,2.284,4.9a7.674,7.674,0,0,0,6.413,5.311c1.328.146,3.16-.345,5.311,2.217s23.315,20.394,46.471,22.412a81.113,81.113,0,0,0,41.745-6.758c4.714-1.859,9.586-5.311,9.547-8.365s6.227-3.041,8.564-5.47,2.775-3.386,2.775-6.718.319-6.639,1.593-8.856,2.775-3.386,2.43-6.758,2.178-7.781,3.758-9.626,3.226-4.342.252-9.294-4.249-6.108-3.147-10,2.868-7.714.412-10.967a12.813,12.813,0,0,1-2.523-9.294c.266-2.655,2.191-4.448-1.739-6.851s-3.9-6.068-4.435-7.794.412-3.983-4.209-6.44a14.088,14.088,0,0,1-6.838-7.967c-.823-2.085-3.213-6-7.276-7.077s-6.161-.969-8.923-4.581-5.311-6.546-9.042-6.931-3.479,0-9.082.412a18.1,18.1,0,0,1-9.294-1.328C275.607,200.826,271.464,197.068,266.764,205.606Z" transform="translate(-75.886 -200.073)" fill="#263238" stroke="#263238" stroke-linecap="round" stroke-linejoin="round" stroke-width="1"/><path d="M203.7,270.331c2.815-2-1.208-9.653,1.208-14.473s2.815-4.421,4.82-9.294,1.208-6.041,5.231-6.838,6.838-4.421,11.259-9.653,7.635-1.607,11.259-7.236S239.085,216,243.9,215.2s10.861-2.018,14.074-4.435a16.3,16.3,0,0,1,9.653-3.213,14.3,14.3,0,0,0,4.82-.8,15.137,15.137,0,0,1,7.236-2.018c3.983,0,3.983,1.607,10.861,0m-18.1,7.236s-10.848,5.63-12.056,9.294-7.236,0-11.658,4.82-2.815,10.051-7.648,12.069-14.871,2-15.269,8.444-.81,10.449-3.983,13.663-7.236,3.983-4.421,8.444,4.421,6.838.4,12.069-10.861,6.825-4.82,12.454,10.051,6.041,7.635,10.051,3.611,6.041,5.231,6.838" transform="translate(-73.235 -198.543)" fill="none" stroke="#fff" stroke-miterlimit="10" stroke-width="1"/><path d="M224.9,263.477s8.843,0,11.658-2.417,5.63-6.028,9.294-3.983,7.236,1.208,9.294-3.625-3.213-6.825,3.983-6.825,7.635-1.607,10.848-7.236-.8-5.63,8.856-6.041,10.449-6.825,14.074-6.426,5.218,1.208,1.607,8.843-6.838,8.445-2.018,12.468,9.653,2.815,6.838,12.056-.4,10.051.81,13.676,2.815,4.82-2.417,9.653-6.838,4.421-5.63,10.051,2.417,7.967-2,10.051-8.046,4.82-6.041,6.838,2.815,2.4,1.62,3.983" transform="translate(-66.287 -191.278)" fill="none" stroke="#fff" stroke-miterlimit="10" stroke-width="1"/><path d="M264.135,283.25s-23.9,3.319-41.824,5.975-30.538,5.643-30.87,11.618-26.223,69.043-29.211,71.035a15.694,15.694,0,0,0-6.971,11.618,46.792,46.792,0,0,1-3.319,11.95s11.618-1.328,16.6,2.655,7.967,6.307,7.967,6.307,13.941-8.962,15.933-13.609-4.315-14.605-2.324-17.925,9.958-14.273,9.958-14.273,10.622,33.194,11.95,40.165a31.362,31.362,0,0,1-1,13.941H304.3V385.155c0-4.979,3.651-20.58,3.651-20.58s8.962,25.891,11.286,32.862a149.321,149.321,0,0,1,3.983,15.269h31.866s-10.954-32.862-14.937-43.152-8.63-51.45-10.622-56.429-30.206-20.58-44.148-23.9a214.063,214.063,0,0,1-21.244-5.975Z" transform="translate(-90.2 -172.811)" fill="#40a0c0"/><g transform="translate(61.74 110.439)" clip-path="url(#a)"><path d="M168.537,395.914c4.979,3.983,7.967,6.307,7.967,6.307s13.941-8.962,15.933-13.609-4.315-14.605-2.324-17.925,9.958-14.273,9.958-14.273l.226.7,6.745-7.967s2.656.664,6.639,14.605,21.244,22.572,17.261,29.874c-2.576,4.727-4.873,12.215-6.174,16.929H304.3V382.968c0-4.979,3.651-20.58,3.651-20.58s8.962,25.891,11.286,32.862a149.319,149.319,0,0,1,3.983,15.269h31.866s-10.954-32.862-14.937-43.152c-3.386-8.737-7.25-39.753-9.56-51.942a28.293,28.293,0,0,0-4.05-4.156c-9.294-7.3-31.866-15.269-37.177-15.933s-18.589-9.294-33.194-3.319c0,0-9.958,8.63-17.261,10.622S217,290.026,215.672,297.328a46.352,46.352,0,0,0,0,14.605s-7.966-18.589-7.3-11.286.664,13.941.664,13.941-7.3-15.933-7.3-9.294,3.319,15.269,2.656,20.58-19.252,38.5-21.244,41.824-1.328,9.427-3.651,14.008a12.362,12.362,0,0,1-6.971,5.909s1.992-8.63-5.311-7.967-15.269,13.609-15.269,13.609S163.558,391.931,168.537,395.914Z" transform="translate(-151.94 -281.063)" opacity="0.3"/></g><path d="M264.135,283.25s-23.9,3.319-41.824,5.975-30.538,5.643-30.87,11.618-26.223,69.043-29.211,71.035a15.694,15.694,0,0,0-6.971,11.618,46.792,46.792,0,0,1-3.319,11.95s11.618-1.328,16.6,2.655,7.967,6.307,7.967,6.307,13.941-8.962,15.933-13.609-4.315-14.605-2.324-17.925,9.958-14.273,9.958-14.273,10.622,33.194,11.95,40.165a31.362,31.362,0,0,1-1,13.941H304.3V385.155c0-4.979,3.651-20.58,3.651-20.58s8.962,25.891,11.286,32.862a149.321,149.321,0,0,1,3.983,15.269h31.866s-10.954-32.862-14.937-43.152-8.63-51.45-10.622-56.429-30.206-20.58-44.148-23.9a214.063,214.063,0,0,1-21.244-5.975Z" transform="translate(-90.2 -172.811)" fill="none" stroke="#263238" stroke-linecap="round" stroke-linejoin="round" stroke-width="1"/><path d="M242.047,325.75s2.921,29.649,1.686,41.957-5.537,21.549-3.691,30.167" transform="translate(-61.473 -158.882)" fill="none" stroke="#263238" stroke-linecap="round" stroke-linejoin="round" stroke-width="1"/><line y1="11.286" x2="5.311" transform="translate(220.407 159.898)" fill="none" stroke="#263238" stroke-linecap="round" stroke-linejoin="round" stroke-width="1"/><path d="M237.612,282.8s-3.651,2.324-4.315,4.647-5.975,8.63-8.3,17.925-1,26.223.664,22.24S231.637,314.993,233.3,313s1.992.664,3.319,6.307,10.622,22.572,10.622,22.572,6.971-15.6,10.954-17.925S263.835,314,263.835,314s3.983,19.916,6.307,19.916,3.319-15.269,2.324-24.563-5.311-20.58-7.966-24.231S250.558,269.186,237.612,282.8Z" transform="translate(-66.664 -175.012)" fill="#fff" stroke="#263238" stroke-linecap="round" stroke-linejoin="round" stroke-width="1"/><path d="M234.547,279.75s-1.328,25.891.664,37.177,6.971,27.883,8.63,23.9,12.282-23.568,13.941-32.53a96.409,96.409,0,0,1,5.975-18.589S243.841,292.032,234.547,279.75Z" transform="translate(-63.267 -173.958)" fill="#fff" stroke="#263238" stroke-linecap="round" stroke-linejoin="round" stroke-width="1"/><path d="M282.911,235.6s-5.789,1.66-7.236,4.886-2.656,3.479-6.32,6.851-4.793,2.881-7.688,5.59-5.125,2.47-8.537,2.868-6.386.106-7.967,1.062a38.514,38.514,0,0,1-4.727,2.151s-2.111-1.328-3.744,3.731-3.6,16.876-2.39,23.368,6.015,21.974,13.5,25.745,25.573-8.272,30.22-13.41,14.233-29.29,14.605-33.366-5.922-11.844-7.1-14.964.491-4.82-1.832-7.688S282.911,235.6,282.911,235.6Z" transform="translate(-63.328 -188.429)" fill="#fff" stroke="#263238" stroke-linecap="round" stroke-linejoin="round" stroke-width="1"/><path d="M259.138,275.207s-1.062,1.846-4.74,1.474-5.125-3.147-4.7-5.311" transform="translate(-58.183 -176.705)" fill="none" stroke="#263238" stroke-linecap="round" stroke-linejoin="round" stroke-width="1"/><path d="M246.06,276.29a19.518,19.518,0,0,0,12.4,4.753" transform="translate(-59.351 -175.092)" fill="none" stroke="#263238" stroke-linecap="round" stroke-linejoin="round" stroke-width="1"/><path d="M253.962,260.155l-1.407,3.133s-4.806,2.124-9.175-4.209" transform="translate(-60.23 -180.733)" fill="none" stroke="#263238" stroke-linecap="round" stroke-linejoin="round" stroke-width="1"/><path d="M270.255,266.524l-1.168,2.934s-6.028,1.328-7.966-3.638" transform="translate(-54.416 -178.524)" fill="none" stroke="#263238" stroke-linecap="round" stroke-linejoin="round" stroke-width="1"/><path d="M263,258.8s9.985-3.784,12.76,5.457" transform="translate(-53.799 -181.076)" fill="none" stroke="#263238" stroke-linecap="round" stroke-linejoin="round" stroke-width="1"/><path d="M258.018,257.007s-3.519-8.219-13.278-4.634" transform="translate(-59.784 -183.228)" fill="none" stroke="#263238" stroke-linecap="round" stroke-linejoin="round" stroke-width="1"/><path d="M252.905,263.541s-1.819.69-5.616-.571a8.206,8.206,0,0,1-4.979-4.66S242.283,267.047,252.905,263.541Z" transform="translate(-60.581 -180.985)" fill="#263238"/><path d="M270.615,270.291s-1.819.69-5.616-.571a8.205,8.205,0,0,1-4.979-4.66S259.993,273.783,270.615,270.291Z" transform="translate(-54.776 -178.773)" fill="#263238"/><path d="M188.19,347.62s11.286-18.257,17.261-30.87" transform="translate(-78.319 -161.832)" fill="#fff" stroke="#263238" stroke-linecap="round" stroke-linejoin="round" stroke-width="1"/><path d="M194.69,333.2A41.4,41.4,0,0,0,207.3,320.25" transform="translate(-76.188 -160.684)" fill="none" stroke="#263238" stroke-linecap="round" stroke-linejoin="round" stroke-width="1"/><path d="M141.44,389h68.6l37.39,25.453H168.659Z" transform="translate(-93.641 -138.151)" fill="#fff" stroke="#263238" stroke-linecap="round" stroke-linejoin="round" stroke-width="1"/><line x1="55.102" transform="translate(80.993 270.765)" fill="none" stroke="#263238" stroke-linecap="round" stroke-linejoin="round" stroke-width="1"/><line x1="55.102" transform="translate(75.682 265.454)" fill="none" stroke="#263238" stroke-linecap="round" stroke-linejoin="round" stroke-width="1"/><line x1="55.102" transform="translate(70.371 260.143)" fill="none" stroke="#263238" stroke-linecap="round" stroke-linejoin="round" stroke-width="1"/><path d="M105.44,401h68.6l37.39,25.453H132.659Z" transform="translate(-105.44 -134.218)" fill="#fff" stroke="#263238" stroke-linecap="round" stroke-linejoin="round" stroke-width="1"/><line x1="55.102" transform="translate(33.194 286.698)" fill="none" stroke="#263238" stroke-linecap="round" stroke-linejoin="round" stroke-width="1"/><line x1="55.102" transform="translate(27.883 281.387)" fill="none" stroke="#263238" stroke-linecap="round" stroke-linejoin="round" stroke-width="1"/><line x1="55.102" transform="translate(22.572 276.076)" fill="none" stroke="#263238" stroke-linecap="round" stroke-linejoin="round" stroke-width="1"/><path d="M188,385.114s-6.2-9.294-9.958-15.043-11.95-9.732-19.252-7.966-10.848,8.4-10.848,15.495.664,12.826,8.4,17.035,25.015,6.413,25.015,6.413S194.411,405.92,188,385.114Z" transform="translate(-91.511 -147.105)" fill="#fff" stroke="#263238" stroke-linecap="round" stroke-linejoin="round" stroke-width="1"/><path d="M175.752,377.76s-8.484,2.656-9.069,5.842-1.461,10.25-.876,13.463S174,400,179.271,400s7.9-5.311,6.732-7.024-5.855-2.655-7.608-6.732A50.016,50.016,0,0,1,175.752,377.76Z" transform="translate(-85.718 -141.835)" fill="#fff" stroke="#263238" stroke-linecap="round" stroke-linejoin="round" stroke-width="1"/><path d="M181,382.314c-1.248-2.8-2.828-5.431-3.532-6.957-1.9-4.089-6.041-4.262-6.267.916-.133,2.934,5.311,20.076,10.038,16.132C183.8,390.28,182.7,386.124,181,382.314Z" transform="translate(-83.888 -143.614)" fill="#fff" stroke="#263238" stroke-linecap="round" stroke-linejoin="round" stroke-width="1"/><path d="M166.64,383.05s.292,3.505,7.316,7.608,9.069,2.655,11.419,2.655" transform="translate(-85.382 -140.102)" fill="#fff" stroke="#263238" stroke-linecap="round" stroke-linejoin="round" stroke-width="1"/><path d="M165.76,388.34s.863,5.762,16.955,6.931" transform="translate(-85.67 -138.368)" fill="#fff" stroke="#263238" stroke-linecap="round" stroke-linejoin="round" stroke-width="1"/><path d="M185.649,401.486l-13.862-39.833a1.992,1.992,0,0,1,1.235-2.536h0a1.992,1.992,0,0,1,2.536,1.235l13.809,39.872Z" transform="translate(-83.731 -147.982)" fill="#263238"/><path d="M182.2,391.351l3.744,4.793.013-6.094Z" transform="translate(-80.282 -137.807)" fill="#fff"/><path d="M184,393.438l1.328,1.739V393A5.867,5.867,0,0,0,184,393.438Z" transform="translate(-79.692 -136.84)" fill="#263238"/><path d="M175.559,360.33a2,2,0,1,0-3.771,1.328l1.328,3.983,3.718-1.421Z" transform="translate(-83.732 -147.986)" fill="#fff"/><path d="M178.44,372s3.983-1.54,5.975,0,3.094,5.537,3.094,10.184,2.217,10.622-1.766,10.4S178.44,372,178.44,372Z" transform="translate(-81.514 -143.948)" fill="#fff" stroke="#263238" stroke-linecap="round" stroke-linejoin="round" stroke-width="1"/><path d="M252,403.37,221.77,384.33H337.284l43.059,19.04Z" transform="translate(-67.313 -139.682)" fill="#fff" stroke="#263238" stroke-linecap="round" stroke-linejoin="round" stroke-width="1"/><path d="M372.881,421.285H244.54l14.778-91.615H387.672Z" transform="translate(-59.85 -157.597)" fill="#fff" stroke="#263238" stroke-linecap="round" stroke-linejoin="round" stroke-width="1"/><path d="M380.13,364.86c-21.735,4.939-40.483,0-77.687,6.041C266,376.77,251.258,393.38,245.35,404.679l-.81,5.072H372.881Z" transform="translate(-59.85 -146.063)" fill="#263238" stroke="#263238" stroke-miterlimit="10" stroke-width="1"/><path d="M349.5,373.375s-7.276.929-9.892,3.917-.558,4.116,1.686,4.116,9.706,0,13.065-3.983C357.085,374.292,355.293,373,349.5,373.375Z" transform="translate(-29.091 -143.293)" fill="#fff" stroke="#263238" stroke-linecap="round" stroke-linejoin="round" stroke-width="1"/><path d="M347.674,389.405s-7.276.929-9.892,3.917-.558,4.1,1.686,4.1,9.706,0,13.065-3.917C355.269,390.321,353.463,389.034,347.674,389.405Z" transform="translate(-29.691 -138.039)" fill="#fff" stroke="#263238" stroke-linecap="round" stroke-linejoin="round" stroke-width="1"/><path d="M348.247,385.185s-7.289.929-9.905,3.917-.558,4.116,1.686,4.116,9.706,0,13.065-3.983C355.829,386.115,354.023,384.813,348.247,385.185Z" transform="translate(-29.507 -139.422)" fill="#fff" stroke="#263238" stroke-linecap="round" stroke-linejoin="round" stroke-width="1"/><path d="M348.383,380.405s-7.289.929-9.892,3.917-.571,4.116,1.673,4.116,9.706,0,13.065-3.983C355.965,381.322,354.172,380.034,348.383,380.405Z" transform="translate(-29.457 -140.989)" fill="#fff" stroke="#263238" stroke-linecap="round" stroke-linejoin="round" stroke-width="1"/></g></svg>